<svg width="350" height="88" viewBox="0 0 350 88" fill="none" xmlns="http://www.w3.org/2000/svg">
<path d="M158.934 7.49609C158.77 7.49609 158.852 7.35547 159.18 7.07422C159.508 6.79297 159.906 6.45313 160.375 6.05469C160.844 5.63281 161.371 5.08203 161.957 4.40234C162.332 3.95703 162.613 3.48828 162.801 2.99609C162.918 2.71484 163.047 2.57422 163.188 2.57422C163.305 2.57422 163.48 2.66797 163.715 2.85547C164.184 3.23047 164.418 3.54687 164.418 3.80469C164.418 3.96875 164.324 4.08594 164.137 4.15625C164.043 4.17969 163.902 4.28516 163.715 4.47266C163.527 4.63672 163.387 4.76563 163.293 4.85938C162.285 5.84375 161.348 6.55859 160.48 7.00391C159.777 7.33203 159.309 7.49609 159.074 7.49609H158.934ZM162.625 14.0352C162.555 14.0352 162.438 13.9414 162.273 13.7539C162.133 13.543 162.027 13.3438 161.957 13.1562C161.934 13.0156 161.934 12.8398 161.957 12.6289C162.004 12.3945 162.027 12.2188 162.027 12.1016C162.074 11.6328 162.098 11.2578 162.098 10.9766C162.121 10.7187 162.121 10.4375 162.098 10.1328C162.098 9.82813 162.098 9.62891 162.098 9.53516L162.062 9.00781C161.5 9.40625 161.066 9.6875 160.762 9.85156C160.082 10.2266 159.59 10.4609 159.285 10.5547C158.91 10.6953 158.57 10.7656 158.266 10.7656C158.102 10.7656 158.008 10.7422 157.984 10.6953C157.938 10.6016 158.406 10.2617 159.391 9.67578C160.328 9.08984 161.348 8.31641 162.449 7.35547C163.059 6.79297 163.527 6.25391 163.855 5.73828C163.902 5.66797 163.938 5.58594 163.961 5.49219C164.008 5.375 164.055 5.30469 164.102 5.28125C164.172 5.25781 164.266 5.26953 164.383 5.31641C164.688 5.48047 164.945 5.71484 165.156 6.01953C165.25 6.13672 165.297 6.25391 165.297 6.37109C165.297 6.48828 165.238 6.60547 165.121 6.72266C165.004 6.81641 164.887 6.88672 164.77 6.93359C164.371 7.19141 164.008 7.47266 163.68 7.77734C163.352 8.08203 163.141 8.28125 163.047 8.375C163.398 8.65625 163.574 8.85547 163.574 8.97266L163.469 9.71094C163.422 9.92188 163.398 10.4492 163.398 11.293C163.398 12.1133 163.422 12.6641 163.469 12.9453V13.0156C163.469 13.1328 163.434 13.2617 163.363 13.4023C163.316 13.5195 163.281 13.6016 163.258 13.6484C163.094 13.9063 162.883 14.0352 162.625 14.0352ZM166.211 22.9648C165.859 22.9648 165.52 22.707 165.191 22.1914C164.77 21.5352 164.359 20.9961 163.961 20.5742L163.047 19.625C162.555 20.1875 162.121 20.6328 161.746 20.9609C161.395 21.2891 160.949 21.6055 160.41 21.9102C159.402 22.4961 158.559 22.7891 157.879 22.7891C157.715 22.7891 157.633 22.7305 157.633 22.6133C157.633 22.543 157.855 22.3906 158.301 22.1562C158.746 21.9219 159.168 21.6406 159.566 21.3125C160.574 20.4688 161.406 19.6016 162.062 18.7109C161.922 18.5703 161.219 17.9609 159.953 16.8828C159.789 16.7656 159.543 16.5664 159.215 16.2852C159.145 16.2383 159.004 16.1328 158.793 15.9688C158.582 15.8047 158.477 15.6875 158.477 15.6172C158.477 15.5 158.535 15.4414 158.652 15.4414C159.004 15.4414 159.566 15.6875 160.34 16.1797C161.113 16.6484 161.922 17.2109 162.766 17.8672C163.094 17.4688 163.352 17.0938 163.539 16.7422C163.727 16.3906 163.938 15.957 164.172 15.4414C164.289 15.1836 164.359 14.9609 164.383 14.7734C164.406 14.5625 164.418 14.4336 164.418 14.3867C164.418 14.1289 164.488 14 164.629 14C164.793 14 165.016 14.1289 165.297 14.3867C165.789 14.8555 166.035 15.1719 166.035 15.3359C166.035 15.4297 165.977 15.5352 165.859 15.6523C165.578 15.9336 165.32 16.3086 165.086 16.7773C164.945 17.0586 164.688 17.457 164.312 17.9727C164.195 18.1133 164.102 18.2422 164.031 18.3594C163.961 18.4766 163.891 18.582 163.82 18.6758C164.359 19.0742 165.156 19.7539 166.211 20.7148C166.469 20.9492 166.633 21.1719 166.703 21.3828C166.797 21.5703 166.844 21.8281 166.844 22.1562C166.844 22.3906 166.785 22.5898 166.668 22.7539C166.551 22.8945 166.398 22.9648 166.211 22.9648ZM166.844 27.6055C167.102 27.8867 167.23 28.1211 167.23 28.3086C167.23 28.4727 167.137 28.625 166.949 28.7656C166.832 28.8594 166.539 29.375 166.07 30.3125C165.555 31.1562 164.98 31.8828 164.348 32.4922C163.738 33.125 163.129 33.582 162.52 33.8633C162.379 33.9102 162.262 33.9336 162.168 33.9336C162.074 33.9336 162.027 33.9102 162.027 33.8633V33.793C162.027 33.6523 162.145 33.4883 162.379 33.3008C162.801 32.9727 163.117 32.6328 163.328 32.2812C163.562 31.9531 163.738 31.707 163.855 31.543C164.348 30.8398 164.699 30.2656 164.91 29.8203C165.145 29.4219 165.309 29.0117 165.402 28.5898H165.262C164.652 28.5898 163.668 28.6602 162.309 28.8008C162.098 28.8242 161.488 28.9062 160.48 29.0469C160.27 29.0703 159.941 29.1289 159.496 29.2227L159.074 29.3281C158.98 29.375 158.887 29.3984 158.793 29.3984C158.676 29.3984 158.559 29.375 158.441 29.3281C158.324 29.2578 158.207 29.1758 158.09 29.082C157.809 28.8477 157.668 28.6484 157.668 28.4844C157.691 28.4375 157.715 28.3672 157.738 28.2734C157.785 28.1797 157.809 28.0977 157.809 28.0273L157.984 26.8672C158.008 26.75 158.031 26.6211 158.055 26.4805C158.078 26.3398 158.09 26.1992 158.09 26.0586C158.09 25.6133 158.078 25.2617 158.055 25.0039C158.055 24.7227 158.02 24.4297 157.949 24.125V24.0195C157.949 23.8555 158.02 23.7734 158.16 23.7734C158.301 23.7734 158.547 23.8789 158.898 24.0898C159.367 24.418 159.602 24.6758 159.602 24.8633C159.602 24.9336 159.59 24.9922 159.566 25.0391C159.543 25.0859 159.52 25.1328 159.496 25.1797C159.426 25.6016 159.391 25.8359 159.391 25.8828L159.215 27.7461C159.215 27.793 159.238 27.8516 159.285 27.9219C159.355 27.9688 159.426 27.9922 159.496 27.9922C160.059 27.9922 161.324 27.8516 163.293 27.5703C164.066 27.5 164.617 27.418 164.945 27.3242C165.156 27.3008 165.332 27.2656 165.473 27.2188C165.637 27.1484 165.742 27.1133 165.789 27.1133C165.93 27.0664 166.023 27.043 166.07 27.043C166.281 27.043 166.539 27.2305 166.844 27.6055ZM133.129 17.2344L130.738 17.9023L129.684 18.1836C128.957 18.3711 128.477 18.4766 128.242 18.5C127.961 18.5 127.703 18.4766 127.469 18.4297C127.164 18.3594 126.824 18.207 126.449 17.9727C126.051 17.7383 125.758 17.4102 125.57 16.9883C125.664 16.8477 125.84 16.7656 126.098 16.7422L126.977 16.707C127.703 16.6836 128.477 16.6484 129.297 16.6016C130.117 16.5312 130.855 16.4375 131.512 16.3203L133.762 15.9336C134.09 15.1836 134.289 14.7148 134.359 14.5273L134.816 13.1562C134.441 13.1797 134.148 13.2031 133.938 13.2266C133.727 13.25 133.375 13.2969 132.883 13.3672C132.391 13.4609 131.992 13.5078 131.688 13.5078C131.312 13.5078 131.02 13.4609 130.809 13.3672C130.527 13.25 130.316 13.1211 130.176 12.9805L130.035 12.6641C130.059 12.5 130.176 12.418 130.387 12.418L131.055 12.3477C131.219 12.3477 131.617 12.3125 132.25 12.2422C132.883 12.1719 133.48 12.1133 134.043 12.0664L135.238 11.9258C135.543 10.9883 135.719 10.4023 135.766 10.168L136.047 8.76172C135.18 8.83203 134.395 8.91406 133.691 9.00781C132.965 9.07812 132.496 9.11328 132.285 9.11328H131.758C131.289 9.11328 130.938 9.06641 130.703 8.97266C130.398 8.83203 130.176 8.66797 130.035 8.48047L129.895 8.12891L130.141 7.95312H130.879L131.863 7.84766L133.902 7.70703L136.293 7.35547L136.434 5.45703V5.10547C136.434 4.84766 136.41 4.53125 136.363 4.15625C136.316 3.80469 136.281 3.55859 136.258 3.41797L136.117 2.64453L136.469 2.39844C136.703 2.375 136.949 2.41016 137.207 2.50391C137.535 2.64453 137.863 2.79688 138.191 2.96094C138.52 3.125 138.801 3.32422 139.035 3.55859C139.27 3.79297 139.387 4.02734 139.387 4.26172L139.141 4.75391C138.977 5.01172 138.848 5.30469 138.754 5.63281L138.262 7.07422L141.145 6.65234L142.727 6.30078C143.008 6.25391 143.266 6.21875 143.5 6.19531C143.898 6.19531 144.32 6.28906 144.766 6.47656C145.164 6.61719 145.363 6.79297 145.363 7.00391C145.34 7.23828 145.246 7.37891 145.082 7.42578L144.379 7.63672C144.145 7.68359 143.746 7.75391 143.184 7.84766L140.934 8.19922C140.137 8.31641 139.469 8.39844 138.93 8.44531L137.98 8.55078C137.723 9.46484 137.57 10.0273 137.523 10.2383L137.137 11.6445L139.316 11.2578C139.785 11.1875 140.324 11.082 140.934 10.9414C141.543 10.7773 142.035 10.6836 142.41 10.6602C142.762 10.6602 143.043 10.6836 143.254 10.7305C143.582 10.7773 143.887 10.8711 144.168 11.0117L144.625 11.3984C144.625 11.5859 144.461 11.7266 144.133 11.8203C143.875 11.8906 143.523 11.9492 143.078 11.9961C142.633 12.043 142.059 12.1133 141.355 12.207L139.211 12.5586L136.855 12.9102C136.527 13.8008 136.328 14.3516 136.258 14.5625L135.871 15.6523C136.574 15.582 137.102 15.5234 137.453 15.4766L141.074 15.1602C141.73 15.1133 142.445 15.0195 143.219 14.8789C143.992 14.7617 144.613 14.6445 145.082 14.5273L146.137 14.2461C146.605 14.1523 146.969 14.1055 147.227 14.1055C147.531 14.1055 147.801 14.1523 148.035 14.2461C148.293 14.3398 148.668 14.4922 149.16 14.7031C149.652 14.9141 149.969 15.1367 150.109 15.3711L150.215 15.9336C150.121 16.1211 149.934 16.2266 149.652 16.25L148.879 16.2852L146.699 16.2148C146.348 16.2148 145.691 16.2383 144.73 16.2852L141.918 16.3555H140.652L141.777 17.1992L143.887 18.9922C145.012 19.9531 146.02 20.7617 146.91 21.418C147.801 22.0742 148.539 22.5547 149.125 22.8594C149.711 23.1641 150.566 23.5508 151.691 24.0195C152.816 24.4648 153.801 24.793 154.645 25.0039L155.594 25.7422L154.855 25.9531L152.605 26.4102C151.668 26.5977 150.941 26.6914 150.426 26.6914C149.816 26.6211 149.266 26.4219 148.773 26.0938C148.281 25.7656 147.824 25.3789 147.402 24.9336L144.66 21.9805C143.301 20.4805 142.246 19.3672 141.496 18.6406C140.793 17.9141 140.254 17.4336 139.879 17.1992L138.93 16.4961C137.875 16.6133 137.23 16.6836 136.996 16.707L135.273 16.918C134.57 18.2773 133.996 19.2852 133.551 19.9414C133.105 20.5977 132.496 21.3242 131.723 22.1211C130.973 22.9648 130.188 23.7031 129.367 24.3359C128.547 24.9688 127.785 25.4844 127.082 25.8828C126.332 26.2812 125.594 26.6211 124.867 26.9023C124.141 27.1602 123.66 27.3242 123.426 27.3945L122.406 27.2188L123.285 26.6562L124.27 26.0938C124.879 25.7656 125.547 25.3438 126.273 24.8281C127 24.3359 127.715 23.7734 128.418 23.1406C129.121 22.5078 129.883 21.7227 130.703 20.7852C131.547 19.8477 132.098 19.1445 132.355 18.6758L133.129 17.2344ZM139.984 32.3867L137.734 32.5977C136.703 32.6914 136.105 32.7383 135.941 32.7383L134.254 32.7734L134.113 33.3359C133.973 33.7578 133.809 33.9688 133.621 33.9688C133.434 33.9453 133.246 33.793 133.059 33.5117C132.848 33.207 132.719 32.8438 132.672 32.4219C132.672 32.1172 132.695 31.8008 132.742 31.4727C132.789 31.0273 132.812 30.5117 132.812 29.9258L132.637 24.8633C132.59 24.207 132.52 23.7266 132.426 23.4219C132.355 23.1172 132.273 22.8828 132.18 22.7188L132.074 22.4023C132.121 22.2617 132.344 22.168 132.742 22.1211L133.727 22.332L134.852 22.1914C135.25 22.1445 135.73 22.0625 136.293 21.9453L138.191 21.5586C138.848 21.418 139.316 21.3008 139.598 21.207C139.879 21.1367 140.16 21.043 140.441 20.9258L141.109 20.7148C141.367 20.6914 141.59 20.7148 141.777 20.7852C142.035 20.8789 142.316 21.0312 142.621 21.2422C142.949 21.4531 143.23 21.6641 143.465 21.875L143.852 22.3672C143.852 22.5312 143.816 22.6836 143.746 22.8242C143.676 23.0117 143.617 23.2109 143.57 23.4219C143.5 23.6328 143.465 23.832 143.465 24.0195C143.418 24.207 143.383 24.582 143.359 25.1445V25.7422C143.359 26.1406 143.371 26.5742 143.395 27.043C143.418 27.6055 143.465 28.1914 143.535 28.8008L143.816 30.5938C143.91 31.2031 143.957 31.6602 143.957 31.9648C143.91 32.5742 143.734 33.1836 143.43 33.793C143.102 34.4023 142.785 34.7773 142.48 34.918L141.953 35.0586C141.695 35.0352 141.449 34.8008 141.215 34.3555C141.004 33.9336 140.77 33.5234 140.512 33.125L139.984 32.3867ZM134.324 31.5781C135.355 31.4609 136.141 31.3672 136.68 31.2969L138.508 31.0508C139.188 30.9336 139.645 30.875 139.879 30.875C140.254 30.8984 140.535 30.957 140.723 31.0508L141.461 31.4727L141.637 27.0078C141.121 27.125 140.734 27.1953 140.477 27.2188L138.051 27.6758C136.973 27.8633 136.211 27.9805 135.766 28.0273L135.344 28.0625H134.992L134.254 27.8867L134.324 31.5781ZM134.254 26.9023C134.488 26.9023 134.699 26.8906 134.887 26.8672C135.074 26.8438 135.566 26.7617 136.363 26.6211C137.207 26.457 137.887 26.3047 138.402 26.1641C138.965 26 139.387 25.918 139.668 25.918C139.926 25.918 140.16 25.9297 140.371 25.9531C140.676 26 141.039 26.1055 141.461 26.2695L141.637 23.3164C141.613 22.9414 141.555 22.6953 141.461 22.5781C141.344 22.4609 141.121 22.3906 140.793 22.3672C140.488 22.3672 140.16 22.3789 139.809 22.4023L138.262 22.4727C137.887 22.5195 137.348 22.6367 136.645 22.8242C135.941 22.9883 135.449 23.1172 135.168 23.2109L134.535 23.3516L134.395 23.7031C134.418 23.8438 134.418 24.043 134.395 24.3008C134.348 24.5352 134.324 24.7344 134.324 24.8984L134.254 26.9023ZM219.121 13.6836C218.957 13.6836 218.781 13.5781 218.594 13.3672C218.453 13.2031 218.359 13.0742 218.312 12.9805C218.266 12.8633 218.266 12.7109 218.312 12.5234L218.348 11.6797C218.371 11.5156 218.383 11.1172 218.383 10.4844V9.32422L217.328 9.81641L216.098 10.3438C215.793 10.4609 215.477 10.6016 215.148 10.7656C214.867 10.9062 214.621 10.9766 214.41 10.9766C214.246 10.9531 214.059 10.8945 213.848 10.8008C213.637 10.707 213.473 10.625 213.355 10.5547C213.098 10.3906 212.98 10.2148 213.004 10.0273L213.109 9.67578C213.109 9.48828 213.121 9.32422 213.145 9.18359L213.18 7.14453V5.24609C213.18 4.87109 213.156 4.55469 213.109 4.29688C213.062 4.01562 213.027 3.81641 213.004 3.69922C213.004 3.58203 213.039 3.5 213.109 3.45312C213.133 3.42969 213.191 3.41797 213.285 3.41797C213.449 3.41797 213.766 3.52344 214.234 3.73438C214.633 3.92188 214.797 4.15625 214.727 4.4375C214.68 4.60156 214.633 4.84766 214.586 5.17578L214.48 9.21875C214.48 9.33594 214.492 9.42969 214.516 9.5C214.562 9.54688 214.609 9.57031 214.656 9.57031C214.938 9.57031 215.277 9.48828 215.676 9.32422C216.426 9.08984 217.07 8.85547 217.609 8.62109L218.383 8.30469V5.98438C218.383 5.04688 218.324 4.14453 218.207 3.27734C218.184 3.20703 218.172 3.125 218.172 3.03125C218.172 2.79688 218.266 2.67969 218.453 2.67969C218.477 2.67969 218.605 2.72656 218.84 2.82031C219.191 3.00781 219.449 3.17188 219.613 3.3125C219.777 3.45312 219.871 3.53516 219.895 3.55859C219.988 3.62891 220.035 3.69922 220.035 3.76953C220.035 3.81641 220.012 3.875 219.965 3.94531C219.941 4.01562 219.918 4.07422 219.895 4.12109L219.789 5.17578L219.754 8.41016L219.789 11.5391C219.789 12.0781 219.754 12.5469 219.684 12.9453C219.566 13.4375 219.379 13.6836 219.121 13.6836ZM212.652 19.4492C212.395 19.4492 212.078 19.25 211.703 18.8516C211.422 18.5703 211.281 18.3594 211.281 18.2188C211.281 18.1484 211.328 18.1133 211.422 18.1133C211.516 18.0898 211.633 18.0781 211.773 18.0781L212.547 18.043C212.992 18.043 213.285 18.0312 213.426 18.0078C213.871 18.0078 214.246 17.9961 214.551 17.9727C216.566 17.7852 217.926 17.6328 218.629 17.5156C218.98 17.4688 219.297 17.4219 219.578 17.375C219.859 17.3047 220.082 17.2695 220.246 17.2695C220.574 17.2695 220.902 17.4336 221.23 17.7617C221.488 18.0195 221.617 18.2305 221.617 18.3945C221.617 18.5352 221.535 18.6289 221.371 18.6758C221.254 18.6992 220.562 18.7461 219.297 18.8164C218.594 18.8398 217.727 18.8984 216.695 18.9922C215.664 19.0859 214.762 19.1797 213.988 19.2734C213.848 19.2969 213.648 19.332 213.391 19.3789C213.133 19.4258 212.887 19.4492 212.652 19.4492ZM217.363 33.9688C216.637 33.9688 216.074 33.9453 215.676 33.8984C215.301 33.8516 214.984 33.7109 214.727 33.4766C214.281 33.1484 213.977 32.4336 213.812 31.332L213.707 30.207C213.707 29.9258 213.684 29.5742 213.637 29.1523C213.262 29.1992 212.992 29.2461 212.828 29.293C212.781 29.3164 212.699 29.3516 212.582 29.3984C212.488 29.4219 212.418 29.4336 212.371 29.4336C212.207 29.4336 212.055 29.3867 211.914 29.293C211.773 29.1992 211.598 29.0234 211.387 28.7656C211.223 28.5547 211.141 28.4141 211.141 28.3438C211.141 28.2734 211.223 28.2266 211.387 28.2031C211.551 28.1797 211.773 28.168 212.055 28.168C212.453 28.168 212.969 28.1211 213.602 28.0273L213.566 27.5352C213.566 26.5977 213.508 25.8008 213.391 25.1445L213.355 24.8984C213.355 24.5703 213.484 24.4414 213.742 24.5117C214.023 24.6055 214.281 24.7227 214.516 24.8633C214.703 24.957 214.832 25.0508 214.902 25.1445C214.973 25.2148 214.996 25.3203 214.973 25.4609L214.867 26.9727V27.8867L217.961 27.5703C217.961 27.4062 217.973 27.0195 217.996 26.4102C218.02 25.7773 218.02 25.3672 217.996 25.1797C217.996 24.9922 217.973 24.8164 217.926 24.6523C217.902 24.4648 217.879 24.3125 217.855 24.1953C217.855 24.0078 217.949 23.9141 218.137 23.9141C218.324 23.9141 218.559 24.0195 218.84 24.2305C219.168 24.4414 219.379 24.6289 219.473 24.793C219.59 24.957 219.613 25.1562 219.543 25.3906C219.426 25.7656 219.344 26.1875 219.297 26.6562C219.25 27.125 219.227 27.4062 219.227 27.5C219.508 27.4766 219.766 27.4414 220 27.3945C220.234 27.3477 220.387 27.3242 220.457 27.3242C220.645 27.2773 220.867 27.2539 221.125 27.2539C221.266 27.2773 221.465 27.418 221.723 27.6758C221.934 27.957 222.039 28.1797 222.039 28.3438C222.039 28.5781 221.816 28.6719 221.371 28.625C220.973 28.5547 220.574 28.5195 220.176 28.5195C219.777 28.5195 219.438 28.5312 219.156 28.5547C219.086 29.3984 218.945 30.2305 218.734 31.0508C218.688 31.2383 218.605 31.4023 218.488 31.543C218.371 31.6602 218.266 31.7188 218.172 31.7188C218.008 31.7188 217.902 31.6602 217.855 31.543C217.832 31.4023 217.82 31.1914 217.82 30.9102C217.867 30.3008 217.891 29.5391 217.891 28.625C217.258 28.6719 216.766 28.7188 216.414 28.7656C215.875 28.8828 215.371 28.9531 214.902 28.9766C214.879 29.9375 214.926 30.793 215.043 31.543C215.113 32.0352 215.254 32.375 215.465 32.5625C215.605 32.6797 215.77 32.75 215.957 32.7734C216.168 32.7969 216.379 32.8086 216.59 32.8086C216.801 32.8086 216.941 32.8086 217.012 32.8086C217.738 32.8086 218.418 32.7734 219.051 32.7031C219.238 32.6797 219.402 32.6328 219.543 32.5625C219.707 32.4922 219.824 32.457 219.895 32.457C220.105 32.457 220.316 32.5273 220.527 32.668C220.738 32.8086 220.844 32.9727 220.844 33.1602C220.844 33.3477 220.738 33.4883 220.527 33.582C220.34 33.6758 220.035 33.7578 219.613 33.8281C218.863 33.9219 218.113 33.9688 217.363 33.9688ZM227.383 17.9727C227.664 17.9727 227.805 18.1016 227.805 18.3594C227.805 18.5 227.676 18.6992 227.418 18.957C226.715 19.8242 225.32 21.4766 223.234 23.9141C223.07 24.125 222.918 24.2305 222.777 24.2305C222.66 24.2305 222.402 24.0547 222.004 23.7031C221.676 23.4219 221.512 23.1875 221.512 23C221.512 22.7891 221.688 22.5898 222.039 22.4023C222.578 22.0977 223.387 21.4883 224.465 20.5742C225.543 19.6133 226.34 18.8516 226.855 18.2891C227.066 18.0781 227.242 17.9727 227.383 17.9727ZM188.992 26.3398C188.875 26.1523 188.781 25.9883 188.711 25.8477C188.617 25.707 188.523 25.5195 188.43 25.2852V24.4414L189.379 24.6523L190.328 25.0742C190.75 25.2617 191.125 25.4492 191.453 25.6367C191.781 25.8477 192.051 26.1641 192.262 26.5859C192.426 26.9375 192.508 27.3477 192.508 27.8164C192.484 28.2852 192.367 28.6484 192.156 28.9062C191.969 29.1641 191.723 29.293 191.418 29.293C191.113 29.293 190.797 29.1055 190.469 28.7305C190.281 28.543 190.105 28.2734 189.941 27.9219L189.414 27.043L185.617 29.7852L184.352 30.8398L183.508 31.6836L183.086 31.9648C182.852 31.9648 182.617 31.8125 182.383 31.5078C182.172 31.25 181.984 30.9336 181.82 30.5586C181.68 30.2539 181.609 29.9609 181.609 29.6797L181.82 29.0117C181.961 28.6367 182.066 28.25 182.137 27.8516C182.207 27.4297 182.266 26.9492 182.312 26.4102C182.359 25.8945 182.406 25.1445 182.453 24.1602L182.629 18.043C182.629 17.7148 182.617 17.375 182.594 17.0234C182.547 16.6719 182.488 16.3789 182.418 16.1445C182.348 15.9102 182.242 15.6992 182.102 15.5117L181.82 15.2305L181.75 14.8789C181.844 14.7383 182.008 14.668 182.242 14.668C182.805 14.668 183.25 14.7617 183.578 14.9492L184.105 15.2305C184.691 15.1602 185.172 15.0898 185.547 15.0195C185.945 14.9727 186.438 14.8789 187.023 14.7383C187.586 14.5977 188.02 14.4805 188.324 14.3867C188.629 14.293 188.945 14.1758 189.273 14.0352C189.602 13.8945 189.859 13.8242 190.047 13.8242C190.234 13.8477 190.457 13.918 190.715 14.0352L191.453 14.4219L191.91 14.7383C192.332 14.9961 192.602 15.207 192.719 15.3711L192.754 16.0039L192.402 16.5312C192.332 16.6719 192.227 16.9062 192.086 17.2344L191.91 17.7617L191.031 21.0312L190.68 22.4023C190.492 22.8711 190.305 23.1641 190.117 23.2812L189.73 23.4219H189.484L189.027 22.9648C188.395 23.0352 187.914 23.082 187.586 23.1055L185.16 23.457L184.281 23.5273L184.07 27.3945L184.211 28.168C184.398 28.168 184.609 28.1211 184.844 28.0273L188.992 26.3398ZM184.281 22.3672C184.703 22.3438 185.031 22.3203 185.266 22.2969C185.5 22.2734 185.852 22.2031 186.32 22.0859C186.836 21.9688 187.281 21.875 187.656 21.8047C187.938 21.7578 188.195 21.7344 188.43 21.7344L189.098 21.8047L189.695 19.0977C189.109 19.1445 188.676 19.1914 188.395 19.2383L186.707 19.5195C186.215 19.6133 185.816 19.6602 185.512 19.6602L184.949 19.5898L184.422 19.4141L184.281 22.3672ZM184.457 18.6758C184.902 18.6523 185.254 18.6172 185.512 18.5703C185.77 18.5234 186.203 18.418 186.812 18.2539C187.375 18.0898 187.797 17.9961 188.078 17.9727C188.477 17.9727 188.863 18.043 189.238 18.1836L189.801 18.3945L189.977 17.3047C190.023 17 190.047 16.6602 190.047 16.2852C190.047 15.9102 189.988 15.6641 189.871 15.5469C189.754 15.4297 189.59 15.3711 189.379 15.3711C189.145 15.3945 188.852 15.4531 188.5 15.5469C188.172 15.6172 187.633 15.7227 186.883 15.8633C186.109 16.0039 185.617 16.0742 185.406 16.0742L184.668 16.1094L184.457 18.6758ZM197.148 17.1992C197.055 17.5742 196.996 17.8555 196.973 18.043C196.949 18.2305 196.914 18.5352 196.867 18.957C196.82 19.3789 196.797 19.7305 196.797 20.0117L196.691 27.1133C196.668 28.0977 196.586 29.2461 196.445 30.5586L196.305 32.0703C196.211 32.9844 196.047 33.7695 195.812 34.4258C195.578 35.0586 195.367 35.375 195.18 35.375C195.016 35.3516 194.875 35.0117 194.758 34.3555C194.641 33.7227 194.57 32.9844 194.547 32.1406C194.523 31.5781 194.512 31.0156 194.512 30.4531V29.5742L194.652 20.3633C194.676 19.7539 194.688 19.2617 194.688 18.8867C194.688 18.5117 194.676 18.2539 194.652 18.1133C194.629 17.8086 194.594 17.457 194.547 17.0586C194.5 16.6602 194.418 16.332 194.301 16.0742L194.16 15.3711L194.336 15.1602C194.547 15.1602 194.805 15.207 195.109 15.3008C195.719 15.4883 196.117 15.6406 196.305 15.7578L196.867 16.1094L198.59 15.7227C199.176 15.582 199.773 15.418 200.383 15.2305L201.156 15.0195C201.531 14.9023 201.859 14.7734 202.141 14.6328L202.633 14.457C202.797 14.457 202.996 14.5273 203.23 14.668C203.465 14.8086 203.711 14.9727 203.969 15.1602C204.25 15.3477 204.52 15.5586 204.777 15.793C204.988 15.9805 205.059 16.2617 204.988 16.6367C204.801 16.8945 204.672 17.1289 204.602 17.3398C204.555 17.5508 204.508 17.832 204.461 18.1836C204.414 18.5586 204.391 18.9453 204.391 19.3438L204.18 23.1055C204.133 24.043 204.062 24.7695 203.969 25.2852C203.898 25.8008 203.746 26.2578 203.512 26.6562C203.254 27.0547 202.961 27.3711 202.633 27.6055L202 27.8867C201.812 27.8398 201.625 27.6992 201.438 27.4648C201.227 27.207 200.934 26.8789 200.559 26.4805C200.207 26.0586 199.867 25.6836 199.539 25.3555L198.906 24.793L198.695 24.3008C198.836 24.2773 199 24.3008 199.188 24.3711L199.996 24.6172C200.465 24.7812 200.828 24.875 201.086 24.8984C201.297 24.8984 201.473 24.8633 201.613 24.793C201.824 24.6523 201.953 24.3477 202 23.8789C202.07 23.3633 202.117 22.8711 202.141 22.4023L202.281 17.832C202.281 17.293 202.258 16.9414 202.211 16.7773L202.07 16.4961C201.93 16.3555 201.719 16.2852 201.438 16.2852C201.203 16.2852 200.805 16.332 200.242 16.4258L198.66 16.7422L197.148 17.1992ZM197.852 6.40625L202.281 5.52734C202.516 5.48047 202.773 5.41016 203.055 5.31641L203.688 5.17578C203.992 5.15234 204.25 5.16406 204.461 5.21094C204.742 5.28125 205.035 5.41016 205.34 5.59766L205.832 5.94922C205.855 6.08984 205.773 6.25391 205.586 6.44141C205.398 6.58203 205.129 6.6875 204.777 6.75781L203.477 7.00391C203.102 7.05078 202.574 7.12109 201.895 7.21484C201.215 7.28516 200.605 7.35547 200.066 7.42578C199.527 7.51953 199.164 7.56641 198.977 7.56641C198.602 7.56641 198.238 7.51953 197.887 7.42578L197.289 7.32031L196.27 8.72656C195.871 9.24219 195.391 9.76953 194.828 10.3086C194.219 10.8711 193.82 11.2109 193.633 11.3281L193 11.7148L192.578 11.8555L192.332 11.6797L192.578 11.293L193.352 10.3086C193.68 9.91016 193.949 9.55859 194.16 9.25391C194.371 8.92578 194.617 8.51562 194.898 8.02344C195.203 7.53125 195.449 7.09766 195.637 6.72266C195.801 6.37109 195.953 6.01953 196.094 5.66797C196.234 5.29297 196.34 4.98828 196.41 4.75391C196.48 4.49609 196.562 4.23828 196.656 3.98047C196.703 3.69922 196.727 3.44141 196.727 3.20703L196.938 2.64453L197.184 2.53906C197.348 2.53906 197.535 2.58594 197.746 2.67969C198.027 2.79688 198.32 2.94922 198.625 3.13672C198.93 3.32422 199.164 3.52344 199.328 3.73438L199.539 4.15625L199.469 4.47266C199.352 4.58984 199.188 4.75391 198.977 4.96484C198.742 5.19922 198.531 5.43359 198.344 5.66797L197.852 6.40625ZM186.25 7.28516L187.234 7.10938C187.656 7.03906 188.324 6.86328 189.238 6.58203L189.766 6.40625L190.645 6.16016L191.172 6.26562C191.453 6.33594 191.664 6.39453 191.805 6.44141C191.945 6.51172 192.086 6.60547 192.227 6.72266L192.473 6.96875C192.496 7.13281 192.438 7.27344 192.297 7.39062C192.109 7.50781 191.805 7.61328 191.383 7.70703L190.539 7.91797C190.352 7.96484 189.883 8.03516 189.133 8.12891L187.938 8.30469C187.633 8.32812 187.387 8.33984 187.199 8.33984L186.742 8.30469L185.828 7.98828L184.773 9.21875C184.445 9.61719 184.07 10.0156 183.648 10.4141C183.227 10.8359 182.84 11.1758 182.488 11.4336C182.137 11.668 181.762 11.9023 181.363 12.1367L180.168 12.5234C180.145 12.3594 180.203 12.207 180.344 12.0664L180.941 11.5039C181.293 11.1758 181.609 10.8477 181.891 10.5195C182.172 10.2383 182.512 9.81641 182.91 9.25391C183.309 8.69141 183.672 8.12891 184 7.56641C184.328 7.05078 184.609 6.58203 184.844 6.16016C185.055 5.73828 185.23 5.33984 185.371 4.96484C185.512 4.58984 185.582 4.21484 185.582 3.83984L185.863 3.3125C186.168 3.3125 186.496 3.41797 186.848 3.62891C187.199 3.81641 187.434 3.96875 187.551 4.08594C187.691 4.20313 187.82 4.33203 187.938 4.47266L188.148 5.17578C188.102 5.31641 187.984 5.44531 187.797 5.5625L187.41 5.80859L186.742 6.72266L186.25 7.28516ZM186.391 10.0625C186.648 10.0156 186.883 10.0039 187.094 10.0273L187.867 10.2031C188.078 10.2734 188.312 10.3438 188.57 10.4141C188.828 10.4844 189.039 10.5898 189.203 10.7305C189.391 10.8711 189.52 11.0117 189.59 11.1523C189.66 11.293 189.695 11.5039 189.695 11.7852C189.695 12.1602 189.602 12.4414 189.414 12.6289C189.25 12.8164 189.039 12.9219 188.781 12.9453C188.57 12.9453 188.312 12.8164 188.008 12.5586C187.797 12.3945 187.516 12.1133 187.164 11.7148C186.812 11.3398 186.555 11.0469 186.391 10.8359C186.25 10.625 186.25 10.3672 186.391 10.0625ZM198.414 8.90234L199.293 9.04297C199.926 9.18359 200.465 9.35938 200.91 9.57031C201.332 9.78125 201.648 10.0273 201.859 10.3086C202.047 10.5898 202.141 10.9648 202.141 11.4336C202.117 11.9961 201.918 12.3594 201.543 12.5234C201.238 12.5234 200.945 12.4297 200.664 12.2422C200.289 12.0312 199.926 11.7266 199.574 11.3281L198.695 10.2383L198.027 8.9375C198.191 8.89062 198.32 8.87891 198.414 8.90234Z" fill="#333333"/>
<path d="M163.875 71.3438C163.708 71.3438 163.542 71.3125 163.375 71.25C163.208 71.1667 163.083 71.0417 163 70.875C162.938 70.6875 162.802 70.4688 162.594 70.2188C162.406 69.9688 162.219 69.7812 162.031 69.6562L162.156 69.5C162.26 69.5625 162.51 69.6875 162.906 69.875C163.302 70.0625 163.594 70.1562 163.781 70.1562C164.073 70.1562 164.333 70.0521 164.562 69.8438C164.792 69.6354 165.083 69.2396 165.438 68.6562C165.688 68.2604 165.917 67.7917 166.125 67.25C166.333 66.7083 166.49 66.2083 166.594 65.75L166.625 65.6875C166.625 65.625 166.604 65.5729 166.562 65.5312C166.521 65.4688 166.479 65.4375 166.438 65.4375L165 65.5625C164.042 65.7292 163.042 65.8646 162 65.9688C161.812 65.9896 161.594 66.0417 161.344 66.125C161.094 66.2083 160.917 66.25 160.812 66.25C160.646 66.25 160.427 66.1146 160.156 65.8438C160.052 65.7604 159.948 65.6562 159.844 65.5312C159.76 65.4062 159.74 65.3021 159.781 65.2188C159.948 65.0521 160.031 64.9688 160.031 64.9688L160.188 64.8438C160.479 64.5521 160.771 64.1667 161.062 63.6875C161.271 63.3958 161.49 62.9062 161.719 62.2188C161.719 61.9896 161.771 61.875 161.875 61.875C161.938 61.875 162.042 61.9167 162.188 62L162.688 62.3125C162.812 62.4167 162.896 62.5 162.938 62.5625C162.979 62.625 163 62.7083 163 62.8125C163 62.9375 162.917 63.0938 162.75 63.2812C162.583 63.4479 162.438 63.6146 162.312 63.7812L161.594 64.8125L161.531 64.9375C161.531 65 161.615 65.0312 161.781 65.0312L164.188 64.7188L165.812 64.5938L166.438 64.5312L166.781 64.4688H166.875C167.083 64.4688 167.312 64.6458 167.562 65C167.854 65.2708 168 65.5 168 65.6875L167.844 66.0938C167.823 66.1354 167.656 66.625 167.344 67.5625C166.969 68.4583 166.646 69.1354 166.375 69.5938C166.104 70.0521 165.812 70.4062 165.5 70.6562C164.938 71.1146 164.396 71.3438 163.875 71.3438ZM164.469 81.9062C164.469 81.8854 164.521 81.8125 164.625 81.6875C164.75 81.5417 164.885 81.3646 165.031 81.1562C165.281 80.8021 165.531 80.2812 165.781 79.5938C166.031 78.9062 166.167 78.2708 166.188 77.6875C166.188 77.6458 166.167 77.6042 166.125 77.5625C166.104 77.5 166.052 77.4688 165.969 77.4688L165.25 77.5312L164.188 77.625C163.958 78.375 163.562 79.1875 163 80.0625C162.75 80.4583 162.406 80.8125 161.969 81.125C161.552 81.4167 161.146 81.625 160.75 81.75C160.625 81.7917 160.469 81.8125 160.281 81.8125C160.135 81.7917 160.062 81.75 160.062 81.6875C160.062 81.6042 160.135 81.5312 160.281 81.4688C160.531 81.3021 160.812 81.0417 161.125 80.6875C161.458 80.3333 161.75 79.9688 162 79.5938C162.146 79.3854 162.302 79.1146 162.469 78.7812C162.635 78.4271 162.771 78.1042 162.875 77.8125C162.208 77.8958 161.521 78.0521 160.812 78.2812C160.771 78.3229 160.698 78.3438 160.594 78.3438C160.531 78.3438 160.438 78.3021 160.312 78.2188C160.146 78.0521 160.031 77.9271 159.969 77.8438C159.927 77.7396 159.948 77.6458 160.031 77.5625L160.156 77.3125C160.24 77.1875 160.323 76.9375 160.406 76.5625C160.49 76.1875 160.531 75.8854 160.531 75.6562C160.531 75.5938 160.521 75.5208 160.5 75.4375C160.5 75.3333 160.51 75.2812 160.531 75.2812C160.573 75.2604 160.625 75.2604 160.688 75.2812C160.917 75.3229 161.125 75.3958 161.312 75.5C161.479 75.6042 161.594 75.7188 161.656 75.8438C161.74 75.9479 161.74 76.0417 161.656 76.125C161.635 76.1458 161.604 76.1875 161.562 76.25C161.521 76.2917 161.49 76.3542 161.469 76.4375C161.448 76.4583 161.406 76.6875 161.344 77.125C161.344 77.1458 161.354 77.1667 161.375 77.1875C161.417 77.2083 161.458 77.2083 161.5 77.1875C161.562 77.1875 161.656 77.1771 161.781 77.1562C161.906 77.1354 162 77.1146 162.062 77.0938C162.208 77.0729 162.375 77.0417 162.562 77C162.771 76.9583 162.958 76.9271 163.125 76.9062C163.188 76.6771 163.229 76.4271 163.25 76.1562C163.292 75.8646 163.323 75.6667 163.344 75.5625L163.375 74.9062V74.6875C162.708 74.7083 162.01 74.7708 161.281 74.875L160.719 74.9688H160.594C160.49 74.9688 160.385 74.9375 160.281 74.875C160.198 74.8125 160.104 74.7396 160 74.6562C159.729 74.4062 159.594 74.2188 159.594 74.0938C159.594 73.9688 159.688 73.9271 159.875 73.9688C160.125 74.0104 160.385 74.0312 160.656 74.0312L161.562 74L165.906 73.6875C166.073 73.6667 166.229 73.6458 166.375 73.625C166.521 73.5833 166.667 73.5521 166.812 73.5312H166.906C167.177 73.5312 167.365 73.5833 167.469 73.6875C167.594 73.7708 167.667 73.8229 167.688 73.8438C168.021 74.1146 168.188 74.3229 168.188 74.4688C168.188 74.5938 168.01 74.6458 167.656 74.625L167.031 74.5625C166.49 74.5417 165.677 74.5625 164.594 74.625L164.469 75.8438C164.448 76.0521 164.427 76.2188 164.406 76.3438C164.385 76.4688 164.365 76.5729 164.344 76.6562L164.312 76.75C164.812 76.7083 165.396 76.6458 166.062 76.5625C166.104 76.5417 166.177 76.5208 166.281 76.5C166.385 76.4583 166.49 76.4271 166.594 76.4062H166.656C166.781 76.4062 166.906 76.4583 167.031 76.5625C167.156 76.6667 167.229 76.7292 167.25 76.75C167.417 76.8958 167.531 77.0208 167.594 77.125C167.677 77.2083 167.688 77.2812 167.625 77.3438C167.583 77.4271 167.531 77.5104 167.469 77.5938C167.427 77.6562 167.396 77.7292 167.375 77.8125C167.271 78.6875 167.104 79.3958 166.875 79.9375C166.688 80.4167 166.479 80.7812 166.25 81.0312C166.042 81.2604 165.781 81.4792 165.469 81.6875C165.344 81.7708 165.146 81.8438 164.875 81.9062C164.604 81.9479 164.469 81.9479 164.469 81.9062ZM169.562 70.5938C169.667 70.5938 169.823 70.6667 170.031 70.8125C170.01 70.8542 170.052 70.9375 170.156 71.0625C170.26 71.1667 170.333 71.2396 170.375 71.2812C170.479 71.3854 170.583 71.5104 170.688 71.6562C170.812 71.8021 170.948 71.9583 171.094 72.125C171.469 72.5208 172.333 73.5521 173.688 75.2188C173.917 75.5521 174.031 75.75 174.031 75.8125C174.031 76.0208 173.906 76.125 173.656 76.125C173.51 76.125 173.354 76.0208 173.188 75.8125C172.792 75.3958 172.083 74.7396 171.062 73.8438C170.271 73.1146 169.552 72.5521 168.906 72.1562C168.594 72.0104 168.438 71.8438 168.438 71.6562C168.438 71.5104 168.594 71.3021 168.906 71.0312C169.198 70.7396 169.417 70.5938 169.562 70.5938ZM136.812 68.2812L135.531 68.4688C135.24 68.5312 135 68.5729 134.812 68.5938H133.375C133.042 68.5521 132.802 68.5104 132.656 68.4688C132.51 68.4271 132.344 68.3125 132.156 68.125C132.177 67.9583 132.271 67.8646 132.438 67.8438L133.5 67.6562L134.812 67.4688C135.312 67.3854 135.802 67.2812 136.281 67.1562L136.812 67.0312V65.9688C136.812 65.6562 136.771 65.3229 136.688 64.9688C136.604 64.5938 136.521 64.2708 136.438 64L136.25 63.5312C135.917 63.6146 135.594 63.6771 135.281 63.7188C134.969 63.8021 134.688 63.8646 134.438 63.9062C134.146 63.9479 133.906 63.9688 133.719 63.9688L133.094 64L132.906 63.6875L133.625 63.4062C134.042 63.2604 134.583 63.0312 135.25 62.7188C135.917 62.4062 136.49 62.1146 136.969 61.8438C137.448 61.5521 137.833 61.2812 138.125 61.0312C138.438 60.8021 138.667 60.6146 138.812 60.4688C138.938 60.3021 139.146 60.0729 139.438 59.7812L140 59.25C140.146 59.2292 140.312 59.2708 140.5 59.375C140.646 59.4583 140.875 59.6146 141.188 59.8438C141.479 60.0521 141.688 60.2604 141.812 60.4688L141.906 60.9062C141.865 61.0312 141.75 61.125 141.562 61.1875L141.125 61.3438C140.896 61.4271 140.688 61.5208 140.5 61.625L139.875 61.9688C139.667 62.0938 139.396 62.2188 139.062 62.3438L137.312 63.1562C137.646 63.2812 137.938 63.3854 138.188 63.4688C138.438 63.5521 138.625 63.6458 138.75 63.75C138.896 63.8542 138.958 64.0938 138.938 64.4688C138.833 64.7812 138.76 65.0104 138.719 65.1562C138.698 65.3229 138.688 65.5312 138.688 65.7812L138.625 66.5312C138.917 66.4688 139.219 66.375 139.531 66.25L140.062 66.0312C140.25 66.0312 140.427 66.0521 140.594 66.0938C140.74 66.1354 140.938 66.1979 141.188 66.2812C141.438 66.3646 141.625 66.5312 141.75 66.7812C141.75 66.9271 141.667 67.0625 141.5 67.1875C141.354 67.3125 141.042 67.4271 140.562 67.5312L139.625 67.7188L138.625 67.9062C138.562 68.4479 138.521 68.875 138.5 69.1875C138.458 69.5 138.417 69.8542 138.375 70.25L138.281 71.4062L139.906 71.0625L140.625 70.875C140.833 70.8333 141.021 70.8125 141.188 70.8125C141.375 70.8333 141.583 70.8854 141.812 70.9688C142.062 71.0521 142.25 71.1458 142.375 71.25L142.594 71.5L142.688 71.8438L142.5 72.0312L141.625 72.1562C141.146 72.2396 140.698 72.3021 140.281 72.3438C139.865 72.4062 139.479 72.4688 139.125 72.5312L138.062 72.6875C137.938 73.2917 137.844 73.7708 137.781 74.125C137.698 74.4792 137.583 74.9167 137.438 75.4375C137.292 75.9792 137.146 76.4583 137 76.875C136.854 77.2917 136.615 77.8333 136.281 78.5C135.948 79.1458 135.656 79.6667 135.406 80.0625C135.135 80.4583 134.812 80.8646 134.438 81.2812C134.062 81.7396 133.792 82.0521 133.625 82.2188L132.875 82.8125C132.583 83.0625 132.354 83.2396 132.188 83.3438L131.438 83.4375L132 82.6562C132.271 82.3229 132.479 82.0521 132.625 81.8438C132.792 81.6354 133.021 81.3229 133.312 80.9062C133.604 80.4479 133.885 79.9688 134.156 79.4688C134.427 78.9688 134.708 78.3646 135 77.6562C135.312 76.9479 135.573 76.2396 135.781 75.5312C135.969 74.8229 136.104 74.2917 136.188 73.9375L136.312 73.125L134.5 73.5312C134.25 73.5729 133.833 73.6875 133.25 73.875C132.646 74.0625 132.271 74.1771 132.125 74.2188L131.656 74.375C131.427 74.4375 131.219 74.4792 131.031 74.5C130.865 74.5 130.698 74.4896 130.531 74.4688C130.302 74.4271 130.094 74.3646 129.906 74.2812C129.719 74.1979 129.542 74.0938 129.375 73.9688C129.208 73.8854 129.083 73.7083 129 73.4375C129.083 73.2917 129.219 73.1979 129.406 73.1562L130.062 73.0312L132.938 72.5312L135.562 72L136.5 71.8125C136.542 71.4167 136.583 71.1146 136.625 70.9062L136.75 69.25L136.812 68.2812ZM147.25 70.75L146.188 70.8438C145.938 70.8854 145.729 70.9062 145.562 70.9062H144.875C144.542 70.8646 144.229 70.7812 143.938 70.6562C143.708 70.5521 143.594 70.4167 143.594 70.25C143.698 70.0625 143.854 69.9479 144.062 69.9062L144.969 69.7812L146.344 69.6562L147.25 69.4688L147.312 66.7188L146.312 66.8438C146.167 66.8646 145.969 66.8854 145.719 66.9062C145.49 66.9062 145.219 66.875 144.906 66.8125C144.594 66.75 144.344 66.6562 144.156 66.5312L143.938 66.25L144.25 65.9062L147.312 65.4688C147.312 64.5938 147.292 64.0104 147.25 63.7188L147.125 62.8438L147.062 62.375L146.125 62.5938C145.708 62.6979 145.385 62.75 145.156 62.75C145.01 62.75 144.875 62.7396 144.75 62.7188C144.542 62.6771 144.312 62.6146 144.062 62.5312C143.812 62.4271 143.583 62.3021 143.375 62.1562L143.188 61.7188C143.312 61.6146 143.458 61.5521 143.625 61.5312L144.5 61.375C144.688 61.3542 145.354 61.2396 146.5 61.0312L149.375 60.5C149.792 60.4375 150.167 60.3646 150.5 60.2812C150.833 60.1979 151.094 60.1354 151.281 60.0938L151.625 60.0312C151.854 60.0312 152.083 60.0625 152.312 60.125C152.521 60.1875 152.771 60.3125 153.062 60.5C153.354 60.6667 153.542 60.8229 153.625 60.9688L153.75 61.2812L153.562 61.625L153.125 61.6875L148.5 62.0312L149.031 62.3438C149.156 62.4271 149.271 62.5208 149.375 62.625C149.5 62.7292 149.542 62.9479 149.5 63.2812L149.281 64.0938L149.188 64.5312L149.156 65.0938C149.677 64.9271 150.083 64.8229 150.375 64.7812L151.156 64.625L151.375 64.5625C151.604 64.5625 151.885 64.6146 152.219 64.7188C152.656 64.8438 152.958 64.9479 153.125 65.0312L153.375 65.3438C153.333 65.4896 153.198 65.6042 152.969 65.6875C152.74 65.7917 152.417 65.8854 152 65.9688C151.562 66.0521 150.917 66.1562 150.062 66.2812L149.062 66.4375L149 69.1562C149.354 69.0729 149.667 69.0104 149.938 68.9688C150.188 68.9271 150.5 68.8542 150.875 68.75L151.531 68.5938C151.802 68.5938 152.146 68.6354 152.562 68.7188C153 68.8021 153.281 68.9271 153.406 69.0938L153.438 69.5625C153.312 69.6667 153.167 69.7396 153 69.7812C152.833 69.8229 152.479 69.8854 151.938 69.9688L150.312 70.2812L149 70.4688L148.938 73.4062L151.156 73.1562C151.302 73.1562 151.75 73.0938 152.5 72.9688C153.208 72.8438 153.708 72.7396 154 72.6562C154.292 72.6146 154.521 72.5833 154.688 72.5625C154.958 72.5625 155.271 72.625 155.625 72.75C155.958 72.8958 156.302 73.1042 156.656 73.375C157.01 73.6458 157.177 73.9583 157.156 74.3125C157.073 74.4583 156.812 74.5312 156.375 74.5312L155.25 74.4688L154 74.375C153.667 74.3542 153.302 74.3438 152.906 74.3438C152.552 74.3438 151.896 74.375 150.938 74.4375L148.875 74.5625L148.75 79.7188L148.656 81.7188C148.635 82.1979 148.594 82.7292 148.531 83.3125C148.469 83.9167 148.406 84.3646 148.344 84.6562C148.281 84.9479 148.188 85.2396 148.062 85.5312L147.656 86.0625C147.531 86.0417 147.438 85.9688 147.375 85.8438C147.312 85.7188 147.25 85.2917 147.188 84.5625C147.146 84.0208 147.125 83.4688 147.125 82.9062V82.3438L147.188 74.8125L145.719 75.0625C145.323 75.125 144.927 75.2188 144.531 75.3438L143.75 75.5938L143.406 75.625C143.156 75.625 142.875 75.5729 142.562 75.4688C142.208 75.3438 141.917 75.2188 141.688 75.0938C141.458 74.9688 141.271 74.7396 141.125 74.4062C141.188 74.2812 141.312 74.1979 141.5 74.1562L142.25 74.125L143.688 74.0312C144.271 74.0104 145 73.9271 145.875 73.7812L147.188 73.5938L147.25 70.75ZM211.594 67.5938C211.323 67.5938 211.125 67.5 211 67.3125C210.812 67.0417 210.625 66.8229 210.438 66.6562C210.271 66.4896 209.969 66.2604 209.531 65.9688L209.625 65.8125C210.583 66.1458 211.26 66.3125 211.656 66.3125C211.99 66.3125 212.354 66.125 212.75 65.75C213.167 65.3542 213.521 64.7917 213.812 64.0625C213.958 63.7292 214.062 63.4583 214.125 63.25C214.208 63.0208 214.271 62.7708 214.312 62.5V62.4375C214.312 62.25 214.219 62.1562 214.031 62.1562C213.823 62.1562 213.448 62.2188 212.906 62.3438C212.615 62.4271 212.229 62.5521 211.75 62.7188L211.5 62.6562C211.479 62.6354 211.427 62.6042 211.344 62.5625C211.281 62.5 211.229 62.4375 211.188 62.375C211.083 62.2708 211.031 62.1979 211.031 62.1562L211 62.0312C211 61.8854 211.073 61.75 211.219 61.625C211.385 61.5 211.479 61.4062 211.5 61.3438C211.667 61.1562 212 60.6979 212.5 59.9688C212.542 59.9271 212.615 59.8333 212.719 59.6875C212.823 59.5208 212.875 59.375 212.875 59.25C212.875 59.1042 212.26 59.2083 211.031 59.5625C209.781 59.9375 209.125 60.125 209.062 60.125C208.854 60.125 208.635 59.9479 208.406 59.5938C208.24 59.4271 208.156 59.2917 208.156 59.1875C208.156 59.0417 208.365 58.9583 208.781 58.9375C209.26 58.9167 210 58.8333 211 58.6875C212.021 58.5417 212.625 58.4479 212.812 58.4062L213.25 58.2812C213.312 58.2604 213.385 58.25 213.469 58.25C213.531 58.25 213.625 58.2917 213.75 58.375C213.896 58.4583 214.021 58.5208 214.125 58.5625C214.396 58.6875 214.552 58.8333 214.594 59V59.0938C214.594 59.2812 214.49 59.4792 214.281 59.6875C214.198 59.7708 214.031 59.9479 213.781 60.2188C213.531 60.4688 213.375 60.6354 213.312 60.7188C213.229 60.8021 213.104 60.9375 212.938 61.125C212.771 61.3125 212.677 61.4271 212.656 61.4688C212.656 61.5312 212.677 61.5729 212.719 61.5938C212.76 61.6146 212.812 61.625 212.875 61.625C213.5 61.5417 214.01 61.4479 214.406 61.3438L214.906 61.1875C215.135 61.1875 215.302 61.2708 215.406 61.4375C215.594 61.6458 215.719 61.8229 215.781 61.9688C215.844 62.0938 215.844 62.2188 215.781 62.3438C215.76 62.4062 215.729 62.4688 215.688 62.5312C215.646 62.5938 215.604 62.6667 215.562 62.75C215.542 62.7917 215.5 62.875 215.438 63C215.375 63.125 215.333 63.25 215.312 63.375C214.938 64.4583 214.49 65.3854 213.969 66.1562C213.677 66.5104 213.354 66.8125 213 67.0625C212.521 67.4167 212.052 67.5938 211.594 67.5938ZM208.469 72.8438C208.24 72.8438 207.958 72.6667 207.625 72.3125C207.375 72.0625 207.25 71.875 207.25 71.75C207.25 71.6875 207.292 71.6562 207.375 71.6562C207.458 71.6354 207.562 71.625 207.688 71.625L208.375 71.5938C208.771 71.5938 209.031 71.5833 209.156 71.5625C209.552 71.5625 209.885 71.5521 210.156 71.5312C211.948 71.3646 213.156 71.2292 213.781 71.125C214.094 71.0833 214.375 71.0417 214.625 71C214.875 70.9375 215.073 70.9062 215.219 70.9062C215.51 70.9062 215.802 71.0521 216.094 71.3438C216.323 71.5729 216.438 71.7604 216.438 71.9062C216.438 72.0312 216.365 72.1146 216.219 72.1562C216.115 72.1771 215.5 72.2188 214.375 72.2812C213.75 72.3021 212.979 72.3542 212.062 72.4375C211.146 72.5208 210.344 72.6042 209.656 72.6875C209.531 72.7083 209.354 72.7396 209.125 72.7812C208.896 72.8229 208.677 72.8438 208.469 72.8438ZM213.125 79.8125C212.917 80.0833 212.698 80.2188 212.469 80.2188C212.406 80.2188 212.375 80.1667 212.375 80.0625C212.375 79.9167 212.417 79.75 212.5 79.5625C212.5 79.5625 212.708 79.1458 213.125 78.3125C213.146 78.2292 213.177 78.1458 213.219 78.0625C213.26 77.9792 213.292 77.9062 213.312 77.8438V77.8125C213.312 77.7708 213.281 77.7292 213.219 77.6875C213.156 77.6458 213.083 77.6354 213 77.6562C212.667 77.6771 212.167 77.7292 211.5 77.8125C210.854 77.8958 210.375 77.9792 210.062 78.0625C209.938 78.1042 209.781 78.1562 209.594 78.2188C209.427 78.2812 209.292 78.3125 209.188 78.3125C208.812 78.3125 208.5 78.1979 208.25 77.9688C208.042 77.8229 207.885 77.6771 207.781 77.5312L207.719 77.375C207.719 77.2708 207.896 77.2396 208.25 77.2812C208.729 77.3229 209.719 77.2604 211.219 77.0938L211.844 77C212.01 76.9792 212.271 76.9479 212.625 76.9062C213 76.8438 213.292 76.7812 213.5 76.7188C213.562 76.6979 213.625 76.6771 213.688 76.6562C213.771 76.6146 213.844 76.5938 213.906 76.5938C214.01 76.5938 214.135 76.6458 214.281 76.75C214.448 76.8542 214.583 76.9479 214.688 77.0312C214.833 77.1354 214.927 77.2292 214.969 77.3125C215.031 77.375 215.052 77.4583 215.031 77.5625C215.031 77.6667 214.979 77.7604 214.875 77.8438C214.771 77.9271 214.698 77.9896 214.656 78.0312C214.615 78.0938 214.469 78.25 214.219 78.5C214.115 78.6667 213.927 78.8958 213.656 79.1875C213.406 79.4792 213.229 79.6875 213.125 79.8125ZM211.562 85.9688C211.562 85.9062 211.667 85.7396 211.875 85.4688C212.104 85.2188 212.281 85.0208 212.406 84.875C212.719 84.4583 213.094 83.8542 213.531 83.0625C213.99 82.2708 214.25 81.75 214.312 81.5C214.354 81.375 214.292 81.3125 214.125 81.3125C213.792 81.3125 212.875 81.4062 211.375 81.5938C210.396 81.7188 209.667 81.8438 209.188 81.9688C209.083 82.0312 208.979 82.0625 208.875 82.0625C208.708 82.0625 208.531 81.9479 208.344 81.7188C208.26 81.5729 208.219 81.4375 208.219 81.3125C208.219 81.2292 208.271 81.1458 208.375 81.0625L208.469 80.9375C208.531 80.8125 208.604 80.6458 208.688 80.4375C208.771 80.2292 208.844 80.0312 208.906 79.8438C209.01 79.5104 209.083 79.1458 209.125 78.75C209.146 78.5208 209.271 78.4583 209.5 78.5625C209.792 78.7083 210.01 78.8542 210.156 79C210.323 79.125 210.375 79.2188 210.312 79.2812C210.104 79.5312 209.938 79.8125 209.812 80.125C209.708 80.4583 209.646 80.6771 209.625 80.7812C209.625 80.8646 209.677 80.9062 209.781 80.9062C210.094 80.9062 210.562 80.8542 211.188 80.75C211.542 80.7083 211.979 80.6562 212.5 80.5938C213.021 80.5312 213.438 80.4688 213.75 80.4062L214.531 80.25C214.594 80.2292 214.677 80.2188 214.781 80.2188C214.885 80.2188 214.99 80.2604 215.094 80.3438C215.198 80.4062 215.312 80.4896 215.438 80.5938C215.646 80.7812 215.781 80.9375 215.844 81.0625C215.906 81.1667 215.938 81.2917 215.938 81.4375C215.938 81.5208 215.875 81.625 215.75 81.75C215.646 81.875 215.521 82.0729 215.375 82.3438C214.771 83.5729 213.99 84.6042 213.031 85.4375C212.76 85.6458 212.458 85.8229 212.125 85.9688C211.979 86.0104 211.844 86.0312 211.719 86.0312C211.615 86.0521 211.562 86.0312 211.562 85.9688ZM221.562 71.5312C221.812 71.5312 221.938 71.6458 221.938 71.875C221.938 72 221.823 72.1771 221.594 72.4062C220.969 73.1771 219.729 74.6458 217.875 76.8125C217.729 77 217.594 77.0938 217.469 77.0938C217.365 77.0938 217.135 76.9375 216.781 76.625C216.49 76.375 216.344 76.1667 216.344 76C216.344 75.8125 216.5 75.6354 216.812 75.4688C217.292 75.1979 218.01 74.6562 218.969 73.8438C219.927 72.9896 220.635 72.3125 221.094 71.8125C221.281 71.625 221.438 71.5312 221.562 71.5312ZM184.469 75.2812L184.031 72.1875C183.948 71.7083 183.854 71.2604 183.75 70.8438C183.646 70.4271 183.542 70.1146 183.438 69.9062L183.281 69.5625L183.344 69.25C183.469 69.1458 183.698 69.1146 184.031 69.1562C184.323 69.2188 184.646 69.3125 185 69.4375L185.594 69.6562L190.406 69.0938L190.438 67.125L190.344 66.2188L190.312 65.1562L190.062 64.4688L188.344 64.6562C188.052 64.6771 187.677 64.6875 187.219 64.6875C186.927 64.6875 186.708 64.6771 186.562 64.6562L185.875 64.5312L184.844 65.7188C184.469 66.1354 184.021 66.5729 183.5 67.0312C182.979 67.4896 182.51 67.8438 182.094 68.0938L181.219 68.6562L180.844 68.625L181.094 68.2812L181.531 67.7812C181.99 67.3021 182.427 66.7812 182.844 66.2188C183.26 65.6771 183.594 65.2083 183.844 64.8125C184.094 64.4167 184.385 63.9271 184.719 63.3438C185.031 62.7812 185.302 62.2292 185.531 61.6875C185.781 61.125 185.99 60.5938 186.156 60.0938C186.323 59.6354 186.406 59.2604 186.406 58.9688L186.438 58.4062L186.781 58.1562C186.99 58.1562 187.177 58.2083 187.344 58.3125L188.031 58.7812C188.281 58.9896 188.49 59.1771 188.656 59.3438C188.802 59.5104 188.896 59.6562 188.938 59.7812L189.031 60.0312C189.01 60.1979 188.885 60.3854 188.656 60.5938C188.406 60.8229 188.219 61.0312 188.094 61.2188L187.656 61.9062L186.531 63.5625L188.969 63.25C189.865 63.1458 190.844 63.0104 191.906 62.8438C192.969 62.6771 193.74 62.5417 194.219 62.4375C194.698 62.3542 195.094 62.2604 195.406 62.1562L196.062 61.9688L196.469 61.9062C196.74 61.9062 197.01 61.9479 197.281 62.0312C197.615 62.1146 197.865 62.1979 198.031 62.2812L198.344 62.5L198.5 62.7812L198.375 63.0312C198.229 63.1146 198.062 63.1979 197.875 63.2812C197.688 63.3229 197.448 63.3854 197.156 63.4688C196.865 63.5521 196.365 63.6562 195.656 63.7812C194.948 63.9062 194.312 63.9896 193.75 64.0312L192.156 64.1875C192.427 64.3333 192.635 64.4688 192.781 64.5938L193.031 64.875C193.031 65.0625 193 65.2396 192.938 65.4062L192.75 65.8438C192.688 65.9896 192.646 66.1458 192.625 66.3125C192.604 66.5 192.583 66.8229 192.562 67.2812L192.469 68.8125L195.719 68.4062L197.156 68.2188C197.365 68.2188 197.552 68.2396 197.719 68.2812C197.906 68.3438 198.094 68.4271 198.281 68.5312L198.875 68.9375L199.219 69.2188L199.094 69.4688C198.969 69.5521 198.76 69.6042 198.469 69.625L197.094 69.6562L195.281 69.7812L193.469 69.9062L192.438 70.0312L192.312 74.5312L195.594 74.2812L197.25 74.0938C197.979 74.0104 198.573 73.9375 199.031 73.875C199.49 73.8125 199.969 73.7396 200.469 73.6562C200.969 73.5729 201.344 73.5312 201.594 73.5312C201.844 73.5521 202.115 73.6042 202.406 73.6875C202.698 73.7917 203.031 73.9271 203.406 74.0938C203.76 74.2604 204.042 74.4062 204.25 74.5312C204.438 74.6562 204.615 74.8021 204.781 74.9688L204.969 75.3125L204.812 75.5938C204.688 75.6562 204.448 75.6875 204.094 75.6875L202.25 75.6562C201.562 75.6562 200.167 75.6667 198.062 75.6875L194.875 75.7188L192.344 75.8125L192.156 80.9375C192.135 81.7083 192.083 82.4062 192 83.0312C191.938 83.6771 191.844 84.3021 191.719 84.9062C191.594 85.5104 191.448 85.9583 191.281 86.25L190.938 86.6562C190.729 86.6562 190.583 86.5938 190.5 86.4688C190.417 86.3646 190.365 86.1458 190.344 85.8125C190.302 85.5 190.281 85.2292 190.281 85C190.26 84.7708 190.24 84.2812 190.219 83.5312C190.198 83.0104 190.188 82.5625 190.188 82.1875L190.281 75.9375L186.062 76.3438C185.438 76.4062 184.833 76.4792 184.25 76.5625C183.688 76.6667 183.125 76.7604 182.562 76.8438C182 76.9688 181.469 77.1042 180.969 77.25C180.552 77.375 180.229 77.4375 180 77.4375C179.75 77.4167 179.448 77.3333 179.094 77.1875C178.76 77.0417 178.469 76.9062 178.219 76.7812L177.625 76.4375L177.281 76.2188L177.219 75.9062C177.302 75.7812 177.448 75.7083 177.656 75.6875L178.531 75.6562C179.406 75.6354 180.208 75.6042 180.938 75.5625C181.667 75.5417 182.302 75.4896 182.844 75.4062L184.469 75.2812ZM185.781 75.0938L190.312 74.6562L190.344 70.2188L185.656 70.875L185.781 75.0938Z" fill="#333333"/>
</svg>
