<svg width="310" height="34" viewBox="0 0 310 34" fill="none" xmlns="http://www.w3.org/2000/svg">
<path d="M37.1216 5.49629C36.9575 5.49629 37.0396 5.35566 37.3677 5.07441C37.6958 4.79316 38.0942 4.45332 38.563 4.05488C39.0317 3.63301 39.5591 3.08223 40.145 2.40254C40.52 1.95723 40.8013 1.48848 40.9888 0.996289C41.106 0.715039 41.2349 0.574414 41.3755 0.574414C41.4927 0.574414 41.6685 0.668164 41.9028 0.855664C42.3716 1.23066 42.606 1.54707 42.606 1.80488C42.606 1.96895 42.5122 2.08613 42.3247 2.15645C42.231 2.17988 42.0903 2.28535 41.9028 2.47285C41.7153 2.63691 41.5747 2.76582 41.481 2.85957C40.4731 3.84395 39.5356 4.55879 38.6685 5.0041C37.9653 5.33223 37.4966 5.49629 37.2622 5.49629H37.1216ZM40.813 12.0354C40.7427 12.0354 40.6255 11.9416 40.4614 11.7541C40.3208 11.5432 40.2153 11.3439 40.145 11.1564C40.1216 11.0158 40.1216 10.84 40.145 10.6291C40.1919 10.3947 40.2153 10.2189 40.2153 10.1018C40.2622 9.63301 40.2856 9.25801 40.2856 8.97676C40.3091 8.71895 40.3091 8.4377 40.2856 8.13301C40.2856 7.82832 40.2856 7.6291 40.2856 7.53535L40.2505 7.00801C39.688 7.40645 39.2544 7.6877 38.9497 7.85176C38.27 8.22676 37.7778 8.46113 37.4731 8.55488C37.0981 8.69551 36.7583 8.76582 36.4536 8.76582C36.2896 8.76582 36.1958 8.74238 36.1724 8.69551C36.1255 8.60176 36.5942 8.26191 37.5786 7.67598C38.5161 7.09004 39.5356 6.3166 40.6372 5.35566C41.2466 4.79316 41.7153 4.2541 42.0435 3.73848C42.0903 3.66816 42.1255 3.58613 42.1489 3.49238C42.1958 3.3752 42.2427 3.30488 42.2896 3.28145C42.3599 3.25801 42.4536 3.26973 42.5708 3.3166C42.8755 3.48066 43.1333 3.71504 43.3442 4.01973C43.438 4.13691 43.4849 4.2541 43.4849 4.37129C43.4849 4.48848 43.4263 4.60566 43.3091 4.72285C43.1919 4.8166 43.0747 4.88691 42.9575 4.93379C42.5591 5.1916 42.1958 5.47285 41.8677 5.77754C41.5396 6.08223 41.3286 6.28145 41.2349 6.3752C41.5864 6.65645 41.7622 6.85566 41.7622 6.97285L41.6567 7.71113C41.6099 7.92207 41.5864 8.44941 41.5864 9.29316C41.5864 10.1135 41.6099 10.6643 41.6567 10.9455V11.0158C41.6567 11.133 41.6216 11.2619 41.5513 11.4025C41.5044 11.5197 41.4692 11.6018 41.4458 11.6486C41.2817 11.9064 41.0708 12.0354 40.813 12.0354ZM44.3989 20.965C44.0474 20.965 43.7075 20.7072 43.3794 20.1916C42.9575 19.5354 42.5474 18.9963 42.1489 18.5744L41.2349 17.6252C40.7427 18.1877 40.3091 18.633 39.9341 18.9611C39.5825 19.2893 39.1372 19.6057 38.5981 19.9104C37.5903 20.4963 36.7466 20.7893 36.0669 20.7893C35.9028 20.7893 35.8208 20.7307 35.8208 20.6135C35.8208 20.5432 36.0435 20.3908 36.4888 20.1564C36.9341 19.9221 37.356 19.6408 37.7544 19.3127C38.7622 18.4689 39.5942 17.6018 40.2505 16.7111C40.1099 16.5705 39.4067 15.9611 38.1411 14.883C37.9771 14.7658 37.731 14.5666 37.4028 14.2854C37.3325 14.2385 37.1919 14.133 36.981 13.9689C36.77 13.8049 36.6646 13.6877 36.6646 13.6174C36.6646 13.5002 36.7231 13.4416 36.8403 13.4416C37.1919 13.4416 37.7544 13.6877 38.5278 14.1799C39.3013 14.6486 40.1099 15.2111 40.9536 15.8674C41.2817 15.4689 41.5396 15.0939 41.7271 14.7424C41.9146 14.3908 42.1255 13.9572 42.3599 13.4416C42.4771 13.1838 42.5474 12.9611 42.5708 12.7736C42.5942 12.5627 42.606 12.4338 42.606 12.3869C42.606 12.1291 42.6763 12.0002 42.8169 12.0002C42.981 12.0002 43.2036 12.1291 43.4849 12.3869C43.9771 12.8557 44.2231 13.1721 44.2231 13.3361C44.2231 13.4299 44.1646 13.5354 44.0474 13.6525C43.7661 13.9338 43.5083 14.3088 43.2739 14.7775C43.1333 15.0588 42.8755 15.4572 42.5005 15.9729C42.3833 16.1135 42.2896 16.2424 42.2192 16.3596C42.1489 16.4768 42.0786 16.5822 42.0083 16.676C42.5474 17.0744 43.3442 17.7541 44.3989 18.715C44.6567 18.9494 44.8208 19.1721 44.8911 19.383C44.9849 19.5705 45.0317 19.8283 45.0317 20.1564C45.0317 20.3908 44.9731 20.59 44.856 20.7541C44.7388 20.8947 44.5864 20.965 44.3989 20.965ZM45.0317 25.6057C45.2896 25.8869 45.4185 26.1213 45.4185 26.3088C45.4185 26.4729 45.3247 26.6252 45.1372 26.7658C45.02 26.8596 44.7271 27.3752 44.2583 28.3127C43.7427 29.1564 43.1685 29.883 42.5356 30.4924C41.9263 31.1252 41.3169 31.5822 40.7075 31.8635C40.5669 31.9104 40.4497 31.9338 40.356 31.9338C40.2622 31.9338 40.2153 31.9104 40.2153 31.8635V31.7932C40.2153 31.6525 40.3325 31.4885 40.5669 31.301C40.9888 30.9729 41.3052 30.633 41.5161 30.2814C41.7505 29.9533 41.9263 29.7072 42.0435 29.5432C42.5356 28.84 42.8872 28.2658 43.0981 27.8205C43.3325 27.4221 43.4966 27.0119 43.5903 26.59H43.4497C42.8403 26.59 41.856 26.6604 40.4966 26.801C40.2856 26.8244 39.6763 26.9064 38.6685 27.0471C38.4575 27.0705 38.1294 27.1291 37.6841 27.2229L37.2622 27.3283C37.1685 27.3752 37.0747 27.3986 36.981 27.3986C36.8638 27.3986 36.7466 27.3752 36.6294 27.3283C36.5122 27.258 36.395 27.176 36.2778 27.0822C35.9966 26.8479 35.856 26.6486 35.856 26.4846C35.8794 26.4377 35.9028 26.3674 35.9263 26.2736C35.9731 26.1799 35.9966 26.0979 35.9966 26.0275L36.1724 24.8674C36.1958 24.7502 36.2192 24.6213 36.2427 24.4807C36.2661 24.34 36.2778 24.1994 36.2778 24.0588C36.2778 23.6135 36.2661 23.2619 36.2427 23.0041C36.2427 22.7229 36.2075 22.4299 36.1372 22.1252V22.0197C36.1372 21.8557 36.2075 21.7736 36.3481 21.7736C36.4888 21.7736 36.7349 21.8791 37.0864 22.09C37.5552 22.4182 37.7896 22.676 37.7896 22.8635C37.7896 22.9338 37.7778 22.9924 37.7544 23.0393C37.731 23.0861 37.7075 23.133 37.6841 23.1799C37.6138 23.6018 37.5786 23.8361 37.5786 23.883L37.4028 25.7463C37.4028 25.7932 37.4263 25.8518 37.4731 25.9221C37.5435 25.9689 37.6138 25.9924 37.6841 25.9924C38.2466 25.9924 39.5122 25.8518 41.481 25.5705C42.2544 25.5002 42.8052 25.4182 43.1333 25.3244C43.3442 25.301 43.52 25.2658 43.6606 25.2189C43.8247 25.1486 43.9302 25.1135 43.9771 25.1135C44.1177 25.0666 44.2114 25.0432 44.2583 25.0432C44.4692 25.0432 44.7271 25.2307 45.0317 25.6057ZM11.3169 15.2346L8.92627 15.9025L7.87158 16.1838C7.14502 16.3713 6.66455 16.4768 6.43018 16.5002C6.14893 16.5002 5.89111 16.4768 5.65674 16.4299C5.35205 16.3596 5.01221 16.2072 4.63721 15.9729C4.23877 15.7385 3.9458 15.4104 3.7583 14.9885C3.85205 14.8479 4.02783 14.7658 4.28564 14.7424L5.16455 14.7072C5.89111 14.6838 6.66455 14.6486 7.48486 14.6018C8.30518 14.5314 9.04346 14.4377 9.69971 14.3205L11.9497 13.9338C12.2778 13.1838 12.4771 12.715 12.5474 12.5275L13.0044 11.1564C12.6294 11.1799 12.3364 11.2033 12.1255 11.2268C11.9146 11.2502 11.563 11.2971 11.0708 11.3674C10.5786 11.4611 10.1802 11.508 9.87549 11.508C9.50049 11.508 9.20752 11.4611 8.99658 11.3674C8.71533 11.2502 8.50439 11.1213 8.36377 10.9807L8.22314 10.6643C8.24658 10.5002 8.36377 10.4182 8.57471 10.4182L9.24268 10.3479C9.40674 10.3479 9.80518 10.3127 10.438 10.2424C11.0708 10.1721 11.6685 10.1135 12.231 10.0666L13.4263 9.92598C13.731 8.98848 13.9067 8.40254 13.9536 8.16816L14.2349 6.76191C13.3677 6.83223 12.5825 6.91426 11.8794 7.00801C11.1528 7.07832 10.6841 7.11348 10.4731 7.11348H9.9458C9.47705 7.11348 9.12549 7.0666 8.89111 6.97285C8.58643 6.83223 8.36377 6.66816 8.22314 6.48066L8.08252 6.1291L8.32861 5.95332H9.06689L10.0513 5.84785L12.0903 5.70723L14.481 5.35566L14.6216 3.45723V3.10566C14.6216 2.84785 14.5981 2.53145 14.5513 2.15645C14.5044 1.80488 14.4692 1.55879 14.4458 1.41816L14.3052 0.644727L14.6567 0.398633C14.8911 0.375195 15.1372 0.410352 15.395 0.504102C15.7231 0.644727 16.0513 0.79707 16.3794 0.961133C16.7075 1.1252 16.9888 1.32441 17.2231 1.55879C17.4575 1.79316 17.5747 2.02754 17.5747 2.26191L17.3286 2.7541C17.1646 3.01191 17.0356 3.30488 16.9419 3.63301L16.4497 5.07441L19.3325 4.65254L20.9146 4.30098C21.1958 4.2541 21.4536 4.21895 21.688 4.19551C22.0864 4.19551 22.5083 4.28926 22.9536 4.47676C23.3521 4.61738 23.5513 4.79316 23.5513 5.0041C23.5278 5.23848 23.4341 5.3791 23.27 5.42598L22.5669 5.63691C22.3325 5.68379 21.9341 5.7541 21.3716 5.84785L19.1216 6.19941C18.3247 6.3166 17.6567 6.39863 17.1177 6.44551L16.1685 6.55098C15.9106 7.46504 15.7583 8.02754 15.7114 8.23848L15.3247 9.64473L17.5044 9.25801C17.9731 9.1877 18.5122 9.08223 19.1216 8.9416C19.731 8.77754 20.2231 8.68379 20.5981 8.66035C20.9497 8.66035 21.231 8.68379 21.4419 8.73066C21.77 8.77754 22.0747 8.87129 22.356 9.01191L22.813 9.39863C22.813 9.58613 22.6489 9.72676 22.3208 9.82051C22.063 9.89082 21.7114 9.94941 21.2661 9.99629C20.8208 10.0432 20.2466 10.1135 19.5435 10.2072L17.3989 10.5588L15.0435 10.9104C14.7153 11.801 14.5161 12.3518 14.4458 12.5627L14.0591 13.6525C14.7622 13.5822 15.2896 13.5236 15.6411 13.4768L19.2622 13.1604C19.9185 13.1135 20.6333 13.0197 21.4067 12.8791C22.1802 12.7619 22.8013 12.6447 23.27 12.5275L24.3247 12.2463C24.7935 12.1525 25.1567 12.1057 25.4146 12.1057C25.7192 12.1057 25.9888 12.1525 26.2231 12.2463C26.481 12.34 26.856 12.4924 27.3481 12.7033C27.8403 12.9143 28.1567 13.1369 28.2974 13.3713L28.4028 13.9338C28.3091 14.1213 28.1216 14.2268 27.8403 14.2502L27.0669 14.2854L24.8872 14.215C24.5356 14.215 23.8794 14.2385 22.9185 14.2854L20.106 14.3557H18.8403L19.9653 15.1994L22.0747 16.9924C23.1997 17.9533 24.2075 18.7619 25.0981 19.4182C25.9888 20.0744 26.7271 20.5549 27.313 20.8596C27.8989 21.1643 28.7544 21.551 29.8794 22.0197C31.0044 22.465 31.9888 22.7932 32.8325 23.0041L33.7817 23.7424L33.0435 23.9533L30.7935 24.4104C29.856 24.5979 29.1294 24.6916 28.6138 24.6916C28.0044 24.6213 27.4536 24.4221 26.9614 24.0939C26.4692 23.7658 26.0122 23.3791 25.5903 22.9338L22.8481 19.9807C21.4888 18.4807 20.4341 17.3674 19.6841 16.6408C18.981 15.9143 18.4419 15.4338 18.0669 15.1994L17.1177 14.4963C16.063 14.6135 15.4185 14.6838 15.1841 14.7072L13.4614 14.9182C12.7583 16.2775 12.1841 17.2854 11.7388 17.9416C11.2935 18.5979 10.6841 19.3244 9.91064 20.1213C9.16064 20.965 8.37549 21.7033 7.55518 22.3361C6.73486 22.9689 5.97314 23.4846 5.27002 23.883C4.52002 24.2814 3.78174 24.6213 3.05518 24.9025C2.32861 25.1604 1.84814 25.3244 1.61377 25.3947L0.594238 25.2189L1.47314 24.6564L2.45752 24.0939C3.06689 23.7658 3.73486 23.3439 4.46143 22.8283C5.18799 22.3361 5.90283 21.7736 6.60596 21.1408C7.30908 20.508 8.0708 19.7229 8.89111 18.7854C9.73486 17.8479 10.2856 17.1447 10.5435 16.676L11.3169 15.2346ZM18.1724 30.3869L15.9224 30.5979C14.8911 30.6916 14.2935 30.7385 14.1294 30.7385L12.4419 30.7736L12.3013 31.3361C12.1606 31.758 11.9966 31.9689 11.8091 31.9689C11.6216 31.9455 11.4341 31.7932 11.2466 31.5119C11.0356 31.2072 10.9067 30.8439 10.8599 30.4221C10.8599 30.1174 10.8833 29.801 10.9302 29.4729C10.9771 29.0275 11.0005 28.5119 11.0005 27.926L10.8247 22.8635C10.7778 22.2072 10.7075 21.7268 10.6138 21.4221C10.5435 21.1174 10.4614 20.883 10.3677 20.7189L10.2622 20.4025C10.3091 20.2619 10.5317 20.1682 10.9302 20.1213L11.9146 20.3322L13.0396 20.1916C13.438 20.1447 13.9185 20.0627 14.481 19.9455L16.3794 19.5588C17.0356 19.4182 17.5044 19.301 17.7856 19.2072C18.0669 19.1369 18.3481 19.0432 18.6294 18.926L19.2974 18.715C19.5552 18.6916 19.7778 18.715 19.9653 18.7854C20.2231 18.8791 20.5044 19.0314 20.8091 19.2424C21.1372 19.4533 21.4185 19.6643 21.6528 19.8752L22.0396 20.3674C22.0396 20.5314 22.0044 20.6838 21.9341 20.8244C21.8638 21.0119 21.8052 21.2111 21.7583 21.4221C21.688 21.633 21.6528 21.8322 21.6528 22.0197C21.606 22.2072 21.5708 22.5822 21.5474 23.1447V23.7424C21.5474 24.1408 21.5591 24.5744 21.5825 25.0432C21.606 25.6057 21.6528 26.1916 21.7231 26.801L22.0044 28.5939C22.0981 29.2033 22.145 29.6604 22.145 29.965C22.0981 30.5744 21.9224 31.1838 21.6177 31.7932C21.2896 32.4025 20.9731 32.7775 20.6685 32.9182L20.1411 33.0588C19.8833 33.0354 19.6372 32.801 19.4028 32.3557C19.1919 31.9338 18.9575 31.5236 18.6997 31.1252L18.1724 30.3869ZM12.5122 29.5783C13.5435 29.4611 14.3286 29.3674 14.8677 29.2971L16.6958 29.051C17.3755 28.9338 17.8325 28.8752 18.0669 28.8752C18.4419 28.8986 18.7231 28.9572 18.9106 29.051L19.6489 29.4729L19.8247 25.008C19.3091 25.1252 18.9224 25.1955 18.6646 25.2189L16.2388 25.676C15.1606 25.8635 14.3989 25.9807 13.9536 26.0275L13.5317 26.0627H13.1802L12.4419 25.8869L12.5122 29.5783ZM12.4419 24.9025C12.6763 24.9025 12.8872 24.8908 13.0747 24.8674C13.2622 24.8439 13.7544 24.7619 14.5513 24.6213C15.395 24.4572 16.0747 24.3049 16.5903 24.1643C17.1528 24.0002 17.5747 23.9182 17.856 23.9182C18.1138 23.9182 18.3481 23.9299 18.5591 23.9533C18.8638 24.0002 19.2271 24.1057 19.6489 24.2697L19.8247 21.3166C19.8013 20.9416 19.7427 20.6955 19.6489 20.5783C19.5317 20.4611 19.3091 20.3908 18.981 20.3674C18.6763 20.3674 18.3481 20.3791 17.9966 20.4025L16.4497 20.4729C16.0747 20.5197 15.5356 20.6369 14.8325 20.8244C14.1294 20.9885 13.6372 21.1174 13.356 21.2111L12.7231 21.3518L12.5825 21.7033C12.606 21.8439 12.606 22.0432 12.5825 22.301C12.5356 22.5354 12.5122 22.7346 12.5122 22.8986L12.4419 24.9025Z" fill="#333333"/>
<path d="M97.3091 11.6838C97.145 11.6838 96.9692 11.5783 96.7817 11.3674C96.6411 11.2033 96.5474 11.0744 96.5005 10.9807C96.4536 10.8635 96.4536 10.7111 96.5005 10.5236L96.5356 9.67988C96.5591 9.51582 96.5708 9.11738 96.5708 8.48457V7.32441L95.5161 7.8166L94.2856 8.34395C93.981 8.46113 93.6646 8.60176 93.3364 8.76582C93.0552 8.90645 92.8091 8.97676 92.5981 8.97676C92.4341 8.95332 92.2466 8.89473 92.0356 8.80098C91.8247 8.70723 91.6606 8.6252 91.5435 8.55488C91.2856 8.39082 91.1685 8.21504 91.1919 8.02754L91.2974 7.67598C91.2974 7.48848 91.3091 7.32441 91.3325 7.18379L91.3677 5.14473V3.24629C91.3677 2.87129 91.3442 2.55488 91.2974 2.29707C91.2505 2.01582 91.2153 1.8166 91.1919 1.69941C91.1919 1.58223 91.2271 1.5002 91.2974 1.45332C91.3208 1.42988 91.3794 1.41816 91.4731 1.41816C91.6372 1.41816 91.9536 1.52363 92.4224 1.73457C92.8208 1.92207 92.9849 2.15645 92.9146 2.4377C92.8677 2.60176 92.8208 2.84785 92.7739 3.17598L92.6685 7.21895C92.6685 7.33613 92.6802 7.42988 92.7036 7.5002C92.7505 7.54707 92.7974 7.57051 92.8442 7.57051C93.1255 7.57051 93.4653 7.48848 93.8638 7.32441C94.6138 7.09004 95.2583 6.85566 95.7974 6.62129L96.5708 6.30488V3.98457C96.5708 3.04707 96.5122 2.14473 96.395 1.27754C96.3716 1.20723 96.3599 1.1252 96.3599 1.03145C96.3599 0.79707 96.4536 0.679883 96.6411 0.679883C96.6646 0.679883 96.7935 0.726758 97.0278 0.820508C97.3794 1.00801 97.6372 1.17207 97.8013 1.3127C97.9653 1.45332 98.0591 1.53535 98.0825 1.55879C98.1763 1.6291 98.2231 1.69941 98.2231 1.76973C98.2231 1.8166 98.1997 1.8752 98.1528 1.94551C98.1294 2.01582 98.106 2.07441 98.0825 2.12129L97.9771 3.17598L97.9419 6.41035L97.9771 9.53926C97.9771 10.0783 97.9419 10.5471 97.8716 10.9455C97.7544 11.4377 97.5669 11.6838 97.3091 11.6838ZM90.8403 17.4494C90.5825 17.4494 90.2661 17.2502 89.8911 16.8518C89.6099 16.5705 89.4692 16.3596 89.4692 16.2189C89.4692 16.1486 89.5161 16.1135 89.6099 16.1135C89.7036 16.09 89.8208 16.0783 89.9614 16.0783L90.7349 16.0432C91.1802 16.0432 91.4731 16.0314 91.6138 16.008C92.0591 16.008 92.4341 15.9963 92.7388 15.9729C94.7544 15.7854 96.1138 15.633 96.8169 15.5158C97.1685 15.4689 97.4849 15.4221 97.7661 15.3752C98.0474 15.3049 98.27 15.2697 98.4341 15.2697C98.7622 15.2697 99.0903 15.4338 99.4185 15.7619C99.6763 16.0197 99.8052 16.2307 99.8052 16.3947C99.8052 16.5354 99.7231 16.6291 99.5591 16.676C99.4419 16.6994 98.7505 16.7463 97.4849 16.8166C96.7817 16.84 95.9146 16.8986 94.8833 16.9924C93.8521 17.0861 92.9497 17.1799 92.1763 17.2736C92.0356 17.2971 91.8364 17.3322 91.5786 17.3791C91.3208 17.426 91.0747 17.4494 90.8403 17.4494ZM95.5513 31.9689C94.8247 31.9689 94.2622 31.9455 93.8638 31.8986C93.4888 31.8518 93.1724 31.7111 92.9146 31.4768C92.4692 31.1486 92.1646 30.4338 92.0005 29.3322L91.895 28.2072C91.895 27.926 91.8716 27.5744 91.8247 27.1525C91.4497 27.1994 91.1802 27.2463 91.0161 27.2932C90.9692 27.3166 90.8872 27.3518 90.77 27.3986C90.6763 27.4221 90.606 27.4338 90.5591 27.4338C90.395 27.4338 90.2427 27.3869 90.1021 27.2932C89.9614 27.1994 89.7856 27.0236 89.5747 26.7658C89.4106 26.5549 89.3286 26.4143 89.3286 26.3439C89.3286 26.2736 89.4106 26.2268 89.5747 26.2033C89.7388 26.1799 89.9614 26.1682 90.2427 26.1682C90.6411 26.1682 91.1567 26.1213 91.7896 26.0275L91.7544 25.5354C91.7544 24.5979 91.6958 23.801 91.5786 23.1447L91.5435 22.8986C91.5435 22.5705 91.6724 22.4416 91.9302 22.5119C92.2114 22.6057 92.4692 22.7229 92.7036 22.8635C92.8911 22.9572 93.02 23.051 93.0903 23.1447C93.1606 23.215 93.1841 23.3205 93.1606 23.4611L93.0552 24.9729V25.8869L96.1489 25.5705C96.1489 25.4064 96.1606 25.0197 96.1841 24.4104C96.2075 23.7775 96.2075 23.3674 96.1841 23.1799C96.1841 22.9924 96.1606 22.8166 96.1138 22.6525C96.0903 22.465 96.0669 22.3127 96.0435 22.1955C96.0435 22.008 96.1372 21.9143 96.3247 21.9143C96.5122 21.9143 96.7466 22.0197 97.0278 22.2307C97.356 22.4416 97.5669 22.6291 97.6606 22.7932C97.7778 22.9572 97.8013 23.1564 97.731 23.3908C97.6138 23.7658 97.5317 24.1877 97.4849 24.6564C97.438 25.1252 97.4146 25.4064 97.4146 25.5002C97.6958 25.4768 97.9536 25.4416 98.188 25.3947C98.4224 25.3479 98.5747 25.3244 98.645 25.3244C98.8325 25.2775 99.0552 25.2541 99.313 25.2541C99.4536 25.2775 99.6528 25.4182 99.9106 25.676C100.122 25.9572 100.227 26.1799 100.227 26.3439C100.227 26.5783 100.004 26.6721 99.5591 26.6252C99.1606 26.5549 98.7622 26.5197 98.3638 26.5197C97.9653 26.5197 97.6255 26.5314 97.3442 26.5549C97.2739 27.3986 97.1333 28.2307 96.9224 29.051C96.8755 29.2385 96.7935 29.4025 96.6763 29.5432C96.5591 29.6604 96.4536 29.7189 96.3599 29.7189C96.1958 29.7189 96.0903 29.6604 96.0435 29.5432C96.02 29.4025 96.0083 29.1916 96.0083 28.9104C96.0552 28.301 96.0786 27.5393 96.0786 26.6252C95.4458 26.6721 94.9536 26.7189 94.6021 26.7658C94.063 26.883 93.5591 26.9533 93.0903 26.9768C93.0669 27.9377 93.1138 28.7932 93.231 29.5432C93.3013 30.0354 93.4419 30.3752 93.6528 30.5627C93.7935 30.6799 93.9575 30.7502 94.145 30.7736C94.356 30.7971 94.5669 30.8088 94.7778 30.8088C94.9888 30.8088 95.1294 30.8088 95.1997 30.8088C95.9263 30.8088 96.606 30.7736 97.2388 30.7033C97.4263 30.6799 97.5903 30.633 97.731 30.5627C97.895 30.4924 98.0122 30.4572 98.0825 30.4572C98.2935 30.4572 98.5044 30.5275 98.7153 30.6682C98.9263 30.8088 99.0317 30.9729 99.0317 31.1604C99.0317 31.3479 98.9263 31.4885 98.7153 31.5822C98.5278 31.676 98.2231 31.758 97.8013 31.8283C97.0513 31.9221 96.3013 31.9689 95.5513 31.9689ZM105.571 15.9729C105.852 15.9729 105.993 16.1018 105.993 16.3596C105.993 16.5002 105.864 16.6994 105.606 16.9572C104.903 17.8244 103.508 19.4768 101.422 21.9143C101.258 22.1252 101.106 22.2307 100.965 22.2307C100.848 22.2307 100.59 22.0549 100.192 21.7033C99.8638 21.4221 99.6997 21.1877 99.6997 21.0002C99.6997 20.7893 99.8755 20.59 100.227 20.4025C100.766 20.0979 101.575 19.4885 102.653 18.5744C103.731 17.6135 104.528 16.8518 105.043 16.2893C105.254 16.0783 105.43 15.9729 105.571 15.9729ZM67.1802 24.34C67.063 24.1525 66.9692 23.9885 66.8989 23.8479C66.8052 23.7072 66.7114 23.5197 66.6177 23.2854V22.4416L67.5669 22.6525L68.5161 23.0744C68.938 23.2619 69.313 23.4494 69.6411 23.6369C69.9692 23.8479 70.2388 24.1643 70.4497 24.5861C70.6138 24.9377 70.6958 25.3479 70.6958 25.8166C70.6724 26.2854 70.5552 26.6486 70.3442 26.9064C70.1567 27.1643 69.9106 27.2932 69.606 27.2932C69.3013 27.2932 68.9849 27.1057 68.6567 26.7307C68.4692 26.5432 68.2935 26.2736 68.1294 25.9221L67.6021 25.0432L63.8052 27.7854L62.5396 28.84L61.6958 29.6838L61.2739 29.965C61.0396 29.965 60.8052 29.8127 60.5708 29.508C60.3599 29.2502 60.1724 28.9338 60.0083 28.5588C59.8677 28.2541 59.7974 27.9611 59.7974 27.6799L60.0083 27.0119C60.1489 26.6369 60.2544 26.2502 60.3247 25.8518C60.395 25.4299 60.4536 24.9494 60.5005 24.4104C60.5474 23.8947 60.5942 23.1447 60.6411 22.1604L60.8169 16.0432C60.8169 15.715 60.8052 15.3752 60.7817 15.0236C60.7349 14.6721 60.6763 14.3791 60.606 14.1447C60.5356 13.9104 60.4302 13.6994 60.2896 13.5119L60.0083 13.2307L59.938 12.8791C60.0317 12.7385 60.1958 12.6682 60.4302 12.6682C60.9927 12.6682 61.438 12.7619 61.7661 12.9494L62.2935 13.2307C62.8794 13.1604 63.3599 13.09 63.7349 13.0197C64.1333 12.9729 64.6255 12.8791 65.2114 12.7385C65.7739 12.5979 66.2075 12.4807 66.5122 12.3869C66.8169 12.2932 67.1333 12.176 67.4614 12.0354C67.7896 11.8947 68.0474 11.8244 68.2349 11.8244C68.4224 11.8479 68.645 11.9182 68.9028 12.0354L69.6411 12.4221L70.0981 12.7385C70.52 12.9963 70.7896 13.2072 70.9067 13.3713L70.9419 14.0041L70.5903 14.5314C70.52 14.6721 70.4146 14.9064 70.2739 15.2346L70.0981 15.7619L69.2192 19.0314L68.8677 20.4025C68.6802 20.8713 68.4927 21.1643 68.3052 21.2814L67.9185 21.4221H67.6724L67.2153 20.965C66.5825 21.0354 66.1021 21.0822 65.7739 21.1057L63.3481 21.4572L62.4692 21.5275L62.2583 25.3947L62.3989 26.1682C62.5864 26.1682 62.7974 26.1213 63.0317 26.0275L67.1802 24.34ZM62.4692 20.3674C62.8911 20.3439 63.2192 20.3205 63.4536 20.2971C63.688 20.2736 64.0396 20.2033 64.5083 20.0861C65.0239 19.9689 65.4692 19.8752 65.8442 19.8049C66.1255 19.758 66.3833 19.7346 66.6177 19.7346L67.2856 19.8049L67.8833 17.0979C67.2974 17.1447 66.8638 17.1916 66.5825 17.2385L64.895 17.5197C64.4028 17.6135 64.0044 17.6604 63.6997 17.6604L63.1372 17.59L62.6099 17.4143L62.4692 20.3674ZM62.645 16.676C63.0903 16.6525 63.4419 16.6174 63.6997 16.5705C63.9575 16.5236 64.3911 16.4182 65.0005 16.2541C65.563 16.09 65.9849 15.9963 66.2661 15.9729C66.6646 15.9729 67.0513 16.0432 67.4263 16.1838L67.9888 16.3947L68.1646 15.3049C68.2114 15.0002 68.2349 14.6604 68.2349 14.2854C68.2349 13.9104 68.1763 13.6643 68.0591 13.5471C67.9419 13.4299 67.7778 13.3713 67.5669 13.3713C67.3325 13.3947 67.0396 13.4533 66.688 13.5471C66.3599 13.6174 65.8208 13.7229 65.0708 13.8635C64.2974 14.0041 63.8052 14.0744 63.5942 14.0744L62.856 14.1096L62.645 16.676ZM75.3364 15.1994C75.2427 15.5744 75.1841 15.8557 75.1606 16.0432C75.1372 16.2307 75.1021 16.5354 75.0552 16.9572C75.0083 17.3791 74.9849 17.7307 74.9849 18.0119L74.8794 25.1135C74.856 26.0979 74.7739 27.2463 74.6333 28.5588L74.4927 30.0705C74.3989 30.9846 74.2349 31.7697 74.0005 32.426C73.7661 33.0588 73.5552 33.3752 73.3677 33.3752C73.2036 33.3518 73.063 33.0119 72.9458 32.3557C72.8286 31.7229 72.7583 30.9846 72.7349 30.1408C72.7114 29.5783 72.6997 29.0158 72.6997 28.4533V27.5744L72.8403 18.3635C72.8638 17.7541 72.8755 17.2619 72.8755 16.8869C72.8755 16.5119 72.8638 16.2541 72.8403 16.1135C72.8169 15.8088 72.7817 15.4572 72.7349 15.0588C72.688 14.6604 72.606 14.3322 72.4888 14.0744L72.3481 13.3713L72.5239 13.1604C72.7349 13.1604 72.9927 13.2072 73.2974 13.301C73.9067 13.4885 74.3052 13.6408 74.4927 13.758L75.0552 14.1096L76.7778 13.7229C77.3638 13.5822 77.9614 13.4182 78.5708 13.2307L79.3442 13.0197C79.7192 12.9025 80.0474 12.7736 80.3286 12.633L80.8208 12.4572C80.9849 12.4572 81.1841 12.5275 81.4185 12.6682C81.6528 12.8088 81.8989 12.9729 82.1567 13.1604C82.438 13.3479 82.7075 13.5588 82.9653 13.7932C83.1763 13.9807 83.2466 14.2619 83.1763 14.6369C82.9888 14.8947 82.8599 15.1291 82.7896 15.34C82.7427 15.551 82.6958 15.8322 82.6489 16.1838C82.6021 16.5588 82.5786 16.9455 82.5786 17.3439L82.3677 21.1057C82.3208 22.0432 82.2505 22.7697 82.1567 23.2854C82.0864 23.801 81.9341 24.258 81.6997 24.6564C81.4419 25.0549 81.1489 25.3713 80.8208 25.6057L80.188 25.8869C80.0005 25.84 79.813 25.6994 79.6255 25.465C79.4146 25.2072 79.1216 24.8791 78.7466 24.4807C78.395 24.0588 78.0552 23.6838 77.7271 23.3557L77.0942 22.7932L76.8833 22.301C77.0239 22.2775 77.188 22.301 77.3755 22.3713L78.1841 22.6174C78.6528 22.7814 79.0161 22.8752 79.2739 22.8986C79.4849 22.8986 79.6606 22.8635 79.8013 22.7932C80.0122 22.6525 80.1411 22.3479 80.188 21.8791C80.2583 21.3635 80.3052 20.8713 80.3286 20.4025L80.4692 15.8322C80.4692 15.2932 80.4458 14.9416 80.3989 14.7775L80.2583 14.4963C80.1177 14.3557 79.9067 14.2854 79.6255 14.2854C79.3911 14.2854 78.9927 14.3322 78.4302 14.426L76.8481 14.7424L75.3364 15.1994ZM76.0396 4.40645L80.4692 3.52754C80.7036 3.48066 80.9614 3.41035 81.2427 3.3166L81.8755 3.17598C82.1802 3.15254 82.438 3.16426 82.6489 3.21113C82.9302 3.28145 83.2231 3.41035 83.5278 3.59785L84.02 3.94941C84.0435 4.09004 83.9614 4.2541 83.7739 4.4416C83.5864 4.58223 83.3169 4.6877 82.9653 4.75801L81.6646 5.0041C81.2896 5.05098 80.7622 5.12129 80.0825 5.21504C79.4028 5.28535 78.7935 5.35566 78.2544 5.42598C77.7153 5.51973 77.3521 5.5666 77.1646 5.5666C76.7896 5.5666 76.4263 5.51973 76.0747 5.42598L75.4771 5.32051L74.4575 6.72676C74.0591 7.24238 73.5786 7.76973 73.0161 8.30879C72.4067 8.87129 72.0083 9.21113 71.8208 9.32832L71.188 9.71504L70.7661 9.85566L70.52 9.67988L70.7661 9.29316L71.5396 8.30879C71.8677 7.91035 72.1372 7.55879 72.3481 7.2541C72.5591 6.92598 72.8052 6.51582 73.0864 6.02363C73.3911 5.53145 73.6372 5.09785 73.8247 4.72285C73.9888 4.37129 74.1411 4.01973 74.2817 3.66816C74.4224 3.29316 74.5278 2.98848 74.5981 2.7541C74.6685 2.49629 74.7505 2.23848 74.8442 1.98066C74.8911 1.69941 74.9146 1.4416 74.9146 1.20723L75.1255 0.644727L75.3716 0.539258C75.5356 0.539258 75.7231 0.586133 75.9341 0.679883C76.2153 0.79707 76.5083 0.949414 76.813 1.13691C77.1177 1.32441 77.3521 1.52363 77.5161 1.73457L77.7271 2.15645L77.6567 2.47285C77.5396 2.59004 77.3755 2.7541 77.1646 2.96504C76.9302 3.19941 76.7192 3.43379 76.5317 3.66816L76.0396 4.40645ZM64.438 5.28535L65.4224 5.10957C65.8442 5.03926 66.5122 4.86348 67.4263 4.58223L67.9536 4.40645L68.8325 4.16035L69.3599 4.26582C69.6411 4.33613 69.8521 4.39473 69.9927 4.4416C70.1333 4.51191 70.2739 4.60566 70.4146 4.72285L70.6606 4.96895C70.6841 5.13301 70.6255 5.27363 70.4849 5.39082C70.2974 5.50801 69.9927 5.61348 69.5708 5.70723L68.7271 5.91816C68.5396 5.96504 68.0708 6.03535 67.3208 6.1291L66.1255 6.30488C65.8208 6.32832 65.5747 6.34004 65.3872 6.34004L64.9302 6.30488L64.0161 5.98848L62.9614 7.21895C62.6333 7.61738 62.2583 8.01582 61.8364 8.41426C61.4146 8.83613 61.0278 9.17598 60.6763 9.43379C60.3247 9.66816 59.9497 9.90254 59.5513 10.1369L58.356 10.5236C58.3325 10.3596 58.3911 10.2072 58.5317 10.0666L59.1294 9.5041C59.481 9.17598 59.7974 8.84785 60.0786 8.51973C60.3599 8.23848 60.6997 7.8166 61.0981 7.2541C61.4966 6.6916 61.8599 6.1291 62.188 5.5666C62.5161 5.05098 62.7974 4.58223 63.0317 4.16035C63.2427 3.73848 63.4185 3.34004 63.5591 2.96504C63.6997 2.59004 63.77 2.21504 63.77 1.84004L64.0513 1.3127C64.356 1.3127 64.6841 1.41816 65.0356 1.6291C65.3872 1.8166 65.6216 1.96895 65.7388 2.08613C65.8794 2.20332 66.0083 2.33223 66.1255 2.47285L66.3364 3.17598C66.2896 3.3166 66.1724 3.44551 65.9849 3.5627L65.5981 3.80879L64.9302 4.72285L64.438 5.28535ZM64.5786 8.0627C64.8364 8.01582 65.0708 8.0041 65.2817 8.02754L66.0552 8.20332C66.2661 8.27363 66.5005 8.34395 66.7583 8.41426C67.0161 8.48457 67.2271 8.59004 67.3911 8.73066C67.5786 8.87129 67.7075 9.01191 67.7778 9.15254C67.8481 9.29316 67.8833 9.5041 67.8833 9.78535C67.8833 10.1604 67.7896 10.4416 67.6021 10.6291C67.438 10.8166 67.2271 10.9221 66.9692 10.9455C66.7583 10.9455 66.5005 10.8166 66.1958 10.5588C65.9849 10.3947 65.7036 10.1135 65.3521 9.71504C65.0005 9.34004 64.7427 9.04707 64.5786 8.83613C64.438 8.6252 64.438 8.36738 64.5786 8.0627ZM76.6021 6.90254L77.481 7.04316C78.1138 7.18379 78.6528 7.35957 79.0981 7.57051C79.52 7.78145 79.8364 8.02754 80.0474 8.30879C80.2349 8.59004 80.3286 8.96504 80.3286 9.43379C80.3052 9.99629 80.106 10.3596 79.731 10.5236C79.4263 10.5236 79.1333 10.4299 78.8521 10.2424C78.4771 10.0314 78.1138 9.72676 77.7622 9.32832L76.8833 8.23848L76.2153 6.9377C76.3794 6.89082 76.5083 6.8791 76.6021 6.90254Z" fill="#333333"/>
<path d="M155.141 20.3146H116.258V17.9768H155.141V20.3146Z" fill="#333333"/>
<path d="M194.024 20.3146H155.141V17.9768H194.024V20.3146Z" fill="#333333"/>
<path d="M248.305 14.9885C247.954 14.9885 247.614 14.7307 247.286 14.215C246.864 13.5588 246.454 13.0197 246.055 12.5979L245.141 11.6486C244.649 12.2111 244.215 12.6564 243.84 12.9846C243.489 13.3127 243.043 13.6291 242.504 13.9338C241.497 14.5197 240.653 14.8127 239.973 14.8127C239.809 14.8127 239.727 14.7541 239.727 14.6369C239.727 14.5666 239.95 14.4143 240.395 14.1799C240.84 13.9455 241.262 13.6643 241.661 13.3361C242.668 12.4924 243.5 11.6252 244.157 10.7346C244.016 10.5939 243.313 9.98457 242.047 8.90645C241.883 8.78926 241.637 8.59004 241.309 8.30879C241.239 8.26191 241.098 8.15645 240.887 7.99238C240.676 7.82832 240.571 7.71113 240.571 7.64082C240.571 7.52363 240.629 7.46504 240.747 7.46504C241.098 7.46504 241.661 7.71113 242.434 8.20332C243.208 8.67207 244.016 9.23457 244.86 9.89082C245.188 9.49238 245.446 9.11738 245.633 8.76582C245.821 8.41426 246.032 7.98066 246.266 7.46504C246.383 7.20723 246.454 6.98457 246.477 6.79707C246.5 6.58613 246.512 6.45723 246.512 6.41035C246.512 6.15254 246.583 6.02363 246.723 6.02363C246.887 6.02363 247.11 6.15254 247.391 6.41035C247.883 6.8791 248.129 7.19551 248.129 7.35957C248.129 7.45332 248.071 7.55879 247.954 7.67598C247.672 7.95723 247.415 8.33223 247.18 8.80098C247.04 9.08223 246.782 9.48066 246.407 9.99629C246.29 10.1369 246.196 10.2658 246.125 10.383C246.055 10.5002 245.985 10.6057 245.915 10.6994C246.454 11.0979 247.25 11.7775 248.305 12.7385C248.563 12.9729 248.727 13.1955 248.797 13.4064C248.891 13.5939 248.938 13.8518 248.938 14.1799C248.938 14.4143 248.879 14.6135 248.762 14.7775C248.645 14.9182 248.493 14.9885 248.305 14.9885ZM247.461 27.7502C247.368 27.7502 247.262 27.715 247.145 27.6447C247.028 27.551 246.875 27.4221 246.688 27.258C245.868 26.6252 245.071 25.676 244.297 24.4104C243.524 23.1447 242.973 21.7736 242.645 20.2971C242.622 20.1564 242.586 19.9924 242.54 19.8049C242.493 19.6174 242.446 19.4768 242.399 19.383C242.399 19.3596 242.364 19.3479 242.293 19.3479C242.129 19.3479 241.813 19.4533 241.344 19.6643C241.204 19.7346 241.063 19.84 240.922 19.9807C240.805 20.0979 240.676 20.1447 240.536 20.1213C240.442 20.1213 240.313 20.0627 240.149 19.9455C239.985 19.8283 239.868 19.7229 239.797 19.6291C239.563 19.301 239.446 19.1018 239.446 19.0314C239.446 18.8908 239.575 18.8088 239.833 18.7854C240.184 18.7854 240.407 18.7736 240.5 18.7502C241.18 18.6564 241.825 18.5041 242.434 18.2932C242.528 18.2697 242.657 18.1994 242.821 18.0822C242.844 18.0822 242.879 18.0705 242.926 18.0471C242.997 18.0236 243.079 18.0471 243.172 18.1174C243.524 18.3518 243.7 18.5275 243.7 18.6447C243.7 20.2854 244.168 21.8205 245.106 23.2502C246.043 24.6799 247.415 25.8869 249.219 26.8713C249.313 26.9182 249.43 26.965 249.571 27.0119C249.711 27.0588 249.782 27.1291 249.782 27.2229C249.782 27.34 249.395 27.4455 248.622 27.5393L247.743 27.6799L247.461 27.7502ZM255.477 12.1057C255.758 12.1057 255.899 12.2346 255.899 12.4924C255.899 12.633 255.77 12.8322 255.512 13.09C254.809 13.9572 253.415 15.6096 251.329 18.0471C251.165 18.258 251.012 18.3635 250.872 18.3635C250.754 18.3635 250.497 18.1877 250.098 17.8361C249.77 17.5549 249.606 17.3205 249.606 17.133C249.606 16.9221 249.782 16.7229 250.133 16.5354C250.672 16.2307 251.481 15.6213 252.559 14.7072C253.637 13.7463 254.434 12.9846 254.95 12.4221C255.161 12.2111 255.336 12.1057 255.477 12.1057ZM220.04 7.42988C220.391 7.35957 220.708 7.27754 220.989 7.18379C221.247 7.13691 221.504 7.0666 221.762 6.97285C222.043 6.8791 222.325 6.7502 222.606 6.58613L223.168 6.3752C223.403 6.35176 223.637 6.3752 223.872 6.44551C224.153 6.53926 224.458 6.66816 224.786 6.83223C225.114 6.99629 225.348 7.16035 225.489 7.32441L225.559 7.95723L225.067 8.48457C224.926 8.60176 224.774 8.82441 224.61 9.15254L224.293 9.78535L224.047 10.3127C224.493 10.2893 224.879 10.2541 225.208 10.2072C225.536 10.1838 225.899 10.1369 226.297 10.0666C226.625 10.0197 226.907 9.99629 227.141 9.99629C227.446 9.99629 227.739 10.0549 228.02 10.1721C228.301 10.2893 228.583 10.465 228.864 10.6994L229.18 11.1916L228.969 11.4377H227.598L225.911 11.4729C224.622 11.4729 223.848 11.4846 223.59 11.508C223.356 11.5314 222.665 11.59 221.516 11.6838C220.368 11.7775 219.594 11.8479 219.196 11.8947C218.797 11.9416 218.305 12.0119 217.719 12.1057C217.133 12.2463 216.723 12.3283 216.489 12.3518L215.961 12.4572L215.434 12.633L214.344 12.9846C214.18 12.9143 213.981 12.8088 213.747 12.6682L213.114 12.2111L212.833 11.7541C212.879 11.6135 213.02 11.5432 213.254 11.5432L213.993 11.508L214.836 11.4025L215.61 11.3322L216.77 11.1916L217.825 11.051L217.965 9.92598L218.106 8.73066L216.911 8.90645C216.489 8.90645 216.184 8.87129 215.997 8.80098C215.809 8.7541 215.668 8.54316 215.575 8.16816L216.559 7.95723L218.247 7.74629C218.247 7.53535 218.258 7.3127 218.282 7.07832C218.305 6.84395 218.317 6.62129 218.317 6.41035C218.27 6.17598 218.2 5.91816 218.106 5.63691L218.387 5.0041C218.739 5.0041 219.114 5.09785 219.512 5.28535C219.934 5.44941 220.227 5.61348 220.391 5.77754L220.532 6.3752C220.368 6.65645 220.25 6.8791 220.18 7.04316L220.04 7.42988ZM219.161 10.84C219.653 10.7932 220.028 10.7463 220.286 10.6994L221.762 10.5588L222.395 10.4885L222.676 9.32832C222.723 9.16426 222.77 8.88301 222.817 8.48457L222.5 7.99238C222.266 7.96895 222.02 7.99238 221.762 8.0627L220.532 8.30879L219.723 8.44941L219.512 9.43379L219.161 10.84ZM219.547 24.551C219.243 24.5979 219.02 24.633 218.879 24.6564L217.895 24.7971C217.614 24.8439 217.297 24.9025 216.946 24.9729C216.594 25.0432 216.348 25.1018 216.208 25.1486C216.067 25.1721 215.903 25.2307 215.715 25.3244L215.399 25.3947C215.235 25.3947 215.083 25.3244 214.942 25.1838C214.801 25.0432 214.684 24.8908 214.59 24.7268L214.45 24.4104C214.45 24.2463 214.555 24.0471 214.766 23.8127C214.954 23.5783 215.118 23.2854 215.258 22.9338C215.422 22.5588 215.516 22.2307 215.54 21.9494L215.645 21.3166C215.317 21.176 215.176 20.9064 215.223 20.508C215.598 20.4846 216.02 20.4494 216.489 20.4025L218.141 20.2619L219.547 20.0861V19.1721L219.512 18.6799L219.407 17.8361L218.809 17.9416L217.965 18.0471L217.754 18.3635C217.661 18.5275 217.45 18.5744 217.122 18.5041C216.934 18.176 216.817 17.8713 216.77 17.59L216.348 15.551C216.301 15.2932 216.219 15.0588 216.102 14.8479C215.985 14.6135 215.856 14.4143 215.715 14.2502L215.54 13.7932L215.926 13.6525C216.325 13.6994 216.618 13.758 216.805 13.8283L217.333 14.0393C217.942 13.9689 218.387 13.8986 218.668 13.8283L220.356 13.5471C221.176 13.4299 221.668 13.3479 221.833 13.301L222.922 13.0549L223.309 13.0197C223.543 13.0197 223.778 13.0666 224.012 13.1604C224.247 13.2541 224.516 13.383 224.821 13.5471C225.125 13.7346 225.325 13.9338 225.418 14.1447L225.383 14.7072L224.891 15.0236L224.434 15.5158L223.942 16.2541C223.989 16.5119 224.094 16.7111 224.258 16.8518L224.223 17.3088C223.942 17.3557 223.508 17.4025 222.922 17.4494C222.336 17.4729 221.903 17.508 221.622 17.5549L220.708 17.7307L221.27 18.0119L221.516 18.2932C221.54 18.4572 221.528 18.6447 221.481 18.8557L221.34 19.5236L221.2 19.9807C221.528 19.9104 221.821 19.84 222.079 19.7697C222.336 19.7229 222.629 19.6525 222.958 19.5588C223.286 19.465 223.567 19.4182 223.801 19.4182C224.036 19.4182 224.247 19.4533 224.434 19.5236C224.692 19.5939 224.903 19.7229 225.067 19.9104L225.348 20.2268C225.301 20.3908 225.137 20.4963 224.856 20.5432C224.575 20.59 224.2 20.6369 223.731 20.6838L222.29 20.8947L221.165 21.0354L221.024 23.3205C221.493 23.2971 221.856 23.2736 222.114 23.2502C222.372 23.2268 222.735 23.1799 223.204 23.1096C223.672 23.0393 224.036 22.9924 224.293 22.9689C224.551 22.9455 224.762 22.9338 224.926 22.9338C225.114 22.9572 225.336 23.0275 225.594 23.1447C225.852 23.2385 226.063 23.3557 226.227 23.4963C226.391 23.6369 226.52 23.883 226.614 24.2346C226.567 24.3752 226.426 24.4455 226.192 24.4455H224.293L222.922 24.4104C222.665 24.3869 222.454 24.3752 222.29 24.3752L221.973 24.4104L220.989 24.4807L220.918 25.3947C220.872 25.8166 220.825 26.1916 220.778 26.5197C220.731 26.8479 220.625 27.176 220.461 27.5041L220.11 27.9611C219.946 27.9377 219.817 27.7854 219.723 27.5041C219.653 27.2229 219.606 26.7775 219.583 26.1682L219.547 25.2541V24.551ZM219.583 21.176L217.086 21.3869L217.051 21.7736C217.004 21.9377 216.934 22.1604 216.84 22.4416L216.524 23.1447L216.559 23.9182C216.864 23.8713 217.286 23.801 217.825 23.7072L218.879 23.5666L219.547 23.4963L219.583 21.176ZM217.825 17.0627C218.387 16.9924 218.786 16.9338 219.02 16.8869C219.301 16.84 219.77 16.7463 220.426 16.6057C221.083 16.465 221.493 16.3713 221.657 16.3244L222.395 16.1486L222.536 15.6213C222.583 15.4807 222.629 15.2463 222.676 14.9182L222.5 14.2502C222.313 14.1564 222.102 14.1096 221.868 14.1096L221.411 14.1447C220.942 14.1916 220.59 14.2385 220.356 14.2854L219.196 14.4963L218.317 14.6721L217.649 14.7072L217.825 17.0627ZM211.778 4.01973L214.485 3.80879C215.375 3.76191 216.008 3.72676 216.383 3.70332C216.782 3.67988 217.731 3.59785 219.231 3.45723C220.778 3.34004 221.938 3.24629 222.711 3.17598L225.172 2.89473C226.016 2.80098 226.684 2.73066 227.176 2.68379C227.692 2.61348 228.067 2.55488 228.301 2.50801L229.215 2.33223C229.59 2.23848 229.86 2.1916 230.024 2.1916C230.235 2.1916 230.528 2.26191 230.903 2.40254C231.278 2.54316 231.653 2.73066 232.028 2.96504C232.403 3.15254 232.754 3.38691 233.083 3.66816L233.575 4.16035C233.575 4.37129 233.551 4.55879 233.504 4.72285L233.223 5.32051C233.129 5.57832 233.059 5.82441 233.012 6.05879C232.965 6.26973 232.918 6.66816 232.872 7.2541L232.731 8.6252C232.684 9.11738 232.661 9.73848 232.661 10.4885C232.637 10.7697 232.625 11.2385 232.625 11.8947C232.649 12.551 232.661 13.5588 232.661 14.9182V18.8557C232.661 19.465 232.684 20.426 232.731 21.7385C232.778 23.051 232.825 24.1643 232.872 25.0783L232.907 27.6447V28.5939C232.907 29.133 232.895 29.5549 232.872 29.8596C232.754 30.4924 232.567 31.0197 232.309 31.4416C232.075 31.8635 231.793 32.1799 231.465 32.3908L230.868 32.6369C230.68 32.6369 230.528 32.5549 230.411 32.3908C230.293 32.2502 230.106 31.8635 229.848 31.2307L229.356 30.176L228.934 29.2971H227.563C227.282 29.2971 226.907 29.3088 226.438 29.3322C225.758 29.3791 225.231 29.4025 224.856 29.4025L214.415 30.0354C213.641 30.1057 213.09 30.1525 212.762 30.176L211.918 30.2111H211.426L210.934 30.0354L210.864 30.7385C210.793 31.1135 210.7 31.3947 210.583 31.5822L210.231 31.8635C210.067 31.8635 209.903 31.7697 209.739 31.5822C209.551 31.3947 209.352 31.1252 209.141 30.7736C208.954 30.4221 208.813 30.0471 208.719 29.6486C208.719 29.3674 208.731 29.133 208.754 28.9455C208.778 28.6643 208.872 28.0783 209.036 27.1877C209.223 26.2971 209.364 25.3947 209.458 24.4807C209.575 23.5432 209.692 22.3713 209.809 20.965L210.055 17.2385C210.125 16.1369 210.172 14.8713 210.196 13.4416C210.243 12.0119 210.266 10.9338 210.266 10.2072L210.196 8.13301C210.172 7.40645 210.137 6.83223 210.09 6.41035C210.043 5.9416 209.973 5.54316 209.879 5.21504C209.786 4.86348 209.68 4.54707 209.563 4.26582L209.458 3.77363C209.504 3.63301 209.68 3.55098 209.985 3.52754C210.172 3.52754 210.336 3.55098 210.477 3.59785C210.688 3.64473 210.981 3.73848 211.356 3.8791L211.778 4.01973ZM212.024 5.28535C212 6.22285 211.989 6.90254 211.989 7.32441L211.848 10.1721L211.778 13.301L211.637 16.8869L211.532 20.4729C211.508 21.4104 211.45 22.676 211.356 24.2697C211.309 25.84 211.262 26.8713 211.215 27.3635L211.04 28.8752L224.434 27.9963C224.762 27.9963 225.29 27.9494 226.016 27.8557C226.743 27.7619 227.293 27.715 227.668 27.715C228.043 27.715 228.383 27.7619 228.688 27.8557C228.969 27.9494 229.239 28.0666 229.497 28.2072L230.2 28.5939L230.34 28.1369L230.481 27.2229C230.504 26.801 230.528 26.0861 230.551 25.0783C230.551 24.0705 230.575 23.2385 230.622 22.5822C230.622 21.9025 230.633 21.4807 230.657 21.3166L230.692 13.4064L230.622 10.6994L230.551 8.48457L230.34 6.48066C230.293 5.70723 230.223 5.16816 230.129 4.86348C230.083 4.58223 229.989 4.39473 229.848 4.30098C229.731 4.20723 229.508 4.14863 229.18 4.1252C228.875 4.10176 228.465 4.09004 227.95 4.09004L225.629 4.23066L223.028 4.30098C222.278 4.34785 221.622 4.39473 221.059 4.4416C220.543 4.48848 219.395 4.60566 217.614 4.79316C215.833 4.98066 214.79 5.09785 214.485 5.14473C214.18 5.16816 213.84 5.20332 213.465 5.2502L212.833 5.32051L212.024 5.28535Z" fill="#333333"/>
<path d="M299.317 15.7971C298.942 15.7971 298.708 15.6916 298.614 15.4807C298.497 15.1994 298.379 14.965 298.262 14.7775C298.145 14.5666 297.934 14.3205 297.629 14.0393L297.7 13.8986C298.543 14.2033 299.094 14.3557 299.352 14.3557C299.54 14.3557 299.68 14.3205 299.774 14.2502C299.868 14.1799 300.02 14.0158 300.231 13.758C300.536 13.4299 300.817 12.926 301.075 12.2463C301.426 11.2385 301.649 10.1955 301.743 9.11738V9.01191C301.743 8.87129 301.719 8.77754 301.672 8.73066C301.368 8.73066 300.559 8.80098 299.247 8.9416C298.52 10.7463 297.676 12.2346 296.715 13.4064C295.778 14.5549 294.922 15.1291 294.149 15.1291C293.961 15.1291 293.868 15.0588 293.868 14.9182C293.868 14.8713 294.102 14.6018 294.571 14.1096C295.04 13.6174 295.555 12.9729 296.118 12.176C296.704 11.3557 297.254 10.3479 297.77 9.15254C297.653 9.15254 297.313 9.17598 296.75 9.22285C296.188 9.26973 295.708 9.35176 295.309 9.46895C295.122 9.60957 294.922 9.63301 294.711 9.53926C294.711 9.53926 294.688 9.52754 294.641 9.5041C294.594 9.48066 294.547 9.44551 294.5 9.39863C294.336 9.30488 294.196 9.1877 294.079 9.04707C293.985 8.88301 293.938 8.73066 293.938 8.59004C293.938 8.51973 293.997 8.42598 294.114 8.30879L294.536 7.74629C294.676 7.55879 294.805 7.28926 294.922 6.9377C295.04 6.5627 295.098 6.24629 295.098 5.98848C295.098 5.82441 295.086 5.71895 295.063 5.67207C295.04 5.6252 295.028 5.5666 295.028 5.49629C295.028 5.3791 295.086 5.32051 295.204 5.32051C295.344 5.32051 295.543 5.40254 295.801 5.5666C295.872 5.61348 296 5.70723 296.188 5.84785C296.399 5.96504 296.516 6.10566 296.54 6.26973C296.54 6.43379 296.446 6.70332 296.258 7.07832L295.801 7.88691C295.754 7.95723 295.731 8.03926 295.731 8.13301C295.731 8.20332 295.754 8.26191 295.801 8.30879C295.872 8.33223 295.954 8.33223 296.047 8.30879L298.157 8.02754C298.391 7.41816 298.579 6.77363 298.719 6.09395V5.88301V5.28535C298.719 5.02754 298.79 4.92207 298.93 4.96895C299.235 5.03926 299.481 5.13301 299.668 5.2502C300.02 5.46113 300.196 5.63691 300.196 5.77754C300.196 5.89473 300.149 6.09395 300.055 6.3752C299.985 6.63301 299.926 6.83223 299.879 6.97285C299.856 7.0666 299.75 7.37129 299.563 7.88691C299.633 7.88691 300.067 7.84004 300.864 7.74629L301.215 7.67598C301.286 7.67598 301.415 7.65254 301.602 7.60566C301.649 7.58223 301.708 7.57051 301.778 7.57051C302.059 7.57051 302.235 7.58223 302.305 7.60566C302.399 7.6291 302.54 7.69941 302.727 7.8166C302.938 7.95723 303.079 8.09785 303.149 8.23848C303.219 8.3791 303.243 8.54316 303.219 8.73066L303.008 9.89082L302.762 11.1564C302.762 11.2502 302.68 11.5549 302.516 12.0705C302.352 12.5861 302.165 13.0432 301.954 13.4416C301.555 14.2385 301.086 14.8361 300.547 15.2346C300.079 15.6096 299.668 15.7971 299.317 15.7971ZM302.305 27.2932C301.954 27.2932 301.614 27.0354 301.286 26.5197C300.864 25.8635 300.454 25.3244 300.055 24.9025L299.141 23.9533C298.649 24.5158 298.215 24.9611 297.84 25.2893C297.489 25.6174 297.043 25.9338 296.504 26.2385C295.497 26.8244 294.653 27.1174 293.973 27.1174C293.809 27.1174 293.727 27.0588 293.727 26.9416C293.727 26.8713 293.95 26.7189 294.395 26.4846C294.84 26.2502 295.262 25.9689 295.661 25.6408C296.668 24.7971 297.5 23.9299 298.157 23.0393C298.016 22.8986 297.313 22.2893 296.047 21.2111C295.883 21.0939 295.637 20.8947 295.309 20.6135C295.239 20.5666 295.098 20.4611 294.887 20.2971C294.676 20.133 294.571 20.0158 294.571 19.9455C294.571 19.8283 294.629 19.7697 294.747 19.7697C295.098 19.7697 295.661 20.0158 296.434 20.508C297.208 20.9768 298.016 21.5393 298.86 22.1955C299.188 21.7971 299.446 21.4221 299.633 21.0705C299.821 20.7189 300.032 20.2854 300.266 19.7697C300.383 19.5119 300.454 19.2893 300.477 19.1018C300.5 18.8908 300.512 18.7619 300.512 18.715C300.512 18.4572 300.583 18.3283 300.723 18.3283C300.887 18.3283 301.11 18.4572 301.391 18.715C301.883 19.1838 302.129 19.5002 302.129 19.6643C302.129 19.758 302.071 19.8635 301.954 19.9807C301.672 20.2619 301.415 20.6369 301.18 21.1057C301.04 21.3869 300.782 21.7854 300.407 22.301C300.29 22.4416 300.196 22.5705 300.125 22.6877C300.055 22.8049 299.985 22.9104 299.915 23.0041C300.454 23.4025 301.25 24.0822 302.305 25.0432C302.563 25.2775 302.727 25.5002 302.797 25.7111C302.891 25.8986 302.938 26.1564 302.938 26.4846C302.938 26.7189 302.879 26.9182 302.762 27.0822C302.645 27.2229 302.493 27.2932 302.305 27.2932ZM309.477 12.1057C309.758 12.1057 309.899 12.2346 309.899 12.4924C309.899 12.633 309.77 12.8322 309.512 13.09C308.809 13.9572 307.415 15.6096 305.329 18.0471C305.165 18.258 305.012 18.3635 304.872 18.3635C304.754 18.3635 304.497 18.1877 304.098 17.8361C303.77 17.5549 303.606 17.3205 303.606 17.133C303.606 16.9221 303.782 16.7229 304.133 16.5354C304.672 16.2307 305.481 15.6213 306.559 14.7072C307.637 13.7463 308.434 12.9846 308.95 12.4221C309.161 12.2111 309.336 12.1057 309.477 12.1057ZM278.293 8.30879C278.668 8.33223 278.95 8.40254 279.137 8.51973L279.348 9.04707C279.208 9.32832 279.102 9.64473 279.032 9.99629L280.719 9.7502L281.879 9.46895L282.618 9.60957C283.016 9.67988 283.297 9.7502 283.461 9.82051L283.708 10.0666L283.672 10.3127C283.555 10.4299 283.426 10.5002 283.286 10.5236L278.856 11.508V12.3166C278.879 12.551 278.95 12.7502 279.067 12.9143C279.184 13.0783 279.5 13.1604 280.016 13.1604C280.461 13.1604 280.977 13.1018 281.563 12.9846C282.243 12.8674 282.805 12.6916 283.25 12.4572C283.649 12.2463 283.954 12.1408 284.165 12.1408C284.329 12.1643 284.54 12.258 284.797 12.4221C285.079 12.5861 285.278 12.7619 285.395 12.9494L285.536 13.4064C285.489 13.6643 285.09 13.8752 284.34 14.0393C283.59 14.2268 282.653 14.3674 281.528 14.4611C281.106 14.508 280.731 14.5314 280.403 14.5314C279.887 14.5314 279.465 14.4846 279.137 14.3908C278.575 14.2268 278.176 13.9924 277.942 13.6877C277.708 13.4064 277.59 13.1252 277.59 12.8439L277.52 11.7541C276.84 11.8713 276.278 11.9299 275.833 11.9299C275.411 11.9064 275.094 11.8361 274.883 11.7189L274.567 11.2619C274.708 11.1213 274.93 11.0158 275.235 10.9455L277.52 10.5588L277.45 9.57441C277.403 9.34004 277.356 9.1291 277.309 8.9416L277.239 8.48457L274.075 9.01191L274.321 9.67988C274.18 10.0314 274.086 10.3947 274.04 10.7697C274.016 11.1447 273.934 11.8713 273.793 12.9494L273.336 16.3244C273.125 17.7307 272.915 19.0432 272.704 20.2619C272.469 21.4807 272.153 22.758 271.754 24.0939C271.379 25.4299 270.934 26.6135 270.418 27.6447C269.903 28.6291 269.422 29.4143 268.977 30.0002C268.532 30.5861 268.122 31.0783 267.747 31.4768L267.114 32.215L266.622 32.3557C266.622 32.1682 266.668 31.9807 266.762 31.7932L267.043 31.301C267.536 30.4104 268.04 29.4377 268.555 28.383C269.047 27.3049 269.504 26.0627 269.926 24.6564C270.325 23.2736 270.665 21.9143 270.946 20.5783C271.25 19.2424 271.461 18.0822 271.579 17.0979C271.696 16.1135 271.801 14.965 271.895 13.6525C271.989 12.3869 272.047 11.4494 272.071 10.84C272.094 10.2541 272.106 9.8791 272.106 9.71504L272.071 9.11738L271.614 8.80098L271.368 8.30879C271.508 8.12129 271.731 8.02754 272.036 8.02754L273.055 7.95723C273.852 7.91035 274.415 7.86348 274.743 7.8166L277.555 7.32441L277.344 3.3166C277.321 2.77754 277.286 2.41426 277.239 2.22676L276.852 1.0666L277.344 0.644727C277.836 0.668164 278.211 0.726758 278.469 0.820508C278.727 0.89082 278.961 0.996289 279.172 1.13691L279.489 1.59395C279.512 1.75801 279.489 1.92207 279.418 2.08613C279.325 2.34395 279.278 2.61348 279.278 2.89473L279.208 4.30098C279.817 4.0666 280.368 3.86738 280.86 3.70332C281.352 3.53926 281.786 3.3752 282.161 3.21113C282.536 3.07051 282.84 3.0002 283.075 3.0002C283.286 3.02363 283.497 3.08223 283.708 3.17598C283.942 3.26973 284.141 3.3752 284.305 3.49238L284.446 4.01973C284.235 4.20723 283.989 4.32441 283.708 4.37129L281.141 4.86348C280.766 4.93379 280.391 4.96895 280.016 4.96895L279.208 4.79316L279.067 7.11348L283.215 6.34004L284.692 5.98848C285.043 5.91816 285.325 5.88301 285.536 5.88301C285.84 5.90645 286.204 5.98848 286.625 6.1291C287.071 6.29316 287.493 6.48066 287.891 6.6916C288.29 6.90254 288.618 7.11348 288.875 7.32441C289.086 7.51191 289.157 7.75801 289.086 8.0627C288.969 8.17988 288.747 8.29707 288.418 8.41426C288.09 8.50801 287.797 8.60176 287.54 8.69551C287.282 8.8127 286.989 8.96504 286.661 9.15254L285.817 9.64473L285.114 10.0666L284.622 9.89082L285.008 9.22285C285.172 8.96504 285.301 8.67207 285.395 8.34395L285.465 7.8166L285.254 7.5002L284.481 7.39473C284.2 7.37129 283.942 7.38301 283.708 7.42988L278.293 8.30879ZM274.602 30.5275L273.969 27.2932C273.922 27.0822 273.817 26.801 273.653 26.4494C273.465 26.1213 273.278 25.8635 273.09 25.676L272.809 25.3244C272.833 25.1838 272.926 25.0783 273.09 25.008L273.618 25.0432L274.743 25.1838L282.02 24.3049C282.723 24.2346 283.356 24.1291 283.918 23.9885C284.504 23.8479 284.879 23.7775 285.043 23.7775C285.325 23.801 285.618 23.8713 285.922 23.9885C286.227 24.1291 286.555 24.3166 286.907 24.551C287.258 24.8088 287.481 25.0197 287.575 25.1838L287.715 25.6057L287.223 26.2385C286.989 26.4729 286.778 26.8127 286.59 27.258L286.168 28.2775L285.676 29.5432L286.942 29.4025L288.208 29.2971C288.583 29.2971 288.887 29.3322 289.122 29.4025C289.356 29.4963 289.684 29.6369 290.106 29.8244C290.551 30.0588 290.833 30.2463 290.95 30.3869L290.844 30.9494L290.282 30.9846C289.977 30.9846 289.543 30.9729 288.981 30.9494H285.958C285.301 30.9494 284.422 30.9611 283.321 30.9846C282.196 31.0314 281.047 31.1135 279.875 31.2307C278.727 31.3244 277.614 31.4299 276.536 31.5471C275.458 31.6643 274.743 31.7697 274.391 31.8635C274.04 31.9104 273.606 32.0041 273.09 32.1447C272.645 32.2619 272.329 32.3205 272.141 32.3205C271.883 32.3205 271.684 32.2854 271.543 32.215C271.403 32.1447 271.168 32.0041 270.84 31.7932C270.512 31.5822 270.336 31.2893 270.313 30.9143L271.684 30.8088L274.602 30.5275ZM275.833 30.4572L277.977 30.1408L277.696 27.7854C277.625 27.1291 277.543 26.6955 277.45 26.4846L277.133 25.7814C276.43 25.8518 275.997 25.9104 275.833 25.9572L275.059 26.133L275.833 30.4572ZM278.645 25.6057L279.067 26.0979C279.09 26.2385 279.09 26.3791 279.067 26.5197C279.02 26.801 278.997 27.176 278.997 27.6447L278.961 30.1057L280.79 29.9299C280.907 28.4768 280.965 27.5744 280.965 27.2229L280.86 25.3947L278.645 25.6057ZM281.528 29.8947L283.989 29.7189L284.411 27.0822C284.528 26.4729 284.575 26.0275 284.551 25.7463C284.528 25.5588 284.387 25.383 284.129 25.2189L283.532 25.1838L282.02 25.3244C282.137 25.4416 282.29 25.6525 282.477 25.9572C282.5 26.1213 282.454 26.3557 282.336 26.6604C282.172 26.9885 282.067 27.2814 282.02 27.5393L281.528 29.8947ZM275.973 16.5354C277.192 16.3947 278 16.2893 278.399 16.2189C278.797 16.1486 279.559 15.9729 280.684 15.6916C281.856 15.4338 282.606 15.258 282.934 15.1643C283.262 15.0939 283.543 15.0471 283.778 15.0236C284.059 15.0236 284.375 15.0822 284.727 15.1994C285.079 15.34 285.372 15.4807 285.606 15.6213C285.84 15.7619 286.063 15.9143 286.274 16.0783L286.59 16.5354C286.59 16.7229 286.508 16.9572 286.344 17.2385C286.227 17.4025 286.122 17.5783 286.028 17.7658C285.911 17.9768 285.817 18.2229 285.747 18.5041L284.833 21.3869C284.715 21.715 284.586 22.0197 284.446 22.301C284.282 22.6291 284.012 22.8635 283.637 23.0041C283.473 22.9572 283.321 22.8635 283.18 22.7229L282.758 22.301L276.747 22.8283C276.7 22.9924 276.641 23.1564 276.571 23.3205L276.114 23.5666C275.973 23.426 275.844 23.2854 275.727 23.1447C275.633 23.0041 275.575 22.7697 275.551 22.4416L275.059 18.9963C274.918 18.1291 274.766 17.5783 274.602 17.3439L274.11 16.5354C274.18 16.3947 274.297 16.301 274.461 16.2541L275.165 16.3596L275.973 16.5354ZM278.926 18.8908L278.856 16.9924C277.918 17.1096 277.333 17.1799 277.098 17.2033L276.184 17.3088L276.43 19.2072L278.926 18.8908ZM276.606 21.7385L278.856 21.3869V19.9104L276.536 20.1564L276.606 21.7385ZM280.333 21.2814C280.708 21.2346 281.036 21.1994 281.317 21.176C281.598 21.1525 281.856 21.1408 282.09 21.1408L282.547 21.2111L283.075 21.4572L283.637 19.1721L280.403 19.6643L280.333 21.2814ZM280.438 18.5744C280.836 18.5275 281.247 18.4689 281.668 18.3986L282.301 18.2932C282.536 18.2697 282.829 18.3049 283.18 18.3986L283.708 18.5744L283.989 17.0979V16.7814C283.942 16.5705 283.754 16.4182 283.426 16.3244C283.192 16.301 282.969 16.3127 282.758 16.3596L280.543 16.7463L280.508 17.4143L280.438 18.5744ZM266.446 13.5822L268.168 11.2268C268.473 10.8283 268.661 10.4768 268.731 10.1721L268.907 9.64473L269.153 9.43379C269.317 9.41035 269.504 9.45723 269.715 9.57441C270.184 9.8791 270.536 10.1955 270.77 10.5236L271.086 11.1564C271.04 11.3205 270.934 11.4611 270.77 11.5783L269.856 12.0354L266.411 14.1447L266.27 16.3244C266.2 17.1213 266.129 17.801 266.059 18.3635L265.743 20.508L266.657 20.8947C267.008 21.0354 267.301 21.176 267.536 21.3166C267.77 21.4572 268.016 21.6564 268.274 21.9143C268.532 22.1721 268.731 22.4885 268.872 22.8635C268.942 23.051 268.977 23.2268 268.977 23.3908C268.977 23.5783 268.942 23.7541 268.872 23.9182C268.731 24.2463 268.567 24.4104 268.379 24.4104C268.168 24.4104 267.969 24.3518 267.782 24.2346C267.571 24.1174 267.407 23.9885 267.29 23.8479C267.172 23.6838 267.032 23.4729 266.868 23.215L266.2 22.2307L265.602 21.176L264.934 23.426C264.747 24.0354 264.477 24.6799 264.125 25.3596C263.774 26.0627 263.387 26.7072 262.965 27.2932C262.52 27.8791 262.063 28.3947 261.594 28.84C261.149 29.2619 260.715 29.6252 260.293 29.9299L259.661 30.3869L259.274 30.2111L259.872 29.3674L260.997 27.8205C261.325 27.3752 261.676 26.7893 262.051 26.0627C262.426 25.3361 262.743 24.5979 263 23.8479C263.258 23.1447 263.493 22.301 263.704 21.3166C263.915 20.3557 264.079 19.4768 264.196 18.6799C264.313 17.8596 264.407 16.8635 264.477 15.6916C264.547 14.4729 264.594 13.4064 264.618 12.4924L264.653 7.74629L264.583 6.41035C264.536 5.5666 264.477 5.02754 264.407 4.79316C264.336 4.55879 264.243 4.28926 264.125 3.98457L263.95 3.45723L264.266 3.07051C264.477 3.04707 264.653 3.05879 264.793 3.10566C265.028 3.15254 265.215 3.19941 265.356 3.24629L266.165 3.52754C266.563 3.6916 266.821 3.85566 266.938 4.01973C267.055 4.16035 267.114 4.34785 267.114 4.58223L266.938 5.21504C266.868 5.44941 266.797 5.76582 266.727 6.16426C266.657 6.5627 266.622 7.0666 266.622 7.67598L266.446 13.5822ZM260.083 13.4768C259.989 13.2189 259.907 12.9729 259.836 12.7385L259.907 12.3166H260.188C260.68 12.4338 261.125 12.6447 261.524 12.9494C261.922 13.2307 262.25 13.5236 262.508 13.8283C262.766 14.133 262.942 14.4494 263.036 14.7775C263.129 15.0822 263.188 15.4807 263.211 15.9729C263.211 16.3947 263.106 16.6994 262.895 16.8869C262.708 17.0744 262.485 17.1682 262.227 17.1682C261.969 17.1213 261.735 16.9221 261.524 16.5705C261.29 16.2424 261.114 15.9377 260.997 15.6564C260.856 15.3752 260.715 15.0354 260.575 14.6369L260.083 13.4768Z" fill="#333333"/>
</svg>
