<svg width="250" height="82" viewBox="0 0 250 82" fill="none" xmlns="http://www.w3.org/2000/svg">
<path d="M107.934 5.49605C107.77 5.49605 107.852 5.35542 108.18 5.07417C108.508 4.79292 108.906 4.45308 109.375 4.05464C109.844 3.63276 110.371 3.08198 110.957 2.40229C111.332 1.95698 111.613 1.48823 111.801 0.996045C111.918 0.714795 112.047 0.57417 112.188 0.57417C112.305 0.57417 112.48 0.66792 112.715 0.85542C113.184 1.23042 113.418 1.54683 113.418 1.80464C113.418 1.9687 113.324 2.08589 113.137 2.1562C113.043 2.17964 112.902 2.28511 112.715 2.47261C112.527 2.63667 112.387 2.76558 112.293 2.85933C111.285 3.8437 110.348 4.55855 109.48 5.00386C108.777 5.33198 108.309 5.49605 108.074 5.49605H107.934ZM111.625 12.0351C111.555 12.0351 111.438 11.9414 111.273 11.7539C111.133 11.5429 111.027 11.3437 110.957 11.1562C110.934 11.0156 110.934 10.8398 110.957 10.6289C111.004 10.3945 111.027 10.2187 111.027 10.1015C111.074 9.63276 111.098 9.25776 111.098 8.97651C111.121 8.7187 111.121 8.43745 111.098 8.13276C111.098 7.82808 111.098 7.62886 111.098 7.53511L111.062 7.00776C110.5 7.4062 110.066 7.68745 109.762 7.85151C109.082 8.22651 108.59 8.46089 108.285 8.55464C107.91 8.69526 107.57 8.76558 107.266 8.76558C107.102 8.76558 107.008 8.74214 106.984 8.69526C106.938 8.60151 107.406 8.26167 108.391 7.67573C109.328 7.0898 110.348 6.31636 111.449 5.35542C112.059 4.79292 112.527 4.25386 112.855 3.73823C112.902 3.66792 112.938 3.58589 112.961 3.49214C113.008 3.37495 113.055 3.30464 113.102 3.2812C113.172 3.25776 113.266 3.26948 113.383 3.31636C113.688 3.48042 113.945 3.71479 114.156 4.01948C114.25 4.13667 114.297 4.25386 114.297 4.37104C114.297 4.48823 114.238 4.60542 114.121 4.72261C114.004 4.81636 113.887 4.88667 113.77 4.93355C113.371 5.19136 113.008 5.47261 112.68 5.7773C112.352 6.08198 112.141 6.2812 112.047 6.37495C112.398 6.6562 112.574 6.85542 112.574 6.97261L112.469 7.71089C112.422 7.92183 112.398 8.44917 112.398 9.29292C112.398 10.1132 112.422 10.664 112.469 10.9453V11.0156C112.469 11.1328 112.434 11.2617 112.363 11.4023C112.316 11.5195 112.281 11.6015 112.258 11.6484C112.094 11.9062 111.883 12.0351 111.625 12.0351ZM115.211 20.9648C114.859 20.9648 114.52 20.707 114.191 20.1914C113.77 19.5351 113.359 18.996 112.961 18.5742L112.047 17.625C111.555 18.1875 111.121 18.6328 110.746 18.9609C110.395 19.289 109.949 19.6054 109.41 19.9101C108.402 20.496 107.559 20.789 106.879 20.789C106.715 20.789 106.633 20.7304 106.633 20.6132C106.633 20.5429 106.855 20.3906 107.301 20.1562C107.746 19.9218 108.168 19.6406 108.566 19.3125C109.574 18.4687 110.406 17.6015 111.062 16.7109C110.922 16.5703 110.219 15.9609 108.953 14.8828C108.789 14.7656 108.543 14.5664 108.215 14.2851C108.145 14.2382 108.004 14.1328 107.793 13.9687C107.582 13.8046 107.477 13.6875 107.477 13.6171C107.477 13.5 107.535 13.4414 107.652 13.4414C108.004 13.4414 108.566 13.6875 109.34 14.1796C110.113 14.6484 110.922 15.2109 111.766 15.8671C112.094 15.4687 112.352 15.0937 112.539 14.7421C112.727 14.3906 112.938 13.957 113.172 13.4414C113.289 13.1835 113.359 12.9609 113.383 12.7734C113.406 12.5625 113.418 12.4335 113.418 12.3867C113.418 12.1289 113.488 12 113.629 12C113.793 12 114.016 12.1289 114.297 12.3867C114.789 12.8554 115.035 13.1718 115.035 13.3359C115.035 13.4296 114.977 13.5351 114.859 13.6523C114.578 13.9335 114.32 14.3085 114.086 14.7773C113.945 15.0585 113.688 15.457 113.312 15.9726C113.195 16.1132 113.102 16.2421 113.031 16.3593C112.961 16.4765 112.891 16.582 112.82 16.6757C113.359 17.0742 114.156 17.7539 115.211 18.7148C115.469 18.9492 115.633 19.1718 115.703 19.3828C115.797 19.5703 115.844 19.8281 115.844 20.1562C115.844 20.3906 115.785 20.5898 115.668 20.7539C115.551 20.8945 115.398 20.9648 115.211 20.9648ZM115.844 25.6054C116.102 25.8867 116.23 26.121 116.23 26.3085C116.23 26.4726 116.137 26.625 115.949 26.7656C115.832 26.8593 115.539 27.375 115.07 28.3125C114.555 29.1562 113.98 29.8828 113.348 30.4921C112.738 31.125 112.129 31.582 111.52 31.8632C111.379 31.9101 111.262 31.9335 111.168 31.9335C111.074 31.9335 111.027 31.9101 111.027 31.8632V31.7929C111.027 31.6523 111.145 31.4882 111.379 31.3007C111.801 30.9726 112.117 30.6328 112.328 30.2812C112.562 29.9531 112.738 29.707 112.855 29.5429C113.348 28.8398 113.699 28.2656 113.91 27.8203C114.145 27.4218 114.309 27.0117 114.402 26.5898H114.262C113.652 26.5898 112.668 26.6601 111.309 26.8007C111.098 26.8242 110.488 26.9062 109.48 27.0468C109.27 27.0703 108.941 27.1289 108.496 27.2226L108.074 27.3281C107.98 27.375 107.887 27.3984 107.793 27.3984C107.676 27.3984 107.559 27.375 107.441 27.3281C107.324 27.2578 107.207 27.1757 107.09 27.082C106.809 26.8476 106.668 26.6484 106.668 26.4843C106.691 26.4375 106.715 26.3671 106.738 26.2734C106.785 26.1796 106.809 26.0976 106.809 26.0273L106.984 24.8671C107.008 24.75 107.031 24.621 107.055 24.4804C107.078 24.3398 107.09 24.1992 107.09 24.0585C107.09 23.6132 107.078 23.2617 107.055 23.0039C107.055 22.7226 107.02 22.4296 106.949 22.125V22.0195C106.949 21.8554 107.02 21.7734 107.16 21.7734C107.301 21.7734 107.547 21.8789 107.898 22.0898C108.367 22.4179 108.602 22.6757 108.602 22.8632C108.602 22.9335 108.59 22.9921 108.566 23.039C108.543 23.0859 108.52 23.1328 108.496 23.1796C108.426 23.6015 108.391 23.8359 108.391 23.8828L108.215 25.746C108.215 25.7929 108.238 25.8515 108.285 25.9218C108.355 25.9687 108.426 25.9921 108.496 25.9921C109.059 25.9921 110.324 25.8515 112.293 25.5703C113.066 25.5 113.617 25.4179 113.945 25.3242C114.156 25.3007 114.332 25.2656 114.473 25.2187C114.637 25.1484 114.742 25.1132 114.789 25.1132C114.93 25.0664 115.023 25.0429 115.07 25.0429C115.281 25.0429 115.539 25.2304 115.844 25.6054ZM82.1289 15.2343L79.7383 15.9023L78.6836 16.1835C77.957 16.371 77.4766 16.4765 77.2422 16.5C76.9609 16.5 76.7031 16.4765 76.4688 16.4296C76.1641 16.3593 75.8242 16.207 75.4492 15.9726C75.0508 15.7382 74.7578 15.4101 74.5703 14.9882C74.6641 14.8476 74.8398 14.7656 75.0977 14.7421L75.9766 14.707C76.7031 14.6835 77.4766 14.6484 78.2969 14.6015C79.1172 14.5312 79.8555 14.4375 80.5117 14.3203L82.7617 13.9335C83.0898 13.1835 83.2891 12.7148 83.3594 12.5273L83.8164 11.1562C83.4414 11.1796 83.1484 11.2031 82.9375 11.2265C82.7266 11.25 82.375 11.2968 81.8828 11.3671C81.3906 11.4609 80.9922 11.5078 80.6875 11.5078C80.3125 11.5078 80.0195 11.4609 79.8086 11.3671C79.5273 11.25 79.3164 11.121 79.1758 10.9804L79.0352 10.664C79.0586 10.5 79.1758 10.4179 79.3867 10.4179L80.0547 10.3476C80.2188 10.3476 80.6172 10.3125 81.25 10.2421C81.8828 10.1718 82.4805 10.1132 83.043 10.0664L84.2383 9.92573C84.543 8.98823 84.7188 8.4023 84.7656 8.16792L85.0469 6.76167C84.1797 6.83198 83.3945 6.91401 82.6914 7.00776C81.9648 7.07808 81.4961 7.11323 81.2852 7.11323H80.7578C80.2891 7.11323 79.9375 7.06636 79.7031 6.97261C79.3984 6.83198 79.1758 6.66792 79.0352 6.48042L78.8945 6.12886L79.1406 5.95308H79.8789L80.8633 5.84761L82.9023 5.70698L85.293 5.35542L85.4336 3.45698V3.10542C85.4336 2.84761 85.4102 2.5312 85.3633 2.1562C85.3164 1.80464 85.2812 1.55854 85.2578 1.41792L85.1172 0.644482L85.4688 0.398389C85.7031 0.374951 85.9492 0.410107 86.207 0.503857C86.5352 0.644482 86.8633 0.796826 87.1914 0.960889C87.5195 1.12495 87.8008 1.32417 88.0352 1.55854C88.2695 1.79292 88.3867 2.02729 88.3867 2.26167L88.1406 2.75386C87.9766 3.01167 87.8477 3.30464 87.7539 3.63276L87.2617 5.07417L90.1445 4.6523L91.7266 4.30073C92.0078 4.25386 92.2656 4.2187 92.5 4.19526C92.8984 4.19526 93.3203 4.28901 93.7656 4.47651C94.1641 4.61714 94.3633 4.79292 94.3633 5.00386C94.3398 5.23823 94.2461 5.37886 94.082 5.42573L93.3789 5.63667C93.1445 5.68355 92.7461 5.75386 92.1836 5.84761L89.9336 6.19917C89.1367 6.31636 88.4688 6.39839 87.9297 6.44526L86.9805 6.55073C86.7227 7.4648 86.5703 8.0273 86.5234 8.23823L86.1367 9.64448L88.3164 9.25776C88.7852 9.18745 89.3242 9.08198 89.9336 8.94136C90.543 8.7773 91.0352 8.68355 91.4102 8.66011C91.7617 8.66011 92.043 8.68355 92.2539 8.73042C92.582 8.7773 92.8867 8.87105 93.168 9.01167L93.625 9.39839C93.625 9.58589 93.4609 9.72651 93.1328 9.82026C92.875 9.89058 92.5234 9.94917 92.0781 9.99605C91.6328 10.0429 91.0586 10.1132 90.3555 10.207L88.2109 10.5585L85.8555 10.9101C85.5273 11.8007 85.3281 12.3515 85.2578 12.5625L84.8711 13.6523C85.5742 13.582 86.1016 13.5234 86.4531 13.4765L90.0742 13.1601C90.7305 13.1132 91.4453 13.0195 92.2188 12.8789C92.9922 12.7617 93.6133 12.6445 94.082 12.5273L95.1367 12.246C95.6055 12.1523 95.9688 12.1054 96.2266 12.1054C96.5312 12.1054 96.8008 12.1523 97.0352 12.246C97.293 12.3398 97.668 12.4921 98.1602 12.7031C98.6523 12.914 98.9688 13.1367 99.1094 13.371L99.2148 13.9335C99.1211 14.121 98.9336 14.2265 98.6523 14.25L97.8789 14.2851L95.6992 14.2148C95.3477 14.2148 94.6914 14.2382 93.7305 14.2851L90.918 14.3554H89.6523L90.7773 15.1992L92.8867 16.9921C94.0117 17.9531 95.0195 18.7617 95.9102 19.4179C96.8008 20.0742 97.5391 20.5546 98.125 20.8593C98.7109 21.164 99.5664 21.5507 100.691 22.0195C101.816 22.4648 102.801 22.7929 103.645 23.0039L104.594 23.7421L103.855 23.9531L101.605 24.4101C100.668 24.5976 99.9414 24.6914 99.4258 24.6914C98.8164 24.621 98.2656 24.4218 97.7734 24.0937C97.2812 23.7656 96.8242 23.3789 96.4023 22.9335L93.6602 19.9804C92.3008 18.4804 91.2461 17.3671 90.4961 16.6406C89.793 15.914 89.2539 15.4335 88.8789 15.1992L87.9297 14.496C86.875 14.6132 86.2305 14.6835 85.9961 14.707L84.2734 14.9179C83.5703 16.2773 82.9961 17.2851 82.5508 17.9414C82.1055 18.5976 81.4961 19.3242 80.7227 20.121C79.9727 20.9648 79.1875 21.7031 78.3672 22.3359C77.5469 22.9687 76.7852 23.4843 76.082 23.8828C75.332 24.2812 74.5938 24.621 73.8672 24.9023C73.1406 25.1601 72.6602 25.3242 72.4258 25.3945L71.4062 25.2187L72.2852 24.6562L73.2695 24.0937C73.8789 23.7656 74.5469 23.3437 75.2734 22.8281C76 22.3359 76.7148 21.7734 77.418 21.1406C78.1211 20.5078 78.8828 19.7226 79.7031 18.7851C80.5469 17.8476 81.0977 17.1445 81.3555 16.6757L82.1289 15.2343ZM88.9844 30.3867L86.7344 30.5976C85.7031 30.6914 85.1055 30.7382 84.9414 30.7382L83.2539 30.7734L83.1133 31.3359C82.9727 31.7578 82.8086 31.9687 82.6211 31.9687C82.4336 31.9453 82.2461 31.7929 82.0586 31.5117C81.8477 31.207 81.7188 30.8437 81.6719 30.4218C81.6719 30.1171 81.6953 29.8007 81.7422 29.4726C81.7891 29.0273 81.8125 28.5117 81.8125 27.9257L81.6367 22.8632C81.5898 22.207 81.5195 21.7265 81.4258 21.4218C81.3555 21.1171 81.2734 20.8828 81.1797 20.7187L81.0742 20.4023C81.1211 20.2617 81.3438 20.1679 81.7422 20.121L82.7266 20.332L83.8516 20.1914C84.25 20.1445 84.7305 20.0625 85.293 19.9453L87.1914 19.5585C87.8477 19.4179 88.3164 19.3007 88.5977 19.207C88.8789 19.1367 89.1602 19.0429 89.4414 18.9257L90.1094 18.7148C90.3672 18.6914 90.5898 18.7148 90.7773 18.7851C91.0352 18.8789 91.3164 19.0312 91.6211 19.2421C91.9492 19.4531 92.2305 19.664 92.4648 19.875L92.8516 20.3671C92.8516 20.5312 92.8164 20.6835 92.7461 20.8242C92.6758 21.0117 92.6172 21.2109 92.5703 21.4218C92.5 21.6328 92.4648 21.832 92.4648 22.0195C92.418 22.207 92.3828 22.582 92.3594 23.1445V23.7421C92.3594 24.1406 92.3711 24.5742 92.3945 25.0429C92.418 25.6054 92.4648 26.1914 92.5352 26.8007L92.8164 28.5937C92.9102 29.2031 92.957 29.6601 92.957 29.9648C92.9102 30.5742 92.7344 31.1835 92.4297 31.7929C92.1016 32.4023 91.7852 32.7773 91.4805 32.9179L90.9531 33.0585C90.6953 33.0351 90.4492 32.8007 90.2148 32.3554C90.0039 31.9335 89.7695 31.5234 89.5117 31.125L88.9844 30.3867ZM83.3242 29.5781C84.3555 29.4609 85.1406 29.3671 85.6797 29.2968L87.5078 29.0507C88.1875 28.9335 88.6445 28.875 88.8789 28.875C89.2539 28.8984 89.5352 28.957 89.7227 29.0507L90.4609 29.4726L90.6367 25.0078C90.1211 25.125 89.7344 25.1953 89.4766 25.2187L87.0508 25.6757C85.9727 25.8632 85.2109 25.9804 84.7656 26.0273L84.3438 26.0625H83.9922L83.2539 25.8867L83.3242 29.5781ZM83.2539 24.9023C83.4883 24.9023 83.6992 24.8906 83.8867 24.8671C84.0742 24.8437 84.5664 24.7617 85.3633 24.621C86.207 24.457 86.8867 24.3046 87.4023 24.164C87.9648 24 88.3867 23.9179 88.668 23.9179C88.9258 23.9179 89.1602 23.9296 89.3711 23.9531C89.6758 24 90.0391 24.1054 90.4609 24.2695L90.6367 21.3164C90.6133 20.9414 90.5547 20.6953 90.4609 20.5781C90.3438 20.4609 90.1211 20.3906 89.793 20.3671C89.4883 20.3671 89.1602 20.3789 88.8086 20.4023L87.2617 20.4726C86.8867 20.5195 86.3477 20.6367 85.6445 20.8242C84.9414 20.9882 84.4492 21.1171 84.168 21.2109L83.5352 21.3515L83.3945 21.7031C83.418 21.8437 83.418 22.0429 83.3945 22.3007C83.3477 22.5351 83.3242 22.7343 83.3242 22.8984L83.2539 24.9023Z" fill="#333333"/>
<path d="M168.121 11.6835C167.957 11.6835 167.781 11.5781 167.594 11.3671C167.453 11.2031 167.359 11.0742 167.312 10.9804C167.266 10.8632 167.266 10.7109 167.312 10.5234L167.348 9.67964C167.371 9.51558 167.383 9.11714 167.383 8.48433V7.32417L166.328 7.81636L165.098 8.3437C164.793 8.46089 164.477 8.60151 164.148 8.76558C163.867 8.9062 163.621 8.97651 163.41 8.97651C163.246 8.95308 163.059 8.89448 162.848 8.80073C162.637 8.70698 162.473 8.62495 162.355 8.55464C162.098 8.39058 161.98 8.2148 162.004 8.0273L162.109 7.67573C162.109 7.48823 162.121 7.32417 162.145 7.18355L162.18 5.14448V3.24604C162.18 2.87104 162.156 2.55464 162.109 2.29683C162.062 2.01558 162.027 1.81636 162.004 1.69917C162.004 1.58198 162.039 1.49995 162.109 1.45308C162.133 1.42964 162.191 1.41792 162.285 1.41792C162.449 1.41792 162.766 1.52339 163.234 1.73433C163.633 1.92183 163.797 2.1562 163.727 2.43745C163.68 2.60151 163.633 2.84761 163.586 3.17573L163.48 7.2187C163.48 7.33589 163.492 7.42964 163.516 7.49995C163.562 7.54683 163.609 7.57026 163.656 7.57026C163.938 7.57026 164.277 7.48823 164.676 7.32417C165.426 7.0898 166.07 6.85542 166.609 6.62105L167.383 6.30464V3.98433C167.383 3.04683 167.324 2.14448 167.207 1.27729C167.184 1.20698 167.172 1.12495 167.172 1.0312C167.172 0.796826 167.266 0.679639 167.453 0.679639C167.477 0.679639 167.605 0.726514 167.84 0.820264C168.191 1.00776 168.449 1.17183 168.613 1.31245C168.777 1.45308 168.871 1.53511 168.895 1.55854C168.988 1.62886 169.035 1.69917 169.035 1.76948C169.035 1.81636 169.012 1.87495 168.965 1.94526C168.941 2.01558 168.918 2.07417 168.895 2.12104L168.789 3.17573L168.754 6.41011L168.789 9.53901C168.789 10.0781 168.754 10.5468 168.684 10.9453C168.566 11.4375 168.379 11.6835 168.121 11.6835ZM161.652 17.4492C161.395 17.4492 161.078 17.25 160.703 16.8515C160.422 16.5703 160.281 16.3593 160.281 16.2187C160.281 16.1484 160.328 16.1132 160.422 16.1132C160.516 16.0898 160.633 16.0781 160.773 16.0781L161.547 16.0429C161.992 16.0429 162.285 16.0312 162.426 16.0078C162.871 16.0078 163.246 15.996 163.551 15.9726C165.566 15.7851 166.926 15.6328 167.629 15.5156C167.98 15.4687 168.297 15.4218 168.578 15.375C168.859 15.3046 169.082 15.2695 169.246 15.2695C169.574 15.2695 169.902 15.4335 170.23 15.7617C170.488 16.0195 170.617 16.2304 170.617 16.3945C170.617 16.5351 170.535 16.6289 170.371 16.6757C170.254 16.6992 169.562 16.746 168.297 16.8164C167.594 16.8398 166.727 16.8984 165.695 16.9921C164.664 17.0859 163.762 17.1796 162.988 17.2734C162.848 17.2968 162.648 17.332 162.391 17.3789C162.133 17.4257 161.887 17.4492 161.652 17.4492ZM166.363 31.9687C165.637 31.9687 165.074 31.9453 164.676 31.8984C164.301 31.8515 163.984 31.7109 163.727 31.4765C163.281 31.1484 162.977 30.4335 162.812 29.332L162.707 28.207C162.707 27.9257 162.684 27.5742 162.637 27.1523C162.262 27.1992 161.992 27.246 161.828 27.2929C161.781 27.3164 161.699 27.3515 161.582 27.3984C161.488 27.4218 161.418 27.4335 161.371 27.4335C161.207 27.4335 161.055 27.3867 160.914 27.2929C160.773 27.1992 160.598 27.0234 160.387 26.7656C160.223 26.5546 160.141 26.414 160.141 26.3437C160.141 26.2734 160.223 26.2265 160.387 26.2031C160.551 26.1796 160.773 26.1679 161.055 26.1679C161.453 26.1679 161.969 26.121 162.602 26.0273L162.566 25.5351C162.566 24.5976 162.508 23.8007 162.391 23.1445L162.355 22.8984C162.355 22.5703 162.484 22.4414 162.742 22.5117C163.023 22.6054 163.281 22.7226 163.516 22.8632C163.703 22.957 163.832 23.0507 163.902 23.1445C163.973 23.2148 163.996 23.3203 163.973 23.4609L163.867 24.9726V25.8867L166.961 25.5703C166.961 25.4062 166.973 25.0195 166.996 24.4101C167.02 23.7773 167.02 23.3671 166.996 23.1796C166.996 22.9921 166.973 22.8164 166.926 22.6523C166.902 22.4648 166.879 22.3125 166.855 22.1953C166.855 22.0078 166.949 21.914 167.137 21.914C167.324 21.914 167.559 22.0195 167.84 22.2304C168.168 22.4414 168.379 22.6289 168.473 22.7929C168.59 22.957 168.613 23.1562 168.543 23.3906C168.426 23.7656 168.344 24.1875 168.297 24.6562C168.25 25.125 168.227 25.4062 168.227 25.5C168.508 25.4765 168.766 25.4414 169 25.3945C169.234 25.3476 169.387 25.3242 169.457 25.3242C169.645 25.2773 169.867 25.2539 170.125 25.2539C170.266 25.2773 170.465 25.4179 170.723 25.6757C170.934 25.957 171.039 26.1796 171.039 26.3437C171.039 26.5781 170.816 26.6718 170.371 26.625C169.973 26.5546 169.574 26.5195 169.176 26.5195C168.777 26.5195 168.438 26.5312 168.156 26.5546C168.086 27.3984 167.945 28.2304 167.734 29.0507C167.688 29.2382 167.605 29.4023 167.488 29.5429C167.371 29.6601 167.266 29.7187 167.172 29.7187C167.008 29.7187 166.902 29.6601 166.855 29.5429C166.832 29.4023 166.82 29.1914 166.82 28.9101C166.867 28.3007 166.891 27.539 166.891 26.625C166.258 26.6718 165.766 26.7187 165.414 26.7656C164.875 26.8828 164.371 26.9531 163.902 26.9765C163.879 27.9375 163.926 28.7929 164.043 29.5429C164.113 30.0351 164.254 30.375 164.465 30.5625C164.605 30.6796 164.77 30.75 164.957 30.7734C165.168 30.7968 165.379 30.8085 165.59 30.8085C165.801 30.8085 165.941 30.8085 166.012 30.8085C166.738 30.8085 167.418 30.7734 168.051 30.7031C168.238 30.6796 168.402 30.6328 168.543 30.5625C168.707 30.4921 168.824 30.457 168.895 30.457C169.105 30.457 169.316 30.5273 169.527 30.6679C169.738 30.8085 169.844 30.9726 169.844 31.1601C169.844 31.3476 169.738 31.4882 169.527 31.582C169.34 31.6757 169.035 31.7578 168.613 31.8281C167.863 31.9218 167.113 31.9687 166.363 31.9687ZM176.383 15.9726C176.664 15.9726 176.805 16.1015 176.805 16.3593C176.805 16.5 176.676 16.6992 176.418 16.957C175.715 17.8242 174.32 19.4765 172.234 21.914C172.07 22.125 171.918 22.2304 171.777 22.2304C171.66 22.2304 171.402 22.0546 171.004 21.7031C170.676 21.4218 170.512 21.1875 170.512 21C170.512 20.789 170.688 20.5898 171.039 20.4023C171.578 20.0976 172.387 19.4882 173.465 18.5742C174.543 17.6132 175.34 16.8515 175.855 16.289C176.066 16.0781 176.242 15.9726 176.383 15.9726ZM137.992 24.3398C137.875 24.1523 137.781 23.9882 137.711 23.8476C137.617 23.707 137.523 23.5195 137.43 23.2851V22.4414L138.379 22.6523L139.328 23.0742C139.75 23.2617 140.125 23.4492 140.453 23.6367C140.781 23.8476 141.051 24.164 141.262 24.5859C141.426 24.9375 141.508 25.3476 141.508 25.8164C141.484 26.2851 141.367 26.6484 141.156 26.9062C140.969 27.164 140.723 27.2929 140.418 27.2929C140.113 27.2929 139.797 27.1054 139.469 26.7304C139.281 26.5429 139.105 26.2734 138.941 25.9218L138.414 25.0429L134.617 27.7851L133.352 28.8398L132.508 29.6835L132.086 29.9648C131.852 29.9648 131.617 29.8125 131.383 29.5078C131.172 29.25 130.984 28.9335 130.82 28.5585C130.68 28.2539 130.609 27.9609 130.609 27.6796L130.82 27.0117C130.961 26.6367 131.066 26.25 131.137 25.8515C131.207 25.4296 131.266 24.9492 131.312 24.4101C131.359 23.8945 131.406 23.1445 131.453 22.1601L131.629 16.0429C131.629 15.7148 131.617 15.375 131.594 15.0234C131.547 14.6718 131.488 14.3789 131.418 14.1445C131.348 13.9101 131.242 13.6992 131.102 13.5117L130.82 13.2304L130.75 12.8789C130.844 12.7382 131.008 12.6679 131.242 12.6679C131.805 12.6679 132.25 12.7617 132.578 12.9492L133.105 13.2304C133.691 13.1601 134.172 13.0898 134.547 13.0195C134.945 12.9726 135.438 12.8789 136.023 12.7382C136.586 12.5976 137.02 12.4804 137.324 12.3867C137.629 12.2929 137.945 12.1757 138.273 12.0351C138.602 11.8945 138.859 11.8242 139.047 11.8242C139.234 11.8476 139.457 11.9179 139.715 12.0351L140.453 12.4218L140.91 12.7382C141.332 12.996 141.602 13.207 141.719 13.371L141.754 14.0039L141.402 14.5312C141.332 14.6718 141.227 14.9062 141.086 15.2343L140.91 15.7617L140.031 19.0312L139.68 20.4023C139.492 20.871 139.305 21.164 139.117 21.2812L138.73 21.4218H138.484L138.027 20.9648C137.395 21.0351 136.914 21.082 136.586 21.1054L134.16 21.457L133.281 21.5273L133.07 25.3945L133.211 26.1679C133.398 26.1679 133.609 26.121 133.844 26.0273L137.992 24.3398ZM133.281 20.3671C133.703 20.3437 134.031 20.3203 134.266 20.2968C134.5 20.2734 134.852 20.2031 135.32 20.0859C135.836 19.9687 136.281 19.875 136.656 19.8046C136.938 19.7578 137.195 19.7343 137.43 19.7343L138.098 19.8046L138.695 17.0976C138.109 17.1445 137.676 17.1914 137.395 17.2382L135.707 17.5195C135.215 17.6132 134.816 17.6601 134.512 17.6601L133.949 17.5898L133.422 17.414L133.281 20.3671ZM133.457 16.6757C133.902 16.6523 134.254 16.6171 134.512 16.5703C134.77 16.5234 135.203 16.4179 135.812 16.2539C136.375 16.0898 136.797 15.996 137.078 15.9726C137.477 15.9726 137.863 16.0429 138.238 16.1835L138.801 16.3945L138.977 15.3046C139.023 15 139.047 14.6601 139.047 14.2851C139.047 13.9101 138.988 13.664 138.871 13.5468C138.754 13.4296 138.59 13.371 138.379 13.371C138.145 13.3945 137.852 13.4531 137.5 13.5468C137.172 13.6171 136.633 13.7226 135.883 13.8632C135.109 14.0039 134.617 14.0742 134.406 14.0742L133.668 14.1093L133.457 16.6757ZM146.148 15.1992C146.055 15.5742 145.996 15.8554 145.973 16.0429C145.949 16.2304 145.914 16.5351 145.867 16.957C145.82 17.3789 145.797 17.7304 145.797 18.0117L145.691 25.1132C145.668 26.0976 145.586 27.246 145.445 28.5585L145.305 30.0703C145.211 30.9843 145.047 31.7695 144.812 32.4257C144.578 33.0585 144.367 33.375 144.18 33.375C144.016 33.3515 143.875 33.0117 143.758 32.3554C143.641 31.7226 143.57 30.9843 143.547 30.1406C143.523 29.5781 143.512 29.0156 143.512 28.4531V27.5742L143.652 18.3632C143.676 17.7539 143.688 17.2617 143.688 16.8867C143.688 16.5117 143.676 16.2539 143.652 16.1132C143.629 15.8085 143.594 15.457 143.547 15.0585C143.5 14.6601 143.418 14.332 143.301 14.0742L143.16 13.371L143.336 13.1601C143.547 13.1601 143.805 13.207 144.109 13.3007C144.719 13.4882 145.117 13.6406 145.305 13.7578L145.867 14.1093L147.59 13.7226C148.176 13.582 148.773 13.4179 149.383 13.2304L150.156 13.0195C150.531 12.9023 150.859 12.7734 151.141 12.6328L151.633 12.457C151.797 12.457 151.996 12.5273 152.23 12.6679C152.465 12.8085 152.711 12.9726 152.969 13.1601C153.25 13.3476 153.52 13.5585 153.777 13.7929C153.988 13.9804 154.059 14.2617 153.988 14.6367C153.801 14.8945 153.672 15.1289 153.602 15.3398C153.555 15.5507 153.508 15.832 153.461 16.1835C153.414 16.5585 153.391 16.9453 153.391 17.3437L153.18 21.1054C153.133 22.0429 153.062 22.7695 152.969 23.2851C152.898 23.8007 152.746 24.2578 152.512 24.6562C152.254 25.0546 151.961 25.371 151.633 25.6054L151 25.8867C150.812 25.8398 150.625 25.6992 150.438 25.4648C150.227 25.207 149.934 24.8789 149.559 24.4804C149.207 24.0585 148.867 23.6835 148.539 23.3554L147.906 22.7929L147.695 22.3007C147.836 22.2773 148 22.3007 148.188 22.371L148.996 22.6171C149.465 22.7812 149.828 22.875 150.086 22.8984C150.297 22.8984 150.473 22.8632 150.613 22.7929C150.824 22.6523 150.953 22.3476 151 21.8789C151.07 21.3632 151.117 20.871 151.141 20.4023L151.281 15.832C151.281 15.2929 151.258 14.9414 151.211 14.7773L151.07 14.496C150.93 14.3554 150.719 14.2851 150.438 14.2851C150.203 14.2851 149.805 14.332 149.242 14.4257L147.66 14.7421L146.148 15.1992ZM146.852 4.4062L151.281 3.52729C151.516 3.48042 151.773 3.41011 152.055 3.31636L152.688 3.17573C152.992 3.15229 153.25 3.16401 153.461 3.21089C153.742 3.2812 154.035 3.41011 154.34 3.59761L154.832 3.94917C154.855 4.08979 154.773 4.25386 154.586 4.44136C154.398 4.58198 154.129 4.68745 153.777 4.75776L152.477 5.00386C152.102 5.05073 151.574 5.12105 150.895 5.2148C150.215 5.28511 149.605 5.35542 149.066 5.42573C148.527 5.51948 148.164 5.56636 147.977 5.56636C147.602 5.56636 147.238 5.51948 146.887 5.42573L146.289 5.32026L145.27 6.72651C144.871 7.24214 144.391 7.76948 143.828 8.30855C143.219 8.87105 142.82 9.21089 142.633 9.32808L142 9.7148L141.578 9.85542L141.332 9.67964L141.578 9.29292L142.352 8.30855C142.68 7.91011 142.949 7.55855 143.16 7.25386C143.371 6.92573 143.617 6.51558 143.898 6.02339C144.203 5.5312 144.449 5.09761 144.637 4.72261C144.801 4.37105 144.953 4.01948 145.094 3.66792C145.234 3.29292 145.34 2.98823 145.41 2.75386C145.48 2.49604 145.562 2.23823 145.656 1.98042C145.703 1.69917 145.727 1.44136 145.727 1.20698L145.938 0.644482L146.184 0.539014C146.348 0.539014 146.535 0.585889 146.746 0.679639C147.027 0.796826 147.32 0.94917 147.625 1.13667C147.93 1.32417 148.164 1.52339 148.328 1.73433L148.539 2.1562L148.469 2.47261C148.352 2.58979 148.188 2.75386 147.977 2.96479C147.742 3.19917 147.531 3.43354 147.344 3.66792L146.852 4.4062ZM135.25 5.28511L136.234 5.10933C136.656 5.03901 137.324 4.86323 138.238 4.58198L138.766 4.4062L139.645 4.16011L140.172 4.26558C140.453 4.33589 140.664 4.39448 140.805 4.44136C140.945 4.51167 141.086 4.60542 141.227 4.72261L141.473 4.9687C141.496 5.13276 141.438 5.27339 141.297 5.39058C141.109 5.50776 140.805 5.61323 140.383 5.70698L139.539 5.91792C139.352 5.9648 138.883 6.03511 138.133 6.12886L136.938 6.30464C136.633 6.32808 136.387 6.3398 136.199 6.3398L135.742 6.30464L134.828 5.98823L133.773 7.2187C133.445 7.61714 133.07 8.01558 132.648 8.41401C132.227 8.83589 131.84 9.17573 131.488 9.43355C131.137 9.66792 130.762 9.9023 130.363 10.1367L129.168 10.5234C129.145 10.3593 129.203 10.207 129.344 10.0664L129.941 9.50386C130.293 9.17573 130.609 8.84761 130.891 8.51948C131.172 8.23823 131.512 7.81636 131.91 7.25386C132.309 6.69136 132.672 6.12886 133 5.56636C133.328 5.05073 133.609 4.58198 133.844 4.16011C134.055 3.73823 134.23 3.33979 134.371 2.96479C134.512 2.58979 134.582 2.21479 134.582 1.83979L134.863 1.31245C135.168 1.31245 135.496 1.41792 135.848 1.62886C136.199 1.81636 136.434 1.9687 136.551 2.08589C136.691 2.20308 136.82 2.33198 136.938 2.47261L137.148 3.17573C137.102 3.31636 136.984 3.44526 136.797 3.56245L136.41 3.80854L135.742 4.72261L135.25 5.28511ZM135.391 8.06245C135.648 8.01558 135.883 8.00386 136.094 8.0273L136.867 8.20308C137.078 8.27339 137.312 8.3437 137.57 8.41401C137.828 8.48433 138.039 8.5898 138.203 8.73042C138.391 8.87105 138.52 9.01167 138.59 9.1523C138.66 9.29292 138.695 9.50386 138.695 9.78511C138.695 10.1601 138.602 10.4414 138.414 10.6289C138.25 10.8164 138.039 10.9218 137.781 10.9453C137.57 10.9453 137.312 10.8164 137.008 10.5585C136.797 10.3945 136.516 10.1132 136.164 9.7148C135.812 9.3398 135.555 9.04683 135.391 8.83589C135.25 8.62495 135.25 8.36714 135.391 8.06245ZM147.414 6.9023L148.293 7.04292C148.926 7.18355 149.465 7.35933 149.91 7.57026C150.332 7.7812 150.648 8.0273 150.859 8.30855C151.047 8.5898 151.141 8.9648 151.141 9.43355C151.117 9.99605 150.918 10.3593 150.543 10.5234C150.238 10.5234 149.945 10.4296 149.664 10.2421C149.289 10.0312 148.926 9.72651 148.574 9.32808L147.695 8.23823L147.027 6.93745C147.191 6.89058 147.32 6.87886 147.414 6.9023Z" fill="#333333"/>
<path d="M30.0197 64.6445C29.7827 64.6445 29.6095 64.5625 29.5002 64.3984C29.3361 64.1615 29.172 63.9701 29.008 63.8242C28.8621 63.6784 28.5978 63.4779 28.215 63.2227L28.297 63.0859C29.1356 63.3776 29.728 63.5234 30.0744 63.5234C30.366 63.5234 30.6851 63.3594 31.0314 63.0312C31.396 62.6849 31.7059 62.1927 31.9611 61.5547C32.0887 61.263 32.1798 61.026 32.2345 60.8438C32.3075 60.6432 32.3621 60.4245 32.3986 60.1875V60.1328C32.3986 59.9688 32.3166 59.8867 32.1525 59.8867C31.9702 59.8867 31.6421 59.9414 31.1681 60.0508C30.9129 60.1237 30.5757 60.2331 30.1564 60.3789L29.9377 60.3242C29.9194 60.306 29.8739 60.2786 29.8009 60.2422C29.7463 60.1875 29.7007 60.1328 29.6642 60.0781C29.5731 59.987 29.5275 59.9232 29.5275 59.8867L29.5002 59.7773C29.5002 59.6497 29.564 59.5312 29.6916 59.4219C29.8374 59.3125 29.9194 59.2305 29.9377 59.1758C30.0835 59.0117 30.3752 58.6107 30.8127 57.9727C30.8491 57.9362 30.9129 57.8542 31.0041 57.7266C31.0952 57.5807 31.1408 57.4531 31.1408 57.3438C31.1408 57.2161 30.603 57.3073 29.5275 57.6172C28.4338 57.9453 27.8595 58.1094 27.8048 58.1094C27.6226 58.1094 27.4312 57.9544 27.2306 57.6445C27.0848 57.4987 27.0119 57.3802 27.0119 57.2891C27.0119 57.1615 27.1942 57.0885 27.5588 57.0703C27.978 57.0521 28.6252 56.9792 29.5002 56.8516C30.3934 56.724 30.922 56.6419 31.0861 56.6055L31.4689 56.4961C31.5236 56.4779 31.5874 56.4688 31.6603 56.4688C31.715 56.4688 31.797 56.5052 31.9064 56.5781C32.034 56.651 32.1434 56.7057 32.2345 56.7422C32.4715 56.8516 32.6082 56.9792 32.6447 57.125V57.207C32.6447 57.3711 32.5535 57.5443 32.3713 57.7266C32.2983 57.7995 32.1525 57.9544 31.9338 58.1914C31.715 58.4102 31.5783 58.556 31.5236 58.6289C31.4507 58.7018 31.3413 58.8203 31.1955 58.9844C31.0496 59.1484 30.9676 59.2487 30.9494 59.2852C30.9494 59.3398 30.9676 59.3763 31.0041 59.3945C31.0405 59.4128 31.0861 59.4219 31.1408 59.4219C31.6877 59.349 32.1343 59.2669 32.4806 59.1758L32.9181 59.0391C33.1187 59.0391 33.2645 59.112 33.3556 59.2578C33.5197 59.4401 33.6291 59.5951 33.6838 59.7227C33.7384 59.832 33.7384 59.9414 33.6838 60.0508C33.6655 60.1055 33.6382 60.1602 33.6017 60.2148C33.5653 60.2695 33.5288 60.3333 33.4924 60.4062C33.4741 60.4427 33.4377 60.5156 33.383 60.625C33.3283 60.7344 33.2918 60.8438 33.2736 60.9531C32.9455 61.901 32.5535 62.7122 32.0978 63.3867C31.8426 63.6966 31.5601 63.9609 31.2502 64.1797C30.8309 64.4896 30.4207 64.6445 30.0197 64.6445ZM33.1642 71.9727C32.8908 71.9727 32.6265 71.7721 32.3713 71.3711C32.0431 70.8607 31.7241 70.4414 31.4142 70.1133L30.7033 69.375C30.3205 69.8125 29.9832 70.1589 29.6916 70.4141C29.4181 70.6693 29.0718 70.9154 28.6525 71.1523C27.8687 71.6081 27.2124 71.8359 26.6838 71.8359C26.5562 71.8359 26.4923 71.7904 26.4923 71.6992C26.4923 71.6445 26.6655 71.526 27.0119 71.3438C27.3582 71.1615 27.6864 70.9427 27.9963 70.6875C28.7801 70.0312 29.4272 69.3568 29.9377 68.6641C29.8283 68.5547 29.2814 68.0807 28.297 67.2422C28.1694 67.151 27.978 66.9961 27.7228 66.7773C27.6681 66.7409 27.5588 66.6589 27.3947 66.5312C27.2306 66.4036 27.1486 66.3125 27.1486 66.2578C27.1486 66.1667 27.1942 66.1211 27.2853 66.1211C27.5588 66.1211 27.9963 66.3125 28.5978 66.6953C29.1994 67.0599 29.8283 67.4974 30.4845 68.0078C30.7397 67.6979 30.9403 67.4062 31.0861 67.1328C31.2319 66.8594 31.396 66.5221 31.5783 66.1211C31.6694 65.9206 31.7241 65.7474 31.7423 65.6016C31.7606 65.4375 31.7697 65.3372 31.7697 65.3008C31.7697 65.1003 31.8244 65 31.9338 65C32.0614 65 32.2345 65.1003 32.4533 65.3008C32.8361 65.6654 33.0275 65.9115 33.0275 66.0391C33.0275 66.112 32.9819 66.194 32.8908 66.2852C32.672 66.5039 32.4715 66.7956 32.2892 67.1602C32.1798 67.3789 31.9793 67.6888 31.6877 68.0898C31.5965 68.1992 31.5236 68.2995 31.4689 68.3906C31.4142 68.4818 31.3595 68.5638 31.3048 68.6367C31.7241 68.9466 32.3439 69.4753 33.1642 70.2227C33.3647 70.4049 33.4924 70.5781 33.547 70.7422C33.62 70.888 33.6564 71.0885 33.6564 71.3438C33.6564 71.526 33.6108 71.681 33.5197 71.8086C33.4285 71.918 33.3101 71.9727 33.1642 71.9727ZM27.1213 80.1484C26.8478 80.1484 26.6382 80.0755 26.4923 79.9297C26.3283 79.7656 26.2463 79.6198 26.2463 79.4922C26.2463 79.3646 26.3192 79.2279 26.465 79.082C26.4832 79.0638 26.5835 78.918 26.7658 78.6445C27.1668 78.0065 27.6226 77.1953 28.133 76.2109C28.6616 75.2083 28.9897 74.5247 29.1173 74.1602C29.2267 73.8138 29.327 73.513 29.4181 73.2578C29.5275 73.0026 29.6187 72.875 29.6916 72.875C29.8192 72.875 29.9285 72.9206 30.0197 73.0117C30.1108 73.0846 30.202 73.194 30.2931 73.3398C30.4025 73.4674 30.4845 73.5586 30.5392 73.6133C30.6668 73.7591 30.7306 73.8958 30.7306 74.0234C30.7306 74.1146 30.6942 74.2057 30.6213 74.2969C30.5483 74.388 30.5028 74.4518 30.4845 74.4883L29.2814 76.5117C28.9715 77.0768 28.5614 77.7786 28.0509 78.6172C27.978 78.7083 27.9416 78.7995 27.9416 78.8906C27.9416 78.9635 28.0236 79 28.1877 79C28.534 79 29.1812 78.9635 30.1291 78.8906C31.077 78.7995 31.715 78.7266 32.0431 78.6719C32.5171 78.6172 32.8452 78.5625 33.0275 78.5078C33.228 78.4531 33.5197 78.5898 33.9025 78.918C34.3582 79.3008 34.4585 79.5469 34.2033 79.6562C34.0575 79.7292 33.7749 79.7656 33.3556 79.7656H32.2619C32.0249 79.7656 31.6512 79.7839 31.1408 79.8203C30.8309 79.8203 30.4845 79.8294 30.1017 79.8477C29.7189 79.8659 29.3999 79.8841 29.1447 79.9023C28.853 79.9206 28.2879 79.9753 27.4494 80.0664L27.1213 80.1484ZM38.7424 68.0898C38.9611 68.0898 39.0705 68.1901 39.0705 68.3906C39.0705 68.5 38.9702 68.6549 38.7697 68.8555C38.2228 69.5299 37.1382 70.8151 35.5158 72.7109C35.3882 72.875 35.2697 72.957 35.1603 72.957C35.0692 72.957 34.8687 72.8203 34.5588 72.5469C34.3035 72.3281 34.1759 72.1458 34.1759 72C34.1759 71.8359 34.3127 71.681 34.5861 71.5352C35.0054 71.2982 35.6343 70.8242 36.4728 70.1133C37.3114 69.3659 37.9312 68.7734 38.3322 68.3359C38.4963 68.1719 38.633 68.0898 38.7424 68.0898ZM8.41813 72.8477C8.63688 72.957 8.81006 73.0664 8.93766 73.1758L9.15641 73.5039C9.15641 73.6497 9.12907 73.7956 9.07438 73.9414C9.01969 74.0872 8.97412 74.2422 8.93766 74.4062C8.9012 74.5703 8.87386 74.7253 8.85563 74.8711V75.6094L8.82829 77.7148C8.82829 77.8424 8.8374 77.9701 8.85563 78.0977L9.15641 78.4531L10.1955 77.9883L12.8478 77.0039C12.8843 77.1315 12.7931 77.2682 12.5744 77.4141L10.8244 78.7539C10.3869 79.082 10.0223 79.3737 9.73063 79.6289C9.42074 79.8841 9.17464 80.112 8.99235 80.3125L8.30876 81.0508L8.03532 81.2695C7.90771 81.2695 7.78923 81.2148 7.67985 81.1055C7.55225 81.0326 7.43376 80.8776 7.32438 80.6406C7.19678 80.4036 7.10563 80.2031 7.05094 80.0391V79.5195C7.16032 79.2643 7.23324 79.0638 7.26969 78.918L7.40641 78.3164C7.44287 78.0977 7.47021 77.8607 7.48844 77.6055V75.3633C7.48844 74.4154 7.44287 73.832 7.35173 73.6133L7.13298 72.957L6.72282 72.7656C6.57699 72.9661 6.44938 73.2122 6.34001 73.5039C6.24886 73.7773 6.06657 74.1966 5.79313 74.7617C5.53792 75.3451 5.24626 75.8828 4.91813 76.375C4.59001 76.8854 4.23454 77.3229 3.85173 77.6875C3.46891 78.0703 3.04053 78.444 2.56657 78.8086C2.07438 79.1732 1.67334 79.4193 1.36344 79.5469L0.515788 79.7383C0.497559 79.6107 0.534017 79.5104 0.625163 79.4375L1.09001 79.082C1.2723 78.9727 1.56396 78.7083 1.96501 78.2891C2.36605 77.888 2.67594 77.5599 2.89469 77.3047C3.11344 77.0495 3.37777 76.6758 3.68766 76.1836C4.01579 75.6914 4.29834 75.1992 4.53532 74.707C4.79053 74.1966 4.99105 73.6953 5.13688 73.2031C5.28271 72.7109 5.41943 72.1549 5.54704 71.5352C5.67464 70.9154 5.75667 70.3867 5.79313 69.9492C5.82959 69.6211 5.84782 69.3294 5.84782 69.0742L5.79313 68.0078C5.70199 67.862 5.61084 67.7344 5.51969 67.625L5.35563 67.3789L5.38298 67.1328C5.49235 67.0781 5.63818 67.0508 5.82048 67.0508H6.39469C6.61344 67.0508 6.99626 67.0326 7.54313 66.9961L10.3869 66.75C11.0431 66.6953 11.6629 66.6315 12.2463 66.5586L13.9142 66.3398C14.4429 66.2669 14.8439 66.1849 15.1174 66.0938L15.5822 65.957C15.7645 65.957 15.9468 65.9753 16.1291 66.0117L16.5666 66.1484C16.8765 66.2396 17.0861 66.3398 17.1955 66.4492L17.2502 66.832C17.1226 66.9049 17.0041 66.9505 16.8947 66.9688L15.7463 67.1328C14.9624 67.2604 14.1056 67.3607 13.1759 67.4336C12.228 67.5065 11.1343 67.5977 9.89469 67.707L7.48844 67.8984L7.70719 68.3086C7.72542 68.418 7.68896 68.5547 7.59782 68.7188C7.5249 68.8828 7.47021 69.0286 7.43376 69.1562L7.32438 69.5938C7.79834 69.5755 8.22673 69.5573 8.60954 69.5391C8.99235 69.5026 9.65772 69.4023 10.6056 69.2383C11.5535 69.056 12.2463 68.9375 12.6838 68.8828C13.1213 68.8099 13.4858 68.7096 13.7775 68.582L14.297 68.3906C14.4793 68.3724 14.6799 68.3906 14.8986 68.4453C15.1174 68.5 15.3088 68.5547 15.4728 68.6094C15.6187 68.6641 15.7645 68.737 15.9103 68.8281L15.9377 69.3203L15.2541 69.457L9.84001 70.3047C9.51188 70.3594 9.20199 70.4232 8.91032 70.4961L8.39079 70.5781C8.17204 70.5781 7.8986 70.5234 7.57048 70.4141L7.18766 70.2773L6.99626 71.0977L6.77751 72.1094L15.09 71.0703C15.6187 71.0156 16.0835 70.9336 16.4845 70.8242C16.8674 70.7148 17.1317 70.6602 17.2775 70.6602C17.4233 70.6602 17.5874 70.6966 17.7697 70.7695C17.952 70.8424 18.1252 70.9062 18.2892 70.9609C18.4533 71.0339 18.6447 71.1341 18.8634 71.2617L19.1642 71.5352L19.1095 71.7812C19.0184 71.8724 18.8452 71.918 18.59 71.918L18.0158 71.9453C17.2319 71.9635 16.1838 72.0273 14.8713 72.1367C13.5588 72.2461 12.5379 72.3555 11.8088 72.4648L9.70329 72.7383L8.52751 72.8477H8.41813ZM8.69157 59.5586C8.65511 59.2305 8.62777 58.9661 8.60954 58.7656C8.59131 58.5651 8.56397 58.3737 8.52751 58.1914C8.47282 58.0273 8.3999 57.8268 8.30876 57.5898L8.00798 56.8789C8.06266 56.7695 8.19938 56.6966 8.41813 56.6602H8.66423C8.88298 56.6966 9.13818 56.7604 9.42985 56.8516C9.70329 56.9427 9.91292 57.043 10.0588 57.1523L10.2502 57.3984C10.2684 57.526 10.241 57.7266 10.1681 58C10.1134 58.1641 10.077 58.4648 10.0588 58.9023V59.3945C10.7332 59.3216 11.1343 59.276 11.2619 59.2578L12.6291 59.0117V58.2734C12.6291 58.1458 12.62 57.918 12.6017 57.5898C12.5835 57.2617 12.5379 56.9883 12.465 56.7695L12.3556 56.4141L12.4377 56.1953C12.5288 56.1042 12.6655 56.0586 12.8478 56.0586C13.0119 56.0768 13.2489 56.1315 13.5588 56.2227C13.8504 56.332 14.0965 56.4596 14.297 56.6055C14.4976 56.7695 14.5978 56.9518 14.5978 57.1523L14.4338 57.4805C14.3244 57.6628 14.2515 57.8359 14.215 58L14.1056 58.7109C14.6343 58.6016 15.0171 58.5104 15.2541 58.4375C15.5093 58.3646 15.7918 58.2643 16.1017 58.1367C16.4116 58.0273 16.6577 57.9635 16.84 57.9453C17.0223 57.9453 17.2137 57.9909 17.4142 58.082C17.6147 58.1549 17.8244 58.2552 18.0431 58.3828C18.2619 58.4922 18.4715 58.6107 18.672 58.7383C18.8726 58.8841 19.0275 59.0299 19.1369 59.1758L19.2736 59.5586C19.2554 59.668 19.1916 59.7773 19.0822 59.8867L18.7267 60.4062L18.4533 60.8164C18.3986 60.9258 18.2983 61.181 18.1525 61.582L17.4416 63.5781C17.1499 64.362 16.9403 64.8268 16.8127 64.9727C16.6851 65.1185 16.5028 65.2461 16.2658 65.3555L16.0197 65.3281C15.8556 65.237 15.728 65.0911 15.6369 64.8906L6.91423 65.7656L6.61344 65.9297L6.39469 65.8477C6.28532 65.7018 6.2124 65.5742 6.17594 65.4648C6.13949 65.3555 6.04834 64.9089 5.90251 64.125L5.46501 61.5273C5.39209 61.1263 5.2736 60.8346 5.10954 60.6523L4.56266 60.0508L4.61735 59.668C4.81787 59.6497 5.03662 59.6497 5.2736 59.668L6.06657 59.75L8.63688 59.5586H8.69157ZM8.96501 61.8828L8.80094 60.3242L6.61344 60.4883L6.77751 62.1562L8.96501 61.8828ZM6.88688 63.0039L7.13298 64.7266L9.26579 64.5352L9.07438 62.8398L6.88688 63.0039ZM10.1134 60.1875L10.1681 61.7461L12.547 61.4453L12.6291 59.832C11.9181 59.9232 11.4989 59.9779 11.3713 59.9961L10.1134 60.1875ZM10.3322 64.3984L12.4377 64.125L12.465 62.457L10.2502 62.7305L10.3322 64.3984ZM13.4494 63.9062L14.5978 63.7695C14.8895 63.7331 15.0991 63.7148 15.2267 63.7148L15.6095 63.9062L16.4025 61.8555L15.8556 61.9648L13.6955 62.293L13.4494 63.9062ZM13.8322 61.1992C14.1968 61.1263 14.5158 61.0716 14.7892 61.0352C14.9897 60.9987 15.2085 60.9805 15.4455 60.9805L16.0197 61.1172L16.5666 61.2539L16.7853 60.3242C16.84 60.0872 16.8582 59.8685 16.84 59.668C16.8035 59.5221 16.6395 59.3854 16.3478 59.2578C16.1291 59.2396 15.9285 59.2487 15.7463 59.2852L14.0509 59.6133L13.8322 61.1992ZM15.09 75.3633L15.8009 74.5977C16.0015 74.3789 16.1838 74.1602 16.3478 73.9414C16.5301 73.7227 16.6668 73.5039 16.758 73.2852L16.9494 72.793L17.2502 72.5195C17.396 72.5013 17.5509 72.5469 17.715 72.6562L18.1252 72.957C18.3621 73.1211 18.5535 73.2852 18.6994 73.4492L18.8634 73.832C18.827 73.9596 18.7541 74.0508 18.6447 74.1055C18.5353 74.1419 18.353 74.1966 18.0978 74.2695C17.8426 74.3424 17.633 74.4336 17.4689 74.543L15.3908 75.6094C15.7189 75.9193 16.0015 76.1654 16.2384 76.3477C16.4937 76.5482 16.9038 76.8307 17.4689 77.1953C18.034 77.5781 18.5353 77.8789 18.9728 78.0977C19.4103 78.3346 19.7931 78.5169 20.1213 78.6445L21.3517 79.0547L22.7463 79.4648L23.3478 79.6289L23.5119 80.0391L22.7463 80.2578C22.2176 80.3854 21.853 80.4766 21.6525 80.5312C21.4338 80.5859 21.1147 80.6497 20.6955 80.7227C20.2762 80.7956 19.9207 80.8411 19.6291 80.8594C19.4285 80.8594 19.2736 80.832 19.1642 80.7773C19.0184 80.7409 18.827 80.6315 18.59 80.4492C18.3713 80.2669 18.0978 79.9935 17.7697 79.6289L16.5119 78.3164L15.2814 77.0039C14.3517 75.9831 13.8231 75.418 13.6955 75.3086C13.5679 75.1992 13.2853 74.9805 12.8478 74.6523C12.4103 74.306 12.0731 74.0964 11.8361 74.0234L11.3439 73.668C11.3621 73.5586 11.5171 73.4766 11.8088 73.4219C12.0822 73.4036 12.3283 73.4401 12.547 73.5312C12.7476 73.6224 13.0119 73.7956 13.34 74.0508L15.09 75.3633Z" fill="#333333"/>
<path d="M72.84 67.9531C72.5483 67.9531 72.366 67.8711 72.2931 67.707C72.202 67.4883 72.1108 67.306 72.0197 67.1602C71.9285 66.9961 71.7645 66.8047 71.5275 66.5859L71.5822 66.4766C72.2384 66.7135 72.6668 66.832 72.8673 66.832C73.0132 66.832 73.1226 66.8047 73.1955 66.75C73.2684 66.6953 73.3869 66.5677 73.5509 66.3672C73.7879 66.112 74.0067 65.7201 74.2072 65.1914C74.4806 64.4076 74.6538 63.5964 74.7267 62.7578V62.6758C74.7267 62.5664 74.7085 62.4935 74.672 62.457C74.4351 62.457 73.8061 62.5117 72.7853 62.6211C72.2202 64.0247 71.564 65.1823 70.8166 66.0938C70.0874 66.987 69.422 67.4336 68.8205 67.4336C68.6746 67.4336 68.6017 67.3789 68.6017 67.2695C68.6017 67.2331 68.784 67.0234 69.1486 66.6406C69.5132 66.2578 69.9142 65.7565 70.3517 65.1367C70.8075 64.4987 71.2358 63.7148 71.6369 62.7852C71.5457 62.7852 71.2814 62.8034 70.8439 62.8398C70.4064 62.8763 70.0327 62.9401 69.7228 63.0312C69.577 63.1406 69.422 63.1589 69.258 63.0859C69.258 63.0859 69.2397 63.0768 69.2033 63.0586C69.1668 63.0404 69.1304 63.013 69.0939 62.9766C68.9663 62.9036 68.8569 62.8125 68.7658 62.7031C68.6929 62.5755 68.6564 62.457 68.6564 62.3477C68.6564 62.293 68.702 62.2201 68.7931 62.1289L69.1213 61.6914C69.2306 61.5456 69.3309 61.3359 69.422 61.0625C69.5132 60.7708 69.5588 60.5247 69.5588 60.3242C69.5588 60.1966 69.5496 60.1146 69.5314 60.0781C69.5132 60.0417 69.5041 59.9961 69.5041 59.9414C69.5041 59.8503 69.5496 59.8047 69.6408 59.8047C69.7502 59.8047 69.9051 59.8685 70.1056 59.9961C70.1603 60.0326 70.2606 60.1055 70.4064 60.2148C70.5705 60.306 70.6616 60.4154 70.6798 60.543C70.6798 60.6706 70.6069 60.8802 70.4611 61.1719L70.1056 61.8008C70.0692 61.8555 70.0509 61.9193 70.0509 61.9922C70.0509 62.0469 70.0692 62.0924 70.1056 62.1289C70.1603 62.1471 70.2241 62.1471 70.297 62.1289L71.9377 61.9102C72.12 61.4362 72.2658 60.9349 72.3752 60.4062V60.2422V59.7773C72.3752 59.5768 72.4298 59.4948 72.5392 59.5312C72.7762 59.5859 72.9676 59.6589 73.1134 59.75C73.3869 59.9141 73.5236 60.0508 73.5236 60.1602C73.5236 60.2513 73.4871 60.4062 73.4142 60.625C73.3595 60.8255 73.314 60.9805 73.2775 61.0898C73.2593 61.1628 73.1772 61.3997 73.0314 61.8008C73.0861 61.8008 73.4233 61.7643 74.0431 61.6914L74.3166 61.6367C74.3713 61.6367 74.4715 61.6185 74.6173 61.582C74.6538 61.5638 74.6994 61.5547 74.7541 61.5547C74.9728 61.5547 75.1095 61.5638 75.1642 61.582C75.2371 61.6003 75.3465 61.6549 75.4923 61.7461C75.6564 61.8555 75.7658 61.9648 75.8205 62.0742C75.8752 62.1836 75.8934 62.3112 75.8752 62.457L75.7111 63.3594L75.5197 64.3438C75.5197 64.4167 75.4559 64.6536 75.3283 65.0547C75.2007 65.4557 75.0548 65.8112 74.8908 66.1211C74.5809 66.7409 74.2163 67.2057 73.797 67.5156C73.4325 67.8073 73.1134 67.9531 72.84 67.9531ZM69.2853 74.1602C69.0848 74.1602 68.8387 74.0052 68.547 73.6953C68.3283 73.4766 68.2189 73.3125 68.2189 73.2031C68.2189 73.1484 68.2554 73.1211 68.3283 73.1211C68.4012 73.1029 68.4923 73.0938 68.6017 73.0938L69.2033 73.0664C69.5496 73.0664 69.7775 73.0573 69.8869 73.0391C70.2332 73.0391 70.5249 73.0299 70.7619 73.0117C72.3296 72.8659 73.3869 72.7474 73.9338 72.6562C74.2072 72.6198 74.4533 72.5833 74.672 72.5469C74.8908 72.4922 75.064 72.4648 75.1916 72.4648C75.4468 72.4648 75.702 72.5924 75.9572 72.8477C76.1577 73.0482 76.258 73.2122 76.258 73.3398C76.258 73.4492 76.1942 73.5221 76.0666 73.5586C75.9754 73.5768 75.4377 73.6133 74.4533 73.668C73.9064 73.6862 73.2319 73.7318 72.4298 73.8047C71.6278 73.8776 70.9259 73.9505 70.3244 74.0234C70.215 74.0417 70.0601 74.069 69.8595 74.1055C69.659 74.1419 69.4676 74.1602 69.2853 74.1602ZM77.2423 67.2695C77.3335 67.2695 77.4702 67.3333 77.6525 67.4609C77.6343 67.4974 77.6707 67.5703 77.7619 67.6797C77.853 67.7708 77.9168 67.8346 77.9533 67.8711C78.0444 67.9622 78.1356 68.0716 78.2267 68.1992C78.3361 68.3268 78.4546 68.4635 78.5822 68.6094C78.9103 68.9557 79.6668 69.8581 80.8517 71.3164C81.0522 71.6081 81.1525 71.7812 81.1525 71.8359C81.1525 72.0182 81.0431 72.1094 80.8244 72.1094C80.6968 72.1094 80.5601 72.0182 80.4142 71.8359C80.0679 71.4714 79.4481 70.8971 78.5548 70.1133C77.8621 69.4753 77.2332 68.9831 76.6681 68.6367C76.3947 68.5091 76.258 68.3633 76.258 68.1992C76.258 68.0716 76.3947 67.8893 76.6681 67.6523C76.9233 67.3971 77.1147 67.2695 77.2423 67.2695ZM47.3009 60.3789C47.1187 60.306 46.9546 60.2148 46.8088 60.1055L46.6994 59.75C46.8088 59.6589 46.9364 59.6042 47.0822 59.5859L48.5861 59.4219L56.3791 58.3555C57.2358 58.2461 57.9832 58.1367 58.6213 58.0273L60.0978 57.7539C60.59 57.681 60.9455 57.6172 61.1642 57.5625C61.4012 57.526 61.5926 57.4987 61.7384 57.4805C61.9572 57.4805 62.1942 57.526 62.4494 57.6172C62.7046 57.6901 62.9325 57.7904 63.133 57.918C63.3335 58.0273 63.4976 58.1641 63.6252 58.3281L63.7619 58.6836C63.7254 58.8294 63.5431 58.9206 63.215 58.957L61.7384 59.0117L58.1838 59.2305C58.0744 59.2487 57.3999 59.3216 56.1603 59.4492C54.9207 59.5951 54.228 59.6771 54.0822 59.6953L49.5978 60.543L49.7892 60.9258C49.7345 61.0716 49.6707 61.2266 49.5978 61.3906C49.5249 61.5547 49.4611 61.7096 49.4064 61.8555L49.3517 62.2109C49.3153 62.4115 49.2879 62.6029 49.2697 62.7852L49.1056 64.1523L48.8322 66.0938C48.6864 67.1328 48.5588 67.9076 48.4494 68.418C48.3582 68.9284 48.2306 69.5026 48.0666 70.1406C47.8843 70.7786 47.6291 71.5807 47.3009 72.5469C46.9728 73.513 46.6447 74.306 46.3166 74.9258C45.9884 75.5456 45.6239 76.1107 45.2228 76.6211C44.8218 77.1315 44.4754 77.5234 44.1838 77.7969L43.4728 78.4258L42.9259 78.6172L43.1447 78.1797L43.6095 77.4961C43.8647 77.0951 44.1291 76.6576 44.4025 76.1836C44.6759 75.7096 44.9676 75.1263 45.2775 74.4336C45.5692 73.7409 45.8244 73.0846 46.0431 72.4648C46.2437 71.8268 46.4351 71.1159 46.6174 70.332C46.7996 69.5299 46.9637 68.7188 47.1095 67.8984C47.2736 67.0781 47.383 66.3581 47.4377 65.7383C47.5106 65.1185 47.5744 64.5078 47.6291 63.9062C47.6655 63.3047 47.6929 62.7578 47.7111 62.2656C47.7111 61.9193 47.702 61.6732 47.6838 61.5273C47.6473 61.1992 47.5744 60.944 47.465 60.7617L47.3009 60.3789ZM52.1134 65.5469C51.8218 65.5833 51.5575 65.6198 51.3205 65.6562L50.883 65.7109C50.6825 65.7292 50.5093 65.7383 50.3634 65.7383C50.1265 65.7383 49.9259 65.7109 49.7619 65.6562L49.3791 65.4648L49.4338 65.2461C49.5249 65.1732 49.7072 65.1094 49.9806 65.0547L52.4963 64.6445C52.4598 64.1341 52.4416 63.8151 52.4416 63.6875L52.2775 62.9219L51.4572 63.2227C51.202 63.2956 50.965 63.3685 50.7463 63.4414L50.0353 63.332L50.7463 62.9492L51.3478 62.6211L52.3322 62.0742L53.0978 61.582C53.3166 61.4362 53.4897 61.2904 53.6174 61.1445C53.745 61.0352 53.8452 60.8984 53.9181 60.7344L54.1642 60.4336C54.2736 60.4154 54.4103 60.4336 54.5744 60.4883L55.2033 60.7891C55.4038 60.8802 55.5588 60.9987 55.6681 61.1445L55.7502 61.5273L55.3674 61.6914C55.1304 61.7643 54.939 61.8372 54.7931 61.9102L53.9728 62.293L53.2072 62.6211C53.4442 62.7305 53.6265 62.8307 53.7541 62.9219C53.8817 63.0312 53.9546 63.1589 53.9728 63.3047L53.8634 63.8516L53.7541 64.3711C54.1187 64.2982 54.3921 64.2617 54.5744 64.2617C54.7749 64.2617 54.9937 64.2799 55.2306 64.3164C55.4494 64.3711 55.6134 64.4349 55.7228 64.5078L55.8322 64.7266C55.8322 64.8724 55.6134 64.9727 55.1759 65.0273L53.6447 65.2461V66.0117C53.8634 66.0846 54.1187 66.1576 54.4103 66.2305C54.702 66.3034 54.939 66.3763 55.1213 66.4492C55.3035 66.5221 55.4585 66.6224 55.5861 66.75C55.7319 66.8776 55.8322 67.0872 55.8869 67.3789L55.8595 67.707C55.7684 67.8893 55.6499 67.9987 55.5041 68.0352C55.3765 68.0352 55.2671 67.9987 55.1759 67.9258C55.0666 67.8529 54.939 67.7253 54.7931 67.543L54.0275 66.7773L53.6447 66.3945L53.6174 68.8008L53.6447 69.9219C53.6447 70.3047 53.5627 70.6237 53.3986 70.8789L53.0705 71.2617C52.9429 71.2617 52.8244 71.2161 52.715 71.125C52.5692 70.9974 52.4416 70.806 52.3322 70.5508L52.1681 70.0859C52.1681 69.9219 52.1864 69.7122 52.2228 69.457C52.2957 69.2018 52.3504 68.8737 52.3869 68.4727L52.4963 67.3242C52.3504 67.4701 52.1864 67.6523 52.0041 67.8711L51.2658 68.582C50.9559 68.8737 50.6369 69.1289 50.3088 69.3477L49.5431 69.7852L48.9689 70.0586L48.4767 70.0312L48.8322 69.6758L49.215 69.3203L49.9806 68.582C50.1994 68.3451 50.5184 67.9622 50.9377 67.4336C51.3569 66.9049 51.603 66.5586 51.6759 66.3945L52.1134 65.5469ZM59.0861 65.0547L58.1017 65.3281C57.9012 65.3828 57.7189 65.4466 57.5549 65.5195L57.2541 65.6289C57.09 65.6289 56.9259 65.6016 56.7619 65.5469L56.4338 65.4375C56.2879 65.3464 56.1512 65.1914 56.0236 64.9727L56.4338 64.8359L59.3322 64.2617V63.2773C59.3322 62.9128 59.2866 62.5846 59.1955 62.293C58.8674 62.293 58.5575 62.3385 58.2658 62.4297C57.9924 62.5026 57.7463 62.5573 57.5275 62.5938L56.9806 62.7031L56.5158 62.5664L57.09 62.2656L58.1017 61.7734C58.3569 61.6458 58.6942 61.4544 59.1134 61.1992C59.5509 60.9622 59.87 60.7526 60.0705 60.5703C60.271 60.3698 60.4168 60.1966 60.508 60.0508L60.8361 59.8047C61.1825 59.8229 61.4741 59.8776 61.7111 59.9688C61.9481 60.0599 62.1395 60.1693 62.2853 60.2969L62.5041 60.9258C62.4129 60.9987 62.2853 61.0534 62.1213 61.0898C61.939 61.1081 61.7476 61.1628 61.547 61.2539L60.8634 61.5273L60.3713 61.7461C60.5353 61.8555 60.6629 61.9648 60.7541 62.0742C60.827 62.1836 60.8726 62.3203 60.8908 62.4844C60.8908 62.612 60.8634 62.7669 60.8088 62.9492L60.6994 63.3867L60.6447 63.9336L62.1759 63.5508C62.4494 63.4779 62.6864 63.4414 62.8869 63.4414C63.1056 63.4414 63.3608 63.4779 63.6525 63.5508C63.9442 63.6602 64.1629 63.7878 64.3088 63.9336L64.5275 64.207C64.491 64.3164 64.3999 64.3893 64.2541 64.4258C64.1082 64.4622 63.9442 64.4896 63.7619 64.5078C63.5796 64.5078 63.2879 64.5169 62.8869 64.5352C62.4858 64.5534 62.1759 64.5716 61.9572 64.5898L60.508 64.8086V65.6289L61.8205 66.1484C62.2215 66.3125 62.5952 66.4766 62.9416 66.6406C63.3062 66.8047 63.6799 67.0234 64.0627 67.2969C64.4455 67.5703 64.7098 67.8529 64.8556 68.1445C65.0015 68.418 65.0744 68.6641 65.0744 68.8828C65.0561 69.0833 65.0015 69.2292 64.9103 69.3203C64.8192 69.4115 64.6825 69.4661 64.5002 69.4844C64.3179 69.4844 64.09 69.3659 63.8166 69.1289C63.5978 68.9831 63.37 68.8008 63.133 68.582C62.896 68.3815 62.6681 68.1719 62.4494 67.9531L60.508 66.1211L60.5353 67.543L60.59 69.6758C60.5535 69.8216 60.508 69.9492 60.4533 70.0586C60.3986 70.168 60.2983 70.3138 60.1525 70.4961L59.6603 70.6875C59.5145 70.5599 59.3869 70.3685 59.2775 70.1133C59.1499 69.8763 59.077 69.6667 59.0588 69.4844L59.1681 68.8828C59.241 68.5547 59.2775 68.181 59.2775 67.7617L59.3322 67.0508L58.4845 67.8711C58.2111 68.1628 57.9559 68.3997 57.7189 68.582C57.4819 68.8008 57.1265 69.0378 56.6525 69.293C56.1785 69.5482 55.8869 69.694 55.7775 69.7305L55.2306 69.9766L54.9025 69.8398L55.5588 69.293C55.8322 69.056 56.1785 68.7279 56.5978 68.3086C57.0353 67.8711 57.4272 67.4427 57.7736 67.0234C58.12 66.5859 58.3843 66.2305 58.5666 65.957L59.0861 65.0547ZM52.7697 78.9727L52.6603 79.6562C52.6056 80.0938 52.478 80.3125 52.2775 80.3125C52.077 80.2943 51.9038 80.194 51.758 80.0117C51.6121 79.8294 51.4845 79.556 51.3752 79.1914C51.3022 78.8815 51.2658 78.6081 51.2658 78.3711L51.4299 77.8516C51.5392 77.5599 51.6213 77.2135 51.6759 76.8125C51.7306 76.4297 51.7671 76.056 51.7853 75.6914V74.0781C51.7853 73.9141 51.7671 73.668 51.7306 73.3398C51.6759 72.9935 51.603 72.7109 51.5119 72.4922L51.4025 72.1094C51.439 71.9453 51.5575 71.8451 51.758 71.8086C51.9403 71.7904 52.1134 71.8268 52.2775 71.918L52.9338 72.2461C53.8634 72.1185 54.5653 72.0091 55.0392 71.918L57.0353 71.5898C57.5457 71.5169 58.0197 71.4167 58.4572 71.2891L59.2228 71.0977C59.4051 71.0977 59.6694 71.1615 60.0158 71.2891C60.3621 71.4167 60.6629 71.5898 60.9181 71.8086L61.3009 72.2188C61.3009 72.3464 61.228 72.5469 61.0822 72.8203C61.0093 73.0026 60.9546 73.349 60.9181 73.8594V74.8711L61.0275 76.9492L61.1916 78.3984C61.1916 78.7266 61.1551 79.0182 61.0822 79.2734C61.0093 79.5469 60.8999 79.8112 60.7541 80.0664C60.6082 80.3216 60.4442 80.5404 60.2619 80.7227C60.0796 80.9049 59.9155 80.9961 59.7697 80.9961C59.6239 80.9779 59.478 80.8503 59.3322 80.6133L59.0588 79.9844L58.4572 78.7812C57.8009 78.7995 57.327 78.8086 57.0353 78.8086L54.465 78.918L52.7697 78.9727ZM52.8517 77.9883L55.9416 77.8242L57.1447 77.7148C57.5275 77.6784 57.8647 77.6602 58.1564 77.6602C58.521 77.6784 58.758 77.7057 58.8674 77.7422L59.3869 77.9336C59.3869 77.6055 59.4051 77.3229 59.4416 77.0859V76.7031L59.4963 75.3086L58.922 75.418C58.7215 75.4544 58.4572 75.5 58.1291 75.5547C57.8009 75.6094 57.2723 75.6732 56.5431 75.7461C55.7957 75.8372 55.1759 75.9102 54.6838 75.9648C54.3374 76.0195 54.0366 76.0469 53.7814 76.0469L52.9064 75.9375L52.8517 77.9883ZM52.9338 75.2266C53.3713 75.1719 53.7176 75.1354 53.9728 75.1172C54.228 75.099 54.702 75.0352 55.3947 74.9258C56.0874 74.8164 56.6252 74.7253 57.008 74.6523C57.3908 74.5794 57.6551 74.5339 57.8009 74.5156C57.965 74.4974 58.12 74.4883 58.2658 74.4883C58.5392 74.4883 58.7489 74.5247 58.8947 74.5977L59.4963 74.8438V73.8047C59.4963 73.112 59.4507 72.7109 59.3595 72.6016C59.2684 72.4922 59.0496 72.4102 58.7033 72.3555C58.4663 72.3555 58.0015 72.3828 57.3088 72.4375L56.0509 72.5469L54.9025 72.7109L53.0431 72.957L52.9338 75.2266Z" fill="#333333"/>
<path d="M111.285 70.0586C111.085 70.0586 110.839 69.9036 110.547 69.5938C110.328 69.375 110.219 69.2109 110.219 69.1016C110.219 69.0469 110.255 69.0195 110.328 69.0195C110.401 69.0013 110.492 68.9922 110.602 68.9922L111.203 68.9648C111.55 68.9648 111.778 68.9557 111.887 68.9375C112.233 68.9375 112.525 68.9284 112.762 68.9102C114.33 68.7643 115.387 68.6458 115.934 68.5547C116.207 68.5182 116.453 68.4818 116.672 68.4453C116.891 68.3906 117.064 68.3633 117.192 68.3633C117.447 68.3633 117.702 68.4909 117.957 68.7461C118.158 68.9466 118.258 69.1107 118.258 69.2383C118.258 69.3477 118.194 69.4206 118.067 69.457C117.975 69.4753 117.438 69.5117 116.453 69.5664C115.906 69.5846 115.232 69.6302 114.43 69.7031C113.628 69.776 112.926 69.849 112.324 69.9219C112.215 69.9401 112.06 69.9674 111.86 70.0039C111.659 70.0404 111.468 70.0586 111.285 70.0586ZM85.6916 68.3633L86.2931 68.3086L86.8127 68.2539L88.6447 68.1172L90.4767 67.8711L93.8947 67.4336L97.3947 67.0781C98.8895 66.9141 99.883 66.8138 100.375 66.7773C100.867 66.7227 101.314 66.668 101.715 66.6133C102.116 66.5768 102.554 66.5039 103.028 66.3945C103.501 66.3216 103.839 66.2852 104.039 66.2852C104.422 66.2852 104.878 66.4219 105.406 66.6953C105.935 66.9505 106.3 67.1784 106.5 67.3789L106.801 67.7344L106.856 67.9531C106.819 68.1354 106.728 68.263 106.582 68.3359C106.436 68.3906 106.254 68.418 106.035 68.418C105.871 68.4362 105.616 68.4453 105.27 68.4453C104.942 68.4453 104.531 68.4362 104.039 68.418C103.055 68.3815 102.28 68.3633 101.715 68.3633C100.475 68.3633 99.1538 68.418 97.7502 68.5273C96.3465 68.6367 95.116 68.7461 94.0588 68.8555C93.0015 68.9831 92.2085 69.1016 91.6798 69.2109C91.1512 69.3203 90.5679 69.457 89.9298 69.6211C89.2918 69.7852 88.7905 69.931 88.4259 70.0586C88.0614 70.1862 87.7879 70.25 87.6056 70.25C87.3504 70.25 87.1317 70.2044 86.9494 70.1133C86.7306 70.0039 86.4845 69.8672 86.2111 69.7031C85.9377 69.5208 85.7371 69.375 85.6095 69.2656C85.4819 69.138 85.3543 68.9284 85.2267 68.6367C85.2814 68.4909 85.4364 68.3997 85.6916 68.3633Z" fill="#333333"/>
<path d="M153.887 66.4492C153.285 66.2305 153.003 65.9935 153.039 65.7383C153.149 64.9727 153.203 64.0977 153.203 63.1133C153.203 62.6758 153.194 62.3568 153.176 62.1562C153.158 61.9193 153.139 61.7188 153.121 61.5547C153.103 61.3724 153.103 61.2721 153.121 61.2539C153.194 61.181 153.285 61.1445 153.395 61.1445C153.559 61.1445 153.759 61.2174 153.996 61.3633C154.251 61.5091 154.379 61.6549 154.379 61.8008C154.379 61.8919 154.37 61.9831 154.352 62.0742C154.334 62.1471 154.324 62.2292 154.324 62.3203L154.16 65.0273C154.16 65.1732 154.215 65.2643 154.324 65.3008H154.461C154.607 65.3008 154.707 65.2917 154.762 65.2734L158.289 64.7812V64.0703C158.289 63.1771 158.271 62.4844 158.235 61.9922C158.216 61.5729 158.171 61.2357 158.098 60.9805C158.043 60.6888 158.116 60.543 158.317 60.543C158.462 60.543 158.654 60.5977 158.891 60.707C159.182 60.8529 159.356 60.9805 159.41 61.0898C159.465 61.181 159.483 61.3268 159.465 61.5273C159.429 61.8555 159.41 62.3477 159.41 63.0039L159.438 65.082C159.438 65.5195 159.356 65.8659 159.192 66.1211C159.1 66.2305 159.009 66.2852 158.918 66.2852C158.827 66.2852 158.699 66.2031 158.535 66.0391C158.499 66.0026 158.453 65.9479 158.399 65.875C158.344 65.8021 158.289 65.7565 158.235 65.7383C158.18 65.7201 158.107 65.7109 158.016 65.7109C157.597 65.7474 156.585 65.8841 154.981 66.1211C154.707 66.1576 154.488 66.2305 154.324 66.3398C154.142 66.431 154.024 66.4766 153.969 66.4766L153.887 66.4492ZM156.949 77.5234C156.384 77.5234 155.947 77.5052 155.637 77.4688C155.345 77.4323 155.099 77.3229 154.899 77.1406C154.552 76.8854 154.315 76.3294 154.188 75.4727L154.106 74.5977C154.106 74.3789 154.087 74.1055 154.051 73.7773C153.759 73.8138 153.55 73.8503 153.422 73.8867C153.386 73.9049 153.322 73.9323 153.231 73.9688C153.158 73.987 153.103 73.9961 153.067 73.9961C152.939 73.9961 152.82 73.9596 152.711 73.8867C152.602 73.8138 152.465 73.6771 152.301 73.4766C152.173 73.3125 152.11 73.2031 152.11 73.1484C152.11 73.0938 152.173 73.0573 152.301 73.0391C152.429 73.0208 152.602 73.0117 152.82 73.0117C153.13 73.0117 153.531 72.9753 154.024 72.9023L153.996 72.5195C153.996 71.7904 153.951 71.1706 153.86 70.6602L153.832 70.4688C153.832 70.2135 153.932 70.1133 154.133 70.168C154.352 70.2409 154.552 70.332 154.735 70.4414C154.88 70.5143 154.981 70.5872 155.035 70.6602C155.09 70.7148 155.108 70.7969 155.09 70.9062L155.008 72.082V72.793L157.414 72.5469C157.414 72.4193 157.423 72.1185 157.442 71.6445C157.46 71.1523 157.46 70.8333 157.442 70.6875C157.442 70.5417 157.423 70.4049 157.387 70.2773C157.369 70.1315 157.35 70.013 157.332 69.9219C157.332 69.776 157.405 69.7031 157.551 69.7031C157.697 69.7031 157.879 69.7852 158.098 69.9492C158.353 70.1133 158.517 70.2591 158.59 70.3867C158.681 70.5143 158.699 70.6693 158.645 70.8516C158.554 71.1432 158.49 71.4714 158.453 71.8359C158.417 72.2005 158.399 72.4193 158.399 72.4922C158.617 72.474 158.818 72.4466 159 72.4102C159.182 72.3737 159.301 72.3555 159.356 72.3555C159.501 72.319 159.675 72.3008 159.875 72.3008C159.985 72.319 160.139 72.4284 160.34 72.6289C160.504 72.8477 160.586 73.0208 160.586 73.1484C160.586 73.3307 160.413 73.4036 160.067 73.3672C159.757 73.3125 159.447 73.2852 159.137 73.2852C158.827 73.2852 158.563 73.2943 158.344 73.3125C158.289 73.9688 158.18 74.6159 158.016 75.2539C157.979 75.3997 157.916 75.5273 157.824 75.6367C157.733 75.7279 157.651 75.7734 157.578 75.7734C157.451 75.7734 157.369 75.7279 157.332 75.6367C157.314 75.5273 157.305 75.3633 157.305 75.1445C157.341 74.6706 157.36 74.0781 157.36 73.3672C156.867 73.4036 156.485 73.4401 156.211 73.4766C155.792 73.5677 155.4 73.6224 155.035 73.6406C155.017 74.388 155.054 75.0534 155.145 75.6367C155.199 76.0195 155.309 76.2839 155.473 76.4297C155.582 76.5208 155.71 76.5755 155.856 76.5938C156.02 76.612 156.184 76.6211 156.348 76.6211C156.512 76.6211 156.621 76.6211 156.676 76.6211C157.241 76.6211 157.77 76.5938 158.262 76.5391C158.408 76.5208 158.535 76.4844 158.645 76.4297C158.772 76.375 158.863 76.3477 158.918 76.3477C159.082 76.3477 159.246 76.4023 159.41 76.5117C159.574 76.6211 159.656 76.7487 159.656 76.8945C159.656 77.0404 159.574 77.1497 159.41 77.2227C159.264 77.2956 159.028 77.3594 158.699 77.4141C158.116 77.487 157.533 77.5234 156.949 77.5234ZM161.242 67.2695C161.334 67.2695 161.47 67.3333 161.653 67.4609C161.634 67.4974 161.671 67.5703 161.762 67.6797C161.853 67.7708 161.917 67.8346 161.953 67.8711C162.044 67.9622 162.136 68.0716 162.227 68.1992C162.336 68.3268 162.455 68.4635 162.582 68.6094C162.91 68.9557 163.667 69.8581 164.852 71.3164C165.052 71.6081 165.153 71.7812 165.153 71.8359C165.153 72.0182 165.043 72.1094 164.824 72.1094C164.697 72.1094 164.56 72.0182 164.414 71.8359C164.068 71.4714 163.448 70.8971 162.555 70.1133C161.862 69.4753 161.233 68.9831 160.668 68.6367C160.395 68.5091 160.258 68.3633 160.258 68.1992C160.258 68.0716 160.395 67.8893 160.668 67.6523C160.923 67.3971 161.115 67.2695 161.242 67.2695ZM137.371 59.6133L140.817 59.0117C141.035 58.9753 141.409 58.8841 141.938 58.7383C142.466 58.6107 142.922 58.474 143.305 58.3281C143.688 58.1641 143.952 58.082 144.098 58.082C144.298 58.082 144.526 58.1367 144.781 58.2461C145.037 58.3555 145.319 58.5013 145.629 58.6836C145.921 58.8659 146.139 59.0299 146.285 59.1758L146.504 59.5312C146.522 59.6589 146.477 59.832 146.367 60.0508C146.149 60.4701 146.012 60.8529 145.957 61.1992C145.884 61.5638 145.848 62.2383 145.848 63.2227L145.684 73.7773L145.711 76.6758C145.693 77.2956 145.638 77.8424 145.547 78.3164C145.456 78.7539 145.337 79.1367 145.192 79.4648C145.046 79.7565 144.854 80.0391 144.617 80.3125C144.38 80.5859 144.162 80.7318 143.961 80.75C143.779 80.75 143.578 80.668 143.36 80.5039L143.004 80.1211C142.785 79.9023 142.384 79.556 141.801 79.082L140.817 78.3164L140.16 77.8516L139.969 77.6055C139.987 77.4779 140.087 77.4232 140.27 77.4414L140.817 77.5508L141.363 77.6602L142.211 77.8242C142.485 77.8789 142.703 77.9062 142.867 77.9062L143.141 77.8789C143.341 77.806 143.505 77.6693 143.633 77.4688C143.761 77.2682 143.843 77.0039 143.879 76.6758C143.916 76.3477 143.943 75.819 143.961 75.0898L144.098 69.7852C143.97 69.8581 143.824 69.931 143.66 70.0039C143.514 70.0768 143.259 70.1315 142.895 70.168L141.528 70.332L139.449 70.6602L138.356 70.8789C138.137 70.9154 137.927 70.9336 137.727 70.9336C137.435 70.9336 137.207 70.9154 137.043 70.8789L136.387 70.7148L136.086 72C135.995 72.3828 135.867 72.8112 135.703 73.2852C135.539 73.7227 135.302 74.2513 134.992 74.8711C134.682 75.4909 134.327 76.0469 133.926 76.5391C133.525 77.0312 133.124 77.4414 132.723 77.7695C132.34 78.0977 131.957 78.3893 131.574 78.6445C131.173 78.918 130.882 79.1094 130.699 79.2188L130.153 79.5195L129.852 79.6562L129.715 79.3555L130.235 78.8359C130.544 78.5625 130.882 78.2253 131.246 77.8242C131.611 77.4232 131.975 76.9766 132.34 76.4844C132.705 75.9922 133.069 75.4089 133.434 74.7344C133.78 74.0781 134.054 73.431 134.254 72.793C134.473 72.1732 134.655 71.4622 134.801 70.6602C134.947 69.8398 135.038 69.1289 135.074 68.5273C135.147 67.944 135.193 67.2513 135.211 66.4492L135.293 63.0586C135.293 62.4388 135.275 61.8646 135.238 61.3359C135.166 60.8073 135.093 60.4336 135.02 60.2148L134.692 59.2852L134.719 59.0117C134.792 58.8841 134.983 58.8294 135.293 58.8477C135.658 58.8841 135.977 58.9388 136.25 59.0117C136.505 59.1029 136.706 59.194 136.852 59.2852L137.371 59.6133ZM136.551 69.8672C137.025 69.8125 137.408 69.7578 137.699 69.7031C137.991 69.6667 138.337 69.612 138.738 69.5391L139.613 69.4023C139.832 69.3659 140.16 69.293 140.598 69.1836C141.017 69.0742 141.345 69.0013 141.582 68.9648C141.819 68.9102 142.029 68.8828 142.211 68.8828C142.557 68.901 142.977 68.9922 143.469 69.1562L144.098 69.4023L144.153 65.0273L140.27 65.6562C139.012 65.8568 138.274 65.957 138.055 65.957C137.836 65.957 137.672 65.9388 137.563 65.9023L136.852 65.7383C136.815 66.4492 136.788 67.0326 136.77 67.4883C136.733 67.9622 136.697 68.3815 136.66 68.7461L136.551 69.8672ZM136.852 64.9453L139.695 64.4258L140.899 64.1523C141.646 64.0065 142.138 63.9245 142.375 63.9062C142.667 63.9062 142.922 63.9336 143.141 63.9883C143.36 64.0612 143.542 64.1159 143.688 64.1523L144.125 64.3438L144.153 61.3359L144.098 60.6523C144.08 60.2331 144.016 59.9688 143.906 59.8594C143.815 59.7682 143.624 59.7044 143.332 59.668C143.186 59.6497 143.031 59.6406 142.867 59.6406C142.703 59.6406 142.53 59.6497 142.348 59.668L140.434 59.9414C139.632 60.0508 138.994 60.1602 138.52 60.2695L137.481 60.4883C137.371 60.7799 137.271 61.0352 137.18 61.2539C137.089 61.4727 137.025 61.6914 136.988 61.9102C136.952 62.1654 136.934 62.4753 136.934 62.8398L136.852 64.9453Z" fill="#333333"/>
<path d="M195.285 70.0586C195.085 70.0586 194.839 69.9036 194.547 69.5938C194.328 69.375 194.219 69.2109 194.219 69.1016C194.219 69.0469 194.255 69.0195 194.328 69.0195C194.401 69.0013 194.492 68.9922 194.602 68.9922L195.203 68.9648C195.55 68.9648 195.778 68.9557 195.887 68.9375C196.233 68.9375 196.525 68.9284 196.762 68.9102C198.33 68.7643 199.387 68.6458 199.934 68.5547C200.207 68.5182 200.453 68.4818 200.672 68.4453C200.891 68.3906 201.064 68.3633 201.192 68.3633C201.447 68.3633 201.702 68.4909 201.957 68.7461C202.158 68.9466 202.258 69.1107 202.258 69.2383C202.258 69.3477 202.194 69.4206 202.067 69.457C201.975 69.4753 201.438 69.5117 200.453 69.5664C199.906 69.5846 199.232 69.6302 198.43 69.7031C197.628 69.776 196.926 69.849 196.324 69.9219C196.215 69.9401 196.06 69.9674 195.86 70.0039C195.659 70.0404 195.468 70.0586 195.285 70.0586ZM169.692 68.3633L170.293 68.3086L170.813 68.2539L172.645 68.1172L174.477 67.8711L177.895 67.4336L181.395 67.0781C182.889 66.9141 183.883 66.8138 184.375 66.7773C184.867 66.7227 185.314 66.668 185.715 66.6133C186.116 66.5768 186.554 66.5039 187.028 66.3945C187.501 66.3216 187.839 66.2852 188.039 66.2852C188.422 66.2852 188.878 66.4219 189.406 66.6953C189.935 66.9505 190.3 67.1784 190.5 67.3789L190.801 67.7344L190.856 67.9531C190.819 68.1354 190.728 68.263 190.582 68.3359C190.436 68.3906 190.254 68.418 190.035 68.418C189.871 68.4362 189.616 68.4453 189.27 68.4453C188.942 68.4453 188.531 68.4362 188.039 68.418C187.055 68.3815 186.28 68.3633 185.715 68.3633C184.475 68.3633 183.154 68.418 181.75 68.5273C180.347 68.6367 179.116 68.7461 178.059 68.8555C177.001 68.9831 176.209 69.1016 175.68 69.2109C175.151 69.3203 174.568 69.457 173.93 69.6211C173.292 69.7852 172.791 69.931 172.426 70.0586C172.061 70.1862 171.788 70.25 171.606 70.25C171.35 70.25 171.132 70.2044 170.949 70.1133C170.731 70.0039 170.485 69.8672 170.211 69.7031C169.938 69.5208 169.737 69.375 169.61 69.2656C169.482 69.138 169.354 68.9284 169.227 68.6367C169.281 68.4909 169.436 68.3997 169.692 68.3633Z" fill="#333333"/>
<path d="M238.133 73.0391C238.024 73.0391 237.869 72.957 237.668 72.793C237.559 72.7201 237.468 72.6471 237.395 72.5742C237.322 72.5013 237.285 72.4375 237.285 72.3828L237.313 71.9453C237.331 71.7812 237.34 71.4167 237.34 70.8516C237.322 70.4505 237.313 69.612 237.313 68.3359C237.313 67.8255 237.267 67.3607 237.176 66.9414C237.176 66.9414 237.139 66.7227 237.067 66.2852V66.2031C237.067 66.0391 237.176 65.9935 237.395 66.0664C237.486 66.0846 237.695 66.1211 238.024 66.1758C238.37 66.1211 239.528 65.9844 241.496 65.7656C241.77 65.7292 241.988 65.6927 242.153 65.6562C242.317 65.6198 242.435 65.5924 242.508 65.5742H242.617C242.818 65.5742 243 65.6745 243.164 65.875C243.456 66.2214 243.574 66.4674 243.52 66.6133C243.447 66.7956 243.374 67.1055 243.301 67.543C243.264 67.7982 243.219 68.2357 243.164 68.8555V70.1133V72.1094C243.164 72.2734 243.082 72.4922 242.918 72.7656C242.882 72.8568 242.809 72.9297 242.699 72.9844C242.608 73.0391 242.508 73.0664 242.399 73.0664C242.289 73.0664 242.207 73.0391 242.153 72.9844C242.116 72.9479 242.08 72.9115 242.043 72.875C242.007 72.8203 241.97 72.7839 241.934 72.7656C241.916 72.7474 241.879 72.7383 241.824 72.7383C240.694 72.7383 239.673 72.8112 238.762 72.957C238.689 72.9753 238.616 72.9844 238.543 72.9844C238.488 72.9844 238.434 72.9935 238.379 73.0117L238.188 73.0391H238.133ZM238.653 72.0273C239.108 72.0091 239.728 71.9544 240.512 71.8633C240.876 71.8268 241.086 71.8086 241.141 71.8086H241.36C241.651 71.8086 241.87 71.8633 242.016 71.9727C242.143 71.0612 242.207 69.3932 242.207 66.9688C242.171 66.6953 242.061 66.5586 241.879 66.5586C241.533 66.5586 240.831 66.6224 239.774 66.75C239.664 66.75 239.555 66.7591 239.445 66.7773C239.336 66.7956 239.227 66.8138 239.117 66.832C238.807 66.8867 238.58 66.9141 238.434 66.9141C238.306 66.9141 238.261 66.9779 238.297 67.1055L238.27 68.0352C238.251 68.1628 238.242 68.2812 238.242 68.3906C238.261 68.5 238.27 68.6003 238.27 68.6914C238.288 68.8372 238.297 69.0742 238.297 69.4023C238.297 70.8242 238.306 71.6081 238.324 71.7539C238.324 71.8815 238.361 71.9635 238.434 72C238.507 72.0365 238.58 72.0456 238.653 72.0273ZM240.676 70.4961C240.475 70.4961 240.32 70.3958 240.211 70.1953C239.828 69.5573 239.473 69.0286 239.145 68.6094L238.953 68.3086C238.88 68.1992 238.844 68.1172 238.844 68.0625C238.862 67.9896 238.908 67.9622 238.981 67.9805C239.455 68.1263 239.892 68.3633 240.293 68.6914C240.913 69.1654 241.223 69.5299 241.223 69.7852C241.223 69.9128 241.186 70.0404 241.113 70.168C240.986 70.3867 240.84 70.4961 240.676 70.4961ZM245.242 63.168C245.334 63.168 245.47 63.2318 245.653 63.3594C245.634 63.3958 245.671 63.4688 245.762 63.5781C245.853 63.6693 245.917 63.7331 245.953 63.7695C246.044 63.8607 246.136 63.9701 246.227 64.0977C246.336 64.2253 246.455 64.362 246.582 64.5078C246.91 64.8542 247.667 65.7565 248.852 67.2148C249.052 67.5065 249.153 67.6797 249.153 67.7344C249.153 67.9167 249.043 68.0078 248.824 68.0078C248.697 68.0078 248.56 67.9167 248.414 67.7344C248.068 67.3698 247.448 66.7956 246.555 66.0117C245.862 65.3737 245.233 64.8815 244.668 64.5352C244.395 64.4076 244.258 64.2617 244.258 64.0977C244.258 63.9701 244.395 63.7878 244.668 63.5508C244.923 63.2956 245.115 63.168 245.242 63.168ZM217.16 61.6914L218.992 61.418C219.576 61.3268 220.05 61.2448 220.414 61.1719L222.766 60.707C223.386 60.5977 223.768 60.5247 223.914 60.4883L224.68 60.2969L225.008 60.2148C225.136 60.1784 225.281 60.1146 225.445 60.0234L225.828 59.8867C225.956 59.8685 226.102 59.8958 226.266 59.9688C226.485 60.0599 226.794 60.2057 227.195 60.4062C227.597 60.6068 227.934 60.8255 228.207 61.0625C228.481 61.2995 228.59 61.5547 228.535 61.8281C228.408 62.0651 228.307 62.2656 228.235 62.4297C228.162 62.5938 228.116 62.7578 228.098 62.9219C228.061 63.0859 228.025 63.4596 227.988 64.043L227.934 64.918L227.852 69.6211C227.852 69.931 227.87 70.6328 227.906 71.7266L227.961 73.3398C227.998 73.8503 228.016 74.1966 228.016 74.3789C227.998 74.707 227.961 75.0534 227.906 75.418C227.87 75.7826 227.806 76.1107 227.715 76.4023C227.624 76.6576 227.478 76.9583 227.278 77.3047C227.077 77.651 226.831 77.9154 226.539 78.0977C226.339 78.2253 226.138 78.2891 225.938 78.2891C225.755 78.2344 225.6 78.0339 225.473 77.6875C225.345 77.3411 225.19 77.0039 225.008 76.6758L224.707 76.1289L224.461 75.6367C223.914 75.6732 223.55 75.6914 223.367 75.6914C223.185 75.7279 222.811 75.7734 222.246 75.8281C221.681 75.8828 220.888 75.9648 219.867 76.0742C219.175 76.1471 218.628 76.1836 218.227 76.1836C218.026 76.1836 217.862 76.1745 217.735 76.1562L217.051 76.0742L216.969 76.8945C216.932 77.3685 216.823 77.6237 216.641 77.6602C216.477 77.6602 216.285 77.4961 216.067 77.168C215.83 76.8581 215.675 76.5846 215.602 76.3477C215.529 76.0924 215.483 75.8099 215.465 75.5C215.465 75.1719 215.511 74.7161 215.602 74.1328C215.711 73.6042 215.784 73.1211 215.82 72.6836L215.957 71.043C215.994 70.3867 216.039 69.3021 216.094 67.7891C216.149 66.5859 216.176 65.6107 216.176 64.8633V64.3711C216.158 63.8424 216.121 63.4232 216.067 63.1133C216.012 62.8216 215.948 62.5938 215.875 62.4297L215.602 61.4727L216.039 61.418C216.44 61.4544 216.705 61.5 216.832 61.5547L217.16 61.6914ZM217.188 75.0352C217.479 74.9987 217.899 74.9714 218.445 74.9531C218.992 74.9349 219.43 74.9076 219.758 74.8711C220.104 74.8346 220.624 74.7708 221.317 74.6797C222.028 74.5885 222.593 74.5065 223.012 74.4336C223.322 74.3971 223.604 74.3789 223.86 74.3789C224.261 74.3789 224.552 74.4245 224.735 74.5156L225.418 74.7891C225.546 74.4245 225.628 74.1419 225.664 73.9414C225.719 73.7227 225.774 73.3581 225.828 72.8477C225.865 72.3372 225.892 71.9909 225.91 71.8086L225.965 68.4727C225.473 68.582 225.117 68.6458 224.899 68.6641L223.34 68.8828L221.317 69.2383C220.569 69.3477 219.886 69.4206 219.266 69.457C219.029 69.4753 218.828 69.4844 218.664 69.4844C218.409 69.4844 218.218 69.4661 218.09 69.4297L217.352 69.2656L217.188 75.0352ZM217.406 68.4727C217.753 68.4362 218.072 68.4089 218.363 68.3906C218.673 68.3724 218.983 68.3359 219.293 68.2812L221.016 67.9805C221.818 67.8346 222.419 67.6979 222.82 67.5703C223.222 67.4427 223.495 67.3789 223.641 67.3789C223.75 67.3424 223.887 67.3242 224.051 67.3242C224.215 67.3424 224.406 67.3789 224.625 67.4336C224.862 67.5065 225.154 67.5885 225.5 67.6797L226.047 67.8438L225.965 63.3047C225.947 62.849 225.919 62.5117 225.883 62.293C225.81 62.0742 225.692 61.8919 225.528 61.7461C225.345 61.6367 225.054 61.5729 224.653 61.5547C224.124 61.5547 223.531 61.5911 222.875 61.6641C222.237 61.7552 221.617 61.8555 221.016 61.9648C220.396 62.0742 219.804 62.2018 219.238 62.3477C218.673 62.4935 218.327 62.5664 218.199 62.5664L217.543 62.6211L217.406 68.4727Z" fill="#333333"/>
</svg>
