<svg width="350" height="36" viewBox="0 0 350 36" fill="none" xmlns="http://www.w3.org/2000/svg">
<path d="M104.934 7.49609C104.77 7.49609 104.852 7.35547 105.18 7.07422C105.508 6.79297 105.906 6.45313 106.375 6.05469C106.844 5.63281 107.371 5.08203 107.957 4.40234C108.332 3.95703 108.613 3.48828 108.801 2.99609C108.918 2.71484 109.047 2.57422 109.188 2.57422C109.305 2.57422 109.48 2.66797 109.715 2.85547C110.184 3.23047 110.418 3.54687 110.418 3.80469C110.418 3.96875 110.324 4.08594 110.137 4.15625C110.043 4.17969 109.902 4.28516 109.715 4.47266C109.527 4.63672 109.387 4.76563 109.293 4.85938C108.285 5.84375 107.348 6.55859 106.48 7.00391C105.777 7.33203 105.309 7.49609 105.074 7.49609H104.934ZM108.625 14.0352C108.555 14.0352 108.438 13.9414 108.273 13.7539C108.133 13.543 108.027 13.3438 107.957 13.1562C107.934 13.0156 107.934 12.8398 107.957 12.6289C108.004 12.3945 108.027 12.2188 108.027 12.1016C108.074 11.6328 108.098 11.2578 108.098 10.9766C108.121 10.7187 108.121 10.4375 108.098 10.1328C108.098 9.82813 108.098 9.62891 108.098 9.53516L108.062 9.00781C107.5 9.40625 107.066 9.6875 106.762 9.85156C106.082 10.2266 105.59 10.4609 105.285 10.5547C104.91 10.6953 104.57 10.7656 104.266 10.7656C104.102 10.7656 104.008 10.7422 103.984 10.6953C103.938 10.6016 104.406 10.2617 105.391 9.67578C106.328 9.08984 107.348 8.31641 108.449 7.35547C109.059 6.79297 109.527 6.25391 109.855 5.73828C109.902 5.66797 109.938 5.58594 109.961 5.49219C110.008 5.375 110.055 5.30469 110.102 5.28125C110.172 5.25781 110.266 5.26953 110.383 5.31641C110.688 5.48047 110.945 5.71484 111.156 6.01953C111.25 6.13672 111.297 6.25391 111.297 6.37109C111.297 6.48828 111.238 6.60547 111.121 6.72266C111.004 6.81641 110.887 6.88672 110.77 6.93359C110.371 7.19141 110.008 7.47266 109.68 7.77734C109.352 8.08203 109.141 8.28125 109.047 8.375C109.398 8.65625 109.574 8.85547 109.574 8.97266L109.469 9.71094C109.422 9.92188 109.398 10.4492 109.398 11.293C109.398 12.1133 109.422 12.6641 109.469 12.9453V13.0156C109.469 13.1328 109.434 13.2617 109.363 13.4023C109.316 13.5195 109.281 13.6016 109.258 13.6484C109.094 13.9063 108.883 14.0352 108.625 14.0352ZM112.211 22.9648C111.859 22.9648 111.52 22.707 111.191 22.1914C110.77 21.5352 110.359 20.9961 109.961 20.5742L109.047 19.625C108.555 20.1875 108.121 20.6328 107.746 20.9609C107.395 21.2891 106.949 21.6055 106.41 21.9102C105.402 22.4961 104.559 22.7891 103.879 22.7891C103.715 22.7891 103.633 22.7305 103.633 22.6133C103.633 22.543 103.855 22.3906 104.301 22.1562C104.746 21.9219 105.168 21.6406 105.566 21.3125C106.574 20.4688 107.406 19.6016 108.062 18.7109C107.922 18.5703 107.219 17.9609 105.953 16.8828C105.789 16.7656 105.543 16.5664 105.215 16.2852C105.145 16.2383 105.004 16.1328 104.793 15.9688C104.582 15.8047 104.477 15.6875 104.477 15.6172C104.477 15.5 104.535 15.4414 104.652 15.4414C105.004 15.4414 105.566 15.6875 106.34 16.1797C107.113 16.6484 107.922 17.2109 108.766 17.8672C109.094 17.4688 109.352 17.0938 109.539 16.7422C109.727 16.3906 109.938 15.957 110.172 15.4414C110.289 15.1836 110.359 14.9609 110.383 14.7734C110.406 14.5625 110.418 14.4336 110.418 14.3867C110.418 14.1289 110.488 14 110.629 14C110.793 14 111.016 14.1289 111.297 14.3867C111.789 14.8555 112.035 15.1719 112.035 15.3359C112.035 15.4297 111.977 15.5352 111.859 15.6523C111.578 15.9336 111.32 16.3086 111.086 16.7773C110.945 17.0586 110.688 17.457 110.312 17.9727C110.195 18.1133 110.102 18.2422 110.031 18.3594C109.961 18.4766 109.891 18.582 109.82 18.6758C110.359 19.0742 111.156 19.7539 112.211 20.7148C112.469 20.9492 112.633 21.1719 112.703 21.3828C112.797 21.5703 112.844 21.8281 112.844 22.1562C112.844 22.3906 112.785 22.5898 112.668 22.7539C112.551 22.8945 112.398 22.9648 112.211 22.9648ZM112.844 27.6055C113.102 27.8867 113.23 28.1211 113.23 28.3086C113.23 28.4727 113.137 28.625 112.949 28.7656C112.832 28.8594 112.539 29.375 112.07 30.3125C111.555 31.1562 110.98 31.8828 110.348 32.4922C109.738 33.125 109.129 33.582 108.52 33.8633C108.379 33.9102 108.262 33.9336 108.168 33.9336C108.074 33.9336 108.027 33.9102 108.027 33.8633V33.793C108.027 33.6523 108.145 33.4883 108.379 33.3008C108.801 32.9727 109.117 32.6328 109.328 32.2812C109.562 31.9531 109.738 31.707 109.855 31.543C110.348 30.8398 110.699 30.2656 110.91 29.8203C111.145 29.4219 111.309 29.0117 111.402 28.5898H111.262C110.652 28.5898 109.668 28.6602 108.309 28.8008C108.098 28.8242 107.488 28.9062 106.48 29.0469C106.27 29.0703 105.941 29.1289 105.496 29.2227L105.074 29.3281C104.98 29.375 104.887 29.3984 104.793 29.3984C104.676 29.3984 104.559 29.375 104.441 29.3281C104.324 29.2578 104.207 29.1758 104.09 29.082C103.809 28.8477 103.668 28.6484 103.668 28.4844C103.691 28.4375 103.715 28.3672 103.738 28.2734C103.785 28.1797 103.809 28.0977 103.809 28.0273L103.984 26.8672C104.008 26.75 104.031 26.6211 104.055 26.4805C104.078 26.3398 104.09 26.1992 104.09 26.0586C104.09 25.6133 104.078 25.2617 104.055 25.0039C104.055 24.7227 104.02 24.4297 103.949 24.125V24.0195C103.949 23.8555 104.02 23.7734 104.16 23.7734C104.301 23.7734 104.547 23.8789 104.898 24.0898C105.367 24.418 105.602 24.6758 105.602 24.8633C105.602 24.9336 105.59 24.9922 105.566 25.0391C105.543 25.0859 105.52 25.1328 105.496 25.1797C105.426 25.6016 105.391 25.8359 105.391 25.8828L105.215 27.7461C105.215 27.793 105.238 27.8516 105.285 27.9219C105.355 27.9688 105.426 27.9922 105.496 27.9922C106.059 27.9922 107.324 27.8516 109.293 27.5703C110.066 27.5 110.617 27.418 110.945 27.3242C111.156 27.3008 111.332 27.2656 111.473 27.2188C111.637 27.1484 111.742 27.1133 111.789 27.1133C111.93 27.0664 112.023 27.043 112.07 27.043C112.281 27.043 112.539 27.2305 112.844 27.6055ZM79.1289 17.2344L76.7383 17.9023L75.6836 18.1836C74.957 18.3711 74.4766 18.4766 74.2422 18.5C73.9609 18.5 73.7031 18.4766 73.4688 18.4297C73.1641 18.3594 72.8242 18.207 72.4492 17.9727C72.0508 17.7383 71.7578 17.4102 71.5703 16.9883C71.6641 16.8477 71.8398 16.7656 72.0977 16.7422L72.9766 16.707C73.7031 16.6836 74.4766 16.6484 75.2969 16.6016C76.1172 16.5312 76.8555 16.4375 77.5117 16.3203L79.7617 15.9336C80.0898 15.1836 80.2891 14.7148 80.3594 14.5273L80.8164 13.1562C80.4414 13.1797 80.1484 13.2031 79.9375 13.2266C79.7266 13.25 79.375 13.2969 78.8828 13.3672C78.3906 13.4609 77.9922 13.5078 77.6875 13.5078C77.3125 13.5078 77.0195 13.4609 76.8086 13.3672C76.5273 13.25 76.3164 13.1211 76.1758 12.9805L76.0352 12.6641C76.0586 12.5 76.1758 12.418 76.3867 12.418L77.0547 12.3477C77.2188 12.3477 77.6172 12.3125 78.25 12.2422C78.8828 12.1719 79.4805 12.1133 80.043 12.0664L81.2383 11.9258C81.543 10.9883 81.7188 10.4023 81.7656 10.168L82.0469 8.76172C81.1797 8.83203 80.3945 8.91406 79.6914 9.00781C78.9648 9.07812 78.4961 9.11328 78.2852 9.11328H77.7578C77.2891 9.11328 76.9375 9.06641 76.7031 8.97266C76.3984 8.83203 76.1758 8.66797 76.0352 8.48047L75.8945 8.12891L76.1406 7.95312H76.8789L77.8633 7.84766L79.9023 7.70703L82.293 7.35547L82.4336 5.45703V5.10547C82.4336 4.84766 82.4102 4.53125 82.3633 4.15625C82.3164 3.80469 82.2812 3.55859 82.2578 3.41797L82.1172 2.64453L82.4688 2.39844C82.7031 2.375 82.9492 2.41016 83.207 2.50391C83.5352 2.64453 83.8633 2.79688 84.1914 2.96094C84.5195 3.125 84.8008 3.32422 85.0352 3.55859C85.2695 3.79297 85.3867 4.02734 85.3867 4.26172L85.1406 4.75391C84.9766 5.01172 84.8477 5.30469 84.7539 5.63281L84.2617 7.07422L87.1445 6.65234L88.7266 6.30078C89.0078 6.25391 89.2656 6.21875 89.5 6.19531C89.8984 6.19531 90.3203 6.28906 90.7656 6.47656C91.1641 6.61719 91.3633 6.79297 91.3633 7.00391C91.3398 7.23828 91.2461 7.37891 91.082 7.42578L90.3789 7.63672C90.1445 7.68359 89.7461 7.75391 89.1836 7.84766L86.9336 8.19922C86.1367 8.31641 85.4688 8.39844 84.9297 8.44531L83.9805 8.55078C83.7227 9.46484 83.5703 10.0273 83.5234 10.2383L83.1367 11.6445L85.3164 11.2578C85.7852 11.1875 86.3242 11.082 86.9336 10.9414C87.543 10.7773 88.0352 10.6836 88.4102 10.6602C88.7617 10.6602 89.043 10.6836 89.2539 10.7305C89.582 10.7773 89.8867 10.8711 90.168 11.0117L90.625 11.3984C90.625 11.5859 90.4609 11.7266 90.1328 11.8203C89.875 11.8906 89.5234 11.9492 89.0781 11.9961C88.6328 12.043 88.0586 12.1133 87.3555 12.207L85.2109 12.5586L82.8555 12.9102C82.5273 13.8008 82.3281 14.3516 82.2578 14.5625L81.8711 15.6523C82.5742 15.582 83.1016 15.5234 83.4531 15.4766L87.0742 15.1602C87.7305 15.1133 88.4453 15.0195 89.2188 14.8789C89.9922 14.7617 90.6133 14.6445 91.082 14.5273L92.1367 14.2461C92.6055 14.1523 92.9688 14.1055 93.2266 14.1055C93.5312 14.1055 93.8008 14.1523 94.0352 14.2461C94.293 14.3398 94.668 14.4922 95.1602 14.7031C95.6523 14.9141 95.9688 15.1367 96.1094 15.3711L96.2148 15.9336C96.1211 16.1211 95.9336 16.2266 95.6523 16.25L94.8789 16.2852L92.6992 16.2148C92.3477 16.2148 91.6914 16.2383 90.7305 16.2852L87.918 16.3555H86.6523L87.7773 17.1992L89.8867 18.9922C91.0117 19.9531 92.0195 20.7617 92.9102 21.418C93.8008 22.0742 94.5391 22.5547 95.125 22.8594C95.7109 23.1641 96.5664 23.5508 97.6914 24.0195C98.8164 24.4648 99.8008 24.793 100.645 25.0039L101.594 25.7422L100.855 25.9531L98.6055 26.4102C97.668 26.5977 96.9414 26.6914 96.4258 26.6914C95.8164 26.6211 95.2656 26.4219 94.7734 26.0938C94.2812 25.7656 93.8242 25.3789 93.4023 24.9336L90.6602 21.9805C89.3008 20.4805 88.2461 19.3672 87.4961 18.6406C86.793 17.9141 86.2539 17.4336 85.8789 17.1992L84.9297 16.4961C83.875 16.6133 83.2305 16.6836 82.9961 16.707L81.2734 16.918C80.5703 18.2773 79.9961 19.2852 79.5508 19.9414C79.1055 20.5977 78.4961 21.3242 77.7227 22.1211C76.9727 22.9648 76.1875 23.7031 75.3672 24.3359C74.5469 24.9688 73.7852 25.4844 73.082 25.8828C72.332 26.2812 71.5938 26.6211 70.8672 26.9023C70.1406 27.1602 69.6602 27.3242 69.4258 27.3945L68.4062 27.2188L69.2852 26.6562L70.2695 26.0938C70.8789 25.7656 71.5469 25.3438 72.2734 24.8281C73 24.3359 73.7148 23.7734 74.418 23.1406C75.1211 22.5078 75.8828 21.7227 76.7031 20.7852C77.5469 19.8477 78.0977 19.1445 78.3555 18.6758L79.1289 17.2344ZM85.9844 32.3867L83.7344 32.5977C82.7031 32.6914 82.1055 32.7383 81.9414 32.7383L80.2539 32.7734L80.1133 33.3359C79.9727 33.7578 79.8086 33.9688 79.6211 33.9688C79.4336 33.9453 79.2461 33.793 79.0586 33.5117C78.8477 33.207 78.7188 32.8438 78.6719 32.4219C78.6719 32.1172 78.6953 31.8008 78.7422 31.4727C78.7891 31.0273 78.8125 30.5117 78.8125 29.9258L78.6367 24.8633C78.5898 24.207 78.5195 23.7266 78.4258 23.4219C78.3555 23.1172 78.2734 22.8828 78.1797 22.7188L78.0742 22.4023C78.1211 22.2617 78.3438 22.168 78.7422 22.1211L79.7266 22.332L80.8516 22.1914C81.25 22.1445 81.7305 22.0625 82.293 21.9453L84.1914 21.5586C84.8477 21.418 85.3164 21.3008 85.5977 21.207C85.8789 21.1367 86.1602 21.043 86.4414 20.9258L87.1094 20.7148C87.3672 20.6914 87.5898 20.7148 87.7773 20.7852C88.0352 20.8789 88.3164 21.0312 88.6211 21.2422C88.9492 21.4531 89.2305 21.6641 89.4648 21.875L89.8516 22.3672C89.8516 22.5312 89.8164 22.6836 89.7461 22.8242C89.6758 23.0117 89.6172 23.2109 89.5703 23.4219C89.5 23.6328 89.4648 23.832 89.4648 24.0195C89.418 24.207 89.3828 24.582 89.3594 25.1445V25.7422C89.3594 26.1406 89.3711 26.5742 89.3945 27.043C89.418 27.6055 89.4648 28.1914 89.5352 28.8008L89.8164 30.5938C89.9102 31.2031 89.957 31.6602 89.957 31.9648C89.9102 32.5742 89.7344 33.1836 89.4297 33.793C89.1016 34.4023 88.7852 34.7773 88.4805 34.918L87.9531 35.0586C87.6953 35.0352 87.4492 34.8008 87.2148 34.3555C87.0039 33.9336 86.7695 33.5234 86.5117 33.125L85.9844 32.3867ZM80.3242 31.5781C81.3555 31.4609 82.1406 31.3672 82.6797 31.2969L84.5078 31.0508C85.1875 30.9336 85.6445 30.875 85.8789 30.875C86.2539 30.8984 86.5352 30.957 86.7227 31.0508L87.4609 31.4727L87.6367 27.0078C87.1211 27.125 86.7344 27.1953 86.4766 27.2188L84.0508 27.6758C82.9727 27.8633 82.2109 27.9805 81.7656 28.0273L81.3438 28.0625H80.9922L80.2539 27.8867L80.3242 31.5781ZM80.2539 26.9023C80.4883 26.9023 80.6992 26.8906 80.8867 26.8672C81.0742 26.8438 81.5664 26.7617 82.3633 26.6211C83.207 26.457 83.8867 26.3047 84.4023 26.1641C84.9648 26 85.3867 25.918 85.668 25.918C85.9258 25.918 86.1602 25.9297 86.3711 25.9531C86.6758 26 87.0391 26.1055 87.4609 26.2695L87.6367 23.3164C87.6133 22.9414 87.5547 22.6953 87.4609 22.5781C87.3438 22.4609 87.1211 22.3906 86.793 22.3672C86.4883 22.3672 86.1602 22.3789 85.8086 22.4023L84.2617 22.4727C83.8867 22.5195 83.3477 22.6367 82.6445 22.8242C81.9414 22.9883 81.4492 23.1172 81.168 23.2109L80.5352 23.3516L80.3945 23.7031C80.418 23.8438 80.418 24.043 80.3945 24.3008C80.3477 24.5352 80.3242 24.7344 80.3242 24.8984L80.2539 26.9023ZM165.121 13.6836C164.957 13.6836 164.781 13.5781 164.594 13.3672C164.453 13.2031 164.359 13.0742 164.312 12.9805C164.266 12.8633 164.266 12.7109 164.312 12.5234L164.348 11.6797C164.371 11.5156 164.383 11.1172 164.383 10.4844V9.32422L163.328 9.81641L162.098 10.3438C161.793 10.4609 161.477 10.6016 161.148 10.7656C160.867 10.9062 160.621 10.9766 160.41 10.9766C160.246 10.9531 160.059 10.8945 159.848 10.8008C159.637 10.707 159.473 10.625 159.355 10.5547C159.098 10.3906 158.98 10.2148 159.004 10.0273L159.109 9.67578C159.109 9.48828 159.121 9.32422 159.145 9.18359L159.18 7.14453V5.24609C159.18 4.87109 159.156 4.55469 159.109 4.29688C159.062 4.01562 159.027 3.81641 159.004 3.69922C159.004 3.58203 159.039 3.5 159.109 3.45312C159.133 3.42969 159.191 3.41797 159.285 3.41797C159.449 3.41797 159.766 3.52344 160.234 3.73438C160.633 3.92188 160.797 4.15625 160.727 4.4375C160.68 4.60156 160.633 4.84766 160.586 5.17578L160.48 9.21875C160.48 9.33594 160.492 9.42969 160.516 9.5C160.562 9.54688 160.609 9.57031 160.656 9.57031C160.938 9.57031 161.277 9.48828 161.676 9.32422C162.426 9.08984 163.07 8.85547 163.609 8.62109L164.383 8.30469V5.98438C164.383 5.04688 164.324 4.14453 164.207 3.27734C164.184 3.20703 164.172 3.125 164.172 3.03125C164.172 2.79688 164.266 2.67969 164.453 2.67969C164.477 2.67969 164.605 2.72656 164.84 2.82031C165.191 3.00781 165.449 3.17188 165.613 3.3125C165.777 3.45312 165.871 3.53516 165.895 3.55859C165.988 3.62891 166.035 3.69922 166.035 3.76953C166.035 3.81641 166.012 3.875 165.965 3.94531C165.941 4.01562 165.918 4.07422 165.895 4.12109L165.789 5.17578L165.754 8.41016L165.789 11.5391C165.789 12.0781 165.754 12.5469 165.684 12.9453C165.566 13.4375 165.379 13.6836 165.121 13.6836ZM158.652 19.4492C158.395 19.4492 158.078 19.25 157.703 18.8516C157.422 18.5703 157.281 18.3594 157.281 18.2188C157.281 18.1484 157.328 18.1133 157.422 18.1133C157.516 18.0898 157.633 18.0781 157.773 18.0781L158.547 18.043C158.992 18.043 159.285 18.0312 159.426 18.0078C159.871 18.0078 160.246 17.9961 160.551 17.9727C162.566 17.7852 163.926 17.6328 164.629 17.5156C164.98 17.4688 165.297 17.4219 165.578 17.375C165.859 17.3047 166.082 17.2695 166.246 17.2695C166.574 17.2695 166.902 17.4336 167.23 17.7617C167.488 18.0195 167.617 18.2305 167.617 18.3945C167.617 18.5352 167.535 18.6289 167.371 18.6758C167.254 18.6992 166.562 18.7461 165.297 18.8164C164.594 18.8398 163.727 18.8984 162.695 18.9922C161.664 19.0859 160.762 19.1797 159.988 19.2734C159.848 19.2969 159.648 19.332 159.391 19.3789C159.133 19.4258 158.887 19.4492 158.652 19.4492ZM163.363 33.9688C162.637 33.9688 162.074 33.9453 161.676 33.8984C161.301 33.8516 160.984 33.7109 160.727 33.4766C160.281 33.1484 159.977 32.4336 159.812 31.332L159.707 30.207C159.707 29.9258 159.684 29.5742 159.637 29.1523C159.262 29.1992 158.992 29.2461 158.828 29.293C158.781 29.3164 158.699 29.3516 158.582 29.3984C158.488 29.4219 158.418 29.4336 158.371 29.4336C158.207 29.4336 158.055 29.3867 157.914 29.293C157.773 29.1992 157.598 29.0234 157.387 28.7656C157.223 28.5547 157.141 28.4141 157.141 28.3438C157.141 28.2734 157.223 28.2266 157.387 28.2031C157.551 28.1797 157.773 28.168 158.055 28.168C158.453 28.168 158.969 28.1211 159.602 28.0273L159.566 27.5352C159.566 26.5977 159.508 25.8008 159.391 25.1445L159.355 24.8984C159.355 24.5703 159.484 24.4414 159.742 24.5117C160.023 24.6055 160.281 24.7227 160.516 24.8633C160.703 24.957 160.832 25.0508 160.902 25.1445C160.973 25.2148 160.996 25.3203 160.973 25.4609L160.867 26.9727V27.8867L163.961 27.5703C163.961 27.4062 163.973 27.0195 163.996 26.4102C164.02 25.7773 164.02 25.3672 163.996 25.1797C163.996 24.9922 163.973 24.8164 163.926 24.6523C163.902 24.4648 163.879 24.3125 163.855 24.1953C163.855 24.0078 163.949 23.9141 164.137 23.9141C164.324 23.9141 164.559 24.0195 164.84 24.2305C165.168 24.4414 165.379 24.6289 165.473 24.793C165.59 24.957 165.613 25.1562 165.543 25.3906C165.426 25.7656 165.344 26.1875 165.297 26.6562C165.25 27.125 165.227 27.4062 165.227 27.5C165.508 27.4766 165.766 27.4414 166 27.3945C166.234 27.3477 166.387 27.3242 166.457 27.3242C166.645 27.2773 166.867 27.2539 167.125 27.2539C167.266 27.2773 167.465 27.418 167.723 27.6758C167.934 27.957 168.039 28.1797 168.039 28.3438C168.039 28.5781 167.816 28.6719 167.371 28.625C166.973 28.5547 166.574 28.5195 166.176 28.5195C165.777 28.5195 165.438 28.5312 165.156 28.5547C165.086 29.3984 164.945 30.2305 164.734 31.0508C164.688 31.2383 164.605 31.4023 164.488 31.543C164.371 31.6602 164.266 31.7188 164.172 31.7188C164.008 31.7188 163.902 31.6602 163.855 31.543C163.832 31.4023 163.82 31.1914 163.82 30.9102C163.867 30.3008 163.891 29.5391 163.891 28.625C163.258 28.6719 162.766 28.7188 162.414 28.7656C161.875 28.8828 161.371 28.9531 160.902 28.9766C160.879 29.9375 160.926 30.793 161.043 31.543C161.113 32.0352 161.254 32.375 161.465 32.5625C161.605 32.6797 161.77 32.75 161.957 32.7734C162.168 32.7969 162.379 32.8086 162.59 32.8086C162.801 32.8086 162.941 32.8086 163.012 32.8086C163.738 32.8086 164.418 32.7734 165.051 32.7031C165.238 32.6797 165.402 32.6328 165.543 32.5625C165.707 32.4922 165.824 32.457 165.895 32.457C166.105 32.457 166.316 32.5273 166.527 32.668C166.738 32.8086 166.844 32.9727 166.844 33.1602C166.844 33.3477 166.738 33.4883 166.527 33.582C166.34 33.6758 166.035 33.7578 165.613 33.8281C164.863 33.9219 164.113 33.9688 163.363 33.9688ZM173.383 17.9727C173.664 17.9727 173.805 18.1016 173.805 18.3594C173.805 18.5 173.676 18.6992 173.418 18.957C172.715 19.8242 171.32 21.4766 169.234 23.9141C169.07 24.125 168.918 24.2305 168.777 24.2305C168.66 24.2305 168.402 24.0547 168.004 23.7031C167.676 23.4219 167.512 23.1875 167.512 23C167.512 22.7891 167.688 22.5898 168.039 22.4023C168.578 22.0977 169.387 21.4883 170.465 20.5742C171.543 19.6133 172.34 18.8516 172.855 18.2891C173.066 18.0781 173.242 17.9727 173.383 17.9727ZM134.992 26.3398C134.875 26.1523 134.781 25.9883 134.711 25.8477C134.617 25.707 134.523 25.5195 134.43 25.2852V24.4414L135.379 24.6523L136.328 25.0742C136.75 25.2617 137.125 25.4492 137.453 25.6367C137.781 25.8477 138.051 26.1641 138.262 26.5859C138.426 26.9375 138.508 27.3477 138.508 27.8164C138.484 28.2852 138.367 28.6484 138.156 28.9062C137.969 29.1641 137.723 29.293 137.418 29.293C137.113 29.293 136.797 29.1055 136.469 28.7305C136.281 28.543 136.105 28.2734 135.941 27.9219L135.414 27.043L131.617 29.7852L130.352 30.8398L129.508 31.6836L129.086 31.9648C128.852 31.9648 128.617 31.8125 128.383 31.5078C128.172 31.25 127.984 30.9336 127.82 30.5586C127.68 30.2539 127.609 29.9609 127.609 29.6797L127.82 29.0117C127.961 28.6367 128.066 28.25 128.137 27.8516C128.207 27.4297 128.266 26.9492 128.312 26.4102C128.359 25.8945 128.406 25.1445 128.453 24.1602L128.629 18.043C128.629 17.7148 128.617 17.375 128.594 17.0234C128.547 16.6719 128.488 16.3789 128.418 16.1445C128.348 15.9102 128.242 15.6992 128.102 15.5117L127.82 15.2305L127.75 14.8789C127.844 14.7383 128.008 14.668 128.242 14.668C128.805 14.668 129.25 14.7617 129.578 14.9492L130.105 15.2305C130.691 15.1602 131.172 15.0898 131.547 15.0195C131.945 14.9727 132.438 14.8789 133.023 14.7383C133.586 14.5977 134.02 14.4805 134.324 14.3867C134.629 14.293 134.945 14.1758 135.273 14.0352C135.602 13.8945 135.859 13.8242 136.047 13.8242C136.234 13.8477 136.457 13.918 136.715 14.0352L137.453 14.4219L137.91 14.7383C138.332 14.9961 138.602 15.207 138.719 15.3711L138.754 16.0039L138.402 16.5312C138.332 16.6719 138.227 16.9062 138.086 17.2344L137.91 17.7617L137.031 21.0312L136.68 22.4023C136.492 22.8711 136.305 23.1641 136.117 23.2812L135.73 23.4219H135.484L135.027 22.9648C134.395 23.0352 133.914 23.082 133.586 23.1055L131.16 23.457L130.281 23.5273L130.07 27.3945L130.211 28.168C130.398 28.168 130.609 28.1211 130.844 28.0273L134.992 26.3398ZM130.281 22.3672C130.703 22.3438 131.031 22.3203 131.266 22.2969C131.5 22.2734 131.852 22.2031 132.32 22.0859C132.836 21.9688 133.281 21.875 133.656 21.8047C133.938 21.7578 134.195 21.7344 134.43 21.7344L135.098 21.8047L135.695 19.0977C135.109 19.1445 134.676 19.1914 134.395 19.2383L132.707 19.5195C132.215 19.6133 131.816 19.6602 131.512 19.6602L130.949 19.5898L130.422 19.4141L130.281 22.3672ZM130.457 18.6758C130.902 18.6523 131.254 18.6172 131.512 18.5703C131.77 18.5234 132.203 18.418 132.812 18.2539C133.375 18.0898 133.797 17.9961 134.078 17.9727C134.477 17.9727 134.863 18.043 135.238 18.1836L135.801 18.3945L135.977 17.3047C136.023 17 136.047 16.6602 136.047 16.2852C136.047 15.9102 135.988 15.6641 135.871 15.5469C135.754 15.4297 135.59 15.3711 135.379 15.3711C135.145 15.3945 134.852 15.4531 134.5 15.5469C134.172 15.6172 133.633 15.7227 132.883 15.8633C132.109 16.0039 131.617 16.0742 131.406 16.0742L130.668 16.1094L130.457 18.6758ZM143.148 17.1992C143.055 17.5742 142.996 17.8555 142.973 18.043C142.949 18.2305 142.914 18.5352 142.867 18.957C142.82 19.3789 142.797 19.7305 142.797 20.0117L142.691 27.1133C142.668 28.0977 142.586 29.2461 142.445 30.5586L142.305 32.0703C142.211 32.9844 142.047 33.7695 141.812 34.4258C141.578 35.0586 141.367 35.375 141.18 35.375C141.016 35.3516 140.875 35.0117 140.758 34.3555C140.641 33.7227 140.57 32.9844 140.547 32.1406C140.523 31.5781 140.512 31.0156 140.512 30.4531V29.5742L140.652 20.3633C140.676 19.7539 140.688 19.2617 140.688 18.8867C140.688 18.5117 140.676 18.2539 140.652 18.1133C140.629 17.8086 140.594 17.457 140.547 17.0586C140.5 16.6602 140.418 16.332 140.301 16.0742L140.16 15.3711L140.336 15.1602C140.547 15.1602 140.805 15.207 141.109 15.3008C141.719 15.4883 142.117 15.6406 142.305 15.7578L142.867 16.1094L144.59 15.7227C145.176 15.582 145.773 15.418 146.383 15.2305L147.156 15.0195C147.531 14.9023 147.859 14.7734 148.141 14.6328L148.633 14.457C148.797 14.457 148.996 14.5273 149.23 14.668C149.465 14.8086 149.711 14.9727 149.969 15.1602C150.25 15.3477 150.52 15.5586 150.777 15.793C150.988 15.9805 151.059 16.2617 150.988 16.6367C150.801 16.8945 150.672 17.1289 150.602 17.3398C150.555 17.5508 150.508 17.832 150.461 18.1836C150.414 18.5586 150.391 18.9453 150.391 19.3438L150.18 23.1055C150.133 24.043 150.062 24.7695 149.969 25.2852C149.898 25.8008 149.746 26.2578 149.512 26.6562C149.254 27.0547 148.961 27.3711 148.633 27.6055L148 27.8867C147.812 27.8398 147.625 27.6992 147.438 27.4648C147.227 27.207 146.934 26.8789 146.559 26.4805C146.207 26.0586 145.867 25.6836 145.539 25.3555L144.906 24.793L144.695 24.3008C144.836 24.2773 145 24.3008 145.188 24.3711L145.996 24.6172C146.465 24.7812 146.828 24.875 147.086 24.8984C147.297 24.8984 147.473 24.8633 147.613 24.793C147.824 24.6523 147.953 24.3477 148 23.8789C148.07 23.3633 148.117 22.8711 148.141 22.4023L148.281 17.832C148.281 17.293 148.258 16.9414 148.211 16.7773L148.07 16.4961C147.93 16.3555 147.719 16.2852 147.438 16.2852C147.203 16.2852 146.805 16.332 146.242 16.4258L144.66 16.7422L143.148 17.1992ZM143.852 6.40625L148.281 5.52734C148.516 5.48047 148.773 5.41016 149.055 5.31641L149.688 5.17578C149.992 5.15234 150.25 5.16406 150.461 5.21094C150.742 5.28125 151.035 5.41016 151.34 5.59766L151.832 5.94922C151.855 6.08984 151.773 6.25391 151.586 6.44141C151.398 6.58203 151.129 6.6875 150.777 6.75781L149.477 7.00391C149.102 7.05078 148.574 7.12109 147.895 7.21484C147.215 7.28516 146.605 7.35547 146.066 7.42578C145.527 7.51953 145.164 7.56641 144.977 7.56641C144.602 7.56641 144.238 7.51953 143.887 7.42578L143.289 7.32031L142.27 8.72656C141.871 9.24219 141.391 9.76953 140.828 10.3086C140.219 10.8711 139.82 11.2109 139.633 11.3281L139 11.7148L138.578 11.8555L138.332 11.6797L138.578 11.293L139.352 10.3086C139.68 9.91016 139.949 9.55859 140.16 9.25391C140.371 8.92578 140.617 8.51562 140.898 8.02344C141.203 7.53125 141.449 7.09766 141.637 6.72266C141.801 6.37109 141.953 6.01953 142.094 5.66797C142.234 5.29297 142.34 4.98828 142.41 4.75391C142.48 4.49609 142.562 4.23828 142.656 3.98047C142.703 3.69922 142.727 3.44141 142.727 3.20703L142.938 2.64453L143.184 2.53906C143.348 2.53906 143.535 2.58594 143.746 2.67969C144.027 2.79688 144.32 2.94922 144.625 3.13672C144.93 3.32422 145.164 3.52344 145.328 3.73438L145.539 4.15625L145.469 4.47266C145.352 4.58984 145.188 4.75391 144.977 4.96484C144.742 5.19922 144.531 5.43359 144.344 5.66797L143.852 6.40625ZM132.25 7.28516L133.234 7.10938C133.656 7.03906 134.324 6.86328 135.238 6.58203L135.766 6.40625L136.645 6.16016L137.172 6.26562C137.453 6.33594 137.664 6.39453 137.805 6.44141C137.945 6.51172 138.086 6.60547 138.227 6.72266L138.473 6.96875C138.496 7.13281 138.438 7.27344 138.297 7.39062C138.109 7.50781 137.805 7.61328 137.383 7.70703L136.539 7.91797C136.352 7.96484 135.883 8.03516 135.133 8.12891L133.938 8.30469C133.633 8.32812 133.387 8.33984 133.199 8.33984L132.742 8.30469L131.828 7.98828L130.773 9.21875C130.445 9.61719 130.07 10.0156 129.648 10.4141C129.227 10.8359 128.84 11.1758 128.488 11.4336C128.137 11.668 127.762 11.9023 127.363 12.1367L126.168 12.5234C126.145 12.3594 126.203 12.207 126.344 12.0664L126.941 11.5039C127.293 11.1758 127.609 10.8477 127.891 10.5195C128.172 10.2383 128.512 9.81641 128.91 9.25391C129.309 8.69141 129.672 8.12891 130 7.56641C130.328 7.05078 130.609 6.58203 130.844 6.16016C131.055 5.73828 131.23 5.33984 131.371 4.96484C131.512 4.58984 131.582 4.21484 131.582 3.83984L131.863 3.3125C132.168 3.3125 132.496 3.41797 132.848 3.62891C133.199 3.81641 133.434 3.96875 133.551 4.08594C133.691 4.20313 133.82 4.33203 133.938 4.47266L134.148 5.17578C134.102 5.31641 133.984 5.44531 133.797 5.5625L133.41 5.80859L132.742 6.72266L132.25 7.28516ZM132.391 10.0625C132.648 10.0156 132.883 10.0039 133.094 10.0273L133.867 10.2031C134.078 10.2734 134.312 10.3438 134.57 10.4141C134.828 10.4844 135.039 10.5898 135.203 10.7305C135.391 10.8711 135.52 11.0117 135.59 11.1523C135.66 11.293 135.695 11.5039 135.695 11.7852C135.695 12.1602 135.602 12.4414 135.414 12.6289C135.25 12.8164 135.039 12.9219 134.781 12.9453C134.57 12.9453 134.312 12.8164 134.008 12.5586C133.797 12.3945 133.516 12.1133 133.164 11.7148C132.812 11.3398 132.555 11.0469 132.391 10.8359C132.25 10.625 132.25 10.3672 132.391 10.0625ZM144.414 8.90234L145.293 9.04297C145.926 9.18359 146.465 9.35938 146.91 9.57031C147.332 9.78125 147.648 10.0273 147.859 10.3086C148.047 10.5898 148.141 10.9648 148.141 11.4336C148.117 11.9961 147.918 12.3594 147.543 12.5234C147.238 12.5234 146.945 12.4297 146.664 12.2422C146.289 12.0312 145.926 11.7266 145.574 11.3281L144.695 10.2383L144.027 8.9375C144.191 8.89062 144.32 8.87891 144.414 8.90234ZM212.652 13.4727C212.395 13.4727 212.078 13.2734 211.703 12.875C211.422 12.5938 211.281 12.3828 211.281 12.2422C211.281 12.1719 211.328 12.1367 211.422 12.1367C211.516 12.1133 211.633 12.1016 211.773 12.1016L212.547 12.0664C212.992 12.0664 213.285 12.0547 213.426 12.0312C213.871 12.0312 214.246 12.0195 214.551 11.9961C216.566 11.8086 217.926 11.6563 218.629 11.5391C218.98 11.4922 219.297 11.4453 219.578 11.3984C219.859 11.3281 220.082 11.293 220.246 11.293C220.574 11.293 220.902 11.457 221.23 11.7852C221.488 12.043 221.617 12.2539 221.617 12.418C221.617 12.5586 221.535 12.6523 221.371 12.6992C221.254 12.7227 220.562 12.7695 219.297 12.8398C218.594 12.8633 217.727 12.9219 216.695 13.0156C215.664 13.1094 214.762 13.2031 213.988 13.2969C213.848 13.3203 213.648 13.3555 213.391 13.4023C213.133 13.4492 212.887 13.4727 212.652 13.4727ZM220.914 29.4336C220.891 29.457 220.832 29.4688 220.738 29.4688C220.551 29.4688 220.281 29.3398 219.93 29.082C219.133 28.2852 218.09 27.3008 216.801 26.1289C216.191 26.7383 215.617 27.2656 215.078 27.7109C214.891 27.8516 214.562 28.0625 214.094 28.3438C213.414 28.7422 212.758 28.9883 212.125 29.082H211.914C211.703 29.082 211.574 29.0586 211.527 29.0117C211.504 28.9883 211.551 28.9414 211.668 28.8711C211.809 28.8008 211.914 28.7422 211.984 28.6953C212.125 28.625 212.523 28.3672 213.18 27.9219C213.508 27.6875 213.977 27.2891 214.586 26.7266C215.195 26.1641 215.641 25.707 215.922 25.3555L214.48 24.2305C214.223 24.043 213.941 23.8438 213.637 23.6328C213.355 23.3984 213.156 23.2461 213.039 23.1758L213.004 23.0703C213.004 22.9297 213.121 22.8594 213.355 22.8594C213.637 22.8594 214.094 23.0352 214.727 23.3867L216.52 24.5469C216.918 24.0312 217.316 23.4688 217.715 22.8594C218.137 22.2266 218.359 21.8516 218.383 21.7344C218.406 21.6641 218.395 21.6055 218.348 21.5586C218.324 21.4883 218.277 21.4531 218.207 21.4531H217.504L216.238 21.5586C215.605 21.6055 214.973 21.6875 214.34 21.8047C214.27 21.8281 214.152 21.8633 213.988 21.9102C213.824 21.957 213.684 21.9805 213.566 21.9805C213.52 21.9805 213.32 21.8516 212.969 21.5938C212.641 21.3125 212.465 21.1367 212.441 21.0664C212.418 21.043 212.406 21.0078 212.406 20.9609C212.406 20.8438 212.535 20.7969 212.793 20.8203C213.051 20.8203 213.215 20.8203 213.285 20.8203C213.941 20.8203 214.891 20.7617 216.133 20.6445L217.328 20.5391L218.418 20.3984C218.77 20.3047 218.969 20.2578 219.016 20.2578H219.086C219.203 20.2578 219.309 20.293 219.402 20.3633C219.496 20.4336 219.566 20.5039 219.613 20.5742C219.66 20.6445 219.695 20.6914 219.719 20.7148C219.742 20.7383 219.812 20.8086 219.93 20.9258C220.047 21.0195 220.117 21.1133 220.141 21.207C220.188 21.2773 220.211 21.3594 220.211 21.4531C220.211 21.6641 220.129 21.8164 219.965 21.9102C219.848 21.957 219.637 22.2031 219.332 22.6484C218.816 23.4688 218.195 24.3477 217.469 25.2852C217.867 25.543 218.383 25.918 219.016 26.4102C219.297 26.5977 219.754 26.9141 220.387 27.3594C220.668 27.5703 220.879 27.8516 221.02 28.2031C221.113 28.5781 221.16 28.8594 221.16 29.0469C221.137 29.2344 221.055 29.3633 220.914 29.4336ZM227.383 14.1055C227.664 14.1055 227.805 14.2344 227.805 14.4922C227.805 14.6328 227.676 14.832 227.418 15.0898C226.715 15.957 225.32 17.6094 223.234 20.0469C223.07 20.2578 222.918 20.3633 222.777 20.3633C222.66 20.3633 222.402 20.1875 222.004 19.8359C221.676 19.5547 221.512 19.3203 221.512 19.1328C221.512 18.9219 221.688 18.7227 222.039 18.5352C222.578 18.2305 223.387 17.6211 224.465 16.707C225.543 15.7461 226.34 14.9844 226.855 14.4219C227.066 14.2109 227.242 14.1055 227.383 14.1055ZM183.895 26.0938L185.406 26.2695C185.734 26.3164 186.145 26.4102 186.637 26.5508C187.129 26.6914 187.926 26.9609 189.027 27.3594C190.129 27.7578 191.113 28.0859 191.98 28.3438C192.871 28.6016 193.891 28.8477 195.039 29.082C196.211 29.3164 197.312 29.5039 198.344 29.6445C199.422 29.7617 200.547 29.8555 201.719 29.9258C202.891 29.9727 204.039 30.0078 205.164 30.0312C206.289 30.0547 206.992 30.0664 207.273 30.0664L208.82 30.1016C209.148 30.125 209.277 30.3008 209.207 30.6289L208.117 31.2617C207.836 31.4023 207.332 31.5898 206.605 31.8242L204.004 32.7383C203.371 32.9727 202.762 33.1719 202.176 33.3359C201.59 33.5 201.109 33.582 200.734 33.582C200.266 33.582 199.668 33.4414 198.941 33.1602C198.168 32.8789 197.02 32.4102 195.496 31.7539C193.973 31.0977 192.859 30.6055 192.156 30.2773L188.922 28.9766C188.031 28.6016 187.352 28.332 186.883 28.168C186.414 28.0273 185.887 27.8984 185.301 27.7812C184.715 27.6875 184.164 27.6289 183.648 27.6055C183.016 27.6055 182.359 27.6523 181.68 27.7461C181 27.8398 180.508 27.9336 180.203 28.0273C179.922 28.1211 179.641 28.2383 179.359 28.3789L178.832 28.5898C178.621 28.5898 178.422 28.5312 178.234 28.4141C178.047 28.2969 177.836 28.1328 177.602 27.9219C177.391 27.7109 177.215 27.5234 177.074 27.3594C176.934 27.1719 176.816 26.9023 176.723 26.5508C176.746 26.3633 176.922 26.2461 177.25 26.1992C177.484 26.2461 177.789 26.2812 178.164 26.3047L179.148 26.4102L180.203 26.3047L181.469 26.1992L182.699 26.1289L182.91 25.7773C182.934 25.5898 182.969 25.332 183.016 25.0039C183.016 24.7227 182.992 24.4414 182.945 24.1602C182.898 23.832 182.793 23.4922 182.629 23.1406C182.488 22.7891 182.336 22.4727 182.172 22.1914C181.984 21.8867 181.797 21.6289 181.609 21.418L181.223 20.7852C181.223 20.5977 181.258 20.4219 181.328 20.2578L182.242 18.1133L182.453 17.4102L182.172 17.1289C182.031 17.1523 181.891 17.1875 181.75 17.2344C181.586 17.3047 181.281 17.3984 180.836 17.5156C180.367 17.6328 179.969 17.7266 179.641 17.7969C179.406 17.7969 179.195 17.7852 179.008 17.7617C178.68 17.7617 178.422 17.7266 178.234 17.6562C178.047 17.5859 177.859 17.3984 177.672 17.0938L178.199 16.8828L178.867 16.707C179.266 16.6133 179.664 16.4961 180.062 16.3555C180.484 16.2148 180.941 16.0273 181.434 15.793L182.629 15.1602L183.262 14.8789C183.473 14.8789 183.684 14.9258 183.895 15.0195C184.152 15.1133 184.422 15.2539 184.703 15.4414C185.031 15.6289 185.301 15.8281 185.512 16.0391L185.828 16.4609C185.805 16.6719 185.688 16.8711 185.477 17.0586L184.879 17.5508C184.668 17.7383 184.469 17.9375 184.281 18.1484L182.875 19.8008C182.734 19.9883 182.594 20.1641 182.453 20.3281V20.9258L183.297 21.5938C183.648 21.875 183.93 22.2031 184.141 22.5781C184.375 22.9297 184.492 23.3281 184.492 23.7734C184.492 24.1953 184.422 24.5938 184.281 24.9688C184.188 25.2734 184.07 25.5195 183.93 25.707L183.895 26.0938ZM189.977 11.5742C189.461 11.668 189.062 11.7148 188.781 11.7148C188.5 11.7148 188.23 11.7031 187.973 11.6797C187.715 11.6563 187.457 11.5742 187.199 11.4336L186.812 11.1523C186.812 10.9414 186.895 10.8242 187.059 10.8008L187.656 10.7305L188.746 10.5547C189.215 10.4844 189.672 10.3789 190.117 10.2383L191.312 9.88672C190.984 9.55859 190.75 9.30078 190.609 9.11328C190.469 8.92578 190.305 8.63281 190.117 8.23438C189.953 7.83594 189.836 7.51953 189.766 7.28516L189.449 6.51172V5.98438H189.73C189.988 6.03125 190.293 6.125 190.645 6.26562C190.996 6.40625 191.324 6.57031 191.629 6.75781C191.934 6.92187 192.156 7.14453 192.297 7.42578C192.438 7.70703 192.531 8.03516 192.578 8.41016L192.543 8.90234L192.297 9.64062L193.141 9.28906C193.422 9.17187 193.645 9.10156 193.809 9.07812C193.973 9.07812 194.137 9.10156 194.301 9.14844L194.934 9.35938C195.145 9.45312 195.32 9.55859 195.461 9.67578L195.672 10.0625L195.215 10.3789C194.91 10.4961 194.547 10.6133 194.125 10.7305L192.648 11.082L191.031 11.4336C191.477 11.6445 191.793 11.832 191.98 11.9961L192.121 12.5938L191.77 13.0859L191.453 13.7188L191.031 14.5977L192.051 14.3164C192.402 14.2227 192.707 14.1172 192.965 14L193.562 13.8242C193.773 13.8008 193.949 13.8242 194.09 13.8945C194.324 13.9883 194.57 14.1055 194.828 14.2461C195.109 14.3867 195.344 14.5273 195.531 14.668L195.812 15.0898C195.812 15.2539 195.742 15.4531 195.602 15.6875L195.25 16.2852C195.156 16.4492 195.027 17 194.863 17.9375L194.582 19.5898L196.41 19.3789L199.996 18.8867C199.949 18.6758 199.891 18.4414 199.82 18.1836C199.727 17.9492 199.539 17.7266 199.258 17.5156C198.977 17.3047 198.883 17.0117 198.977 16.6367L199.891 16.8125L201.438 14.9492L201.859 14.2461C201.836 14.0586 201.695 13.918 201.438 13.8242C201.227 13.8008 200.969 13.8359 200.664 13.9297L199.223 14.457C198.848 14.5977 198.52 14.7383 198.238 14.8789L197.641 15.0898C197.477 15.0898 197.266 15.0078 197.008 14.8438C196.727 14.6797 196.504 14.5273 196.34 14.3867L196.094 14.0703C196.094 13.9063 196.188 13.8008 196.375 13.7539L197.008 13.6836L198.203 13.5078C198.625 13.4375 199.199 13.3086 199.926 13.1211C200.652 12.9102 201.203 12.7227 201.578 12.5586L202.246 12.3477C202.504 12.3477 202.773 12.3945 203.055 12.4883C203.312 12.6055 203.617 12.7695 203.969 12.9805C204.32 13.168 204.637 13.3789 204.918 13.6133L205.305 14.0703C205.281 14.2344 205.152 14.375 204.918 14.4922L204.004 14.9492L202.141 16.1445L200.383 17.2344C200.57 17.3984 200.734 17.5742 200.875 17.7617C201.016 17.9023 201.109 18.043 201.156 18.1836L201.367 18.6406L203.195 18.3242C204.555 18.0898 205.316 17.9727 205.48 17.9727C205.645 17.9961 205.855 18.043 206.113 18.1133C206.371 18.1836 206.605 18.2773 206.816 18.3945C207.027 18.4883 207.25 18.6289 207.484 18.8164L207.766 19.2383L207.625 19.4844L207.344 19.5547L201.859 19.8711L202.105 21.4883C202.176 21.957 202.211 22.5312 202.211 23.2109C202.211 23.8906 202.164 24.5469 202.07 25.1797C201.977 25.625 201.848 26.0352 201.684 26.4102C201.52 26.7852 201.309 27.1484 201.051 27.5C200.793 27.8516 200.523 28.1211 200.242 28.3086L199.68 28.5195C199.469 28.4727 199.234 28.2852 198.977 27.957C198.695 27.6289 198.484 27.3594 198.344 27.1484C198.18 26.9609 198.016 26.7852 197.852 26.6211C197.664 26.4336 197.477 26.2578 197.289 26.0938L196.867 25.3555L197.5 25.4609C198.039 25.6016 198.426 25.6836 198.66 25.707L199.152 25.6367C199.41 25.5664 199.633 25.4141 199.82 25.1797C200.008 24.9688 200.148 24.6055 200.242 24.0898C200.336 23.5742 200.406 22.9883 200.453 22.332C200.477 22.0273 200.488 21.7695 200.488 21.5586L200.453 21.207L200.312 20.082L198.695 20.293C198.344 20.3398 197.898 20.4453 197.359 20.6094C196.914 20.7266 196.574 20.7852 196.34 20.7852C196.129 20.7852 195.883 20.7148 195.602 20.5742C195.32 20.4336 195.109 20.293 194.969 20.1523L194.547 19.8359L194.195 21.6641C194.078 22.1562 193.926 22.6953 193.738 23.2812C193.574 23.8672 193.387 24.3359 193.176 24.6875C192.965 25.0391 192.695 25.3789 192.367 25.707C192.016 26.0586 191.688 26.293 191.383 26.4102L191.066 26.4805L190.609 26.4102L190.398 25.9883C190.258 25.8008 190.117 25.543 189.977 25.2148L189.695 24.6875C189.602 24.5234 189.438 24.2539 189.203 23.8789L188.781 23.3867L188.887 22.9648L189.555 23.2461L190.258 23.6328C190.539 23.7734 190.832 23.8438 191.137 23.8438C191.418 23.7266 191.652 23.457 191.84 23.0352C192.027 22.6367 192.25 21.9219 192.508 20.8906C192.742 19.8359 192.906 19.0273 193 18.4648L193.211 16.4961L193.281 16.0742C193.281 15.7695 193.234 15.5586 193.141 15.4414C193 15.3008 192.742 15.2305 192.367 15.2305C192.109 15.2773 191.828 15.3945 191.523 15.582L190.855 15.793L189.871 17.6211C189.66 18.1367 189.402 18.6289 189.098 19.0977C188.816 19.5664 188.477 20.0469 188.078 20.5391C187.703 21.0312 187.34 21.418 186.988 21.6992C186.637 22.0039 186.32 22.2617 186.039 22.4727L185.406 22.8594L184.949 22.9297C184.949 22.7656 185.008 22.5898 185.125 22.4023L185.582 21.9102C185.957 21.4414 186.297 20.9844 186.602 20.5391C186.93 20.0938 187.293 19.5078 187.691 18.7812C188.09 18.0781 188.43 17.3633 188.711 16.6367C189.016 15.9336 189.285 15.1836 189.52 14.3867C189.777 13.5898 189.906 12.957 189.906 12.4883L189.977 11.5742ZM198.766 9.18359L202.422 8.19922C203.219 7.96484 203.699 7.84766 203.863 7.84766C204.027 7.87109 204.215 7.91797 204.426 7.98828C204.637 8.05859 204.824 8.12891 204.988 8.19922C205.129 8.24609 205.27 8.33984 205.41 8.48047L205.586 8.76172C205.539 8.94922 205.398 9.08984 205.164 9.18359C204.93 9.27734 204.555 9.35938 204.039 9.42969L201.367 9.99219L199.82 10.2031L198.906 10.3086L198.133 10.2031C197.852 10.4844 197.594 10.7656 197.359 11.0469L196.902 11.5391L196.234 12.0664L195.672 12.4883L195.285 12.3477L195.707 11.5742L196.34 10.5195C196.645 10.0273 196.867 9.61719 197.008 9.28906C197.195 8.9375 197.406 8.49219 197.641 7.95312C197.875 7.39062 198.039 6.93359 198.133 6.58203C198.227 6.23047 198.297 5.85547 198.344 5.45703C198.367 5.03516 198.391 4.75391 198.414 4.61328L198.66 4.29688C198.801 4.27344 198.977 4.30859 199.188 4.40234C199.422 4.49609 199.633 4.58984 199.82 4.68359L200.523 5.10547C200.852 5.29297 201.004 5.55078 200.98 5.87891C200.934 6.01953 200.805 6.19531 200.594 6.40625C200.359 6.61719 200.125 6.92187 199.891 7.32031L198.766 9.18359ZM180.836 8.33984L180.59 7.32031L181.258 7.42578L182.102 7.63672L183.086 7.98828C183.32 8.08203 183.578 8.19922 183.859 8.33984C184.141 8.48047 184.352 8.64453 184.492 8.83203C184.633 9.01953 184.738 9.25391 184.809 9.53516L184.844 9.85156C184.844 10.1094 184.82 10.3438 184.773 10.5547C184.68 10.9062 184.527 11.1641 184.316 11.3281L183.895 11.5742C183.613 11.5742 183.355 11.457 183.121 11.2227L182.383 10.3789L181.609 9.32422C181.211 8.85547 180.953 8.52734 180.836 8.33984ZM270.414 17.4453C270.273 17.4453 270.086 17.293 269.852 16.9883C269.617 16.6602 269.512 16.3789 269.535 16.1445C269.582 15.957 269.617 15.4297 269.641 14.5625C269.664 13.9766 269.676 12.9453 269.676 11.4688C269.676 10.4375 269.664 9.74609 269.641 9.39453L268.48 9.5C267.66 9.61719 266.957 9.67578 266.371 9.67578C266.207 9.67578 265.973 9.54688 265.668 9.28906C265.363 9.03125 265.211 8.84375 265.211 8.72656C265.211 8.53906 265.41 8.46875 265.809 8.51562C266.066 8.53906 266.828 8.52734 268.094 8.48047C269.828 8.36328 271.082 8.29297 271.855 8.26953C272.254 8.24609 272.617 8.21094 272.945 8.16406C273.297 8.09375 273.543 8.04687 273.684 8.02344C273.895 8 274.082 8.02344 274.246 8.09375C274.41 8.16406 274.562 8.25781 274.703 8.375C274.867 8.46875 274.996 8.53906 275.09 8.58594C275.301 8.72656 275.406 8.85547 275.406 8.97266C275.406 9.06641 275.348 9.16016 275.23 9.25391C275.137 9.32422 275.031 9.35938 274.914 9.35938C274.797 9.35938 274.633 9.34766 274.422 9.32422C274.234 9.30078 274.023 9.28906 273.789 9.28906C272.922 9.28906 272.031 9.3125 271.117 9.35938C271.094 9.54688 271.082 10.0156 271.082 10.7656C271.035 12.0312 271.012 13.2734 271.012 14.4922V15.8633V16.1797C271.012 16.5781 270.977 16.8359 270.906 16.9531C270.695 17.2812 270.531 17.4453 270.414 17.4453ZM266.652 25.7773C266.395 25.7773 266.078 25.5781 265.703 25.1797C265.422 24.8984 265.281 24.6875 265.281 24.5469C265.281 24.4766 265.328 24.4414 265.422 24.4414C265.516 24.418 265.633 24.4062 265.773 24.4062L266.547 24.3711C266.992 24.3711 267.285 24.3594 267.426 24.3359C267.871 24.3359 268.246 24.3242 268.551 24.3008C270.566 24.1133 271.926 23.9609 272.629 23.8438C272.98 23.7969 273.297 23.75 273.578 23.7031C273.859 23.6328 274.082 23.5977 274.246 23.5977C274.574 23.5977 274.902 23.7617 275.23 24.0898C275.488 24.3477 275.617 24.5586 275.617 24.7227C275.617 24.8633 275.535 24.957 275.371 25.0039C275.254 25.0273 274.562 25.0742 273.297 25.1445C272.594 25.168 271.727 25.2266 270.695 25.3203C269.664 25.4141 268.762 25.5078 267.988 25.6016C267.848 25.625 267.648 25.6602 267.391 25.707C267.133 25.7539 266.887 25.7773 266.652 25.7773ZM276.883 16.918C277 16.918 277.176 17 277.41 17.1641C277.387 17.2109 277.434 17.3047 277.551 17.4453C277.668 17.5625 277.75 17.6445 277.797 17.6914C277.914 17.8086 278.031 17.9492 278.148 18.1133C278.289 18.2773 278.441 18.4531 278.605 18.6406C279.027 19.0859 280 20.2461 281.523 22.1211C281.781 22.4961 281.91 22.7188 281.91 22.7891C281.91 23.0234 281.77 23.1406 281.488 23.1406C281.324 23.1406 281.148 23.0234 280.961 22.7891C280.516 22.3203 279.719 21.582 278.57 20.5742C277.68 19.7539 276.871 19.1211 276.145 18.6758C275.793 18.5117 275.617 18.3242 275.617 18.1133C275.617 17.9492 275.793 17.7148 276.145 17.4102C276.473 17.082 276.719 16.918 276.883 16.918ZM240.848 11.2227L240.812 6.72266L240.742 5.84375C240.695 5.32813 240.637 5 240.566 4.85938L240.215 4.08594L240.672 3.66406L241.656 3.73438C241.797 3.75781 242.008 3.82812 242.289 3.94531C242.617 4.03906 242.828 4.14453 242.922 4.26172C243.039 4.40234 243.109 4.56641 243.133 4.75391L242.746 5.63281L242.641 6.65234L242.605 7.49609L244.82 6.93359C245.195 6.83984 245.488 6.74609 245.699 6.65234L246.121 6.51172C246.285 6.53516 246.496 6.59375 246.754 6.6875C247.012 6.75781 247.223 6.86328 247.387 7.00391L247.598 7.32031C247.574 7.48437 247.375 7.61328 247 7.70703L246.156 7.91797C245.688 8.01172 245.242 8.08203 244.82 8.12891C244.398 8.17578 244.035 8.21094 243.73 8.23438H243.203L242.57 8.12891L242.359 10.9766L244.961 10.4492L246.086 10.168L246.859 9.88672C247.07 9.83984 247.281 9.81641 247.492 9.81641C247.656 9.81641 247.902 9.875 248.23 9.99219C248.582 10.1094 248.898 10.2617 249.18 10.4492C249.461 10.6367 249.73 10.8477 249.988 11.082L250.27 11.7148C250.199 11.9023 250.035 12.0547 249.777 12.1719C249.496 12.2891 249.203 12.418 248.898 12.5586C248.594 12.6992 248.336 12.8398 248.125 12.9805L247.492 13.4727L246.719 14.0352L246.332 13.9297L246.648 13.0859L246.965 12.418C247.035 12.2305 247.105 11.9492 247.176 11.5742L247.105 11.2578L246.648 11.1523C246.414 11.1992 246.109 11.2461 245.734 11.293C245.336 11.3867 244.691 11.4922 243.801 11.6094L242.078 11.8906L240.531 12.1367L241.375 12.4883C241.586 12.582 241.762 12.6758 241.902 12.7695L242.078 13.0508C242.102 13.1914 242.078 13.3555 242.008 13.543L241.832 13.9648L241.797 14.4922C242.078 14.4219 242.406 14.3281 242.781 14.2109C243.156 14.0938 243.414 14.0234 243.555 14C243.695 13.9766 244.105 13.9414 244.785 13.8945C245.09 13.8711 245.324 13.918 245.488 14.0352L245.805 14.3516C245.758 14.5156 245.664 14.6328 245.523 14.7031C245.336 14.7969 245.055 14.8906 244.68 14.9844L243.59 15.3008L242.465 15.5117L241.656 15.7227C241.656 15.957 241.645 16.168 241.621 16.3555L241.656 16.707C241.797 16.8477 241.996 16.9414 242.254 16.9883C242.512 17.0352 242.875 17.0586 243.344 17.0586H244.469C244.961 17.0586 245.371 17.0352 245.699 16.9883L246.262 16.918L246.648 16.9531C246.789 17.0234 246.918 17.1289 247.035 17.2695C247.152 17.3633 247.234 17.5742 247.281 17.9023C247.234 18.0664 247 18.1836 246.578 18.2539L245.418 18.3945C245.02 18.3945 244.492 18.3828 243.836 18.3594C243.273 18.3359 242.805 18.3008 242.43 18.2539C242.055 18.207 241.703 18.1133 241.375 17.9727C241.07 17.8555 240.824 17.668 240.637 17.4102C240.449 17.1758 240.355 16.918 240.355 16.6367L240.32 15.9688C239.992 16.0625 239.746 16.1211 239.582 16.1445L238.773 16.2148L237.859 16.2852H237.297C237.203 16.7539 237.156 17.1055 237.156 17.3398L236.945 18.957C236.805 19.8945 236.652 20.8555 236.488 21.8398C236.324 22.8242 236.125 23.7617 235.891 24.6523C235.656 25.5664 235.41 26.4102 235.152 27.1836C234.895 27.957 234.602 28.6367 234.273 29.2227C233.992 29.8086 233.641 30.418 233.219 31.0508C232.797 31.6836 232.469 32.1055 232.234 32.3164L231.531 33.0547L231.145 32.9844L231.672 31.9648C231.859 31.5898 232.047 31.1914 232.234 30.7695C232.422 30.3477 232.68 29.7266 233.008 28.9062C233.289 28.0859 233.547 27.3008 233.781 26.5508C234.016 25.8242 234.215 25.0859 234.379 24.3359C234.543 23.5625 234.719 22.5547 234.906 21.3125C235.094 20.0703 235.211 19.1094 235.258 18.4297C235.328 17.7734 235.375 17.0938 235.398 16.3906C235.422 16.0391 235.434 15.7227 235.434 15.4414C235.434 15.1602 235.422 14.9258 235.398 14.7383C235.375 14.1523 235.316 13.7656 235.223 13.5781L234.977 13.0859L234.625 12.9453L234.273 12.3828L234.766 12.207L236.172 11.9961C237.414 11.8086 238.164 11.6914 238.422 11.6445L240.848 11.2227ZM237.332 15.582L238.281 15.3711L239.477 15.0898L240.25 14.8789C240.273 14.5273 240.285 14.2461 240.285 14.0352L240.25 13.6484L240.039 12.2773L237.367 12.7695L237.684 13.1562C237.707 13.3203 237.672 13.5781 237.578 13.9297L237.438 14.9492L237.332 15.582ZM240.32 31.2617C240.203 31.1211 240.098 30.9805 240.004 30.8398C239.91 30.6992 239.781 30.4297 239.617 30.0312L239.09 28.8711C238.926 28.543 238.879 28.1562 238.949 27.7109L239.898 28.168C240.18 28.3086 240.414 28.4727 240.602 28.6602C240.836 28.8242 241 29.0234 241.094 29.2578C241.234 29.5156 241.305 29.7383 241.305 29.9258C241.305 30.1602 241.27 30.3711 241.199 30.5586L241.023 31.1211C241.727 30.957 242.16 30.8516 242.324 30.8047L243.484 30.5234L243.73 29.6797C243.777 29.5156 243.859 29.2109 243.977 28.7656C244.094 28.3203 244.164 27.957 244.188 27.6758L244.223 27.3945L244.188 27.043L244.082 26.5508C243.73 26.5508 243.461 26.5625 243.273 26.5859L241.867 26.7617L240.461 26.9023L239.969 26.9727C239.945 27.1133 239.898 27.2539 239.828 27.3945C239.758 27.5352 239.617 27.6172 239.406 27.6406C239.242 27.6406 239.066 27.4766 238.879 27.1484L238.773 26.6914C238.727 26.457 238.633 26.0234 238.492 25.3906L238.281 24.4414C238.188 24.1602 238.105 23.9375 238.035 23.7734C237.965 23.6094 237.848 23.4453 237.684 23.2812L237.613 22.543C237.918 22.543 238.258 22.6016 238.633 22.7188L239.195 22.8945C239.523 22.8711 239.887 22.8242 240.285 22.7539C240.684 22.707 241.047 22.6367 241.375 22.543C241.703 22.4727 242.207 22.3555 242.887 22.1914C243.566 22.0039 244.023 21.8633 244.258 21.7695L244.82 21.6289C245.008 21.6055 245.172 21.6289 245.312 21.6992C245.5 21.7461 245.723 21.8516 245.98 22.0156L246.438 22.332L246.508 23.0703C246.297 23.2812 246.133 23.4922 246.016 23.7031C245.922 23.9141 245.852 24.1133 245.805 24.3008L245.594 25.0742L245.383 25.707C245.523 25.8008 245.523 26.0469 245.383 26.4453L244.75 26.4102L245.488 26.8672C245.699 26.9844 245.863 27.1133 245.98 27.2539L246.016 27.8164C245.805 28.0508 245.617 28.2969 245.453 28.5547L245.207 28.9766L244.75 29.5742L244.258 30.3125L245.91 29.8906C246.379 29.7734 246.766 29.668 247.07 29.5742L247.914 29.3633L248.441 29.5039L248.617 29.6797C248.594 29.8203 248.477 29.9492 248.266 30.0664C248.078 30.1602 247.727 30.2891 247.211 30.4531L246.332 30.6992L245.172 31.0508L240.883 32.3164C240.742 32.3867 240.379 32.5273 239.793 32.7383C239.23 32.9258 238.82 33.0664 238.562 33.1602C238.305 33.2539 238.023 33.3828 237.719 33.5469L237.121 33.793C236.887 33.793 236.617 33.6758 236.312 33.4414C236.078 33.3008 235.82 33.1133 235.539 32.8789C235.258 32.6211 235.082 32.3984 235.012 32.2109L235.152 31.7188L235.785 31.7539C236.02 31.7773 236.289 31.7891 236.594 31.7891C236.805 31.7891 237.344 31.7305 238.211 31.6133L239.512 31.4023L240.32 31.2617ZM239.934 26.1289C240.496 26.0352 240.965 25.9531 241.34 25.8828C241.715 25.8125 242.043 25.7539 242.324 25.707C242.605 25.6367 242.969 25.5547 243.414 25.4609L244.117 25.2852C244.188 25.0273 244.234 24.8281 244.258 24.6875C244.305 24.5234 244.34 24.3008 244.363 24.0195C244.41 23.7383 244.445 23.5039 244.469 23.3164L244.188 22.8594C243.883 22.8359 243.531 22.8711 243.133 22.9648L241.867 23.2109L240.812 23.457L240.039 23.5273L239.547 23.668C239.594 23.9961 239.641 24.2539 239.688 24.4414L239.828 25.3906L239.934 26.1289ZM239.09 21.2773C238.926 21.2773 238.703 21.2539 238.422 21.207C238.164 21.1602 237.977 21.0781 237.859 20.9609L237.824 20.6094C238.152 20.4922 238.562 20.4102 239.055 20.3633C239.547 20.293 240.18 20.1758 240.953 20.0117C241.703 19.8711 242.359 19.7305 242.922 19.5898L243.977 19.3086C244.234 19.2383 244.445 19.2148 244.609 19.2383L245.172 19.3086C245.5 19.3555 245.746 19.4258 245.91 19.5195L246.121 19.8711L245.629 20.1172C245.301 20.2109 245.043 20.2812 244.855 20.3281C244.691 20.3516 244.164 20.4453 243.273 20.6094L241.48 20.9609C240.941 21.0781 240.426 21.1602 239.934 21.207L239.266 21.2773H239.09ZM251.641 15.4766C251.547 14.9375 251.465 14.3984 251.395 13.8594L251.148 11.8906C251.055 11.1172 250.973 10.2969 250.902 9.42969C250.832 8.5625 250.797 8.04687 250.797 7.88281C250.773 7.71875 250.738 7.44922 250.691 7.07422C250.621 6.67578 250.574 6.38281 250.551 6.19531C250.504 5.98438 250.434 5.72656 250.34 5.42188C250.223 5.09375 250.094 4.82422 249.953 4.61328L249.777 4.01562C249.895 3.82812 250.059 3.72266 250.27 3.69922C250.527 3.69922 250.855 3.78125 251.254 3.94531C251.746 4.13281 252.074 4.27344 252.238 4.36719C252.402 4.48438 252.578 4.625 252.766 4.78906C252.953 4.95312 253.059 5.21094 253.082 5.5625L252.906 6.08984C252.836 6.23047 252.766 6.44141 252.695 6.72266C252.602 7.00391 252.543 7.21484 252.52 7.35547C252.496 7.49609 252.484 7.77734 252.484 8.19922V9.81641C252.484 10.2383 252.52 10.918 252.59 11.8555C252.66 12.793 252.719 13.4492 252.766 13.8242L252.906 15.1602L254.031 14.8086L255.191 14.457L256.492 14C256.891 13.8828 257.184 13.7891 257.371 13.7188L257.758 13.6484C257.969 13.625 258.297 13.6016 258.742 13.5781C259.164 13.5781 259.469 13.6367 259.656 13.7539L259.973 14.0352C259.949 14.2461 259.844 14.4102 259.656 14.5273C259.469 14.668 259.199 14.7852 258.848 14.8789L257.477 15.3359C256.961 15.5 256.234 15.6992 255.297 15.9336L253.926 16.2852L253.188 16.4609C253.305 17.0703 253.434 17.6914 253.574 18.3242C253.715 18.9336 253.938 19.7422 254.242 20.75C254.547 21.7578 254.852 22.5781 255.156 23.2109L255.719 24.582L256.316 23.5273C256.527 23.1992 256.75 22.7539 256.984 22.1914C257.219 21.6758 257.406 21.207 257.547 20.7852C257.688 20.3633 257.793 19.9766 257.863 19.625C257.91 19.4141 257.922 19.1797 257.898 18.9219L257.969 17.7969C258.133 17.75 258.32 17.7617 258.531 17.832L259.164 18.1484C259.492 18.3125 259.738 18.4531 259.902 18.5703C260.066 18.6875 260.219 18.8516 260.359 19.0625L260.5 19.5195C260.477 19.6602 260.395 19.8008 260.254 19.9414C260.113 20.082 259.973 20.2461 259.832 20.4336L259.48 20.9961C259.387 21.1367 259.234 21.4297 259.023 21.875L258.215 23.3516L257.336 24.8984L256.598 26.0938L257.477 27.4648C257.758 27.9336 258.062 28.3555 258.391 28.7305C258.719 29.1289 259.059 29.5039 259.41 29.8555C259.762 30.2305 260.055 30.4648 260.289 30.5586L260.711 30.6992C260.852 30.6523 260.969 30.5469 261.062 30.3828C261.109 30.2188 261.203 29.9375 261.344 29.5391L261.555 28.9062L261.836 27.8867L261.977 27.2539L262.152 27.043C262.316 27.043 262.398 27.1367 262.398 27.3242V28.0977C262.398 28.9883 262.41 29.5742 262.434 29.8555C262.434 30.1367 262.469 30.5469 262.539 31.0859C262.609 31.625 262.715 32.1523 262.855 32.668C263.02 33.1836 263.113 33.5703 263.137 33.8281C263.137 34.0156 263.09 34.168 262.996 34.2852C262.879 34.4727 262.656 34.5781 262.328 34.6016C262.047 34.6016 261.695 34.4609 261.273 34.1797C260.477 33.6875 259.844 33.2305 259.375 32.8086C258.906 32.3867 258.355 31.7891 257.723 31.0156C257.09 30.2422 256.609 29.5742 256.281 29.0117L255.367 27.6055L254.383 28.5547C254.055 28.8594 253.668 29.1758 253.223 29.5039C252.777 29.832 252.285 30.1602 251.746 30.4883C251.207 30.793 250.785 31.0039 250.48 31.1211L249.109 31.2617L250.023 30.5234C250.422 30.2422 250.75 29.9961 251.008 29.7852C251.242 29.5977 251.734 29.1289 252.484 28.3789C253.258 27.6523 253.727 27.1836 253.891 26.9727L254.664 26.0938C254.312 25.3203 254.008 24.6055 253.75 23.9492C253.469 23.2695 253.199 22.4258 252.941 21.418C252.66 20.4102 252.426 19.4258 252.238 18.4648L251.922 16.7773C251.641 16.8242 251.312 16.8945 250.938 16.9883C250.562 17.0352 250.293 17.082 250.129 17.1289H249.004C248.699 17.1289 248.453 17.0703 248.266 16.9531L248.055 16.5312L248.547 16.3555C248.852 16.3086 249.18 16.2383 249.531 16.1445L250.727 15.7578L251.641 15.4766ZM256.562 9.46484L256 8.90234L255.859 8.44531C256 8.42188 256.141 8.42188 256.281 8.44531L257.09 8.62109C257.395 8.69141 257.828 8.83203 258.391 9.04297C258.953 9.27734 259.352 9.46484 259.586 9.60547C259.82 9.74609 259.973 9.91016 260.043 10.0977C260.113 10.2383 260.148 10.4492 260.148 10.7305C260.148 11.0117 260.102 11.2461 260.008 11.4336C259.961 11.6211 259.867 11.7617 259.727 11.8555L259.41 11.9961C259.152 11.9961 258.906 11.8789 258.672 11.6445C258.484 11.5039 258.273 11.3164 258.039 11.082C257.805 10.8477 257.547 10.5664 257.266 10.2383C256.938 9.91016 256.703 9.65234 256.562 9.46484Z" fill="#333333"/>
</svg>
