<svg width="350" height="88" viewBox="0 0 350 88" fill="none" xmlns="http://www.w3.org/2000/svg">
<path d="M158.934 7.49609C158.77 7.49609 158.852 7.35547 159.18 7.07422C159.508 6.79297 159.906 6.45313 160.375 6.05469C160.844 5.63281 161.371 5.08203 161.957 4.40234C162.332 3.95703 162.613 3.48828 162.801 2.99609C162.918 2.71484 163.047 2.57422 163.188 2.57422C163.305 2.57422 163.48 2.66797 163.715 2.85547C164.184 3.23047 164.418 3.54687 164.418 3.80469C164.418 3.96875 164.324 4.08594 164.137 4.15625C164.043 4.17969 163.902 4.28516 163.715 4.47266C163.527 4.63672 163.387 4.76563 163.293 4.85938C162.285 5.84375 161.348 6.55859 160.48 7.00391C159.777 7.33203 159.309 7.49609 159.074 7.49609H158.934ZM162.625 14.0352C162.555 14.0352 162.438 13.9414 162.273 13.7539C162.133 13.543 162.027 13.3438 161.957 13.1562C161.934 13.0156 161.934 12.8398 161.957 12.6289C162.004 12.3945 162.027 12.2188 162.027 12.1016C162.074 11.6328 162.098 11.2578 162.098 10.9766C162.121 10.7187 162.121 10.4375 162.098 10.1328C162.098 9.82813 162.098 9.62891 162.098 9.53516L162.062 9.00781C161.5 9.40625 161.066 9.6875 160.762 9.85156C160.082 10.2266 159.59 10.4609 159.285 10.5547C158.91 10.6953 158.57 10.7656 158.266 10.7656C158.102 10.7656 158.008 10.7422 157.984 10.6953C157.938 10.6016 158.406 10.2617 159.391 9.67578C160.328 9.08984 161.348 8.31641 162.449 7.35547C163.059 6.79297 163.527 6.25391 163.855 5.73828C163.902 5.66797 163.938 5.58594 163.961 5.49219C164.008 5.375 164.055 5.30469 164.102 5.28125C164.172 5.25781 164.266 5.26953 164.383 5.31641C164.688 5.48047 164.945 5.71484 165.156 6.01953C165.25 6.13672 165.297 6.25391 165.297 6.37109C165.297 6.48828 165.238 6.60547 165.121 6.72266C165.004 6.81641 164.887 6.88672 164.77 6.93359C164.371 7.19141 164.008 7.47266 163.68 7.77734C163.352 8.08203 163.141 8.28125 163.047 8.375C163.398 8.65625 163.574 8.85547 163.574 8.97266L163.469 9.71094C163.422 9.92188 163.398 10.4492 163.398 11.293C163.398 12.1133 163.422 12.6641 163.469 12.9453V13.0156C163.469 13.1328 163.434 13.2617 163.363 13.4023C163.316 13.5195 163.281 13.6016 163.258 13.6484C163.094 13.9063 162.883 14.0352 162.625 14.0352ZM166.211 22.9648C165.859 22.9648 165.52 22.707 165.191 22.1914C164.77 21.5352 164.359 20.9961 163.961 20.5742L163.047 19.625C162.555 20.1875 162.121 20.6328 161.746 20.9609C161.395 21.2891 160.949 21.6055 160.41 21.9102C159.402 22.4961 158.559 22.7891 157.879 22.7891C157.715 22.7891 157.633 22.7305 157.633 22.6133C157.633 22.543 157.855 22.3906 158.301 22.1562C158.746 21.9219 159.168 21.6406 159.566 21.3125C160.574 20.4688 161.406 19.6016 162.062 18.7109C161.922 18.5703 161.219 17.9609 159.953 16.8828C159.789 16.7656 159.543 16.5664 159.215 16.2852C159.145 16.2383 159.004 16.1328 158.793 15.9688C158.582 15.8047 158.477 15.6875 158.477 15.6172C158.477 15.5 158.535 15.4414 158.652 15.4414C159.004 15.4414 159.566 15.6875 160.34 16.1797C161.113 16.6484 161.922 17.2109 162.766 17.8672C163.094 17.4688 163.352 17.0938 163.539 16.7422C163.727 16.3906 163.938 15.957 164.172 15.4414C164.289 15.1836 164.359 14.9609 164.383 14.7734C164.406 14.5625 164.418 14.4336 164.418 14.3867C164.418 14.1289 164.488 14 164.629 14C164.793 14 165.016 14.1289 165.297 14.3867C165.789 14.8555 166.035 15.1719 166.035 15.3359C166.035 15.4297 165.977 15.5352 165.859 15.6523C165.578 15.9336 165.32 16.3086 165.086 16.7773C164.945 17.0586 164.688 17.457 164.312 17.9727C164.195 18.1133 164.102 18.2422 164.031 18.3594C163.961 18.4766 163.891 18.582 163.82 18.6758C164.359 19.0742 165.156 19.7539 166.211 20.7148C166.469 20.9492 166.633 21.1719 166.703 21.3828C166.797 21.5703 166.844 21.8281 166.844 22.1562C166.844 22.3906 166.785 22.5898 166.668 22.7539C166.551 22.8945 166.398 22.9648 166.211 22.9648ZM166.844 27.6055C167.102 27.8867 167.23 28.1211 167.23 28.3086C167.23 28.4727 167.137 28.625 166.949 28.7656C166.832 28.8594 166.539 29.375 166.07 30.3125C165.555 31.1562 164.98 31.8828 164.348 32.4922C163.738 33.125 163.129 33.582 162.52 33.8633C162.379 33.9102 162.262 33.9336 162.168 33.9336C162.074 33.9336 162.027 33.9102 162.027 33.8633V33.793C162.027 33.6523 162.145 33.4883 162.379 33.3008C162.801 32.9727 163.117 32.6328 163.328 32.2812C163.562 31.9531 163.738 31.707 163.855 31.543C164.348 30.8398 164.699 30.2656 164.91 29.8203C165.145 29.4219 165.309 29.0117 165.402 28.5898H165.262C164.652 28.5898 163.668 28.6602 162.309 28.8008C162.098 28.8242 161.488 28.9062 160.48 29.0469C160.27 29.0703 159.941 29.1289 159.496 29.2227L159.074 29.3281C158.98 29.375 158.887 29.3984 158.793 29.3984C158.676 29.3984 158.559 29.375 158.441 29.3281C158.324 29.2578 158.207 29.1758 158.09 29.082C157.809 28.8477 157.668 28.6484 157.668 28.4844C157.691 28.4375 157.715 28.3672 157.738 28.2734C157.785 28.1797 157.809 28.0977 157.809 28.0273L157.984 26.8672C158.008 26.75 158.031 26.6211 158.055 26.4805C158.078 26.3398 158.09 26.1992 158.09 26.0586C158.09 25.6133 158.078 25.2617 158.055 25.0039C158.055 24.7227 158.02 24.4297 157.949 24.125V24.0195C157.949 23.8555 158.02 23.7734 158.16 23.7734C158.301 23.7734 158.547 23.8789 158.898 24.0898C159.367 24.418 159.602 24.6758 159.602 24.8633C159.602 24.9336 159.59 24.9922 159.566 25.0391C159.543 25.0859 159.52 25.1328 159.496 25.1797C159.426 25.6016 159.391 25.8359 159.391 25.8828L159.215 27.7461C159.215 27.793 159.238 27.8516 159.285 27.9219C159.355 27.9688 159.426 27.9922 159.496 27.9922C160.059 27.9922 161.324 27.8516 163.293 27.5703C164.066 27.5 164.617 27.418 164.945 27.3242C165.156 27.3008 165.332 27.2656 165.473 27.2188C165.637 27.1484 165.742 27.1133 165.789 27.1133C165.93 27.0664 166.023 27.043 166.07 27.043C166.281 27.043 166.539 27.2305 166.844 27.6055ZM133.129 17.2344L130.738 17.9023L129.684 18.1836C128.957 18.3711 128.477 18.4766 128.242 18.5C127.961 18.5 127.703 18.4766 127.469 18.4297C127.164 18.3594 126.824 18.207 126.449 17.9727C126.051 17.7383 125.758 17.4102 125.57 16.9883C125.664 16.8477 125.84 16.7656 126.098 16.7422L126.977 16.707C127.703 16.6836 128.477 16.6484 129.297 16.6016C130.117 16.5312 130.855 16.4375 131.512 16.3203L133.762 15.9336C134.09 15.1836 134.289 14.7148 134.359 14.5273L134.816 13.1562C134.441 13.1797 134.148 13.2031 133.938 13.2266C133.727 13.25 133.375 13.2969 132.883 13.3672C132.391 13.4609 131.992 13.5078 131.688 13.5078C131.312 13.5078 131.02 13.4609 130.809 13.3672C130.527 13.25 130.316 13.1211 130.176 12.9805L130.035 12.6641C130.059 12.5 130.176 12.418 130.387 12.418L131.055 12.3477C131.219 12.3477 131.617 12.3125 132.25 12.2422C132.883 12.1719 133.48 12.1133 134.043 12.0664L135.238 11.9258C135.543 10.9883 135.719 10.4023 135.766 10.168L136.047 8.76172C135.18 8.83203 134.395 8.91406 133.691 9.00781C132.965 9.07812 132.496 9.11328 132.285 9.11328H131.758C131.289 9.11328 130.938 9.06641 130.703 8.97266C130.398 8.83203 130.176 8.66797 130.035 8.48047L129.895 8.12891L130.141 7.95312H130.879L131.863 7.84766L133.902 7.70703L136.293 7.35547L136.434 5.45703V5.10547C136.434 4.84766 136.41 4.53125 136.363 4.15625C136.316 3.80469 136.281 3.55859 136.258 3.41797L136.117 2.64453L136.469 2.39844C136.703 2.375 136.949 2.41016 137.207 2.50391C137.535 2.64453 137.863 2.79688 138.191 2.96094C138.52 3.125 138.801 3.32422 139.035 3.55859C139.27 3.79297 139.387 4.02734 139.387 4.26172L139.141 4.75391C138.977 5.01172 138.848 5.30469 138.754 5.63281L138.262 7.07422L141.145 6.65234L142.727 6.30078C143.008 6.25391 143.266 6.21875 143.5 6.19531C143.898 6.19531 144.32 6.28906 144.766 6.47656C145.164 6.61719 145.363 6.79297 145.363 7.00391C145.34 7.23828 145.246 7.37891 145.082 7.42578L144.379 7.63672C144.145 7.68359 143.746 7.75391 143.184 7.84766L140.934 8.19922C140.137 8.31641 139.469 8.39844 138.93 8.44531L137.98 8.55078C137.723 9.46484 137.57 10.0273 137.523 10.2383L137.137 11.6445L139.316 11.2578C139.785 11.1875 140.324 11.082 140.934 10.9414C141.543 10.7773 142.035 10.6836 142.41 10.6602C142.762 10.6602 143.043 10.6836 143.254 10.7305C143.582 10.7773 143.887 10.8711 144.168 11.0117L144.625 11.3984C144.625 11.5859 144.461 11.7266 144.133 11.8203C143.875 11.8906 143.523 11.9492 143.078 11.9961C142.633 12.043 142.059 12.1133 141.355 12.207L139.211 12.5586L136.855 12.9102C136.527 13.8008 136.328 14.3516 136.258 14.5625L135.871 15.6523C136.574 15.582 137.102 15.5234 137.453 15.4766L141.074 15.1602C141.73 15.1133 142.445 15.0195 143.219 14.8789C143.992 14.7617 144.613 14.6445 145.082 14.5273L146.137 14.2461C146.605 14.1523 146.969 14.1055 147.227 14.1055C147.531 14.1055 147.801 14.1523 148.035 14.2461C148.293 14.3398 148.668 14.4922 149.16 14.7031C149.652 14.9141 149.969 15.1367 150.109 15.3711L150.215 15.9336C150.121 16.1211 149.934 16.2266 149.652 16.25L148.879 16.2852L146.699 16.2148C146.348 16.2148 145.691 16.2383 144.73 16.2852L141.918 16.3555H140.652L141.777 17.1992L143.887 18.9922C145.012 19.9531 146.02 20.7617 146.91 21.418C147.801 22.0742 148.539 22.5547 149.125 22.8594C149.711 23.1641 150.566 23.5508 151.691 24.0195C152.816 24.4648 153.801 24.793 154.645 25.0039L155.594 25.7422L154.855 25.9531L152.605 26.4102C151.668 26.5977 150.941 26.6914 150.426 26.6914C149.816 26.6211 149.266 26.4219 148.773 26.0938C148.281 25.7656 147.824 25.3789 147.402 24.9336L144.66 21.9805C143.301 20.4805 142.246 19.3672 141.496 18.6406C140.793 17.9141 140.254 17.4336 139.879 17.1992L138.93 16.4961C137.875 16.6133 137.23 16.6836 136.996 16.707L135.273 16.918C134.57 18.2773 133.996 19.2852 133.551 19.9414C133.105 20.5977 132.496 21.3242 131.723 22.1211C130.973 22.9648 130.188 23.7031 129.367 24.3359C128.547 24.9688 127.785 25.4844 127.082 25.8828C126.332 26.2812 125.594 26.6211 124.867 26.9023C124.141 27.1602 123.66 27.3242 123.426 27.3945L122.406 27.2188L123.285 26.6562L124.27 26.0938C124.879 25.7656 125.547 25.3438 126.273 24.8281C127 24.3359 127.715 23.7734 128.418 23.1406C129.121 22.5078 129.883 21.7227 130.703 20.7852C131.547 19.8477 132.098 19.1445 132.355 18.6758L133.129 17.2344ZM139.984 32.3867L137.734 32.5977C136.703 32.6914 136.105 32.7383 135.941 32.7383L134.254 32.7734L134.113 33.3359C133.973 33.7578 133.809 33.9688 133.621 33.9688C133.434 33.9453 133.246 33.793 133.059 33.5117C132.848 33.207 132.719 32.8438 132.672 32.4219C132.672 32.1172 132.695 31.8008 132.742 31.4727C132.789 31.0273 132.812 30.5117 132.812 29.9258L132.637 24.8633C132.59 24.207 132.52 23.7266 132.426 23.4219C132.355 23.1172 132.273 22.8828 132.18 22.7188L132.074 22.4023C132.121 22.2617 132.344 22.168 132.742 22.1211L133.727 22.332L134.852 22.1914C135.25 22.1445 135.73 22.0625 136.293 21.9453L138.191 21.5586C138.848 21.418 139.316 21.3008 139.598 21.207C139.879 21.1367 140.16 21.043 140.441 20.9258L141.109 20.7148C141.367 20.6914 141.59 20.7148 141.777 20.7852C142.035 20.8789 142.316 21.0312 142.621 21.2422C142.949 21.4531 143.23 21.6641 143.465 21.875L143.852 22.3672C143.852 22.5312 143.816 22.6836 143.746 22.8242C143.676 23.0117 143.617 23.2109 143.57 23.4219C143.5 23.6328 143.465 23.832 143.465 24.0195C143.418 24.207 143.383 24.582 143.359 25.1445V25.7422C143.359 26.1406 143.371 26.5742 143.395 27.043C143.418 27.6055 143.465 28.1914 143.535 28.8008L143.816 30.5938C143.91 31.2031 143.957 31.6602 143.957 31.9648C143.91 32.5742 143.734 33.1836 143.43 33.793C143.102 34.4023 142.785 34.7773 142.48 34.918L141.953 35.0586C141.695 35.0352 141.449 34.8008 141.215 34.3555C141.004 33.9336 140.77 33.5234 140.512 33.125L139.984 32.3867ZM134.324 31.5781C135.355 31.4609 136.141 31.3672 136.68 31.2969L138.508 31.0508C139.188 30.9336 139.645 30.875 139.879 30.875C140.254 30.8984 140.535 30.957 140.723 31.0508L141.461 31.4727L141.637 27.0078C141.121 27.125 140.734 27.1953 140.477 27.2188L138.051 27.6758C136.973 27.8633 136.211 27.9805 135.766 28.0273L135.344 28.0625H134.992L134.254 27.8867L134.324 31.5781ZM134.254 26.9023C134.488 26.9023 134.699 26.8906 134.887 26.8672C135.074 26.8438 135.566 26.7617 136.363 26.6211C137.207 26.457 137.887 26.3047 138.402 26.1641C138.965 26 139.387 25.918 139.668 25.918C139.926 25.918 140.16 25.9297 140.371 25.9531C140.676 26 141.039 26.1055 141.461 26.2695L141.637 23.3164C141.613 22.9414 141.555 22.6953 141.461 22.5781C141.344 22.4609 141.121 22.3906 140.793 22.3672C140.488 22.3672 140.16 22.3789 139.809 22.4023L138.262 22.4727C137.887 22.5195 137.348 22.6367 136.645 22.8242C135.941 22.9883 135.449 23.1172 135.168 23.2109L134.535 23.3516L134.395 23.7031C134.418 23.8438 134.418 24.043 134.395 24.3008C134.348 24.5352 134.324 24.7344 134.324 24.8984L134.254 26.9023ZM219.121 13.6836C218.957 13.6836 218.781 13.5781 218.594 13.3672C218.453 13.2031 218.359 13.0742 218.312 12.9805C218.266 12.8633 218.266 12.7109 218.312 12.5234L218.348 11.6797C218.371 11.5156 218.383 11.1172 218.383 10.4844V9.32422L217.328 9.81641L216.098 10.3438C215.793 10.4609 215.477 10.6016 215.148 10.7656C214.867 10.9062 214.621 10.9766 214.41 10.9766C214.246 10.9531 214.059 10.8945 213.848 10.8008C213.637 10.707 213.473 10.625 213.355 10.5547C213.098 10.3906 212.98 10.2148 213.004 10.0273L213.109 9.67578C213.109 9.48828 213.121 9.32422 213.145 9.18359L213.18 7.14453V5.24609C213.18 4.87109 213.156 4.55469 213.109 4.29688C213.062 4.01562 213.027 3.81641 213.004 3.69922C213.004 3.58203 213.039 3.5 213.109 3.45312C213.133 3.42969 213.191 3.41797 213.285 3.41797C213.449 3.41797 213.766 3.52344 214.234 3.73438C214.633 3.92188 214.797 4.15625 214.727 4.4375C214.68 4.60156 214.633 4.84766 214.586 5.17578L214.48 9.21875C214.48 9.33594 214.492 9.42969 214.516 9.5C214.562 9.54688 214.609 9.57031 214.656 9.57031C214.938 9.57031 215.277 9.48828 215.676 9.32422C216.426 9.08984 217.07 8.85547 217.609 8.62109L218.383 8.30469V5.98438C218.383 5.04688 218.324 4.14453 218.207 3.27734C218.184 3.20703 218.172 3.125 218.172 3.03125C218.172 2.79688 218.266 2.67969 218.453 2.67969C218.477 2.67969 218.605 2.72656 218.84 2.82031C219.191 3.00781 219.449 3.17188 219.613 3.3125C219.777 3.45312 219.871 3.53516 219.895 3.55859C219.988 3.62891 220.035 3.69922 220.035 3.76953C220.035 3.81641 220.012 3.875 219.965 3.94531C219.941 4.01562 219.918 4.07422 219.895 4.12109L219.789 5.17578L219.754 8.41016L219.789 11.5391C219.789 12.0781 219.754 12.5469 219.684 12.9453C219.566 13.4375 219.379 13.6836 219.121 13.6836ZM212.652 19.4492C212.395 19.4492 212.078 19.25 211.703 18.8516C211.422 18.5703 211.281 18.3594 211.281 18.2188C211.281 18.1484 211.328 18.1133 211.422 18.1133C211.516 18.0898 211.633 18.0781 211.773 18.0781L212.547 18.043C212.992 18.043 213.285 18.0312 213.426 18.0078C213.871 18.0078 214.246 17.9961 214.551 17.9727C216.566 17.7852 217.926 17.6328 218.629 17.5156C218.98 17.4688 219.297 17.4219 219.578 17.375C219.859 17.3047 220.082 17.2695 220.246 17.2695C220.574 17.2695 220.902 17.4336 221.23 17.7617C221.488 18.0195 221.617 18.2305 221.617 18.3945C221.617 18.5352 221.535 18.6289 221.371 18.6758C221.254 18.6992 220.562 18.7461 219.297 18.8164C218.594 18.8398 217.727 18.8984 216.695 18.9922C215.664 19.0859 214.762 19.1797 213.988 19.2734C213.848 19.2969 213.648 19.332 213.391 19.3789C213.133 19.4258 212.887 19.4492 212.652 19.4492ZM217.363 33.9688C216.637 33.9688 216.074 33.9453 215.676 33.8984C215.301 33.8516 214.984 33.7109 214.727 33.4766C214.281 33.1484 213.977 32.4336 213.812 31.332L213.707 30.207C213.707 29.9258 213.684 29.5742 213.637 29.1523C213.262 29.1992 212.992 29.2461 212.828 29.293C212.781 29.3164 212.699 29.3516 212.582 29.3984C212.488 29.4219 212.418 29.4336 212.371 29.4336C212.207 29.4336 212.055 29.3867 211.914 29.293C211.773 29.1992 211.598 29.0234 211.387 28.7656C211.223 28.5547 211.141 28.4141 211.141 28.3438C211.141 28.2734 211.223 28.2266 211.387 28.2031C211.551 28.1797 211.773 28.168 212.055 28.168C212.453 28.168 212.969 28.1211 213.602 28.0273L213.566 27.5352C213.566 26.5977 213.508 25.8008 213.391 25.1445L213.355 24.8984C213.355 24.5703 213.484 24.4414 213.742 24.5117C214.023 24.6055 214.281 24.7227 214.516 24.8633C214.703 24.957 214.832 25.0508 214.902 25.1445C214.973 25.2148 214.996 25.3203 214.973 25.4609L214.867 26.9727V27.8867L217.961 27.5703C217.961 27.4062 217.973 27.0195 217.996 26.4102C218.02 25.7773 218.02 25.3672 217.996 25.1797C217.996 24.9922 217.973 24.8164 217.926 24.6523C217.902 24.4648 217.879 24.3125 217.855 24.1953C217.855 24.0078 217.949 23.9141 218.137 23.9141C218.324 23.9141 218.559 24.0195 218.84 24.2305C219.168 24.4414 219.379 24.6289 219.473 24.793C219.59 24.957 219.613 25.1562 219.543 25.3906C219.426 25.7656 219.344 26.1875 219.297 26.6562C219.25 27.125 219.227 27.4062 219.227 27.5C219.508 27.4766 219.766 27.4414 220 27.3945C220.234 27.3477 220.387 27.3242 220.457 27.3242C220.645 27.2773 220.867 27.2539 221.125 27.2539C221.266 27.2773 221.465 27.418 221.723 27.6758C221.934 27.957 222.039 28.1797 222.039 28.3438C222.039 28.5781 221.816 28.6719 221.371 28.625C220.973 28.5547 220.574 28.5195 220.176 28.5195C219.777 28.5195 219.438 28.5312 219.156 28.5547C219.086 29.3984 218.945 30.2305 218.734 31.0508C218.688 31.2383 218.605 31.4023 218.488 31.543C218.371 31.6602 218.266 31.7188 218.172 31.7188C218.008 31.7188 217.902 31.6602 217.855 31.543C217.832 31.4023 217.82 31.1914 217.82 30.9102C217.867 30.3008 217.891 29.5391 217.891 28.625C217.258 28.6719 216.766 28.7188 216.414 28.7656C215.875 28.8828 215.371 28.9531 214.902 28.9766C214.879 29.9375 214.926 30.793 215.043 31.543C215.113 32.0352 215.254 32.375 215.465 32.5625C215.605 32.6797 215.77 32.75 215.957 32.7734C216.168 32.7969 216.379 32.8086 216.59 32.8086C216.801 32.8086 216.941 32.8086 217.012 32.8086C217.738 32.8086 218.418 32.7734 219.051 32.7031C219.238 32.6797 219.402 32.6328 219.543 32.5625C219.707 32.4922 219.824 32.457 219.895 32.457C220.105 32.457 220.316 32.5273 220.527 32.668C220.738 32.8086 220.844 32.9727 220.844 33.1602C220.844 33.3477 220.738 33.4883 220.527 33.582C220.34 33.6758 220.035 33.7578 219.613 33.8281C218.863 33.9219 218.113 33.9688 217.363 33.9688ZM227.383 17.9727C227.664 17.9727 227.805 18.1016 227.805 18.3594C227.805 18.5 227.676 18.6992 227.418 18.957C226.715 19.8242 225.32 21.4766 223.234 23.9141C223.07 24.125 222.918 24.2305 222.777 24.2305C222.66 24.2305 222.402 24.0547 222.004 23.7031C221.676 23.4219 221.512 23.1875 221.512 23C221.512 22.7891 221.688 22.5898 222.039 22.4023C222.578 22.0977 223.387 21.4883 224.465 20.5742C225.543 19.6133 226.34 18.8516 226.855 18.2891C227.066 18.0781 227.242 17.9727 227.383 17.9727ZM188.992 26.3398C188.875 26.1523 188.781 25.9883 188.711 25.8477C188.617 25.707 188.523 25.5195 188.43 25.2852V24.4414L189.379 24.6523L190.328 25.0742C190.75 25.2617 191.125 25.4492 191.453 25.6367C191.781 25.8477 192.051 26.1641 192.262 26.5859C192.426 26.9375 192.508 27.3477 192.508 27.8164C192.484 28.2852 192.367 28.6484 192.156 28.9062C191.969 29.1641 191.723 29.293 191.418 29.293C191.113 29.293 190.797 29.1055 190.469 28.7305C190.281 28.543 190.105 28.2734 189.941 27.9219L189.414 27.043L185.617 29.7852L184.352 30.8398L183.508 31.6836L183.086 31.9648C182.852 31.9648 182.617 31.8125 182.383 31.5078C182.172 31.25 181.984 30.9336 181.82 30.5586C181.68 30.2539 181.609 29.9609 181.609 29.6797L181.82 29.0117C181.961 28.6367 182.066 28.25 182.137 27.8516C182.207 27.4297 182.266 26.9492 182.312 26.4102C182.359 25.8945 182.406 25.1445 182.453 24.1602L182.629 18.043C182.629 17.7148 182.617 17.375 182.594 17.0234C182.547 16.6719 182.488 16.3789 182.418 16.1445C182.348 15.9102 182.242 15.6992 182.102 15.5117L181.82 15.2305L181.75 14.8789C181.844 14.7383 182.008 14.668 182.242 14.668C182.805 14.668 183.25 14.7617 183.578 14.9492L184.105 15.2305C184.691 15.1602 185.172 15.0898 185.547 15.0195C185.945 14.9727 186.438 14.8789 187.023 14.7383C187.586 14.5977 188.02 14.4805 188.324 14.3867C188.629 14.293 188.945 14.1758 189.273 14.0352C189.602 13.8945 189.859 13.8242 190.047 13.8242C190.234 13.8477 190.457 13.918 190.715 14.0352L191.453 14.4219L191.91 14.7383C192.332 14.9961 192.602 15.207 192.719 15.3711L192.754 16.0039L192.402 16.5312C192.332 16.6719 192.227 16.9062 192.086 17.2344L191.91 17.7617L191.031 21.0312L190.68 22.4023C190.492 22.8711 190.305 23.1641 190.117 23.2812L189.73 23.4219H189.484L189.027 22.9648C188.395 23.0352 187.914 23.082 187.586 23.1055L185.16 23.457L184.281 23.5273L184.07 27.3945L184.211 28.168C184.398 28.168 184.609 28.1211 184.844 28.0273L188.992 26.3398ZM184.281 22.3672C184.703 22.3438 185.031 22.3203 185.266 22.2969C185.5 22.2734 185.852 22.2031 186.32 22.0859C186.836 21.9688 187.281 21.875 187.656 21.8047C187.938 21.7578 188.195 21.7344 188.43 21.7344L189.098 21.8047L189.695 19.0977C189.109 19.1445 188.676 19.1914 188.395 19.2383L186.707 19.5195C186.215 19.6133 185.816 19.6602 185.512 19.6602L184.949 19.5898L184.422 19.4141L184.281 22.3672ZM184.457 18.6758C184.902 18.6523 185.254 18.6172 185.512 18.5703C185.77 18.5234 186.203 18.418 186.812 18.2539C187.375 18.0898 187.797 17.9961 188.078 17.9727C188.477 17.9727 188.863 18.043 189.238 18.1836L189.801 18.3945L189.977 17.3047C190.023 17 190.047 16.6602 190.047 16.2852C190.047 15.9102 189.988 15.6641 189.871 15.5469C189.754 15.4297 189.59 15.3711 189.379 15.3711C189.145 15.3945 188.852 15.4531 188.5 15.5469C188.172 15.6172 187.633 15.7227 186.883 15.8633C186.109 16.0039 185.617 16.0742 185.406 16.0742L184.668 16.1094L184.457 18.6758ZM197.148 17.1992C197.055 17.5742 196.996 17.8555 196.973 18.043C196.949 18.2305 196.914 18.5352 196.867 18.957C196.82 19.3789 196.797 19.7305 196.797 20.0117L196.691 27.1133C196.668 28.0977 196.586 29.2461 196.445 30.5586L196.305 32.0703C196.211 32.9844 196.047 33.7695 195.812 34.4258C195.578 35.0586 195.367 35.375 195.18 35.375C195.016 35.3516 194.875 35.0117 194.758 34.3555C194.641 33.7227 194.57 32.9844 194.547 32.1406C194.523 31.5781 194.512 31.0156 194.512 30.4531V29.5742L194.652 20.3633C194.676 19.7539 194.688 19.2617 194.688 18.8867C194.688 18.5117 194.676 18.2539 194.652 18.1133C194.629 17.8086 194.594 17.457 194.547 17.0586C194.5 16.6602 194.418 16.332 194.301 16.0742L194.16 15.3711L194.336 15.1602C194.547 15.1602 194.805 15.207 195.109 15.3008C195.719 15.4883 196.117 15.6406 196.305 15.7578L196.867 16.1094L198.59 15.7227C199.176 15.582 199.773 15.418 200.383 15.2305L201.156 15.0195C201.531 14.9023 201.859 14.7734 202.141 14.6328L202.633 14.457C202.797 14.457 202.996 14.5273 203.23 14.668C203.465 14.8086 203.711 14.9727 203.969 15.1602C204.25 15.3477 204.52 15.5586 204.777 15.793C204.988 15.9805 205.059 16.2617 204.988 16.6367C204.801 16.8945 204.672 17.1289 204.602 17.3398C204.555 17.5508 204.508 17.832 204.461 18.1836C204.414 18.5586 204.391 18.9453 204.391 19.3438L204.18 23.1055C204.133 24.043 204.062 24.7695 203.969 25.2852C203.898 25.8008 203.746 26.2578 203.512 26.6562C203.254 27.0547 202.961 27.3711 202.633 27.6055L202 27.8867C201.812 27.8398 201.625 27.6992 201.438 27.4648C201.227 27.207 200.934 26.8789 200.559 26.4805C200.207 26.0586 199.867 25.6836 199.539 25.3555L198.906 24.793L198.695 24.3008C198.836 24.2773 199 24.3008 199.188 24.3711L199.996 24.6172C200.465 24.7812 200.828 24.875 201.086 24.8984C201.297 24.8984 201.473 24.8633 201.613 24.793C201.824 24.6523 201.953 24.3477 202 23.8789C202.07 23.3633 202.117 22.8711 202.141 22.4023L202.281 17.832C202.281 17.293 202.258 16.9414 202.211 16.7773L202.07 16.4961C201.93 16.3555 201.719 16.2852 201.438 16.2852C201.203 16.2852 200.805 16.332 200.242 16.4258L198.66 16.7422L197.148 17.1992ZM197.852 6.40625L202.281 5.52734C202.516 5.48047 202.773 5.41016 203.055 5.31641L203.688 5.17578C203.992 5.15234 204.25 5.16406 204.461 5.21094C204.742 5.28125 205.035 5.41016 205.34 5.59766L205.832 5.94922C205.855 6.08984 205.773 6.25391 205.586 6.44141C205.398 6.58203 205.129 6.6875 204.777 6.75781L203.477 7.00391C203.102 7.05078 202.574 7.12109 201.895 7.21484C201.215 7.28516 200.605 7.35547 200.066 7.42578C199.527 7.51953 199.164 7.56641 198.977 7.56641C198.602 7.56641 198.238 7.51953 197.887 7.42578L197.289 7.32031L196.27 8.72656C195.871 9.24219 195.391 9.76953 194.828 10.3086C194.219 10.8711 193.82 11.2109 193.633 11.3281L193 11.7148L192.578 11.8555L192.332 11.6797L192.578 11.293L193.352 10.3086C193.68 9.91016 193.949 9.55859 194.16 9.25391C194.371 8.92578 194.617 8.51562 194.898 8.02344C195.203 7.53125 195.449 7.09766 195.637 6.72266C195.801 6.37109 195.953 6.01953 196.094 5.66797C196.234 5.29297 196.34 4.98828 196.41 4.75391C196.48 4.49609 196.562 4.23828 196.656 3.98047C196.703 3.69922 196.727 3.44141 196.727 3.20703L196.938 2.64453L197.184 2.53906C197.348 2.53906 197.535 2.58594 197.746 2.67969C198.027 2.79688 198.32 2.94922 198.625 3.13672C198.93 3.32422 199.164 3.52344 199.328 3.73438L199.539 4.15625L199.469 4.47266C199.352 4.58984 199.188 4.75391 198.977 4.96484C198.742 5.19922 198.531 5.43359 198.344 5.66797L197.852 6.40625ZM186.25 7.28516L187.234 7.10938C187.656 7.03906 188.324 6.86328 189.238 6.58203L189.766 6.40625L190.645 6.16016L191.172 6.26562C191.453 6.33594 191.664 6.39453 191.805 6.44141C191.945 6.51172 192.086 6.60547 192.227 6.72266L192.473 6.96875C192.496 7.13281 192.438 7.27344 192.297 7.39062C192.109 7.50781 191.805 7.61328 191.383 7.70703L190.539 7.91797C190.352 7.96484 189.883 8.03516 189.133 8.12891L187.938 8.30469C187.633 8.32812 187.387 8.33984 187.199 8.33984L186.742 8.30469L185.828 7.98828L184.773 9.21875C184.445 9.61719 184.07 10.0156 183.648 10.4141C183.227 10.8359 182.84 11.1758 182.488 11.4336C182.137 11.668 181.762 11.9023 181.363 12.1367L180.168 12.5234C180.145 12.3594 180.203 12.207 180.344 12.0664L180.941 11.5039C181.293 11.1758 181.609 10.8477 181.891 10.5195C182.172 10.2383 182.512 9.81641 182.91 9.25391C183.309 8.69141 183.672 8.12891 184 7.56641C184.328 7.05078 184.609 6.58203 184.844 6.16016C185.055 5.73828 185.23 5.33984 185.371 4.96484C185.512 4.58984 185.582 4.21484 185.582 3.83984L185.863 3.3125C186.168 3.3125 186.496 3.41797 186.848 3.62891C187.199 3.81641 187.434 3.96875 187.551 4.08594C187.691 4.20313 187.82 4.33203 187.938 4.47266L188.148 5.17578C188.102 5.31641 187.984 5.44531 187.797 5.5625L187.41 5.80859L186.742 6.72266L186.25 7.28516ZM186.391 10.0625C186.648 10.0156 186.883 10.0039 187.094 10.0273L187.867 10.2031C188.078 10.2734 188.312 10.3438 188.57 10.4141C188.828 10.4844 189.039 10.5898 189.203 10.7305C189.391 10.8711 189.52 11.0117 189.59 11.1523C189.66 11.293 189.695 11.5039 189.695 11.7852C189.695 12.1602 189.602 12.4414 189.414 12.6289C189.25 12.8164 189.039 12.9219 188.781 12.9453C188.57 12.9453 188.312 12.8164 188.008 12.5586C187.797 12.3945 187.516 12.1133 187.164 11.7148C186.812 11.3398 186.555 11.0469 186.391 10.8359C186.25 10.625 186.25 10.3672 186.391 10.0625ZM198.414 8.90234L199.293 9.04297C199.926 9.18359 200.465 9.35938 200.91 9.57031C201.332 9.78125 201.648 10.0273 201.859 10.3086C202.047 10.5898 202.141 10.9648 202.141 11.4336C202.117 11.9961 201.918 12.3594 201.543 12.5234C201.238 12.5234 200.945 12.4297 200.664 12.2422C200.289 12.0312 199.926 11.7266 199.574 11.3281L198.695 10.2383L198.027 8.9375C198.191 8.89062 198.32 8.87891 198.414 8.90234Z" fill="#333333"/>
<path d="M115.094 70.5625C114.094 70.5625 113.427 70.5 113.094 70.375C112.698 70.1875 112.438 69.7604 112.312 69.0938C112.25 68.7396 112.219 68.2917 112.219 67.75L112.094 65.7188V64.9375C112.073 64.9167 112.062 64.8646 112.062 64.7812L112.031 64.4375C112.01 64.2708 111.917 64.0729 111.75 63.8438C111.688 63.7188 111.656 63.625 111.656 63.5625C111.656 63.4167 111.833 63.375 112.188 63.4375C112.562 63.5 112.99 63.5312 113.469 63.5312C113.802 63.5312 114.427 63.5104 115.344 63.4688C115.656 63.4479 116.385 63.3542 117.531 63.1875L118.531 62.9688L118.781 62.9062C118.969 62.9062 119.198 63.0208 119.469 63.25C119.698 63.4375 119.812 63.6146 119.812 63.7812C119.812 63.9896 119.656 64.1146 119.344 64.1562C118.531 64.2188 117.906 64.25 117.469 64.25L116.344 64.3125C116.01 64.3542 115.781 64.375 115.656 64.375C114.281 64.4375 113.5 64.4688 113.312 64.4688C113.312 65.9271 113.323 66.8333 113.344 67.1875C113.385 67.7708 113.417 68.2292 113.438 68.5625C113.479 68.8958 113.531 69.1146 113.594 69.2188C113.635 69.3021 113.708 69.3646 113.812 69.4062C113.938 69.4271 114.052 69.4479 114.156 69.4688C114.281 69.4688 114.375 69.4688 114.438 69.4688C114.458 69.4688 114.51 69.4792 114.594 69.5C114.698 69.5 114.896 69.5 115.188 69.5C115.396 69.5 115.75 69.4792 116.25 69.4375C116.896 69.3958 117.521 69.3125 118.125 69.1875C118.271 69.1667 118.604 69.1562 119.125 69.1562C119.375 69.1562 119.615 69.2708 119.844 69.5C119.948 69.6042 120 69.75 120 69.9375C120 70.0833 119.958 70.1875 119.875 70.25C119.75 70.3125 119.552 70.3646 119.281 70.4062C119.031 70.4271 118.708 70.4479 118.312 70.4688C117.167 70.5312 116.094 70.5625 115.094 70.5625ZM116.031 82.4688C115.885 82.4688 115.781 82.4271 115.719 82.3438C115.656 82.2604 115.615 82.2083 115.594 82.1875C115.385 81.8958 115.292 81.6146 115.312 81.3438C115.333 81.1771 115.365 80.7292 115.406 80L115.438 78.5C115.417 78.2708 115.396 78.1354 115.375 78.0938C115.354 78.0312 115.26 77.9062 115.094 77.7188C114.76 77.3021 114.375 76.875 113.938 76.4375C113.438 75.9375 113.115 75.6042 112.969 75.4375C112.969 75.4375 112.656 75.125 112.031 74.5C111.969 74.4375 111.938 74.375 111.938 74.3125C111.938 74.2083 112 74.125 112.125 74.0625C112.271 73.9792 112.417 73.9479 112.562 73.9688C112.979 74.0104 113.25 74.0625 113.375 74.125C113.521 74.1667 113.656 74.2917 113.781 74.5C113.906 74.7083 114.083 74.9583 114.312 75.25C114.562 75.5208 114.75 75.7292 114.875 75.875C115.396 76.5 115.76 76.9167 115.969 77.125C116.344 76.6875 116.812 76.0625 117.375 75.25C117.833 74.6667 118.104 74.1875 118.188 73.8125C118.271 73.5417 118.396 73.4062 118.562 73.4062C118.646 73.4062 118.771 73.4583 118.938 73.5625C119.479 73.8958 119.75 74.1667 119.75 74.375C119.75 74.5 119.615 74.6562 119.344 74.8438C118.969 75.1146 118.656 75.4167 118.406 75.75L117.781 76.5312C117.365 77.0312 117.052 77.4271 116.844 77.7188C116.74 77.9062 116.688 78.1771 116.688 78.5312V80.4375V81.6875C116.708 81.8333 116.625 82 116.438 82.1875C116.271 82.375 116.135 82.4688 116.031 82.4688ZM86.5938 69.0312C86.3854 68.9896 86.2083 68.9479 86.0625 68.9062C85.9167 68.8646 85.6562 68.6042 85.2812 68.125L84.5312 67.2812L83.8438 66.3438L83.6875 65.9062C83.8542 65.8854 84.0104 65.8854 84.1562 65.9062C84.3229 65.9271 84.6042 66 85 66.125C85.375 66.2292 85.6771 66.3333 85.9062 66.4375C86.1562 66.5208 86.4062 66.6562 86.6562 66.8438C86.9062 67.0521 87.0417 67.2292 87.0625 67.375L87.25 68.0938C87.5625 67.6771 87.8125 67.3333 88 67.0625C88.1875 66.7917 88.4583 66.3333 88.8125 65.6875C89.1667 65.0417 89.4375 64.5208 89.625 64.125C89.8333 63.7292 89.9688 63.4271 90.0312 63.2188L90.0938 62.8125L89.9062 62.5312C89.7604 62.5104 89.6042 62.5208 89.4375 62.5625C89.2083 62.625 88.9271 62.6875 88.5938 62.75L87.4062 62.9688C87.0312 63.0312 86.75 63.0625 86.5625 63.0625C86.375 63.0417 86.1667 63.0104 85.9375 62.9688C85.7292 62.9271 85.5417 62.75 85.375 62.4375L86 62.25C86.3958 62.2083 86.6562 62.1771 86.7812 62.1562L88.0938 61.875C88.5521 61.7708 88.9479 61.6667 89.2812 61.5625L90.25 61.2188C90.5 61.1354 90.7083 61.0938 90.875 61.0938C91.0208 61.1146 91.2188 61.1771 91.4688 61.2812C91.7188 61.3646 91.9583 61.4896 92.1875 61.6562C92.4375 61.8021 92.6354 61.9583 92.7812 62.125L92.9688 62.4375C92.9688 62.6042 92.8958 62.7708 92.75 62.9375L92.1562 63.5938C91.9062 63.8438 91.7292 64.0417 91.625 64.1875C91.5208 64.3125 91.3125 64.6354 91 65.1562L89.875 67.0312C89.4375 67.7396 89.0938 68.2604 88.8438 68.5938L88.0312 69.6562C88.3646 69.5729 88.6562 69.5104 88.9062 69.4688C89.1562 69.4271 89.3854 69.3646 89.5938 69.2812C89.8021 69.1979 90.0417 69.0833 90.3125 68.9375L90.8125 68.7188C91 68.7188 91.2396 68.8021 91.5312 68.9688C91.8438 69.1354 92.1146 69.2917 92.3438 69.4375L92.5938 70L92.2812 70.3438C92.1562 70.4896 92.0521 70.6562 91.9688 70.8438L91.8125 71.3125L91.2188 73.0312L91.5938 73.25L91.8125 73.5312C91.7708 73.6562 91.6771 73.7396 91.5312 73.7812C91.4062 73.8229 91.1771 73.8438 90.8438 73.8438C90.5104 73.8438 90.1667 73.8646 89.8125 73.9062L88.4062 74.1875L87.5312 74.2812L87.7812 74.5625V74.9688C87.5104 75.2604 87.3333 75.5208 87.25 75.75L86.8438 76.7812C87.3021 76.6562 87.7396 76.5521 88.1562 76.4688C88.5729 76.3854 88.9479 76.3021 89.2812 76.2188L89.8125 76.0625C90.0208 76.0833 90.3646 76.1979 90.8438 76.4062C91.3021 76.6146 91.6458 76.8021 91.875 76.9688C92.0833 77.1354 92.1979 77.3125 92.2188 77.5L92.0312 77.9062L91.5938 78.8125C91.4271 79.1667 91.3229 79.4792 91.2812 79.75L90.9062 82.0938C90.7812 82.8021 90.6354 83.3438 90.4688 83.7188C90.3021 84.0729 90.0729 84.4479 89.7812 84.8438C89.4688 85.2188 89.1875 85.4792 88.9375 85.625L88.4688 85.8125C88.2604 85.7917 88.0729 85.6458 87.9062 85.375L87.25 84.3438C87.1042 84.1771 86.8646 83.9271 86.5312 83.5938L85.9688 83.0625L86.0312 82.6875L86.6875 82.9375L87.2188 83.2188L87.625 83.3438L88.0312 83.4375C88.3021 83.3958 88.5312 83.2396 88.7188 82.9688C88.9271 82.6771 89.1042 82.2812 89.25 81.7812C89.3958 81.3021 89.5104 80.8646 89.5938 80.4688L89.9062 78.5938C89.9896 78.1979 90.0312 77.9167 90.0312 77.75C90.0312 77.5833 89.9062 77.4062 89.6562 77.2188C89.3854 77.1771 89.0417 77.1875 88.625 77.25C88.1875 77.3125 87.8854 77.3646 87.7188 77.4062C87.5521 77.4479 87.3854 77.5312 87.2188 77.6562C87.0521 77.7396 86.8021 77.9583 86.4688 78.3125C86.1354 78.6458 85.8646 78.875 85.6562 79L85.1562 79.1875C84.9896 79.1875 84.8438 79.125 84.7188 79C84.5938 78.8542 84.5312 78.6354 84.5312 78.3438C84.5312 78.0938 84.5729 77.9062 84.6562 77.7812C84.7188 77.6562 84.8958 77.4271 85.1875 77.0938C85.5 76.8021 85.6979 76.4792 85.7812 76.125L86.0312 75.2188L86.125 74.75L85.9375 74.375L85.5938 74.0625L85.5 73.7188C85.5625 73.5938 85.7188 73.5208 85.9688 73.5C86.1979 73.4792 86.5729 73.4271 87.0938 73.3438L88.2812 73.1562L89.6875 72.7812L90.0938 72.75L90.4688 70.7812L90.5312 70.3438L90.2812 70.0625C90.0312 70.0208 89.6562 70.0625 89.1562 70.1875L88.4062 70.375L87.9062 70.5312L87.4062 70.3438C87.0312 70.8021 86.7188 71.1562 86.4688 71.4062C86.2188 71.6562 85.8438 71.9792 85.3438 72.375C84.8646 72.7708 84.4062 73.125 83.9688 73.4375C83.5104 73.75 83.0729 74.0312 82.6562 74.2812C82.2188 74.5104 81.8542 74.6667 81.5625 74.75L80.8438 74.9688L80.5938 75.0312L80.3438 74.9688C80.3438 74.8229 80.4688 74.6562 80.7188 74.4688L81.2812 74.0938C81.5312 73.9271 81.9062 73.6458 82.4062 73.25C82.9062 72.8542 83.4167 72.4271 83.9375 71.9688C84.4583 71.5104 84.8958 71.0521 85.25 70.5938L86.5938 69.0312ZM97.2188 81.0312L95.6875 79.6875L94.4688 78.6562C93.9688 78.2396 93.6146 77.9583 93.4062 77.8125L93.2812 77.375C93.4896 77.2708 93.7083 77.2083 93.9375 77.1875C94.1667 77.1667 94.5729 77.0938 95.1562 76.9688L96.4062 76.7188C96.8229 76.6354 97.2604 76.5104 97.7188 76.3438L98.5938 76C98.8021 75.9375 98.9896 75.8958 99.1562 75.875C99.3229 75.875 99.4688 75.8958 99.5938 75.9375L100.469 76.2812C100.885 76.4479 101.167 76.6042 101.312 76.75L101.531 77.0625C101.49 77.2083 101.406 77.3542 101.281 77.5L100.875 77.9062C100.771 78.0729 100.656 78.2396 100.531 78.4062L99.7812 79.7812L99.3438 80.6562L100.594 81.5C100.927 81.7292 101.271 82.0104 101.625 82.3438C101.958 82.6771 102.24 82.9792 102.469 83.25C102.677 83.5208 102.823 83.7708 102.906 84C102.948 84.1458 102.969 84.3542 102.969 84.625C102.969 84.9792 102.906 85.25 102.781 85.4375C102.656 85.6042 102.479 85.6875 102.25 85.6875C102.083 85.6875 101.927 85.625 101.781 85.5C101.615 85.375 101.344 85.1146 100.969 84.7188L98.3438 82.0312L97.5 82.8438C97.1875 83.1354 96.6875 83.4792 96 83.875C95.3125 84.2708 94.7604 84.5312 94.3438 84.6562C93.9062 84.7604 93.4896 84.8438 93.0938 84.9062L92.2188 85L91.9688 84.9062C91.9688 84.7604 92.0729 84.6562 92.2812 84.5938L92.9688 84.375C93.0938 84.3333 93.375 84.1875 93.8125 83.9375C94.25 83.7083 94.625 83.4896 94.9375 83.2812C95.2292 83.0729 95.6042 82.75 96.0625 82.3125C96.5417 81.875 96.8646 81.5417 97.0312 81.3125L97.2188 81.0312ZM94.7188 77.9688C95.3646 78.2604 95.8438 78.4896 96.1562 78.6562L97.6562 79.5625L98.0938 79.8438L98.5312 78.8438C98.6562 78.5938 98.7604 78.3333 98.8438 78.0625L98.9062 77.5938C98.8229 77.4271 98.7083 77.3438 98.5625 77.3438C98.4167 77.3438 98.2083 77.3958 97.9375 77.5C97.6667 77.6042 97.3854 77.6771 97.0938 77.7188C96.8021 77.7604 96.2812 77.8125 95.5312 77.875L94.7188 77.9688ZM95.6562 69.875L95.5312 71.9688C95.4688 72.6562 95.3229 73.2604 95.0938 73.7812C94.8854 74.3229 94.6562 74.6979 94.4062 74.9062C94.1562 75.1354 93.8229 75.3646 93.4062 75.5938L92.9688 75.875L92.625 75.7812L93.1562 75.0938C93.5729 74.5938 93.8438 74.1458 93.9688 73.75C94.0938 73.3542 94.1979 72.8021 94.2812 72.0938C94.3229 71.3854 94.3438 70.8958 94.3438 70.625C94.3438 70.4792 94.3229 70.2604 94.2812 69.9688L94.1562 69.4688L93.875 69L94.9688 69.0312L95.5312 69.1562C95.9062 68.9896 96.1875 68.8542 96.375 68.75L97.125 68.3438C97.3958 68.2188 97.6354 68.1458 97.8438 68.125C98.0312 68.125 98.2188 68.1562 98.4062 68.2188C98.6562 68.3021 98.8958 68.4167 99.125 68.5625C99.3542 68.7083 99.5208 68.8542 99.625 69L99.5938 69.5625C99.4271 69.7708 99.3125 69.9896 99.25 70.2188C99.1667 70.4688 99.0938 70.7083 99.0312 70.9375L98.8438 71.9688C98.8021 72.1979 98.7812 72.4062 98.7812 72.5938C98.7812 72.8021 98.8021 72.9896 98.8438 73.1562C98.9062 73.4688 99.0521 73.6771 99.2812 73.7812C99.4479 73.8646 99.6771 73.9062 99.9688 73.9062C100.344 73.8646 100.688 73.7708 101 73.625L101.531 73.4375C101.74 73.4167 101.969 73.4583 102.219 73.5625C102.448 73.6667 102.656 73.7708 102.844 73.875L103.188 74.125L103.344 74.4062C103.323 74.5729 103.156 74.7188 102.844 74.8438C102.51 75.0104 102.083 75.1146 101.562 75.1562C101.292 75.1771 101.021 75.1875 100.75 75.1875C100.479 75.1875 100.198 75.1771 99.9062 75.1562C99.3229 75.0938 98.8958 74.9688 98.625 74.7812C98.3333 74.6146 98.0938 74.375 97.9062 74.0625C97.7396 73.7708 97.6458 73.4167 97.625 73C97.625 72.625 97.6354 72.2604 97.6562 71.9062L97.7188 70.4375L97.7812 69.875C97.7604 69.6875 97.625 69.5312 97.375 69.4062H97.0938C96.8021 69.4479 96.5521 69.5417 96.3438 69.6875L96.0312 69.875H95.6562ZM96.5312 62.1875C96.8438 61.6875 97.0729 61.3021 97.2188 61.0312C97.3854 60.7812 97.5521 60.4792 97.7188 60.125C97.8854 59.7708 98 59.4792 98.0625 59.25L98.3438 58.7812L98.625 58.8125L99.3125 59.2812C99.7292 59.5938 99.9167 59.9583 99.875 60.375C99.6458 60.4792 99.3646 60.6667 99.0312 60.9375C98.7396 61.2083 98.3333 61.5104 97.8125 61.8438L96.8125 62.4688L99.125 64.9375L100.219 63.875C100.552 63.5625 100.833 63.2604 101.062 62.9688C101.292 62.7188 101.49 62.4583 101.656 62.1875L102.031 61.4688C102.115 61.3021 102.229 61.1875 102.375 61.125C102.521 61.1042 102.677 61.1354 102.844 61.2188C103.01 61.3021 103.25 61.5 103.562 61.8125C103.875 62.1042 104.094 62.3333 104.219 62.5L104.406 62.8125C104.385 62.9583 104.312 63.0729 104.188 63.1562C104.062 63.1979 103.844 63.2604 103.531 63.3438C103.24 63.4271 102.823 63.6146 102.281 63.9062C101.74 64.1979 101.177 64.4792 100.594 64.75L99.4688 65.2812L100.219 66.0312L101.219 67C101.552 67.3125 101.958 67.6354 102.438 67.9688C102.917 68.3438 103.438 68.6979 104 69.0312C104.562 69.3854 105.125 69.6979 105.688 69.9688C106.25 70.2604 106.74 70.4688 107.156 70.5938L108.969 71.1875C109.51 71.375 109.781 71.5417 109.781 71.6875C109.781 71.8333 109.656 71.9271 109.406 71.9688L108.094 72.2812C107.635 72.3646 107.042 72.4583 106.312 72.5625C105.854 72.625 105.479 72.6562 105.188 72.6562C105 72.6562 104.844 72.6458 104.719 72.625C104.323 72.5833 103.969 72.4792 103.656 72.3125C103.344 72.125 102.865 71.6667 102.219 70.9375L101.156 69.7812C101.052 69.6354 100.49 68.9375 99.4688 67.6875C98.4688 66.4583 97.7917 65.6042 97.4375 65.125C97.0833 64.6667 96.7812 64.2917 96.5312 64C96.2812 63.7292 95.9688 63.4375 95.5938 63.125C95.2396 62.8333 94.875 62.6146 94.5 62.4688C94.1458 62.3438 93.9062 62.2292 93.7812 62.125L93.625 61.875C93.6458 61.6875 93.75 61.5521 93.9375 61.4688C94.0833 61.3854 94.3021 61.3438 94.5938 61.3438C94.8854 61.3438 95.1875 61.3958 95.5 61.5L96.0625 61.7188L96.5312 62.1875ZM160.469 67.5312C160.24 67.5312 159.958 67.3542 159.625 67C159.375 66.75 159.25 66.5625 159.25 66.4375C159.25 66.375 159.292 66.3438 159.375 66.3438C159.458 66.3229 159.562 66.3125 159.688 66.3125L160.375 66.2812C160.771 66.2812 161.031 66.2708 161.156 66.25C161.552 66.25 161.885 66.2396 162.156 66.2188C163.948 66.0521 165.156 65.9167 165.781 65.8125C166.094 65.7708 166.375 65.7292 166.625 65.6875C166.875 65.625 167.073 65.5938 167.219 65.5938C167.51 65.5938 167.802 65.7396 168.094 66.0312C168.323 66.2604 168.438 66.4479 168.438 66.5938C168.438 66.7188 168.365 66.8021 168.219 66.8438C168.115 66.8646 167.5 66.9062 166.375 66.9688C165.75 66.9896 164.979 67.0417 164.062 67.125C163.146 67.2083 162.344 67.2917 161.656 67.375C161.531 67.3958 161.354 67.4271 161.125 67.4688C160.896 67.5104 160.677 67.5312 160.469 67.5312ZM164.031 82.4688C163.885 82.4688 163.781 82.4271 163.719 82.3438C163.656 82.2604 163.615 82.2083 163.594 82.1875C163.385 81.8958 163.292 81.6146 163.312 81.3438C163.333 81.1771 163.365 80.7292 163.406 80L163.438 78.5C163.417 78.2708 163.396 78.1354 163.375 78.0938C163.354 78.0312 163.26 77.9062 163.094 77.7188C162.76 77.3021 162.375 76.875 161.938 76.4375C161.438 75.9375 161.115 75.6042 160.969 75.4375C160.969 75.4375 160.656 75.125 160.031 74.5C159.969 74.4375 159.938 74.375 159.938 74.3125C159.938 74.2083 160 74.125 160.125 74.0625C160.271 73.9792 160.417 73.9479 160.562 73.9688C160.979 74.0104 161.25 74.0625 161.375 74.125C161.521 74.1667 161.656 74.2917 161.781 74.5C161.906 74.7083 162.083 74.9583 162.312 75.25C162.562 75.5208 162.75 75.7292 162.875 75.875C163.396 76.5 163.76 76.9167 163.969 77.125C164.344 76.6875 164.812 76.0625 165.375 75.25C165.833 74.6667 166.104 74.1875 166.188 73.8125C166.271 73.5417 166.396 73.4062 166.562 73.4062C166.646 73.4062 166.771 73.4583 166.938 73.5625C167.479 73.8958 167.75 74.1667 167.75 74.375C167.75 74.5 167.615 74.6562 167.344 74.8438C166.969 75.1146 166.656 75.4167 166.406 75.75L165.781 76.5312C165.365 77.0312 165.052 77.4271 164.844 77.7188C164.74 77.9062 164.688 78.1771 164.688 78.5312V80.4375V81.6875C164.708 81.8333 164.625 82 164.438 82.1875C164.271 82.375 164.135 82.4688 164.031 82.4688ZM136.688 61.5625L136.812 62.1875C136.708 62.4792 136.635 62.7812 136.594 63.0938C136.552 63.4271 136.479 64.1146 136.375 65.1562C136.271 66.1979 136.167 67.0625 136.062 67.75C135.958 68.4167 135.792 69.3542 135.562 70.5625C135.333 71.75 135.115 72.75 134.906 73.5625C134.698 74.375 134.427 75.2604 134.094 76.2188C133.76 77.1771 133.375 78.0521 132.938 78.8438C132.5 79.6354 132.073 80.2812 131.656 80.7812C131.24 81.2812 130.906 81.6458 130.656 81.875L129.969 82.4688L129.594 82.4062L130.188 81.4688C130.375 81.1771 130.604 80.7604 130.875 80.2188C131.146 79.6771 131.469 78.9896 131.844 78.1562C132.177 77.3438 132.479 76.5312 132.75 75.7188C133.021 74.9271 133.26 74.0729 133.469 73.1562C133.677 72.2396 133.875 71.3229 134.062 70.4062C134.229 69.4896 134.354 68.6354 134.438 67.8438C134.542 67.0729 134.615 66.2812 134.656 65.4688C134.74 64.6354 134.781 64.0625 134.781 63.75C134.781 63.4375 134.771 63.0417 134.75 62.5625C134.729 62.125 134.698 61.8438 134.656 61.7188L134.469 61.1562C134.302 61.0521 134.146 60.8542 134 60.5625C134.021 60.4167 134.156 60.3229 134.406 60.2812L135.594 60.2188C135.802 60.1979 136.24 60.1354 136.906 60.0312L140.438 59.5938L143.406 59.25C144.698 59.1042 145.521 59 145.875 58.9375L148.031 58.5938C148.865 58.4688 149.448 58.375 149.781 58.3125C150.115 58.25 150.375 58.2188 150.562 58.2188C150.833 58.2188 151.104 58.2708 151.375 58.375C151.646 58.4792 151.906 58.5938 152.156 58.7188C152.406 58.8438 152.594 58.9792 152.719 59.125L152.938 59.4375C152.917 59.6042 152.812 59.7292 152.625 59.8125C152.438 59.875 152.177 59.9167 151.844 59.9375L150.406 59.9688C149.615 60.0104 148.573 60.0729 147.281 60.1562C145.948 60.2396 144.917 60.3229 144.188 60.4062L141.812 60.6875C140.958 60.7917 140.229 60.8854 139.625 60.9688L137.281 61.2812L136.688 61.5625ZM144.656 82.7188L144.562 80L142.812 80.1875C142.396 80.2292 141.979 80.25 141.562 80.25C141 80.2292 140.562 80.1771 140.25 80.0938C139.938 80.0104 139.688 79.875 139.5 79.6875L139.281 79.375C139.323 79.2292 139.51 79.1562 139.844 79.1562L140.812 79.0938L142.312 78.9688C142.833 78.9271 143.292 78.875 143.688 78.8125L144.531 78.6562C144.51 78.4896 144.5 78.3125 144.5 78.125L144.531 77.8438C144.49 77.5938 144.438 77.3542 144.375 77.125C144.312 76.8958 144.24 76.6979 144.156 76.5312L143.969 75.9375C144.052 75.7917 144.219 75.7188 144.469 75.7188C144.74 75.7396 145.021 75.7812 145.312 75.8438L146.156 76.0938C146.427 76.1771 146.625 76.2812 146.75 76.4062L146.906 76.8438C146.781 77.1354 146.698 77.3854 146.656 77.5938L146.594 77.9688V78.4062C146.844 78.3646 147.115 78.3229 147.406 78.2812C147.719 78.2396 148.052 78.1771 148.406 78.0938L149.25 77.9062C149.458 77.8438 149.646 77.8125 149.812 77.8125C149.979 77.8333 150.177 77.875 150.406 77.9375C150.615 78.0208 150.823 78.1146 151.031 78.2188C151.24 78.3021 151.406 78.4062 151.531 78.5312L151.562 78.9375C151.375 79.0625 151.156 79.1458 150.906 79.1875L149.969 79.375C149.719 79.4375 149.281 79.5104 148.656 79.5938L147.625 79.7188L146.531 79.8125L146.344 82.6562C146.927 82.6146 147.344 82.5833 147.594 82.5625C147.844 82.5417 148.552 82.4896 149.719 82.4062C150.865 82.3229 151.583 82.2604 151.875 82.2188C152.188 82.1979 152.552 82.1667 152.969 82.125C153.385 82.0625 153.677 82.0312 153.844 82.0312C154.052 82.0729 154.312 82.1354 154.625 82.2188C154.938 82.3229 155.271 82.4479 155.625 82.5938C155.958 82.7396 156.229 82.9062 156.438 83.0938C156.604 83.2604 156.688 83.4375 156.688 83.625C156.646 83.8125 156.521 83.9062 156.312 83.9062H152.656L149.75 83.9688L146.906 84C145.823 84.0208 144.823 84.0625 143.906 84.125C142.99 84.1875 142.219 84.25 141.594 84.3125L139.75 84.5312C138.854 84.6354 138.25 84.7083 137.938 84.75L137.375 84.8438C137.104 84.8438 136.854 84.8229 136.625 84.7812C136.396 84.7396 136.115 84.6354 135.781 84.4688C135.427 84.2604 135.156 84.0938 134.969 83.9688L134.719 83.5C134.844 83.3542 135.042 83.2812 135.312 83.2812H136.438C136.688 83.2812 137.281 83.2396 138.219 83.1562L140.469 83.0312C141.26 82.9896 142.021 82.9375 142.75 82.875L144.656 82.7188ZM138.781 69.25C139.094 69.1875 139.438 69.1146 139.812 69.0312C140.167 68.9688 140.49 68.9062 140.781 68.8438C141.073 68.8021 141.292 68.7604 141.438 68.7188L142 68.5312L142.438 68.4062C142.583 68.3854 142.74 68.4062 142.906 68.4688C143.073 68.5104 143.24 68.5938 143.406 68.7188C143.573 68.8229 143.74 68.9479 143.906 69.0938L144.125 69.5625L143.969 69.9688C143.885 70.1354 143.823 70.3021 143.781 70.4688C143.74 70.6354 143.698 70.9271 143.656 71.3438C143.615 71.7396 143.594 72.0312 143.594 72.2188L143.656 73.5312C143.656 73.9896 143.667 74.3854 143.688 74.7188C143.688 75.0521 143.656 75.3438 143.594 75.5938C143.51 75.9271 143.375 76.2396 143.188 76.5312C142.979 76.8229 142.792 77.0312 142.625 77.1562L142.281 77.25C142.115 77.2292 141.969 77.1042 141.844 76.875C141.719 76.6458 141.594 76.4375 141.469 76.25C141.365 76.0625 141.26 75.9167 141.156 75.8125L140.781 75.4062L140.875 75.0312L141.469 75.125L141.844 75.2188L142.094 75.1875C142.219 75.1042 142.292 74.9896 142.312 74.8438C142.333 74.7188 142.365 74.4896 142.406 74.1562L142.438 73.5312V72.9062L142 73.125L141.188 73.4688C140.792 73.6354 140.5 73.7812 140.312 73.9062L139.969 74.125L139.438 74.2188C139.292 74.1354 139.135 73.9583 138.969 73.6875L138.656 73.2812C138.531 73.6979 138.417 74.0521 138.312 74.3438C138.208 74.6354 138.031 74.9792 137.781 75.375C137.552 75.7708 137.323 76.0729 137.094 76.2812L136.188 76.75L136.594 75.9062C136.76 75.6146 136.917 75.2604 137.062 74.8438C137.208 74.4688 137.302 74.0312 137.344 73.5312C137.427 73.0521 137.469 72.5312 137.469 71.9688C137.49 71.6771 137.5 71.4167 137.5 71.1875C137.5 70.9792 137.49 70.8021 137.469 70.6562C137.469 70.3229 137.427 70.0521 137.344 69.8438L137.094 69.1562C137.156 69.0312 137.271 68.9583 137.438 68.9375C137.646 68.9375 137.927 68.9896 138.281 69.0938L138.781 69.25ZM138.719 73.0312C138.969 73.0104 139.188 72.9896 139.375 72.9688C139.562 72.9688 139.75 72.9479 139.938 72.9062C140.125 72.8854 140.615 72.8229 141.406 72.7188L142.438 72.3438L142.469 71.0312C142.49 70.8854 142.5 70.7396 142.5 70.5938C142.5 70.4479 142.49 70.3021 142.469 70.1562L142.406 69.6562C142.323 69.5312 142.156 69.4688 141.906 69.4688C141.698 69.4688 141.365 69.5 140.906 69.5625L139.906 69.6875L139.031 69.8438L138.969 70.4062C139.177 70.4479 139.427 70.4688 139.719 70.4688C140.01 70.5104 140.24 70.5312 140.406 70.5312L140.906 70.6562L141.281 70.75C141.406 70.8125 141.51 70.9167 141.594 71.0625L141.688 71.4375C141.667 71.6667 141.469 71.8542 141.094 72C140.844 71.9375 140.583 71.8125 140.312 71.625L139.531 71.1562L138.969 70.75C138.948 71.1042 138.927 71.4271 138.906 71.7188C138.885 72.0104 138.865 72.2396 138.844 72.4062L138.719 73.0312ZM139.438 67.4062C139.417 67.5938 139.323 67.8021 139.156 68.0312C138.99 68.0729 138.844 67.9479 138.719 67.6562C138.594 67.4688 138.51 67.1458 138.469 66.6875C138.406 66.2083 138.344 65.7604 138.281 65.3438C138.198 64.9271 138.135 64.6042 138.094 64.375C138.052 64.1458 137.99 63.9375 137.906 63.75C137.865 63.5625 137.75 63.3854 137.562 63.2188L137.344 62.8438C137.427 62.7188 137.562 62.6667 137.75 62.6875L138.188 62.75L138.875 62.9062C139.188 62.8229 139.51 62.7604 139.844 62.7188L140.688 62.5625C140.917 62.5 141.25 62.4167 141.688 62.3125C142.125 62.1875 142.469 62.0729 142.719 61.9688L143.25 61.8438C143.417 61.8229 143.562 61.8333 143.688 61.875C143.833 61.9375 144.052 62.0208 144.344 62.125C144.615 62.2292 144.812 62.3229 144.938 62.4062L145.188 62.5938V63.0625C145 63.25 144.865 63.4896 144.781 63.7812L144.531 64.5938C144.448 64.8021 144.344 65.1354 144.219 65.5938C144.073 66.0521 143.948 66.4271 143.844 66.7188C143.76 67.0104 143.635 67.2604 143.469 67.4688L143.062 67.7188C142.812 67.6771 142.635 67.5208 142.531 67.25C142.156 67.1875 141.823 67.1771 141.531 67.2188C141.219 67.2604 140.885 67.3021 140.531 67.3438L139.969 67.4062H139.438ZM139.156 64.5312L139.5 64.4688L140.219 64.375C140.469 64.3542 140.74 64.3021 141.031 64.2188C141.344 64.1354 141.594 64.0833 141.781 64.0625C142.01 64.0625 142.198 64.0729 142.344 64.0938L142.938 64.3125C143.083 64.0208 143.177 63.7188 143.219 63.4062V63.125L142.781 62.7812L141.969 62.8438L141.156 63.0938L140.219 63.25L139.594 63.375H139.031V63.9375L139.156 64.5312ZM139.375 66.6562L140.156 66.5312C140.427 66.4896 140.708 66.4375 141 66.375C141.271 66.3125 141.469 66.2708 141.594 66.25C141.76 66.25 141.948 66.2812 142.156 66.3438L142.656 66.4688L142.844 65.7188L143.094 64.6562C142.656 64.7812 142.281 64.875 141.969 64.9375C141.635 65 141.323 65.0625 141.031 65.125C140.76 65.1875 140.479 65.2292 140.188 65.25L139.688 65.2812L139.219 65.2188V65.9062L139.375 66.6562ZM147.531 68.2812C147.365 68.2812 147.052 68.3021 146.594 68.3438C146.115 68.3438 145.74 68.3229 145.469 68.2812C145.198 68.2188 144.979 68.1146 144.812 67.9688V67.5625L145.969 67.375C146.427 67.3125 146.74 67.2708 146.906 67.25L147.656 67.0938C147.698 66.5521 147.729 66.1042 147.75 65.75C147.771 65.3958 147.781 64.9896 147.781 64.5312C147.781 64.0938 147.75 63.7188 147.688 63.4062C147.625 63.1146 147.531 62.8646 147.406 62.6562L147.125 62.25L147.531 61.8438C147.698 61.8438 147.958 61.8854 148.312 61.9688L149.094 62.2188C149.281 62.2812 149.438 62.375 149.562 62.5L149.75 62.9375L149.594 63.4688C149.552 63.5938 149.51 63.7604 149.469 63.9688C149.427 64.1979 149.396 64.5625 149.375 65.0625L149.312 65.875L149.219 66.75C149.552 66.6667 149.823 66.5938 150.031 66.5312C150.24 66.4896 150.427 66.4375 150.594 66.375C150.781 66.3125 150.969 66.2396 151.156 66.1562L151.625 66.0312H151.844C152.01 66.0729 152.24 66.1667 152.531 66.3125L153.031 66.5938L152.969 67.0625C152.677 67.2083 152.312 67.3333 151.875 67.4375C151.438 67.5417 151.021 67.6458 150.625 67.75C150.229 67.8333 149.865 67.8958 149.531 67.9375L148.969 68.2188L149.656 69.4062C149.906 69.7812 150.198 70.1667 150.531 70.5625C150.865 70.9583 151.229 71.3438 151.625 71.7188C152.021 72.0938 152.427 72.4167 152.844 72.6875C153.26 72.9792 153.646 73.2188 154 73.4062L155.031 73.9062L155.719 74.2188L156.031 74.5C156.031 74.6458 155.969 74.7292 155.844 74.75L155.25 74.9062C155.062 74.9479 154.833 74.9896 154.562 75.0312C154.292 75.0729 153.958 75.1042 153.562 75.125C153.271 75.125 153.042 75.1146 152.875 75.0938C152.646 75.0938 152.448 75.0521 152.281 74.9688C152.135 74.8854 151.906 74.6354 151.594 74.2188C151.26 73.7812 151.01 73.4375 150.844 73.1875L149.938 71.6875L149.156 70.375L148.719 69.4688L148.438 70.2812C148.375 70.4896 148.229 70.8438 148 71.3438C147.792 71.8438 147.573 72.2812 147.344 72.6562C147.115 73.0312 146.844 73.3854 146.531 73.7188C146.198 74.0521 145.917 74.3125 145.688 74.5L145.031 74.9688L144.656 74.875L145.156 74.0938C145.281 73.9271 145.49 73.6146 145.781 73.1562C146.073 72.6979 146.292 72.3021 146.438 71.9688C146.604 71.6354 146.781 71.1771 146.969 70.5938C147.156 69.9896 147.281 69.5208 147.344 69.1875L147.531 68.2812ZM151.188 62.375C151.542 62.3542 151.99 62.3958 152.531 62.5C153.073 62.6042 153.479 62.6979 153.75 62.7812C154.021 62.8646 154.26 62.9896 154.469 63.1562C154.677 63.3229 154.823 63.6146 154.906 64.0312C154.927 64.3021 154.875 64.5104 154.75 64.6562C154.583 64.8854 154.375 65.0208 154.125 65.0625C153.875 65.0625 153.552 64.9062 153.156 64.5938C152.99 64.4688 152.677 64.1979 152.219 63.7812C151.76 63.3646 151.448 63.0417 151.281 62.8125C151.115 62.5833 151.083 62.4375 151.188 62.375ZM215.406 66.9062C215.24 66.8646 215.104 66.7604 215 66.5938C214.958 66.5521 214.906 66.4688 214.844 66.3438C214.802 66.1979 214.76 66.0938 214.719 66.0312L214.562 65.6875L212.594 65.9375L211.844 66.0625C211.656 66.0833 211.229 66.1562 210.562 66.2812C210.292 66.3229 210 66.4062 209.688 66.5312C209.625 66.5521 209.552 66.5938 209.469 66.6562C209.385 66.7188 209.312 66.75 209.25 66.75H209C208.792 66.75 208.562 66.6146 208.312 66.3438C208.25 66.2604 208.167 66.1771 208.062 66.0938C207.979 65.9896 207.938 65.9167 207.938 65.875C207.938 65.7083 208.01 65.5521 208.156 65.4062C208.469 65.0938 208.906 64.4583 209.469 63.5C209.677 63.2083 209.927 62.7812 210.219 62.2188C210.51 61.6562 210.74 61.1875 210.906 60.8125C210.885 60.875 211 60.5938 211.25 59.9688C211.438 59.4479 211.531 59.1146 211.531 58.9688C211.573 58.7396 211.646 58.625 211.75 58.625C211.833 58.625 212.01 58.7396 212.281 58.9688C212.51 59.1562 212.688 59.3438 212.812 59.5312C212.958 59.7188 213.031 59.8646 213.031 59.9688C213.031 60.0521 213.01 60.125 212.969 60.1875C212.927 60.25 212.854 60.3229 212.75 60.4062C212.667 60.4896 212.562 60.6146 212.438 60.7812C212.167 61.1354 211.833 61.6771 211.438 62.4062L210.812 63.5L210.344 64.2812L210 64.875L209.781 65.2188C209.76 65.2604 209.76 65.3021 209.781 65.3438C209.802 65.3646 209.833 65.375 209.875 65.375C209.875 65.375 210.406 65.3125 211.469 65.1875L214.344 64.875C214.281 64.7083 214.198 64.4896 214.094 64.2188C213.99 63.9271 213.865 63.6042 213.719 63.25C213.698 63.2292 213.688 63.1875 213.688 63.125C213.688 63.0625 213.719 63.0312 213.781 63.0312C213.885 63.0312 214.01 63.0938 214.156 63.2188C214.323 63.3229 214.573 63.5417 214.906 63.875C215.156 64.0833 215.365 64.3229 215.531 64.5938C215.719 64.8646 215.833 65.0208 215.875 65.0625C216.062 65.3333 216.156 65.5938 216.156 65.8438C216.156 65.9688 216.115 66.1771 216.031 66.4688C215.969 66.6354 215.885 66.75 215.781 66.8125C215.698 66.875 215.573 66.9062 215.406 66.9062ZM215.188 75.9688C214.875 75.9688 214.573 75.7396 214.281 75.2812C213.906 74.6979 213.542 74.2188 213.188 73.8438L212.375 73C211.938 73.5 211.552 73.8958 211.219 74.1875C210.906 74.4792 210.51 74.7604 210.031 75.0312C209.135 75.5521 208.385 75.8125 207.781 75.8125C207.635 75.8125 207.562 75.7604 207.562 75.6562C207.562 75.5938 207.76 75.4583 208.156 75.25C208.552 75.0417 208.927 74.7917 209.281 74.5C210.177 73.75 210.917 72.9792 211.5 72.1875C211.375 72.0625 210.75 71.5208 209.625 70.5625C209.479 70.4583 209.26 70.2812 208.969 70.0312C208.906 69.9896 208.781 69.8958 208.594 69.75C208.406 69.6042 208.312 69.5 208.312 69.4375C208.312 69.3333 208.365 69.2812 208.469 69.2812C208.781 69.2812 209.281 69.5 209.969 69.9375C210.656 70.3542 211.375 70.8542 212.125 71.4375C212.417 71.0833 212.646 70.75 212.812 70.4375C212.979 70.125 213.167 69.7396 213.375 69.2812C213.479 69.0521 213.542 68.8542 213.562 68.6875C213.583 68.5 213.594 68.3854 213.594 68.3438C213.594 68.1146 213.656 68 213.781 68C213.927 68 214.125 68.1146 214.375 68.3438C214.812 68.7604 215.031 69.0417 215.031 69.1875C215.031 69.2708 214.979 69.3646 214.875 69.4688C214.625 69.7188 214.396 70.0521 214.188 70.4688C214.062 70.7188 213.833 71.0729 213.5 71.5312C213.396 71.6562 213.312 71.7708 213.25 71.875C213.188 71.9792 213.125 72.0729 213.062 72.1562C213.542 72.5104 214.25 73.1146 215.188 73.9688C215.417 74.1771 215.562 74.375 215.625 74.5625C215.708 74.7292 215.75 74.9583 215.75 75.25C215.75 75.4583 215.698 75.6354 215.594 75.7812C215.49 75.9062 215.354 75.9688 215.188 75.9688ZM214.438 85.4375C214.354 85.4375 214.26 85.3958 214.156 85.3125C214.052 85.25 213.917 85.1458 213.75 85C213.021 84.4375 212.312 83.5938 211.625 82.4688C210.938 81.3438 210.448 80.125 210.156 78.8125C210.135 78.6875 210.104 78.5417 210.062 78.375C210.021 78.2083 209.979 78.0833 209.938 78C209.938 77.9792 209.906 77.9688 209.844 77.9688C209.698 77.9688 209.417 78.0625 209 78.25C208.875 78.3125 208.75 78.4062 208.625 78.5312C208.521 78.6354 208.406 78.6771 208.281 78.6562C208.198 78.6562 208.083 78.6042 207.938 78.5C207.792 78.3958 207.688 78.3021 207.625 78.2188C207.417 77.9271 207.312 77.75 207.312 77.6875C207.312 77.5625 207.427 77.4896 207.656 77.4688C207.969 77.4688 208.167 77.4583 208.25 77.4375C208.854 77.3542 209.427 77.2188 209.969 77.0312C210.052 77.0104 210.167 76.9479 210.312 76.8438C210.333 76.8438 210.365 76.8333 210.406 76.8125C210.469 76.7917 210.542 76.8125 210.625 76.875C210.938 77.0833 211.094 77.2396 211.094 77.3438C211.094 78.8021 211.51 80.1667 212.344 81.4375C213.177 82.7083 214.396 83.7812 216 84.6562C216.083 84.6979 216.188 84.7396 216.312 84.7812C216.438 84.8229 216.5 84.8854 216.5 84.9688C216.5 85.0729 216.156 85.1667 215.469 85.25L214.688 85.375L214.438 85.4375ZM217.562 74.0312C217.667 74.0312 217.823 74.1042 218.031 74.25C218.01 74.2917 218.052 74.375 218.156 74.5C218.26 74.6042 218.333 74.6771 218.375 74.7188C218.479 74.8229 218.583 74.9479 218.688 75.0938C218.812 75.2396 218.948 75.3958 219.094 75.5625C219.469 75.9583 220.333 76.9896 221.688 78.6562C221.917 78.9896 222.031 79.1875 222.031 79.25C222.031 79.4583 221.906 79.5625 221.656 79.5625C221.51 79.5625 221.354 79.4583 221.188 79.25C220.792 78.8333 220.083 78.1771 219.062 77.2812C218.271 76.5521 217.552 75.9896 216.906 75.5938C216.594 75.4479 216.438 75.2812 216.438 75.0938C216.438 74.9479 216.594 74.7396 216.906 74.4688C217.198 74.1771 217.417 74.0312 217.562 74.0312ZM195.938 77.0625C196.146 76.7917 196.333 76.5104 196.5 76.2188C196.667 75.9688 196.865 75.6146 197.094 75.1562C197.323 74.7188 197.51 74.2812 197.656 73.8438C197.802 73.3854 197.896 73.0104 197.938 72.7188L198.062 71.7188L198.281 71.5312C198.49 71.5312 198.729 71.5938 199 71.7188C199.25 71.8229 199.458 71.9271 199.625 72.0312C199.792 72.1354 199.958 72.2604 200.125 72.4062C200.292 72.5729 200.396 72.9062 200.438 73.4062C200.188 73.6146 199.969 73.875 199.781 74.1875L199.25 75.0312L198.156 76.7188C197.948 77.0104 197.667 77.3646 197.312 77.7812L196.844 78.3438C196.99 78.5521 197.135 78.7396 197.281 78.9062L197.969 79.8125C198.281 80.2292 198.667 80.6562 199.125 81.0938C199.542 81.5521 200.021 81.9896 200.562 82.4062C201.104 82.8229 201.542 83.1042 201.875 83.25L202.438 83.4688C202.688 83.4271 202.865 83.2604 202.969 82.9688L203.438 81.5938C203.646 80.9688 203.812 80.4896 203.938 80.1562L204.125 79.5938L204.344 79.3125C204.469 79.3333 204.531 79.4479 204.531 79.6562V80.2188L204.562 81.5312L204.625 83.0625C204.646 83.4167 204.688 83.7396 204.75 84.0312C204.812 84.3229 204.896 84.625 205 84.9375C205.083 85.25 205.125 85.4896 205.125 85.6562C205.125 85.8229 205.052 85.9792 204.906 86.125L204.406 86.1875C204.052 86.1667 203.667 86.1146 203.25 86.0312C202.792 85.9271 202.323 85.7396 201.844 85.4688C201.344 85.2188 200.781 84.8542 200.156 84.375C199.531 83.8958 199.062 83.5 198.75 83.1875L197.312 81.625L196.281 80.4688L195.625 79.5625C195.354 79.7917 195.021 80.0521 194.625 80.3438C194.208 80.6562 193.771 80.9271 193.312 81.1562C192.833 81.4062 192.344 81.6354 191.844 81.8438C191.344 82.0521 190.969 82.1875 190.719 82.25L190.188 82.0625L190.562 81.8125L191.25 81.4062L192.781 80.2188C193.469 79.6771 193.938 79.2708 194.188 79L194.812 78.4062L194.031 77.0938C193.76 76.6146 193.5 76.1042 193.25 75.5625C193 75.0208 192.656 74.1562 192.219 72.9688C191.781 71.7604 191.479 70.9479 191.312 70.5312L191.125 70.0938C188.646 70.4062 187.073 70.6354 186.406 70.7812L183.906 71.5L183.719 72.2188L183.625 72.875L183.469 73.7188C183.365 74.2604 183.271 74.7708 183.188 75.25C183.083 75.7292 182.948 76.2396 182.781 76.7812C182.615 77.3229 182.396 77.9271 182.125 78.5938C181.833 79.2188 181.542 79.7708 181.25 80.25C180.958 80.7083 180.615 81.1562 180.219 81.5938C179.823 82.0521 179.375 82.4583 178.875 82.8125C178.417 83.1667 178.062 83.3958 177.812 83.5L177.125 83.5312L177.719 83.0312C177.865 82.9062 178.083 82.6875 178.375 82.375C178.646 82.0625 178.948 81.6667 179.281 81.1875C179.615 80.7083 179.906 80.2396 180.156 79.7812C180.427 79.2812 180.688 78.6875 180.938 78C181.208 77.2917 181.396 76.7188 181.5 76.2812C181.625 75.8646 181.708 75.4271 181.75 74.9688C181.812 74.4896 181.854 74.0833 181.875 73.75C181.875 73.3958 181.885 73.0312 181.906 72.6562L181.875 72.125L181.688 71.4688C181.5 71.3021 181.354 71.1667 181.25 71.0625L181.125 70.6875C181.271 70.5833 181.469 70.5104 181.719 70.4688L190.875 69.0312L190.375 67.7812L190.094 67.0938L189.719 66.4062C188.302 66.6354 187.208 66.8229 186.438 66.9688C185.667 67.0938 185.042 67.2083 184.562 67.3125L183.062 67.6562C182.646 67.7604 182.302 67.8229 182.031 67.8438H181.562C181.417 67.8021 181.167 67.7188 180.812 67.5938C180.479 67.4688 180.24 67.3333 180.094 67.1875V66.6875L183.812 66.2188L185.594 65.9062L185.188 63.3438C185.146 62.9479 185.073 62.5938 184.969 62.2812L184.688 61.5L184.5 60.9688L184.531 60.7188C184.615 60.6146 184.76 60.5625 184.969 60.5625C185.24 60.5833 185.531 60.6354 185.844 60.7188C186.156 60.8021 186.438 60.8958 186.688 61L187.062 61.375C187.083 61.5208 187.062 61.6771 187 61.8438C186.938 62.0104 186.885 62.2604 186.844 62.5938V63.5938L186.969 65.75L190.438 65.1875L190.188 60.6562C190.188 60.2812 190.156 59.9479 190.094 59.6562C190.052 59.3646 190 59.1354 189.938 58.9688L189.594 58.0938L190.094 57.7812L190.75 57.8125C190.875 57.8333 191.083 57.8958 191.375 58C191.667 58.1042 191.896 58.1979 192.062 58.2812L192.312 58.5938C192.333 58.7396 192.302 58.9479 192.219 59.2188L192.094 59.875L192 60.5V61.6562L195.062 60.7188C195.333 60.6354 195.604 60.5312 195.875 60.4062C196.167 60.3021 196.375 60.2396 196.5 60.2188C196.667 60.2188 196.906 60.2604 197.219 60.3438C197.531 60.4271 197.74 60.5312 197.844 60.6562V61.2812C197.615 61.4479 197.292 61.5625 196.875 61.625L194.25 62.125C193.771 62.2292 193.417 62.2812 193.188 62.2812C193 62.2812 192.792 62.2604 192.562 62.2188L192 62.125L191.875 64.9688L194.656 64.5938L195.562 64.4062L197.125 64.125C197.396 64.0833 197.792 64.0104 198.312 63.9062C198.812 63.8021 199.135 63.75 199.281 63.75C199.49 63.7708 199.729 63.8229 200 63.9062L200.781 64.3125C201.052 64.4792 201.26 64.6354 201.406 64.7812L201.562 65.1562C201.521 65.3229 201.354 65.4167 201.062 65.4375L198.094 65.5938C197.031 65.6354 195.667 65.7396 194 65.9062L191.25 66.2188C191.708 66.3438 192.052 66.4792 192.281 66.625L192.625 67L192.688 67.4688L192.812 68L192.906 68.6562L193.562 68.5312L194.562 68.3438L195.281 68.2188H195.719C196.052 68.2604 196.365 68.3646 196.656 68.5312C196.969 68.6771 197.208 68.8229 197.375 68.9688L197.562 69.3438C197.521 69.5521 197.375 69.6562 197.125 69.6562L195.938 69.6875L194.5 69.7812L193 69.9062C193.104 70.2812 193.208 70.6979 193.312 71.1562C193.438 71.6146 193.604 72.1354 193.812 72.7188C194.021 73.3021 194.292 73.9688 194.625 74.7188C194.958 75.4479 195.25 75.9896 195.5 76.3438L195.938 77.0625ZM181.312 84.4688C181.438 84.4271 181.688 84.3333 182.062 84.1875C182.396 84.0417 182.938 83.7396 183.688 83.2812C184.438 82.8229 185.104 82.375 185.688 81.9375C186.229 81.5208 186.771 81.0625 187.312 80.5625C187.812 80.0833 188.229 79.6458 188.562 79.25C188.875 78.8542 189.146 78.4688 189.375 78.0938C189.604 77.7396 189.781 77.4062 189.906 77.0938C190.052 76.7812 190.135 76.4688 190.156 76.1562C190.177 75.8646 190.281 75.6042 190.469 75.375C190.615 75.3542 190.75 75.375 190.875 75.4375C191.042 75.5417 191.208 75.6562 191.375 75.7812C191.542 75.9062 191.688 76.0312 191.812 76.1562C191.938 76.2812 192.042 76.4167 192.125 76.5625L192.25 76.875C192.208 77 192.115 77.125 191.969 77.25C191.823 77.3958 191.698 77.5104 191.594 77.5938L191.188 78.0938L190.406 79.1562C190.115 79.5312 189.75 79.9479 189.312 80.4062C188.854 80.8854 188.375 81.3542 187.875 81.8125C187.375 82.25 186.802 82.6667 186.156 83.0625C185.531 83.4375 184.896 83.7604 184.25 84.0312C183.583 84.2812 183.021 84.4792 182.562 84.625C182.083 84.7708 181.656 84.8646 181.281 84.9062L180.938 84.75L181.312 84.4688ZM182.562 79.7812L182.812 79.4375C182.938 79.25 183.073 78.9896 183.219 78.6562L183.625 77.7188C183.75 77.4062 183.833 77.1667 183.875 77C183.896 76.8333 183.906 76.6771 183.906 76.5312L184.094 76.0625L184.719 76.1562L185.219 76.3438C185.49 76.4688 185.656 76.7292 185.719 77.125C185.531 77.2708 185.385 77.4062 185.281 77.5312L184.562 78.4375C184.438 78.6042 184.208 78.8542 183.875 79.1875L183.312 79.7188L182.938 80L182.5 80.0312L182.562 79.7812ZM187.438 73.9062C187.729 73.9896 187.969 74.0729 188.156 74.1562L188.406 74.4688C188.427 74.5938 188.417 74.7396 188.375 74.9062C188.292 75.1146 188.25 75.3854 188.25 75.7188L188.188 77.0938L188.25 77.9688C188.229 78.0938 188.188 78.2292 188.125 78.375C188.042 78.5208 187.938 78.6771 187.812 78.8438L187.562 79.0938C187.417 79.0938 187.25 78.9479 187.062 78.6562L186.75 77.9688L186.875 76.5938V75.5312L186.844 74.9062L186.781 74.375L186.562 74.0312C186.229 74.0729 185.958 74.1146 185.75 74.1562H184.938H184.625C184.438 74.1146 184.25 74.0312 184.062 73.9062L183.812 73.625C183.854 73.4792 183.979 73.3854 184.188 73.3438L184.938 73.25C185.688 73.1458 186.25 73.0729 186.625 73.0312C187 72.9479 187.396 72.8438 187.812 72.7188C188.271 72.5938 188.635 72.4688 188.906 72.3438C189.198 72.2396 189.448 72.1771 189.656 72.1562L190.25 72.3125C190.583 72.4167 190.792 72.5312 190.875 72.6562V73.125L190.594 73.2812L187.438 73.9062ZM198.25 67.875L197.969 67.5312L198.094 67.0938L198.625 67.1875C198.917 67.25 199.229 67.3438 199.562 67.4688C199.917 67.5729 200.229 67.6771 200.5 67.7812C200.792 67.9062 201.042 68.0521 201.25 68.2188C201.458 68.3854 201.615 68.5938 201.719 68.8438C201.802 69.0312 201.833 69.2917 201.812 69.625C201.792 69.8958 201.729 70.125 201.625 70.3125C201.5 70.5 201.24 70.5938 200.844 70.5938C200.531 70.5104 200.26 70.3542 200.031 70.125C199.823 69.9167 199.594 69.6458 199.344 69.3125L198.656 68.4375C198.448 68.1667 198.312 67.9792 198.25 67.875ZM262.031 67.625C261.719 67.625 261.448 67.5104 261.219 67.2812C260.531 66.5312 259.833 65.8542 259.125 65.25C258.333 64.5833 257.635 64.0833 257.031 63.75C256.74 63.5833 256.594 63.3229 256.594 62.9688C256.594 62.9062 256.667 62.8229 256.812 62.7188C257 62.5938 257.302 62.3229 257.719 61.9062L258.844 60.8125C259.344 60.2917 259.76 59.8229 260.094 59.4062C260.448 58.9896 260.646 58.6979 260.688 58.5312C260.708 58.4896 260.729 58.4062 260.75 58.2812C260.792 58.1354 260.854 58.0625 260.938 58.0625C261.042 58.0625 261.177 58.1146 261.344 58.2188C261.531 58.3229 261.688 58.4271 261.812 58.5312C262.125 58.8229 262.281 59.0729 262.281 59.2812C262.26 59.3438 262.177 59.4167 262.031 59.5C261.906 59.5625 261.792 59.625 261.688 59.6875C261.583 59.7708 261.208 60.1042 260.562 60.6875L258.531 62.4375C258.177 62.7292 258 62.9583 258 63.125C258 63.2083 258.167 63.3438 258.5 63.5312C258.896 63.7812 259.667 64.2917 260.812 65.0625C261.25 65.3542 261.667 65.6771 262.062 66.0312C262.396 66.3646 262.562 66.7083 262.562 67.0625C262.562 67.2292 262.49 67.375 262.344 67.5C262.26 67.5833 262.156 67.625 262.031 67.625ZM256.469 72.8438C256.24 72.8438 255.958 72.6667 255.625 72.3125C255.375 72.0625 255.25 71.875 255.25 71.75C255.25 71.6875 255.292 71.6562 255.375 71.6562C255.458 71.6354 255.562 71.625 255.688 71.625L256.375 71.5938C256.771 71.5938 257.031 71.5833 257.156 71.5625C257.552 71.5625 257.885 71.5521 258.156 71.5312C259.948 71.3646 261.156 71.2292 261.781 71.125C262.094 71.0833 262.375 71.0417 262.625 71C262.875 70.9375 263.073 70.9062 263.219 70.9062C263.51 70.9062 263.802 71.0521 264.094 71.3438C264.323 71.5729 264.438 71.7604 264.438 71.9062C264.438 72.0312 264.365 72.1146 264.219 72.1562C264.115 72.1771 263.5 72.2188 262.375 72.2812C261.75 72.3021 260.979 72.3542 260.062 72.4375C259.146 72.5208 258.344 72.6042 257.656 72.6875C257.531 72.7083 257.354 72.7396 257.125 72.7812C256.896 72.8229 256.677 72.8438 256.469 72.8438ZM261.125 79.8125C260.917 80.0833 260.698 80.2188 260.469 80.2188C260.406 80.2188 260.375 80.1667 260.375 80.0625C260.375 79.9167 260.417 79.75 260.5 79.5625C260.5 79.5625 260.708 79.1458 261.125 78.3125C261.146 78.2292 261.177 78.1458 261.219 78.0625C261.26 77.9792 261.292 77.9062 261.312 77.8438V77.8125C261.312 77.7708 261.281 77.7292 261.219 77.6875C261.156 77.6458 261.083 77.6354 261 77.6562C260.667 77.6771 260.167 77.7292 259.5 77.8125C258.854 77.8958 258.375 77.9792 258.062 78.0625C257.938 78.1042 257.781 78.1562 257.594 78.2188C257.427 78.2812 257.292 78.3125 257.188 78.3125C256.812 78.3125 256.5 78.1979 256.25 77.9688C256.042 77.8229 255.885 77.6771 255.781 77.5312L255.719 77.375C255.719 77.2708 255.896 77.2396 256.25 77.2812C256.729 77.3229 257.719 77.2604 259.219 77.0938L259.844 77C260.01 76.9792 260.271 76.9479 260.625 76.9062C261 76.8438 261.292 76.7812 261.5 76.7188C261.562 76.6979 261.625 76.6771 261.688 76.6562C261.771 76.6146 261.844 76.5938 261.906 76.5938C262.01 76.5938 262.135 76.6458 262.281 76.75C262.448 76.8542 262.583 76.9479 262.688 77.0312C262.833 77.1354 262.927 77.2292 262.969 77.3125C263.031 77.375 263.052 77.4583 263.031 77.5625C263.031 77.6667 262.979 77.7604 262.875 77.8438C262.771 77.9271 262.698 77.9896 262.656 78.0312C262.615 78.0938 262.469 78.25 262.219 78.5C262.115 78.6667 261.927 78.8958 261.656 79.1875C261.406 79.4792 261.229 79.6875 261.125 79.8125ZM259.562 85.9688C259.562 85.9062 259.667 85.7396 259.875 85.4688C260.104 85.2188 260.281 85.0208 260.406 84.875C260.719 84.4583 261.094 83.8542 261.531 83.0625C261.99 82.2708 262.25 81.75 262.312 81.5C262.354 81.375 262.292 81.3125 262.125 81.3125C261.792 81.3125 260.875 81.4062 259.375 81.5938C258.396 81.7188 257.667 81.8438 257.188 81.9688C257.083 82.0312 256.979 82.0625 256.875 82.0625C256.708 82.0625 256.531 81.9479 256.344 81.7188C256.26 81.5729 256.219 81.4375 256.219 81.3125C256.219 81.2292 256.271 81.1458 256.375 81.0625L256.469 80.9375C256.531 80.8125 256.604 80.6458 256.688 80.4375C256.771 80.2292 256.844 80.0312 256.906 79.8438C257.01 79.5104 257.083 79.1458 257.125 78.75C257.146 78.5208 257.271 78.4583 257.5 78.5625C257.792 78.7083 258.01 78.8542 258.156 79C258.323 79.125 258.375 79.2188 258.312 79.2812C258.104 79.5312 257.938 79.8125 257.812 80.125C257.708 80.4583 257.646 80.6771 257.625 80.7812C257.625 80.8646 257.677 80.9062 257.781 80.9062C258.094 80.9062 258.562 80.8542 259.188 80.75C259.542 80.7083 259.979 80.6562 260.5 80.5938C261.021 80.5312 261.438 80.4688 261.75 80.4062L262.531 80.25C262.594 80.2292 262.677 80.2188 262.781 80.2188C262.885 80.2188 262.99 80.2604 263.094 80.3438C263.198 80.4062 263.312 80.4896 263.438 80.5938C263.646 80.7812 263.781 80.9375 263.844 81.0625C263.906 81.1667 263.938 81.2917 263.938 81.4375C263.938 81.5208 263.875 81.625 263.75 81.75C263.646 81.875 263.521 82.0729 263.375 82.3438C262.771 83.5729 261.99 84.6042 261.031 85.4375C260.76 85.6458 260.458 85.8229 260.125 85.9688C259.979 86.0104 259.844 86.0312 259.719 86.0312C259.615 86.0521 259.562 86.0312 259.562 85.9688ZM269.562 71.5312C269.812 71.5312 269.938 71.6458 269.938 71.875C269.938 72 269.823 72.1771 269.594 72.4062C268.969 73.1771 267.729 74.6458 265.875 76.8125C265.729 77 265.594 77.0938 265.469 77.0938C265.365 77.0938 265.135 76.9375 264.781 76.625C264.49 76.375 264.344 76.1667 264.344 76C264.344 75.8125 264.5 75.6354 264.812 75.4688C265.292 75.1979 266.01 74.6562 266.969 73.8438C267.927 72.9896 268.635 72.3125 269.094 71.8125C269.281 71.625 269.438 71.5312 269.562 71.5312ZM244.969 67.9062C245.177 67.6146 245.344 67.3646 245.469 67.1562C245.635 66.9479 245.75 66.7396 245.812 66.5312C245.875 66.3438 245.927 66.1042 245.969 65.8125L246.219 65.2812C246.385 65.2604 246.552 65.2812 246.719 65.3438C246.885 65.4271 247.125 65.5833 247.438 65.8125C247.75 66.0417 247.969 66.2396 248.094 66.4062V66.9688L247.5 67.4062C247.312 67.5521 247.135 67.6979 246.969 67.8438L246.25 68.5312L245.875 68.875C246.104 69.125 246.354 69.3646 246.625 69.5938C246.896 69.8438 247.24 70.1042 247.656 70.375C248.094 70.6458 248.49 70.8542 248.844 71C249.094 71.1042 249.302 71.1562 249.469 71.1562C249.594 71.1146 249.698 70.8542 249.781 70.375L249.969 69.4062L250.031 68.5312L250.312 68.4375L250.719 69.4688L251.031 70.375C251.198 70.8542 251.323 71.1458 251.406 71.25L251.844 72C251.927 72.1667 251.969 72.3333 251.969 72.5C251.927 72.6875 251.844 72.8438 251.719 72.9688C251.594 73.0729 251.302 73.125 250.844 73.125C250.177 73.125 249.615 73.0417 249.156 72.875C248.656 72.6875 248.042 72.3333 247.312 71.8125C246.562 71.2917 245.99 70.8125 245.594 70.375L244.906 69.6875L244 70.2812C243.688 70.4688 243.427 70.6146 243.219 70.7188C242.99 70.8229 242.74 70.9271 242.469 71.0312L241.344 71.0625L241.844 70.6562C242.156 70.4479 242.49 70.2083 242.844 69.9375C243.219 69.6667 243.49 69.4479 243.656 69.2812L244.031 68.875C243.802 68.5625 243.594 68.2917 243.406 68.0625L242.719 67.0938L242.156 66.3125L241.125 66.875C240.771 67.0833 240.469 67.2396 240.219 67.3438C239.969 67.4271 239.729 67.4792 239.5 67.5H238.844C238.656 67.4792 238.5 67.4479 238.375 67.4062L238.281 67.0625L238.781 66.7812L239.594 66.4062C240.115 66.1562 240.49 65.9688 240.719 65.8438L241.531 65.4062L241.062 64.7188L240.812 64.3438L240.031 63.0312L239.094 61.6875C238.927 61.4583 238.74 61.2292 238.531 61L238.125 60.5938L238.156 60.0625C238.406 59.875 238.76 59.7812 239.219 59.7812C239.677 59.8229 240.052 59.875 240.344 59.9375C240.656 60 240.854 60.0938 240.938 60.2188C241.042 60.3229 241.115 60.5521 241.156 60.9062C241.198 61.2812 241.333 61.7604 241.562 62.3438C241.771 62.9271 241.948 63.3646 242.094 63.6562C242.26 63.9479 242.385 64.1562 242.469 64.2812L242.719 64.7188C242.927 64.5938 243.135 64.4479 243.344 64.2812L243.719 64C243.844 63.9375 243.99 63.9062 244.156 63.9062C244.281 63.8854 244.49 63.875 244.781 63.875C245.031 63.8958 245.24 63.9271 245.406 63.9688L245.625 64.3125C245.542 64.5 245.396 64.6562 245.188 64.7812L244.719 65.0312L243.344 65.75L243.938 66.6562C244.146 66.9688 244.333 67.2083 244.5 67.375L244.969 67.9062ZM243.281 77.9375L243.969 77.3438C244.219 77.1354 244.562 76.7917 245 76.3125C245.438 75.8333 245.781 75.4271 246.031 75.0938C246.302 74.7396 246.49 74.3958 246.594 74.0625L246.938 73.5312C247.062 73.5104 247.219 73.5417 247.406 73.625C247.615 73.75 247.854 73.9792 248.125 74.3125C248.396 74.625 248.583 74.8958 248.688 75.125L248.75 75.5938C248.708 75.7188 248.573 75.8333 248.344 75.9375C248.115 76.0417 247.792 76.2604 247.375 76.5938C246.938 76.8854 246.594 77.1562 246.344 77.4062L245.344 78.2812L244.281 79.125C244.49 79.3333 244.792 79.6146 245.188 79.9688C245.583 80.3229 246.052 80.7188 246.594 81.1562C247.177 81.5938 247.708 81.9479 248.188 82.2188C248.667 82.5104 249.167 82.7812 249.688 83.0312C250.062 83.2188 250.365 83.3125 250.594 83.3125C250.76 83.25 250.906 83.0938 251.031 82.8438C251.156 82.5938 251.26 82.3438 251.344 82.0938L251.562 81.2188L251.844 80.2812L252.156 80.0312L252.312 81.4688C252.312 81.6354 252.375 82.0312 252.5 82.6562L252.656 83.7188C252.74 84.1354 252.854 84.5 253 84.8125L253.156 85.375C253.156 85.5625 253 85.75 252.688 85.9375C252.479 85.9375 252.302 85.9271 252.156 85.9062C251.365 85.8021 250.615 85.6146 249.906 85.3438C249.219 85.0521 248.49 84.6562 247.719 84.1562C246.969 83.6562 246.25 83.1146 245.562 82.5312C244.875 81.9479 244.24 81.3229 243.656 80.6562L243.094 80L241.875 80.8125C241.5 81.0417 241.052 81.2917 240.531 81.5625C240.031 81.8125 239.521 82.0312 239 82.2188C238.479 82.3854 237.896 82.5625 237.25 82.75C236.604 82.9375 236.198 83.0312 236.031 83.0312L235.406 83.125L235.156 83.0625C235.156 82.8542 235.229 82.7188 235.375 82.6562L235.844 82.4688C236.115 82.3854 236.49 82.2292 236.969 82L238.562 81.2188C239.167 80.9271 239.677 80.6354 240.094 80.3438L241.344 79.4062L242.156 78.8438C241.885 78.4271 241.667 78.0729 241.5 77.7812C241.333 77.4896 241.156 77.1458 240.969 76.75L240.469 75.8125C240.094 76 239.771 76.1354 239.5 76.2188C239.229 76.3438 238.969 76.4062 238.719 76.4062C238.49 76.4062 238.271 76.3854 238.062 76.3438C237.833 76.3021 237.615 76.1979 237.406 76.0312C237.385 75.8646 237.448 75.7604 237.594 75.7188L238.281 75.4688C238.594 75.3854 238.865 75.2917 239.094 75.1875L240.062 74.8125C239.875 74.3333 239.74 73.9792 239.656 73.75L239.094 72.5938C238.865 72.1146 238.698 71.7812 238.594 71.5938L238.438 71.0625C238.5 70.9375 238.688 70.875 239 70.875C239.229 70.9375 239.5 71.0208 239.812 71.125C240.125 71.25 240.406 71.4062 240.656 71.5938C240.906 71.7604 241.052 71.9375 241.094 72.125L241.062 72.8125L241.125 73.5938L241.344 74.2188C241.635 74.0521 241.844 73.9271 241.969 73.8438L242.25 73.7188C242.417 73.6771 242.573 73.6458 242.719 73.625C242.885 73.625 243.062 73.6458 243.25 73.6875C243.438 73.7083 243.625 73.7604 243.812 73.8438L244.062 74.2188C244 74.3646 243.844 74.4896 243.594 74.5938L243.188 74.7188L242.5 75L241.75 75.3438C241.896 75.6771 242.042 75.9896 242.188 76.2812C242.333 76.5729 242.448 76.7708 242.531 76.875L243.281 77.9375ZM230.344 70.1562L231.875 69.8438C232.271 69.7604 232.635 69.6562 232.969 69.5312C233.344 69.4271 233.677 69.3125 233.969 69.1875C234.26 69.0833 234.562 69.0417 234.875 69.0625C235.188 69.1458 235.438 69.2396 235.625 69.3438L235.844 69.8438C235.74 69.9688 235.594 70.0521 235.406 70.0938L234.469 70.3438L233.594 70.5312L234.062 70.9062C234.083 71.0312 234.062 71.2188 234 71.4688C233.917 71.7188 233.854 72.0625 233.812 72.5L233.781 73.0938L234.531 72.8438L235.188 72.6562C235.375 72.6354 235.542 72.6458 235.688 72.6875C235.896 72.7292 236.083 72.7708 236.25 72.8125C236.417 72.8542 236.573 72.9167 236.719 73L236.812 73.4375C236.729 73.5417 236.604 73.6146 236.438 73.6562L236.188 73.7812L233.75 74.2812L233.562 79.6562L237.094 78.5312L237.344 78.4688C237.552 78.4688 237.677 78.5625 237.719 78.75C237.74 78.9167 237.635 79.0521 237.406 79.1562L230.594 82.0312C230.469 82.0938 230.208 82.2396 229.812 82.4688L229.125 82.9062L228.719 83.2188L228.375 83.4062C228.146 83.4062 227.885 83.3229 227.594 83.1562C227.302 82.9479 227.073 82.7917 226.906 82.6875C226.76 82.5625 226.583 82.3958 226.375 82.1875C226.146 82 225.958 81.7188 225.812 81.3438C225.896 81.2188 226.083 81.1562 226.375 81.1562H227.719C227.927 81.1562 228.156 81.125 228.406 81.0625C228.698 81.0208 228.927 80.9688 229.094 80.9062L232.219 80.0625L232.125 74.7188L230.812 74.9688C230.438 75.0521 230.156 75.1042 229.969 75.125L229.469 75.0312C229.177 74.9479 228.948 74.8646 228.781 74.7812L228.562 74.4062C228.625 74.2812 228.771 74.2083 229 74.1875L229.469 74.0938L232.094 73.5312V72.9062C232.094 72.6562 232.073 72.3958 232.031 72.125C231.99 71.8542 231.948 71.6354 231.906 71.4688L231.719 70.9688L231.312 71C231.167 70.9792 230.99 70.9479 230.781 70.9062L230.438 70.8125L230.031 70.625L229.219 71.625C228.885 72.0625 228.594 72.4062 228.344 72.6562C228.094 72.9271 227.719 73.2812 227.219 73.7188C226.719 74.1771 226.375 74.4688 226.188 74.5938L225.594 74.9375L225.125 74.8125L225.656 74.1562C225.906 73.8646 226.156 73.5521 226.406 73.2188C226.698 72.8854 227.01 72.5 227.344 72.0625C227.677 71.625 228.01 71.1562 228.344 70.6562C228.677 70.1979 229.021 69.6771 229.375 69.0938C229.729 68.5104 230.073 67.8958 230.406 67.25C230.719 66.6042 230.969 66.0625 231.156 65.625L231.688 64.25C231.854 63.7708 231.969 63.3646 232.031 63.0312C232.094 62.7604 232.125 62.5 232.125 62.25L232.031 61.5312L232.25 61.1875C232.479 61.1458 232.677 61.1667 232.844 61.25C233.01 61.3125 233.198 61.4167 233.406 61.5625C233.615 61.7083 233.781 61.8438 233.906 61.9688C234.031 62.0938 234.146 62.2292 234.25 62.375L234.219 63L233.812 63.5625C234 63.75 234.167 63.8646 234.312 63.9062L235.312 64.2812C235.979 64.5729 236.438 64.8021 236.688 64.9688C236.917 65.1354 237.094 65.3333 237.219 65.5625C237.344 65.7917 237.406 66.0208 237.406 66.25C237.406 66.5 237.333 66.7292 237.188 66.9375C237.042 67.1667 236.865 67.2812 236.656 67.2812C236.49 67.2812 236.323 67.2396 236.156 67.1562C235.969 67.0312 235.771 66.875 235.562 66.6875C235.375 66.5 235.073 66.1667 234.656 65.6875L233.469 64.4062L232.812 65.7812L232.375 66.75C232.271 66.9167 232.01 67.3646 231.594 68.0938L230.938 69.2812L230.344 70.1562ZM244.281 60.9688L243.969 60.5C243.99 60.375 244.146 60.3229 244.438 60.3438H245.031C245.219 60.3854 245.51 60.4375 245.906 60.5C246.302 60.5625 246.656 60.6667 246.969 60.8125C247.26 60.9583 247.479 61.1146 247.625 61.2812C247.75 61.4479 247.823 61.6875 247.844 62V62.3125C247.844 62.5833 247.802 62.8021 247.719 62.9688C247.635 63.0938 247.469 63.1875 247.219 63.25C247.073 63.25 246.927 63.2188 246.781 63.1562C246.531 63.0521 246.177 62.7917 245.719 62.375C245.26 61.9375 244.958 61.6562 244.812 61.5312C244.667 61.3854 244.49 61.1979 244.281 60.9688ZM228.062 76.2188C228.188 76.1979 228.323 76.2188 228.469 76.2812L228.906 76.4062L229.438 76.625C229.708 76.7292 229.917 76.8333 230.062 76.9375C230.229 77.0417 230.365 77.1875 230.469 77.375C230.594 77.5625 230.667 77.8333 230.688 78.1875C230.688 78.5 230.635 78.7604 230.531 78.9688C230.406 79.2188 230.24 79.3646 230.031 79.4062C229.844 79.4062 229.625 79.2604 229.375 78.9688C229.25 78.8438 229.052 78.5625 228.781 78.125C228.49 77.6667 228.302 77.3646 228.219 77.2188C228.135 77.0521 228.062 76.8854 228 76.7188C227.938 76.5104 227.958 76.3438 228.062 76.2188ZM234.906 77.9062L234.406 78.3438L234.031 78.1875L234.344 77.4688L234.594 77.0312L234.844 76.2812C234.969 75.9271 235.042 75.625 235.062 75.375L235.562 74.8125C235.917 74.9583 236.156 75.0729 236.281 75.1562C236.448 75.2812 236.594 75.4062 236.719 75.5312L236.938 75.8125L236.906 76.2812L236.531 76.5312C236.406 76.5938 236.229 76.7188 236 76.9062C235.771 77.0729 235.542 77.2812 235.312 77.5312C235.083 77.7396 234.948 77.8646 234.906 77.9062ZM243.688 72.125L243.125 71.4688L243.25 71.25L243.844 71.3125C244.01 71.3333 244.208 71.3646 244.438 71.4062C244.667 71.4479 244.917 71.5 245.188 71.5625C245.458 71.625 245.646 71.7188 245.75 71.8438C245.854 71.9896 245.927 72.2292 245.969 72.5625C245.969 72.8125 245.938 73 245.875 73.125C245.812 73.2708 245.656 73.3646 245.406 73.4062L245 73.2188C244.854 73.1354 244.615 72.9583 244.281 72.6875C243.948 72.4167 243.75 72.2292 243.688 72.125Z" fill="#333333"/>
</svg>
