<svg width="252" height="84" viewBox="0 0 252 84" fill="none" xmlns="http://www.w3.org/2000/svg">
<path d="M109.934 7.49609C109.77 7.49609 109.852 7.35547 110.18 7.07422C110.508 6.79297 110.906 6.45313 111.375 6.05469C111.844 5.63281 112.371 5.08203 112.957 4.40234C113.332 3.95703 113.613 3.48828 113.801 2.99609C113.918 2.71484 114.047 2.57422 114.188 2.57422C114.305 2.57422 114.48 2.66797 114.715 2.85547C115.184 3.23047 115.418 3.54687 115.418 3.80469C115.418 3.96875 115.324 4.08594 115.137 4.15625C115.043 4.17969 114.902 4.28516 114.715 4.47266C114.527 4.63672 114.387 4.76563 114.293 4.85938C113.285 5.84375 112.348 6.55859 111.48 7.00391C110.777 7.33203 110.309 7.49609 110.074 7.49609H109.934ZM113.625 14.0352C113.555 14.0352 113.438 13.9414 113.273 13.7539C113.133 13.543 113.027 13.3438 112.957 13.1562C112.934 13.0156 112.934 12.8398 112.957 12.6289C113.004 12.3945 113.027 12.2188 113.027 12.1016C113.074 11.6328 113.098 11.2578 113.098 10.9766C113.121 10.7187 113.121 10.4375 113.098 10.1328C113.098 9.82813 113.098 9.62891 113.098 9.53516L113.062 9.00781C112.5 9.40625 112.066 9.6875 111.762 9.85156C111.082 10.2266 110.59 10.4609 110.285 10.5547C109.91 10.6953 109.57 10.7656 109.266 10.7656C109.102 10.7656 109.008 10.7422 108.984 10.6953C108.938 10.6016 109.406 10.2617 110.391 9.67578C111.328 9.08984 112.348 8.31641 113.449 7.35547C114.059 6.79297 114.527 6.25391 114.855 5.73828C114.902 5.66797 114.938 5.58594 114.961 5.49219C115.008 5.375 115.055 5.30469 115.102 5.28125C115.172 5.25781 115.266 5.26953 115.383 5.31641C115.688 5.48047 115.945 5.71484 116.156 6.01953C116.25 6.13672 116.297 6.25391 116.297 6.37109C116.297 6.48828 116.238 6.60547 116.121 6.72266C116.004 6.81641 115.887 6.88672 115.77 6.93359C115.371 7.19141 115.008 7.47266 114.68 7.77734C114.352 8.08203 114.141 8.28125 114.047 8.375C114.398 8.65625 114.574 8.85547 114.574 8.97266L114.469 9.71094C114.422 9.92188 114.398 10.4492 114.398 11.293C114.398 12.1133 114.422 12.6641 114.469 12.9453V13.0156C114.469 13.1328 114.434 13.2617 114.363 13.4023C114.316 13.5195 114.281 13.6016 114.258 13.6484C114.094 13.9063 113.883 14.0352 113.625 14.0352ZM117.211 22.9648C116.859 22.9648 116.52 22.707 116.191 22.1914C115.77 21.5352 115.359 20.9961 114.961 20.5742L114.047 19.625C113.555 20.1875 113.121 20.6328 112.746 20.9609C112.395 21.2891 111.949 21.6055 111.41 21.9102C110.402 22.4961 109.559 22.7891 108.879 22.7891C108.715 22.7891 108.633 22.7305 108.633 22.6133C108.633 22.543 108.855 22.3906 109.301 22.1562C109.746 21.9219 110.168 21.6406 110.566 21.3125C111.574 20.4688 112.406 19.6016 113.062 18.7109C112.922 18.5703 112.219 17.9609 110.953 16.8828C110.789 16.7656 110.543 16.5664 110.215 16.2852C110.145 16.2383 110.004 16.1328 109.793 15.9688C109.582 15.8047 109.477 15.6875 109.477 15.6172C109.477 15.5 109.535 15.4414 109.652 15.4414C110.004 15.4414 110.566 15.6875 111.34 16.1797C112.113 16.6484 112.922 17.2109 113.766 17.8672C114.094 17.4688 114.352 17.0938 114.539 16.7422C114.727 16.3906 114.938 15.957 115.172 15.4414C115.289 15.1836 115.359 14.9609 115.383 14.7734C115.406 14.5625 115.418 14.4336 115.418 14.3867C115.418 14.1289 115.488 14 115.629 14C115.793 14 116.016 14.1289 116.297 14.3867C116.789 14.8555 117.035 15.1719 117.035 15.3359C117.035 15.4297 116.977 15.5352 116.859 15.6523C116.578 15.9336 116.32 16.3086 116.086 16.7773C115.945 17.0586 115.688 17.457 115.312 17.9727C115.195 18.1133 115.102 18.2422 115.031 18.3594C114.961 18.4766 114.891 18.582 114.82 18.6758C115.359 19.0742 116.156 19.7539 117.211 20.7148C117.469 20.9492 117.633 21.1719 117.703 21.3828C117.797 21.5703 117.844 21.8281 117.844 22.1562C117.844 22.3906 117.785 22.5898 117.668 22.7539C117.551 22.8945 117.398 22.9648 117.211 22.9648ZM117.844 27.6055C118.102 27.8867 118.23 28.1211 118.23 28.3086C118.23 28.4727 118.137 28.625 117.949 28.7656C117.832 28.8594 117.539 29.375 117.07 30.3125C116.555 31.1562 115.98 31.8828 115.348 32.4922C114.738 33.125 114.129 33.582 113.52 33.8633C113.379 33.9102 113.262 33.9336 113.168 33.9336C113.074 33.9336 113.027 33.9102 113.027 33.8633V33.793C113.027 33.6523 113.145 33.4883 113.379 33.3008C113.801 32.9727 114.117 32.6328 114.328 32.2812C114.562 31.9531 114.738 31.707 114.855 31.543C115.348 30.8398 115.699 30.2656 115.91 29.8203C116.145 29.4219 116.309 29.0117 116.402 28.5898H116.262C115.652 28.5898 114.668 28.6602 113.309 28.8008C113.098 28.8242 112.488 28.9062 111.48 29.0469C111.27 29.0703 110.941 29.1289 110.496 29.2227L110.074 29.3281C109.98 29.375 109.887 29.3984 109.793 29.3984C109.676 29.3984 109.559 29.375 109.441 29.3281C109.324 29.2578 109.207 29.1758 109.09 29.082C108.809 28.8477 108.668 28.6484 108.668 28.4844C108.691 28.4375 108.715 28.3672 108.738 28.2734C108.785 28.1797 108.809 28.0977 108.809 28.0273L108.984 26.8672C109.008 26.75 109.031 26.6211 109.055 26.4805C109.078 26.3398 109.09 26.1992 109.09 26.0586C109.09 25.6133 109.078 25.2617 109.055 25.0039C109.055 24.7227 109.02 24.4297 108.949 24.125V24.0195C108.949 23.8555 109.02 23.7734 109.16 23.7734C109.301 23.7734 109.547 23.8789 109.898 24.0898C110.367 24.418 110.602 24.6758 110.602 24.8633C110.602 24.9336 110.59 24.9922 110.566 25.0391C110.543 25.0859 110.52 25.1328 110.496 25.1797C110.426 25.6016 110.391 25.8359 110.391 25.8828L110.215 27.7461C110.215 27.793 110.238 27.8516 110.285 27.9219C110.355 27.9688 110.426 27.9922 110.496 27.9922C111.059 27.9922 112.324 27.8516 114.293 27.5703C115.066 27.5 115.617 27.418 115.945 27.3242C116.156 27.3008 116.332 27.2656 116.473 27.2188C116.637 27.1484 116.742 27.1133 116.789 27.1133C116.93 27.0664 117.023 27.043 117.07 27.043C117.281 27.043 117.539 27.2305 117.844 27.6055ZM84.1289 17.2344L81.7383 17.9023L80.6836 18.1836C79.957 18.3711 79.4766 18.4766 79.2422 18.5C78.9609 18.5 78.7031 18.4766 78.4688 18.4297C78.1641 18.3594 77.8242 18.207 77.4492 17.9727C77.0508 17.7383 76.7578 17.4102 76.5703 16.9883C76.6641 16.8477 76.8398 16.7656 77.0977 16.7422L77.9766 16.707C78.7031 16.6836 79.4766 16.6484 80.2969 16.6016C81.1172 16.5312 81.8555 16.4375 82.5117 16.3203L84.7617 15.9336C85.0898 15.1836 85.2891 14.7148 85.3594 14.5273L85.8164 13.1562C85.4414 13.1797 85.1484 13.2031 84.9375 13.2266C84.7266 13.25 84.375 13.2969 83.8828 13.3672C83.3906 13.4609 82.9922 13.5078 82.6875 13.5078C82.3125 13.5078 82.0195 13.4609 81.8086 13.3672C81.5273 13.25 81.3164 13.1211 81.1758 12.9805L81.0352 12.6641C81.0586 12.5 81.1758 12.418 81.3867 12.418L82.0547 12.3477C82.2188 12.3477 82.6172 12.3125 83.25 12.2422C83.8828 12.1719 84.4805 12.1133 85.043 12.0664L86.2383 11.9258C86.543 10.9883 86.7188 10.4023 86.7656 10.168L87.0469 8.76172C86.1797 8.83203 85.3945 8.91406 84.6914 9.00781C83.9648 9.07812 83.4961 9.11328 83.2852 9.11328H82.7578C82.2891 9.11328 81.9375 9.06641 81.7031 8.97266C81.3984 8.83203 81.1758 8.66797 81.0352 8.48047L80.8945 8.12891L81.1406 7.95312H81.8789L82.8633 7.84766L84.9023 7.70703L87.293 7.35547L87.4336 5.45703V5.10547C87.4336 4.84766 87.4102 4.53125 87.3633 4.15625C87.3164 3.80469 87.2812 3.55859 87.2578 3.41797L87.1172 2.64453L87.4688 2.39844C87.7031 2.375 87.9492 2.41016 88.207 2.50391C88.5352 2.64453 88.8633 2.79688 89.1914 2.96094C89.5195 3.125 89.8008 3.32422 90.0352 3.55859C90.2695 3.79297 90.3867 4.02734 90.3867 4.26172L90.1406 4.75391C89.9766 5.01172 89.8477 5.30469 89.7539 5.63281L89.2617 7.07422L92.1445 6.65234L93.7266 6.30078C94.0078 6.25391 94.2656 6.21875 94.5 6.19531C94.8984 6.19531 95.3203 6.28906 95.7656 6.47656C96.1641 6.61719 96.3633 6.79297 96.3633 7.00391C96.3398 7.23828 96.2461 7.37891 96.082 7.42578L95.3789 7.63672C95.1445 7.68359 94.7461 7.75391 94.1836 7.84766L91.9336 8.19922C91.1367 8.31641 90.4688 8.39844 89.9297 8.44531L88.9805 8.55078C88.7227 9.46484 88.5703 10.0273 88.5234 10.2383L88.1367 11.6445L90.3164 11.2578C90.7852 11.1875 91.3242 11.082 91.9336 10.9414C92.543 10.7773 93.0352 10.6836 93.4102 10.6602C93.7617 10.6602 94.043 10.6836 94.2539 10.7305C94.582 10.7773 94.8867 10.8711 95.168 11.0117L95.625 11.3984C95.625 11.5859 95.4609 11.7266 95.1328 11.8203C94.875 11.8906 94.5234 11.9492 94.0781 11.9961C93.6328 12.043 93.0586 12.1133 92.3555 12.207L90.2109 12.5586L87.8555 12.9102C87.5273 13.8008 87.3281 14.3516 87.2578 14.5625L86.8711 15.6523C87.5742 15.582 88.1016 15.5234 88.4531 15.4766L92.0742 15.1602C92.7305 15.1133 93.4453 15.0195 94.2188 14.8789C94.9922 14.7617 95.6133 14.6445 96.082 14.5273L97.1367 14.2461C97.6055 14.1523 97.9688 14.1055 98.2266 14.1055C98.5312 14.1055 98.8008 14.1523 99.0352 14.2461C99.293 14.3398 99.668 14.4922 100.16 14.7031C100.652 14.9141 100.969 15.1367 101.109 15.3711L101.215 15.9336C101.121 16.1211 100.934 16.2266 100.652 16.25L99.8789 16.2852L97.6992 16.2148C97.3477 16.2148 96.6914 16.2383 95.7305 16.2852L92.918 16.3555H91.6523L92.7773 17.1992L94.8867 18.9922C96.0117 19.9531 97.0195 20.7617 97.9102 21.418C98.8008 22.0742 99.5391 22.5547 100.125 22.8594C100.711 23.1641 101.566 23.5508 102.691 24.0195C103.816 24.4648 104.801 24.793 105.645 25.0039L106.594 25.7422L105.855 25.9531L103.605 26.4102C102.668 26.5977 101.941 26.6914 101.426 26.6914C100.816 26.6211 100.266 26.4219 99.7734 26.0938C99.2812 25.7656 98.8242 25.3789 98.4023 24.9336L95.6602 21.9805C94.3008 20.4805 93.2461 19.3672 92.4961 18.6406C91.793 17.9141 91.2539 17.4336 90.8789 17.1992L89.9297 16.4961C88.875 16.6133 88.2305 16.6836 87.9961 16.707L86.2734 16.918C85.5703 18.2773 84.9961 19.2852 84.5508 19.9414C84.1055 20.5977 83.4961 21.3242 82.7227 22.1211C81.9727 22.9648 81.1875 23.7031 80.3672 24.3359C79.5469 24.9688 78.7852 25.4844 78.082 25.8828C77.332 26.2812 76.5938 26.6211 75.8672 26.9023C75.1406 27.1602 74.6602 27.3242 74.4258 27.3945L73.4062 27.2188L74.2852 26.6562L75.2695 26.0938C75.8789 25.7656 76.5469 25.3438 77.2734 24.8281C78 24.3359 78.7148 23.7734 79.418 23.1406C80.1211 22.5078 80.8828 21.7227 81.7031 20.7852C82.5469 19.8477 83.0977 19.1445 83.3555 18.6758L84.1289 17.2344ZM90.9844 32.3867L88.7344 32.5977C87.7031 32.6914 87.1055 32.7383 86.9414 32.7383L85.2539 32.7734L85.1133 33.3359C84.9727 33.7578 84.8086 33.9688 84.6211 33.9688C84.4336 33.9453 84.2461 33.793 84.0586 33.5117C83.8477 33.207 83.7188 32.8438 83.6719 32.4219C83.6719 32.1172 83.6953 31.8008 83.7422 31.4727C83.7891 31.0273 83.8125 30.5117 83.8125 29.9258L83.6367 24.8633C83.5898 24.207 83.5195 23.7266 83.4258 23.4219C83.3555 23.1172 83.2734 22.8828 83.1797 22.7188L83.0742 22.4023C83.1211 22.2617 83.3438 22.168 83.7422 22.1211L84.7266 22.332L85.8516 22.1914C86.25 22.1445 86.7305 22.0625 87.293 21.9453L89.1914 21.5586C89.8477 21.418 90.3164 21.3008 90.5977 21.207C90.8789 21.1367 91.1602 21.043 91.4414 20.9258L92.1094 20.7148C92.3672 20.6914 92.5898 20.7148 92.7773 20.7852C93.0352 20.8789 93.3164 21.0312 93.6211 21.2422C93.9492 21.4531 94.2305 21.6641 94.4648 21.875L94.8516 22.3672C94.8516 22.5312 94.8164 22.6836 94.7461 22.8242C94.6758 23.0117 94.6172 23.2109 94.5703 23.4219C94.5 23.6328 94.4648 23.832 94.4648 24.0195C94.418 24.207 94.3828 24.582 94.3594 25.1445V25.7422C94.3594 26.1406 94.3711 26.5742 94.3945 27.043C94.418 27.6055 94.4648 28.1914 94.5352 28.8008L94.8164 30.5938C94.9102 31.2031 94.957 31.6602 94.957 31.9648C94.9102 32.5742 94.7344 33.1836 94.4297 33.793C94.1016 34.4023 93.7852 34.7773 93.4805 34.918L92.9531 35.0586C92.6953 35.0352 92.4492 34.8008 92.2148 34.3555C92.0039 33.9336 91.7695 33.5234 91.5117 33.125L90.9844 32.3867ZM85.3242 31.5781C86.3555 31.4609 87.1406 31.3672 87.6797 31.2969L89.5078 31.0508C90.1875 30.9336 90.6445 30.875 90.8789 30.875C91.2539 30.8984 91.5352 30.957 91.7227 31.0508L92.4609 31.4727L92.6367 27.0078C92.1211 27.125 91.7344 27.1953 91.4766 27.2188L89.0508 27.6758C87.9727 27.8633 87.2109 27.9805 86.7656 28.0273L86.3438 28.0625H85.9922L85.2539 27.8867L85.3242 31.5781ZM85.2539 26.9023C85.4883 26.9023 85.6992 26.8906 85.8867 26.8672C86.0742 26.8438 86.5664 26.7617 87.3633 26.6211C88.207 26.457 88.8867 26.3047 89.4023 26.1641C89.9648 26 90.3867 25.918 90.668 25.918C90.9258 25.918 91.1602 25.9297 91.3711 25.9531C91.6758 26 92.0391 26.1055 92.4609 26.2695L92.6367 23.3164C92.6133 22.9414 92.5547 22.6953 92.4609 22.5781C92.3438 22.4609 92.1211 22.3906 91.793 22.3672C91.4883 22.3672 91.1602 22.3789 90.8086 22.4023L89.2617 22.4727C88.8867 22.5195 88.3477 22.6367 87.6445 22.8242C86.9414 22.9883 86.4492 23.1172 86.168 23.2109L85.5352 23.3516L85.3945 23.7031C85.418 23.8438 85.418 24.043 85.3945 24.3008C85.3477 24.5352 85.3242 24.7344 85.3242 24.8984L85.2539 26.9023ZM170.121 13.6836C169.957 13.6836 169.781 13.5781 169.594 13.3672C169.453 13.2031 169.359 13.0742 169.312 12.9805C169.266 12.8633 169.266 12.7109 169.312 12.5234L169.348 11.6797C169.371 11.5156 169.383 11.1172 169.383 10.4844V9.32422L168.328 9.81641L167.098 10.3438C166.793 10.4609 166.477 10.6016 166.148 10.7656C165.867 10.9062 165.621 10.9766 165.41 10.9766C165.246 10.9531 165.059 10.8945 164.848 10.8008C164.637 10.707 164.473 10.625 164.355 10.5547C164.098 10.3906 163.98 10.2148 164.004 10.0273L164.109 9.67578C164.109 9.48828 164.121 9.32422 164.145 9.18359L164.18 7.14453V5.24609C164.18 4.87109 164.156 4.55469 164.109 4.29688C164.062 4.01562 164.027 3.81641 164.004 3.69922C164.004 3.58203 164.039 3.5 164.109 3.45312C164.133 3.42969 164.191 3.41797 164.285 3.41797C164.449 3.41797 164.766 3.52344 165.234 3.73438C165.633 3.92188 165.797 4.15625 165.727 4.4375C165.68 4.60156 165.633 4.84766 165.586 5.17578L165.48 9.21875C165.48 9.33594 165.492 9.42969 165.516 9.5C165.562 9.54688 165.609 9.57031 165.656 9.57031C165.938 9.57031 166.277 9.48828 166.676 9.32422C167.426 9.08984 168.07 8.85547 168.609 8.62109L169.383 8.30469V5.98438C169.383 5.04688 169.324 4.14453 169.207 3.27734C169.184 3.20703 169.172 3.125 169.172 3.03125C169.172 2.79688 169.266 2.67969 169.453 2.67969C169.477 2.67969 169.605 2.72656 169.84 2.82031C170.191 3.00781 170.449 3.17188 170.613 3.3125C170.777 3.45312 170.871 3.53516 170.895 3.55859C170.988 3.62891 171.035 3.69922 171.035 3.76953C171.035 3.81641 171.012 3.875 170.965 3.94531C170.941 4.01562 170.918 4.07422 170.895 4.12109L170.789 5.17578L170.754 8.41016L170.789 11.5391C170.789 12.0781 170.754 12.5469 170.684 12.9453C170.566 13.4375 170.379 13.6836 170.121 13.6836ZM163.652 19.4492C163.395 19.4492 163.078 19.25 162.703 18.8516C162.422 18.5703 162.281 18.3594 162.281 18.2188C162.281 18.1484 162.328 18.1133 162.422 18.1133C162.516 18.0898 162.633 18.0781 162.773 18.0781L163.547 18.043C163.992 18.043 164.285 18.0312 164.426 18.0078C164.871 18.0078 165.246 17.9961 165.551 17.9727C167.566 17.7852 168.926 17.6328 169.629 17.5156C169.98 17.4688 170.297 17.4219 170.578 17.375C170.859 17.3047 171.082 17.2695 171.246 17.2695C171.574 17.2695 171.902 17.4336 172.23 17.7617C172.488 18.0195 172.617 18.2305 172.617 18.3945C172.617 18.5352 172.535 18.6289 172.371 18.6758C172.254 18.6992 171.562 18.7461 170.297 18.8164C169.594 18.8398 168.727 18.8984 167.695 18.9922C166.664 19.0859 165.762 19.1797 164.988 19.2734C164.848 19.2969 164.648 19.332 164.391 19.3789C164.133 19.4258 163.887 19.4492 163.652 19.4492ZM168.363 33.9688C167.637 33.9688 167.074 33.9453 166.676 33.8984C166.301 33.8516 165.984 33.7109 165.727 33.4766C165.281 33.1484 164.977 32.4336 164.812 31.332L164.707 30.207C164.707 29.9258 164.684 29.5742 164.637 29.1523C164.262 29.1992 163.992 29.2461 163.828 29.293C163.781 29.3164 163.699 29.3516 163.582 29.3984C163.488 29.4219 163.418 29.4336 163.371 29.4336C163.207 29.4336 163.055 29.3867 162.914 29.293C162.773 29.1992 162.598 29.0234 162.387 28.7656C162.223 28.5547 162.141 28.4141 162.141 28.3438C162.141 28.2734 162.223 28.2266 162.387 28.2031C162.551 28.1797 162.773 28.168 163.055 28.168C163.453 28.168 163.969 28.1211 164.602 28.0273L164.566 27.5352C164.566 26.5977 164.508 25.8008 164.391 25.1445L164.355 24.8984C164.355 24.5703 164.484 24.4414 164.742 24.5117C165.023 24.6055 165.281 24.7227 165.516 24.8633C165.703 24.957 165.832 25.0508 165.902 25.1445C165.973 25.2148 165.996 25.3203 165.973 25.4609L165.867 26.9727V27.8867L168.961 27.5703C168.961 27.4062 168.973 27.0195 168.996 26.4102C169.02 25.7773 169.02 25.3672 168.996 25.1797C168.996 24.9922 168.973 24.8164 168.926 24.6523C168.902 24.4648 168.879 24.3125 168.855 24.1953C168.855 24.0078 168.949 23.9141 169.137 23.9141C169.324 23.9141 169.559 24.0195 169.84 24.2305C170.168 24.4414 170.379 24.6289 170.473 24.793C170.59 24.957 170.613 25.1562 170.543 25.3906C170.426 25.7656 170.344 26.1875 170.297 26.6562C170.25 27.125 170.227 27.4062 170.227 27.5C170.508 27.4766 170.766 27.4414 171 27.3945C171.234 27.3477 171.387 27.3242 171.457 27.3242C171.645 27.2773 171.867 27.2539 172.125 27.2539C172.266 27.2773 172.465 27.418 172.723 27.6758C172.934 27.957 173.039 28.1797 173.039 28.3438C173.039 28.5781 172.816 28.6719 172.371 28.625C171.973 28.5547 171.574 28.5195 171.176 28.5195C170.777 28.5195 170.438 28.5312 170.156 28.5547C170.086 29.3984 169.945 30.2305 169.734 31.0508C169.688 31.2383 169.605 31.4023 169.488 31.543C169.371 31.6602 169.266 31.7188 169.172 31.7188C169.008 31.7188 168.902 31.6602 168.855 31.543C168.832 31.4023 168.82 31.1914 168.82 30.9102C168.867 30.3008 168.891 29.5391 168.891 28.625C168.258 28.6719 167.766 28.7188 167.414 28.7656C166.875 28.8828 166.371 28.9531 165.902 28.9766C165.879 29.9375 165.926 30.793 166.043 31.543C166.113 32.0352 166.254 32.375 166.465 32.5625C166.605 32.6797 166.77 32.75 166.957 32.7734C167.168 32.7969 167.379 32.8086 167.59 32.8086C167.801 32.8086 167.941 32.8086 168.012 32.8086C168.738 32.8086 169.418 32.7734 170.051 32.7031C170.238 32.6797 170.402 32.6328 170.543 32.5625C170.707 32.4922 170.824 32.457 170.895 32.457C171.105 32.457 171.316 32.5273 171.527 32.668C171.738 32.8086 171.844 32.9727 171.844 33.1602C171.844 33.3477 171.738 33.4883 171.527 33.582C171.34 33.6758 171.035 33.7578 170.613 33.8281C169.863 33.9219 169.113 33.9688 168.363 33.9688ZM178.383 17.9727C178.664 17.9727 178.805 18.1016 178.805 18.3594C178.805 18.5 178.676 18.6992 178.418 18.957C177.715 19.8242 176.32 21.4766 174.234 23.9141C174.07 24.125 173.918 24.2305 173.777 24.2305C173.66 24.2305 173.402 24.0547 173.004 23.7031C172.676 23.4219 172.512 23.1875 172.512 23C172.512 22.7891 172.688 22.5898 173.039 22.4023C173.578 22.0977 174.387 21.4883 175.465 20.5742C176.543 19.6133 177.34 18.8516 177.855 18.2891C178.066 18.0781 178.242 17.9727 178.383 17.9727ZM139.992 26.3398C139.875 26.1523 139.781 25.9883 139.711 25.8477C139.617 25.707 139.523 25.5195 139.43 25.2852V24.4414L140.379 24.6523L141.328 25.0742C141.75 25.2617 142.125 25.4492 142.453 25.6367C142.781 25.8477 143.051 26.1641 143.262 26.5859C143.426 26.9375 143.508 27.3477 143.508 27.8164C143.484 28.2852 143.367 28.6484 143.156 28.9062C142.969 29.1641 142.723 29.293 142.418 29.293C142.113 29.293 141.797 29.1055 141.469 28.7305C141.281 28.543 141.105 28.2734 140.941 27.9219L140.414 27.043L136.617 29.7852L135.352 30.8398L134.508 31.6836L134.086 31.9648C133.852 31.9648 133.617 31.8125 133.383 31.5078C133.172 31.25 132.984 30.9336 132.82 30.5586C132.68 30.2539 132.609 29.9609 132.609 29.6797L132.82 29.0117C132.961 28.6367 133.066 28.25 133.137 27.8516C133.207 27.4297 133.266 26.9492 133.312 26.4102C133.359 25.8945 133.406 25.1445 133.453 24.1602L133.629 18.043C133.629 17.7148 133.617 17.375 133.594 17.0234C133.547 16.6719 133.488 16.3789 133.418 16.1445C133.348 15.9102 133.242 15.6992 133.102 15.5117L132.82 15.2305L132.75 14.8789C132.844 14.7383 133.008 14.668 133.242 14.668C133.805 14.668 134.25 14.7617 134.578 14.9492L135.105 15.2305C135.691 15.1602 136.172 15.0898 136.547 15.0195C136.945 14.9727 137.438 14.8789 138.023 14.7383C138.586 14.5977 139.02 14.4805 139.324 14.3867C139.629 14.293 139.945 14.1758 140.273 14.0352C140.602 13.8945 140.859 13.8242 141.047 13.8242C141.234 13.8477 141.457 13.918 141.715 14.0352L142.453 14.4219L142.91 14.7383C143.332 14.9961 143.602 15.207 143.719 15.3711L143.754 16.0039L143.402 16.5312C143.332 16.6719 143.227 16.9062 143.086 17.2344L142.91 17.7617L142.031 21.0312L141.68 22.4023C141.492 22.8711 141.305 23.1641 141.117 23.2812L140.73 23.4219H140.484L140.027 22.9648C139.395 23.0352 138.914 23.082 138.586 23.1055L136.16 23.457L135.281 23.5273L135.07 27.3945L135.211 28.168C135.398 28.168 135.609 28.1211 135.844 28.0273L139.992 26.3398ZM135.281 22.3672C135.703 22.3438 136.031 22.3203 136.266 22.2969C136.5 22.2734 136.852 22.2031 137.32 22.0859C137.836 21.9688 138.281 21.875 138.656 21.8047C138.938 21.7578 139.195 21.7344 139.43 21.7344L140.098 21.8047L140.695 19.0977C140.109 19.1445 139.676 19.1914 139.395 19.2383L137.707 19.5195C137.215 19.6133 136.816 19.6602 136.512 19.6602L135.949 19.5898L135.422 19.4141L135.281 22.3672ZM135.457 18.6758C135.902 18.6523 136.254 18.6172 136.512 18.5703C136.77 18.5234 137.203 18.418 137.812 18.2539C138.375 18.0898 138.797 17.9961 139.078 17.9727C139.477 17.9727 139.863 18.043 140.238 18.1836L140.801 18.3945L140.977 17.3047C141.023 17 141.047 16.6602 141.047 16.2852C141.047 15.9102 140.988 15.6641 140.871 15.5469C140.754 15.4297 140.59 15.3711 140.379 15.3711C140.145 15.3945 139.852 15.4531 139.5 15.5469C139.172 15.6172 138.633 15.7227 137.883 15.8633C137.109 16.0039 136.617 16.0742 136.406 16.0742L135.668 16.1094L135.457 18.6758ZM148.148 17.1992C148.055 17.5742 147.996 17.8555 147.973 18.043C147.949 18.2305 147.914 18.5352 147.867 18.957C147.82 19.3789 147.797 19.7305 147.797 20.0117L147.691 27.1133C147.668 28.0977 147.586 29.2461 147.445 30.5586L147.305 32.0703C147.211 32.9844 147.047 33.7695 146.812 34.4258C146.578 35.0586 146.367 35.375 146.18 35.375C146.016 35.3516 145.875 35.0117 145.758 34.3555C145.641 33.7227 145.57 32.9844 145.547 32.1406C145.523 31.5781 145.512 31.0156 145.512 30.4531V29.5742L145.652 20.3633C145.676 19.7539 145.688 19.2617 145.688 18.8867C145.688 18.5117 145.676 18.2539 145.652 18.1133C145.629 17.8086 145.594 17.457 145.547 17.0586C145.5 16.6602 145.418 16.332 145.301 16.0742L145.16 15.3711L145.336 15.1602C145.547 15.1602 145.805 15.207 146.109 15.3008C146.719 15.4883 147.117 15.6406 147.305 15.7578L147.867 16.1094L149.59 15.7227C150.176 15.582 150.773 15.418 151.383 15.2305L152.156 15.0195C152.531 14.9023 152.859 14.7734 153.141 14.6328L153.633 14.457C153.797 14.457 153.996 14.5273 154.23 14.668C154.465 14.8086 154.711 14.9727 154.969 15.1602C155.25 15.3477 155.52 15.5586 155.777 15.793C155.988 15.9805 156.059 16.2617 155.988 16.6367C155.801 16.8945 155.672 17.1289 155.602 17.3398C155.555 17.5508 155.508 17.832 155.461 18.1836C155.414 18.5586 155.391 18.9453 155.391 19.3438L155.18 23.1055C155.133 24.043 155.062 24.7695 154.969 25.2852C154.898 25.8008 154.746 26.2578 154.512 26.6562C154.254 27.0547 153.961 27.3711 153.633 27.6055L153 27.8867C152.812 27.8398 152.625 27.6992 152.438 27.4648C152.227 27.207 151.934 26.8789 151.559 26.4805C151.207 26.0586 150.867 25.6836 150.539 25.3555L149.906 24.793L149.695 24.3008C149.836 24.2773 150 24.3008 150.188 24.3711L150.996 24.6172C151.465 24.7812 151.828 24.875 152.086 24.8984C152.297 24.8984 152.473 24.8633 152.613 24.793C152.824 24.6523 152.953 24.3477 153 23.8789C153.07 23.3633 153.117 22.8711 153.141 22.4023L153.281 17.832C153.281 17.293 153.258 16.9414 153.211 16.7773L153.07 16.4961C152.93 16.3555 152.719 16.2852 152.438 16.2852C152.203 16.2852 151.805 16.332 151.242 16.4258L149.66 16.7422L148.148 17.1992ZM148.852 6.40625L153.281 5.52734C153.516 5.48047 153.773 5.41016 154.055 5.31641L154.688 5.17578C154.992 5.15234 155.25 5.16406 155.461 5.21094C155.742 5.28125 156.035 5.41016 156.34 5.59766L156.832 5.94922C156.855 6.08984 156.773 6.25391 156.586 6.44141C156.398 6.58203 156.129 6.6875 155.777 6.75781L154.477 7.00391C154.102 7.05078 153.574 7.12109 152.895 7.21484C152.215 7.28516 151.605 7.35547 151.066 7.42578C150.527 7.51953 150.164 7.56641 149.977 7.56641C149.602 7.56641 149.238 7.51953 148.887 7.42578L148.289 7.32031L147.27 8.72656C146.871 9.24219 146.391 9.76953 145.828 10.3086C145.219 10.8711 144.82 11.2109 144.633 11.3281L144 11.7148L143.578 11.8555L143.332 11.6797L143.578 11.293L144.352 10.3086C144.68 9.91016 144.949 9.55859 145.16 9.25391C145.371 8.92578 145.617 8.51562 145.898 8.02344C146.203 7.53125 146.449 7.09766 146.637 6.72266C146.801 6.37109 146.953 6.01953 147.094 5.66797C147.234 5.29297 147.34 4.98828 147.41 4.75391C147.48 4.49609 147.562 4.23828 147.656 3.98047C147.703 3.69922 147.727 3.44141 147.727 3.20703L147.938 2.64453L148.184 2.53906C148.348 2.53906 148.535 2.58594 148.746 2.67969C149.027 2.79688 149.32 2.94922 149.625 3.13672C149.93 3.32422 150.164 3.52344 150.328 3.73438L150.539 4.15625L150.469 4.47266C150.352 4.58984 150.188 4.75391 149.977 4.96484C149.742 5.19922 149.531 5.43359 149.344 5.66797L148.852 6.40625ZM137.25 7.28516L138.234 7.10938C138.656 7.03906 139.324 6.86328 140.238 6.58203L140.766 6.40625L141.645 6.16016L142.172 6.26562C142.453 6.33594 142.664 6.39453 142.805 6.44141C142.945 6.51172 143.086 6.60547 143.227 6.72266L143.473 6.96875C143.496 7.13281 143.438 7.27344 143.297 7.39062C143.109 7.50781 142.805 7.61328 142.383 7.70703L141.539 7.91797C141.352 7.96484 140.883 8.03516 140.133 8.12891L138.938 8.30469C138.633 8.32812 138.387 8.33984 138.199 8.33984L137.742 8.30469L136.828 7.98828L135.773 9.21875C135.445 9.61719 135.07 10.0156 134.648 10.4141C134.227 10.8359 133.84 11.1758 133.488 11.4336C133.137 11.668 132.762 11.9023 132.363 12.1367L131.168 12.5234C131.145 12.3594 131.203 12.207 131.344 12.0664L131.941 11.5039C132.293 11.1758 132.609 10.8477 132.891 10.5195C133.172 10.2383 133.512 9.81641 133.91 9.25391C134.309 8.69141 134.672 8.12891 135 7.56641C135.328 7.05078 135.609 6.58203 135.844 6.16016C136.055 5.73828 136.23 5.33984 136.371 4.96484C136.512 4.58984 136.582 4.21484 136.582 3.83984L136.863 3.3125C137.168 3.3125 137.496 3.41797 137.848 3.62891C138.199 3.81641 138.434 3.96875 138.551 4.08594C138.691 4.20313 138.82 4.33203 138.938 4.47266L139.148 5.17578C139.102 5.31641 138.984 5.44531 138.797 5.5625L138.41 5.80859L137.742 6.72266L137.25 7.28516ZM137.391 10.0625C137.648 10.0156 137.883 10.0039 138.094 10.0273L138.867 10.2031C139.078 10.2734 139.312 10.3438 139.57 10.4141C139.828 10.4844 140.039 10.5898 140.203 10.7305C140.391 10.8711 140.52 11.0117 140.59 11.1523C140.66 11.293 140.695 11.5039 140.695 11.7852C140.695 12.1602 140.602 12.4414 140.414 12.6289C140.25 12.8164 140.039 12.9219 139.781 12.9453C139.57 12.9453 139.312 12.8164 139.008 12.5586C138.797 12.3945 138.516 12.1133 138.164 11.7148C137.812 11.3398 137.555 11.0469 137.391 10.8359C137.25 10.625 137.25 10.3672 137.391 10.0625ZM149.414 8.90234L150.293 9.04297C150.926 9.18359 151.465 9.35938 151.91 9.57031C152.332 9.78125 152.648 10.0273 152.859 10.3086C153.047 10.5898 153.141 10.9648 153.141 11.4336C153.117 11.9961 152.918 12.3594 152.543 12.5234C152.238 12.5234 151.945 12.4297 151.664 12.2422C151.289 12.0312 150.926 11.7266 150.574 11.3281L149.695 10.2383L149.027 8.9375C149.191 8.89062 149.32 8.87891 149.414 8.90234Z" fill="#333333"/>
<path d="M94.582 69.2422C93.707 69.2422 93.1237 69.1875 92.832 69.0781C92.4857 68.9141 92.2578 68.5404 92.1484 67.957C92.0938 67.6471 92.0664 67.2552 92.0664 66.7812L91.957 65.0039V64.3203C91.9388 64.3021 91.9297 64.2565 91.9297 64.1836L91.9023 63.8828C91.8841 63.737 91.8021 63.5638 91.6562 63.3633C91.6016 63.2539 91.5742 63.1719 91.5742 63.1172C91.5742 62.9896 91.7292 62.9531 92.0391 63.0078C92.3672 63.0625 92.7409 63.0898 93.1602 63.0898C93.4518 63.0898 93.9987 63.0716 94.8008 63.0352C95.0742 63.0169 95.7122 62.9349 96.7148 62.7891L97.5898 62.5977L97.8086 62.543C97.9727 62.543 98.1732 62.6432 98.4102 62.8438C98.6107 63.0078 98.7109 63.1628 98.7109 63.3086C98.7109 63.4909 98.5742 63.6003 98.3008 63.6367C97.5898 63.6914 97.043 63.7188 96.6602 63.7188L95.6758 63.7734C95.3841 63.8099 95.1836 63.8281 95.0742 63.8281C93.8711 63.8828 93.1875 63.9102 93.0234 63.9102C93.0234 65.1862 93.0326 65.9792 93.0508 66.2891C93.0872 66.7995 93.1146 67.2005 93.1328 67.4922C93.1693 67.7839 93.2148 67.9753 93.2695 68.0664C93.306 68.1393 93.3698 68.194 93.4609 68.2305C93.5703 68.2487 93.6706 68.2669 93.7617 68.2852C93.8711 68.2852 93.9531 68.2852 94.0078 68.2852C94.026 68.2852 94.0716 68.2943 94.1445 68.3125C94.2357 68.3125 94.4089 68.3125 94.6641 68.3125C94.8464 68.3125 95.1562 68.2943 95.5938 68.2578C96.1589 68.2214 96.7057 68.1484 97.2344 68.0391C97.362 68.0208 97.6536 68.0117 98.1094 68.0117C98.3281 68.0117 98.5378 68.112 98.7383 68.3125C98.8294 68.4036 98.875 68.5312 98.875 68.6953C98.875 68.8229 98.8385 68.9141 98.7656 68.9688C98.6562 69.0234 98.4831 69.069 98.2461 69.1055C98.0273 69.1237 97.7448 69.1419 97.3984 69.1602C96.3958 69.2148 95.457 69.2422 94.582 69.2422ZM98.4922 78.5664C98.7474 78.7305 98.875 78.8854 98.875 79.0312C98.875 79.2318 98.7201 79.3594 98.4102 79.4141C98.1003 79.4688 97.6628 79.5052 97.0977 79.5234C96.2773 79.5417 95.7487 79.5143 95.5117 79.4414C95.1107 79.2591 94.9102 78.9583 94.9102 78.5391L94.9375 77.5273C94.974 77.1992 94.9922 76.9076 94.9922 76.6523C95.0104 76.4883 95.0195 76.1693 95.0195 75.6953C94.7461 76.3151 94.3906 76.9167 93.9531 77.5C93.6432 77.8828 93.3698 78.2018 93.1328 78.457C92.8958 78.694 92.6133 78.9219 92.2852 79.1406C91.957 79.3594 91.6562 79.4688 91.3828 79.4688C91.2188 79.4688 91.1367 79.4141 91.1367 79.3047C91.1367 79.2865 91.3099 79.1497 91.6562 78.8945C92.0208 78.6211 92.3854 78.2474 92.75 77.7734C93.2969 77.0443 93.7708 76.1875 94.1719 75.2031C93.4609 75.2943 92.987 75.3763 92.75 75.4492C92.6589 75.4674 92.5768 75.4948 92.5039 75.5312C92.431 75.5495 92.3398 75.5495 92.2305 75.5312C92.1393 75.4948 92.0117 75.4219 91.8477 75.3125C91.6836 75.1849 91.556 75.0664 91.4648 74.957C91.3919 74.8477 91.3555 74.7747 91.3555 74.7383C91.3555 74.6471 91.4922 74.6016 91.7656 74.6016C92.4401 74.6016 93.306 74.5286 94.3633 74.3828C94.4727 73.9635 94.5273 73.2891 94.5273 72.3594V71.8398C94.5273 71.6211 94.5729 71.5026 94.6641 71.4844C94.6823 71.4661 94.7188 71.457 94.7734 71.457C94.9193 71.457 95.1198 71.5664 95.375 71.7852C95.5755 71.9492 95.7031 72.0768 95.7578 72.168C95.8307 72.2409 95.8398 72.3411 95.7852 72.4688C95.7669 72.5052 95.7305 72.5781 95.6758 72.6875C95.6211 72.7969 95.5846 72.9062 95.5664 73.0156C95.5482 73.1068 95.5117 73.2891 95.457 73.5625C95.4023 73.8177 95.3659 74.0456 95.3477 74.2461C95.6029 74.2279 95.9219 74.1914 96.3047 74.1367C96.6875 74.082 96.9701 74.0273 97.1523 73.9727L97.6992 73.8359C97.8815 73.7995 98.1823 73.9544 98.6016 74.3008C98.6745 74.3555 98.7109 74.4193 98.7109 74.4922C98.7109 74.5651 98.6745 74.6289 98.6016 74.6836C98.5469 74.7201 98.474 74.7383 98.3828 74.7383C98.0547 74.7383 97.4531 74.793 96.5781 74.9023L95.6758 74.9844C95.8763 75.1302 96.0039 75.2578 96.0586 75.3672C96.1133 75.4766 96.1224 75.5859 96.0859 75.6953L96.0039 76.1328C95.9674 76.4974 95.931 76.8984 95.8945 77.3359C95.8763 77.7734 95.8763 78.1107 95.8945 78.3477C95.8945 78.4388 95.9492 78.5208 96.0586 78.5938C96.1862 78.6667 96.3138 78.7031 96.4414 78.7031C96.8971 78.7031 97.4076 78.6576 97.9727 78.5664L98.2188 78.5117C98.3281 78.5117 98.4193 78.5299 98.4922 78.5664ZM100.242 69.2695C100.333 69.2695 100.47 69.3333 100.652 69.4609C100.634 69.4974 100.671 69.5703 100.762 69.6797C100.853 69.7708 100.917 69.8346 100.953 69.8711C101.044 69.9622 101.135 70.0716 101.227 70.1992C101.336 70.3268 101.454 70.4635 101.582 70.6094C101.91 70.9557 102.667 71.8581 103.852 73.3164C104.052 73.6081 104.152 73.7812 104.152 73.8359C104.152 74.0182 104.043 74.1094 103.824 74.1094C103.697 74.1094 103.56 74.0182 103.414 73.8359C103.068 73.4714 102.448 72.8971 101.555 72.1133C100.862 71.4753 100.233 70.9831 99.668 70.6367C99.3945 70.5091 99.2578 70.3633 99.2578 70.1992C99.2578 70.0716 99.3945 69.8893 99.668 69.6523C99.9232 69.3971 100.115 69.2695 100.242 69.2695ZM70.4102 66.4258C70.1732 66.4622 69.7995 66.5443 69.2891 66.6719C68.7604 66.7995 68.2682 66.9362 67.8125 67.082L67.1289 67.3555C66.9284 67.4284 66.7279 67.4648 66.5273 67.4648C66.2357 67.4648 65.9622 67.4193 65.707 67.3281C65.3607 67.2005 65.0872 67.0547 64.8867 66.8906L64.6133 66.5625C64.6497 66.4349 64.75 66.3529 64.9141 66.3164L65.5977 66.2617C66.0352 66.207 66.418 66.1523 66.7461 66.0977L69.6445 65.5508L72.2148 65.0312C72.1055 64.8854 71.9688 64.7122 71.8047 64.5117C71.6406 64.293 71.5039 64.0742 71.3945 63.8555C71.2852 63.6367 71.112 63.2448 70.875 62.6797C70.6562 62.151 70.5469 61.8047 70.5469 61.6406L70.7109 61.3125C70.8568 61.2943 70.9935 61.3034 71.1211 61.3398C71.5404 61.4674 71.8867 61.6133 72.1602 61.7773C72.4518 61.9232 72.7435 62.1419 73.0352 62.4336C73.3451 62.7253 73.5273 63.0352 73.582 63.3633L73.6094 63.6094C73.6094 63.8828 73.5547 64.1107 73.4453 64.293L73.1992 64.7578C73.8919 64.6302 74.4023 64.5391 74.7305 64.4844C75.0586 64.4297 75.3138 64.4023 75.4961 64.4023C75.6784 64.4023 75.8607 64.4388 76.043 64.5117C76.2253 64.5664 76.4076 64.6576 76.5898 64.7852L76.8086 65.1406C76.7721 65.3047 76.681 65.3958 76.5352 65.4141L75.9062 65.4961C75.1042 65.569 74.5846 65.6237 74.3477 65.6602C74.1107 65.6966 73.6549 65.7786 72.9805 65.9062L71.832 66.125L71.1211 66.2617C71.3398 66.3711 71.5312 66.4805 71.6953 66.5898C71.8594 66.6992 72.069 66.8724 72.3242 67.1094L72.707 67.5469C72.707 67.7109 72.6159 67.9206 72.4336 68.1758L72.1602 68.5312C72.0872 68.6771 71.9414 69.0326 71.7227 69.5977L71.5859 69.9805C71.7135 70.0352 71.8503 70.0807 71.9961 70.1172C72.1237 70.1719 72.4062 70.2357 72.8438 70.3086C73.263 70.3815 73.5365 70.418 73.6641 70.418C73.7917 70.4362 73.9648 70.4453 74.1836 70.4453L74.5391 70.418C74.7396 70.4544 74.9219 70.5273 75.0859 70.6367C75.25 70.7643 75.4505 70.974 75.6875 71.2656C75.9245 71.5755 76.0065 71.8581 75.9336 72.1133L75.6602 72.5234C75.5872 72.6328 75.4961 72.8333 75.3867 73.125C75.2773 73.4349 75.1771 73.7448 75.0859 74.0547C74.9766 74.3828 74.776 75.0755 74.4844 76.1328C74.1745 77.2083 73.8828 77.974 73.6094 78.4297C73.3359 78.8854 73.0352 79.2773 72.707 79.6055C72.3971 79.9336 72.0599 80.1706 71.6953 80.3164C71.4583 80.4076 71.2305 80.4531 71.0117 80.4531C70.9023 80.3984 70.7383 80.1341 70.5195 79.6602C70.3008 79.1862 70.1549 78.8581 70.082 78.6758C70.0091 78.5299 69.8724 78.293 69.6719 77.9648L69.4805 77.1992L69.8633 77.418L70.5469 77.8828C70.8385 78.0833 71.1029 78.1836 71.3398 78.1836C71.6497 78.1471 71.9232 77.9193 72.1602 77.5C72.4154 77.0807 72.707 76.3971 73.0352 75.4492C73.3815 74.5013 73.582 73.918 73.6367 73.6992C73.6732 73.4805 73.7188 73.2253 73.7734 72.9336C73.8281 72.6419 73.8646 72.3776 73.8828 72.1406L73.8555 71.8398C73.7826 71.6211 73.6458 71.4753 73.4453 71.4023C73.2448 71.3294 72.9987 71.2565 72.707 71.1836C72.4154 71.1107 72.151 71.0378 71.9141 70.9648L71.2578 70.7461C70.9661 71.4206 70.6836 72.0404 70.4102 72.6055C70.1549 73.1888 69.7904 73.8542 69.3164 74.6016C68.8424 75.3672 68.2773 76.0872 67.6211 76.7617C66.9648 77.418 66.4089 77.9102 65.9531 78.2383C65.4792 78.5664 65.0964 78.7852 64.8047 78.8945L64.0938 78.9219L64.5586 78.457C64.7773 78.2565 65.0964 77.9375 65.5156 77.5C65.9349 77.0443 66.3997 76.4883 66.9102 75.832C67.4206 75.1758 67.9036 74.4102 68.3594 73.5352C68.8151 72.6784 69.1797 71.8945 69.4531 71.1836C69.7266 70.4909 69.9544 69.7982 70.1367 69.1055C70.319 68.4128 70.4193 67.8659 70.4375 67.4648C70.4375 67.3008 70.4284 67.1276 70.4102 66.9453V66.4258ZM80.1992 73.5898C80.3451 73.0977 80.4544 72.6875 80.5273 72.3594C80.6003 72.0495 80.6914 71.5938 80.8008 70.9922C80.8737 70.3906 80.9284 69.9076 80.9648 69.543C80.9831 69.3607 80.9922 69.1966 80.9922 69.0508L80.9648 68.7773C80.9466 68.5404 80.9102 68.3307 80.8555 68.1484L80.7188 67.7383C80.263 67.7383 79.8802 67.7839 79.5703 67.875C79.2604 67.9661 78.9961 68.0117 78.7773 68.0117C78.5586 68.0117 78.3945 67.9844 78.2852 67.9297L77.8477 67.7656C77.4102 68.2943 77.0365 68.7227 76.7266 69.0508C76.4167 69.3971 76.1068 69.707 75.7969 69.9805L75.0859 70.1172L75.332 69.707L76.207 68.4219C76.6445 67.7474 76.9818 67.1732 77.2188 66.6992C77.4557 66.2253 77.7565 65.5872 78.1211 64.7852C78.4857 63.9648 78.7409 63.3542 78.8867 62.9531C79.0326 62.5521 79.1875 62.069 79.3516 61.5039C79.4974 60.957 79.5977 60.5195 79.6523 60.1914C79.707 59.9909 79.7161 59.6992 79.6797 59.3164L79.8984 58.8516C80.026 58.8333 80.1628 58.8516 80.3086 58.9062C80.4727 58.9792 80.6823 59.1068 80.9375 59.2891C81.1927 59.4714 81.4206 59.6719 81.6211 59.8906C81.8216 60.1094 81.9219 60.3008 81.9219 60.4648C81.9036 60.6107 81.8034 60.7747 81.6211 60.957L81.3203 61.2852C81.2656 61.3945 81.1927 61.5586 81.1016 61.7773C81.0104 61.9596 80.819 62.388 80.5273 63.0625C80.1992 63.737 79.9896 64.1836 79.8984 64.4023L79.1055 65.7969L78.3125 67.1641L79.7891 66.8086C80.1719 66.6992 80.8828 66.4805 81.9219 66.1523C82.9427 65.8242 83.6172 65.6146 83.9453 65.5234C84.2734 65.4323 84.556 65.3867 84.793 65.3867C84.9753 65.3867 85.2214 65.4232 85.5312 65.4961C85.8411 65.569 86.1328 65.6784 86.4062 65.8242C86.6615 65.9518 86.7617 66.1341 86.707 66.3711C86.6341 66.4805 86.4701 66.5352 86.2148 66.5352C85.9414 66.5534 85.4674 66.6172 84.793 66.7266C84.1003 66.8359 83.5534 66.9271 83.1523 67C82.7513 67.0547 82.3594 67.1367 81.9766 67.2461L81.457 67.3828C81.7122 67.4375 81.8945 67.4831 82.0039 67.5195C82.1133 67.556 82.2591 67.6198 82.4414 67.7109C82.6419 67.8021 82.8151 67.9206 82.9609 68.0664L83.0703 68.5859C82.9062 68.8594 82.7786 69.1784 82.6875 69.543L82.4961 70.1719L82.2773 71.4023C82.1133 72.2409 81.9766 72.806 81.8672 73.0977L81.2383 74.8477C81.694 75.2852 82.1497 75.6862 82.6055 76.0508C83.043 76.4154 83.6354 76.8255 84.3828 77.2812C85.1302 77.7188 85.7773 78.0469 86.3242 78.2656C86.8893 78.5026 87.5 78.694 88.1562 78.8398L89.0312 79.0859L89.9062 79.332L90.125 79.5234L90.043 79.7695L89.4414 79.9609C89.2227 80.0521 88.9128 80.1341 88.5117 80.207C88.1471 80.2799 87.6458 80.3711 87.0078 80.4805C86.4792 80.5534 86.0143 80.5898 85.6133 80.5898C85.0299 80.5898 84.5469 80.4987 84.1641 80.3164C83.7995 80.1341 83.3802 79.7422 82.9062 79.1406L81.3477 77.0352L80.5273 76.0234C80.2357 76.388 79.9805 76.6797 79.7617 76.8984L78.8594 77.6914C78.4583 77.9831 77.957 78.2383 77.3555 78.457C76.7721 78.6758 76.2161 78.8398 75.6875 78.9492C75.25 79.0404 74.8945 79.0859 74.6211 79.0859L73.9102 79.0039L73.9922 78.8125L74.4844 78.6211L75.4688 78.2656L76.5898 77.7188C77.0456 77.4635 77.4922 77.1628 77.9297 76.8164C78.3854 76.4883 78.75 76.1237 79.0234 75.7227L79.6523 74.793L79.2422 74.1367C79.0781 73.8815 78.8594 73.5625 78.5859 73.1797C78.3125 72.7969 78.0482 72.4505 77.793 72.1406C77.5195 71.8307 77.3008 71.612 77.1367 71.4844C76.9544 71.3568 76.8086 71.2747 76.6992 71.2383L76.207 71.1289L76.0156 70.9102C76.0339 70.8008 76.125 70.7188 76.2891 70.6641C76.4349 70.6094 76.6445 70.5729 76.918 70.5547H77.2461C77.5013 70.6094 77.7109 70.6914 77.875 70.8008C78.0208 70.9284 78.2305 71.1471 78.5039 71.457L80.1992 73.5898ZM137.266 66.6445C137.12 66.6445 136.974 66.6172 136.828 66.5625C136.682 66.4896 136.573 66.3802 136.5 66.2344C136.445 66.0703 136.327 65.8789 136.145 65.6602C135.98 65.4414 135.816 65.2773 135.652 65.168L135.762 65.0312C135.853 65.0859 136.072 65.1953 136.418 65.3594C136.764 65.5234 137.02 65.6055 137.184 65.6055C137.439 65.6055 137.667 65.5143 137.867 65.332C138.068 65.1497 138.323 64.8034 138.633 64.293C138.852 63.9466 139.052 63.5365 139.234 63.0625C139.417 62.5885 139.553 62.151 139.645 61.75L139.672 61.6953C139.672 61.6406 139.654 61.5951 139.617 61.5586C139.581 61.5039 139.544 61.4766 139.508 61.4766L138.25 61.5859C137.411 61.7318 136.536 61.8503 135.625 61.9414C135.461 61.9596 135.27 62.0052 135.051 62.0781C134.832 62.151 134.677 62.1875 134.586 62.1875C134.44 62.1875 134.249 62.069 134.012 61.832C133.921 61.7591 133.829 61.668 133.738 61.5586C133.665 61.4492 133.647 61.3581 133.684 61.2852C133.829 61.1393 133.902 61.0664 133.902 61.0664L134.039 60.957C134.294 60.7018 134.549 60.3646 134.805 59.9453C134.987 59.6901 135.178 59.2617 135.379 58.6602C135.379 58.4596 135.424 58.3594 135.516 58.3594C135.57 58.3594 135.661 58.3958 135.789 58.4688L136.227 58.7422C136.336 58.8333 136.409 58.9062 136.445 58.9609C136.482 59.0156 136.5 59.0885 136.5 59.1797C136.5 59.2891 136.427 59.4258 136.281 59.5898C136.135 59.7357 136.008 59.8815 135.898 60.0273L135.27 60.9297L135.215 61.0391C135.215 61.0938 135.288 61.1211 135.434 61.1211L137.539 60.8477L138.961 60.7383L139.508 60.6836L139.809 60.6289H139.891C140.073 60.6289 140.273 60.7839 140.492 61.0938C140.747 61.3307 140.875 61.5312 140.875 61.6953L140.738 62.0508C140.72 62.0872 140.574 62.5156 140.301 63.3359C139.973 64.1198 139.69 64.7122 139.453 65.1133C139.216 65.5143 138.961 65.8242 138.688 66.043C138.195 66.444 137.721 66.6445 137.266 66.6445ZM134.285 71.2383C134.085 71.2383 133.839 71.0833 133.547 70.7734C133.328 70.5547 133.219 70.3906 133.219 70.2812C133.219 70.2266 133.255 70.1992 133.328 70.1992C133.401 70.181 133.492 70.1719 133.602 70.1719L134.203 70.1445C134.549 70.1445 134.777 70.1354 134.887 70.1172C135.233 70.1172 135.525 70.1081 135.762 70.0898C137.329 69.944 138.387 69.8255 138.934 69.7344C139.207 69.6979 139.453 69.6615 139.672 69.625C139.891 69.5703 140.064 69.543 140.191 69.543C140.447 69.543 140.702 69.6706 140.957 69.9258C141.158 70.1263 141.258 70.2904 141.258 70.418C141.258 70.5273 141.194 70.6003 141.066 70.6367C140.975 70.6549 140.438 70.6914 139.453 70.7461C138.906 70.7643 138.232 70.8099 137.43 70.8828C136.628 70.9557 135.926 71.0286 135.324 71.1016C135.215 71.1198 135.06 71.1471 134.859 71.1836C134.659 71.2201 134.467 71.2383 134.285 71.2383ZM138.359 77.3359C138.177 77.5729 137.986 77.6914 137.785 77.6914C137.73 77.6914 137.703 77.6458 137.703 77.5547C137.703 77.4271 137.74 77.2812 137.812 77.1172C137.812 77.1172 137.995 76.7526 138.359 76.0234C138.378 75.9505 138.405 75.8776 138.441 75.8047C138.478 75.7318 138.505 75.668 138.523 75.6133V75.5859C138.523 75.5495 138.496 75.513 138.441 75.4766C138.387 75.4401 138.323 75.431 138.25 75.4492C137.958 75.4674 137.521 75.513 136.938 75.5859C136.372 75.6589 135.953 75.7318 135.68 75.8047C135.57 75.8411 135.434 75.8867 135.27 75.9414C135.124 75.9961 135.005 76.0234 134.914 76.0234C134.586 76.0234 134.312 75.9232 134.094 75.7227C133.911 75.5951 133.775 75.4674 133.684 75.3398L133.629 75.2031C133.629 75.112 133.784 75.0846 134.094 75.1211C134.513 75.1576 135.379 75.1029 136.691 74.957L137.238 74.875C137.384 74.8568 137.612 74.8294 137.922 74.793C138.25 74.7383 138.505 74.6836 138.688 74.6289C138.742 74.6107 138.797 74.5924 138.852 74.5742C138.924 74.5378 138.988 74.5195 139.043 74.5195C139.134 74.5195 139.243 74.5651 139.371 74.6562C139.517 74.7474 139.635 74.8294 139.727 74.9023C139.854 74.9935 139.936 75.0755 139.973 75.1484C140.027 75.2031 140.046 75.276 140.027 75.3672C140.027 75.4583 139.982 75.5404 139.891 75.6133C139.799 75.6862 139.736 75.7409 139.699 75.7773C139.663 75.832 139.535 75.9688 139.316 76.1875C139.225 76.3333 139.061 76.5339 138.824 76.7891C138.605 77.0443 138.451 77.2266 138.359 77.3359ZM136.992 82.7227C136.992 82.668 137.083 82.5221 137.266 82.2852C137.466 82.0664 137.621 81.8932 137.73 81.7656C138.004 81.401 138.332 80.8724 138.715 80.1797C139.116 79.487 139.344 79.0312 139.398 78.8125C139.435 78.7031 139.38 78.6484 139.234 78.6484C138.943 78.6484 138.141 78.7305 136.828 78.8945C135.971 79.0039 135.333 79.1133 134.914 79.2227C134.823 79.2773 134.732 79.3047 134.641 79.3047C134.495 79.3047 134.34 79.2044 134.176 79.0039C134.103 78.8763 134.066 78.7578 134.066 78.6484C134.066 78.5755 134.112 78.5026 134.203 78.4297L134.285 78.3203C134.34 78.2109 134.404 78.0651 134.477 77.8828C134.549 77.7005 134.613 77.5273 134.668 77.3633C134.759 77.0716 134.823 76.7526 134.859 76.4062C134.878 76.2057 134.987 76.151 135.188 76.2422C135.443 76.3698 135.634 76.4974 135.762 76.625C135.908 76.7344 135.953 76.8164 135.898 76.8711C135.716 77.0898 135.57 77.3359 135.461 77.6094C135.37 77.901 135.315 78.0924 135.297 78.1836C135.297 78.2565 135.342 78.293 135.434 78.293C135.707 78.293 136.117 78.2474 136.664 78.1562C136.974 78.1198 137.357 78.0742 137.812 78.0195C138.268 77.9648 138.633 77.9102 138.906 77.8555L139.59 77.7188C139.645 77.7005 139.717 77.6914 139.809 77.6914C139.9 77.6914 139.991 77.7279 140.082 77.8008C140.173 77.8555 140.273 77.9284 140.383 78.0195C140.565 78.1836 140.684 78.3203 140.738 78.4297C140.793 78.5208 140.82 78.6302 140.82 78.7578C140.82 78.8307 140.766 78.9219 140.656 79.0312C140.565 79.1406 140.456 79.3138 140.328 79.5508C139.799 80.6263 139.116 81.5286 138.277 82.2578C138.04 82.4401 137.776 82.5951 137.484 82.7227C137.357 82.7591 137.238 82.7773 137.129 82.7773C137.038 82.7956 136.992 82.7773 136.992 82.7227ZM115.992 68.7773L116.32 68.2578C116.484 68.0208 116.703 67.6836 116.977 67.2461C117.25 66.8086 117.551 66.2161 117.879 65.4688C118.207 64.7214 118.462 64.1107 118.645 63.6367C118.809 63.1628 118.918 62.8073 118.973 62.5703C119.009 62.3333 119.036 62.0964 119.055 61.8594C119.073 61.6224 119.082 61.4128 119.082 61.2305L119.109 60.957L119.301 60.7656C119.41 60.7474 119.538 60.7656 119.684 60.8203C119.957 60.9479 120.158 61.0391 120.285 61.0938C120.395 61.1667 120.559 61.2852 120.777 61.4492C120.978 61.6133 121.124 61.7591 121.215 61.8867L121.242 62.3242C121.078 62.5065 120.941 62.6615 120.832 62.7891C120.741 62.9167 120.65 63.0534 120.559 63.1992L119.957 64.4023C119.775 64.7669 119.465 65.2682 119.027 65.9062L118.645 66.4805L119.109 66.8633C119.237 66.9727 119.365 67.1003 119.492 67.2461C119.62 67.4102 119.693 67.556 119.711 67.6836C119.711 67.8112 119.665 68.0391 119.574 68.3672C119.538 68.4948 119.501 68.668 119.465 68.8867C119.447 69.1055 119.428 69.4245 119.41 69.8438C119.374 70.263 119.355 70.6458 119.355 70.9922L119.301 75.2031L119.355 76.4062L119.383 77.6914C119.401 78.1654 119.401 78.5299 119.383 78.7852C119.328 79.0039 119.283 79.2044 119.246 79.3867C119.191 79.569 119.118 79.7513 119.027 79.9336L118.809 80.2617L118.371 80.3711C118.189 80.1523 118.043 79.9336 117.934 79.7148C117.842 79.4961 117.779 79.3229 117.742 79.1953C117.706 79.0677 117.66 78.8945 117.605 78.6758L117.523 78.1836C117.523 78.0013 117.569 77.7734 117.66 77.5C117.733 77.1901 117.797 76.9076 117.852 76.6523C117.888 76.3789 117.934 75.9688 117.988 75.4219C118.025 74.8932 118.043 74.5104 118.043 74.2734L118.207 69.8711V68.668C118.189 68.3034 118.161 68.0482 118.125 67.9023L117.988 67.3555L117.305 68.1758C117.104 68.431 116.895 68.6315 116.676 68.7773L116.348 68.9961C116.639 69.1602 116.858 69.306 117.004 69.4336L117.113 69.9258L116.785 70.2812C116.712 70.3906 116.621 70.5456 116.512 70.7461L115.828 72.25L115.938 72.6055C115.828 72.6784 115.6 72.7331 115.254 72.7695L113.285 72.9336L113.23 74.957L113.969 74.793C114.333 74.7383 114.652 74.6745 114.926 74.6016C115.217 74.5469 115.427 74.5195 115.555 74.5195C115.719 74.5195 115.883 74.5469 116.047 74.6016C116.211 74.6562 116.393 74.7292 116.594 74.8203C116.794 74.9115 116.958 75.0208 117.086 75.1484L117.277 75.3945C117.259 75.5404 117.177 75.6315 117.031 75.668C116.904 75.7044 116.548 75.7318 115.965 75.75L114.652 75.832L113.668 75.9414L113.176 75.9961L113.066 79.7695C113.066 80.1341 113.048 80.5078 113.012 80.8906C112.975 81.2917 112.939 81.6107 112.902 81.8477C112.866 82.0846 112.802 82.2669 112.711 82.3945L112.246 82.5039C112.064 82.3581 111.936 82.2031 111.863 82.0391C111.79 81.875 111.717 81.638 111.645 81.3281C111.535 81.0182 111.48 80.7995 111.48 80.6719C111.48 80.5443 111.535 80.2982 111.645 79.9336C111.717 79.6602 111.763 79.3867 111.781 79.1133C111.818 78.8581 111.854 78.4388 111.891 77.8555L111.973 76.9531L112 76.1602L110.934 76.3242L109.43 76.543L108.91 76.6523C108.564 76.7435 108.299 76.8164 108.117 76.8711L107.789 76.9805C107.661 76.9805 107.47 76.9349 107.215 76.8438C106.96 76.7526 106.723 76.6615 106.504 76.5703C106.267 76.4792 106.085 76.3151 105.957 76.0781L106.094 75.8867L106.477 75.832L107.16 75.7773C107.725 75.7409 108.409 75.6589 109.211 75.5312L111.289 75.2305L112.027 75.1211L112.082 73.043L110.332 73.207L110.277 73.5625C110.204 73.7995 110.086 73.9271 109.922 73.9453C109.758 73.9453 109.63 73.8542 109.539 73.6719C109.411 73.4531 109.329 73.1888 109.293 72.8789L109.02 71.1289C108.983 70.9466 108.938 70.7917 108.883 70.6641C108.828 70.5365 108.764 70.418 108.691 70.3086C108.637 70.1992 108.564 70.0898 108.473 69.9805V69.5156C108.582 69.4792 108.728 69.4792 108.91 69.5156L109.457 69.6523L112.191 69.2695C112.155 68.9779 112.118 68.7591 112.082 68.6133C112.064 68.5039 112.009 68.3307 111.918 68.0938L111.59 67.6289L111.371 68.0117C111.316 68.194 111.171 68.3216 110.934 68.3945L110.66 68.0938C110.514 67.8568 110.432 67.6016 110.414 67.3281L110.168 65.1133L109.703 65.2227L109.238 65.3594L108.965 65.4414C108.801 65.4414 108.618 65.4232 108.418 65.3867C108.199 65.332 107.999 65.2591 107.816 65.168C107.598 65.0586 107.452 64.9492 107.379 64.8398L107.488 64.457L108.117 64.3477C108.646 64.293 109.01 64.2474 109.211 64.2109L110.059 64.0742L109.949 63.1445C109.931 62.9622 109.904 62.7891 109.867 62.625C109.849 62.4609 109.803 62.306 109.73 62.1602C109.658 62.0143 109.585 61.8867 109.512 61.7773L109.293 61.4766L109.184 61.1758C109.22 61.0299 109.384 60.9479 109.676 60.9297L110.359 61.0391L110.797 61.1758L111.152 61.3125C111.243 61.3854 111.316 61.4857 111.371 61.6133L111.289 62.6523L111.344 63.8281L113.395 63.5L113.887 63.418L113.996 61.9961C114.014 61.8503 114.023 61.668 114.023 61.4492C114.005 61.1576 113.987 60.9388 113.969 60.793C113.951 60.6107 113.905 60.4375 113.832 60.2734L113.75 59.8086C113.841 59.6992 113.96 59.6445 114.105 59.6445C114.361 59.6628 114.707 59.7539 115.145 59.918C115.564 60.1003 115.837 60.2826 115.965 60.4648L116.074 60.957C115.965 61.1393 115.865 61.3307 115.773 61.5312C115.682 61.7318 115.618 61.8867 115.582 61.9961C115.546 62.1419 115.509 62.2969 115.473 62.4609L115.363 63.1445C115.691 63.0352 115.938 62.9805 116.102 62.9805C116.266 62.9805 116.421 62.9987 116.566 63.0352C116.712 63.0716 116.922 63.1628 117.195 63.3086C117.469 63.4544 117.66 63.5729 117.77 63.6641L117.934 63.8555C117.934 63.9831 117.861 64.0833 117.715 64.1562C117.569 64.2474 117.323 64.293 116.977 64.293L116.074 64.3203L115.145 64.4023L114.844 66.8359L115.145 67.1641C115.108 67.2734 115.035 67.3464 114.926 67.3828C114.816 67.4193 114.561 67.4466 114.16 67.4648L112.902 67.5469C113.085 67.638 113.24 67.7292 113.367 67.8203C113.495 67.9115 113.549 68.0664 113.531 68.2852L113.395 69.1055L114.379 68.9961L114.789 68.9141L115.363 68.7773L115.582 68.7227L115.992 68.7773ZM113.367 69.9258L113.312 72.0039L114.762 71.8398L115.09 70.0898L114.926 69.7891C114.743 69.7708 114.598 69.7708 114.488 69.7891L113.367 69.9258ZM112.191 70.0352L110.031 70.3086L110.277 72.3867L112.109 72.168L112.191 70.0352ZM111.398 64.8672L111.48 66.8359L113.613 66.5898L113.777 64.5117L112.684 64.6758L112.246 64.7305L111.398 64.8672ZM123.184 75.3672C122.71 74.8021 122.336 74.3372 122.062 73.9727C121.789 73.6081 121.561 73.3529 121.379 73.207C121.197 73.0612 121.014 72.9701 120.832 72.9336L120.477 72.4961C120.641 72.3867 120.814 72.332 120.996 72.332C121.215 72.3503 121.397 72.3958 121.543 72.4688C121.689 72.5417 121.862 72.6693 122.062 72.8516C122.263 73.0339 122.427 73.1979 122.555 73.3438L123.539 74.5195C123.667 74.0456 123.767 73.6445 123.84 73.3164C123.895 73.0065 123.949 72.6146 124.004 72.1406L124.059 71.5117C123.822 71.5664 123.612 71.5938 123.43 71.5938L122.664 71.5664C122.609 71.8581 122.491 72.0221 122.309 72.0586C122.181 72.0586 122.053 71.9857 121.926 71.8398C121.78 71.6576 121.689 71.3932 121.652 71.0469L121.297 67.793C121.242 67.4648 121.178 67.1732 121.105 66.918C121.014 66.6263 120.914 66.4167 120.805 66.2891L120.477 65.7969C120.531 65.6875 120.668 65.6328 120.887 65.6328C121.051 65.651 121.306 65.7148 121.652 65.8242L124.223 65.6328C124.186 65.1406 124.15 64.7305 124.113 64.4023C124.077 64.0924 124.04 63.8646 124.004 63.7188L123.785 63.0898C123.402 63.1445 123.074 63.1719 122.801 63.1719C122.509 63.1536 122.272 63.1263 122.09 63.0898C121.889 63.0352 121.707 62.9531 121.543 62.8438L121.324 62.5977L121.379 62.4336L121.762 62.3789L122.883 62.2422C123.32 62.1875 123.785 62.1237 124.277 62.0508C124.788 61.9779 125.234 61.9049 125.617 61.832C126.018 61.7409 126.355 61.6589 126.629 61.5859L127.148 61.4492C127.367 61.4492 127.559 61.4766 127.723 61.5312C127.905 61.5859 128.133 61.668 128.406 61.7773L128.789 62.0781L128.707 62.3242L127.859 62.543C127.695 62.5977 127.367 62.6523 126.875 62.707L126.137 62.7891L125.152 62.9805C125.462 63.0716 125.663 63.1628 125.754 63.2539L125.891 63.5L125.699 64.3477L125.672 65.3594C126.018 65.3047 126.319 65.2591 126.574 65.2227C126.829 65.1862 127.057 65.1406 127.258 65.0859C127.458 65.0312 127.686 64.9492 127.941 64.8398L128.324 64.6484L128.543 64.5664C128.725 64.5664 128.926 64.6211 129.145 64.7305C129.382 64.8398 129.628 64.9948 129.883 65.1953C130.12 65.3958 130.247 65.569 130.266 65.7148C130.266 65.8424 130.238 65.9701 130.184 66.0977L129.91 66.5352C129.837 66.681 129.764 66.8451 129.691 67.0273L129.309 68.4492C129.126 69.1419 128.971 69.7617 128.844 70.3086C128.734 70.8372 128.616 71.1927 128.488 71.375C128.342 71.5755 128.169 71.7122 127.969 71.7852L127.723 71.7305L127.176 71.3477L126.055 71.4023H125.426L125.316 72.2773C125.28 72.569 125.189 73.0247 125.043 73.6445C124.897 74.2643 124.788 74.6471 124.715 74.793L124.441 75.5586L125.754 76.7891C126.191 77.1354 126.729 77.4909 127.367 77.8555C128.023 78.2018 128.598 78.457 129.09 78.6211C129.564 78.8034 130.083 78.9674 130.648 79.1133L131.66 79.3867L132.098 79.7422L131.688 79.9336L131.004 80.0703L130.184 80.3164C130.02 80.3529 129.728 80.3984 129.309 80.4531C128.871 80.5078 128.579 80.5352 128.434 80.5352C127.996 80.5352 127.613 80.444 127.285 80.2617C126.939 80.0794 126.538 79.6966 126.082 79.1133L124.605 77.2266L123.949 76.4062C123.493 76.9349 123.111 77.3268 122.801 77.582C122.509 77.8372 122.126 78.0924 121.652 78.3477C121.197 78.6029 120.814 78.7669 120.504 78.8398L119.547 79.0039C119.529 78.8945 119.592 78.7852 119.738 78.6758L120.066 78.5117C120.285 78.3841 120.613 78.1562 121.051 77.8281C121.452 77.5182 121.798 77.1992 122.09 76.8711C122.382 76.543 122.637 76.2057 122.855 75.8594L123.184 75.3672ZM124.223 66.4258L123.922 66.4805L122.309 66.6172L122.445 68.3672L123.184 68.2852L124.277 68.1211L124.223 66.4258ZM124.168 70.6094C124.168 70.1172 124.177 69.8164 124.195 69.707L124.223 69.0234C123.913 69.0599 123.612 69.0781 123.32 69.0781L122.473 68.9414L122.637 70.6914L124.168 70.6094ZM125.48 70.5C125.772 70.4818 126.009 70.4635 126.191 70.4453C126.392 70.4271 126.592 70.418 126.793 70.418L127.23 70.5547L127.832 68.4766L127.012 68.6953L125.59 68.8594L125.48 70.5ZM125.645 67.8477C126.1 67.7383 126.401 67.6836 126.547 67.6836L127.941 68.0664L128.16 66.8633L128.188 66.5625L128.16 66.3164L127.941 65.9883C127.777 65.9701 127.604 65.9792 127.422 66.0156L125.645 66.2617V67.8477ZM182.492 68.4219C182.747 68.6406 182.875 68.9961 182.875 69.4883C182.839 69.7617 182.72 69.8893 182.52 69.8711C182.283 69.8893 181.991 69.7435 181.645 69.4336C181.499 69.2695 181.198 69.0143 180.742 68.668C180.305 68.3034 179.913 68.0117 179.566 67.793C179.038 68.2669 178.4 68.7227 177.652 69.1602C176.923 69.5977 176.34 69.8164 175.902 69.8164C175.72 69.8164 175.629 69.7617 175.629 69.6523C175.629 69.6159 175.839 69.4701 176.258 69.2148C176.75 68.9414 177.233 68.6224 177.707 68.2578C178.163 67.9115 178.536 67.5924 178.828 67.3008L178.199 66.9453C177.78 66.6719 177.507 66.5078 177.379 66.4531C176.832 66.1068 176.559 65.888 176.559 65.7969C176.559 65.7422 176.65 65.7148 176.832 65.7148C176.978 65.6966 177.315 65.806 177.844 66.043L179.375 66.7539L179.785 66.3164C179.84 66.2435 179.904 66.1706 179.977 66.0977C180.049 66.0247 180.122 65.9427 180.195 65.8516C180.469 65.5052 180.688 65.2135 180.852 64.9766C181.034 64.7214 181.134 64.5299 181.152 64.4023C181.152 64.3294 181.089 64.293 180.961 64.293C180.779 64.293 180.387 64.3385 179.785 64.4297L179.129 64.5117C178.618 64.5846 178.19 64.6667 177.844 64.7578C177.643 64.7943 177.47 64.849 177.324 64.9219C177.27 64.9401 177.188 64.9492 177.078 64.9492C176.969 64.9492 176.887 64.9492 176.832 64.9492C176.777 64.931 176.732 64.8945 176.695 64.8398C176.659 64.8034 176.604 64.7396 176.531 64.6484C176.44 64.5026 176.395 64.3841 176.395 64.293C176.395 64.2565 176.467 64.1654 176.613 64.0195L177.133 63.418C177.26 63.2539 177.415 62.9987 177.598 62.6523C177.78 62.2878 177.88 62.0052 177.898 61.8047C177.898 61.75 177.935 61.7227 178.008 61.7227C178.172 61.7227 178.363 61.8138 178.582 61.9961C178.673 62.069 178.746 62.151 178.801 62.2422C178.874 62.3333 178.91 62.4062 178.91 62.4609C178.91 62.5339 178.865 62.6159 178.773 62.707C178.682 62.7982 178.473 63.0716 178.145 63.5273L177.762 64.0195L179.348 63.7461C180.022 63.6914 180.523 63.6185 180.852 63.5273L181.262 63.4727C181.353 63.4544 181.462 63.4453 181.59 63.4453C181.717 63.4453 181.927 63.582 182.219 63.8555C182.328 63.9466 182.401 64.0286 182.438 64.1016C182.492 64.1562 182.52 64.2201 182.52 64.293C182.52 64.3659 182.501 64.4388 182.465 64.5117C182.428 64.5664 182.392 64.6211 182.355 64.6758C182.173 64.8581 181.909 65.1953 181.562 65.6875C181.271 66.1068 180.842 66.6172 180.277 67.2188L180.961 67.5469C181.836 67.9844 182.346 68.276 182.492 68.4219ZM182.164 77.6641C182.201 77.737 182.264 77.8464 182.355 77.9922C182.447 78.138 182.492 78.3112 182.492 78.5117C182.492 78.694 182.419 78.8398 182.273 78.9492C182.128 79.0768 181.964 79.1406 181.781 79.1406C181.617 79.1406 181.48 78.9766 181.371 78.6484C181.316 78.5208 181.271 78.4206 181.234 78.3477C181.216 78.2565 181.198 78.1836 181.18 78.1289C180.943 78.2018 180.633 78.2656 180.25 78.3203C179.867 78.375 179.594 78.4206 179.43 78.457C178.555 78.6211 177.953 78.7396 177.625 78.8125C177.497 78.849 177.361 78.8945 177.215 78.9492C177.069 78.9857 176.987 79.013 176.969 79.0312C176.859 79.0677 176.777 79.0859 176.723 79.0859C176.577 79.0859 176.44 79.0221 176.312 78.8945C176.094 78.7305 175.93 78.5117 175.82 78.2383C175.802 78.2201 175.793 78.1927 175.793 78.1562C175.793 78.1198 175.839 78.0742 175.93 78.0195C176.039 77.9648 176.121 77.9284 176.176 77.9102C176.413 77.7826 176.832 77.3997 177.434 76.7617L178.172 76.0508L176.559 75.1758C176.376 75.1211 176.258 75.0573 176.203 74.9844C176.148 74.9115 176.121 74.8021 176.121 74.6562C176.121 74.5469 176.139 74.474 176.176 74.4375C176.23 74.3828 176.34 74.3008 176.504 74.1914C176.668 74.082 176.832 73.9362 176.996 73.7539C177.087 73.6445 177.206 73.526 177.352 73.3984C177.497 73.2708 177.634 73.1341 177.762 72.9883C178.309 72.3503 178.655 71.849 178.801 71.4844C178.892 71.3021 178.965 71.2109 179.02 71.2109C179.056 71.2109 179.129 71.2474 179.238 71.3203C179.585 71.5755 179.794 71.8125 179.867 72.0312V72.1133C179.867 72.2044 179.822 72.2773 179.73 72.332C179.639 72.3867 179.576 72.4323 179.539 72.4688C179.484 72.5052 179.211 72.7695 178.719 73.2617L178.227 73.7539C178.135 73.8451 177.98 74 177.762 74.2188C177.543 74.4193 177.434 74.5378 177.434 74.5742C177.434 74.6289 177.461 74.6745 177.516 74.7109C177.589 74.7474 177.643 74.7839 177.68 74.8203L178.828 75.3672C179.539 74.6562 179.949 74.237 180.059 74.1094C180.533 73.5625 180.797 73.2161 180.852 73.0703C180.87 73.0521 180.897 73.0065 180.934 72.9336C180.97 72.8607 181.007 72.8242 181.043 72.8242C181.098 72.8242 181.152 72.8516 181.207 72.9062C181.499 73.1797 181.708 73.4349 181.836 73.6719C181.872 73.7448 181.891 73.7904 181.891 73.8086C181.891 73.8451 181.845 73.8997 181.754 73.9727C181.681 74.0273 181.608 74.082 181.535 74.1367C180.897 74.6654 180.15 75.3581 179.293 76.2148L177.625 77.7734C177.589 77.8099 177.57 77.8464 177.57 77.8828C177.57 77.9193 177.589 77.9466 177.625 77.9648C177.661 77.9831 177.716 77.9831 177.789 77.9648L180.988 77.418C180.897 77.0534 180.788 76.6888 180.66 76.3242V76.2695C180.66 76.2148 180.688 76.1875 180.742 76.1875C180.815 76.1875 180.924 76.2422 181.07 76.3516C181.362 76.6068 181.727 77.0443 182.164 77.6641ZM184.242 69.2695C184.333 69.2695 184.47 69.3333 184.652 69.4609C184.634 69.4974 184.671 69.5703 184.762 69.6797C184.853 69.7708 184.917 69.8346 184.953 69.8711C185.044 69.9622 185.135 70.0716 185.227 70.1992C185.336 70.3268 185.454 70.4635 185.582 70.6094C185.91 70.9557 186.667 71.8581 187.852 73.3164C188.052 73.6081 188.152 73.7812 188.152 73.8359C188.152 74.0182 188.043 74.1094 187.824 74.1094C187.697 74.1094 187.56 74.0182 187.414 73.8359C187.068 73.4714 186.448 72.8971 185.555 72.1133C184.862 71.4753 184.233 70.9831 183.668 70.6367C183.395 70.5091 183.258 70.3633 183.258 70.1992C183.258 70.0716 183.395 69.8893 183.668 69.6523C183.923 69.3971 184.115 69.2695 184.242 69.2695ZM154.82 68.4219C155.148 68.0026 155.404 67.6654 155.586 67.4102C155.768 67.1367 155.923 66.8815 156.051 66.6445C156.178 66.3893 156.306 66.0977 156.434 65.7695C156.561 65.4414 156.643 65.1497 156.68 64.8945C156.734 64.6393 156.826 64.4753 156.953 64.4023C157.099 64.3841 157.281 64.4206 157.5 64.5117C157.755 64.6393 157.974 64.7852 158.156 64.9492C158.339 65.0951 158.493 65.2773 158.621 65.4961L158.785 65.9336C158.767 66.0612 158.694 66.1706 158.566 66.2617L157.773 66.6992L157.008 67.3008L156.051 68.0391C155.741 68.276 155.531 68.4219 155.422 68.4766L154.793 68.832C154.738 69.4518 154.693 70.0352 154.656 70.582C154.62 71.1289 154.574 71.6576 154.52 72.168C154.465 72.6784 154.401 73.0612 154.328 73.3164L154.055 74.5195C154.383 74.5924 154.602 74.6562 154.711 74.7109C154.857 74.7474 155.176 74.875 155.668 75.0938C156.178 75.3307 156.534 75.5221 156.734 75.668C156.953 75.8138 157.108 76.0326 157.199 76.3242C157.272 76.5247 157.299 76.7799 157.281 77.0898C157.227 77.3633 157.145 77.5547 157.035 77.6641C156.926 77.7917 156.78 77.8646 156.598 77.8828C156.452 77.8828 156.279 77.7734 156.078 77.5547L155.695 77.0352L154 74.8203L153.398 76.3789C153.198 76.8529 152.924 77.3451 152.578 77.8555C152.25 78.3841 151.895 78.8398 151.512 79.2227L150.391 80.2617C150.026 80.5716 149.734 80.7904 149.516 80.918L148.75 81.0273L149.133 80.5625C149.661 79.9974 150.135 79.4232 150.555 78.8398C150.956 78.2565 151.293 77.6823 151.566 77.1172C151.84 76.5521 152.077 75.987 152.277 75.4219C152.478 74.8568 152.669 74.1732 152.852 73.3711C152.997 72.569 153.116 71.8034 153.207 71.0742C153.28 70.3633 153.335 69.4518 153.371 68.3398C153.389 67.2461 153.398 66.2617 153.398 65.3867C153.398 64.1107 153.362 63.1445 153.289 62.4883C153.216 61.7956 153.116 61.3307 152.988 61.0938L152.797 60.6562L152.852 60.3555C152.961 60.2461 153.107 60.1914 153.289 60.1914C153.581 60.1914 153.9 60.237 154.246 60.3281C154.592 60.4375 154.875 60.5742 155.094 60.7383C155.331 60.8841 155.458 61.0391 155.477 61.2031L155.34 61.668C155.285 61.8138 155.221 62.1055 155.148 62.543C155.076 62.9622 155.039 63.2448 155.039 63.3906L154.875 66.8633L154.82 68.4219ZM149.57 67.875L150.008 68.0117C150.299 68.1211 150.564 68.2487 150.801 68.3945C151.056 68.5404 151.293 68.7409 151.512 68.9961C151.73 69.2513 151.876 69.5247 151.949 69.8164C151.986 69.9987 152.004 70.181 152.004 70.3633C152.004 70.4909 151.995 70.6276 151.977 70.7734C151.94 71.0104 151.867 71.2018 151.758 71.3477C151.648 71.4935 151.503 71.5846 151.32 71.6211C151.138 71.6211 150.919 71.4844 150.664 71.2109C150.536 71.0833 150.391 70.8828 150.227 70.6094C150.062 70.3359 149.917 70.0716 149.789 69.8164C149.643 69.543 149.516 69.2695 149.406 68.9961L149.133 68.3125L149.215 67.9023C149.361 67.8659 149.479 67.8568 149.57 67.875ZM159.688 70.4453L161.164 70.0352C161.492 69.9258 161.811 69.7982 162.121 69.6523L162.641 69.3789C162.786 69.3789 162.996 69.4245 163.27 69.5156C163.525 69.6068 163.716 69.6888 163.844 69.7617C163.99 69.8164 164.154 69.9076 164.336 70.0352C164.518 70.1445 164.618 70.263 164.637 70.3906C164.637 70.5182 164.555 70.7005 164.391 70.9375C164.245 71.138 164.135 71.3112 164.062 71.457C163.971 71.6029 163.889 71.7852 163.816 72.0039L163.188 73.918C163.297 73.9909 163.406 74.0729 163.516 74.1641L163.652 74.4102C163.634 74.5742 163.479 74.6745 163.188 74.7109L162.75 74.7383L159.578 75.3945C159.578 75.8867 159.569 76.3698 159.551 76.8438V77.9375C159.569 78.3932 159.642 78.776 159.77 79.0859C159.897 79.3776 160.098 79.6419 160.371 79.8789C160.645 80.0977 161.137 80.2891 161.848 80.4531C162.559 80.6172 163.333 80.7083 164.172 80.7266C164.445 80.7448 164.719 80.7539 164.992 80.7539C165.521 80.7539 166.068 80.7266 166.633 80.6719C167.508 80.5807 168.255 80.444 168.875 80.2617C169.513 80.043 169.978 79.7695 170.27 79.4414C170.579 79.1133 170.789 78.7578 170.898 78.375C171.044 77.9922 171.163 77.5091 171.254 76.9258L171.445 75.668L171.609 75.2852C171.755 75.2852 171.846 75.3945 171.883 75.6133L172.156 76.8164C172.229 77.2904 172.302 77.6276 172.375 77.8281C172.448 78.0286 172.539 78.2565 172.648 78.5117C172.758 78.7487 172.885 78.9583 173.031 79.1406C173.177 79.3047 173.286 79.4779 173.359 79.6602C173.359 79.8424 173.132 80.1341 172.676 80.5352C172.329 80.8268 171.883 81.1094 171.336 81.3828C170.789 81.6562 170.115 81.875 169.312 82.0391C168.474 82.2031 167.581 82.3034 166.633 82.3398C166.305 82.3581 165.967 82.3672 165.621 82.3672C165.129 82.3672 164.646 82.349 164.172 82.3125C163.37 82.2578 162.641 82.1393 161.984 81.957C161.346 81.793 160.79 81.5833 160.316 81.3281C159.861 81.0547 159.496 80.763 159.223 80.4531C158.949 80.1432 158.758 79.7878 158.648 79.3867C158.539 78.9857 158.475 78.5664 158.457 78.1289C158.439 77.6914 158.43 77.3451 158.43 77.0898L158.539 74.7383L158.594 72.4688C158.594 71.7943 158.548 71.3021 158.457 70.9922C158.384 70.7552 158.348 70.5547 158.348 70.3906L158.566 70.0898C158.694 70.0716 158.812 70.0898 158.922 70.1445L159.688 70.4453ZM159.633 74.3828C160.544 74.2188 161.146 74.0729 161.438 73.9453L161.957 73.7539L162.367 71.7578C162.44 71.4479 162.467 71.1654 162.449 70.9102C162.34 70.7643 162.176 70.6914 161.957 70.6914L161.492 70.7461C161.201 70.8008 160.945 70.8646 160.727 70.9375L160.152 71.1289L159.906 71.8398C159.833 72.0586 159.797 72.2773 159.797 72.4961L159.633 74.3828ZM161.711 66.043C162.221 65.9701 162.632 65.9062 162.941 65.8516C163.251 65.7969 163.68 65.6966 164.227 65.5508L165.867 65.168C166.596 64.9857 167.161 64.8125 167.562 64.6484C167.945 64.4844 168.219 64.4023 168.383 64.4023C168.565 64.4206 168.729 64.4844 168.875 64.5938C169.057 64.6849 169.276 64.8307 169.531 65.0312C169.823 65.2135 170.014 65.3776 170.105 65.5234C170.197 65.6693 170.242 65.8333 170.242 66.0156L170.078 66.4258C169.969 66.6445 169.896 66.8997 169.859 67.1914L169.641 68.2305C169.549 68.668 169.44 69.3151 169.312 70.1719C169.203 71.0286 169.112 71.612 169.039 71.9219C168.984 72.25 168.902 72.6419 168.793 73.0977C168.684 73.5534 168.556 73.9453 168.41 74.2734C168.283 74.6016 168.091 74.9297 167.836 75.2578C167.617 75.5677 167.362 75.7865 167.07 75.9141L166.688 76.0234H166.469C166.323 75.9505 166.186 75.7773 166.059 75.5039C165.931 75.2122 165.776 74.9388 165.594 74.6836C165.411 74.4284 165.238 74.2096 165.074 74.0273L164.719 73.3438H164.938L165.539 73.5352C165.831 73.6628 166.113 73.7539 166.387 73.8086C166.624 73.7721 166.824 73.6263 166.988 73.3711C167.152 73.1159 167.289 72.724 167.398 72.1953C167.544 71.6667 167.672 71.0833 167.781 70.4453C167.891 69.8073 167.964 69.2604 168 68.8047C168.036 68.3307 168.082 67.7383 168.137 67.0273C168.137 66.5169 168.091 66.207 168 66.0977C167.872 65.9518 167.617 65.8607 167.234 65.8242C166.906 65.8242 166.387 65.9154 165.676 66.0977C164.965 66.2799 164.409 66.4349 164.008 66.5625C163.607 66.6901 163.242 66.8268 162.914 66.9727L162.34 67.1914L161.93 67.082L161.273 66.8086C161.036 67.1367 160.836 67.401 160.672 67.6016C160.49 67.8203 160.253 68.0846 159.961 68.3945C159.669 68.6862 159.451 68.8958 159.305 69.0234L158.867 69.3789L158.539 69.4336C158.539 69.2878 158.576 69.151 158.648 69.0234L158.922 68.5859L159.414 67.793C159.56 67.5195 159.76 67.1185 160.016 66.5898L160.754 64.9492C160.991 64.4206 161.191 63.8919 161.355 63.3633C161.52 62.8529 161.656 62.4062 161.766 62.0234C161.839 61.6406 161.911 61.2852 161.984 60.957C162.039 60.6654 162.066 60.401 162.066 60.1641L162.094 59.6992C162.185 59.5898 162.312 59.526 162.477 59.5078C162.677 59.5078 162.969 59.6263 163.352 59.8633C163.753 60.082 164.044 60.2917 164.227 60.4922C164.372 60.6562 164.445 60.8477 164.445 61.0664L164.227 61.3945C164.081 61.5586 163.944 61.7591 163.816 61.9961C163.689 62.2148 163.57 62.4518 163.461 62.707L162.941 63.7461C162.704 64.2383 162.513 64.612 162.367 64.8672L161.711 66.043Z" fill="#333333"/>
</svg>
