<svg width="252" height="84" viewBox="0 0 252 84" fill="none" xmlns="http://www.w3.org/2000/svg">
<path d="M109.934 7.49609C109.77 7.49609 109.852 7.35547 110.18 7.07422C110.508 6.79297 110.906 6.45313 111.375 6.05469C111.844 5.63281 112.371 5.08203 112.957 4.40234C113.332 3.95703 113.613 3.48828 113.801 2.99609C113.918 2.71484 114.047 2.57422 114.188 2.57422C114.305 2.57422 114.48 2.66797 114.715 2.85547C115.184 3.23047 115.418 3.54687 115.418 3.80469C115.418 3.96875 115.324 4.08594 115.137 4.15625C115.043 4.17969 114.902 4.28516 114.715 4.47266C114.527 4.63672 114.387 4.76563 114.293 4.85938C113.285 5.84375 112.348 6.55859 111.48 7.00391C110.777 7.33203 110.309 7.49609 110.074 7.49609H109.934ZM113.625 14.0352C113.555 14.0352 113.438 13.9414 113.273 13.7539C113.133 13.543 113.027 13.3438 112.957 13.1562C112.934 13.0156 112.934 12.8398 112.957 12.6289C113.004 12.3945 113.027 12.2188 113.027 12.1016C113.074 11.6328 113.098 11.2578 113.098 10.9766C113.121 10.7187 113.121 10.4375 113.098 10.1328C113.098 9.82813 113.098 9.62891 113.098 9.53516L113.062 9.00781C112.5 9.40625 112.066 9.6875 111.762 9.85156C111.082 10.2266 110.59 10.4609 110.285 10.5547C109.91 10.6953 109.57 10.7656 109.266 10.7656C109.102 10.7656 109.008 10.7422 108.984 10.6953C108.938 10.6016 109.406 10.2617 110.391 9.67578C111.328 9.08984 112.348 8.31641 113.449 7.35547C114.059 6.79297 114.527 6.25391 114.855 5.73828C114.902 5.66797 114.938 5.58594 114.961 5.49219C115.008 5.375 115.055 5.30469 115.102 5.28125C115.172 5.25781 115.266 5.26953 115.383 5.31641C115.688 5.48047 115.945 5.71484 116.156 6.01953C116.25 6.13672 116.297 6.25391 116.297 6.37109C116.297 6.48828 116.238 6.60547 116.121 6.72266C116.004 6.81641 115.887 6.88672 115.77 6.93359C115.371 7.19141 115.008 7.47266 114.68 7.77734C114.352 8.08203 114.141 8.28125 114.047 8.375C114.398 8.65625 114.574 8.85547 114.574 8.97266L114.469 9.71094C114.422 9.92188 114.398 10.4492 114.398 11.293C114.398 12.1133 114.422 12.6641 114.469 12.9453V13.0156C114.469 13.1328 114.434 13.2617 114.363 13.4023C114.316 13.5195 114.281 13.6016 114.258 13.6484C114.094 13.9063 113.883 14.0352 113.625 14.0352ZM117.211 22.9648C116.859 22.9648 116.52 22.707 116.191 22.1914C115.77 21.5352 115.359 20.9961 114.961 20.5742L114.047 19.625C113.555 20.1875 113.121 20.6328 112.746 20.9609C112.395 21.2891 111.949 21.6055 111.41 21.9102C110.402 22.4961 109.559 22.7891 108.879 22.7891C108.715 22.7891 108.633 22.7305 108.633 22.6133C108.633 22.543 108.855 22.3906 109.301 22.1562C109.746 21.9219 110.168 21.6406 110.566 21.3125C111.574 20.4688 112.406 19.6016 113.062 18.7109C112.922 18.5703 112.219 17.9609 110.953 16.8828C110.789 16.7656 110.543 16.5664 110.215 16.2852C110.145 16.2383 110.004 16.1328 109.793 15.9688C109.582 15.8047 109.477 15.6875 109.477 15.6172C109.477 15.5 109.535 15.4414 109.652 15.4414C110.004 15.4414 110.566 15.6875 111.34 16.1797C112.113 16.6484 112.922 17.2109 113.766 17.8672C114.094 17.4688 114.352 17.0938 114.539 16.7422C114.727 16.3906 114.938 15.957 115.172 15.4414C115.289 15.1836 115.359 14.9609 115.383 14.7734C115.406 14.5625 115.418 14.4336 115.418 14.3867C115.418 14.1289 115.488 14 115.629 14C115.793 14 116.016 14.1289 116.297 14.3867C116.789 14.8555 117.035 15.1719 117.035 15.3359C117.035 15.4297 116.977 15.5352 116.859 15.6523C116.578 15.9336 116.32 16.3086 116.086 16.7773C115.945 17.0586 115.688 17.457 115.312 17.9727C115.195 18.1133 115.102 18.2422 115.031 18.3594C114.961 18.4766 114.891 18.582 114.82 18.6758C115.359 19.0742 116.156 19.7539 117.211 20.7148C117.469 20.9492 117.633 21.1719 117.703 21.3828C117.797 21.5703 117.844 21.8281 117.844 22.1562C117.844 22.3906 117.785 22.5898 117.668 22.7539C117.551 22.8945 117.398 22.9648 117.211 22.9648ZM117.844 27.6055C118.102 27.8867 118.23 28.1211 118.23 28.3086C118.23 28.4727 118.137 28.625 117.949 28.7656C117.832 28.8594 117.539 29.375 117.07 30.3125C116.555 31.1562 115.98 31.8828 115.348 32.4922C114.738 33.125 114.129 33.582 113.52 33.8633C113.379 33.9102 113.262 33.9336 113.168 33.9336C113.074 33.9336 113.027 33.9102 113.027 33.8633V33.793C113.027 33.6523 113.145 33.4883 113.379 33.3008C113.801 32.9727 114.117 32.6328 114.328 32.2812C114.562 31.9531 114.738 31.707 114.855 31.543C115.348 30.8398 115.699 30.2656 115.91 29.8203C116.145 29.4219 116.309 29.0117 116.402 28.5898H116.262C115.652 28.5898 114.668 28.6602 113.309 28.8008C113.098 28.8242 112.488 28.9062 111.48 29.0469C111.27 29.0703 110.941 29.1289 110.496 29.2227L110.074 29.3281C109.98 29.375 109.887 29.3984 109.793 29.3984C109.676 29.3984 109.559 29.375 109.441 29.3281C109.324 29.2578 109.207 29.1758 109.09 29.082C108.809 28.8477 108.668 28.6484 108.668 28.4844C108.691 28.4375 108.715 28.3672 108.738 28.2734C108.785 28.1797 108.809 28.0977 108.809 28.0273L108.984 26.8672C109.008 26.75 109.031 26.6211 109.055 26.4805C109.078 26.3398 109.09 26.1992 109.09 26.0586C109.09 25.6133 109.078 25.2617 109.055 25.0039C109.055 24.7227 109.02 24.4297 108.949 24.125V24.0195C108.949 23.8555 109.02 23.7734 109.16 23.7734C109.301 23.7734 109.547 23.8789 109.898 24.0898C110.367 24.418 110.602 24.6758 110.602 24.8633C110.602 24.9336 110.59 24.9922 110.566 25.0391C110.543 25.0859 110.52 25.1328 110.496 25.1797C110.426 25.6016 110.391 25.8359 110.391 25.8828L110.215 27.7461C110.215 27.793 110.238 27.8516 110.285 27.9219C110.355 27.9688 110.426 27.9922 110.496 27.9922C111.059 27.9922 112.324 27.8516 114.293 27.5703C115.066 27.5 115.617 27.418 115.945 27.3242C116.156 27.3008 116.332 27.2656 116.473 27.2188C116.637 27.1484 116.742 27.1133 116.789 27.1133C116.93 27.0664 117.023 27.043 117.07 27.043C117.281 27.043 117.539 27.2305 117.844 27.6055ZM84.1289 17.2344L81.7383 17.9023L80.6836 18.1836C79.957 18.3711 79.4766 18.4766 79.2422 18.5C78.9609 18.5 78.7031 18.4766 78.4688 18.4297C78.1641 18.3594 77.8242 18.207 77.4492 17.9727C77.0508 17.7383 76.7578 17.4102 76.5703 16.9883C76.6641 16.8477 76.8398 16.7656 77.0977 16.7422L77.9766 16.707C78.7031 16.6836 79.4766 16.6484 80.2969 16.6016C81.1172 16.5312 81.8555 16.4375 82.5117 16.3203L84.7617 15.9336C85.0898 15.1836 85.2891 14.7148 85.3594 14.5273L85.8164 13.1562C85.4414 13.1797 85.1484 13.2031 84.9375 13.2266C84.7266 13.25 84.375 13.2969 83.8828 13.3672C83.3906 13.4609 82.9922 13.5078 82.6875 13.5078C82.3125 13.5078 82.0195 13.4609 81.8086 13.3672C81.5273 13.25 81.3164 13.1211 81.1758 12.9805L81.0352 12.6641C81.0586 12.5 81.1758 12.418 81.3867 12.418L82.0547 12.3477C82.2188 12.3477 82.6172 12.3125 83.25 12.2422C83.8828 12.1719 84.4805 12.1133 85.043 12.0664L86.2383 11.9258C86.543 10.9883 86.7188 10.4023 86.7656 10.168L87.0469 8.76172C86.1797 8.83203 85.3945 8.91406 84.6914 9.00781C83.9648 9.07812 83.4961 9.11328 83.2852 9.11328H82.7578C82.2891 9.11328 81.9375 9.06641 81.7031 8.97266C81.3984 8.83203 81.1758 8.66797 81.0352 8.48047L80.8945 8.12891L81.1406 7.95312H81.8789L82.8633 7.84766L84.9023 7.70703L87.293 7.35547L87.4336 5.45703V5.10547C87.4336 4.84766 87.4102 4.53125 87.3633 4.15625C87.3164 3.80469 87.2812 3.55859 87.2578 3.41797L87.1172 2.64453L87.4688 2.39844C87.7031 2.375 87.9492 2.41016 88.207 2.50391C88.5352 2.64453 88.8633 2.79688 89.1914 2.96094C89.5195 3.125 89.8008 3.32422 90.0352 3.55859C90.2695 3.79297 90.3867 4.02734 90.3867 4.26172L90.1406 4.75391C89.9766 5.01172 89.8477 5.30469 89.7539 5.63281L89.2617 7.07422L92.1445 6.65234L93.7266 6.30078C94.0078 6.25391 94.2656 6.21875 94.5 6.19531C94.8984 6.19531 95.3203 6.28906 95.7656 6.47656C96.1641 6.61719 96.3633 6.79297 96.3633 7.00391C96.3398 7.23828 96.2461 7.37891 96.082 7.42578L95.3789 7.63672C95.1445 7.68359 94.7461 7.75391 94.1836 7.84766L91.9336 8.19922C91.1367 8.31641 90.4688 8.39844 89.9297 8.44531L88.9805 8.55078C88.7227 9.46484 88.5703 10.0273 88.5234 10.2383L88.1367 11.6445L90.3164 11.2578C90.7852 11.1875 91.3242 11.082 91.9336 10.9414C92.543 10.7773 93.0352 10.6836 93.4102 10.6602C93.7617 10.6602 94.043 10.6836 94.2539 10.7305C94.582 10.7773 94.8867 10.8711 95.168 11.0117L95.625 11.3984C95.625 11.5859 95.4609 11.7266 95.1328 11.8203C94.875 11.8906 94.5234 11.9492 94.0781 11.9961C93.6328 12.043 93.0586 12.1133 92.3555 12.207L90.2109 12.5586L87.8555 12.9102C87.5273 13.8008 87.3281 14.3516 87.2578 14.5625L86.8711 15.6523C87.5742 15.582 88.1016 15.5234 88.4531 15.4766L92.0742 15.1602C92.7305 15.1133 93.4453 15.0195 94.2188 14.8789C94.9922 14.7617 95.6133 14.6445 96.082 14.5273L97.1367 14.2461C97.6055 14.1523 97.9688 14.1055 98.2266 14.1055C98.5312 14.1055 98.8008 14.1523 99.0352 14.2461C99.293 14.3398 99.668 14.4922 100.16 14.7031C100.652 14.9141 100.969 15.1367 101.109 15.3711L101.215 15.9336C101.121 16.1211 100.934 16.2266 100.652 16.25L99.8789 16.2852L97.6992 16.2148C97.3477 16.2148 96.6914 16.2383 95.7305 16.2852L92.918 16.3555H91.6523L92.7773 17.1992L94.8867 18.9922C96.0117 19.9531 97.0195 20.7617 97.9102 21.418C98.8008 22.0742 99.5391 22.5547 100.125 22.8594C100.711 23.1641 101.566 23.5508 102.691 24.0195C103.816 24.4648 104.801 24.793 105.645 25.0039L106.594 25.7422L105.855 25.9531L103.605 26.4102C102.668 26.5977 101.941 26.6914 101.426 26.6914C100.816 26.6211 100.266 26.4219 99.7734 26.0938C99.2812 25.7656 98.8242 25.3789 98.4023 24.9336L95.6602 21.9805C94.3008 20.4805 93.2461 19.3672 92.4961 18.6406C91.793 17.9141 91.2539 17.4336 90.8789 17.1992L89.9297 16.4961C88.875 16.6133 88.2305 16.6836 87.9961 16.707L86.2734 16.918C85.5703 18.2773 84.9961 19.2852 84.5508 19.9414C84.1055 20.5977 83.4961 21.3242 82.7227 22.1211C81.9727 22.9648 81.1875 23.7031 80.3672 24.3359C79.5469 24.9688 78.7852 25.4844 78.082 25.8828C77.332 26.2812 76.5938 26.6211 75.8672 26.9023C75.1406 27.1602 74.6602 27.3242 74.4258 27.3945L73.4062 27.2188L74.2852 26.6562L75.2695 26.0938C75.8789 25.7656 76.5469 25.3438 77.2734 24.8281C78 24.3359 78.7148 23.7734 79.418 23.1406C80.1211 22.5078 80.8828 21.7227 81.7031 20.7852C82.5469 19.8477 83.0977 19.1445 83.3555 18.6758L84.1289 17.2344ZM90.9844 32.3867L88.7344 32.5977C87.7031 32.6914 87.1055 32.7383 86.9414 32.7383L85.2539 32.7734L85.1133 33.3359C84.9727 33.7578 84.8086 33.9688 84.6211 33.9688C84.4336 33.9453 84.2461 33.793 84.0586 33.5117C83.8477 33.207 83.7188 32.8438 83.6719 32.4219C83.6719 32.1172 83.6953 31.8008 83.7422 31.4727C83.7891 31.0273 83.8125 30.5117 83.8125 29.9258L83.6367 24.8633C83.5898 24.207 83.5195 23.7266 83.4258 23.4219C83.3555 23.1172 83.2734 22.8828 83.1797 22.7188L83.0742 22.4023C83.1211 22.2617 83.3438 22.168 83.7422 22.1211L84.7266 22.332L85.8516 22.1914C86.25 22.1445 86.7305 22.0625 87.293 21.9453L89.1914 21.5586C89.8477 21.418 90.3164 21.3008 90.5977 21.207C90.8789 21.1367 91.1602 21.043 91.4414 20.9258L92.1094 20.7148C92.3672 20.6914 92.5898 20.7148 92.7773 20.7852C93.0352 20.8789 93.3164 21.0312 93.6211 21.2422C93.9492 21.4531 94.2305 21.6641 94.4648 21.875L94.8516 22.3672C94.8516 22.5312 94.8164 22.6836 94.7461 22.8242C94.6758 23.0117 94.6172 23.2109 94.5703 23.4219C94.5 23.6328 94.4648 23.832 94.4648 24.0195C94.418 24.207 94.3828 24.582 94.3594 25.1445V25.7422C94.3594 26.1406 94.3711 26.5742 94.3945 27.043C94.418 27.6055 94.4648 28.1914 94.5352 28.8008L94.8164 30.5938C94.9102 31.2031 94.957 31.6602 94.957 31.9648C94.9102 32.5742 94.7344 33.1836 94.4297 33.793C94.1016 34.4023 93.7852 34.7773 93.4805 34.918L92.9531 35.0586C92.6953 35.0352 92.4492 34.8008 92.2148 34.3555C92.0039 33.9336 91.7695 33.5234 91.5117 33.125L90.9844 32.3867ZM85.3242 31.5781C86.3555 31.4609 87.1406 31.3672 87.6797 31.2969L89.5078 31.0508C90.1875 30.9336 90.6445 30.875 90.8789 30.875C91.2539 30.8984 91.5352 30.957 91.7227 31.0508L92.4609 31.4727L92.6367 27.0078C92.1211 27.125 91.7344 27.1953 91.4766 27.2188L89.0508 27.6758C87.9727 27.8633 87.2109 27.9805 86.7656 28.0273L86.3438 28.0625H85.9922L85.2539 27.8867L85.3242 31.5781ZM85.2539 26.9023C85.4883 26.9023 85.6992 26.8906 85.8867 26.8672C86.0742 26.8438 86.5664 26.7617 87.3633 26.6211C88.207 26.457 88.8867 26.3047 89.4023 26.1641C89.9648 26 90.3867 25.918 90.668 25.918C90.9258 25.918 91.1602 25.9297 91.3711 25.9531C91.6758 26 92.0391 26.1055 92.4609 26.2695L92.6367 23.3164C92.6133 22.9414 92.5547 22.6953 92.4609 22.5781C92.3438 22.4609 92.1211 22.3906 91.793 22.3672C91.4883 22.3672 91.1602 22.3789 90.8086 22.4023L89.2617 22.4727C88.8867 22.5195 88.3477 22.6367 87.6445 22.8242C86.9414 22.9883 86.4492 23.1172 86.168 23.2109L85.5352 23.3516L85.3945 23.7031C85.418 23.8438 85.418 24.043 85.3945 24.3008C85.3477 24.5352 85.3242 24.7344 85.3242 24.8984L85.2539 26.9023ZM170.121 13.6836C169.957 13.6836 169.781 13.5781 169.594 13.3672C169.453 13.2031 169.359 13.0742 169.312 12.9805C169.266 12.8633 169.266 12.7109 169.312 12.5234L169.348 11.6797C169.371 11.5156 169.383 11.1172 169.383 10.4844V9.32422L168.328 9.81641L167.098 10.3438C166.793 10.4609 166.477 10.6016 166.148 10.7656C165.867 10.9062 165.621 10.9766 165.41 10.9766C165.246 10.9531 165.059 10.8945 164.848 10.8008C164.637 10.707 164.473 10.625 164.355 10.5547C164.098 10.3906 163.98 10.2148 164.004 10.0273L164.109 9.67578C164.109 9.48828 164.121 9.32422 164.145 9.18359L164.18 7.14453V5.24609C164.18 4.87109 164.156 4.55469 164.109 4.29688C164.062 4.01562 164.027 3.81641 164.004 3.69922C164.004 3.58203 164.039 3.5 164.109 3.45312C164.133 3.42969 164.191 3.41797 164.285 3.41797C164.449 3.41797 164.766 3.52344 165.234 3.73438C165.633 3.92188 165.797 4.15625 165.727 4.4375C165.68 4.60156 165.633 4.84766 165.586 5.17578L165.48 9.21875C165.48 9.33594 165.492 9.42969 165.516 9.5C165.562 9.54688 165.609 9.57031 165.656 9.57031C165.938 9.57031 166.277 9.48828 166.676 9.32422C167.426 9.08984 168.07 8.85547 168.609 8.62109L169.383 8.30469V5.98438C169.383 5.04688 169.324 4.14453 169.207 3.27734C169.184 3.20703 169.172 3.125 169.172 3.03125C169.172 2.79688 169.266 2.67969 169.453 2.67969C169.477 2.67969 169.605 2.72656 169.84 2.82031C170.191 3.00781 170.449 3.17188 170.613 3.3125C170.777 3.45312 170.871 3.53516 170.895 3.55859C170.988 3.62891 171.035 3.69922 171.035 3.76953C171.035 3.81641 171.012 3.875 170.965 3.94531C170.941 4.01562 170.918 4.07422 170.895 4.12109L170.789 5.17578L170.754 8.41016L170.789 11.5391C170.789 12.0781 170.754 12.5469 170.684 12.9453C170.566 13.4375 170.379 13.6836 170.121 13.6836ZM163.652 19.4492C163.395 19.4492 163.078 19.25 162.703 18.8516C162.422 18.5703 162.281 18.3594 162.281 18.2188C162.281 18.1484 162.328 18.1133 162.422 18.1133C162.516 18.0898 162.633 18.0781 162.773 18.0781L163.547 18.043C163.992 18.043 164.285 18.0312 164.426 18.0078C164.871 18.0078 165.246 17.9961 165.551 17.9727C167.566 17.7852 168.926 17.6328 169.629 17.5156C169.98 17.4688 170.297 17.4219 170.578 17.375C170.859 17.3047 171.082 17.2695 171.246 17.2695C171.574 17.2695 171.902 17.4336 172.23 17.7617C172.488 18.0195 172.617 18.2305 172.617 18.3945C172.617 18.5352 172.535 18.6289 172.371 18.6758C172.254 18.6992 171.562 18.7461 170.297 18.8164C169.594 18.8398 168.727 18.8984 167.695 18.9922C166.664 19.0859 165.762 19.1797 164.988 19.2734C164.848 19.2969 164.648 19.332 164.391 19.3789C164.133 19.4258 163.887 19.4492 163.652 19.4492ZM168.363 33.9688C167.637 33.9688 167.074 33.9453 166.676 33.8984C166.301 33.8516 165.984 33.7109 165.727 33.4766C165.281 33.1484 164.977 32.4336 164.812 31.332L164.707 30.207C164.707 29.9258 164.684 29.5742 164.637 29.1523C164.262 29.1992 163.992 29.2461 163.828 29.293C163.781 29.3164 163.699 29.3516 163.582 29.3984C163.488 29.4219 163.418 29.4336 163.371 29.4336C163.207 29.4336 163.055 29.3867 162.914 29.293C162.773 29.1992 162.598 29.0234 162.387 28.7656C162.223 28.5547 162.141 28.4141 162.141 28.3438C162.141 28.2734 162.223 28.2266 162.387 28.2031C162.551 28.1797 162.773 28.168 163.055 28.168C163.453 28.168 163.969 28.1211 164.602 28.0273L164.566 27.5352C164.566 26.5977 164.508 25.8008 164.391 25.1445L164.355 24.8984C164.355 24.5703 164.484 24.4414 164.742 24.5117C165.023 24.6055 165.281 24.7227 165.516 24.8633C165.703 24.957 165.832 25.0508 165.902 25.1445C165.973 25.2148 165.996 25.3203 165.973 25.4609L165.867 26.9727V27.8867L168.961 27.5703C168.961 27.4062 168.973 27.0195 168.996 26.4102C169.02 25.7773 169.02 25.3672 168.996 25.1797C168.996 24.9922 168.973 24.8164 168.926 24.6523C168.902 24.4648 168.879 24.3125 168.855 24.1953C168.855 24.0078 168.949 23.9141 169.137 23.9141C169.324 23.9141 169.559 24.0195 169.84 24.2305C170.168 24.4414 170.379 24.6289 170.473 24.793C170.59 24.957 170.613 25.1562 170.543 25.3906C170.426 25.7656 170.344 26.1875 170.297 26.6562C170.25 27.125 170.227 27.4062 170.227 27.5C170.508 27.4766 170.766 27.4414 171 27.3945C171.234 27.3477 171.387 27.3242 171.457 27.3242C171.645 27.2773 171.867 27.2539 172.125 27.2539C172.266 27.2773 172.465 27.418 172.723 27.6758C172.934 27.957 173.039 28.1797 173.039 28.3438C173.039 28.5781 172.816 28.6719 172.371 28.625C171.973 28.5547 171.574 28.5195 171.176 28.5195C170.777 28.5195 170.438 28.5312 170.156 28.5547C170.086 29.3984 169.945 30.2305 169.734 31.0508C169.688 31.2383 169.605 31.4023 169.488 31.543C169.371 31.6602 169.266 31.7188 169.172 31.7188C169.008 31.7188 168.902 31.6602 168.855 31.543C168.832 31.4023 168.82 31.1914 168.82 30.9102C168.867 30.3008 168.891 29.5391 168.891 28.625C168.258 28.6719 167.766 28.7188 167.414 28.7656C166.875 28.8828 166.371 28.9531 165.902 28.9766C165.879 29.9375 165.926 30.793 166.043 31.543C166.113 32.0352 166.254 32.375 166.465 32.5625C166.605 32.6797 166.77 32.75 166.957 32.7734C167.168 32.7969 167.379 32.8086 167.59 32.8086C167.801 32.8086 167.941 32.8086 168.012 32.8086C168.738 32.8086 169.418 32.7734 170.051 32.7031C170.238 32.6797 170.402 32.6328 170.543 32.5625C170.707 32.4922 170.824 32.457 170.895 32.457C171.105 32.457 171.316 32.5273 171.527 32.668C171.738 32.8086 171.844 32.9727 171.844 33.1602C171.844 33.3477 171.738 33.4883 171.527 33.582C171.34 33.6758 171.035 33.7578 170.613 33.8281C169.863 33.9219 169.113 33.9688 168.363 33.9688ZM178.383 17.9727C178.664 17.9727 178.805 18.1016 178.805 18.3594C178.805 18.5 178.676 18.6992 178.418 18.957C177.715 19.8242 176.32 21.4766 174.234 23.9141C174.07 24.125 173.918 24.2305 173.777 24.2305C173.66 24.2305 173.402 24.0547 173.004 23.7031C172.676 23.4219 172.512 23.1875 172.512 23C172.512 22.7891 172.688 22.5898 173.039 22.4023C173.578 22.0977 174.387 21.4883 175.465 20.5742C176.543 19.6133 177.34 18.8516 177.855 18.2891C178.066 18.0781 178.242 17.9727 178.383 17.9727ZM139.992 26.3398C139.875 26.1523 139.781 25.9883 139.711 25.8477C139.617 25.707 139.523 25.5195 139.43 25.2852V24.4414L140.379 24.6523L141.328 25.0742C141.75 25.2617 142.125 25.4492 142.453 25.6367C142.781 25.8477 143.051 26.1641 143.262 26.5859C143.426 26.9375 143.508 27.3477 143.508 27.8164C143.484 28.2852 143.367 28.6484 143.156 28.9062C142.969 29.1641 142.723 29.293 142.418 29.293C142.113 29.293 141.797 29.1055 141.469 28.7305C141.281 28.543 141.105 28.2734 140.941 27.9219L140.414 27.043L136.617 29.7852L135.352 30.8398L134.508 31.6836L134.086 31.9648C133.852 31.9648 133.617 31.8125 133.383 31.5078C133.172 31.25 132.984 30.9336 132.82 30.5586C132.68 30.2539 132.609 29.9609 132.609 29.6797L132.82 29.0117C132.961 28.6367 133.066 28.25 133.137 27.8516C133.207 27.4297 133.266 26.9492 133.312 26.4102C133.359 25.8945 133.406 25.1445 133.453 24.1602L133.629 18.043C133.629 17.7148 133.617 17.375 133.594 17.0234C133.547 16.6719 133.488 16.3789 133.418 16.1445C133.348 15.9102 133.242 15.6992 133.102 15.5117L132.82 15.2305L132.75 14.8789C132.844 14.7383 133.008 14.668 133.242 14.668C133.805 14.668 134.25 14.7617 134.578 14.9492L135.105 15.2305C135.691 15.1602 136.172 15.0898 136.547 15.0195C136.945 14.9727 137.438 14.8789 138.023 14.7383C138.586 14.5977 139.02 14.4805 139.324 14.3867C139.629 14.293 139.945 14.1758 140.273 14.0352C140.602 13.8945 140.859 13.8242 141.047 13.8242C141.234 13.8477 141.457 13.918 141.715 14.0352L142.453 14.4219L142.91 14.7383C143.332 14.9961 143.602 15.207 143.719 15.3711L143.754 16.0039L143.402 16.5312C143.332 16.6719 143.227 16.9062 143.086 17.2344L142.91 17.7617L142.031 21.0312L141.68 22.4023C141.492 22.8711 141.305 23.1641 141.117 23.2812L140.73 23.4219H140.484L140.027 22.9648C139.395 23.0352 138.914 23.082 138.586 23.1055L136.16 23.457L135.281 23.5273L135.07 27.3945L135.211 28.168C135.398 28.168 135.609 28.1211 135.844 28.0273L139.992 26.3398ZM135.281 22.3672C135.703 22.3438 136.031 22.3203 136.266 22.2969C136.5 22.2734 136.852 22.2031 137.32 22.0859C137.836 21.9688 138.281 21.875 138.656 21.8047C138.938 21.7578 139.195 21.7344 139.43 21.7344L140.098 21.8047L140.695 19.0977C140.109 19.1445 139.676 19.1914 139.395 19.2383L137.707 19.5195C137.215 19.6133 136.816 19.6602 136.512 19.6602L135.949 19.5898L135.422 19.4141L135.281 22.3672ZM135.457 18.6758C135.902 18.6523 136.254 18.6172 136.512 18.5703C136.77 18.5234 137.203 18.418 137.812 18.2539C138.375 18.0898 138.797 17.9961 139.078 17.9727C139.477 17.9727 139.863 18.043 140.238 18.1836L140.801 18.3945L140.977 17.3047C141.023 17 141.047 16.6602 141.047 16.2852C141.047 15.9102 140.988 15.6641 140.871 15.5469C140.754 15.4297 140.59 15.3711 140.379 15.3711C140.145 15.3945 139.852 15.4531 139.5 15.5469C139.172 15.6172 138.633 15.7227 137.883 15.8633C137.109 16.0039 136.617 16.0742 136.406 16.0742L135.668 16.1094L135.457 18.6758ZM148.148 17.1992C148.055 17.5742 147.996 17.8555 147.973 18.043C147.949 18.2305 147.914 18.5352 147.867 18.957C147.82 19.3789 147.797 19.7305 147.797 20.0117L147.691 27.1133C147.668 28.0977 147.586 29.2461 147.445 30.5586L147.305 32.0703C147.211 32.9844 147.047 33.7695 146.812 34.4258C146.578 35.0586 146.367 35.375 146.18 35.375C146.016 35.3516 145.875 35.0117 145.758 34.3555C145.641 33.7227 145.57 32.9844 145.547 32.1406C145.523 31.5781 145.512 31.0156 145.512 30.4531V29.5742L145.652 20.3633C145.676 19.7539 145.688 19.2617 145.688 18.8867C145.688 18.5117 145.676 18.2539 145.652 18.1133C145.629 17.8086 145.594 17.457 145.547 17.0586C145.5 16.6602 145.418 16.332 145.301 16.0742L145.16 15.3711L145.336 15.1602C145.547 15.1602 145.805 15.207 146.109 15.3008C146.719 15.4883 147.117 15.6406 147.305 15.7578L147.867 16.1094L149.59 15.7227C150.176 15.582 150.773 15.418 151.383 15.2305L152.156 15.0195C152.531 14.9023 152.859 14.7734 153.141 14.6328L153.633 14.457C153.797 14.457 153.996 14.5273 154.23 14.668C154.465 14.8086 154.711 14.9727 154.969 15.1602C155.25 15.3477 155.52 15.5586 155.777 15.793C155.988 15.9805 156.059 16.2617 155.988 16.6367C155.801 16.8945 155.672 17.1289 155.602 17.3398C155.555 17.5508 155.508 17.832 155.461 18.1836C155.414 18.5586 155.391 18.9453 155.391 19.3438L155.18 23.1055C155.133 24.043 155.062 24.7695 154.969 25.2852C154.898 25.8008 154.746 26.2578 154.512 26.6562C154.254 27.0547 153.961 27.3711 153.633 27.6055L153 27.8867C152.812 27.8398 152.625 27.6992 152.438 27.4648C152.227 27.207 151.934 26.8789 151.559 26.4805C151.207 26.0586 150.867 25.6836 150.539 25.3555L149.906 24.793L149.695 24.3008C149.836 24.2773 150 24.3008 150.188 24.3711L150.996 24.6172C151.465 24.7812 151.828 24.875 152.086 24.8984C152.297 24.8984 152.473 24.8633 152.613 24.793C152.824 24.6523 152.953 24.3477 153 23.8789C153.07 23.3633 153.117 22.8711 153.141 22.4023L153.281 17.832C153.281 17.293 153.258 16.9414 153.211 16.7773L153.07 16.4961C152.93 16.3555 152.719 16.2852 152.438 16.2852C152.203 16.2852 151.805 16.332 151.242 16.4258L149.66 16.7422L148.148 17.1992ZM148.852 6.40625L153.281 5.52734C153.516 5.48047 153.773 5.41016 154.055 5.31641L154.688 5.17578C154.992 5.15234 155.25 5.16406 155.461 5.21094C155.742 5.28125 156.035 5.41016 156.34 5.59766L156.832 5.94922C156.855 6.08984 156.773 6.25391 156.586 6.44141C156.398 6.58203 156.129 6.6875 155.777 6.75781L154.477 7.00391C154.102 7.05078 153.574 7.12109 152.895 7.21484C152.215 7.28516 151.605 7.35547 151.066 7.42578C150.527 7.51953 150.164 7.56641 149.977 7.56641C149.602 7.56641 149.238 7.51953 148.887 7.42578L148.289 7.32031L147.27 8.72656C146.871 9.24219 146.391 9.76953 145.828 10.3086C145.219 10.8711 144.82 11.2109 144.633 11.3281L144 11.7148L143.578 11.8555L143.332 11.6797L143.578 11.293L144.352 10.3086C144.68 9.91016 144.949 9.55859 145.16 9.25391C145.371 8.92578 145.617 8.51562 145.898 8.02344C146.203 7.53125 146.449 7.09766 146.637 6.72266C146.801 6.37109 146.953 6.01953 147.094 5.66797C147.234 5.29297 147.34 4.98828 147.41 4.75391C147.48 4.49609 147.562 4.23828 147.656 3.98047C147.703 3.69922 147.727 3.44141 147.727 3.20703L147.938 2.64453L148.184 2.53906C148.348 2.53906 148.535 2.58594 148.746 2.67969C149.027 2.79688 149.32 2.94922 149.625 3.13672C149.93 3.32422 150.164 3.52344 150.328 3.73438L150.539 4.15625L150.469 4.47266C150.352 4.58984 150.188 4.75391 149.977 4.96484C149.742 5.19922 149.531 5.43359 149.344 5.66797L148.852 6.40625ZM137.25 7.28516L138.234 7.10938C138.656 7.03906 139.324 6.86328 140.238 6.58203L140.766 6.40625L141.645 6.16016L142.172 6.26562C142.453 6.33594 142.664 6.39453 142.805 6.44141C142.945 6.51172 143.086 6.60547 143.227 6.72266L143.473 6.96875C143.496 7.13281 143.438 7.27344 143.297 7.39062C143.109 7.50781 142.805 7.61328 142.383 7.70703L141.539 7.91797C141.352 7.96484 140.883 8.03516 140.133 8.12891L138.938 8.30469C138.633 8.32812 138.387 8.33984 138.199 8.33984L137.742 8.30469L136.828 7.98828L135.773 9.21875C135.445 9.61719 135.07 10.0156 134.648 10.4141C134.227 10.8359 133.84 11.1758 133.488 11.4336C133.137 11.668 132.762 11.9023 132.363 12.1367L131.168 12.5234C131.145 12.3594 131.203 12.207 131.344 12.0664L131.941 11.5039C132.293 11.1758 132.609 10.8477 132.891 10.5195C133.172 10.2383 133.512 9.81641 133.91 9.25391C134.309 8.69141 134.672 8.12891 135 7.56641C135.328 7.05078 135.609 6.58203 135.844 6.16016C136.055 5.73828 136.23 5.33984 136.371 4.96484C136.512 4.58984 136.582 4.21484 136.582 3.83984L136.863 3.3125C137.168 3.3125 137.496 3.41797 137.848 3.62891C138.199 3.81641 138.434 3.96875 138.551 4.08594C138.691 4.20313 138.82 4.33203 138.938 4.47266L139.148 5.17578C139.102 5.31641 138.984 5.44531 138.797 5.5625L138.41 5.80859L137.742 6.72266L137.25 7.28516ZM137.391 10.0625C137.648 10.0156 137.883 10.0039 138.094 10.0273L138.867 10.2031C139.078 10.2734 139.312 10.3438 139.57 10.4141C139.828 10.4844 140.039 10.5898 140.203 10.7305C140.391 10.8711 140.52 11.0117 140.59 11.1523C140.66 11.293 140.695 11.5039 140.695 11.7852C140.695 12.1602 140.602 12.4414 140.414 12.6289C140.25 12.8164 140.039 12.9219 139.781 12.9453C139.57 12.9453 139.312 12.8164 139.008 12.5586C138.797 12.3945 138.516 12.1133 138.164 11.7148C137.812 11.3398 137.555 11.0469 137.391 10.8359C137.25 10.625 137.25 10.3672 137.391 10.0625ZM149.414 8.90234L150.293 9.04297C150.926 9.18359 151.465 9.35938 151.91 9.57031C152.332 9.78125 152.648 10.0273 152.859 10.3086C153.047 10.5898 153.141 10.9648 153.141 11.4336C153.117 11.9961 152.918 12.3594 152.543 12.5234C152.238 12.5234 151.945 12.4297 151.664 12.2422C151.289 12.0312 150.926 11.7266 150.574 11.3281L149.695 10.2383L149.027 8.9375C149.191 8.89062 149.32 8.87891 149.414 8.90234Z" fill="#333333"/>
<path d="M116.266 69.9258C116.12 69.9258 115.974 69.8984 115.828 69.8438C115.682 69.7708 115.573 69.6615 115.5 69.5156C115.445 69.3516 115.327 69.1602 115.145 68.9414C114.98 68.7227 114.816 68.5586 114.652 68.4492L114.762 68.3125C114.853 68.3672 115.072 68.4766 115.418 68.6406C115.764 68.8047 116.02 68.8867 116.184 68.8867C116.439 68.8867 116.667 68.7956 116.867 68.6133C117.068 68.431 117.323 68.0846 117.633 67.5742C117.852 67.2279 118.052 66.8177 118.234 66.3438C118.417 65.8698 118.553 65.4323 118.645 65.0312L118.672 64.9766C118.672 64.9219 118.654 64.8763 118.617 64.8398C118.581 64.7852 118.544 64.7578 118.508 64.7578L117.25 64.8672C116.411 65.013 115.536 65.1315 114.625 65.2227C114.461 65.2409 114.27 65.2865 114.051 65.3594C113.832 65.4323 113.677 65.4688 113.586 65.4688C113.44 65.4688 113.249 65.3503 113.012 65.1133C112.921 65.0404 112.829 64.9492 112.738 64.8398C112.665 64.7305 112.647 64.6393 112.684 64.5664C112.829 64.4206 112.902 64.3477 112.902 64.3477L113.039 64.2383C113.294 63.9831 113.549 63.6458 113.805 63.2266C113.987 62.9714 114.178 62.543 114.379 61.9414C114.379 61.7409 114.424 61.6406 114.516 61.6406C114.57 61.6406 114.661 61.6771 114.789 61.75L115.227 62.0234C115.336 62.1146 115.409 62.1875 115.445 62.2422C115.482 62.2969 115.5 62.3698 115.5 62.4609C115.5 62.5703 115.427 62.707 115.281 62.8711C115.135 63.0169 115.008 63.1628 114.898 63.3086L114.27 64.2109L114.215 64.3203C114.215 64.375 114.288 64.4023 114.434 64.4023L116.539 64.1289L117.961 64.0195L118.508 63.9648L118.809 63.9102H118.891C119.073 63.9102 119.273 64.0651 119.492 64.375C119.747 64.612 119.875 64.8125 119.875 64.9766L119.738 65.332C119.72 65.3685 119.574 65.7969 119.301 66.6172C118.973 67.401 118.69 67.9935 118.453 68.3945C118.216 68.7956 117.961 69.1055 117.688 69.3242C117.195 69.7253 116.721 69.9258 116.266 69.9258ZM116.785 79.168C116.785 79.1497 116.831 79.0859 116.922 78.9766C117.031 78.849 117.15 78.694 117.277 78.5117C117.496 78.2018 117.715 77.7461 117.934 77.1445C118.152 76.543 118.271 75.987 118.289 75.4766C118.289 75.4401 118.271 75.4036 118.234 75.3672C118.216 75.3125 118.171 75.2852 118.098 75.2852L117.469 75.3398L116.539 75.4219C116.339 76.0781 115.992 76.7891 115.5 77.5547C115.281 77.901 114.98 78.2109 114.598 78.4844C114.233 78.7396 113.878 78.9219 113.531 79.0312C113.422 79.0677 113.285 79.0859 113.121 79.0859C112.993 79.0677 112.93 79.0312 112.93 78.9766C112.93 78.9036 112.993 78.8398 113.121 78.7852C113.34 78.6393 113.586 78.4115 113.859 78.1016C114.151 77.7917 114.406 77.4727 114.625 77.1445C114.753 76.9622 114.889 76.7253 115.035 76.4336C115.181 76.1237 115.299 75.8411 115.391 75.5859C114.807 75.6589 114.206 75.7956 113.586 75.9961C113.549 76.0326 113.486 76.0508 113.395 76.0508C113.34 76.0508 113.258 76.0143 113.148 75.9414C113.003 75.7956 112.902 75.6862 112.848 75.6133C112.811 75.5221 112.829 75.4401 112.902 75.3672L113.012 75.1484C113.085 75.0391 113.158 74.8203 113.23 74.4922C113.303 74.1641 113.34 73.8997 113.34 73.6992C113.34 73.6445 113.331 73.5807 113.312 73.5078C113.312 73.4167 113.322 73.3711 113.34 73.3711C113.376 73.3529 113.422 73.3529 113.477 73.3711C113.677 73.4076 113.859 73.4714 114.023 73.5625C114.169 73.6536 114.27 73.7539 114.324 73.8633C114.397 73.9544 114.397 74.0365 114.324 74.1094C114.306 74.1276 114.279 74.1641 114.242 74.2188C114.206 74.2552 114.178 74.3099 114.16 74.3828C114.142 74.401 114.105 74.6016 114.051 74.9844C114.051 75.0026 114.06 75.0208 114.078 75.0391C114.115 75.0573 114.151 75.0573 114.188 75.0391C114.242 75.0391 114.324 75.0299 114.434 75.0117C114.543 74.9935 114.625 74.9753 114.68 74.957C114.807 74.9388 114.953 74.9115 115.117 74.875C115.299 74.8385 115.464 74.8112 115.609 74.793C115.664 74.5924 115.701 74.3737 115.719 74.1367C115.755 73.8815 115.783 73.7083 115.801 73.6172L115.828 73.043V72.8516C115.245 72.8698 114.634 72.9245 113.996 73.0156L113.504 73.0977H113.395C113.303 73.0977 113.212 73.0703 113.121 73.0156C113.048 72.9609 112.966 72.8971 112.875 72.8242C112.638 72.6055 112.52 72.4414 112.52 72.332C112.52 72.2227 112.602 72.1862 112.766 72.2227C112.984 72.2591 113.212 72.2773 113.449 72.2773L114.242 72.25L118.043 71.9766C118.189 71.9583 118.326 71.9401 118.453 71.9219C118.581 71.8854 118.708 71.8581 118.836 71.8398H118.918C119.155 71.8398 119.319 71.8854 119.41 71.9766C119.52 72.0495 119.583 72.0951 119.602 72.1133C119.893 72.3503 120.039 72.5326 120.039 72.6602C120.039 72.7695 119.884 72.8151 119.574 72.7969L119.027 72.7422C118.553 72.724 117.842 72.7422 116.895 72.7969L116.785 73.8633C116.767 74.0456 116.749 74.1914 116.73 74.3008C116.712 74.4102 116.694 74.5013 116.676 74.5742L116.648 74.6562C117.086 74.6198 117.596 74.5651 118.18 74.4922C118.216 74.474 118.28 74.4557 118.371 74.4375C118.462 74.401 118.553 74.3737 118.645 74.3555H118.699C118.809 74.3555 118.918 74.401 119.027 74.4922C119.137 74.5833 119.201 74.638 119.219 74.6562C119.365 74.7839 119.465 74.8932 119.52 74.9844C119.592 75.0573 119.602 75.1211 119.547 75.1758C119.51 75.2487 119.465 75.3216 119.41 75.3945C119.374 75.4492 119.346 75.513 119.328 75.5859C119.237 76.3516 119.091 76.9714 118.891 77.4453C118.727 77.8646 118.544 78.1836 118.344 78.4023C118.161 78.6029 117.934 78.7943 117.66 78.9766C117.551 79.0495 117.378 79.1133 117.141 79.168C116.904 79.2044 116.785 79.2044 116.785 79.168ZM121.242 69.2695C121.333 69.2695 121.47 69.3333 121.652 69.4609C121.634 69.4974 121.671 69.5703 121.762 69.6797C121.853 69.7708 121.917 69.8346 121.953 69.8711C122.044 69.9622 122.135 70.0716 122.227 70.1992C122.336 70.3268 122.454 70.4635 122.582 70.6094C122.91 70.9557 123.667 71.8581 124.852 73.3164C125.052 73.6081 125.152 73.7812 125.152 73.8359C125.152 74.0182 125.043 74.1094 124.824 74.1094C124.697 74.1094 124.56 74.0182 124.414 73.8359C124.068 73.4714 123.448 72.8971 122.555 72.1133C121.862 71.4753 121.233 70.9831 120.668 70.6367C120.395 70.5091 120.258 70.3633 120.258 70.1992C120.258 70.0716 120.395 69.8893 120.668 69.6523C120.923 69.3971 121.115 69.2695 121.242 69.2695ZM92.5859 67.2461L91.4648 67.4102C91.2096 67.4648 91 67.5013 90.8359 67.5195H89.5781C89.2865 67.4831 89.0768 67.4466 88.9492 67.4102C88.8216 67.3737 88.6758 67.2734 88.5117 67.1094C88.5299 66.9635 88.612 66.8815 88.7578 66.8633L89.6875 66.6992L90.8359 66.5352C91.2734 66.4622 91.7018 66.3711 92.1211 66.2617L92.5859 66.1523V65.2227C92.5859 64.9492 92.5495 64.6576 92.4766 64.3477C92.4036 64.0195 92.3307 63.737 92.2578 63.5L92.0938 63.0898C91.8021 63.1628 91.5195 63.2174 91.2461 63.2539C90.9727 63.3268 90.7266 63.3815 90.5078 63.418C90.2526 63.4544 90.043 63.4727 89.8789 63.4727L89.332 63.5L89.168 63.2266L89.7969 62.9805C90.1615 62.8529 90.6354 62.6523 91.2188 62.3789C91.8021 62.1055 92.3034 61.8503 92.7227 61.6133C93.1419 61.3581 93.4792 61.1211 93.7344 60.9023C94.0078 60.7018 94.2083 60.5378 94.3359 60.4102C94.4453 60.2643 94.6276 60.0638 94.8828 59.8086L95.375 59.3438C95.5026 59.3255 95.6484 59.362 95.8125 59.4531C95.9401 59.526 96.1406 59.6628 96.4141 59.8633C96.6693 60.0456 96.8516 60.2279 96.9609 60.4102L97.043 60.793C97.0065 60.9023 96.9062 60.9844 96.7422 61.0391L96.3594 61.1758C96.1589 61.2487 95.9766 61.3307 95.8125 61.4219L95.2656 61.7227C95.0833 61.832 94.8464 61.9414 94.5547 62.0508L93.0234 62.7617C93.3151 62.8711 93.5703 62.9622 93.7891 63.0352C94.0078 63.1081 94.1719 63.1901 94.2812 63.2812C94.4089 63.3724 94.4635 63.582 94.4453 63.9102C94.3542 64.1836 94.2904 64.3841 94.2539 64.5117C94.2357 64.6576 94.2266 64.8398 94.2266 65.0586L94.1719 65.7148C94.4271 65.6602 94.6914 65.5781 94.9648 65.4688L95.4297 65.2773C95.5938 65.2773 95.7487 65.2956 95.8945 65.332C96.0221 65.3685 96.1953 65.4232 96.4141 65.4961C96.6328 65.569 96.7969 65.7148 96.9062 65.9336C96.9062 66.0612 96.8333 66.1797 96.6875 66.2891C96.5599 66.3984 96.2865 66.4987 95.8672 66.5898L95.0469 66.7539L94.1719 66.918C94.1172 67.3919 94.0807 67.7656 94.0625 68.0391C94.026 68.3125 93.9896 68.6224 93.9531 68.9688L93.8711 69.9805L95.293 69.6797L95.9219 69.5156C96.1042 69.4792 96.2682 69.4609 96.4141 69.4609C96.5781 69.4792 96.7604 69.5247 96.9609 69.5977C97.1797 69.6706 97.3438 69.7526 97.4531 69.8438L97.6445 70.0625L97.7266 70.3633L97.5625 70.5273L96.7969 70.6367C96.3776 70.7096 95.9857 70.7643 95.6211 70.8008C95.2565 70.8555 94.9193 70.9102 94.6094 70.9648L93.6797 71.1016C93.5703 71.6302 93.4883 72.0495 93.4336 72.3594C93.3607 72.6693 93.2604 73.0521 93.1328 73.5078C93.0052 73.9818 92.8776 74.401 92.75 74.7656C92.6224 75.1302 92.4128 75.6042 92.1211 76.1875C91.8294 76.7526 91.5742 77.2083 91.3555 77.5547C91.1185 77.901 90.8359 78.2565 90.5078 78.6211C90.1797 79.0221 89.9427 79.2956 89.7969 79.4414L89.1406 79.9609C88.8854 80.1797 88.6849 80.3346 88.5391 80.4258L87.8828 80.5078L88.375 79.8242C88.612 79.5326 88.7943 79.2956 88.9219 79.1133C89.0677 78.931 89.2682 78.6576 89.5234 78.293C89.7786 77.8919 90.0247 77.4727 90.2617 77.0352C90.4987 76.5977 90.7448 76.069 91 75.4492C91.2734 74.8294 91.5013 74.2096 91.6836 73.5898C91.8477 72.9701 91.9661 72.5052 92.0391 72.1953L92.1484 71.4844L90.5625 71.8398C90.3438 71.8763 89.9792 71.9766 89.4688 72.1406C88.9401 72.3047 88.612 72.4049 88.4844 72.4414L88.0742 72.5781C87.8737 72.6328 87.6914 72.6693 87.5273 72.6875C87.3815 72.6875 87.2357 72.6784 87.0898 72.6602C86.8893 72.6237 86.707 72.569 86.543 72.4961C86.3789 72.4232 86.224 72.332 86.0781 72.2227C85.9323 72.1497 85.8229 71.9948 85.75 71.7578C85.8229 71.6302 85.9414 71.5482 86.1055 71.5117L86.6797 71.4023L89.1953 70.9648L91.4922 70.5L92.3125 70.3359C92.349 69.9896 92.3854 69.7253 92.4219 69.543L92.5312 68.0938L92.5859 67.2461ZM101.719 69.4062L100.789 69.4883C100.57 69.5247 100.388 69.543 100.242 69.543H99.6406C99.349 69.5065 99.0755 69.4336 98.8203 69.3242C98.6198 69.2331 98.5195 69.1146 98.5195 68.9688C98.6107 68.8047 98.7474 68.7044 98.9297 68.668L99.7227 68.5586L100.926 68.4492L101.719 68.2852L101.773 65.8789L100.898 65.9883C100.771 66.0065 100.598 66.0247 100.379 66.043C100.178 66.043 99.9414 66.0156 99.668 65.9609C99.3945 65.9062 99.1758 65.8242 99.0117 65.7148L98.8203 65.4688L99.0938 65.168L101.773 64.7852C101.773 64.0195 101.755 63.5091 101.719 63.2539L101.609 62.4883L101.555 62.0781L100.734 62.2695C100.37 62.3607 100.087 62.4062 99.8867 62.4062C99.7591 62.4062 99.6406 62.3971 99.5312 62.3789C99.349 62.3424 99.1484 62.2878 98.9297 62.2148C98.7109 62.1237 98.5104 62.0143 98.3281 61.8867L98.1641 61.5039C98.2734 61.4128 98.401 61.3581 98.5469 61.3398L99.3125 61.2031C99.4766 61.1849 100.06 61.0846 101.062 60.9023L103.578 60.4375C103.943 60.3828 104.271 60.319 104.562 60.2461C104.854 60.1732 105.082 60.1185 105.246 60.082L105.547 60.0273C105.747 60.0273 105.948 60.0547 106.148 60.1094C106.331 60.1641 106.549 60.2734 106.805 60.4375C107.06 60.5833 107.224 60.7201 107.297 60.8477L107.406 61.1211L107.242 61.4219L106.859 61.4766L102.812 61.7773L103.277 62.0508C103.387 62.1237 103.487 62.2057 103.578 62.2969C103.688 62.388 103.724 62.5794 103.688 62.8711L103.496 63.582L103.414 63.9648L103.387 64.457C103.842 64.3112 104.198 64.2201 104.453 64.1836L105.137 64.0469L105.328 63.9922C105.529 63.9922 105.775 64.0378 106.066 64.1289C106.449 64.2383 106.714 64.3294 106.859 64.4023L107.078 64.6758C107.042 64.8034 106.923 64.9036 106.723 64.9766C106.522 65.0677 106.24 65.1497 105.875 65.2227C105.492 65.2956 104.927 65.3867 104.18 65.4961L103.305 65.6328L103.25 68.0117C103.56 67.9388 103.833 67.8841 104.07 67.8477C104.289 67.8112 104.562 67.7474 104.891 67.6562L105.465 67.5195C105.702 67.5195 106.003 67.556 106.367 67.6289C106.75 67.7018 106.996 67.8112 107.105 67.957L107.133 68.3672C107.023 68.4583 106.896 68.5221 106.75 68.5586C106.604 68.5951 106.294 68.6497 105.82 68.7227L104.398 68.9961L103.25 69.1602L103.195 71.7305L105.137 71.5117C105.264 71.5117 105.656 71.457 106.312 71.3477C106.932 71.2383 107.37 71.1471 107.625 71.0742C107.88 71.0378 108.081 71.0104 108.227 70.9922C108.464 70.9922 108.737 71.0469 109.047 71.1562C109.339 71.2839 109.639 71.4661 109.949 71.7031C110.259 71.9401 110.405 72.2135 110.387 72.5234C110.314 72.651 110.086 72.7148 109.703 72.7148L108.719 72.6602L107.625 72.5781C107.333 72.5599 107.014 72.5508 106.668 72.5508C106.358 72.5508 105.784 72.5781 104.945 72.6328L103.141 72.7422L103.031 77.2539L102.949 79.0039C102.931 79.4232 102.895 79.888 102.84 80.3984C102.785 80.9271 102.73 81.319 102.676 81.5742C102.621 81.8294 102.539 82.0846 102.43 82.3398L102.074 82.8047C101.965 82.7865 101.883 82.7227 101.828 82.6133C101.773 82.5039 101.719 82.1302 101.664 81.4922C101.628 81.0182 101.609 80.5352 101.609 80.043V79.5508L101.664 72.9609L100.379 73.1797C100.033 73.2344 99.6862 73.3164 99.3398 73.4258L98.6562 73.6445L98.3555 73.6719C98.1367 73.6719 97.8906 73.6263 97.6172 73.5352C97.3073 73.4258 97.0521 73.3164 96.8516 73.207C96.651 73.0977 96.487 72.8971 96.3594 72.6055C96.4141 72.4961 96.5234 72.4232 96.6875 72.3867L97.3438 72.3594L98.6016 72.2773C99.112 72.2591 99.75 72.1862 100.516 72.0586L101.664 71.8945L101.719 69.4062ZM158.02 66.6445C157.783 66.6445 157.609 66.5625 157.5 66.3984C157.336 66.1615 157.172 65.9701 157.008 65.8242C156.862 65.6784 156.598 65.4779 156.215 65.2227L156.297 65.0859C157.135 65.3776 157.728 65.5234 158.074 65.5234C158.366 65.5234 158.685 65.3594 159.031 65.0312C159.396 64.6849 159.706 64.1927 159.961 63.5547C160.089 63.263 160.18 63.026 160.234 62.8438C160.307 62.6432 160.362 62.4245 160.398 62.1875V62.1328C160.398 61.9688 160.316 61.8867 160.152 61.8867C159.97 61.8867 159.642 61.9414 159.168 62.0508C158.913 62.1237 158.576 62.2331 158.156 62.3789L157.938 62.3242C157.919 62.306 157.874 62.2786 157.801 62.2422C157.746 62.1875 157.701 62.1328 157.664 62.0781C157.573 61.987 157.527 61.9232 157.527 61.8867L157.5 61.7773C157.5 61.6497 157.564 61.5312 157.691 61.4219C157.837 61.3125 157.919 61.2305 157.938 61.1758C158.083 61.0117 158.375 60.6107 158.812 59.9727C158.849 59.9362 158.913 59.8542 159.004 59.7266C159.095 59.5807 159.141 59.4531 159.141 59.3438C159.141 59.2161 158.603 59.3073 157.527 59.6172C156.434 59.9453 155.859 60.1094 155.805 60.1094C155.622 60.1094 155.431 59.9544 155.23 59.6445C155.085 59.4987 155.012 59.3802 155.012 59.2891C155.012 59.1615 155.194 59.0885 155.559 59.0703C155.978 59.0521 156.625 58.9792 157.5 58.8516C158.393 58.724 158.922 58.6419 159.086 58.6055L159.469 58.4961C159.523 58.4779 159.587 58.4688 159.66 58.4688C159.715 58.4688 159.797 58.5052 159.906 58.5781C160.034 58.651 160.143 58.7057 160.234 58.7422C160.471 58.8516 160.608 58.9792 160.645 59.125V59.207C160.645 59.3711 160.553 59.5443 160.371 59.7266C160.298 59.7995 160.152 59.9544 159.934 60.1914C159.715 60.4102 159.578 60.556 159.523 60.6289C159.451 60.7018 159.341 60.8203 159.195 60.9844C159.049 61.1484 158.967 61.2487 158.949 61.2852C158.949 61.3398 158.967 61.3763 159.004 61.3945C159.04 61.4128 159.086 61.4219 159.141 61.4219C159.688 61.349 160.134 61.2669 160.48 61.1758L160.918 61.0391C161.118 61.0391 161.264 61.112 161.355 61.2578C161.52 61.4401 161.629 61.5951 161.684 61.7227C161.738 61.832 161.738 61.9414 161.684 62.0508C161.665 62.1055 161.638 62.1602 161.602 62.2148C161.565 62.2695 161.529 62.3333 161.492 62.4062C161.474 62.4427 161.438 62.5156 161.383 62.625C161.328 62.7344 161.292 62.8438 161.273 62.9531C160.945 63.901 160.553 64.7122 160.098 65.3867C159.842 65.6966 159.56 65.9609 159.25 66.1797C158.831 66.4896 158.421 66.6445 158.02 66.6445ZM155.285 71.2383C155.085 71.2383 154.839 71.0833 154.547 70.7734C154.328 70.5547 154.219 70.3906 154.219 70.2812C154.219 70.2266 154.255 70.1992 154.328 70.1992C154.401 70.181 154.492 70.1719 154.602 70.1719L155.203 70.1445C155.549 70.1445 155.777 70.1354 155.887 70.1172C156.233 70.1172 156.525 70.1081 156.762 70.0898C158.329 69.944 159.387 69.8255 159.934 69.7344C160.207 69.6979 160.453 69.6615 160.672 69.625C160.891 69.5703 161.064 69.543 161.191 69.543C161.447 69.543 161.702 69.6706 161.957 69.9258C162.158 70.1263 162.258 70.2904 162.258 70.418C162.258 70.5273 162.194 70.6003 162.066 70.6367C161.975 70.6549 161.438 70.6914 160.453 70.7461C159.906 70.7643 159.232 70.8099 158.43 70.8828C157.628 70.9557 156.926 71.0286 156.324 71.1016C156.215 71.1198 156.06 71.1471 155.859 71.1836C155.659 71.2201 155.467 71.2383 155.285 71.2383ZM159.359 77.3359C159.177 77.5729 158.986 77.6914 158.785 77.6914C158.73 77.6914 158.703 77.6458 158.703 77.5547C158.703 77.4271 158.74 77.2812 158.812 77.1172C158.812 77.1172 158.995 76.7526 159.359 76.0234C159.378 75.9505 159.405 75.8776 159.441 75.8047C159.478 75.7318 159.505 75.668 159.523 75.6133V75.5859C159.523 75.5495 159.496 75.513 159.441 75.4766C159.387 75.4401 159.323 75.431 159.25 75.4492C158.958 75.4674 158.521 75.513 157.938 75.5859C157.372 75.6589 156.953 75.7318 156.68 75.8047C156.57 75.8411 156.434 75.8867 156.27 75.9414C156.124 75.9961 156.005 76.0234 155.914 76.0234C155.586 76.0234 155.312 75.9232 155.094 75.7227C154.911 75.5951 154.775 75.4674 154.684 75.3398L154.629 75.2031C154.629 75.112 154.784 75.0846 155.094 75.1211C155.513 75.1576 156.379 75.1029 157.691 74.957L158.238 74.875C158.384 74.8568 158.612 74.8294 158.922 74.793C159.25 74.7383 159.505 74.6836 159.688 74.6289C159.742 74.6107 159.797 74.5924 159.852 74.5742C159.924 74.5378 159.988 74.5195 160.043 74.5195C160.134 74.5195 160.243 74.5651 160.371 74.6562C160.517 74.7474 160.635 74.8294 160.727 74.9023C160.854 74.9935 160.936 75.0755 160.973 75.1484C161.027 75.2031 161.046 75.276 161.027 75.3672C161.027 75.4583 160.982 75.5404 160.891 75.6133C160.799 75.6862 160.736 75.7409 160.699 75.7773C160.663 75.832 160.535 75.9688 160.316 76.1875C160.225 76.3333 160.061 76.5339 159.824 76.7891C159.605 77.0443 159.451 77.2266 159.359 77.3359ZM157.992 82.7227C157.992 82.668 158.083 82.5221 158.266 82.2852C158.466 82.0664 158.621 81.8932 158.73 81.7656C159.004 81.401 159.332 80.8724 159.715 80.1797C160.116 79.487 160.344 79.0312 160.398 78.8125C160.435 78.7031 160.38 78.6484 160.234 78.6484C159.943 78.6484 159.141 78.7305 157.828 78.8945C156.971 79.0039 156.333 79.1133 155.914 79.2227C155.823 79.2773 155.732 79.3047 155.641 79.3047C155.495 79.3047 155.34 79.2044 155.176 79.0039C155.103 78.8763 155.066 78.7578 155.066 78.6484C155.066 78.5755 155.112 78.5026 155.203 78.4297L155.285 78.3203C155.34 78.2109 155.404 78.0651 155.477 77.8828C155.549 77.7005 155.613 77.5273 155.668 77.3633C155.759 77.0716 155.823 76.7526 155.859 76.4062C155.878 76.2057 155.987 76.151 156.188 76.2422C156.443 76.3698 156.634 76.4974 156.762 76.625C156.908 76.7344 156.953 76.8164 156.898 76.8711C156.716 77.0898 156.57 77.3359 156.461 77.6094C156.37 77.901 156.315 78.0924 156.297 78.1836C156.297 78.2565 156.342 78.293 156.434 78.293C156.707 78.293 157.117 78.2474 157.664 78.1562C157.974 78.1198 158.357 78.0742 158.812 78.0195C159.268 77.9648 159.633 77.9102 159.906 77.8555L160.59 77.7188C160.645 77.7005 160.717 77.6914 160.809 77.6914C160.9 77.6914 160.991 77.7279 161.082 77.8008C161.173 77.8555 161.273 77.9284 161.383 78.0195C161.565 78.1836 161.684 78.3203 161.738 78.4297C161.793 78.5208 161.82 78.6302 161.82 78.7578C161.82 78.8307 161.766 78.9219 161.656 79.0312C161.565 79.1406 161.456 79.3138 161.328 79.5508C160.799 80.6263 160.116 81.5286 159.277 82.2578C159.04 82.4401 158.776 82.5951 158.484 82.7227C158.357 82.7591 158.238 82.7773 158.129 82.7773C158.038 82.7956 157.992 82.7773 157.992 82.7227ZM166.742 70.0898C166.961 70.0898 167.07 70.1901 167.07 70.3906C167.07 70.5 166.97 70.6549 166.77 70.8555C166.223 71.5299 165.138 72.8151 163.516 74.7109C163.388 74.875 163.27 74.957 163.16 74.957C163.069 74.957 162.868 74.8203 162.559 74.5469C162.303 74.3281 162.176 74.1458 162.176 74C162.176 73.8359 162.312 73.681 162.586 73.5352C163.005 73.2982 163.634 72.8242 164.473 72.1133C165.311 71.3659 165.931 70.7734 166.332 70.3359C166.496 70.1719 166.633 70.0898 166.742 70.0898ZM134.285 73.3711L133.902 70.6641C133.829 70.2448 133.747 69.8529 133.656 69.4883C133.565 69.1237 133.474 68.8503 133.383 68.668L133.246 68.3672L133.301 68.0938C133.41 68.0026 133.611 67.9753 133.902 68.0117C134.158 68.0664 134.44 68.1484 134.75 68.2578L135.27 68.4492L139.48 67.957L139.508 66.2344L139.426 65.4414L139.398 64.5117L139.18 63.9102L137.676 64.0742C137.421 64.0924 137.092 64.1016 136.691 64.1016C136.436 64.1016 136.245 64.0924 136.117 64.0742L135.516 63.9648L134.613 65.0039C134.285 65.3685 133.893 65.7513 133.438 66.1523C132.982 66.5534 132.572 66.8633 132.207 67.082L131.441 67.5742L131.113 67.5469L131.332 67.2461L131.715 66.8086C132.116 66.3893 132.499 65.9336 132.863 65.4414C133.228 64.9674 133.52 64.5573 133.738 64.2109C133.957 63.8646 134.212 63.4362 134.504 62.9258C134.777 62.4336 135.014 61.9505 135.215 61.4766C135.434 60.9844 135.616 60.5195 135.762 60.082C135.908 59.681 135.98 59.3529 135.98 59.0977L136.008 58.6055L136.309 58.3867C136.491 58.3867 136.655 58.4323 136.801 58.5234L137.402 58.9336C137.621 59.1159 137.803 59.2799 137.949 59.4258C138.077 59.5716 138.159 59.6992 138.195 59.8086L138.277 60.0273C138.259 60.1732 138.15 60.3372 137.949 60.5195C137.73 60.7201 137.566 60.9023 137.457 61.0664L137.074 61.668L136.09 63.1172L138.223 62.8438C139.007 62.7526 139.863 62.6341 140.793 62.4883C141.723 62.3424 142.397 62.224 142.816 62.1328C143.236 62.0599 143.582 61.9779 143.855 61.8867L144.43 61.7227L144.785 61.668C145.022 61.668 145.259 61.7044 145.496 61.7773C145.788 61.8503 146.007 61.9232 146.152 61.9961L146.426 62.1875L146.562 62.4336L146.453 62.6523C146.326 62.7253 146.18 62.7982 146.016 62.8711C145.852 62.9076 145.642 62.9622 145.387 63.0352C145.132 63.1081 144.694 63.1992 144.074 63.3086C143.454 63.418 142.898 63.4909 142.406 63.5273L141.012 63.6641C141.249 63.7917 141.431 63.9102 141.559 64.0195L141.777 64.2656C141.777 64.4297 141.75 64.5846 141.695 64.7305L141.531 65.1133C141.477 65.2409 141.44 65.3776 141.422 65.5234C141.404 65.6875 141.385 65.9701 141.367 66.3711L141.285 67.7109L144.129 67.3555L145.387 67.1914C145.569 67.1914 145.733 67.2096 145.879 67.2461C146.043 67.3008 146.207 67.3737 146.371 67.4648L146.891 67.8203L147.191 68.0664L147.082 68.2852C146.973 68.3581 146.79 68.4036 146.535 68.4219L145.332 68.4492L143.746 68.5586L142.16 68.668L141.258 68.7773L141.148 72.7148L144.02 72.4961L145.469 72.332C146.107 72.2591 146.626 72.1953 147.027 72.1406C147.428 72.0859 147.848 72.0221 148.285 71.9492C148.723 71.8763 149.051 71.8398 149.27 71.8398C149.488 71.8581 149.725 71.9036 149.98 71.9766C150.236 72.0677 150.527 72.1862 150.855 72.332C151.165 72.4779 151.411 72.6055 151.594 72.7148C151.758 72.8242 151.913 72.9518 152.059 73.0977L152.223 73.3984L152.086 73.6445C151.977 73.6992 151.767 73.7266 151.457 73.7266L149.844 73.6992C149.242 73.6992 148.021 73.7083 146.18 73.7266L143.391 73.7539L141.176 73.8359L141.012 78.3203C140.993 78.9948 140.948 79.6055 140.875 80.1523C140.82 80.7174 140.738 81.2643 140.629 81.793C140.52 82.3216 140.392 82.7135 140.246 82.9688L139.945 83.3242C139.763 83.3242 139.635 83.2695 139.562 83.1602C139.49 83.069 139.444 82.8776 139.426 82.5859C139.389 82.3125 139.371 82.0755 139.371 81.875C139.353 81.6745 139.335 81.2461 139.316 80.5898C139.298 80.1341 139.289 79.7422 139.289 79.4141L139.371 73.9453L135.68 74.3008C135.133 74.3555 134.604 74.4193 134.094 74.4922C133.602 74.5833 133.109 74.6654 132.617 74.7383C132.125 74.8477 131.66 74.9661 131.223 75.0938C130.858 75.2031 130.576 75.2578 130.375 75.2578C130.156 75.2396 129.892 75.1667 129.582 75.0391C129.29 74.9115 129.035 74.793 128.816 74.6836L128.297 74.3828L127.996 74.1914L127.941 73.918C128.014 73.8086 128.142 73.7448 128.324 73.7266L129.09 73.6992C129.855 73.681 130.557 73.6536 131.195 73.6172C131.833 73.599 132.389 73.5534 132.863 73.4805L134.285 73.3711ZM135.434 73.207L139.398 72.8242L139.426 68.9414L135.324 69.5156L135.434 73.207Z" fill="#333333"/>
</svg>
