<svg width="252" height="84" viewBox="0 0 252 84" fill="none" xmlns="http://www.w3.org/2000/svg">
<path d="M109.934 7.49609C109.77 7.49609 109.852 7.35547 110.18 7.07422C110.508 6.79297 110.906 6.45313 111.375 6.05469C111.844 5.63281 112.371 5.08203 112.957 4.40234C113.332 3.95703 113.613 3.48828 113.801 2.99609C113.918 2.71484 114.047 2.57422 114.188 2.57422C114.305 2.57422 114.48 2.66797 114.715 2.85547C115.184 3.23047 115.418 3.54687 115.418 3.80469C115.418 3.96875 115.324 4.08594 115.137 4.15625C115.043 4.17969 114.902 4.28516 114.715 4.47266C114.527 4.63672 114.387 4.76563 114.293 4.85938C113.285 5.84375 112.348 6.55859 111.48 7.00391C110.777 7.33203 110.309 7.49609 110.074 7.49609H109.934ZM113.625 14.0352C113.555 14.0352 113.438 13.9414 113.273 13.7539C113.133 13.543 113.027 13.3438 112.957 13.1562C112.934 13.0156 112.934 12.8398 112.957 12.6289C113.004 12.3945 113.027 12.2188 113.027 12.1016C113.074 11.6328 113.098 11.2578 113.098 10.9766C113.121 10.7187 113.121 10.4375 113.098 10.1328C113.098 9.82813 113.098 9.62891 113.098 9.53516L113.062 9.00781C112.5 9.40625 112.066 9.6875 111.762 9.85156C111.082 10.2266 110.59 10.4609 110.285 10.5547C109.91 10.6953 109.57 10.7656 109.266 10.7656C109.102 10.7656 109.008 10.7422 108.984 10.6953C108.938 10.6016 109.406 10.2617 110.391 9.67578C111.328 9.08984 112.348 8.31641 113.449 7.35547C114.059 6.79297 114.527 6.25391 114.855 5.73828C114.902 5.66797 114.938 5.58594 114.961 5.49219C115.008 5.375 115.055 5.30469 115.102 5.28125C115.172 5.25781 115.266 5.26953 115.383 5.31641C115.688 5.48047 115.945 5.71484 116.156 6.01953C116.25 6.13672 116.297 6.25391 116.297 6.37109C116.297 6.48828 116.238 6.60547 116.121 6.72266C116.004 6.81641 115.887 6.88672 115.77 6.93359C115.371 7.19141 115.008 7.47266 114.68 7.77734C114.352 8.08203 114.141 8.28125 114.047 8.375C114.398 8.65625 114.574 8.85547 114.574 8.97266L114.469 9.71094C114.422 9.92188 114.398 10.4492 114.398 11.293C114.398 12.1133 114.422 12.6641 114.469 12.9453V13.0156C114.469 13.1328 114.434 13.2617 114.363 13.4023C114.316 13.5195 114.281 13.6016 114.258 13.6484C114.094 13.9063 113.883 14.0352 113.625 14.0352ZM117.211 22.9648C116.859 22.9648 116.52 22.707 116.191 22.1914C115.77 21.5352 115.359 20.9961 114.961 20.5742L114.047 19.625C113.555 20.1875 113.121 20.6328 112.746 20.9609C112.395 21.2891 111.949 21.6055 111.41 21.9102C110.402 22.4961 109.559 22.7891 108.879 22.7891C108.715 22.7891 108.633 22.7305 108.633 22.6133C108.633 22.543 108.855 22.3906 109.301 22.1562C109.746 21.9219 110.168 21.6406 110.566 21.3125C111.574 20.4688 112.406 19.6016 113.062 18.7109C112.922 18.5703 112.219 17.9609 110.953 16.8828C110.789 16.7656 110.543 16.5664 110.215 16.2852C110.145 16.2383 110.004 16.1328 109.793 15.9688C109.582 15.8047 109.477 15.6875 109.477 15.6172C109.477 15.5 109.535 15.4414 109.652 15.4414C110.004 15.4414 110.566 15.6875 111.34 16.1797C112.113 16.6484 112.922 17.2109 113.766 17.8672C114.094 17.4688 114.352 17.0938 114.539 16.7422C114.727 16.3906 114.938 15.957 115.172 15.4414C115.289 15.1836 115.359 14.9609 115.383 14.7734C115.406 14.5625 115.418 14.4336 115.418 14.3867C115.418 14.1289 115.488 14 115.629 14C115.793 14 116.016 14.1289 116.297 14.3867C116.789 14.8555 117.035 15.1719 117.035 15.3359C117.035 15.4297 116.977 15.5352 116.859 15.6523C116.578 15.9336 116.32 16.3086 116.086 16.7773C115.945 17.0586 115.688 17.457 115.312 17.9727C115.195 18.1133 115.102 18.2422 115.031 18.3594C114.961 18.4766 114.891 18.582 114.82 18.6758C115.359 19.0742 116.156 19.7539 117.211 20.7148C117.469 20.9492 117.633 21.1719 117.703 21.3828C117.797 21.5703 117.844 21.8281 117.844 22.1562C117.844 22.3906 117.785 22.5898 117.668 22.7539C117.551 22.8945 117.398 22.9648 117.211 22.9648ZM117.844 27.6055C118.102 27.8867 118.23 28.1211 118.23 28.3086C118.23 28.4727 118.137 28.625 117.949 28.7656C117.832 28.8594 117.539 29.375 117.07 30.3125C116.555 31.1562 115.98 31.8828 115.348 32.4922C114.738 33.125 114.129 33.582 113.52 33.8633C113.379 33.9102 113.262 33.9336 113.168 33.9336C113.074 33.9336 113.027 33.9102 113.027 33.8633V33.793C113.027 33.6523 113.145 33.4883 113.379 33.3008C113.801 32.9727 114.117 32.6328 114.328 32.2812C114.562 31.9531 114.738 31.707 114.855 31.543C115.348 30.8398 115.699 30.2656 115.91 29.8203C116.145 29.4219 116.309 29.0117 116.402 28.5898H116.262C115.652 28.5898 114.668 28.6602 113.309 28.8008C113.098 28.8242 112.488 28.9062 111.48 29.0469C111.27 29.0703 110.941 29.1289 110.496 29.2227L110.074 29.3281C109.98 29.375 109.887 29.3984 109.793 29.3984C109.676 29.3984 109.559 29.375 109.441 29.3281C109.324 29.2578 109.207 29.1758 109.09 29.082C108.809 28.8477 108.668 28.6484 108.668 28.4844C108.691 28.4375 108.715 28.3672 108.738 28.2734C108.785 28.1797 108.809 28.0977 108.809 28.0273L108.984 26.8672C109.008 26.75 109.031 26.6211 109.055 26.4805C109.078 26.3398 109.09 26.1992 109.09 26.0586C109.09 25.6133 109.078 25.2617 109.055 25.0039C109.055 24.7227 109.02 24.4297 108.949 24.125V24.0195C108.949 23.8555 109.02 23.7734 109.16 23.7734C109.301 23.7734 109.547 23.8789 109.898 24.0898C110.367 24.418 110.602 24.6758 110.602 24.8633C110.602 24.9336 110.59 24.9922 110.566 25.0391C110.543 25.0859 110.52 25.1328 110.496 25.1797C110.426 25.6016 110.391 25.8359 110.391 25.8828L110.215 27.7461C110.215 27.793 110.238 27.8516 110.285 27.9219C110.355 27.9688 110.426 27.9922 110.496 27.9922C111.059 27.9922 112.324 27.8516 114.293 27.5703C115.066 27.5 115.617 27.418 115.945 27.3242C116.156 27.3008 116.332 27.2656 116.473 27.2188C116.637 27.1484 116.742 27.1133 116.789 27.1133C116.93 27.0664 117.023 27.043 117.07 27.043C117.281 27.043 117.539 27.2305 117.844 27.6055ZM84.1289 17.2344L81.7383 17.9023L80.6836 18.1836C79.957 18.3711 79.4766 18.4766 79.2422 18.5C78.9609 18.5 78.7031 18.4766 78.4688 18.4297C78.1641 18.3594 77.8242 18.207 77.4492 17.9727C77.0508 17.7383 76.7578 17.4102 76.5703 16.9883C76.6641 16.8477 76.8398 16.7656 77.0977 16.7422L77.9766 16.707C78.7031 16.6836 79.4766 16.6484 80.2969 16.6016C81.1172 16.5312 81.8555 16.4375 82.5117 16.3203L84.7617 15.9336C85.0898 15.1836 85.2891 14.7148 85.3594 14.5273L85.8164 13.1562C85.4414 13.1797 85.1484 13.2031 84.9375 13.2266C84.7266 13.25 84.375 13.2969 83.8828 13.3672C83.3906 13.4609 82.9922 13.5078 82.6875 13.5078C82.3125 13.5078 82.0195 13.4609 81.8086 13.3672C81.5273 13.25 81.3164 13.1211 81.1758 12.9805L81.0352 12.6641C81.0586 12.5 81.1758 12.418 81.3867 12.418L82.0547 12.3477C82.2188 12.3477 82.6172 12.3125 83.25 12.2422C83.8828 12.1719 84.4805 12.1133 85.043 12.0664L86.2383 11.9258C86.543 10.9883 86.7188 10.4023 86.7656 10.168L87.0469 8.76172C86.1797 8.83203 85.3945 8.91406 84.6914 9.00781C83.9648 9.07812 83.4961 9.11328 83.2852 9.11328H82.7578C82.2891 9.11328 81.9375 9.06641 81.7031 8.97266C81.3984 8.83203 81.1758 8.66797 81.0352 8.48047L80.8945 8.12891L81.1406 7.95312H81.8789L82.8633 7.84766L84.9023 7.70703L87.293 7.35547L87.4336 5.45703V5.10547C87.4336 4.84766 87.4102 4.53125 87.3633 4.15625C87.3164 3.80469 87.2812 3.55859 87.2578 3.41797L87.1172 2.64453L87.4688 2.39844C87.7031 2.375 87.9492 2.41016 88.207 2.50391C88.5352 2.64453 88.8633 2.79688 89.1914 2.96094C89.5195 3.125 89.8008 3.32422 90.0352 3.55859C90.2695 3.79297 90.3867 4.02734 90.3867 4.26172L90.1406 4.75391C89.9766 5.01172 89.8477 5.30469 89.7539 5.63281L89.2617 7.07422L92.1445 6.65234L93.7266 6.30078C94.0078 6.25391 94.2656 6.21875 94.5 6.19531C94.8984 6.19531 95.3203 6.28906 95.7656 6.47656C96.1641 6.61719 96.3633 6.79297 96.3633 7.00391C96.3398 7.23828 96.2461 7.37891 96.082 7.42578L95.3789 7.63672C95.1445 7.68359 94.7461 7.75391 94.1836 7.84766L91.9336 8.19922C91.1367 8.31641 90.4688 8.39844 89.9297 8.44531L88.9805 8.55078C88.7227 9.46484 88.5703 10.0273 88.5234 10.2383L88.1367 11.6445L90.3164 11.2578C90.7852 11.1875 91.3242 11.082 91.9336 10.9414C92.543 10.7773 93.0352 10.6836 93.4102 10.6602C93.7617 10.6602 94.043 10.6836 94.2539 10.7305C94.582 10.7773 94.8867 10.8711 95.168 11.0117L95.625 11.3984C95.625 11.5859 95.4609 11.7266 95.1328 11.8203C94.875 11.8906 94.5234 11.9492 94.0781 11.9961C93.6328 12.043 93.0586 12.1133 92.3555 12.207L90.2109 12.5586L87.8555 12.9102C87.5273 13.8008 87.3281 14.3516 87.2578 14.5625L86.8711 15.6523C87.5742 15.582 88.1016 15.5234 88.4531 15.4766L92.0742 15.1602C92.7305 15.1133 93.4453 15.0195 94.2188 14.8789C94.9922 14.7617 95.6133 14.6445 96.082 14.5273L97.1367 14.2461C97.6055 14.1523 97.9688 14.1055 98.2266 14.1055C98.5312 14.1055 98.8008 14.1523 99.0352 14.2461C99.293 14.3398 99.668 14.4922 100.16 14.7031C100.652 14.9141 100.969 15.1367 101.109 15.3711L101.215 15.9336C101.121 16.1211 100.934 16.2266 100.652 16.25L99.8789 16.2852L97.6992 16.2148C97.3477 16.2148 96.6914 16.2383 95.7305 16.2852L92.918 16.3555H91.6523L92.7773 17.1992L94.8867 18.9922C96.0117 19.9531 97.0195 20.7617 97.9102 21.418C98.8008 22.0742 99.5391 22.5547 100.125 22.8594C100.711 23.1641 101.566 23.5508 102.691 24.0195C103.816 24.4648 104.801 24.793 105.645 25.0039L106.594 25.7422L105.855 25.9531L103.605 26.4102C102.668 26.5977 101.941 26.6914 101.426 26.6914C100.816 26.6211 100.266 26.4219 99.7734 26.0938C99.2812 25.7656 98.8242 25.3789 98.4023 24.9336L95.6602 21.9805C94.3008 20.4805 93.2461 19.3672 92.4961 18.6406C91.793 17.9141 91.2539 17.4336 90.8789 17.1992L89.9297 16.4961C88.875 16.6133 88.2305 16.6836 87.9961 16.707L86.2734 16.918C85.5703 18.2773 84.9961 19.2852 84.5508 19.9414C84.1055 20.5977 83.4961 21.3242 82.7227 22.1211C81.9727 22.9648 81.1875 23.7031 80.3672 24.3359C79.5469 24.9688 78.7852 25.4844 78.082 25.8828C77.332 26.2812 76.5938 26.6211 75.8672 26.9023C75.1406 27.1602 74.6602 27.3242 74.4258 27.3945L73.4062 27.2188L74.2852 26.6562L75.2695 26.0938C75.8789 25.7656 76.5469 25.3438 77.2734 24.8281C78 24.3359 78.7148 23.7734 79.418 23.1406C80.1211 22.5078 80.8828 21.7227 81.7031 20.7852C82.5469 19.8477 83.0977 19.1445 83.3555 18.6758L84.1289 17.2344ZM90.9844 32.3867L88.7344 32.5977C87.7031 32.6914 87.1055 32.7383 86.9414 32.7383L85.2539 32.7734L85.1133 33.3359C84.9727 33.7578 84.8086 33.9688 84.6211 33.9688C84.4336 33.9453 84.2461 33.793 84.0586 33.5117C83.8477 33.207 83.7188 32.8438 83.6719 32.4219C83.6719 32.1172 83.6953 31.8008 83.7422 31.4727C83.7891 31.0273 83.8125 30.5117 83.8125 29.9258L83.6367 24.8633C83.5898 24.207 83.5195 23.7266 83.4258 23.4219C83.3555 23.1172 83.2734 22.8828 83.1797 22.7188L83.0742 22.4023C83.1211 22.2617 83.3438 22.168 83.7422 22.1211L84.7266 22.332L85.8516 22.1914C86.25 22.1445 86.7305 22.0625 87.293 21.9453L89.1914 21.5586C89.8477 21.418 90.3164 21.3008 90.5977 21.207C90.8789 21.1367 91.1602 21.043 91.4414 20.9258L92.1094 20.7148C92.3672 20.6914 92.5898 20.7148 92.7773 20.7852C93.0352 20.8789 93.3164 21.0312 93.6211 21.2422C93.9492 21.4531 94.2305 21.6641 94.4648 21.875L94.8516 22.3672C94.8516 22.5312 94.8164 22.6836 94.7461 22.8242C94.6758 23.0117 94.6172 23.2109 94.5703 23.4219C94.5 23.6328 94.4648 23.832 94.4648 24.0195C94.418 24.207 94.3828 24.582 94.3594 25.1445V25.7422C94.3594 26.1406 94.3711 26.5742 94.3945 27.043C94.418 27.6055 94.4648 28.1914 94.5352 28.8008L94.8164 30.5938C94.9102 31.2031 94.957 31.6602 94.957 31.9648C94.9102 32.5742 94.7344 33.1836 94.4297 33.793C94.1016 34.4023 93.7852 34.7773 93.4805 34.918L92.9531 35.0586C92.6953 35.0352 92.4492 34.8008 92.2148 34.3555C92.0039 33.9336 91.7695 33.5234 91.5117 33.125L90.9844 32.3867ZM85.3242 31.5781C86.3555 31.4609 87.1406 31.3672 87.6797 31.2969L89.5078 31.0508C90.1875 30.9336 90.6445 30.875 90.8789 30.875C91.2539 30.8984 91.5352 30.957 91.7227 31.0508L92.4609 31.4727L92.6367 27.0078C92.1211 27.125 91.7344 27.1953 91.4766 27.2188L89.0508 27.6758C87.9727 27.8633 87.2109 27.9805 86.7656 28.0273L86.3438 28.0625H85.9922L85.2539 27.8867L85.3242 31.5781ZM85.2539 26.9023C85.4883 26.9023 85.6992 26.8906 85.8867 26.8672C86.0742 26.8438 86.5664 26.7617 87.3633 26.6211C88.207 26.457 88.8867 26.3047 89.4023 26.1641C89.9648 26 90.3867 25.918 90.668 25.918C90.9258 25.918 91.1602 25.9297 91.3711 25.9531C91.6758 26 92.0391 26.1055 92.4609 26.2695L92.6367 23.3164C92.6133 22.9414 92.5547 22.6953 92.4609 22.5781C92.3438 22.4609 92.1211 22.3906 91.793 22.3672C91.4883 22.3672 91.1602 22.3789 90.8086 22.4023L89.2617 22.4727C88.8867 22.5195 88.3477 22.6367 87.6445 22.8242C86.9414 22.9883 86.4492 23.1172 86.168 23.2109L85.5352 23.3516L85.3945 23.7031C85.418 23.8438 85.418 24.043 85.3945 24.3008C85.3477 24.5352 85.3242 24.7344 85.3242 24.8984L85.2539 26.9023ZM170.121 13.6836C169.957 13.6836 169.781 13.5781 169.594 13.3672C169.453 13.2031 169.359 13.0742 169.312 12.9805C169.266 12.8633 169.266 12.7109 169.312 12.5234L169.348 11.6797C169.371 11.5156 169.383 11.1172 169.383 10.4844V9.32422L168.328 9.81641L167.098 10.3438C166.793 10.4609 166.477 10.6016 166.148 10.7656C165.867 10.9062 165.621 10.9766 165.41 10.9766C165.246 10.9531 165.059 10.8945 164.848 10.8008C164.637 10.707 164.473 10.625 164.355 10.5547C164.098 10.3906 163.98 10.2148 164.004 10.0273L164.109 9.67578C164.109 9.48828 164.121 9.32422 164.145 9.18359L164.18 7.14453V5.24609C164.18 4.87109 164.156 4.55469 164.109 4.29688C164.062 4.01562 164.027 3.81641 164.004 3.69922C164.004 3.58203 164.039 3.5 164.109 3.45312C164.133 3.42969 164.191 3.41797 164.285 3.41797C164.449 3.41797 164.766 3.52344 165.234 3.73438C165.633 3.92188 165.797 4.15625 165.727 4.4375C165.68 4.60156 165.633 4.84766 165.586 5.17578L165.48 9.21875C165.48 9.33594 165.492 9.42969 165.516 9.5C165.562 9.54688 165.609 9.57031 165.656 9.57031C165.938 9.57031 166.277 9.48828 166.676 9.32422C167.426 9.08984 168.07 8.85547 168.609 8.62109L169.383 8.30469V5.98438C169.383 5.04688 169.324 4.14453 169.207 3.27734C169.184 3.20703 169.172 3.125 169.172 3.03125C169.172 2.79688 169.266 2.67969 169.453 2.67969C169.477 2.67969 169.605 2.72656 169.84 2.82031C170.191 3.00781 170.449 3.17188 170.613 3.3125C170.777 3.45312 170.871 3.53516 170.895 3.55859C170.988 3.62891 171.035 3.69922 171.035 3.76953C171.035 3.81641 171.012 3.875 170.965 3.94531C170.941 4.01562 170.918 4.07422 170.895 4.12109L170.789 5.17578L170.754 8.41016L170.789 11.5391C170.789 12.0781 170.754 12.5469 170.684 12.9453C170.566 13.4375 170.379 13.6836 170.121 13.6836ZM163.652 19.4492C163.395 19.4492 163.078 19.25 162.703 18.8516C162.422 18.5703 162.281 18.3594 162.281 18.2188C162.281 18.1484 162.328 18.1133 162.422 18.1133C162.516 18.0898 162.633 18.0781 162.773 18.0781L163.547 18.043C163.992 18.043 164.285 18.0312 164.426 18.0078C164.871 18.0078 165.246 17.9961 165.551 17.9727C167.566 17.7852 168.926 17.6328 169.629 17.5156C169.98 17.4688 170.297 17.4219 170.578 17.375C170.859 17.3047 171.082 17.2695 171.246 17.2695C171.574 17.2695 171.902 17.4336 172.23 17.7617C172.488 18.0195 172.617 18.2305 172.617 18.3945C172.617 18.5352 172.535 18.6289 172.371 18.6758C172.254 18.6992 171.562 18.7461 170.297 18.8164C169.594 18.8398 168.727 18.8984 167.695 18.9922C166.664 19.0859 165.762 19.1797 164.988 19.2734C164.848 19.2969 164.648 19.332 164.391 19.3789C164.133 19.4258 163.887 19.4492 163.652 19.4492ZM168.363 33.9688C167.637 33.9688 167.074 33.9453 166.676 33.8984C166.301 33.8516 165.984 33.7109 165.727 33.4766C165.281 33.1484 164.977 32.4336 164.812 31.332L164.707 30.207C164.707 29.9258 164.684 29.5742 164.637 29.1523C164.262 29.1992 163.992 29.2461 163.828 29.293C163.781 29.3164 163.699 29.3516 163.582 29.3984C163.488 29.4219 163.418 29.4336 163.371 29.4336C163.207 29.4336 163.055 29.3867 162.914 29.293C162.773 29.1992 162.598 29.0234 162.387 28.7656C162.223 28.5547 162.141 28.4141 162.141 28.3438C162.141 28.2734 162.223 28.2266 162.387 28.2031C162.551 28.1797 162.773 28.168 163.055 28.168C163.453 28.168 163.969 28.1211 164.602 28.0273L164.566 27.5352C164.566 26.5977 164.508 25.8008 164.391 25.1445L164.355 24.8984C164.355 24.5703 164.484 24.4414 164.742 24.5117C165.023 24.6055 165.281 24.7227 165.516 24.8633C165.703 24.957 165.832 25.0508 165.902 25.1445C165.973 25.2148 165.996 25.3203 165.973 25.4609L165.867 26.9727V27.8867L168.961 27.5703C168.961 27.4062 168.973 27.0195 168.996 26.4102C169.02 25.7773 169.02 25.3672 168.996 25.1797C168.996 24.9922 168.973 24.8164 168.926 24.6523C168.902 24.4648 168.879 24.3125 168.855 24.1953C168.855 24.0078 168.949 23.9141 169.137 23.9141C169.324 23.9141 169.559 24.0195 169.84 24.2305C170.168 24.4414 170.379 24.6289 170.473 24.793C170.59 24.957 170.613 25.1562 170.543 25.3906C170.426 25.7656 170.344 26.1875 170.297 26.6562C170.25 27.125 170.227 27.4062 170.227 27.5C170.508 27.4766 170.766 27.4414 171 27.3945C171.234 27.3477 171.387 27.3242 171.457 27.3242C171.645 27.2773 171.867 27.2539 172.125 27.2539C172.266 27.2773 172.465 27.418 172.723 27.6758C172.934 27.957 173.039 28.1797 173.039 28.3438C173.039 28.5781 172.816 28.6719 172.371 28.625C171.973 28.5547 171.574 28.5195 171.176 28.5195C170.777 28.5195 170.438 28.5312 170.156 28.5547C170.086 29.3984 169.945 30.2305 169.734 31.0508C169.688 31.2383 169.605 31.4023 169.488 31.543C169.371 31.6602 169.266 31.7188 169.172 31.7188C169.008 31.7188 168.902 31.6602 168.855 31.543C168.832 31.4023 168.82 31.1914 168.82 30.9102C168.867 30.3008 168.891 29.5391 168.891 28.625C168.258 28.6719 167.766 28.7188 167.414 28.7656C166.875 28.8828 166.371 28.9531 165.902 28.9766C165.879 29.9375 165.926 30.793 166.043 31.543C166.113 32.0352 166.254 32.375 166.465 32.5625C166.605 32.6797 166.77 32.75 166.957 32.7734C167.168 32.7969 167.379 32.8086 167.59 32.8086C167.801 32.8086 167.941 32.8086 168.012 32.8086C168.738 32.8086 169.418 32.7734 170.051 32.7031C170.238 32.6797 170.402 32.6328 170.543 32.5625C170.707 32.4922 170.824 32.457 170.895 32.457C171.105 32.457 171.316 32.5273 171.527 32.668C171.738 32.8086 171.844 32.9727 171.844 33.1602C171.844 33.3477 171.738 33.4883 171.527 33.582C171.34 33.6758 171.035 33.7578 170.613 33.8281C169.863 33.9219 169.113 33.9688 168.363 33.9688ZM178.383 17.9727C178.664 17.9727 178.805 18.1016 178.805 18.3594C178.805 18.5 178.676 18.6992 178.418 18.957C177.715 19.8242 176.32 21.4766 174.234 23.9141C174.07 24.125 173.918 24.2305 173.777 24.2305C173.66 24.2305 173.402 24.0547 173.004 23.7031C172.676 23.4219 172.512 23.1875 172.512 23C172.512 22.7891 172.688 22.5898 173.039 22.4023C173.578 22.0977 174.387 21.4883 175.465 20.5742C176.543 19.6133 177.34 18.8516 177.855 18.2891C178.066 18.0781 178.242 17.9727 178.383 17.9727ZM139.992 26.3398C139.875 26.1523 139.781 25.9883 139.711 25.8477C139.617 25.707 139.523 25.5195 139.43 25.2852V24.4414L140.379 24.6523L141.328 25.0742C141.75 25.2617 142.125 25.4492 142.453 25.6367C142.781 25.8477 143.051 26.1641 143.262 26.5859C143.426 26.9375 143.508 27.3477 143.508 27.8164C143.484 28.2852 143.367 28.6484 143.156 28.9062C142.969 29.1641 142.723 29.293 142.418 29.293C142.113 29.293 141.797 29.1055 141.469 28.7305C141.281 28.543 141.105 28.2734 140.941 27.9219L140.414 27.043L136.617 29.7852L135.352 30.8398L134.508 31.6836L134.086 31.9648C133.852 31.9648 133.617 31.8125 133.383 31.5078C133.172 31.25 132.984 30.9336 132.82 30.5586C132.68 30.2539 132.609 29.9609 132.609 29.6797L132.82 29.0117C132.961 28.6367 133.066 28.25 133.137 27.8516C133.207 27.4297 133.266 26.9492 133.312 26.4102C133.359 25.8945 133.406 25.1445 133.453 24.1602L133.629 18.043C133.629 17.7148 133.617 17.375 133.594 17.0234C133.547 16.6719 133.488 16.3789 133.418 16.1445C133.348 15.9102 133.242 15.6992 133.102 15.5117L132.82 15.2305L132.75 14.8789C132.844 14.7383 133.008 14.668 133.242 14.668C133.805 14.668 134.25 14.7617 134.578 14.9492L135.105 15.2305C135.691 15.1602 136.172 15.0898 136.547 15.0195C136.945 14.9727 137.438 14.8789 138.023 14.7383C138.586 14.5977 139.02 14.4805 139.324 14.3867C139.629 14.293 139.945 14.1758 140.273 14.0352C140.602 13.8945 140.859 13.8242 141.047 13.8242C141.234 13.8477 141.457 13.918 141.715 14.0352L142.453 14.4219L142.91 14.7383C143.332 14.9961 143.602 15.207 143.719 15.3711L143.754 16.0039L143.402 16.5312C143.332 16.6719 143.227 16.9062 143.086 17.2344L142.91 17.7617L142.031 21.0312L141.68 22.4023C141.492 22.8711 141.305 23.1641 141.117 23.2812L140.73 23.4219H140.484L140.027 22.9648C139.395 23.0352 138.914 23.082 138.586 23.1055L136.16 23.457L135.281 23.5273L135.07 27.3945L135.211 28.168C135.398 28.168 135.609 28.1211 135.844 28.0273L139.992 26.3398ZM135.281 22.3672C135.703 22.3438 136.031 22.3203 136.266 22.2969C136.5 22.2734 136.852 22.2031 137.32 22.0859C137.836 21.9688 138.281 21.875 138.656 21.8047C138.938 21.7578 139.195 21.7344 139.43 21.7344L140.098 21.8047L140.695 19.0977C140.109 19.1445 139.676 19.1914 139.395 19.2383L137.707 19.5195C137.215 19.6133 136.816 19.6602 136.512 19.6602L135.949 19.5898L135.422 19.4141L135.281 22.3672ZM135.457 18.6758C135.902 18.6523 136.254 18.6172 136.512 18.5703C136.77 18.5234 137.203 18.418 137.812 18.2539C138.375 18.0898 138.797 17.9961 139.078 17.9727C139.477 17.9727 139.863 18.043 140.238 18.1836L140.801 18.3945L140.977 17.3047C141.023 17 141.047 16.6602 141.047 16.2852C141.047 15.9102 140.988 15.6641 140.871 15.5469C140.754 15.4297 140.59 15.3711 140.379 15.3711C140.145 15.3945 139.852 15.4531 139.5 15.5469C139.172 15.6172 138.633 15.7227 137.883 15.8633C137.109 16.0039 136.617 16.0742 136.406 16.0742L135.668 16.1094L135.457 18.6758ZM148.148 17.1992C148.055 17.5742 147.996 17.8555 147.973 18.043C147.949 18.2305 147.914 18.5352 147.867 18.957C147.82 19.3789 147.797 19.7305 147.797 20.0117L147.691 27.1133C147.668 28.0977 147.586 29.2461 147.445 30.5586L147.305 32.0703C147.211 32.9844 147.047 33.7695 146.812 34.4258C146.578 35.0586 146.367 35.375 146.18 35.375C146.016 35.3516 145.875 35.0117 145.758 34.3555C145.641 33.7227 145.57 32.9844 145.547 32.1406C145.523 31.5781 145.512 31.0156 145.512 30.4531V29.5742L145.652 20.3633C145.676 19.7539 145.688 19.2617 145.688 18.8867C145.688 18.5117 145.676 18.2539 145.652 18.1133C145.629 17.8086 145.594 17.457 145.547 17.0586C145.5 16.6602 145.418 16.332 145.301 16.0742L145.16 15.3711L145.336 15.1602C145.547 15.1602 145.805 15.207 146.109 15.3008C146.719 15.4883 147.117 15.6406 147.305 15.7578L147.867 16.1094L149.59 15.7227C150.176 15.582 150.773 15.418 151.383 15.2305L152.156 15.0195C152.531 14.9023 152.859 14.7734 153.141 14.6328L153.633 14.457C153.797 14.457 153.996 14.5273 154.23 14.668C154.465 14.8086 154.711 14.9727 154.969 15.1602C155.25 15.3477 155.52 15.5586 155.777 15.793C155.988 15.9805 156.059 16.2617 155.988 16.6367C155.801 16.8945 155.672 17.1289 155.602 17.3398C155.555 17.5508 155.508 17.832 155.461 18.1836C155.414 18.5586 155.391 18.9453 155.391 19.3438L155.18 23.1055C155.133 24.043 155.062 24.7695 154.969 25.2852C154.898 25.8008 154.746 26.2578 154.512 26.6562C154.254 27.0547 153.961 27.3711 153.633 27.6055L153 27.8867C152.812 27.8398 152.625 27.6992 152.438 27.4648C152.227 27.207 151.934 26.8789 151.559 26.4805C151.207 26.0586 150.867 25.6836 150.539 25.3555L149.906 24.793L149.695 24.3008C149.836 24.2773 150 24.3008 150.188 24.3711L150.996 24.6172C151.465 24.7812 151.828 24.875 152.086 24.8984C152.297 24.8984 152.473 24.8633 152.613 24.793C152.824 24.6523 152.953 24.3477 153 23.8789C153.07 23.3633 153.117 22.8711 153.141 22.4023L153.281 17.832C153.281 17.293 153.258 16.9414 153.211 16.7773L153.07 16.4961C152.93 16.3555 152.719 16.2852 152.438 16.2852C152.203 16.2852 151.805 16.332 151.242 16.4258L149.66 16.7422L148.148 17.1992ZM148.852 6.40625L153.281 5.52734C153.516 5.48047 153.773 5.41016 154.055 5.31641L154.688 5.17578C154.992 5.15234 155.25 5.16406 155.461 5.21094C155.742 5.28125 156.035 5.41016 156.34 5.59766L156.832 5.94922C156.855 6.08984 156.773 6.25391 156.586 6.44141C156.398 6.58203 156.129 6.6875 155.777 6.75781L154.477 7.00391C154.102 7.05078 153.574 7.12109 152.895 7.21484C152.215 7.28516 151.605 7.35547 151.066 7.42578C150.527 7.51953 150.164 7.56641 149.977 7.56641C149.602 7.56641 149.238 7.51953 148.887 7.42578L148.289 7.32031L147.27 8.72656C146.871 9.24219 146.391 9.76953 145.828 10.3086C145.219 10.8711 144.82 11.2109 144.633 11.3281L144 11.7148L143.578 11.8555L143.332 11.6797L143.578 11.293L144.352 10.3086C144.68 9.91016 144.949 9.55859 145.16 9.25391C145.371 8.92578 145.617 8.51562 145.898 8.02344C146.203 7.53125 146.449 7.09766 146.637 6.72266C146.801 6.37109 146.953 6.01953 147.094 5.66797C147.234 5.29297 147.34 4.98828 147.41 4.75391C147.48 4.49609 147.562 4.23828 147.656 3.98047C147.703 3.69922 147.727 3.44141 147.727 3.20703L147.938 2.64453L148.184 2.53906C148.348 2.53906 148.535 2.58594 148.746 2.67969C149.027 2.79688 149.32 2.94922 149.625 3.13672C149.93 3.32422 150.164 3.52344 150.328 3.73438L150.539 4.15625L150.469 4.47266C150.352 4.58984 150.188 4.75391 149.977 4.96484C149.742 5.19922 149.531 5.43359 149.344 5.66797L148.852 6.40625ZM137.25 7.28516L138.234 7.10938C138.656 7.03906 139.324 6.86328 140.238 6.58203L140.766 6.40625L141.645 6.16016L142.172 6.26562C142.453 6.33594 142.664 6.39453 142.805 6.44141C142.945 6.51172 143.086 6.60547 143.227 6.72266L143.473 6.96875C143.496 7.13281 143.438 7.27344 143.297 7.39062C143.109 7.50781 142.805 7.61328 142.383 7.70703L141.539 7.91797C141.352 7.96484 140.883 8.03516 140.133 8.12891L138.938 8.30469C138.633 8.32812 138.387 8.33984 138.199 8.33984L137.742 8.30469L136.828 7.98828L135.773 9.21875C135.445 9.61719 135.07 10.0156 134.648 10.4141C134.227 10.8359 133.84 11.1758 133.488 11.4336C133.137 11.668 132.762 11.9023 132.363 12.1367L131.168 12.5234C131.145 12.3594 131.203 12.207 131.344 12.0664L131.941 11.5039C132.293 11.1758 132.609 10.8477 132.891 10.5195C133.172 10.2383 133.512 9.81641 133.91 9.25391C134.309 8.69141 134.672 8.12891 135 7.56641C135.328 7.05078 135.609 6.58203 135.844 6.16016C136.055 5.73828 136.23 5.33984 136.371 4.96484C136.512 4.58984 136.582 4.21484 136.582 3.83984L136.863 3.3125C137.168 3.3125 137.496 3.41797 137.848 3.62891C138.199 3.81641 138.434 3.96875 138.551 4.08594C138.691 4.20313 138.82 4.33203 138.938 4.47266L139.148 5.17578C139.102 5.31641 138.984 5.44531 138.797 5.5625L138.41 5.80859L137.742 6.72266L137.25 7.28516ZM137.391 10.0625C137.648 10.0156 137.883 10.0039 138.094 10.0273L138.867 10.2031C139.078 10.2734 139.312 10.3438 139.57 10.4141C139.828 10.4844 140.039 10.5898 140.203 10.7305C140.391 10.8711 140.52 11.0117 140.59 11.1523C140.66 11.293 140.695 11.5039 140.695 11.7852C140.695 12.1602 140.602 12.4414 140.414 12.6289C140.25 12.8164 140.039 12.9219 139.781 12.9453C139.57 12.9453 139.312 12.8164 139.008 12.5586C138.797 12.3945 138.516 12.1133 138.164 11.7148C137.812 11.3398 137.555 11.0469 137.391 10.8359C137.25 10.625 137.25 10.3672 137.391 10.0625ZM149.414 8.90234L150.293 9.04297C150.926 9.18359 151.465 9.35938 151.91 9.57031C152.332 9.78125 152.648 10.0273 152.859 10.3086C153.047 10.5898 153.141 10.9648 153.141 11.4336C153.117 11.9961 152.918 12.3594 152.543 12.5234C152.238 12.5234 151.945 12.4297 151.664 12.2422C151.289 12.0312 150.926 11.7266 150.574 11.3281L149.695 10.2383L149.027 8.9375C149.191 8.89062 149.32 8.87891 149.414 8.90234Z" fill="#333333"/>
<path d="M119.164 69.3242C118.891 69.3242 118.626 69.1237 118.371 68.7227C118.043 68.2122 117.724 67.793 117.414 67.4648L116.703 66.7266C116.32 67.1641 115.983 67.5104 115.691 67.7656C115.418 68.0208 115.072 68.2669 114.652 68.5039C113.868 68.9596 113.212 69.1875 112.684 69.1875C112.556 69.1875 112.492 69.1419 112.492 69.0508C112.492 68.9961 112.665 68.8776 113.012 68.6953C113.358 68.513 113.686 68.2943 113.996 68.0391C114.78 67.3828 115.427 66.7083 115.938 66.0156C115.828 65.9062 115.281 65.4323 114.297 64.5938C114.169 64.5026 113.978 64.3477 113.723 64.1289C113.668 64.0924 113.559 64.0104 113.395 63.8828C113.23 63.7552 113.148 63.6641 113.148 63.6094C113.148 63.5182 113.194 63.4727 113.285 63.4727C113.559 63.4727 113.996 63.6641 114.598 64.0469C115.199 64.4115 115.828 64.849 116.484 65.3594C116.74 65.0495 116.94 64.7578 117.086 64.4844C117.232 64.2109 117.396 63.8737 117.578 63.4727C117.669 63.2721 117.724 63.099 117.742 62.9531C117.76 62.7891 117.77 62.6888 117.77 62.6523C117.77 62.4518 117.824 62.3516 117.934 62.3516C118.061 62.3516 118.234 62.4518 118.453 62.6523C118.836 63.0169 119.027 63.263 119.027 63.3906C119.027 63.4635 118.982 63.5456 118.891 63.6367C118.672 63.8555 118.471 64.1471 118.289 64.5117C118.18 64.7305 117.979 65.0404 117.688 65.4414C117.596 65.5508 117.523 65.651 117.469 65.7422C117.414 65.8333 117.359 65.9154 117.305 65.9883C117.724 66.2982 118.344 66.8268 119.164 67.5742C119.365 67.7565 119.492 67.9297 119.547 68.0938C119.62 68.2396 119.656 68.4401 119.656 68.6953C119.656 68.8776 119.611 69.0326 119.52 69.1602C119.428 69.2695 119.31 69.3242 119.164 69.3242ZM118.508 79.25C118.435 79.25 118.353 79.2227 118.262 79.168C118.171 79.0951 118.052 78.9948 117.906 78.8672C117.268 78.375 116.648 77.6367 116.047 76.6523C115.445 75.668 115.017 74.6016 114.762 73.4531C114.743 73.3438 114.716 73.2161 114.68 73.0703C114.643 72.9245 114.607 72.8151 114.57 72.7422C114.57 72.724 114.543 72.7148 114.488 72.7148C114.361 72.7148 114.115 72.7969 113.75 72.9609C113.641 73.0156 113.531 73.0977 113.422 73.207C113.331 73.2982 113.23 73.3346 113.121 73.3164C113.048 73.3164 112.948 73.2708 112.82 73.1797C112.693 73.0885 112.602 73.0065 112.547 72.9336C112.365 72.6784 112.273 72.5234 112.273 72.4688C112.273 72.3594 112.374 72.2956 112.574 72.2773C112.848 72.2773 113.021 72.2682 113.094 72.25C113.622 72.1771 114.124 72.0586 114.598 71.8945C114.671 71.8763 114.771 71.8216 114.898 71.7305C114.917 71.7305 114.944 71.7214 114.98 71.7031C115.035 71.6849 115.099 71.7031 115.172 71.7578C115.445 71.9401 115.582 72.0768 115.582 72.168C115.582 73.444 115.947 74.638 116.676 75.75C117.405 76.862 118.471 77.8008 119.875 78.5664C119.948 78.6029 120.039 78.6393 120.148 78.6758C120.258 78.7122 120.312 78.7669 120.312 78.8398C120.312 78.931 120.012 79.013 119.41 79.0859L118.727 79.1953L118.508 79.25ZM124.742 67.082C124.961 67.082 125.07 67.1823 125.07 67.3828C125.07 67.4922 124.97 67.6471 124.77 67.8477C124.223 68.5221 123.138 69.8073 121.516 71.7031C121.388 71.8672 121.27 71.9492 121.16 71.9492C121.069 71.9492 120.868 71.8125 120.559 71.5391C120.303 71.3203 120.176 71.138 120.176 70.9922C120.176 70.8281 120.312 70.6732 120.586 70.5273C121.005 70.2904 121.634 69.8164 122.473 69.1055C123.311 68.3581 123.931 67.7656 124.332 67.3281C124.496 67.1641 124.633 67.082 124.742 67.082ZM97.1797 63.4453C97.4531 63.3906 97.6992 63.3268 97.918 63.2539C98.1185 63.2174 98.319 63.1628 98.5195 63.0898C98.7383 63.0169 98.957 62.9167 99.1758 62.7891L99.6133 62.625C99.7956 62.6068 99.9779 62.625 100.16 62.6797C100.379 62.7526 100.616 62.8529 100.871 62.9805C101.126 63.1081 101.309 63.2357 101.418 63.3633L101.473 63.8555L101.09 64.2656C100.98 64.3568 100.862 64.5299 100.734 64.7852L100.488 65.2773L100.297 65.6875C100.643 65.6693 100.944 65.6419 101.199 65.6055C101.454 65.5872 101.737 65.5508 102.047 65.4961C102.302 65.4596 102.521 65.4414 102.703 65.4414C102.94 65.4414 103.168 65.487 103.387 65.5781C103.605 65.6693 103.824 65.806 104.043 65.9883L104.289 66.3711L104.125 66.5625H103.059L101.746 66.5898C100.743 66.5898 100.142 66.599 99.9414 66.6172C99.7591 66.6354 99.2214 66.681 98.3281 66.7539C97.4349 66.8268 96.8333 66.8815 96.5234 66.918C96.2135 66.9544 95.8307 67.0091 95.375 67.082C94.9193 67.1914 94.6003 67.2552 94.418 67.2734L94.0078 67.3555L93.5977 67.4922L92.75 67.7656C92.6224 67.7109 92.4674 67.6289 92.2852 67.5195L91.793 67.1641L91.5742 66.8086C91.6107 66.6992 91.7201 66.6445 91.9023 66.6445L92.4766 66.6172L93.1328 66.5352L93.7344 66.4805L94.6367 66.3711L95.457 66.2617L95.5664 65.3867L95.6758 64.457L94.7461 64.5938C94.418 64.5938 94.181 64.5664 94.0352 64.5117C93.8893 64.4753 93.7799 64.3112 93.707 64.0195L94.4727 63.8555L95.7852 63.6914C95.7852 63.5273 95.7943 63.3542 95.8125 63.1719C95.8307 62.9896 95.8398 62.8164 95.8398 62.6523C95.8034 62.4701 95.7487 62.2695 95.6758 62.0508L95.8945 61.5586C96.168 61.5586 96.4596 61.6315 96.7695 61.7773C97.0977 61.9049 97.3255 62.0326 97.4531 62.1602L97.5625 62.625C97.4349 62.8438 97.3438 63.0169 97.2891 63.1445L97.1797 63.4453ZM96.4961 66.0977C96.8789 66.0612 97.1706 66.0247 97.3711 65.9883L98.5195 65.8789L99.0117 65.8242L99.2305 64.9219C99.2669 64.7943 99.3034 64.5755 99.3398 64.2656L99.0938 63.8828C98.9115 63.8646 98.7201 63.8828 98.5195 63.9375L97.5625 64.1289L96.9336 64.2383L96.7695 65.0039L96.4961 66.0977ZM96.7969 76.7617C96.5599 76.7982 96.3867 76.8255 96.2773 76.8438L95.5117 76.9531C95.293 76.9896 95.0469 77.0352 94.7734 77.0898C94.5 77.1445 94.3086 77.1901 94.1992 77.2266C94.0898 77.2448 93.9622 77.2904 93.8164 77.3633L93.5703 77.418C93.4427 77.418 93.3242 77.3633 93.2148 77.2539C93.1055 77.1445 93.0143 77.026 92.9414 76.8984L92.832 76.6523C92.832 76.5247 92.9141 76.3698 93.0781 76.1875C93.224 76.0052 93.3516 75.7773 93.4609 75.5039C93.5885 75.2122 93.6615 74.957 93.6797 74.7383L93.7617 74.2461C93.5065 74.1367 93.3971 73.9271 93.4336 73.6172C93.7253 73.599 94.0534 73.5716 94.418 73.5352L95.7031 73.4258L96.7969 73.2891V72.5781L96.7695 72.1953L96.6875 71.5391L96.2227 71.6211L95.5664 71.7031L95.4023 71.9492C95.3294 72.0768 95.1654 72.1133 94.9102 72.0586C94.7643 71.8034 94.6732 71.5664 94.6367 71.3477L94.3086 69.7617C94.2721 69.5612 94.2083 69.3789 94.1172 69.2148C94.026 69.0326 93.9258 68.8776 93.8164 68.75L93.6797 68.3945L93.9805 68.2852C94.2904 68.3216 94.5182 68.3672 94.6641 68.4219L95.0742 68.5859C95.5482 68.5312 95.8945 68.4766 96.1133 68.4219L97.4258 68.2031C98.0638 68.112 98.4466 68.0482 98.5742 68.0117L99.4219 67.8203L99.7227 67.793C99.9049 67.793 100.087 67.8294 100.27 67.9023C100.452 67.9753 100.661 68.0755 100.898 68.2031C101.135 68.349 101.29 68.5039 101.363 68.668L101.336 69.1055L100.953 69.3516L100.598 69.7344L100.215 70.3086C100.251 70.5091 100.333 70.6641 100.461 70.7734L100.434 71.1289C100.215 71.1654 99.8776 71.2018 99.4219 71.2383C98.9661 71.2565 98.6289 71.2839 98.4102 71.3203L97.6992 71.457L98.1367 71.6758L98.3281 71.8945C98.3464 72.0221 98.3372 72.168 98.3008 72.332L98.1914 72.8516L98.082 73.207C98.3372 73.1523 98.5651 73.0977 98.7656 73.043C98.9661 73.0065 99.194 72.9518 99.4492 72.8789C99.7044 72.806 99.9232 72.7695 100.105 72.7695C100.288 72.7695 100.452 72.7969 100.598 72.8516C100.798 72.9062 100.962 73.0065 101.09 73.1523L101.309 73.3984C101.272 73.526 101.145 73.6081 100.926 73.6445C100.707 73.681 100.415 73.7174 100.051 73.7539L98.9297 73.918L98.0547 74.0273L97.9453 75.8047C98.3099 75.7865 98.5924 75.7682 98.793 75.75C98.9935 75.7318 99.276 75.6953 99.6406 75.6406C100.005 75.5859 100.288 75.5495 100.488 75.5312C100.689 75.513 100.853 75.5039 100.98 75.5039C101.126 75.5221 101.299 75.5768 101.5 75.668C101.701 75.7409 101.865 75.832 101.992 75.9414C102.12 76.0508 102.22 76.2422 102.293 76.5156C102.257 76.625 102.147 76.6797 101.965 76.6797H100.488L99.4219 76.6523C99.2214 76.6341 99.0573 76.625 98.9297 76.625L98.6836 76.6523L97.918 76.707L97.8633 77.418C97.8268 77.7461 97.7904 78.0378 97.7539 78.293C97.7174 78.5482 97.6354 78.8034 97.5078 79.0586L97.2344 79.4141C97.1068 79.3958 97.0065 79.2773 96.9336 79.0586C96.8789 78.8398 96.8424 78.4935 96.8242 78.0195L96.7969 77.3086V76.7617ZM96.8242 74.1367L94.8828 74.3008L94.8555 74.6016C94.819 74.7292 94.7643 74.9023 94.6914 75.1211L94.4453 75.668L94.4727 76.2695C94.7096 76.2331 95.0378 76.1784 95.457 76.1055L96.2773 75.9961L96.7969 75.9414L96.8242 74.1367ZM95.457 70.9375C95.8945 70.8828 96.2044 70.8372 96.3867 70.8008C96.6055 70.7643 96.9701 70.6914 97.4805 70.582C97.9909 70.4727 98.3099 70.3997 98.4375 70.3633L99.0117 70.2266L99.1211 69.8164C99.1576 69.707 99.194 69.5247 99.2305 69.2695L99.0938 68.75C98.9479 68.6771 98.7839 68.6406 98.6016 68.6406L98.2461 68.668C97.8815 68.7044 97.6081 68.7409 97.4258 68.7773L96.5234 68.9414L95.8398 69.0781L95.3203 69.1055L95.457 70.9375ZM90.7539 60.793L92.8594 60.6289C93.5521 60.5924 94.0443 60.5651 94.3359 60.5469C94.6458 60.5286 95.3841 60.4648 96.5508 60.3555C97.7539 60.2643 98.6562 60.1914 99.2578 60.1367L101.172 59.918C101.828 59.8451 102.348 59.7904 102.73 59.7539C103.132 59.6992 103.423 59.6536 103.605 59.6172L104.316 59.4805C104.608 59.4076 104.818 59.3711 104.945 59.3711C105.109 59.3711 105.337 59.4258 105.629 59.5352C105.921 59.6445 106.212 59.7904 106.504 59.9727C106.796 60.1185 107.069 60.3008 107.324 60.5195L107.707 60.9023C107.707 61.0664 107.689 61.2122 107.652 61.3398L107.434 61.8047C107.361 62.0052 107.306 62.1966 107.27 62.3789C107.233 62.543 107.197 62.8529 107.16 63.3086L107.051 64.375C107.014 64.7578 106.996 65.2409 106.996 65.8242C106.978 66.043 106.969 66.4076 106.969 66.918C106.987 67.4284 106.996 68.2122 106.996 69.2695V72.332C106.996 72.806 107.014 73.5534 107.051 74.5742C107.087 75.5951 107.124 76.4609 107.16 77.1719L107.188 79.168V79.9062C107.188 80.3255 107.178 80.6536 107.16 80.8906C107.069 81.3828 106.923 81.793 106.723 82.1211C106.54 82.4492 106.322 82.6953 106.066 82.8594L105.602 83.0508C105.456 83.0508 105.337 82.987 105.246 82.8594C105.155 82.75 105.009 82.4492 104.809 81.957L104.426 81.1367L104.098 80.4531H103.031C102.812 80.4531 102.521 80.4622 102.156 80.4805C101.628 80.5169 101.217 80.5352 100.926 80.5352L92.8047 81.0273C92.2031 81.082 91.7747 81.1185 91.5195 81.1367L90.8633 81.1641H90.4805L90.0977 81.0273L90.043 81.5742C89.9883 81.8659 89.9154 82.0846 89.8242 82.2305L89.5508 82.4492C89.4232 82.4492 89.2956 82.3763 89.168 82.2305C89.0221 82.0846 88.8672 81.875 88.7031 81.6016C88.5573 81.3281 88.4479 81.0365 88.375 80.7266C88.375 80.5078 88.3841 80.3255 88.4023 80.1797C88.4206 79.9609 88.4935 79.5052 88.6211 78.8125C88.7669 78.1198 88.8763 77.418 88.9492 76.707C89.0404 75.9779 89.1315 75.0664 89.2227 73.9727L89.4141 71.0742C89.4688 70.2174 89.5052 69.2331 89.5234 68.1211C89.5599 67.0091 89.5781 66.1706 89.5781 65.6055L89.5234 63.9922C89.5052 63.4271 89.4779 62.9805 89.4414 62.6523C89.4049 62.2878 89.3503 61.9779 89.2773 61.7227C89.2044 61.4492 89.1224 61.2031 89.0312 60.9844L88.9492 60.6016C88.9857 60.4922 89.1224 60.4284 89.3594 60.4102C89.5052 60.4102 89.6328 60.4284 89.7422 60.4648C89.9062 60.5013 90.1341 60.5742 90.4258 60.6836L90.7539 60.793ZM90.9453 61.7773C90.9271 62.5065 90.918 63.0352 90.918 63.3633L90.8086 65.5781L90.7539 68.0117L90.6445 70.8008L90.5625 73.5898C90.5443 74.319 90.4987 75.3034 90.4258 76.543C90.3893 77.7643 90.3529 78.5664 90.3164 78.9492L90.1797 80.125L100.598 79.4414C100.853 79.4414 101.263 79.4049 101.828 79.332C102.393 79.2591 102.822 79.2227 103.113 79.2227C103.405 79.2227 103.669 79.2591 103.906 79.332C104.125 79.4049 104.335 79.4961 104.535 79.6055L105.082 79.9062L105.191 79.5508L105.301 78.8398C105.319 78.5117 105.337 77.9557 105.355 77.1719C105.355 76.388 105.374 75.7409 105.41 75.2305C105.41 74.7018 105.419 74.3737 105.438 74.2461L105.465 68.0938L105.41 65.9883L105.355 64.2656L105.191 62.707C105.155 62.1055 105.1 61.6862 105.027 61.4492C104.991 61.2305 104.918 61.0846 104.809 61.0117C104.717 60.9388 104.544 60.8932 104.289 60.875C104.052 60.8568 103.733 60.8477 103.332 60.8477L101.527 60.957L99.5039 61.0117C98.9206 61.0482 98.4102 61.0846 97.9727 61.1211C97.5716 61.1576 96.6784 61.2487 95.293 61.3945C93.9076 61.5404 93.0964 61.6315 92.8594 61.668C92.6224 61.6862 92.3581 61.7135 92.0664 61.75L91.5742 61.8047L90.9453 61.7773ZM158.84 69.9531C158.548 69.9531 158.366 69.8711 158.293 69.707C158.202 69.4883 158.111 69.306 158.02 69.1602C157.928 68.9961 157.764 68.8047 157.527 68.5859L157.582 68.4766C158.238 68.7135 158.667 68.832 158.867 68.832C159.013 68.832 159.122 68.8047 159.195 68.75C159.268 68.6953 159.387 68.5677 159.551 68.3672C159.788 68.112 160.007 67.7201 160.207 67.1914C160.48 66.4076 160.654 65.5964 160.727 64.7578V64.6758C160.727 64.5664 160.708 64.4935 160.672 64.457C160.435 64.457 159.806 64.5117 158.785 64.6211C158.22 66.0247 157.564 67.1823 156.816 68.0938C156.087 68.987 155.422 69.4336 154.82 69.4336C154.674 69.4336 154.602 69.3789 154.602 69.2695C154.602 69.2331 154.784 69.0234 155.148 68.6406C155.513 68.2578 155.914 67.7565 156.352 67.1367C156.807 66.4987 157.236 65.7148 157.637 64.7852C157.546 64.7852 157.281 64.8034 156.844 64.8398C156.406 64.8763 156.033 64.9401 155.723 65.0312C155.577 65.1406 155.422 65.1589 155.258 65.0859C155.258 65.0859 155.24 65.0768 155.203 65.0586C155.167 65.0404 155.13 65.013 155.094 64.9766C154.966 64.9036 154.857 64.8125 154.766 64.7031C154.693 64.5755 154.656 64.457 154.656 64.3477C154.656 64.293 154.702 64.2201 154.793 64.1289L155.121 63.6914C155.23 63.5456 155.331 63.3359 155.422 63.0625C155.513 62.7708 155.559 62.5247 155.559 62.3242C155.559 62.1966 155.549 62.1146 155.531 62.0781C155.513 62.0417 155.504 61.9961 155.504 61.9414C155.504 61.8503 155.549 61.8047 155.641 61.8047C155.75 61.8047 155.905 61.8685 156.105 61.9961C156.16 62.0326 156.26 62.1055 156.406 62.2148C156.57 62.306 156.661 62.4154 156.68 62.543C156.68 62.6706 156.607 62.8802 156.461 63.1719L156.105 63.8008C156.069 63.8555 156.051 63.9193 156.051 63.9922C156.051 64.0469 156.069 64.0924 156.105 64.1289C156.16 64.1471 156.224 64.1471 156.297 64.1289L157.938 63.9102C158.12 63.4362 158.266 62.9349 158.375 62.4062V62.2422V61.7773C158.375 61.5768 158.43 61.4948 158.539 61.5312C158.776 61.5859 158.967 61.6589 159.113 61.75C159.387 61.9141 159.523 62.0508 159.523 62.1602C159.523 62.2513 159.487 62.4062 159.414 62.625C159.359 62.8255 159.314 62.9805 159.277 63.0898C159.259 63.1628 159.177 63.3997 159.031 63.8008C159.086 63.8008 159.423 63.7643 160.043 63.6914L160.316 63.6367C160.371 63.6367 160.471 63.6185 160.617 63.582C160.654 63.5638 160.699 63.5547 160.754 63.5547C160.973 63.5547 161.109 63.5638 161.164 63.582C161.237 63.6003 161.346 63.6549 161.492 63.7461C161.656 63.8555 161.766 63.9648 161.82 64.0742C161.875 64.1836 161.893 64.3112 161.875 64.457L161.711 65.3594L161.52 66.3438C161.52 66.4167 161.456 66.6536 161.328 67.0547C161.201 67.4557 161.055 67.8112 160.891 68.1211C160.581 68.7409 160.216 69.2057 159.797 69.5156C159.432 69.8073 159.113 69.9531 158.84 69.9531ZM161.164 78.8945C160.891 78.8945 160.626 78.694 160.371 78.293C160.043 77.7826 159.724 77.3633 159.414 77.0352L158.703 76.2969C158.32 76.7344 157.983 77.0807 157.691 77.3359C157.418 77.5911 157.072 77.8372 156.652 78.0742C155.868 78.5299 155.212 78.7578 154.684 78.7578C154.556 78.7578 154.492 78.7122 154.492 78.6211C154.492 78.5664 154.665 78.4479 155.012 78.2656C155.358 78.0833 155.686 77.8646 155.996 77.6094C156.78 76.9531 157.427 76.2786 157.938 75.5859C157.828 75.4766 157.281 75.0026 156.297 74.1641C156.169 74.0729 155.978 73.918 155.723 73.6992C155.668 73.6628 155.559 73.5807 155.395 73.4531C155.23 73.3255 155.148 73.2344 155.148 73.1797C155.148 73.0885 155.194 73.043 155.285 73.043C155.559 73.043 155.996 73.2344 156.598 73.6172C157.199 73.9818 157.828 74.4193 158.484 74.9297C158.74 74.6198 158.94 74.3281 159.086 74.0547C159.232 73.7812 159.396 73.444 159.578 73.043C159.669 72.8424 159.724 72.6693 159.742 72.5234C159.76 72.3594 159.77 72.2591 159.77 72.2227C159.77 72.0221 159.824 71.9219 159.934 71.9219C160.061 71.9219 160.234 72.0221 160.453 72.2227C160.836 72.5872 161.027 72.8333 161.027 72.9609C161.027 73.0339 160.982 73.1159 160.891 73.207C160.672 73.4258 160.471 73.7174 160.289 74.082C160.18 74.3008 159.979 74.6107 159.688 75.0117C159.596 75.1211 159.523 75.2214 159.469 75.3125C159.414 75.4036 159.359 75.4857 159.305 75.5586C159.724 75.8685 160.344 76.3971 161.164 77.1445C161.365 77.3268 161.492 77.5 161.547 77.6641C161.62 77.8099 161.656 78.0104 161.656 78.2656C161.656 78.4479 161.611 78.6029 161.52 78.7305C161.428 78.8398 161.31 78.8945 161.164 78.8945ZM166.742 67.082C166.961 67.082 167.07 67.1823 167.07 67.3828C167.07 67.4922 166.97 67.6471 166.77 67.8477C166.223 68.5221 165.138 69.8073 163.516 71.7031C163.388 71.8672 163.27 71.9492 163.16 71.9492C163.069 71.9492 162.868 71.8125 162.559 71.5391C162.303 71.3203 162.176 71.138 162.176 70.9922C162.176 70.8281 162.312 70.6732 162.586 70.5273C163.005 70.2904 163.634 69.8164 164.473 69.1055C165.311 68.3581 165.931 67.7656 166.332 67.3281C166.496 67.1641 166.633 67.082 166.742 67.082ZM142.488 64.1289C142.78 64.1471 142.999 64.2018 143.145 64.293L143.309 64.7031C143.199 64.9219 143.117 65.168 143.062 65.4414L144.375 65.25L145.277 65.0312L145.852 65.1406C146.161 65.1953 146.38 65.25 146.508 65.3047L146.699 65.4961L146.672 65.6875C146.581 65.7786 146.48 65.8333 146.371 65.8516L142.926 66.6172V67.2461C142.944 67.4284 142.999 67.5833 143.09 67.7109C143.181 67.8385 143.427 67.9023 143.828 67.9023C144.174 67.9023 144.576 67.8568 145.031 67.7656C145.56 67.6745 145.997 67.5378 146.344 67.3555C146.654 67.1914 146.891 67.1094 147.055 67.1094C147.182 67.1276 147.346 67.2005 147.547 67.3281C147.766 67.4557 147.921 67.5924 148.012 67.7383L148.121 68.0938C148.085 68.2943 147.775 68.4583 147.191 68.5859C146.608 68.7318 145.879 68.8411 145.004 68.9141C144.676 68.9505 144.384 68.9688 144.129 68.9688C143.728 68.9688 143.4 68.9323 143.145 68.8594C142.707 68.7318 142.397 68.5495 142.215 68.3125C142.033 68.0938 141.941 67.875 141.941 67.6562L141.887 66.8086C141.358 66.8997 140.921 66.9453 140.574 66.9453C140.246 66.9271 140 66.8724 139.836 66.7812L139.59 66.4258C139.699 66.3164 139.872 66.2344 140.109 66.1797L141.887 65.8789L141.832 65.1133C141.796 64.931 141.759 64.7669 141.723 64.6211L141.668 64.2656L139.207 64.6758L139.398 65.1953C139.289 65.4688 139.216 65.7513 139.18 66.043C139.161 66.3346 139.098 66.8997 138.988 67.7383L138.633 70.3633C138.469 71.457 138.305 72.4779 138.141 73.4258C137.958 74.3737 137.712 75.3672 137.402 76.4062C137.111 77.4453 136.764 78.3659 136.363 79.168C135.962 79.9336 135.589 80.5443 135.242 81C134.896 81.4557 134.577 81.8385 134.285 82.1484L133.793 82.7227L133.41 82.832C133.41 82.6862 133.447 82.5404 133.52 82.3945L133.738 82.0117C134.121 81.319 134.513 80.5625 134.914 79.7422C135.297 78.9036 135.652 77.9375 135.98 76.8438C136.29 75.7682 136.555 74.7109 136.773 73.6719C137.01 72.6328 137.174 71.7305 137.266 70.9648C137.357 70.1992 137.439 69.306 137.512 68.2852C137.585 67.3008 137.63 66.5716 137.648 66.0977C137.667 65.6419 137.676 65.3503 137.676 65.2227L137.648 64.7578L137.293 64.5117L137.102 64.1289C137.211 63.9831 137.384 63.9102 137.621 63.9102L138.414 63.8555C139.034 63.819 139.471 63.7826 139.727 63.7461L141.914 63.3633L141.75 60.2461C141.732 59.8268 141.704 59.5443 141.668 59.3984L141.367 58.4961L141.75 58.168C142.133 58.1862 142.424 58.2318 142.625 58.3047C142.826 58.3594 143.008 58.4414 143.172 58.5508L143.418 58.9062C143.436 59.0339 143.418 59.1615 143.363 59.2891C143.29 59.4896 143.254 59.6992 143.254 59.918L143.199 61.0117C143.673 60.8294 144.102 60.6745 144.484 60.5469C144.867 60.4193 145.204 60.2917 145.496 60.1641C145.788 60.0547 146.025 60 146.207 60C146.371 60.0182 146.535 60.0638 146.699 60.1367C146.882 60.2096 147.036 60.2917 147.164 60.3828L147.273 60.793C147.109 60.9388 146.918 61.0299 146.699 61.0664L144.703 61.4492C144.411 61.5039 144.12 61.5312 143.828 61.5312L143.199 61.3945L143.09 63.1992L146.316 62.5977L147.465 62.3242C147.738 62.2695 147.957 62.2422 148.121 62.2422C148.358 62.2604 148.641 62.3242 148.969 62.4336C149.315 62.5612 149.643 62.707 149.953 62.8711C150.263 63.0352 150.518 63.1992 150.719 63.3633C150.883 63.5091 150.938 63.7005 150.883 63.9375C150.792 64.0286 150.618 64.1198 150.363 64.2109C150.108 64.2839 149.88 64.3568 149.68 64.4297C149.479 64.5208 149.251 64.6393 148.996 64.7852L148.34 65.168L147.793 65.4961L147.41 65.3594L147.711 64.8398C147.839 64.6393 147.939 64.4115 148.012 64.1562L148.066 63.7461L147.902 63.5L147.301 63.418C147.082 63.3997 146.882 63.4089 146.699 63.4453L142.488 64.1289ZM139.617 81.4102L139.125 78.8945C139.089 78.7305 139.007 78.5117 138.879 78.2383C138.733 77.9831 138.587 77.7826 138.441 77.6367L138.223 77.3633C138.241 77.2539 138.314 77.1719 138.441 77.1172L138.852 77.1445L139.727 77.2539L145.387 76.5703C145.934 76.5156 146.426 76.4336 146.863 76.3242C147.319 76.2148 147.611 76.1602 147.738 76.1602C147.957 76.1784 148.185 76.2331 148.422 76.3242C148.659 76.4336 148.914 76.5794 149.188 76.7617C149.461 76.9622 149.634 77.1263 149.707 77.2539L149.816 77.582L149.434 78.0742C149.251 78.2565 149.087 78.5208 148.941 78.8672L148.613 79.6602L148.23 80.6445L149.215 80.5352L150.199 80.4531C150.491 80.4531 150.728 80.4805 150.91 80.5352C151.092 80.6081 151.348 80.7174 151.676 80.8633C152.022 81.0456 152.241 81.1914 152.332 81.3008L152.25 81.7383L151.812 81.7656C151.576 81.7656 151.238 81.7565 150.801 81.7383H148.449C147.939 81.7383 147.255 81.7474 146.398 81.7656C145.523 81.8021 144.63 81.8659 143.719 81.957C142.826 82.0299 141.96 82.112 141.121 82.2031C140.283 82.2943 139.727 82.3763 139.453 82.4492C139.18 82.4857 138.842 82.5586 138.441 82.668C138.095 82.7591 137.849 82.8047 137.703 82.8047C137.503 82.8047 137.348 82.7773 137.238 82.7227C137.129 82.668 136.947 82.5586 136.691 82.3945C136.436 82.2305 136.299 82.0026 136.281 81.7109L137.348 81.6289L139.617 81.4102ZM140.574 81.3555L142.242 81.1094L142.023 79.2773C141.969 78.7669 141.905 78.4297 141.832 78.2656L141.586 77.7188C141.039 77.7734 140.702 77.819 140.574 77.8555L139.973 77.9922L140.574 81.3555ZM142.762 77.582L143.09 77.9648C143.108 78.0742 143.108 78.1836 143.09 78.293C143.053 78.5117 143.035 78.8034 143.035 79.168L143.008 81.082L144.43 80.9453C144.521 79.8151 144.566 79.1133 144.566 78.8398L144.484 77.418L142.762 77.582ZM145.004 80.918L146.918 80.7812L147.246 78.7305C147.337 78.2565 147.374 77.9102 147.355 77.6914C147.337 77.5456 147.228 77.4089 147.027 77.2812L146.562 77.2539L145.387 77.3633C145.478 77.4544 145.596 77.6185 145.742 77.8555C145.76 77.9831 145.724 78.1654 145.633 78.4023C145.505 78.6576 145.423 78.8854 145.387 79.0859L145.004 80.918ZM140.684 70.5273C141.632 70.418 142.26 70.3359 142.57 70.2812C142.88 70.2266 143.473 70.0898 144.348 69.8711C145.259 69.6706 145.842 69.5339 146.098 69.4609C146.353 69.4062 146.572 69.3698 146.754 69.3516C146.973 69.3516 147.219 69.3971 147.492 69.4883C147.766 69.5977 147.993 69.707 148.176 69.8164C148.358 69.9258 148.531 70.0443 148.695 70.1719L148.941 70.5273C148.941 70.6732 148.878 70.8555 148.75 71.0742C148.659 71.2018 148.577 71.3385 148.504 71.4844C148.413 71.6484 148.34 71.8398 148.285 72.0586L147.574 74.3008C147.483 74.556 147.383 74.793 147.273 75.0117C147.146 75.2669 146.936 75.4492 146.645 75.5586C146.517 75.5221 146.398 75.4492 146.289 75.3398L145.961 75.0117L141.285 75.4219C141.249 75.5495 141.203 75.6771 141.148 75.8047L140.793 75.9961C140.684 75.8867 140.583 75.7773 140.492 75.668C140.419 75.5586 140.374 75.3763 140.355 75.1211L139.973 72.4414C139.863 71.7669 139.745 71.3385 139.617 71.1562L139.234 70.5273C139.289 70.418 139.38 70.3451 139.508 70.3086L140.055 70.3906L140.684 70.5273ZM142.98 72.3594L142.926 70.8828C142.197 70.974 141.741 71.0286 141.559 71.0469L140.848 71.1289L141.039 72.6055L142.98 72.3594ZM141.176 74.5742L142.926 74.3008V73.1523L141.121 73.3438L141.176 74.5742ZM144.074 74.2188C144.366 74.1823 144.621 74.1549 144.84 74.1367C145.059 74.1185 145.259 74.1094 145.441 74.1094L145.797 74.1641L146.207 74.3555L146.645 72.5781L144.129 72.9609L144.074 74.2188ZM144.156 72.1133C144.466 72.0768 144.785 72.0312 145.113 71.9766L145.605 71.8945C145.788 71.8763 146.016 71.9036 146.289 71.9766L146.699 72.1133L146.918 70.9648V70.7188C146.882 70.5547 146.736 70.4362 146.48 70.3633C146.298 70.3451 146.125 70.3542 145.961 70.3906L144.238 70.6914L144.211 71.2109L144.156 72.1133ZM133.273 68.2305L134.613 66.3984C134.85 66.0885 134.996 65.8151 135.051 65.5781L135.188 65.168L135.379 65.0039C135.507 64.9857 135.652 65.0221 135.816 65.1133C136.181 65.3503 136.454 65.5964 136.637 65.8516L136.883 66.3438C136.846 66.4714 136.764 66.5807 136.637 66.6719L135.926 67.0273L133.246 68.668L133.137 70.3633C133.082 70.9831 133.027 71.5117 132.973 71.9492L132.727 73.6172L133.438 73.918C133.711 74.0273 133.939 74.1367 134.121 74.2461C134.303 74.3555 134.495 74.5104 134.695 74.7109C134.896 74.9115 135.051 75.1576 135.16 75.4492C135.215 75.5951 135.242 75.7318 135.242 75.8594C135.242 76.0052 135.215 76.1419 135.16 76.2695C135.051 76.5247 134.923 76.6523 134.777 76.6523C134.613 76.6523 134.458 76.6068 134.312 76.5156C134.148 76.4245 134.021 76.3242 133.93 76.2148C133.839 76.0872 133.729 75.9232 133.602 75.7227L133.082 74.957L132.617 74.1367L132.098 75.8867C131.952 76.3607 131.742 76.862 131.469 77.3906C131.195 77.9375 130.895 78.4388 130.566 78.8945C130.22 79.3503 129.865 79.7513 129.5 80.0977C129.154 80.4258 128.816 80.7083 128.488 80.9453L127.996 81.3008L127.695 81.1641L128.16 80.5078L129.035 79.3047C129.29 78.9583 129.564 78.5026 129.855 77.9375C130.147 77.3724 130.393 76.7982 130.594 76.2148C130.794 75.668 130.977 75.0117 131.141 74.2461C131.305 73.4987 131.432 72.8151 131.523 72.1953C131.615 71.5573 131.688 70.7826 131.742 69.8711C131.797 68.9232 131.833 68.0938 131.852 67.3828L131.879 63.6914L131.824 62.6523C131.788 61.9961 131.742 61.5768 131.688 61.3945C131.633 61.2122 131.56 61.0026 131.469 60.7656L131.332 60.3555L131.578 60.0547C131.742 60.0365 131.879 60.0456 131.988 60.082C132.171 60.1185 132.316 60.1549 132.426 60.1914L133.055 60.4102C133.365 60.5378 133.565 60.6654 133.656 60.793C133.747 60.9023 133.793 61.0482 133.793 61.2305L133.656 61.7227C133.602 61.9049 133.547 62.151 133.492 62.4609C133.438 62.7708 133.41 63.1628 133.41 63.6367L133.273 68.2305ZM128.324 68.1484C128.251 67.9479 128.188 67.7565 128.133 67.5742L128.188 67.2461H128.406C128.789 67.3372 129.135 67.5013 129.445 67.7383C129.755 67.957 130.01 68.1849 130.211 68.4219C130.411 68.6589 130.548 68.9049 130.621 69.1602C130.694 69.3971 130.74 69.707 130.758 70.0898C130.758 70.418 130.676 70.6549 130.512 70.8008C130.366 70.9466 130.193 71.0195 129.992 71.0195C129.792 70.9831 129.609 70.8281 129.445 70.5547C129.263 70.2995 129.126 70.0625 129.035 69.8438C128.926 69.625 128.816 69.3607 128.707 69.0508L128.324 68.1484Z" fill="#333333"/>
</svg>
