<svg width="252" height="84" viewBox="0 0 252 84" fill="none" xmlns="http://www.w3.org/2000/svg">
<path d="M109.934 7.49609C109.77 7.49609 109.852 7.35547 110.18 7.07422C110.508 6.79297 110.906 6.45313 111.375 6.05469C111.844 5.63281 112.371 5.08203 112.957 4.40234C113.332 3.95703 113.613 3.48828 113.801 2.99609C113.918 2.71484 114.047 2.57422 114.188 2.57422C114.305 2.57422 114.48 2.66797 114.715 2.85547C115.184 3.23047 115.418 3.54687 115.418 3.80469C115.418 3.96875 115.324 4.08594 115.137 4.15625C115.043 4.17969 114.902 4.28516 114.715 4.47266C114.527 4.63672 114.387 4.76563 114.293 4.85938C113.285 5.84375 112.348 6.55859 111.48 7.00391C110.777 7.33203 110.309 7.49609 110.074 7.49609H109.934ZM113.625 14.0352C113.555 14.0352 113.438 13.9414 113.273 13.7539C113.133 13.543 113.027 13.3438 112.957 13.1562C112.934 13.0156 112.934 12.8398 112.957 12.6289C113.004 12.3945 113.027 12.2188 113.027 12.1016C113.074 11.6328 113.098 11.2578 113.098 10.9766C113.121 10.7187 113.121 10.4375 113.098 10.1328C113.098 9.82813 113.098 9.62891 113.098 9.53516L113.062 9.00781C112.5 9.40625 112.066 9.6875 111.762 9.85156C111.082 10.2266 110.59 10.4609 110.285 10.5547C109.91 10.6953 109.57 10.7656 109.266 10.7656C109.102 10.7656 109.008 10.7422 108.984 10.6953C108.938 10.6016 109.406 10.2617 110.391 9.67578C111.328 9.08984 112.348 8.31641 113.449 7.35547C114.059 6.79297 114.527 6.25391 114.855 5.73828C114.902 5.66797 114.938 5.58594 114.961 5.49219C115.008 5.375 115.055 5.30469 115.102 5.28125C115.172 5.25781 115.266 5.26953 115.383 5.31641C115.688 5.48047 115.945 5.71484 116.156 6.01953C116.25 6.13672 116.297 6.25391 116.297 6.37109C116.297 6.48828 116.238 6.60547 116.121 6.72266C116.004 6.81641 115.887 6.88672 115.77 6.93359C115.371 7.19141 115.008 7.47266 114.68 7.77734C114.352 8.08203 114.141 8.28125 114.047 8.375C114.398 8.65625 114.574 8.85547 114.574 8.97266L114.469 9.71094C114.422 9.92188 114.398 10.4492 114.398 11.293C114.398 12.1133 114.422 12.6641 114.469 12.9453V13.0156C114.469 13.1328 114.434 13.2617 114.363 13.4023C114.316 13.5195 114.281 13.6016 114.258 13.6484C114.094 13.9063 113.883 14.0352 113.625 14.0352ZM117.211 22.9648C116.859 22.9648 116.52 22.707 116.191 22.1914C115.77 21.5352 115.359 20.9961 114.961 20.5742L114.047 19.625C113.555 20.1875 113.121 20.6328 112.746 20.9609C112.395 21.2891 111.949 21.6055 111.41 21.9102C110.402 22.4961 109.559 22.7891 108.879 22.7891C108.715 22.7891 108.633 22.7305 108.633 22.6133C108.633 22.543 108.855 22.3906 109.301 22.1562C109.746 21.9219 110.168 21.6406 110.566 21.3125C111.574 20.4688 112.406 19.6016 113.062 18.7109C112.922 18.5703 112.219 17.9609 110.953 16.8828C110.789 16.7656 110.543 16.5664 110.215 16.2852C110.145 16.2383 110.004 16.1328 109.793 15.9688C109.582 15.8047 109.477 15.6875 109.477 15.6172C109.477 15.5 109.535 15.4414 109.652 15.4414C110.004 15.4414 110.566 15.6875 111.34 16.1797C112.113 16.6484 112.922 17.2109 113.766 17.8672C114.094 17.4688 114.352 17.0938 114.539 16.7422C114.727 16.3906 114.938 15.957 115.172 15.4414C115.289 15.1836 115.359 14.9609 115.383 14.7734C115.406 14.5625 115.418 14.4336 115.418 14.3867C115.418 14.1289 115.488 14 115.629 14C115.793 14 116.016 14.1289 116.297 14.3867C116.789 14.8555 117.035 15.1719 117.035 15.3359C117.035 15.4297 116.977 15.5352 116.859 15.6523C116.578 15.9336 116.32 16.3086 116.086 16.7773C115.945 17.0586 115.688 17.457 115.312 17.9727C115.195 18.1133 115.102 18.2422 115.031 18.3594C114.961 18.4766 114.891 18.582 114.82 18.6758C115.359 19.0742 116.156 19.7539 117.211 20.7148C117.469 20.9492 117.633 21.1719 117.703 21.3828C117.797 21.5703 117.844 21.8281 117.844 22.1562C117.844 22.3906 117.785 22.5898 117.668 22.7539C117.551 22.8945 117.398 22.9648 117.211 22.9648ZM117.844 27.6055C118.102 27.8867 118.23 28.1211 118.23 28.3086C118.23 28.4727 118.137 28.625 117.949 28.7656C117.832 28.8594 117.539 29.375 117.07 30.3125C116.555 31.1562 115.98 31.8828 115.348 32.4922C114.738 33.125 114.129 33.582 113.52 33.8633C113.379 33.9102 113.262 33.9336 113.168 33.9336C113.074 33.9336 113.027 33.9102 113.027 33.8633V33.793C113.027 33.6523 113.145 33.4883 113.379 33.3008C113.801 32.9727 114.117 32.6328 114.328 32.2812C114.562 31.9531 114.738 31.707 114.855 31.543C115.348 30.8398 115.699 30.2656 115.91 29.8203C116.145 29.4219 116.309 29.0117 116.402 28.5898H116.262C115.652 28.5898 114.668 28.6602 113.309 28.8008C113.098 28.8242 112.488 28.9062 111.48 29.0469C111.27 29.0703 110.941 29.1289 110.496 29.2227L110.074 29.3281C109.98 29.375 109.887 29.3984 109.793 29.3984C109.676 29.3984 109.559 29.375 109.441 29.3281C109.324 29.2578 109.207 29.1758 109.09 29.082C108.809 28.8477 108.668 28.6484 108.668 28.4844C108.691 28.4375 108.715 28.3672 108.738 28.2734C108.785 28.1797 108.809 28.0977 108.809 28.0273L108.984 26.8672C109.008 26.75 109.031 26.6211 109.055 26.4805C109.078 26.3398 109.09 26.1992 109.09 26.0586C109.09 25.6133 109.078 25.2617 109.055 25.0039C109.055 24.7227 109.02 24.4297 108.949 24.125V24.0195C108.949 23.8555 109.02 23.7734 109.16 23.7734C109.301 23.7734 109.547 23.8789 109.898 24.0898C110.367 24.418 110.602 24.6758 110.602 24.8633C110.602 24.9336 110.59 24.9922 110.566 25.0391C110.543 25.0859 110.52 25.1328 110.496 25.1797C110.426 25.6016 110.391 25.8359 110.391 25.8828L110.215 27.7461C110.215 27.793 110.238 27.8516 110.285 27.9219C110.355 27.9688 110.426 27.9922 110.496 27.9922C111.059 27.9922 112.324 27.8516 114.293 27.5703C115.066 27.5 115.617 27.418 115.945 27.3242C116.156 27.3008 116.332 27.2656 116.473 27.2188C116.637 27.1484 116.742 27.1133 116.789 27.1133C116.93 27.0664 117.023 27.043 117.07 27.043C117.281 27.043 117.539 27.2305 117.844 27.6055ZM84.1289 17.2344L81.7383 17.9023L80.6836 18.1836C79.957 18.3711 79.4766 18.4766 79.2422 18.5C78.9609 18.5 78.7031 18.4766 78.4688 18.4297C78.1641 18.3594 77.8242 18.207 77.4492 17.9727C77.0508 17.7383 76.7578 17.4102 76.5703 16.9883C76.6641 16.8477 76.8398 16.7656 77.0977 16.7422L77.9766 16.707C78.7031 16.6836 79.4766 16.6484 80.2969 16.6016C81.1172 16.5312 81.8555 16.4375 82.5117 16.3203L84.7617 15.9336C85.0898 15.1836 85.2891 14.7148 85.3594 14.5273L85.8164 13.1562C85.4414 13.1797 85.1484 13.2031 84.9375 13.2266C84.7266 13.25 84.375 13.2969 83.8828 13.3672C83.3906 13.4609 82.9922 13.5078 82.6875 13.5078C82.3125 13.5078 82.0195 13.4609 81.8086 13.3672C81.5273 13.25 81.3164 13.1211 81.1758 12.9805L81.0352 12.6641C81.0586 12.5 81.1758 12.418 81.3867 12.418L82.0547 12.3477C82.2188 12.3477 82.6172 12.3125 83.25 12.2422C83.8828 12.1719 84.4805 12.1133 85.043 12.0664L86.2383 11.9258C86.543 10.9883 86.7188 10.4023 86.7656 10.168L87.0469 8.76172C86.1797 8.83203 85.3945 8.91406 84.6914 9.00781C83.9648 9.07812 83.4961 9.11328 83.2852 9.11328H82.7578C82.2891 9.11328 81.9375 9.06641 81.7031 8.97266C81.3984 8.83203 81.1758 8.66797 81.0352 8.48047L80.8945 8.12891L81.1406 7.95312H81.8789L82.8633 7.84766L84.9023 7.70703L87.293 7.35547L87.4336 5.45703V5.10547C87.4336 4.84766 87.4102 4.53125 87.3633 4.15625C87.3164 3.80469 87.2812 3.55859 87.2578 3.41797L87.1172 2.64453L87.4688 2.39844C87.7031 2.375 87.9492 2.41016 88.207 2.50391C88.5352 2.64453 88.8633 2.79688 89.1914 2.96094C89.5195 3.125 89.8008 3.32422 90.0352 3.55859C90.2695 3.79297 90.3867 4.02734 90.3867 4.26172L90.1406 4.75391C89.9766 5.01172 89.8477 5.30469 89.7539 5.63281L89.2617 7.07422L92.1445 6.65234L93.7266 6.30078C94.0078 6.25391 94.2656 6.21875 94.5 6.19531C94.8984 6.19531 95.3203 6.28906 95.7656 6.47656C96.1641 6.61719 96.3633 6.79297 96.3633 7.00391C96.3398 7.23828 96.2461 7.37891 96.082 7.42578L95.3789 7.63672C95.1445 7.68359 94.7461 7.75391 94.1836 7.84766L91.9336 8.19922C91.1367 8.31641 90.4688 8.39844 89.9297 8.44531L88.9805 8.55078C88.7227 9.46484 88.5703 10.0273 88.5234 10.2383L88.1367 11.6445L90.3164 11.2578C90.7852 11.1875 91.3242 11.082 91.9336 10.9414C92.543 10.7773 93.0352 10.6836 93.4102 10.6602C93.7617 10.6602 94.043 10.6836 94.2539 10.7305C94.582 10.7773 94.8867 10.8711 95.168 11.0117L95.625 11.3984C95.625 11.5859 95.4609 11.7266 95.1328 11.8203C94.875 11.8906 94.5234 11.9492 94.0781 11.9961C93.6328 12.043 93.0586 12.1133 92.3555 12.207L90.2109 12.5586L87.8555 12.9102C87.5273 13.8008 87.3281 14.3516 87.2578 14.5625L86.8711 15.6523C87.5742 15.582 88.1016 15.5234 88.4531 15.4766L92.0742 15.1602C92.7305 15.1133 93.4453 15.0195 94.2188 14.8789C94.9922 14.7617 95.6133 14.6445 96.082 14.5273L97.1367 14.2461C97.6055 14.1523 97.9688 14.1055 98.2266 14.1055C98.5312 14.1055 98.8008 14.1523 99.0352 14.2461C99.293 14.3398 99.668 14.4922 100.16 14.7031C100.652 14.9141 100.969 15.1367 101.109 15.3711L101.215 15.9336C101.121 16.1211 100.934 16.2266 100.652 16.25L99.8789 16.2852L97.6992 16.2148C97.3477 16.2148 96.6914 16.2383 95.7305 16.2852L92.918 16.3555H91.6523L92.7773 17.1992L94.8867 18.9922C96.0117 19.9531 97.0195 20.7617 97.9102 21.418C98.8008 22.0742 99.5391 22.5547 100.125 22.8594C100.711 23.1641 101.566 23.5508 102.691 24.0195C103.816 24.4648 104.801 24.793 105.645 25.0039L106.594 25.7422L105.855 25.9531L103.605 26.4102C102.668 26.5977 101.941 26.6914 101.426 26.6914C100.816 26.6211 100.266 26.4219 99.7734 26.0938C99.2812 25.7656 98.8242 25.3789 98.4023 24.9336L95.6602 21.9805C94.3008 20.4805 93.2461 19.3672 92.4961 18.6406C91.793 17.9141 91.2539 17.4336 90.8789 17.1992L89.9297 16.4961C88.875 16.6133 88.2305 16.6836 87.9961 16.707L86.2734 16.918C85.5703 18.2773 84.9961 19.2852 84.5508 19.9414C84.1055 20.5977 83.4961 21.3242 82.7227 22.1211C81.9727 22.9648 81.1875 23.7031 80.3672 24.3359C79.5469 24.9688 78.7852 25.4844 78.082 25.8828C77.332 26.2812 76.5938 26.6211 75.8672 26.9023C75.1406 27.1602 74.6602 27.3242 74.4258 27.3945L73.4062 27.2188L74.2852 26.6562L75.2695 26.0938C75.8789 25.7656 76.5469 25.3438 77.2734 24.8281C78 24.3359 78.7148 23.7734 79.418 23.1406C80.1211 22.5078 80.8828 21.7227 81.7031 20.7852C82.5469 19.8477 83.0977 19.1445 83.3555 18.6758L84.1289 17.2344ZM90.9844 32.3867L88.7344 32.5977C87.7031 32.6914 87.1055 32.7383 86.9414 32.7383L85.2539 32.7734L85.1133 33.3359C84.9727 33.7578 84.8086 33.9688 84.6211 33.9688C84.4336 33.9453 84.2461 33.793 84.0586 33.5117C83.8477 33.207 83.7188 32.8438 83.6719 32.4219C83.6719 32.1172 83.6953 31.8008 83.7422 31.4727C83.7891 31.0273 83.8125 30.5117 83.8125 29.9258L83.6367 24.8633C83.5898 24.207 83.5195 23.7266 83.4258 23.4219C83.3555 23.1172 83.2734 22.8828 83.1797 22.7188L83.0742 22.4023C83.1211 22.2617 83.3438 22.168 83.7422 22.1211L84.7266 22.332L85.8516 22.1914C86.25 22.1445 86.7305 22.0625 87.293 21.9453L89.1914 21.5586C89.8477 21.418 90.3164 21.3008 90.5977 21.207C90.8789 21.1367 91.1602 21.043 91.4414 20.9258L92.1094 20.7148C92.3672 20.6914 92.5898 20.7148 92.7773 20.7852C93.0352 20.8789 93.3164 21.0312 93.6211 21.2422C93.9492 21.4531 94.2305 21.6641 94.4648 21.875L94.8516 22.3672C94.8516 22.5312 94.8164 22.6836 94.7461 22.8242C94.6758 23.0117 94.6172 23.2109 94.5703 23.4219C94.5 23.6328 94.4648 23.832 94.4648 24.0195C94.418 24.207 94.3828 24.582 94.3594 25.1445V25.7422C94.3594 26.1406 94.3711 26.5742 94.3945 27.043C94.418 27.6055 94.4648 28.1914 94.5352 28.8008L94.8164 30.5938C94.9102 31.2031 94.957 31.6602 94.957 31.9648C94.9102 32.5742 94.7344 33.1836 94.4297 33.793C94.1016 34.4023 93.7852 34.7773 93.4805 34.918L92.9531 35.0586C92.6953 35.0352 92.4492 34.8008 92.2148 34.3555C92.0039 33.9336 91.7695 33.5234 91.5117 33.125L90.9844 32.3867ZM85.3242 31.5781C86.3555 31.4609 87.1406 31.3672 87.6797 31.2969L89.5078 31.0508C90.1875 30.9336 90.6445 30.875 90.8789 30.875C91.2539 30.8984 91.5352 30.957 91.7227 31.0508L92.4609 31.4727L92.6367 27.0078C92.1211 27.125 91.7344 27.1953 91.4766 27.2188L89.0508 27.6758C87.9727 27.8633 87.2109 27.9805 86.7656 28.0273L86.3438 28.0625H85.9922L85.2539 27.8867L85.3242 31.5781ZM85.2539 26.9023C85.4883 26.9023 85.6992 26.8906 85.8867 26.8672C86.0742 26.8438 86.5664 26.7617 87.3633 26.6211C88.207 26.457 88.8867 26.3047 89.4023 26.1641C89.9648 26 90.3867 25.918 90.668 25.918C90.9258 25.918 91.1602 25.9297 91.3711 25.9531C91.6758 26 92.0391 26.1055 92.4609 26.2695L92.6367 23.3164C92.6133 22.9414 92.5547 22.6953 92.4609 22.5781C92.3438 22.4609 92.1211 22.3906 91.793 22.3672C91.4883 22.3672 91.1602 22.3789 90.8086 22.4023L89.2617 22.4727C88.8867 22.5195 88.3477 22.6367 87.6445 22.8242C86.9414 22.9883 86.4492 23.1172 86.168 23.2109L85.5352 23.3516L85.3945 23.7031C85.418 23.8438 85.418 24.043 85.3945 24.3008C85.3477 24.5352 85.3242 24.7344 85.3242 24.8984L85.2539 26.9023ZM170.121 13.6836C169.957 13.6836 169.781 13.5781 169.594 13.3672C169.453 13.2031 169.359 13.0742 169.312 12.9805C169.266 12.8633 169.266 12.7109 169.312 12.5234L169.348 11.6797C169.371 11.5156 169.383 11.1172 169.383 10.4844V9.32422L168.328 9.81641L167.098 10.3438C166.793 10.4609 166.477 10.6016 166.148 10.7656C165.867 10.9062 165.621 10.9766 165.41 10.9766C165.246 10.9531 165.059 10.8945 164.848 10.8008C164.637 10.707 164.473 10.625 164.355 10.5547C164.098 10.3906 163.98 10.2148 164.004 10.0273L164.109 9.67578C164.109 9.48828 164.121 9.32422 164.145 9.18359L164.18 7.14453V5.24609C164.18 4.87109 164.156 4.55469 164.109 4.29688C164.062 4.01562 164.027 3.81641 164.004 3.69922C164.004 3.58203 164.039 3.5 164.109 3.45312C164.133 3.42969 164.191 3.41797 164.285 3.41797C164.449 3.41797 164.766 3.52344 165.234 3.73438C165.633 3.92188 165.797 4.15625 165.727 4.4375C165.68 4.60156 165.633 4.84766 165.586 5.17578L165.48 9.21875C165.48 9.33594 165.492 9.42969 165.516 9.5C165.562 9.54688 165.609 9.57031 165.656 9.57031C165.938 9.57031 166.277 9.48828 166.676 9.32422C167.426 9.08984 168.07 8.85547 168.609 8.62109L169.383 8.30469V5.98438C169.383 5.04688 169.324 4.14453 169.207 3.27734C169.184 3.20703 169.172 3.125 169.172 3.03125C169.172 2.79688 169.266 2.67969 169.453 2.67969C169.477 2.67969 169.605 2.72656 169.84 2.82031C170.191 3.00781 170.449 3.17188 170.613 3.3125C170.777 3.45312 170.871 3.53516 170.895 3.55859C170.988 3.62891 171.035 3.69922 171.035 3.76953C171.035 3.81641 171.012 3.875 170.965 3.94531C170.941 4.01562 170.918 4.07422 170.895 4.12109L170.789 5.17578L170.754 8.41016L170.789 11.5391C170.789 12.0781 170.754 12.5469 170.684 12.9453C170.566 13.4375 170.379 13.6836 170.121 13.6836ZM163.652 19.4492C163.395 19.4492 163.078 19.25 162.703 18.8516C162.422 18.5703 162.281 18.3594 162.281 18.2188C162.281 18.1484 162.328 18.1133 162.422 18.1133C162.516 18.0898 162.633 18.0781 162.773 18.0781L163.547 18.043C163.992 18.043 164.285 18.0312 164.426 18.0078C164.871 18.0078 165.246 17.9961 165.551 17.9727C167.566 17.7852 168.926 17.6328 169.629 17.5156C169.98 17.4688 170.297 17.4219 170.578 17.375C170.859 17.3047 171.082 17.2695 171.246 17.2695C171.574 17.2695 171.902 17.4336 172.23 17.7617C172.488 18.0195 172.617 18.2305 172.617 18.3945C172.617 18.5352 172.535 18.6289 172.371 18.6758C172.254 18.6992 171.562 18.7461 170.297 18.8164C169.594 18.8398 168.727 18.8984 167.695 18.9922C166.664 19.0859 165.762 19.1797 164.988 19.2734C164.848 19.2969 164.648 19.332 164.391 19.3789C164.133 19.4258 163.887 19.4492 163.652 19.4492ZM168.363 33.9688C167.637 33.9688 167.074 33.9453 166.676 33.8984C166.301 33.8516 165.984 33.7109 165.727 33.4766C165.281 33.1484 164.977 32.4336 164.812 31.332L164.707 30.207C164.707 29.9258 164.684 29.5742 164.637 29.1523C164.262 29.1992 163.992 29.2461 163.828 29.293C163.781 29.3164 163.699 29.3516 163.582 29.3984C163.488 29.4219 163.418 29.4336 163.371 29.4336C163.207 29.4336 163.055 29.3867 162.914 29.293C162.773 29.1992 162.598 29.0234 162.387 28.7656C162.223 28.5547 162.141 28.4141 162.141 28.3438C162.141 28.2734 162.223 28.2266 162.387 28.2031C162.551 28.1797 162.773 28.168 163.055 28.168C163.453 28.168 163.969 28.1211 164.602 28.0273L164.566 27.5352C164.566 26.5977 164.508 25.8008 164.391 25.1445L164.355 24.8984C164.355 24.5703 164.484 24.4414 164.742 24.5117C165.023 24.6055 165.281 24.7227 165.516 24.8633C165.703 24.957 165.832 25.0508 165.902 25.1445C165.973 25.2148 165.996 25.3203 165.973 25.4609L165.867 26.9727V27.8867L168.961 27.5703C168.961 27.4062 168.973 27.0195 168.996 26.4102C169.02 25.7773 169.02 25.3672 168.996 25.1797C168.996 24.9922 168.973 24.8164 168.926 24.6523C168.902 24.4648 168.879 24.3125 168.855 24.1953C168.855 24.0078 168.949 23.9141 169.137 23.9141C169.324 23.9141 169.559 24.0195 169.84 24.2305C170.168 24.4414 170.379 24.6289 170.473 24.793C170.59 24.957 170.613 25.1562 170.543 25.3906C170.426 25.7656 170.344 26.1875 170.297 26.6562C170.25 27.125 170.227 27.4062 170.227 27.5C170.508 27.4766 170.766 27.4414 171 27.3945C171.234 27.3477 171.387 27.3242 171.457 27.3242C171.645 27.2773 171.867 27.2539 172.125 27.2539C172.266 27.2773 172.465 27.418 172.723 27.6758C172.934 27.957 173.039 28.1797 173.039 28.3438C173.039 28.5781 172.816 28.6719 172.371 28.625C171.973 28.5547 171.574 28.5195 171.176 28.5195C170.777 28.5195 170.438 28.5312 170.156 28.5547C170.086 29.3984 169.945 30.2305 169.734 31.0508C169.688 31.2383 169.605 31.4023 169.488 31.543C169.371 31.6602 169.266 31.7188 169.172 31.7188C169.008 31.7188 168.902 31.6602 168.855 31.543C168.832 31.4023 168.82 31.1914 168.82 30.9102C168.867 30.3008 168.891 29.5391 168.891 28.625C168.258 28.6719 167.766 28.7188 167.414 28.7656C166.875 28.8828 166.371 28.9531 165.902 28.9766C165.879 29.9375 165.926 30.793 166.043 31.543C166.113 32.0352 166.254 32.375 166.465 32.5625C166.605 32.6797 166.77 32.75 166.957 32.7734C167.168 32.7969 167.379 32.8086 167.59 32.8086C167.801 32.8086 167.941 32.8086 168.012 32.8086C168.738 32.8086 169.418 32.7734 170.051 32.7031C170.238 32.6797 170.402 32.6328 170.543 32.5625C170.707 32.4922 170.824 32.457 170.895 32.457C171.105 32.457 171.316 32.5273 171.527 32.668C171.738 32.8086 171.844 32.9727 171.844 33.1602C171.844 33.3477 171.738 33.4883 171.527 33.582C171.34 33.6758 171.035 33.7578 170.613 33.8281C169.863 33.9219 169.113 33.9688 168.363 33.9688ZM178.383 17.9727C178.664 17.9727 178.805 18.1016 178.805 18.3594C178.805 18.5 178.676 18.6992 178.418 18.957C177.715 19.8242 176.32 21.4766 174.234 23.9141C174.07 24.125 173.918 24.2305 173.777 24.2305C173.66 24.2305 173.402 24.0547 173.004 23.7031C172.676 23.4219 172.512 23.1875 172.512 23C172.512 22.7891 172.688 22.5898 173.039 22.4023C173.578 22.0977 174.387 21.4883 175.465 20.5742C176.543 19.6133 177.34 18.8516 177.855 18.2891C178.066 18.0781 178.242 17.9727 178.383 17.9727ZM139.992 26.3398C139.875 26.1523 139.781 25.9883 139.711 25.8477C139.617 25.707 139.523 25.5195 139.43 25.2852V24.4414L140.379 24.6523L141.328 25.0742C141.75 25.2617 142.125 25.4492 142.453 25.6367C142.781 25.8477 143.051 26.1641 143.262 26.5859C143.426 26.9375 143.508 27.3477 143.508 27.8164C143.484 28.2852 143.367 28.6484 143.156 28.9062C142.969 29.1641 142.723 29.293 142.418 29.293C142.113 29.293 141.797 29.1055 141.469 28.7305C141.281 28.543 141.105 28.2734 140.941 27.9219L140.414 27.043L136.617 29.7852L135.352 30.8398L134.508 31.6836L134.086 31.9648C133.852 31.9648 133.617 31.8125 133.383 31.5078C133.172 31.25 132.984 30.9336 132.82 30.5586C132.68 30.2539 132.609 29.9609 132.609 29.6797L132.82 29.0117C132.961 28.6367 133.066 28.25 133.137 27.8516C133.207 27.4297 133.266 26.9492 133.312 26.4102C133.359 25.8945 133.406 25.1445 133.453 24.1602L133.629 18.043C133.629 17.7148 133.617 17.375 133.594 17.0234C133.547 16.6719 133.488 16.3789 133.418 16.1445C133.348 15.9102 133.242 15.6992 133.102 15.5117L132.82 15.2305L132.75 14.8789C132.844 14.7383 133.008 14.668 133.242 14.668C133.805 14.668 134.25 14.7617 134.578 14.9492L135.105 15.2305C135.691 15.1602 136.172 15.0898 136.547 15.0195C136.945 14.9727 137.438 14.8789 138.023 14.7383C138.586 14.5977 139.02 14.4805 139.324 14.3867C139.629 14.293 139.945 14.1758 140.273 14.0352C140.602 13.8945 140.859 13.8242 141.047 13.8242C141.234 13.8477 141.457 13.918 141.715 14.0352L142.453 14.4219L142.91 14.7383C143.332 14.9961 143.602 15.207 143.719 15.3711L143.754 16.0039L143.402 16.5312C143.332 16.6719 143.227 16.9062 143.086 17.2344L142.91 17.7617L142.031 21.0312L141.68 22.4023C141.492 22.8711 141.305 23.1641 141.117 23.2812L140.73 23.4219H140.484L140.027 22.9648C139.395 23.0352 138.914 23.082 138.586 23.1055L136.16 23.457L135.281 23.5273L135.07 27.3945L135.211 28.168C135.398 28.168 135.609 28.1211 135.844 28.0273L139.992 26.3398ZM135.281 22.3672C135.703 22.3438 136.031 22.3203 136.266 22.2969C136.5 22.2734 136.852 22.2031 137.32 22.0859C137.836 21.9688 138.281 21.875 138.656 21.8047C138.938 21.7578 139.195 21.7344 139.43 21.7344L140.098 21.8047L140.695 19.0977C140.109 19.1445 139.676 19.1914 139.395 19.2383L137.707 19.5195C137.215 19.6133 136.816 19.6602 136.512 19.6602L135.949 19.5898L135.422 19.4141L135.281 22.3672ZM135.457 18.6758C135.902 18.6523 136.254 18.6172 136.512 18.5703C136.77 18.5234 137.203 18.418 137.812 18.2539C138.375 18.0898 138.797 17.9961 139.078 17.9727C139.477 17.9727 139.863 18.043 140.238 18.1836L140.801 18.3945L140.977 17.3047C141.023 17 141.047 16.6602 141.047 16.2852C141.047 15.9102 140.988 15.6641 140.871 15.5469C140.754 15.4297 140.59 15.3711 140.379 15.3711C140.145 15.3945 139.852 15.4531 139.5 15.5469C139.172 15.6172 138.633 15.7227 137.883 15.8633C137.109 16.0039 136.617 16.0742 136.406 16.0742L135.668 16.1094L135.457 18.6758ZM148.148 17.1992C148.055 17.5742 147.996 17.8555 147.973 18.043C147.949 18.2305 147.914 18.5352 147.867 18.957C147.82 19.3789 147.797 19.7305 147.797 20.0117L147.691 27.1133C147.668 28.0977 147.586 29.2461 147.445 30.5586L147.305 32.0703C147.211 32.9844 147.047 33.7695 146.812 34.4258C146.578 35.0586 146.367 35.375 146.18 35.375C146.016 35.3516 145.875 35.0117 145.758 34.3555C145.641 33.7227 145.57 32.9844 145.547 32.1406C145.523 31.5781 145.512 31.0156 145.512 30.4531V29.5742L145.652 20.3633C145.676 19.7539 145.688 19.2617 145.688 18.8867C145.688 18.5117 145.676 18.2539 145.652 18.1133C145.629 17.8086 145.594 17.457 145.547 17.0586C145.5 16.6602 145.418 16.332 145.301 16.0742L145.16 15.3711L145.336 15.1602C145.547 15.1602 145.805 15.207 146.109 15.3008C146.719 15.4883 147.117 15.6406 147.305 15.7578L147.867 16.1094L149.59 15.7227C150.176 15.582 150.773 15.418 151.383 15.2305L152.156 15.0195C152.531 14.9023 152.859 14.7734 153.141 14.6328L153.633 14.457C153.797 14.457 153.996 14.5273 154.23 14.668C154.465 14.8086 154.711 14.9727 154.969 15.1602C155.25 15.3477 155.52 15.5586 155.777 15.793C155.988 15.9805 156.059 16.2617 155.988 16.6367C155.801 16.8945 155.672 17.1289 155.602 17.3398C155.555 17.5508 155.508 17.832 155.461 18.1836C155.414 18.5586 155.391 18.9453 155.391 19.3438L155.18 23.1055C155.133 24.043 155.062 24.7695 154.969 25.2852C154.898 25.8008 154.746 26.2578 154.512 26.6562C154.254 27.0547 153.961 27.3711 153.633 27.6055L153 27.8867C152.812 27.8398 152.625 27.6992 152.438 27.4648C152.227 27.207 151.934 26.8789 151.559 26.4805C151.207 26.0586 150.867 25.6836 150.539 25.3555L149.906 24.793L149.695 24.3008C149.836 24.2773 150 24.3008 150.188 24.3711L150.996 24.6172C151.465 24.7812 151.828 24.875 152.086 24.8984C152.297 24.8984 152.473 24.8633 152.613 24.793C152.824 24.6523 152.953 24.3477 153 23.8789C153.07 23.3633 153.117 22.8711 153.141 22.4023L153.281 17.832C153.281 17.293 153.258 16.9414 153.211 16.7773L153.07 16.4961C152.93 16.3555 152.719 16.2852 152.438 16.2852C152.203 16.2852 151.805 16.332 151.242 16.4258L149.66 16.7422L148.148 17.1992ZM148.852 6.40625L153.281 5.52734C153.516 5.48047 153.773 5.41016 154.055 5.31641L154.688 5.17578C154.992 5.15234 155.25 5.16406 155.461 5.21094C155.742 5.28125 156.035 5.41016 156.34 5.59766L156.832 5.94922C156.855 6.08984 156.773 6.25391 156.586 6.44141C156.398 6.58203 156.129 6.6875 155.777 6.75781L154.477 7.00391C154.102 7.05078 153.574 7.12109 152.895 7.21484C152.215 7.28516 151.605 7.35547 151.066 7.42578C150.527 7.51953 150.164 7.56641 149.977 7.56641C149.602 7.56641 149.238 7.51953 148.887 7.42578L148.289 7.32031L147.27 8.72656C146.871 9.24219 146.391 9.76953 145.828 10.3086C145.219 10.8711 144.82 11.2109 144.633 11.3281L144 11.7148L143.578 11.8555L143.332 11.6797L143.578 11.293L144.352 10.3086C144.68 9.91016 144.949 9.55859 145.16 9.25391C145.371 8.92578 145.617 8.51562 145.898 8.02344C146.203 7.53125 146.449 7.09766 146.637 6.72266C146.801 6.37109 146.953 6.01953 147.094 5.66797C147.234 5.29297 147.34 4.98828 147.41 4.75391C147.48 4.49609 147.562 4.23828 147.656 3.98047C147.703 3.69922 147.727 3.44141 147.727 3.20703L147.938 2.64453L148.184 2.53906C148.348 2.53906 148.535 2.58594 148.746 2.67969C149.027 2.79688 149.32 2.94922 149.625 3.13672C149.93 3.32422 150.164 3.52344 150.328 3.73438L150.539 4.15625L150.469 4.47266C150.352 4.58984 150.188 4.75391 149.977 4.96484C149.742 5.19922 149.531 5.43359 149.344 5.66797L148.852 6.40625ZM137.25 7.28516L138.234 7.10938C138.656 7.03906 139.324 6.86328 140.238 6.58203L140.766 6.40625L141.645 6.16016L142.172 6.26562C142.453 6.33594 142.664 6.39453 142.805 6.44141C142.945 6.51172 143.086 6.60547 143.227 6.72266L143.473 6.96875C143.496 7.13281 143.438 7.27344 143.297 7.39062C143.109 7.50781 142.805 7.61328 142.383 7.70703L141.539 7.91797C141.352 7.96484 140.883 8.03516 140.133 8.12891L138.938 8.30469C138.633 8.32812 138.387 8.33984 138.199 8.33984L137.742 8.30469L136.828 7.98828L135.773 9.21875C135.445 9.61719 135.07 10.0156 134.648 10.4141C134.227 10.8359 133.84 11.1758 133.488 11.4336C133.137 11.668 132.762 11.9023 132.363 12.1367L131.168 12.5234C131.145 12.3594 131.203 12.207 131.344 12.0664L131.941 11.5039C132.293 11.1758 132.609 10.8477 132.891 10.5195C133.172 10.2383 133.512 9.81641 133.91 9.25391C134.309 8.69141 134.672 8.12891 135 7.56641C135.328 7.05078 135.609 6.58203 135.844 6.16016C136.055 5.73828 136.23 5.33984 136.371 4.96484C136.512 4.58984 136.582 4.21484 136.582 3.83984L136.863 3.3125C137.168 3.3125 137.496 3.41797 137.848 3.62891C138.199 3.81641 138.434 3.96875 138.551 4.08594C138.691 4.20313 138.82 4.33203 138.938 4.47266L139.148 5.17578C139.102 5.31641 138.984 5.44531 138.797 5.5625L138.41 5.80859L137.742 6.72266L137.25 7.28516ZM137.391 10.0625C137.648 10.0156 137.883 10.0039 138.094 10.0273L138.867 10.2031C139.078 10.2734 139.312 10.3438 139.57 10.4141C139.828 10.4844 140.039 10.5898 140.203 10.7305C140.391 10.8711 140.52 11.0117 140.59 11.1523C140.66 11.293 140.695 11.5039 140.695 11.7852C140.695 12.1602 140.602 12.4414 140.414 12.6289C140.25 12.8164 140.039 12.9219 139.781 12.9453C139.57 12.9453 139.312 12.8164 139.008 12.5586C138.797 12.3945 138.516 12.1133 138.164 11.7148C137.812 11.3398 137.555 11.0469 137.391 10.8359C137.25 10.625 137.25 10.3672 137.391 10.0625ZM149.414 8.90234L150.293 9.04297C150.926 9.18359 151.465 9.35938 151.91 9.57031C152.332 9.78125 152.648 10.0273 152.859 10.3086C153.047 10.5898 153.141 10.9648 153.141 11.4336C153.117 11.9961 152.918 12.3594 152.543 12.5234C152.238 12.5234 151.945 12.4297 151.664 12.2422C151.289 12.0312 150.926 11.7266 150.574 11.3281L149.695 10.2383L149.027 8.9375C149.191 8.89062 149.32 8.87891 149.414 8.90234Z" fill="#333333"/>
<path d="M73.582 69.2422C72.707 69.2422 72.1237 69.1875 71.832 69.0781C71.4857 68.9141 71.2578 68.5404 71.1484 67.957C71.0938 67.6471 71.0664 67.2552 71.0664 66.7812L70.957 65.0039V64.3203C70.9388 64.3021 70.9297 64.2565 70.9297 64.1836L70.9023 63.8828C70.8841 63.737 70.8021 63.5638 70.6562 63.3633C70.6016 63.2539 70.5742 63.1719 70.5742 63.1172C70.5742 62.9896 70.7292 62.9531 71.0391 63.0078C71.3672 63.0625 71.7409 63.0898 72.1602 63.0898C72.4518 63.0898 72.9987 63.0716 73.8008 63.0352C74.0742 63.0169 74.7122 62.9349 75.7148 62.7891L76.5898 62.5977L76.8086 62.543C76.9727 62.543 77.1732 62.6432 77.4102 62.8438C77.6107 63.0078 77.7109 63.1628 77.7109 63.3086C77.7109 63.4909 77.5742 63.6003 77.3008 63.6367C76.5898 63.6914 76.043 63.7188 75.6602 63.7188L74.6758 63.7734C74.3841 63.8099 74.1836 63.8281 74.0742 63.8281C72.8711 63.8828 72.1875 63.9102 72.0234 63.9102C72.0234 65.1862 72.0326 65.9792 72.0508 66.2891C72.0872 66.7995 72.1146 67.2005 72.1328 67.4922C72.1693 67.7839 72.2148 67.9753 72.2695 68.0664C72.306 68.1393 72.3698 68.194 72.4609 68.2305C72.5703 68.2487 72.6706 68.2669 72.7617 68.2852C72.8711 68.2852 72.9531 68.2852 73.0078 68.2852C73.026 68.2852 73.0716 68.2943 73.1445 68.3125C73.2357 68.3125 73.4089 68.3125 73.6641 68.3125C73.8464 68.3125 74.1562 68.2943 74.5938 68.2578C75.1589 68.2214 75.7057 68.1484 76.2344 68.0391C76.362 68.0208 76.6536 68.0117 77.1094 68.0117C77.3281 68.0117 77.5378 68.112 77.7383 68.3125C77.8294 68.4036 77.875 68.5312 77.875 68.6953C77.875 68.8229 77.8385 68.9141 77.7656 68.9688C77.6562 69.0234 77.4831 69.069 77.2461 69.1055C77.0273 69.1237 76.7448 69.1419 76.3984 69.1602C75.3958 69.2148 74.457 69.2422 73.582 69.2422ZM74.4023 79.6602C74.2747 79.6602 74.1836 79.6237 74.1289 79.5508C74.0742 79.4779 74.0378 79.4323 74.0195 79.4141C73.8372 79.1589 73.7552 78.9128 73.7734 78.6758C73.7917 78.5299 73.819 78.138 73.8555 77.5L73.8828 76.1875C73.8646 75.987 73.8464 75.8685 73.8281 75.832C73.8099 75.7773 73.7279 75.668 73.582 75.5039C73.2904 75.1393 72.9531 74.7656 72.5703 74.3828C72.1328 73.9453 71.8503 73.6536 71.7227 73.5078C71.7227 73.5078 71.4492 73.2344 70.9023 72.6875C70.8477 72.6328 70.8203 72.5781 70.8203 72.5234C70.8203 72.4323 70.875 72.3594 70.9844 72.3047C71.112 72.2318 71.2396 72.2044 71.3672 72.2227C71.7318 72.2591 71.9688 72.3047 72.0781 72.3594C72.2057 72.3958 72.3242 72.5052 72.4336 72.6875C72.543 72.8698 72.6979 73.0885 72.8984 73.3438C73.1172 73.5807 73.2812 73.763 73.3906 73.8906C73.8464 74.4375 74.1654 74.8021 74.3477 74.9844C74.6758 74.6016 75.0859 74.0547 75.5781 73.3438C75.9792 72.8333 76.2161 72.4141 76.2891 72.0859C76.362 71.849 76.4714 71.7305 76.6172 71.7305C76.6901 71.7305 76.7995 71.776 76.9453 71.8672C77.4193 72.1589 77.6562 72.3958 77.6562 72.5781C77.6562 72.6875 77.5378 72.8242 77.3008 72.9883C76.9727 73.2253 76.6992 73.4896 76.4805 73.7812L75.9336 74.4648C75.569 74.9023 75.2956 75.2487 75.1133 75.5039C75.0221 75.668 74.9766 75.9049 74.9766 76.2148V77.8828V78.9766C74.9948 79.1042 74.9219 79.25 74.7578 79.4141C74.612 79.5781 74.4935 79.6602 74.4023 79.6602ZM48.6445 67.9023C48.4622 67.8659 48.3073 67.8294 48.1797 67.793C48.0521 67.7565 47.8242 67.5286 47.4961 67.1094L46.8398 66.3711L46.2383 65.5508L46.1016 65.168C46.2474 65.1497 46.3841 65.1497 46.5117 65.168C46.6576 65.1862 46.9036 65.25 47.25 65.3594C47.5781 65.4505 47.8424 65.5417 48.043 65.6328C48.2617 65.7057 48.4805 65.8242 48.6992 65.9883C48.918 66.1706 49.0365 66.3255 49.0547 66.4531L49.2188 67.082C49.4922 66.7174 49.7109 66.4167 49.875 66.1797C50.0391 65.9427 50.276 65.5417 50.5859 64.9766C50.8958 64.4115 51.1328 63.9557 51.2969 63.6094C51.4792 63.263 51.5977 62.9987 51.6523 62.8164L51.707 62.4609L51.543 62.2148C51.4154 62.1966 51.2786 62.2057 51.1328 62.2422C50.9323 62.2969 50.6862 62.3516 50.3945 62.4062L49.3555 62.5977C49.0273 62.6523 48.7812 62.6797 48.6172 62.6797C48.4531 62.6615 48.2708 62.6341 48.0703 62.5977C47.888 62.5612 47.724 62.4062 47.5781 62.1328L48.125 61.9688C48.4714 61.9323 48.6992 61.9049 48.8086 61.8867L49.957 61.6406C50.3581 61.5495 50.7044 61.4583 50.9961 61.3672L51.8438 61.0664C52.0625 60.9935 52.2448 60.957 52.3906 60.957C52.5182 60.9753 52.6914 61.0299 52.9102 61.1211C53.1289 61.194 53.3385 61.3034 53.5391 61.4492C53.7578 61.5768 53.931 61.7135 54.0586 61.8594L54.2227 62.1328C54.2227 62.2786 54.1589 62.4245 54.0312 62.5703L53.5117 63.1445C53.293 63.3633 53.138 63.5365 53.0469 63.6641C52.9557 63.7734 52.7734 64.056 52.5 64.5117L51.5156 66.1523C51.1328 66.7721 50.832 67.2279 50.6133 67.5195L49.9023 68.4492C50.194 68.3763 50.4492 68.3216 50.668 68.2852C50.8867 68.2487 51.0872 68.194 51.2695 68.1211C51.4518 68.0482 51.6615 67.9479 51.8984 67.8203L52.3359 67.6289C52.5 67.6289 52.7096 67.7018 52.9648 67.8477C53.2383 67.9935 53.4753 68.1302 53.6758 68.2578L53.8945 68.75L53.6211 69.0508C53.5117 69.1784 53.4206 69.3242 53.3477 69.4883L53.2109 69.8984L52.6914 71.4023L53.0195 71.5938L53.2109 71.8398C53.1745 71.9492 53.0924 72.0221 52.9648 72.0586C52.8555 72.0951 52.6549 72.1133 52.3633 72.1133C52.0716 72.1133 51.7708 72.1315 51.4609 72.168L50.2305 72.4141L49.4648 72.4961L49.6836 72.7422V73.0977C49.4466 73.3529 49.2917 73.5807 49.2188 73.7812L48.8633 74.6836C49.2643 74.5742 49.6471 74.4831 50.0117 74.4102C50.3763 74.3372 50.7044 74.2643 50.9961 74.1914L51.4609 74.0547C51.6432 74.0729 51.944 74.1732 52.3633 74.3555C52.7643 74.5378 53.0651 74.7018 53.2656 74.8477C53.4479 74.9935 53.5482 75.1484 53.5664 75.3125L53.4023 75.668L53.0195 76.4609C52.8737 76.7708 52.7826 77.0443 52.7461 77.2812L52.418 79.332C52.3086 79.9518 52.181 80.4258 52.0352 80.7539C51.8893 81.0638 51.6888 81.3919 51.4336 81.7383C51.1602 82.0664 50.9141 82.2943 50.6953 82.4219L50.2852 82.5859C50.1029 82.5677 49.9388 82.4401 49.793 82.2031L49.2188 81.3008C49.0911 81.1549 48.8815 80.9362 48.5898 80.6445L48.0977 80.1797L48.1523 79.8516L48.7266 80.0703L49.1914 80.3164L49.5469 80.4258L49.9023 80.5078C50.1393 80.4714 50.3398 80.3346 50.5039 80.0977C50.6862 79.8424 50.8411 79.4961 50.9688 79.0586C51.0964 78.6393 51.1966 78.2565 51.2695 77.9102L51.543 76.2695C51.6159 75.9232 51.6523 75.6771 51.6523 75.5312C51.6523 75.3854 51.543 75.2305 51.3242 75.0664C51.0872 75.0299 50.7865 75.0391 50.4219 75.0938C50.0391 75.1484 49.7747 75.194 49.6289 75.2305C49.4831 75.2669 49.3372 75.3398 49.1914 75.4492C49.0456 75.5221 48.8268 75.7135 48.5352 76.0234C48.2435 76.3151 48.0065 76.5156 47.8242 76.625L47.3867 76.7891C47.2409 76.7891 47.1133 76.7344 47.0039 76.625C46.8945 76.4974 46.8398 76.306 46.8398 76.0508C46.8398 75.832 46.8763 75.668 46.9492 75.5586C47.0039 75.4492 47.1589 75.2487 47.4141 74.957C47.6875 74.7018 47.8607 74.4193 47.9336 74.1094L48.1523 73.3164L48.2344 72.9062L48.0703 72.5781L47.7695 72.3047L47.6875 72.0039C47.7422 71.8945 47.8789 71.8307 48.0977 71.8125C48.2982 71.7943 48.6263 71.7487 49.082 71.6758L50.1211 71.5117L51.3516 71.1836L51.707 71.1562L52.0352 69.4336L52.0898 69.0508L51.8711 68.8047C51.6523 68.7682 51.3242 68.8047 50.8867 68.9141L50.2305 69.0781L49.793 69.2148L49.3555 69.0508C49.0273 69.4518 48.7539 69.7617 48.5352 69.9805C48.3164 70.1992 47.9883 70.4818 47.5508 70.8281C47.1315 71.1745 46.7305 71.4844 46.3477 71.7578C45.9466 72.0312 45.5638 72.2773 45.1992 72.4961C44.8164 72.6966 44.4974 72.8333 44.2422 72.9062L43.6133 73.0977L43.3945 73.1523L43.1758 73.0977C43.1758 72.9701 43.2852 72.8242 43.5039 72.6602L43.9961 72.332C44.2148 72.1862 44.543 71.9401 44.9805 71.5938C45.418 71.2474 45.8646 70.8737 46.3203 70.4727C46.776 70.0716 47.1589 69.6706 47.4688 69.2695L48.6445 67.9023ZM57.9414 78.4023L56.6016 77.2266L55.5352 76.3242C55.0977 75.9596 54.7878 75.7135 54.6055 75.5859L54.4961 75.2031C54.6784 75.112 54.8698 75.0573 55.0703 75.0391C55.2708 75.0208 55.6263 74.957 56.1367 74.8477L57.2305 74.6289C57.5951 74.556 57.9779 74.4466 58.3789 74.3008L59.1445 74C59.3268 73.9453 59.4909 73.9089 59.6367 73.8906C59.7826 73.8906 59.9102 73.9089 60.0195 73.9453L60.7852 74.2461C61.1497 74.3919 61.3958 74.5286 61.5234 74.6562L61.7148 74.9297C61.6784 75.0573 61.6055 75.1849 61.4961 75.3125L61.1406 75.668C61.0495 75.8138 60.9492 75.9596 60.8398 76.1055L60.1836 77.3086L59.8008 78.0742L60.8945 78.8125C61.1862 79.013 61.487 79.2591 61.7969 79.5508C62.0885 79.8424 62.3346 80.1068 62.5352 80.3438C62.7174 80.5807 62.8451 80.7995 62.918 81C62.9544 81.1276 62.9727 81.3099 62.9727 81.5469C62.9727 81.8568 62.918 82.0938 62.8086 82.2578C62.6992 82.4036 62.5443 82.4766 62.3438 82.4766C62.1979 82.4766 62.0612 82.4219 61.9336 82.3125C61.7878 82.2031 61.5508 81.9753 61.2227 81.6289L58.9258 79.2773L58.1875 79.9883C57.9141 80.2435 57.4766 80.5443 56.875 80.8906C56.2734 81.237 55.7904 81.4648 55.4258 81.5742C55.043 81.6654 54.6784 81.7383 54.332 81.793L53.5664 81.875L53.3477 81.793C53.3477 81.6654 53.4388 81.5742 53.6211 81.5195L54.2227 81.3281C54.332 81.2917 54.5781 81.1641 54.9609 80.9453C55.3438 80.7448 55.6719 80.5534 55.9453 80.3711C56.2005 80.1888 56.5286 79.9062 56.9297 79.5234C57.349 79.1406 57.6315 78.849 57.7773 78.6484L57.9414 78.4023ZM55.7539 75.7227C56.319 75.9779 56.7383 76.1784 57.0117 76.3242L58.3242 77.1172L58.707 77.3633L59.0898 76.4883C59.1992 76.2695 59.2904 76.0417 59.3633 75.8047L59.418 75.3945C59.3451 75.2487 59.2448 75.1758 59.1172 75.1758C58.9896 75.1758 58.8073 75.2214 58.5703 75.3125C58.3333 75.4036 58.0872 75.4674 57.832 75.5039C57.5768 75.5404 57.1211 75.5859 56.4648 75.6406L55.7539 75.7227ZM56.5742 68.6406L56.4648 70.4727C56.4102 71.0742 56.2826 71.6029 56.082 72.0586C55.8997 72.5326 55.6992 72.8607 55.4805 73.043C55.2617 73.2435 54.9701 73.444 54.6055 73.6445L54.2227 73.8906L53.9219 73.8086L54.3867 73.207C54.7513 72.7695 54.9883 72.3776 55.0977 72.0312C55.207 71.6849 55.2982 71.2018 55.3711 70.582C55.4076 69.9622 55.4258 69.5339 55.4258 69.2969C55.4258 69.1693 55.4076 68.9779 55.3711 68.7227L55.2617 68.2852L55.0156 67.875L55.9727 67.9023L56.4648 68.0117C56.793 67.8659 57.0391 67.7474 57.2031 67.6562L57.8594 67.3008C58.0964 67.1914 58.306 67.1276 58.4883 67.1094C58.6523 67.1094 58.8164 67.1367 58.9805 67.1914C59.1992 67.2643 59.4089 67.3646 59.6094 67.4922C59.8099 67.6198 59.9557 67.7474 60.0469 67.875L60.0195 68.3672C59.8737 68.5495 59.7734 68.7409 59.7188 68.9414C59.6458 69.1602 59.582 69.3698 59.5273 69.5703L59.3633 70.4727C59.3268 70.6732 59.3086 70.8555 59.3086 71.0195C59.3086 71.2018 59.3268 71.3659 59.3633 71.5117C59.418 71.7852 59.5456 71.9674 59.7461 72.0586C59.8919 72.1315 60.0924 72.168 60.3477 72.168C60.6758 72.1315 60.9766 72.0495 61.25 71.9219L61.7148 71.7578C61.8971 71.7396 62.0977 71.776 62.3164 71.8672C62.5169 71.9583 62.6992 72.0495 62.8633 72.1406L63.1641 72.3594L63.3008 72.6055C63.2826 72.7513 63.1367 72.8789 62.8633 72.9883C62.5716 73.1341 62.1979 73.2253 61.7422 73.2617C61.5052 73.2799 61.2682 73.2891 61.0312 73.2891C60.7943 73.2891 60.5482 73.2799 60.293 73.2617C59.7826 73.207 59.4089 73.0977 59.1719 72.9336C58.9167 72.7878 58.707 72.5781 58.543 72.3047C58.3971 72.0495 58.3151 71.7396 58.2969 71.375C58.2969 71.0469 58.306 70.7279 58.3242 70.418L58.3789 69.1328L58.4336 68.6406C58.4154 68.4766 58.2969 68.3398 58.0781 68.2305H57.832C57.5768 68.2669 57.3581 68.349 57.1758 68.4766L56.9023 68.6406H56.5742ZM57.3398 61.9141C57.6133 61.4766 57.8138 61.1393 57.9414 60.9023C58.0872 60.6836 58.2331 60.4193 58.3789 60.1094C58.5247 59.7995 58.625 59.5443 58.6797 59.3438L58.9258 58.9336L59.1719 58.9609L59.7734 59.3711C60.138 59.6445 60.3021 59.9635 60.2656 60.3281C60.0651 60.4193 59.819 60.5833 59.5273 60.8203C59.2721 61.0573 58.9167 61.3216 58.4609 61.6133L57.5859 62.1602L59.6094 64.3203L60.5664 63.3906C60.8581 63.1172 61.1042 62.8529 61.3047 62.5977C61.5052 62.3789 61.6784 62.151 61.8242 61.9141L62.1523 61.2852C62.2253 61.1393 62.3255 61.0391 62.4531 60.9844C62.5807 60.9661 62.7174 60.9935 62.8633 61.0664C63.0091 61.1393 63.2188 61.3125 63.4922 61.5859C63.7656 61.8411 63.957 62.0417 64.0664 62.1875L64.2305 62.4609C64.2122 62.5885 64.1484 62.6888 64.0391 62.7617C63.9297 62.7982 63.7383 62.8529 63.4648 62.9258C63.2096 62.9987 62.8451 63.1628 62.3711 63.418C61.8971 63.6732 61.4049 63.9193 60.8945 64.1562L59.9102 64.6211L60.5664 65.2773L61.4414 66.125C61.7331 66.3984 62.0885 66.681 62.5078 66.9727C62.9271 67.3008 63.3828 67.6107 63.875 67.9023C64.3672 68.2122 64.8594 68.4857 65.3516 68.7227C65.8438 68.9779 66.2721 69.1602 66.6367 69.2695L68.2227 69.7891C68.6966 69.9531 68.9336 70.099 68.9336 70.2266C68.9336 70.3542 68.8242 70.4362 68.6055 70.4727L67.457 70.7461C67.056 70.819 66.5365 70.901 65.8984 70.9922C65.4974 71.0469 65.1693 71.0742 64.9141 71.0742C64.75 71.0742 64.6133 71.0651 64.5039 71.0469C64.1576 71.0104 63.8477 70.9193 63.5742 70.7734C63.3008 70.6094 62.8815 70.2083 62.3164 69.5703L61.3867 68.5586C61.2956 68.431 60.8034 67.8203 59.9102 66.7266C59.0352 65.651 58.4427 64.9036 58.1328 64.4844C57.8229 64.0833 57.5586 63.7552 57.3398 63.5C57.1211 63.263 56.8477 63.0078 56.5195 62.7344C56.2096 62.4792 55.8906 62.2878 55.5625 62.1602C55.2526 62.0508 55.043 61.9505 54.9336 61.8594L54.7969 61.6406C54.8151 61.4766 54.9062 61.3581 55.0703 61.2852C55.1979 61.2122 55.3893 61.1758 55.6445 61.1758C55.8997 61.1758 56.1641 61.2214 56.4375 61.3125L56.9297 61.5039L57.3398 61.9141ZM113.285 66.5898C113.085 66.5898 112.839 66.4349 112.547 66.125C112.328 65.9062 112.219 65.7422 112.219 65.6328C112.219 65.5781 112.255 65.5508 112.328 65.5508C112.401 65.5326 112.492 65.5234 112.602 65.5234L113.203 65.4961C113.549 65.4961 113.777 65.487 113.887 65.4688C114.233 65.4688 114.525 65.4596 114.762 65.4414C116.329 65.2956 117.387 65.1771 117.934 65.0859C118.207 65.0495 118.453 65.013 118.672 64.9766C118.891 64.9219 119.064 64.8945 119.191 64.8945C119.447 64.8945 119.702 65.0221 119.957 65.2773C120.158 65.4779 120.258 65.6419 120.258 65.7695C120.258 65.8789 120.194 65.9518 120.066 65.9883C119.975 66.0065 119.438 66.043 118.453 66.0977C117.906 66.1159 117.232 66.1615 116.43 66.2344C115.628 66.3073 114.926 66.3802 114.324 66.4531C114.215 66.4714 114.06 66.4987 113.859 66.5352C113.659 66.5716 113.467 66.5898 113.285 66.5898ZM116.402 79.6602C116.275 79.6602 116.184 79.6237 116.129 79.5508C116.074 79.4779 116.038 79.4323 116.02 79.4141C115.837 79.1589 115.755 78.9128 115.773 78.6758C115.792 78.5299 115.819 78.138 115.855 77.5L115.883 76.1875C115.865 75.987 115.846 75.8685 115.828 75.832C115.81 75.7773 115.728 75.668 115.582 75.5039C115.29 75.1393 114.953 74.7656 114.57 74.3828C114.133 73.9453 113.85 73.6536 113.723 73.5078C113.723 73.5078 113.449 73.2344 112.902 72.6875C112.848 72.6328 112.82 72.5781 112.82 72.5234C112.82 72.4323 112.875 72.3594 112.984 72.3047C113.112 72.2318 113.24 72.2044 113.367 72.2227C113.732 72.2591 113.969 72.3047 114.078 72.3594C114.206 72.3958 114.324 72.5052 114.434 72.6875C114.543 72.8698 114.698 73.0885 114.898 73.3438C115.117 73.5807 115.281 73.763 115.391 73.8906C115.846 74.4375 116.165 74.8021 116.348 74.9844C116.676 74.6016 117.086 74.0547 117.578 73.3438C117.979 72.8333 118.216 72.4141 118.289 72.0859C118.362 71.849 118.471 71.7305 118.617 71.7305C118.69 71.7305 118.799 71.776 118.945 71.8672C119.419 72.1589 119.656 72.3958 119.656 72.5781C119.656 72.6875 119.538 72.8242 119.301 72.9883C118.973 73.2253 118.699 73.4896 118.48 73.7812L117.934 74.4648C117.569 74.9023 117.296 75.2487 117.113 75.5039C117.022 75.668 116.977 75.9049 116.977 76.2148V77.8828V78.9766C116.995 79.1042 116.922 79.25 116.758 79.4141C116.612 79.5781 116.493 79.6602 116.402 79.6602ZM92.4766 61.3672L92.5859 61.9141C92.4948 62.1693 92.431 62.4336 92.3945 62.707C92.3581 62.9987 92.2943 63.6003 92.2031 64.5117C92.112 65.4232 92.0208 66.1797 91.9297 66.7812C91.8385 67.3646 91.6927 68.1849 91.4922 69.2422C91.2917 70.2812 91.1003 71.1562 90.918 71.8672C90.7357 72.5781 90.4987 73.3529 90.207 74.1914C89.9154 75.0299 89.5781 75.7956 89.1953 76.4883C88.8125 77.181 88.4388 77.7461 88.0742 78.1836C87.7096 78.6211 87.418 78.9401 87.1992 79.1406L86.5977 79.6602L86.2695 79.6055L86.7891 78.7852C86.9531 78.5299 87.1536 78.1654 87.3906 77.6914C87.6276 77.2174 87.9102 76.6159 88.2383 75.8867C88.5299 75.1758 88.7943 74.4648 89.0312 73.7539C89.2682 73.0612 89.4779 72.3138 89.6602 71.5117C89.8424 70.7096 90.0156 69.9076 90.1797 69.1055C90.3255 68.3034 90.4349 67.556 90.5078 66.8633C90.599 66.1888 90.6628 65.4961 90.6992 64.7852C90.7721 64.056 90.8086 63.5547 90.8086 63.2812C90.8086 63.0078 90.7995 62.6615 90.7812 62.2422C90.763 61.8594 90.7357 61.6133 90.6992 61.5039L90.5352 61.0117C90.3893 60.9206 90.2526 60.7474 90.125 60.4922C90.1432 60.3646 90.2617 60.2826 90.4805 60.2461L91.5195 60.1914C91.7018 60.1732 92.0846 60.1185 92.668 60.0273L95.7578 59.6445L98.3555 59.3438C99.4857 59.2161 100.206 59.125 100.516 59.0703L102.402 58.7695C103.132 58.6602 103.642 58.5781 103.934 58.5234C104.225 58.4688 104.453 58.4414 104.617 58.4414C104.854 58.4414 105.091 58.487 105.328 58.5781C105.565 58.6693 105.793 58.7695 106.012 58.8789C106.23 58.9883 106.395 59.1068 106.504 59.2344L106.695 59.5078C106.677 59.6536 106.586 59.763 106.422 59.8359C106.258 59.8906 106.03 59.9271 105.738 59.9453L104.48 59.9727C103.788 60.0091 102.876 60.0638 101.746 60.1367C100.579 60.2096 99.6771 60.2826 99.0391 60.3555L96.9609 60.6016C96.2135 60.6927 95.5755 60.7747 95.0469 60.8477L92.9961 61.1211L92.4766 61.3672ZM99.4492 79.8789L99.3672 77.5L97.8359 77.6641C97.4714 77.7005 97.1068 77.7188 96.7422 77.7188C96.25 77.7005 95.8672 77.6549 95.5938 77.582C95.3203 77.5091 95.1016 77.3906 94.9375 77.2266L94.7461 76.9531C94.7826 76.8255 94.9466 76.7617 95.2383 76.7617L96.0859 76.707L97.3984 76.5977C97.8542 76.5612 98.2552 76.5156 98.6016 76.4609L99.3398 76.3242C99.3216 76.1784 99.3125 76.0234 99.3125 75.8594L99.3398 75.6133C99.3034 75.3945 99.2578 75.1849 99.2031 74.9844C99.1484 74.7839 99.0846 74.6107 99.0117 74.4648L98.8477 73.9453C98.9206 73.8177 99.0664 73.7539 99.2852 73.7539C99.5221 73.7721 99.7682 73.8086 100.023 73.8633L100.762 74.082C100.999 74.1549 101.172 74.2461 101.281 74.3555L101.418 74.7383C101.309 74.9935 101.236 75.2122 101.199 75.3945L101.145 75.7227V76.1055C101.363 76.069 101.6 76.0326 101.855 75.9961C102.129 75.9596 102.421 75.9049 102.73 75.832L103.469 75.668C103.651 75.6133 103.815 75.5859 103.961 75.5859C104.107 75.6042 104.28 75.6406 104.48 75.6953C104.663 75.7682 104.845 75.8503 105.027 75.9414C105.21 76.0143 105.355 76.1055 105.465 76.2148L105.492 76.5703C105.328 76.6797 105.137 76.7526 104.918 76.7891L104.098 76.9531C103.879 77.0078 103.496 77.0716 102.949 77.1445L102.047 77.2539L101.09 77.3359L100.926 79.8242C101.436 79.7878 101.801 79.7604 102.02 79.7422C102.238 79.724 102.858 79.6784 103.879 79.6055C104.882 79.5326 105.51 79.4779 105.766 79.4414C106.039 79.4232 106.358 79.3958 106.723 79.3594C107.087 79.3047 107.342 79.2773 107.488 79.2773C107.671 79.3138 107.898 79.3685 108.172 79.4414C108.445 79.5326 108.737 79.6419 109.047 79.7695C109.339 79.8971 109.576 80.043 109.758 80.207C109.904 80.3529 109.977 80.5078 109.977 80.6719C109.94 80.8359 109.831 80.918 109.648 80.918H106.449L103.906 80.9727L101.418 81C100.47 81.0182 99.5951 81.0547 98.793 81.1094C97.9909 81.1641 97.3164 81.2188 96.7695 81.2734L95.1562 81.4648C94.3724 81.556 93.8438 81.6198 93.5703 81.6562L93.0781 81.7383C92.8411 81.7383 92.6224 81.7201 92.4219 81.6836C92.2214 81.6471 91.9753 81.556 91.6836 81.4102C91.3737 81.2279 91.1367 81.082 90.9727 80.9727L90.7539 80.5625C90.8633 80.4349 91.0365 80.3711 91.2734 80.3711H92.2578C92.4766 80.3711 92.9961 80.3346 93.8164 80.2617L95.7852 80.1523C96.4779 80.1159 97.1432 80.0703 97.7812 80.0156L99.4492 79.8789ZM94.3086 68.0938C94.582 68.0391 94.8828 67.9753 95.2109 67.9023C95.5208 67.8477 95.8034 67.793 96.0586 67.7383C96.3138 67.7018 96.5052 67.6654 96.6328 67.6289L97.125 67.4648L97.5078 67.3555C97.6354 67.3372 97.7721 67.3555 97.918 67.4102C98.0638 67.4466 98.2096 67.5195 98.3555 67.6289C98.5013 67.7201 98.6471 67.8294 98.793 67.957L98.9844 68.3672L98.8477 68.7227C98.7747 68.8685 98.7201 69.0143 98.6836 69.1602C98.6471 69.306 98.6107 69.5612 98.5742 69.9258C98.5378 70.2721 98.5195 70.5273 98.5195 70.6914L98.5742 71.8398C98.5742 72.2409 98.5833 72.5872 98.6016 72.8789C98.6016 73.1706 98.5742 73.4258 98.5195 73.6445C98.4466 73.9362 98.3281 74.2096 98.1641 74.4648C97.9818 74.7201 97.8177 74.9023 97.6719 75.0117L97.3711 75.0938C97.2253 75.0755 97.0977 74.9661 96.9883 74.7656C96.8789 74.5651 96.7695 74.3828 96.6602 74.2188C96.569 74.0547 96.4779 73.9271 96.3867 73.8359L96.0586 73.4805L96.1406 73.1523L96.6602 73.2344L96.9883 73.3164L97.207 73.2891C97.3164 73.2161 97.3802 73.1159 97.3984 72.9883C97.4167 72.8789 97.444 72.6784 97.4805 72.3867L97.5078 71.8398V71.293L97.125 71.4844L96.4141 71.7852C96.0677 71.931 95.8125 72.0586 95.6484 72.168L95.3477 72.3594L94.8828 72.4414C94.7552 72.3685 94.6185 72.2135 94.4727 71.9766L94.1992 71.6211C94.0898 71.9857 93.9896 72.2956 93.8984 72.5508C93.8073 72.806 93.6523 73.1068 93.4336 73.4531C93.2331 73.7995 93.0326 74.0638 92.832 74.2461L92.0391 74.6562L92.3945 73.918C92.5404 73.6628 92.6771 73.3529 92.8047 72.9883C92.9323 72.6602 93.0143 72.2773 93.0508 71.8398C93.1237 71.4206 93.1602 70.9648 93.1602 70.4727C93.1784 70.2174 93.1875 69.9896 93.1875 69.7891C93.1875 69.6068 93.1784 69.4518 93.1602 69.3242C93.1602 69.0326 93.1237 68.7956 93.0508 68.6133L92.832 68.0117C92.8867 67.9023 92.987 67.8385 93.1328 67.8203C93.3151 67.8203 93.5612 67.8659 93.8711 67.957L94.3086 68.0938ZM94.2539 71.4023C94.4727 71.3841 94.6641 71.3659 94.8281 71.3477C94.9922 71.3477 95.1562 71.3294 95.3203 71.293C95.4844 71.2747 95.9128 71.2201 96.6055 71.1289L97.5078 70.8008L97.5352 69.6523C97.5534 69.5247 97.5625 69.3971 97.5625 69.2695C97.5625 69.1419 97.5534 69.0143 97.5352 68.8867L97.4805 68.4492C97.4076 68.3398 97.2617 68.2852 97.043 68.2852C96.8607 68.2852 96.569 68.3125 96.168 68.3672L95.293 68.4766L94.5273 68.6133L94.4727 69.1055C94.6549 69.1419 94.8737 69.1602 95.1289 69.1602C95.3841 69.1966 95.5846 69.2148 95.7305 69.2148L96.168 69.3242L96.4961 69.4062C96.6055 69.4609 96.6966 69.5521 96.7695 69.6797L96.8516 70.0078C96.8333 70.2083 96.6602 70.3724 96.332 70.5C96.1133 70.4453 95.8854 70.3359 95.6484 70.1719L94.9648 69.7617L94.4727 69.4062C94.4544 69.7161 94.4362 69.9987 94.418 70.2539C94.3997 70.5091 94.3815 70.7096 94.3633 70.8555L94.2539 71.4023ZM94.8828 66.4805C94.8646 66.6445 94.7826 66.8268 94.6367 67.0273C94.4909 67.0638 94.3633 66.9544 94.2539 66.6992C94.1445 66.5352 94.0716 66.2526 94.0352 65.8516C93.9805 65.4323 93.9258 65.0404 93.8711 64.6758C93.7982 64.3112 93.7435 64.0286 93.707 63.8281C93.6706 63.6276 93.6159 63.4453 93.543 63.2812C93.5065 63.1172 93.4062 62.9622 93.2422 62.8164L93.0508 62.4883C93.1237 62.3789 93.2422 62.3333 93.4062 62.3516L93.7891 62.4062L94.3906 62.543C94.6641 62.4701 94.9466 62.4154 95.2383 62.3789L95.9766 62.2422C96.1771 62.1875 96.4688 62.1146 96.8516 62.0234C97.2344 61.9141 97.5352 61.8138 97.7539 61.7227L98.2188 61.6133C98.3646 61.5951 98.4922 61.6042 98.6016 61.6406C98.7292 61.6953 98.9206 61.7682 99.1758 61.8594C99.4128 61.9505 99.5859 62.0326 99.6953 62.1055L99.9141 62.2695V62.6797C99.75 62.8438 99.6315 63.0534 99.5586 63.3086L99.3398 64.0195C99.2669 64.2018 99.1758 64.4935 99.0664 64.8945C98.9388 65.2956 98.8294 65.6237 98.7383 65.8789C98.6654 66.1341 98.556 66.3529 98.4102 66.5352L98.0547 66.7539C97.8359 66.7174 97.681 66.5807 97.5898 66.3438C97.2617 66.2891 96.9701 66.2799 96.7148 66.3164C96.4414 66.3529 96.1497 66.3893 95.8398 66.4258L95.3477 66.4805H94.8828ZM94.6367 63.9648L94.9375 63.9102L95.5664 63.8281C95.7852 63.8099 96.0221 63.7643 96.2773 63.6914C96.5508 63.6185 96.7695 63.5729 96.9336 63.5547C97.1341 63.5547 97.2982 63.5638 97.4258 63.582L97.9453 63.7734C98.0729 63.5182 98.1549 63.2539 98.1914 62.9805V62.7344L97.8086 62.4336L97.0977 62.4883L96.3867 62.707L95.5664 62.8438L95.0195 62.9531H94.5273V63.4453L94.6367 63.9648ZM94.8281 65.8242L95.5117 65.7148C95.7487 65.6784 95.9948 65.6328 96.25 65.5781C96.487 65.5234 96.6602 65.487 96.7695 65.4688C96.9154 65.4688 97.0794 65.4961 97.2617 65.5508L97.6992 65.6602L97.8633 65.0039L98.082 64.0742C97.6992 64.1836 97.3711 64.2656 97.0977 64.3203C96.806 64.375 96.5326 64.4297 96.2773 64.4844C96.0404 64.5391 95.7943 64.5755 95.5391 64.5938L95.1016 64.6211L94.6914 64.5664V65.168L94.8281 65.8242ZM101.965 67.2461C101.819 67.2461 101.546 67.2643 101.145 67.3008C100.725 67.3008 100.397 67.2826 100.16 67.2461C99.9232 67.1914 99.7318 67.1003 99.5859 66.9727V66.6172L100.598 66.4531C100.999 66.3984 101.272 66.362 101.418 66.3438L102.074 66.207C102.111 65.7331 102.138 65.3411 102.156 65.0312C102.174 64.7214 102.184 64.3659 102.184 63.9648C102.184 63.582 102.156 63.2539 102.102 62.9805C102.047 62.7253 101.965 62.5065 101.855 62.3242L101.609 61.9688L101.965 61.6133C102.111 61.6133 102.339 61.6497 102.648 61.7227L103.332 61.9414C103.496 61.9961 103.633 62.0781 103.742 62.1875L103.906 62.5703L103.77 63.0352C103.733 63.1445 103.697 63.2904 103.66 63.4727C103.624 63.6732 103.596 63.9922 103.578 64.4297L103.523 65.1406L103.441 65.9062C103.733 65.8333 103.97 65.7695 104.152 65.7148C104.335 65.6784 104.499 65.6328 104.645 65.5781C104.809 65.5234 104.973 65.4596 105.137 65.3867L105.547 65.2773H105.738C105.884 65.3138 106.085 65.3958 106.34 65.5234L106.777 65.7695L106.723 66.1797C106.467 66.3073 106.148 66.4167 105.766 66.5078C105.383 66.599 105.018 66.6901 104.672 66.7812C104.326 66.8542 104.007 66.9089 103.715 66.9453L103.223 67.1914L103.824 68.2305C104.043 68.5586 104.298 68.8958 104.59 69.2422C104.882 69.5885 105.201 69.9258 105.547 70.2539C105.893 70.582 106.249 70.8646 106.613 71.1016C106.978 71.3568 107.315 71.5664 107.625 71.7305L108.527 72.168L109.129 72.4414L109.402 72.6875C109.402 72.8151 109.348 72.888 109.238 72.9062L108.719 73.043C108.555 73.0794 108.354 73.1159 108.117 73.1523C107.88 73.1888 107.589 73.2161 107.242 73.2344C106.987 73.2344 106.786 73.2253 106.641 73.207C106.44 73.207 106.267 73.1706 106.121 73.0977C105.993 73.0247 105.793 72.806 105.52 72.4414C105.228 72.0586 105.009 71.7578 104.863 71.5391L104.07 70.2266L103.387 69.0781L103.004 68.2852L102.758 68.9961C102.703 69.1784 102.576 69.4883 102.375 69.9258C102.193 70.3633 102.001 70.7461 101.801 71.0742C101.6 71.4023 101.363 71.7122 101.09 72.0039C100.798 72.2956 100.552 72.5234 100.352 72.6875L99.7773 73.0977L99.4492 73.0156L99.8867 72.332C99.9961 72.1862 100.178 71.9128 100.434 71.5117C100.689 71.1107 100.88 70.7643 101.008 70.4727C101.154 70.181 101.309 69.7799 101.473 69.2695C101.637 68.7409 101.746 68.3307 101.801 68.0391L101.965 67.2461ZM105.164 62.0781C105.474 62.0599 105.866 62.0964 106.34 62.1875C106.814 62.2786 107.169 62.3607 107.406 62.4336C107.643 62.5065 107.853 62.6159 108.035 62.7617C108.217 62.9076 108.345 63.1628 108.418 63.5273C108.436 63.7643 108.391 63.9466 108.281 64.0742C108.135 64.2747 107.953 64.3932 107.734 64.4297C107.516 64.4297 107.233 64.293 106.887 64.0195C106.741 63.9102 106.467 63.6732 106.066 63.3086C105.665 62.944 105.392 62.6615 105.246 62.4609C105.1 62.2604 105.073 62.1328 105.164 62.0781ZM161.355 66.043C161.21 66.0065 161.091 65.9154 161 65.7695C160.964 65.7331 160.918 65.6602 160.863 65.5508C160.827 65.4232 160.79 65.332 160.754 65.2773L160.617 64.9766L158.895 65.1953L158.238 65.3047C158.074 65.3229 157.701 65.3867 157.117 65.4961C156.88 65.5326 156.625 65.6055 156.352 65.7148C156.297 65.7331 156.233 65.7695 156.16 65.8242C156.087 65.8789 156.023 65.9062 155.969 65.9062H155.75C155.568 65.9062 155.367 65.7878 155.148 65.5508C155.094 65.4779 155.021 65.4049 154.93 65.332C154.857 65.2409 154.82 65.1771 154.82 65.1406C154.82 64.9948 154.884 64.8581 155.012 64.7305C155.285 64.457 155.668 63.901 156.16 63.0625C156.342 62.8073 156.561 62.4336 156.816 61.9414C157.072 61.4492 157.272 61.0391 157.418 60.7109C157.4 60.7656 157.5 60.5195 157.719 59.9727C157.883 59.5169 157.965 59.2253 157.965 59.0977C158.001 58.8971 158.065 58.7969 158.156 58.7969C158.229 58.7969 158.384 58.8971 158.621 59.0977C158.822 59.2617 158.977 59.4258 159.086 59.5898C159.214 59.7539 159.277 59.8815 159.277 59.9727C159.277 60.0456 159.259 60.1094 159.223 60.1641C159.186 60.2188 159.122 60.2826 159.031 60.3555C158.958 60.4284 158.867 60.5378 158.758 60.6836C158.521 60.9935 158.229 61.4674 157.883 62.1055L157.336 63.0625L156.926 63.7461L156.625 64.2656L156.434 64.5664C156.415 64.6029 156.415 64.6393 156.434 64.6758C156.452 64.694 156.479 64.7031 156.516 64.7031C156.516 64.7031 156.98 64.6484 157.91 64.5391L160.426 64.2656C160.371 64.1198 160.298 63.9284 160.207 63.6914C160.116 63.4362 160.007 63.1536 159.879 62.8438C159.861 62.8255 159.852 62.7891 159.852 62.7344C159.852 62.6797 159.879 62.6523 159.934 62.6523C160.025 62.6523 160.134 62.707 160.262 62.8164C160.408 62.9076 160.626 63.099 160.918 63.3906C161.137 63.5729 161.319 63.7826 161.465 64.0195C161.629 64.2565 161.729 64.3932 161.766 64.4297C161.93 64.6667 162.012 64.8945 162.012 65.1133C162.012 65.2227 161.975 65.4049 161.902 65.6602C161.848 65.806 161.775 65.9062 161.684 65.9609C161.611 66.0156 161.501 66.043 161.355 66.043ZM161.164 73.9727C160.891 73.9727 160.626 73.7721 160.371 73.3711C160.043 72.8607 159.724 72.4414 159.414 72.1133L158.703 71.375C158.32 71.8125 157.983 72.1589 157.691 72.4141C157.418 72.6693 157.072 72.9154 156.652 73.1523C155.868 73.6081 155.212 73.8359 154.684 73.8359C154.556 73.8359 154.492 73.7904 154.492 73.6992C154.492 73.6445 154.665 73.526 155.012 73.3438C155.358 73.1615 155.686 72.9427 155.996 72.6875C156.78 72.0312 157.427 71.3568 157.938 70.6641C157.828 70.5547 157.281 70.0807 156.297 69.2422C156.169 69.151 155.978 68.9961 155.723 68.7773C155.668 68.7409 155.559 68.6589 155.395 68.5312C155.23 68.4036 155.148 68.3125 155.148 68.2578C155.148 68.1667 155.194 68.1211 155.285 68.1211C155.559 68.1211 155.996 68.3125 156.598 68.6953C157.199 69.0599 157.828 69.4974 158.484 70.0078C158.74 69.6979 158.94 69.4062 159.086 69.1328C159.232 68.8594 159.396 68.5221 159.578 68.1211C159.669 67.9206 159.724 67.7474 159.742 67.6016C159.76 67.4375 159.77 67.3372 159.77 67.3008C159.77 67.1003 159.824 67 159.934 67C160.061 67 160.234 67.1003 160.453 67.3008C160.836 67.6654 161.027 67.9115 161.027 68.0391C161.027 68.112 160.982 68.194 160.891 68.2852C160.672 68.5039 160.471 68.7956 160.289 69.1602C160.18 69.3789 159.979 69.6888 159.688 70.0898C159.596 70.1992 159.523 70.2995 159.469 70.3906C159.414 70.4818 159.359 70.5638 159.305 70.6367C159.724 70.9466 160.344 71.4753 161.164 72.2227C161.365 72.4049 161.492 72.5781 161.547 72.7422C161.62 72.888 161.656 73.0885 161.656 73.3438C161.656 73.526 161.611 73.681 161.52 73.8086C161.428 73.918 161.31 73.9727 161.164 73.9727ZM160.508 82.2578C160.435 82.2578 160.353 82.2214 160.262 82.1484C160.171 82.0938 160.052 82.0026 159.906 81.875C159.268 81.3828 158.648 80.6445 158.047 79.6602C157.445 78.6758 157.017 77.6094 156.762 76.4609C156.743 76.3516 156.716 76.224 156.68 76.0781C156.643 75.9323 156.607 75.8229 156.57 75.75C156.57 75.7318 156.543 75.7227 156.488 75.7227C156.361 75.7227 156.115 75.8047 155.75 75.9688C155.641 76.0234 155.531 76.1055 155.422 76.2148C155.331 76.306 155.23 76.3424 155.121 76.3242C155.048 76.3242 154.948 76.2786 154.82 76.1875C154.693 76.0964 154.602 76.0143 154.547 75.9414C154.365 75.6862 154.273 75.5312 154.273 75.4766C154.273 75.3672 154.374 75.3034 154.574 75.2852C154.848 75.2852 155.021 75.276 155.094 75.2578C155.622 75.1849 156.124 75.0664 156.598 74.9023C156.671 74.8841 156.771 74.8294 156.898 74.7383C156.917 74.7383 156.944 74.7292 156.98 74.7109C157.035 74.6927 157.099 74.7109 157.172 74.7656C157.445 74.9479 157.582 75.0846 157.582 75.1758C157.582 76.4518 157.947 77.6458 158.676 78.7578C159.405 79.8698 160.471 80.8086 161.875 81.5742C161.948 81.6107 162.039 81.6471 162.148 81.6836C162.258 81.7201 162.312 81.7747 162.312 81.8477C162.312 81.9388 162.012 82.0208 161.41 82.0938L160.727 82.2031L160.508 82.2578ZM163.242 72.2773C163.333 72.2773 163.47 72.3411 163.652 72.4688C163.634 72.5052 163.671 72.5781 163.762 72.6875C163.853 72.7786 163.917 72.8424 163.953 72.8789C164.044 72.9701 164.135 73.0794 164.227 73.207C164.336 73.3346 164.454 73.4714 164.582 73.6172C164.91 73.9635 165.667 74.8659 166.852 76.3242C167.052 76.6159 167.152 76.7891 167.152 76.8438C167.152 77.026 167.043 77.1172 166.824 77.1172C166.697 77.1172 166.56 77.026 166.414 76.8438C166.068 76.4792 165.448 75.9049 164.555 75.1211C163.862 74.4831 163.233 73.9909 162.668 73.6445C162.395 73.5169 162.258 73.3711 162.258 73.207C162.258 73.0794 162.395 72.8971 162.668 72.6602C162.923 72.4049 163.115 72.2773 163.242 72.2773ZM144.32 74.9297C144.503 74.6927 144.667 74.4466 144.812 74.1914C144.958 73.9727 145.132 73.6628 145.332 73.2617C145.533 72.8789 145.697 72.4961 145.824 72.1133C145.952 71.7122 146.034 71.3841 146.07 71.1289L146.18 70.2539L146.371 70.0898C146.553 70.0898 146.763 70.1445 147 70.2539C147.219 70.3451 147.401 70.4362 147.547 70.5273C147.693 70.6185 147.839 70.7279 147.984 70.8555C148.13 71.0013 148.221 71.293 148.258 71.7305C148.039 71.9128 147.848 72.1406 147.684 72.4141L147.219 73.1523L146.262 74.6289C146.079 74.8841 145.833 75.194 145.523 75.5586L145.113 76.0508C145.241 76.2331 145.368 76.3971 145.496 76.543L146.098 77.3359C146.371 77.7005 146.708 78.0742 147.109 78.457C147.474 78.8581 147.893 79.2409 148.367 79.6055C148.841 79.9701 149.224 80.2161 149.516 80.3438L150.008 80.5352C150.227 80.4987 150.382 80.3529 150.473 80.0977L150.883 78.8945C151.065 78.3477 151.211 77.9284 151.32 77.6367L151.484 77.1445L151.676 76.8984C151.785 76.9167 151.84 77.0169 151.84 77.1992V77.6914L151.867 78.8398L151.922 80.1797C151.94 80.4896 151.977 80.7721 152.031 81.0273C152.086 81.2826 152.159 81.5469 152.25 81.8203C152.323 82.0938 152.359 82.3034 152.359 82.4492C152.359 82.5951 152.296 82.7318 152.168 82.8594L151.73 82.9141C151.421 82.8958 151.083 82.8503 150.719 82.7773C150.318 82.6862 149.908 82.5221 149.488 82.2852C149.051 82.0664 148.559 81.7474 148.012 81.3281C147.465 80.9089 147.055 80.5625 146.781 80.2891L145.523 78.9219L144.621 77.9102L144.047 77.1172C143.81 77.3177 143.518 77.5456 143.172 77.8008C142.807 78.0742 142.424 78.3112 142.023 78.5117C141.604 78.7305 141.176 78.931 140.738 79.1133C140.301 79.2956 139.973 79.4141 139.754 79.4688L139.289 79.3047L139.617 79.0859L140.219 78.7305L141.559 77.6914C142.16 77.2174 142.57 76.862 142.789 76.625L143.336 76.1055L142.652 74.957C142.415 74.5378 142.188 74.0911 141.969 73.6172C141.75 73.1432 141.449 72.3867 141.066 71.3477C140.684 70.2904 140.419 69.5794 140.273 69.2148L140.109 68.832C137.94 69.1055 136.564 69.306 135.98 69.4336L133.793 70.0625L133.629 70.6914L133.547 71.2656L133.41 72.0039C133.319 72.4779 133.237 72.9245 133.164 73.3438C133.073 73.763 132.954 74.2096 132.809 74.6836C132.663 75.1576 132.471 75.6862 132.234 76.2695C131.979 76.8164 131.724 77.2995 131.469 77.7188C131.214 78.1198 130.913 78.5117 130.566 78.8945C130.22 79.2956 129.828 79.651 129.391 79.9609C128.99 80.2708 128.68 80.4714 128.461 80.5625L127.859 80.5898L128.379 80.1523C128.507 80.043 128.698 79.8516 128.953 79.5781C129.19 79.3047 129.454 78.9583 129.746 78.5391C130.038 78.1198 130.293 77.7096 130.512 77.3086C130.749 76.8711 130.977 76.3516 131.195 75.75C131.432 75.1302 131.596 74.6289 131.688 74.2461C131.797 73.8815 131.87 73.4987 131.906 73.0977C131.961 72.6784 131.997 72.3229 132.016 72.0312C132.016 71.7214 132.025 71.4023 132.043 71.0742L132.016 70.6094L131.852 70.0352C131.688 69.8893 131.56 69.7708 131.469 69.6797L131.359 69.3516C131.487 69.2604 131.66 69.1966 131.879 69.1602L139.891 67.9023L139.453 66.8086L139.207 66.207L138.879 65.6055C137.639 65.806 136.682 65.9701 136.008 66.0977C135.333 66.207 134.786 66.3073 134.367 66.3984L133.055 66.6992C132.69 66.7904 132.389 66.8451 132.152 66.8633H131.742C131.615 66.8268 131.396 66.7539 131.086 66.6445C130.794 66.5352 130.585 66.4167 130.457 66.2891V65.8516L133.711 65.4414L135.27 65.168L134.914 62.9258C134.878 62.5794 134.814 62.2695 134.723 61.9961L134.477 61.3125L134.312 60.8477L134.34 60.6289C134.413 60.5378 134.54 60.4922 134.723 60.4922C134.96 60.5104 135.215 60.556 135.488 60.6289C135.762 60.7018 136.008 60.7839 136.227 60.875L136.555 61.2031C136.573 61.3307 136.555 61.4674 136.5 61.6133C136.445 61.7591 136.4 61.9779 136.363 62.2695V63.1445L136.473 65.0312L139.508 64.5391L139.289 60.5742C139.289 60.2461 139.262 59.9544 139.207 59.6992C139.171 59.444 139.125 59.2435 139.07 59.0977L138.77 58.332L139.207 58.0586L139.781 58.0859C139.891 58.1042 140.073 58.1589 140.328 58.25C140.583 58.3411 140.784 58.4232 140.93 58.4961L141.148 58.7695C141.167 58.8971 141.139 59.0794 141.066 59.3164L140.957 59.8906L140.875 60.4375V61.4492L143.555 60.6289C143.792 60.556 144.029 60.4648 144.266 60.3555C144.521 60.2643 144.703 60.2096 144.812 60.1914C144.958 60.1914 145.168 60.2279 145.441 60.3008C145.715 60.3737 145.897 60.4648 145.988 60.5742V61.1211C145.788 61.2669 145.505 61.3672 145.141 61.4219L142.844 61.8594C142.424 61.9505 142.115 61.9961 141.914 61.9961C141.75 61.9961 141.568 61.9779 141.367 61.9414L140.875 61.8594L140.766 64.3477L143.199 64.0195L143.992 63.8555L145.359 63.6094C145.596 63.5729 145.943 63.5091 146.398 63.418C146.836 63.3268 147.118 63.2812 147.246 63.2812C147.428 63.2995 147.638 63.3451 147.875 63.418L148.559 63.7734C148.796 63.9193 148.978 64.056 149.105 64.1836L149.242 64.5117C149.206 64.6576 149.06 64.7396 148.805 64.7578L146.207 64.8945C145.277 64.931 144.083 65.0221 142.625 65.168L140.219 65.4414C140.62 65.5508 140.921 65.6693 141.121 65.7969L141.422 66.125L141.477 66.5352L141.586 67L141.668 67.5742L142.242 67.4648L143.117 67.3008L143.746 67.1914H144.129C144.421 67.2279 144.694 67.319 144.949 67.4648C145.223 67.5924 145.432 67.7201 145.578 67.8477L145.742 68.1758C145.706 68.3581 145.578 68.4492 145.359 68.4492L144.32 68.4766L143.062 68.5586L141.75 68.668C141.841 68.9961 141.932 69.3607 142.023 69.7617C142.133 70.1628 142.279 70.6185 142.461 71.1289C142.643 71.6393 142.88 72.2227 143.172 72.8789C143.464 73.5169 143.719 73.9909 143.938 74.3008L144.32 74.9297ZM131.523 81.4102C131.633 81.3737 131.852 81.2917 132.18 81.1641C132.471 81.0365 132.945 80.7721 133.602 80.3711C134.258 79.9701 134.841 79.5781 135.352 79.1953C135.826 78.8307 136.299 78.4297 136.773 77.9922C137.211 77.5729 137.576 77.1901 137.867 76.8438C138.141 76.4974 138.378 76.1602 138.578 75.832C138.779 75.5221 138.934 75.2305 139.043 74.957C139.171 74.6836 139.243 74.4102 139.262 74.1367C139.28 73.8815 139.371 73.6536 139.535 73.4531C139.663 73.4349 139.781 73.4531 139.891 73.5078C140.036 73.599 140.182 73.6992 140.328 73.8086C140.474 73.918 140.602 74.0273 140.711 74.1367C140.82 74.2461 140.911 74.3646 140.984 74.4922L141.094 74.7656C141.057 74.875 140.975 74.9844 140.848 75.0938C140.72 75.2214 140.611 75.3216 140.52 75.3945L140.164 75.832L139.48 76.7617C139.225 77.0898 138.906 77.4544 138.523 77.8555C138.122 78.2747 137.703 78.6849 137.266 79.0859C136.828 79.4688 136.327 79.8333 135.762 80.1797C135.215 80.5078 134.659 80.7904 134.094 81.0273C133.51 81.2461 133.018 81.4193 132.617 81.5469C132.198 81.6745 131.824 81.7565 131.496 81.793L131.195 81.6562L131.523 81.4102ZM132.617 77.3086L132.836 77.0078C132.945 76.8438 133.064 76.6159 133.191 76.3242L133.547 75.5039C133.656 75.2305 133.729 75.0208 133.766 74.875C133.784 74.7292 133.793 74.5924 133.793 74.4648L133.957 74.0547L134.504 74.1367L134.941 74.3008C135.178 74.4102 135.324 74.638 135.379 74.9844C135.215 75.112 135.087 75.2305 134.996 75.3398L134.367 76.1328C134.258 76.2786 134.057 76.4974 133.766 76.7891L133.273 77.2539L132.945 77.5L132.562 77.5273L132.617 77.3086ZM136.883 72.168C137.138 72.2409 137.348 72.3138 137.512 72.3867L137.73 72.6602C137.749 72.7695 137.74 72.8971 137.703 73.043C137.63 73.2253 137.594 73.4622 137.594 73.7539L137.539 74.957L137.594 75.7227C137.576 75.832 137.539 75.9505 137.484 76.0781C137.411 76.2057 137.32 76.3424 137.211 76.4883L136.992 76.707C136.865 76.707 136.719 76.5794 136.555 76.3242L136.281 75.7227L136.391 74.5195V73.5898L136.363 73.043L136.309 72.5781L136.117 72.2773C135.826 72.3138 135.589 72.3503 135.406 72.3867H134.695H134.422C134.258 72.3503 134.094 72.2773 133.93 72.168L133.711 71.9219C133.747 71.7943 133.857 71.7122 134.039 71.6758L134.695 71.5938C135.352 71.5026 135.844 71.4388 136.172 71.4023C136.5 71.3294 136.846 71.2383 137.211 71.1289C137.612 71.0195 137.931 70.9102 138.168 70.8008C138.423 70.7096 138.642 70.6549 138.824 70.6367L139.344 70.7734C139.635 70.8646 139.818 70.9648 139.891 71.0742V71.4844L139.645 71.6211L136.883 72.168ZM146.344 66.8906L146.098 66.5898L146.207 66.207L146.672 66.2891C146.927 66.3438 147.201 66.4258 147.492 66.5352C147.802 66.6263 148.076 66.7174 148.312 66.8086C148.568 66.918 148.786 67.0456 148.969 67.1914C149.151 67.3372 149.288 67.5195 149.379 67.7383C149.452 67.9023 149.479 68.1302 149.461 68.4219C149.443 68.6589 149.388 68.8594 149.297 69.0234C149.188 69.1875 148.96 69.2695 148.613 69.2695C148.34 69.1966 148.103 69.0599 147.902 68.8594C147.72 68.6771 147.52 68.4401 147.301 68.1484L146.699 67.3828C146.517 67.1458 146.398 66.9818 146.344 66.8906ZM202.152 66.6719C201.879 66.6719 201.642 66.5716 201.441 66.3711C200.84 65.7148 200.229 65.1224 199.609 64.5938C198.917 64.0104 198.306 63.5729 197.777 63.2812C197.522 63.1354 197.395 62.9076 197.395 62.5977C197.395 62.543 197.458 62.4701 197.586 62.3789C197.75 62.2695 198.014 62.0326 198.379 61.668L199.363 60.7109C199.801 60.2552 200.165 59.8451 200.457 59.4805C200.767 59.1159 200.94 58.8607 200.977 58.7148C200.995 58.6784 201.013 58.6055 201.031 58.4961C201.068 58.3685 201.122 58.3047 201.195 58.3047C201.286 58.3047 201.405 58.3503 201.551 58.4414C201.715 58.5326 201.852 58.6237 201.961 58.7148C202.234 58.9701 202.371 59.1888 202.371 59.3711C202.353 59.4258 202.28 59.4896 202.152 59.5625C202.043 59.6172 201.943 59.6719 201.852 59.7266C201.76 59.7995 201.432 60.0911 200.867 60.6016L199.09 62.1328C198.78 62.388 198.625 62.5885 198.625 62.7344C198.625 62.8073 198.771 62.9258 199.062 63.0898C199.409 63.3086 200.083 63.7552 201.086 64.4297C201.469 64.6849 201.833 64.9674 202.18 65.2773C202.471 65.569 202.617 65.8698 202.617 66.1797C202.617 66.3255 202.553 66.4531 202.426 66.5625C202.353 66.6354 202.262 66.6719 202.152 66.6719ZM197.285 71.2383C197.085 71.2383 196.839 71.0833 196.547 70.7734C196.328 70.5547 196.219 70.3906 196.219 70.2812C196.219 70.2266 196.255 70.1992 196.328 70.1992C196.401 70.181 196.492 70.1719 196.602 70.1719L197.203 70.1445C197.549 70.1445 197.777 70.1354 197.887 70.1172C198.233 70.1172 198.525 70.1081 198.762 70.0898C200.329 69.944 201.387 69.8255 201.934 69.7344C202.207 69.6979 202.453 69.6615 202.672 69.625C202.891 69.5703 203.064 69.543 203.191 69.543C203.447 69.543 203.702 69.6706 203.957 69.9258C204.158 70.1263 204.258 70.2904 204.258 70.418C204.258 70.5273 204.194 70.6003 204.066 70.6367C203.975 70.6549 203.438 70.6914 202.453 70.7461C201.906 70.7643 201.232 70.8099 200.43 70.8828C199.628 70.9557 198.926 71.0286 198.324 71.1016C198.215 71.1198 198.06 71.1471 197.859 71.1836C197.659 71.2201 197.467 71.2383 197.285 71.2383ZM201.359 77.3359C201.177 77.5729 200.986 77.6914 200.785 77.6914C200.73 77.6914 200.703 77.6458 200.703 77.5547C200.703 77.4271 200.74 77.2812 200.812 77.1172C200.812 77.1172 200.995 76.7526 201.359 76.0234C201.378 75.9505 201.405 75.8776 201.441 75.8047C201.478 75.7318 201.505 75.668 201.523 75.6133V75.5859C201.523 75.5495 201.496 75.513 201.441 75.4766C201.387 75.4401 201.323 75.431 201.25 75.4492C200.958 75.4674 200.521 75.513 199.938 75.5859C199.372 75.6589 198.953 75.7318 198.68 75.8047C198.57 75.8411 198.434 75.8867 198.27 75.9414C198.124 75.9961 198.005 76.0234 197.914 76.0234C197.586 76.0234 197.312 75.9232 197.094 75.7227C196.911 75.5951 196.775 75.4674 196.684 75.3398L196.629 75.2031C196.629 75.112 196.784 75.0846 197.094 75.1211C197.513 75.1576 198.379 75.1029 199.691 74.957L200.238 74.875C200.384 74.8568 200.612 74.8294 200.922 74.793C201.25 74.7383 201.505 74.6836 201.688 74.6289C201.742 74.6107 201.797 74.5924 201.852 74.5742C201.924 74.5378 201.988 74.5195 202.043 74.5195C202.134 74.5195 202.243 74.5651 202.371 74.6562C202.517 74.7474 202.635 74.8294 202.727 74.9023C202.854 74.9935 202.936 75.0755 202.973 75.1484C203.027 75.2031 203.046 75.276 203.027 75.3672C203.027 75.4583 202.982 75.5404 202.891 75.6133C202.799 75.6862 202.736 75.7409 202.699 75.7773C202.663 75.832 202.535 75.9688 202.316 76.1875C202.225 76.3333 202.061 76.5339 201.824 76.7891C201.605 77.0443 201.451 77.2266 201.359 77.3359ZM199.992 82.7227C199.992 82.668 200.083 82.5221 200.266 82.2852C200.466 82.0664 200.621 81.8932 200.73 81.7656C201.004 81.401 201.332 80.8724 201.715 80.1797C202.116 79.487 202.344 79.0312 202.398 78.8125C202.435 78.7031 202.38 78.6484 202.234 78.6484C201.943 78.6484 201.141 78.7305 199.828 78.8945C198.971 79.0039 198.333 79.1133 197.914 79.2227C197.823 79.2773 197.732 79.3047 197.641 79.3047C197.495 79.3047 197.34 79.2044 197.176 79.0039C197.103 78.8763 197.066 78.7578 197.066 78.6484C197.066 78.5755 197.112 78.5026 197.203 78.4297L197.285 78.3203C197.34 78.2109 197.404 78.0651 197.477 77.8828C197.549 77.7005 197.613 77.5273 197.668 77.3633C197.759 77.0716 197.823 76.7526 197.859 76.4062C197.878 76.2057 197.987 76.151 198.188 76.2422C198.443 76.3698 198.634 76.4974 198.762 76.625C198.908 76.7344 198.953 76.8164 198.898 76.8711C198.716 77.0898 198.57 77.3359 198.461 77.6094C198.37 77.901 198.315 78.0924 198.297 78.1836C198.297 78.2565 198.342 78.293 198.434 78.293C198.707 78.293 199.117 78.2474 199.664 78.1562C199.974 78.1198 200.357 78.0742 200.812 78.0195C201.268 77.9648 201.633 77.9102 201.906 77.8555L202.59 77.7188C202.645 77.7005 202.717 77.6914 202.809 77.6914C202.9 77.6914 202.991 77.7279 203.082 77.8008C203.173 77.8555 203.273 77.9284 203.383 78.0195C203.565 78.1836 203.684 78.3203 203.738 78.4297C203.793 78.5208 203.82 78.6302 203.82 78.7578C203.82 78.8307 203.766 78.9219 203.656 79.0312C203.565 79.1406 203.456 79.3138 203.328 79.5508C202.799 80.6263 202.116 81.5286 201.277 82.2578C201.04 82.4401 200.776 82.5951 200.484 82.7227C200.357 82.7591 200.238 82.7773 200.129 82.7773C200.038 82.7956 199.992 82.7773 199.992 82.7227ZM208.742 70.0898C208.961 70.0898 209.07 70.1901 209.07 70.3906C209.07 70.5 208.97 70.6549 208.77 70.8555C208.223 71.5299 207.138 72.8151 205.516 74.7109C205.388 74.875 205.27 74.957 205.16 74.957C205.069 74.957 204.868 74.8203 204.559 74.5469C204.303 74.3281 204.176 74.1458 204.176 74C204.176 73.8359 204.312 73.681 204.586 73.5352C205.005 73.2982 205.634 72.8242 206.473 72.1133C207.311 71.3659 207.931 70.7734 208.332 70.3359C208.496 70.1719 208.633 70.0898 208.742 70.0898ZM187.223 66.918C187.405 66.6628 187.551 66.444 187.66 66.2617C187.806 66.0794 187.906 65.8971 187.961 65.7148C188.016 65.5508 188.061 65.3411 188.098 65.0859L188.316 64.6211C188.462 64.6029 188.608 64.6211 188.754 64.6758C188.9 64.7487 189.109 64.8854 189.383 65.0859C189.656 65.2865 189.848 65.4596 189.957 65.6055V66.0977L189.438 66.4805C189.273 66.6081 189.118 66.7357 188.973 66.8633L188.344 67.4648L188.016 67.7656C188.216 67.9844 188.435 68.194 188.672 68.3945C188.909 68.6133 189.21 68.8411 189.574 69.0781C189.957 69.3151 190.303 69.4974 190.613 69.625C190.832 69.7161 191.014 69.7617 191.16 69.7617C191.27 69.7253 191.361 69.4974 191.434 69.0781L191.598 68.2305L191.652 67.4648L191.898 67.3828L192.254 68.2852L192.527 69.0781C192.673 69.4974 192.783 69.7526 192.855 69.8438L193.238 70.5C193.311 70.6458 193.348 70.7917 193.348 70.9375C193.311 71.1016 193.238 71.2383 193.129 71.3477C193.02 71.4388 192.764 71.4844 192.363 71.4844C191.78 71.4844 191.288 71.4115 190.887 71.2656C190.449 71.1016 189.911 70.7917 189.273 70.3359C188.617 69.8802 188.116 69.4609 187.77 69.0781L187.168 68.4766L186.375 68.9961C186.102 69.1602 185.874 69.2878 185.691 69.3789C185.491 69.4701 185.272 69.5612 185.035 69.6523L184.051 69.6797L184.488 69.3242C184.762 69.1419 185.053 68.9323 185.363 68.6953C185.691 68.4583 185.928 68.2669 186.074 68.1211L186.402 67.7656C186.202 67.4922 186.02 67.2552 185.855 67.0547L185.254 66.207L184.762 65.5234L183.859 66.0156C183.549 66.1979 183.285 66.3346 183.066 66.4258C182.848 66.4987 182.638 66.5443 182.438 66.5625H181.863C181.699 66.5443 181.562 66.5169 181.453 66.4805L181.371 66.1797L181.809 65.9336L182.52 65.6055C182.975 65.3867 183.303 65.2227 183.504 65.1133L184.215 64.7305L183.805 64.1289L183.586 63.8008L182.902 62.6523L182.082 61.4766C181.936 61.276 181.772 61.0755 181.59 60.875L181.234 60.5195L181.262 60.0547C181.48 59.8906 181.79 59.8086 182.191 59.8086C182.592 59.8451 182.921 59.8906 183.176 59.9453C183.449 60 183.622 60.082 183.695 60.1914C183.786 60.2826 183.85 60.4831 183.887 60.793C183.923 61.1211 184.042 61.5404 184.242 62.0508C184.424 62.5612 184.579 62.944 184.707 63.1992C184.853 63.4544 184.962 63.6367 185.035 63.7461L185.254 64.1289C185.436 64.0195 185.618 63.8919 185.801 63.7461L186.129 63.5C186.238 63.4453 186.366 63.418 186.512 63.418C186.621 63.3997 186.803 63.3906 187.059 63.3906C187.277 63.4089 187.46 63.4362 187.605 63.4727L187.797 63.7734C187.724 63.9375 187.596 64.0742 187.414 64.1836L187.004 64.4023L185.801 65.0312L186.32 65.8242C186.503 66.0977 186.667 66.3073 186.812 66.4531L187.223 66.918ZM185.746 75.6953L186.348 75.1758C186.566 74.9935 186.867 74.6927 187.25 74.2734C187.633 73.8542 187.934 73.4987 188.152 73.207C188.389 72.8971 188.553 72.5964 188.645 72.3047L188.945 71.8398C189.055 71.8216 189.191 71.849 189.355 71.9219C189.538 72.0312 189.747 72.2318 189.984 72.5234C190.221 72.7969 190.385 73.0339 190.477 73.2344L190.531 73.6445C190.495 73.7539 190.376 73.8542 190.176 73.9453C189.975 74.0365 189.693 74.2279 189.328 74.5195C188.945 74.7747 188.645 75.0117 188.426 75.2305L187.551 75.9961L186.621 76.7344C186.803 76.9167 187.068 77.1628 187.414 77.4727C187.76 77.7826 188.171 78.1289 188.645 78.5117C189.155 78.8945 189.62 79.2044 190.039 79.4414C190.458 79.6966 190.896 79.9336 191.352 80.1523C191.68 80.3164 191.944 80.3984 192.145 80.3984C192.29 80.3438 192.418 80.207 192.527 79.9883C192.637 79.7695 192.728 79.5508 192.801 79.332L192.992 78.5664L193.238 77.7461L193.512 77.5273L193.648 78.7852C193.648 78.931 193.703 79.2773 193.812 79.8242L193.949 80.7539C194.022 81.1185 194.122 81.4375 194.25 81.7109L194.387 82.2031C194.387 82.3672 194.25 82.5312 193.977 82.6953C193.794 82.6953 193.639 82.6862 193.512 82.668C192.819 82.5768 192.163 82.4128 191.543 82.1758C190.941 81.9206 190.303 81.5742 189.629 81.1367C188.973 80.6992 188.344 80.2253 187.742 79.7148C187.141 79.2044 186.585 78.6576 186.074 78.0742L185.582 77.5L184.516 78.2109C184.188 78.4115 183.796 78.6302 183.34 78.8672C182.902 79.0859 182.456 79.2773 182 79.4414C181.544 79.5872 181.034 79.7422 180.469 79.9062C179.904 80.0703 179.548 80.1523 179.402 80.1523L178.855 80.2344L178.637 80.1797C178.637 79.9974 178.701 79.8789 178.828 79.8242L179.238 79.6602C179.475 79.5872 179.803 79.4505 180.223 79.25L181.617 78.5664C182.146 78.3112 182.592 78.056 182.957 77.8008L184.051 76.9805L184.762 76.4883C184.525 76.1237 184.333 75.8138 184.188 75.5586C184.042 75.3034 183.887 75.0026 183.723 74.6562L183.285 73.8359C182.957 74 182.674 74.1185 182.438 74.1914C182.201 74.3008 181.973 74.3555 181.754 74.3555C181.553 74.3555 181.362 74.3372 181.18 74.3008C180.979 74.2643 180.788 74.1732 180.605 74.0273C180.587 73.8815 180.642 73.7904 180.77 73.7539L181.371 73.5352C181.645 73.4622 181.882 73.3802 182.082 73.2891L182.93 72.9609C182.766 72.5417 182.647 72.2318 182.574 72.0312L182.082 71.0195C181.882 70.6003 181.736 70.3086 181.645 70.1445L181.508 69.6797C181.562 69.5703 181.727 69.5156 182 69.5156C182.201 69.5703 182.438 69.6432 182.711 69.7344C182.984 69.8438 183.23 69.9805 183.449 70.1445C183.668 70.2904 183.796 70.4453 183.832 70.6094L183.805 71.2109L183.859 71.8945L184.051 72.4414C184.306 72.2956 184.488 72.1862 184.598 72.1133L184.844 72.0039C184.99 71.9674 185.126 71.9401 185.254 71.9219C185.4 71.9219 185.555 71.9401 185.719 71.9766C185.883 71.9948 186.047 72.0404 186.211 72.1133L186.43 72.4414C186.375 72.569 186.238 72.6784 186.02 72.7695L185.664 72.8789L185.062 73.125L184.406 73.4258C184.534 73.7174 184.661 73.9909 184.789 74.2461C184.917 74.5013 185.017 74.6745 185.09 74.7656L185.746 75.6953ZM174.426 68.8867L175.766 68.6133C176.112 68.5404 176.431 68.4492 176.723 68.3398C177.051 68.2487 177.342 68.1484 177.598 68.0391C177.853 67.9479 178.117 67.9115 178.391 67.9297C178.664 68.0026 178.883 68.0846 179.047 68.1758L179.238 68.6133C179.147 68.7227 179.02 68.7956 178.855 68.832L178.035 69.0508L177.27 69.2148L177.68 69.543C177.698 69.6523 177.68 69.8164 177.625 70.0352C177.552 70.2539 177.497 70.5547 177.461 70.9375L177.434 71.457L178.09 71.2383L178.664 71.0742C178.828 71.056 178.974 71.0651 179.102 71.1016C179.284 71.138 179.448 71.1745 179.594 71.2109C179.74 71.2474 179.876 71.3021 180.004 71.375L180.086 71.7578C180.013 71.849 179.904 71.9128 179.758 71.9492L179.539 72.0586L177.406 72.4961L177.242 77.1992L180.332 76.2148L180.551 76.1602C180.733 76.1602 180.842 76.2422 180.879 76.4062C180.897 76.5521 180.806 76.6706 180.605 76.7617L174.645 79.2773C174.535 79.332 174.307 79.4596 173.961 79.6602L173.359 80.043L173.004 80.3164L172.703 80.4805C172.503 80.4805 172.275 80.4076 172.02 80.2617C171.764 80.0794 171.564 79.9427 171.418 79.8516C171.29 79.7422 171.135 79.5964 170.953 79.4141C170.753 79.25 170.589 79.0039 170.461 78.6758C170.534 78.5664 170.698 78.5117 170.953 78.5117H172.129C172.311 78.5117 172.512 78.4844 172.73 78.4297C172.986 78.3932 173.186 78.3477 173.332 78.293L176.066 77.5547L175.984 72.8789L174.836 73.0977C174.508 73.1706 174.262 73.2161 174.098 73.2344L173.66 73.1523C173.405 73.0794 173.204 73.0065 173.059 72.9336L172.867 72.6055C172.922 72.4961 173.049 72.4323 173.25 72.4141L173.66 72.332L175.957 71.8398V71.293C175.957 71.0742 175.939 70.8464 175.902 70.6094C175.866 70.3724 175.829 70.181 175.793 70.0352L175.629 69.5977L175.273 69.625C175.146 69.6068 174.991 69.5794 174.809 69.543L174.508 69.4609L174.152 69.2969L173.441 70.1719C173.15 70.5547 172.895 70.8555 172.676 71.0742C172.457 71.3112 172.129 71.6211 171.691 72.0039C171.254 72.4049 170.953 72.6602 170.789 72.7695L170.27 73.0703L169.859 72.9609L170.324 72.3867C170.543 72.1315 170.762 71.8581 170.98 71.5664C171.236 71.2747 171.509 70.9375 171.801 70.5547C172.092 70.1719 172.384 69.7617 172.676 69.3242C172.967 68.9232 173.268 68.4674 173.578 67.957C173.888 67.4466 174.189 66.9089 174.48 66.3438C174.754 65.7786 174.973 65.3047 175.137 64.9219L175.602 63.7188C175.747 63.2995 175.848 62.944 175.902 62.6523C175.957 62.4154 175.984 62.1875 175.984 61.9688L175.902 61.3398L176.094 61.0391C176.294 61.0026 176.467 61.0208 176.613 61.0938C176.759 61.1484 176.923 61.2396 177.105 61.3672C177.288 61.4948 177.434 61.6133 177.543 61.7227C177.652 61.832 177.753 61.9505 177.844 62.0781L177.816 62.625L177.461 63.1172C177.625 63.2812 177.771 63.3815 177.898 63.418L178.773 63.7461C179.357 64.0013 179.758 64.2018 179.977 64.3477C180.177 64.4935 180.332 64.6667 180.441 64.8672C180.551 65.0677 180.605 65.2682 180.605 65.4688C180.605 65.6875 180.542 65.888 180.414 66.0703C180.286 66.2708 180.132 66.3711 179.949 66.3711C179.803 66.3711 179.658 66.3346 179.512 66.2617C179.348 66.1523 179.174 66.0156 178.992 65.8516C178.828 65.6875 178.564 65.3958 178.199 64.9766L177.16 63.8555L176.586 65.0586L176.203 65.9062C176.112 66.0521 175.884 66.444 175.52 67.082L174.945 68.1211L174.426 68.8867ZM186.621 60.8477L186.348 60.4375C186.366 60.3281 186.503 60.2826 186.758 60.3008H187.277C187.441 60.3372 187.697 60.3828 188.043 60.4375C188.389 60.4922 188.699 60.5833 188.973 60.7109C189.228 60.8385 189.419 60.9753 189.547 61.1211C189.656 61.2669 189.72 61.4766 189.738 61.75V62.0234C189.738 62.2604 189.702 62.4518 189.629 62.5977C189.556 62.707 189.41 62.7891 189.191 62.8438C189.064 62.8438 188.936 62.8164 188.809 62.7617C188.59 62.6706 188.28 62.4427 187.879 62.0781C187.478 61.6953 187.214 61.4492 187.086 61.3398C186.958 61.2122 186.803 61.0482 186.621 60.8477ZM172.43 74.1914C172.539 74.1732 172.658 74.1914 172.785 74.2461L173.168 74.3555L173.633 74.5469C173.87 74.638 174.052 74.7292 174.18 74.8203C174.326 74.9115 174.444 75.0391 174.535 75.2031C174.645 75.3672 174.708 75.6042 174.727 75.9141C174.727 76.1875 174.681 76.4154 174.59 76.5977C174.48 76.8164 174.335 76.944 174.152 76.9805C173.988 76.9805 173.797 76.8529 173.578 76.5977C173.469 76.4883 173.296 76.2422 173.059 75.8594C172.803 75.4583 172.639 75.194 172.566 75.0664C172.493 74.9206 172.43 74.7747 172.375 74.6289C172.32 74.4466 172.339 74.3008 172.43 74.1914ZM178.418 75.668L177.98 76.0508L177.652 75.9141L177.926 75.2852L178.145 74.9023L178.363 74.2461C178.473 73.9362 178.536 73.6719 178.555 73.4531L178.992 72.9609C179.302 73.0885 179.512 73.1888 179.621 73.2617C179.767 73.3711 179.895 73.4805 180.004 73.5898L180.195 73.8359L180.168 74.2461L179.84 74.4648C179.73 74.5195 179.576 74.6289 179.375 74.793C179.174 74.9388 178.974 75.1211 178.773 75.3398C178.573 75.5221 178.454 75.6315 178.418 75.668ZM186.102 70.6094L185.609 70.0352L185.719 69.8438L186.238 69.8984C186.384 69.9167 186.557 69.944 186.758 69.9805C186.958 70.0169 187.177 70.0625 187.414 70.1172C187.651 70.1719 187.815 70.2539 187.906 70.3633C187.997 70.4909 188.061 70.7005 188.098 70.9922C188.098 71.2109 188.07 71.375 188.016 71.4844C187.961 71.612 187.824 71.694 187.605 71.7305L187.25 71.5664C187.122 71.4935 186.913 71.3385 186.621 71.1016C186.329 70.8646 186.156 70.7005 186.102 70.6094Z" fill="#333333"/>
</svg>
