<svg width="350" height="88" viewBox="0 0 350 88" fill="none" xmlns="http://www.w3.org/2000/svg">
<path d="M158.934 7.49609C158.77 7.49609 158.852 7.35547 159.18 7.07422C159.508 6.79297 159.906 6.45313 160.375 6.05469C160.844 5.63281 161.371 5.08203 161.957 4.40234C162.332 3.95703 162.613 3.48828 162.801 2.99609C162.918 2.71484 163.047 2.57422 163.188 2.57422C163.305 2.57422 163.48 2.66797 163.715 2.85547C164.184 3.23047 164.418 3.54687 164.418 3.80469C164.418 3.96875 164.324 4.08594 164.137 4.15625C164.043 4.17969 163.902 4.28516 163.715 4.47266C163.527 4.63672 163.387 4.76563 163.293 4.85938C162.285 5.84375 161.348 6.55859 160.48 7.00391C159.777 7.33203 159.309 7.49609 159.074 7.49609H158.934ZM162.625 14.0352C162.555 14.0352 162.438 13.9414 162.273 13.7539C162.133 13.543 162.027 13.3438 161.957 13.1562C161.934 13.0156 161.934 12.8398 161.957 12.6289C162.004 12.3945 162.027 12.2188 162.027 12.1016C162.074 11.6328 162.098 11.2578 162.098 10.9766C162.121 10.7187 162.121 10.4375 162.098 10.1328C162.098 9.82813 162.098 9.62891 162.098 9.53516L162.062 9.00781C161.5 9.40625 161.066 9.6875 160.762 9.85156C160.082 10.2266 159.59 10.4609 159.285 10.5547C158.91 10.6953 158.57 10.7656 158.266 10.7656C158.102 10.7656 158.008 10.7422 157.984 10.6953C157.938 10.6016 158.406 10.2617 159.391 9.67578C160.328 9.08984 161.348 8.31641 162.449 7.35547C163.059 6.79297 163.527 6.25391 163.855 5.73828C163.902 5.66797 163.938 5.58594 163.961 5.49219C164.008 5.375 164.055 5.30469 164.102 5.28125C164.172 5.25781 164.266 5.26953 164.383 5.31641C164.688 5.48047 164.945 5.71484 165.156 6.01953C165.25 6.13672 165.297 6.25391 165.297 6.37109C165.297 6.48828 165.238 6.60547 165.121 6.72266C165.004 6.81641 164.887 6.88672 164.77 6.93359C164.371 7.19141 164.008 7.47266 163.68 7.77734C163.352 8.08203 163.141 8.28125 163.047 8.375C163.398 8.65625 163.574 8.85547 163.574 8.97266L163.469 9.71094C163.422 9.92188 163.398 10.4492 163.398 11.293C163.398 12.1133 163.422 12.6641 163.469 12.9453V13.0156C163.469 13.1328 163.434 13.2617 163.363 13.4023C163.316 13.5195 163.281 13.6016 163.258 13.6484C163.094 13.9063 162.883 14.0352 162.625 14.0352ZM166.211 22.9648C165.859 22.9648 165.52 22.707 165.191 22.1914C164.77 21.5352 164.359 20.9961 163.961 20.5742L163.047 19.625C162.555 20.1875 162.121 20.6328 161.746 20.9609C161.395 21.2891 160.949 21.6055 160.41 21.9102C159.402 22.4961 158.559 22.7891 157.879 22.7891C157.715 22.7891 157.633 22.7305 157.633 22.6133C157.633 22.543 157.855 22.3906 158.301 22.1562C158.746 21.9219 159.168 21.6406 159.566 21.3125C160.574 20.4688 161.406 19.6016 162.062 18.7109C161.922 18.5703 161.219 17.9609 159.953 16.8828C159.789 16.7656 159.543 16.5664 159.215 16.2852C159.145 16.2383 159.004 16.1328 158.793 15.9688C158.582 15.8047 158.477 15.6875 158.477 15.6172C158.477 15.5 158.535 15.4414 158.652 15.4414C159.004 15.4414 159.566 15.6875 160.34 16.1797C161.113 16.6484 161.922 17.2109 162.766 17.8672C163.094 17.4688 163.352 17.0938 163.539 16.7422C163.727 16.3906 163.938 15.957 164.172 15.4414C164.289 15.1836 164.359 14.9609 164.383 14.7734C164.406 14.5625 164.418 14.4336 164.418 14.3867C164.418 14.1289 164.488 14 164.629 14C164.793 14 165.016 14.1289 165.297 14.3867C165.789 14.8555 166.035 15.1719 166.035 15.3359C166.035 15.4297 165.977 15.5352 165.859 15.6523C165.578 15.9336 165.32 16.3086 165.086 16.7773C164.945 17.0586 164.688 17.457 164.312 17.9727C164.195 18.1133 164.102 18.2422 164.031 18.3594C163.961 18.4766 163.891 18.582 163.82 18.6758C164.359 19.0742 165.156 19.7539 166.211 20.7148C166.469 20.9492 166.633 21.1719 166.703 21.3828C166.797 21.5703 166.844 21.8281 166.844 22.1562C166.844 22.3906 166.785 22.5898 166.668 22.7539C166.551 22.8945 166.398 22.9648 166.211 22.9648ZM166.844 27.6055C167.102 27.8867 167.23 28.1211 167.23 28.3086C167.23 28.4727 167.137 28.625 166.949 28.7656C166.832 28.8594 166.539 29.375 166.07 30.3125C165.555 31.1562 164.98 31.8828 164.348 32.4922C163.738 33.125 163.129 33.582 162.52 33.8633C162.379 33.9102 162.262 33.9336 162.168 33.9336C162.074 33.9336 162.027 33.9102 162.027 33.8633V33.793C162.027 33.6523 162.145 33.4883 162.379 33.3008C162.801 32.9727 163.117 32.6328 163.328 32.2812C163.562 31.9531 163.738 31.707 163.855 31.543C164.348 30.8398 164.699 30.2656 164.91 29.8203C165.145 29.4219 165.309 29.0117 165.402 28.5898H165.262C164.652 28.5898 163.668 28.6602 162.309 28.8008C162.098 28.8242 161.488 28.9062 160.48 29.0469C160.27 29.0703 159.941 29.1289 159.496 29.2227L159.074 29.3281C158.98 29.375 158.887 29.3984 158.793 29.3984C158.676 29.3984 158.559 29.375 158.441 29.3281C158.324 29.2578 158.207 29.1758 158.09 29.082C157.809 28.8477 157.668 28.6484 157.668 28.4844C157.691 28.4375 157.715 28.3672 157.738 28.2734C157.785 28.1797 157.809 28.0977 157.809 28.0273L157.984 26.8672C158.008 26.75 158.031 26.6211 158.055 26.4805C158.078 26.3398 158.09 26.1992 158.09 26.0586C158.09 25.6133 158.078 25.2617 158.055 25.0039C158.055 24.7227 158.02 24.4297 157.949 24.125V24.0195C157.949 23.8555 158.02 23.7734 158.16 23.7734C158.301 23.7734 158.547 23.8789 158.898 24.0898C159.367 24.418 159.602 24.6758 159.602 24.8633C159.602 24.9336 159.59 24.9922 159.566 25.0391C159.543 25.0859 159.52 25.1328 159.496 25.1797C159.426 25.6016 159.391 25.8359 159.391 25.8828L159.215 27.7461C159.215 27.793 159.238 27.8516 159.285 27.9219C159.355 27.9688 159.426 27.9922 159.496 27.9922C160.059 27.9922 161.324 27.8516 163.293 27.5703C164.066 27.5 164.617 27.418 164.945 27.3242C165.156 27.3008 165.332 27.2656 165.473 27.2188C165.637 27.1484 165.742 27.1133 165.789 27.1133C165.93 27.0664 166.023 27.043 166.07 27.043C166.281 27.043 166.539 27.2305 166.844 27.6055ZM133.129 17.2344L130.738 17.9023L129.684 18.1836C128.957 18.3711 128.477 18.4766 128.242 18.5C127.961 18.5 127.703 18.4766 127.469 18.4297C127.164 18.3594 126.824 18.207 126.449 17.9727C126.051 17.7383 125.758 17.4102 125.57 16.9883C125.664 16.8477 125.84 16.7656 126.098 16.7422L126.977 16.707C127.703 16.6836 128.477 16.6484 129.297 16.6016C130.117 16.5312 130.855 16.4375 131.512 16.3203L133.762 15.9336C134.09 15.1836 134.289 14.7148 134.359 14.5273L134.816 13.1562C134.441 13.1797 134.148 13.2031 133.938 13.2266C133.727 13.25 133.375 13.2969 132.883 13.3672C132.391 13.4609 131.992 13.5078 131.688 13.5078C131.312 13.5078 131.02 13.4609 130.809 13.3672C130.527 13.25 130.316 13.1211 130.176 12.9805L130.035 12.6641C130.059 12.5 130.176 12.418 130.387 12.418L131.055 12.3477C131.219 12.3477 131.617 12.3125 132.25 12.2422C132.883 12.1719 133.48 12.1133 134.043 12.0664L135.238 11.9258C135.543 10.9883 135.719 10.4023 135.766 10.168L136.047 8.76172C135.18 8.83203 134.395 8.91406 133.691 9.00781C132.965 9.07812 132.496 9.11328 132.285 9.11328H131.758C131.289 9.11328 130.938 9.06641 130.703 8.97266C130.398 8.83203 130.176 8.66797 130.035 8.48047L129.895 8.12891L130.141 7.95312H130.879L131.863 7.84766L133.902 7.70703L136.293 7.35547L136.434 5.45703V5.10547C136.434 4.84766 136.41 4.53125 136.363 4.15625C136.316 3.80469 136.281 3.55859 136.258 3.41797L136.117 2.64453L136.469 2.39844C136.703 2.375 136.949 2.41016 137.207 2.50391C137.535 2.64453 137.863 2.79688 138.191 2.96094C138.52 3.125 138.801 3.32422 139.035 3.55859C139.27 3.79297 139.387 4.02734 139.387 4.26172L139.141 4.75391C138.977 5.01172 138.848 5.30469 138.754 5.63281L138.262 7.07422L141.145 6.65234L142.727 6.30078C143.008 6.25391 143.266 6.21875 143.5 6.19531C143.898 6.19531 144.32 6.28906 144.766 6.47656C145.164 6.61719 145.363 6.79297 145.363 7.00391C145.34 7.23828 145.246 7.37891 145.082 7.42578L144.379 7.63672C144.145 7.68359 143.746 7.75391 143.184 7.84766L140.934 8.19922C140.137 8.31641 139.469 8.39844 138.93 8.44531L137.98 8.55078C137.723 9.46484 137.57 10.0273 137.523 10.2383L137.137 11.6445L139.316 11.2578C139.785 11.1875 140.324 11.082 140.934 10.9414C141.543 10.7773 142.035 10.6836 142.41 10.6602C142.762 10.6602 143.043 10.6836 143.254 10.7305C143.582 10.7773 143.887 10.8711 144.168 11.0117L144.625 11.3984C144.625 11.5859 144.461 11.7266 144.133 11.8203C143.875 11.8906 143.523 11.9492 143.078 11.9961C142.633 12.043 142.059 12.1133 141.355 12.207L139.211 12.5586L136.855 12.9102C136.527 13.8008 136.328 14.3516 136.258 14.5625L135.871 15.6523C136.574 15.582 137.102 15.5234 137.453 15.4766L141.074 15.1602C141.73 15.1133 142.445 15.0195 143.219 14.8789C143.992 14.7617 144.613 14.6445 145.082 14.5273L146.137 14.2461C146.605 14.1523 146.969 14.1055 147.227 14.1055C147.531 14.1055 147.801 14.1523 148.035 14.2461C148.293 14.3398 148.668 14.4922 149.16 14.7031C149.652 14.9141 149.969 15.1367 150.109 15.3711L150.215 15.9336C150.121 16.1211 149.934 16.2266 149.652 16.25L148.879 16.2852L146.699 16.2148C146.348 16.2148 145.691 16.2383 144.73 16.2852L141.918 16.3555H140.652L141.777 17.1992L143.887 18.9922C145.012 19.9531 146.02 20.7617 146.91 21.418C147.801 22.0742 148.539 22.5547 149.125 22.8594C149.711 23.1641 150.566 23.5508 151.691 24.0195C152.816 24.4648 153.801 24.793 154.645 25.0039L155.594 25.7422L154.855 25.9531L152.605 26.4102C151.668 26.5977 150.941 26.6914 150.426 26.6914C149.816 26.6211 149.266 26.4219 148.773 26.0938C148.281 25.7656 147.824 25.3789 147.402 24.9336L144.66 21.9805C143.301 20.4805 142.246 19.3672 141.496 18.6406C140.793 17.9141 140.254 17.4336 139.879 17.1992L138.93 16.4961C137.875 16.6133 137.23 16.6836 136.996 16.707L135.273 16.918C134.57 18.2773 133.996 19.2852 133.551 19.9414C133.105 20.5977 132.496 21.3242 131.723 22.1211C130.973 22.9648 130.188 23.7031 129.367 24.3359C128.547 24.9688 127.785 25.4844 127.082 25.8828C126.332 26.2812 125.594 26.6211 124.867 26.9023C124.141 27.1602 123.66 27.3242 123.426 27.3945L122.406 27.2188L123.285 26.6562L124.27 26.0938C124.879 25.7656 125.547 25.3438 126.273 24.8281C127 24.3359 127.715 23.7734 128.418 23.1406C129.121 22.5078 129.883 21.7227 130.703 20.7852C131.547 19.8477 132.098 19.1445 132.355 18.6758L133.129 17.2344ZM139.984 32.3867L137.734 32.5977C136.703 32.6914 136.105 32.7383 135.941 32.7383L134.254 32.7734L134.113 33.3359C133.973 33.7578 133.809 33.9688 133.621 33.9688C133.434 33.9453 133.246 33.793 133.059 33.5117C132.848 33.207 132.719 32.8438 132.672 32.4219C132.672 32.1172 132.695 31.8008 132.742 31.4727C132.789 31.0273 132.812 30.5117 132.812 29.9258L132.637 24.8633C132.59 24.207 132.52 23.7266 132.426 23.4219C132.355 23.1172 132.273 22.8828 132.18 22.7188L132.074 22.4023C132.121 22.2617 132.344 22.168 132.742 22.1211L133.727 22.332L134.852 22.1914C135.25 22.1445 135.73 22.0625 136.293 21.9453L138.191 21.5586C138.848 21.418 139.316 21.3008 139.598 21.207C139.879 21.1367 140.16 21.043 140.441 20.9258L141.109 20.7148C141.367 20.6914 141.59 20.7148 141.777 20.7852C142.035 20.8789 142.316 21.0312 142.621 21.2422C142.949 21.4531 143.23 21.6641 143.465 21.875L143.852 22.3672C143.852 22.5312 143.816 22.6836 143.746 22.8242C143.676 23.0117 143.617 23.2109 143.57 23.4219C143.5 23.6328 143.465 23.832 143.465 24.0195C143.418 24.207 143.383 24.582 143.359 25.1445V25.7422C143.359 26.1406 143.371 26.5742 143.395 27.043C143.418 27.6055 143.465 28.1914 143.535 28.8008L143.816 30.5938C143.91 31.2031 143.957 31.6602 143.957 31.9648C143.91 32.5742 143.734 33.1836 143.43 33.793C143.102 34.4023 142.785 34.7773 142.48 34.918L141.953 35.0586C141.695 35.0352 141.449 34.8008 141.215 34.3555C141.004 33.9336 140.77 33.5234 140.512 33.125L139.984 32.3867ZM134.324 31.5781C135.355 31.4609 136.141 31.3672 136.68 31.2969L138.508 31.0508C139.188 30.9336 139.645 30.875 139.879 30.875C140.254 30.8984 140.535 30.957 140.723 31.0508L141.461 31.4727L141.637 27.0078C141.121 27.125 140.734 27.1953 140.477 27.2188L138.051 27.6758C136.973 27.8633 136.211 27.9805 135.766 28.0273L135.344 28.0625H134.992L134.254 27.8867L134.324 31.5781ZM134.254 26.9023C134.488 26.9023 134.699 26.8906 134.887 26.8672C135.074 26.8438 135.566 26.7617 136.363 26.6211C137.207 26.457 137.887 26.3047 138.402 26.1641C138.965 26 139.387 25.918 139.668 25.918C139.926 25.918 140.16 25.9297 140.371 25.9531C140.676 26 141.039 26.1055 141.461 26.2695L141.637 23.3164C141.613 22.9414 141.555 22.6953 141.461 22.5781C141.344 22.4609 141.121 22.3906 140.793 22.3672C140.488 22.3672 140.16 22.3789 139.809 22.4023L138.262 22.4727C137.887 22.5195 137.348 22.6367 136.645 22.8242C135.941 22.9883 135.449 23.1172 135.168 23.2109L134.535 23.3516L134.395 23.7031C134.418 23.8438 134.418 24.043 134.395 24.3008C134.348 24.5352 134.324 24.7344 134.324 24.8984L134.254 26.9023ZM219.121 13.6836C218.957 13.6836 218.781 13.5781 218.594 13.3672C218.453 13.2031 218.359 13.0742 218.312 12.9805C218.266 12.8633 218.266 12.7109 218.312 12.5234L218.348 11.6797C218.371 11.5156 218.383 11.1172 218.383 10.4844V9.32422L217.328 9.81641L216.098 10.3438C215.793 10.4609 215.477 10.6016 215.148 10.7656C214.867 10.9062 214.621 10.9766 214.41 10.9766C214.246 10.9531 214.059 10.8945 213.848 10.8008C213.637 10.707 213.473 10.625 213.355 10.5547C213.098 10.3906 212.98 10.2148 213.004 10.0273L213.109 9.67578C213.109 9.48828 213.121 9.32422 213.145 9.18359L213.18 7.14453V5.24609C213.18 4.87109 213.156 4.55469 213.109 4.29688C213.062 4.01562 213.027 3.81641 213.004 3.69922C213.004 3.58203 213.039 3.5 213.109 3.45312C213.133 3.42969 213.191 3.41797 213.285 3.41797C213.449 3.41797 213.766 3.52344 214.234 3.73438C214.633 3.92188 214.797 4.15625 214.727 4.4375C214.68 4.60156 214.633 4.84766 214.586 5.17578L214.48 9.21875C214.48 9.33594 214.492 9.42969 214.516 9.5C214.562 9.54688 214.609 9.57031 214.656 9.57031C214.938 9.57031 215.277 9.48828 215.676 9.32422C216.426 9.08984 217.07 8.85547 217.609 8.62109L218.383 8.30469V5.98438C218.383 5.04688 218.324 4.14453 218.207 3.27734C218.184 3.20703 218.172 3.125 218.172 3.03125C218.172 2.79688 218.266 2.67969 218.453 2.67969C218.477 2.67969 218.605 2.72656 218.84 2.82031C219.191 3.00781 219.449 3.17188 219.613 3.3125C219.777 3.45312 219.871 3.53516 219.895 3.55859C219.988 3.62891 220.035 3.69922 220.035 3.76953C220.035 3.81641 220.012 3.875 219.965 3.94531C219.941 4.01562 219.918 4.07422 219.895 4.12109L219.789 5.17578L219.754 8.41016L219.789 11.5391C219.789 12.0781 219.754 12.5469 219.684 12.9453C219.566 13.4375 219.379 13.6836 219.121 13.6836ZM212.652 19.4492C212.395 19.4492 212.078 19.25 211.703 18.8516C211.422 18.5703 211.281 18.3594 211.281 18.2188C211.281 18.1484 211.328 18.1133 211.422 18.1133C211.516 18.0898 211.633 18.0781 211.773 18.0781L212.547 18.043C212.992 18.043 213.285 18.0312 213.426 18.0078C213.871 18.0078 214.246 17.9961 214.551 17.9727C216.566 17.7852 217.926 17.6328 218.629 17.5156C218.98 17.4688 219.297 17.4219 219.578 17.375C219.859 17.3047 220.082 17.2695 220.246 17.2695C220.574 17.2695 220.902 17.4336 221.23 17.7617C221.488 18.0195 221.617 18.2305 221.617 18.3945C221.617 18.5352 221.535 18.6289 221.371 18.6758C221.254 18.6992 220.562 18.7461 219.297 18.8164C218.594 18.8398 217.727 18.8984 216.695 18.9922C215.664 19.0859 214.762 19.1797 213.988 19.2734C213.848 19.2969 213.648 19.332 213.391 19.3789C213.133 19.4258 212.887 19.4492 212.652 19.4492ZM217.363 33.9688C216.637 33.9688 216.074 33.9453 215.676 33.8984C215.301 33.8516 214.984 33.7109 214.727 33.4766C214.281 33.1484 213.977 32.4336 213.812 31.332L213.707 30.207C213.707 29.9258 213.684 29.5742 213.637 29.1523C213.262 29.1992 212.992 29.2461 212.828 29.293C212.781 29.3164 212.699 29.3516 212.582 29.3984C212.488 29.4219 212.418 29.4336 212.371 29.4336C212.207 29.4336 212.055 29.3867 211.914 29.293C211.773 29.1992 211.598 29.0234 211.387 28.7656C211.223 28.5547 211.141 28.4141 211.141 28.3438C211.141 28.2734 211.223 28.2266 211.387 28.2031C211.551 28.1797 211.773 28.168 212.055 28.168C212.453 28.168 212.969 28.1211 213.602 28.0273L213.566 27.5352C213.566 26.5977 213.508 25.8008 213.391 25.1445L213.355 24.8984C213.355 24.5703 213.484 24.4414 213.742 24.5117C214.023 24.6055 214.281 24.7227 214.516 24.8633C214.703 24.957 214.832 25.0508 214.902 25.1445C214.973 25.2148 214.996 25.3203 214.973 25.4609L214.867 26.9727V27.8867L217.961 27.5703C217.961 27.4062 217.973 27.0195 217.996 26.4102C218.02 25.7773 218.02 25.3672 217.996 25.1797C217.996 24.9922 217.973 24.8164 217.926 24.6523C217.902 24.4648 217.879 24.3125 217.855 24.1953C217.855 24.0078 217.949 23.9141 218.137 23.9141C218.324 23.9141 218.559 24.0195 218.84 24.2305C219.168 24.4414 219.379 24.6289 219.473 24.793C219.59 24.957 219.613 25.1562 219.543 25.3906C219.426 25.7656 219.344 26.1875 219.297 26.6562C219.25 27.125 219.227 27.4062 219.227 27.5C219.508 27.4766 219.766 27.4414 220 27.3945C220.234 27.3477 220.387 27.3242 220.457 27.3242C220.645 27.2773 220.867 27.2539 221.125 27.2539C221.266 27.2773 221.465 27.418 221.723 27.6758C221.934 27.957 222.039 28.1797 222.039 28.3438C222.039 28.5781 221.816 28.6719 221.371 28.625C220.973 28.5547 220.574 28.5195 220.176 28.5195C219.777 28.5195 219.438 28.5312 219.156 28.5547C219.086 29.3984 218.945 30.2305 218.734 31.0508C218.688 31.2383 218.605 31.4023 218.488 31.543C218.371 31.6602 218.266 31.7188 218.172 31.7188C218.008 31.7188 217.902 31.6602 217.855 31.543C217.832 31.4023 217.82 31.1914 217.82 30.9102C217.867 30.3008 217.891 29.5391 217.891 28.625C217.258 28.6719 216.766 28.7188 216.414 28.7656C215.875 28.8828 215.371 28.9531 214.902 28.9766C214.879 29.9375 214.926 30.793 215.043 31.543C215.113 32.0352 215.254 32.375 215.465 32.5625C215.605 32.6797 215.77 32.75 215.957 32.7734C216.168 32.7969 216.379 32.8086 216.59 32.8086C216.801 32.8086 216.941 32.8086 217.012 32.8086C217.738 32.8086 218.418 32.7734 219.051 32.7031C219.238 32.6797 219.402 32.6328 219.543 32.5625C219.707 32.4922 219.824 32.457 219.895 32.457C220.105 32.457 220.316 32.5273 220.527 32.668C220.738 32.8086 220.844 32.9727 220.844 33.1602C220.844 33.3477 220.738 33.4883 220.527 33.582C220.34 33.6758 220.035 33.7578 219.613 33.8281C218.863 33.9219 218.113 33.9688 217.363 33.9688ZM227.383 17.9727C227.664 17.9727 227.805 18.1016 227.805 18.3594C227.805 18.5 227.676 18.6992 227.418 18.957C226.715 19.8242 225.32 21.4766 223.234 23.9141C223.07 24.125 222.918 24.2305 222.777 24.2305C222.66 24.2305 222.402 24.0547 222.004 23.7031C221.676 23.4219 221.512 23.1875 221.512 23C221.512 22.7891 221.688 22.5898 222.039 22.4023C222.578 22.0977 223.387 21.4883 224.465 20.5742C225.543 19.6133 226.34 18.8516 226.855 18.2891C227.066 18.0781 227.242 17.9727 227.383 17.9727ZM188.992 26.3398C188.875 26.1523 188.781 25.9883 188.711 25.8477C188.617 25.707 188.523 25.5195 188.43 25.2852V24.4414L189.379 24.6523L190.328 25.0742C190.75 25.2617 191.125 25.4492 191.453 25.6367C191.781 25.8477 192.051 26.1641 192.262 26.5859C192.426 26.9375 192.508 27.3477 192.508 27.8164C192.484 28.2852 192.367 28.6484 192.156 28.9062C191.969 29.1641 191.723 29.293 191.418 29.293C191.113 29.293 190.797 29.1055 190.469 28.7305C190.281 28.543 190.105 28.2734 189.941 27.9219L189.414 27.043L185.617 29.7852L184.352 30.8398L183.508 31.6836L183.086 31.9648C182.852 31.9648 182.617 31.8125 182.383 31.5078C182.172 31.25 181.984 30.9336 181.82 30.5586C181.68 30.2539 181.609 29.9609 181.609 29.6797L181.82 29.0117C181.961 28.6367 182.066 28.25 182.137 27.8516C182.207 27.4297 182.266 26.9492 182.312 26.4102C182.359 25.8945 182.406 25.1445 182.453 24.1602L182.629 18.043C182.629 17.7148 182.617 17.375 182.594 17.0234C182.547 16.6719 182.488 16.3789 182.418 16.1445C182.348 15.9102 182.242 15.6992 182.102 15.5117L181.82 15.2305L181.75 14.8789C181.844 14.7383 182.008 14.668 182.242 14.668C182.805 14.668 183.25 14.7617 183.578 14.9492L184.105 15.2305C184.691 15.1602 185.172 15.0898 185.547 15.0195C185.945 14.9727 186.438 14.8789 187.023 14.7383C187.586 14.5977 188.02 14.4805 188.324 14.3867C188.629 14.293 188.945 14.1758 189.273 14.0352C189.602 13.8945 189.859 13.8242 190.047 13.8242C190.234 13.8477 190.457 13.918 190.715 14.0352L191.453 14.4219L191.91 14.7383C192.332 14.9961 192.602 15.207 192.719 15.3711L192.754 16.0039L192.402 16.5312C192.332 16.6719 192.227 16.9062 192.086 17.2344L191.91 17.7617L191.031 21.0312L190.68 22.4023C190.492 22.8711 190.305 23.1641 190.117 23.2812L189.73 23.4219H189.484L189.027 22.9648C188.395 23.0352 187.914 23.082 187.586 23.1055L185.16 23.457L184.281 23.5273L184.07 27.3945L184.211 28.168C184.398 28.168 184.609 28.1211 184.844 28.0273L188.992 26.3398ZM184.281 22.3672C184.703 22.3438 185.031 22.3203 185.266 22.2969C185.5 22.2734 185.852 22.2031 186.32 22.0859C186.836 21.9688 187.281 21.875 187.656 21.8047C187.938 21.7578 188.195 21.7344 188.43 21.7344L189.098 21.8047L189.695 19.0977C189.109 19.1445 188.676 19.1914 188.395 19.2383L186.707 19.5195C186.215 19.6133 185.816 19.6602 185.512 19.6602L184.949 19.5898L184.422 19.4141L184.281 22.3672ZM184.457 18.6758C184.902 18.6523 185.254 18.6172 185.512 18.5703C185.77 18.5234 186.203 18.418 186.812 18.2539C187.375 18.0898 187.797 17.9961 188.078 17.9727C188.477 17.9727 188.863 18.043 189.238 18.1836L189.801 18.3945L189.977 17.3047C190.023 17 190.047 16.6602 190.047 16.2852C190.047 15.9102 189.988 15.6641 189.871 15.5469C189.754 15.4297 189.59 15.3711 189.379 15.3711C189.145 15.3945 188.852 15.4531 188.5 15.5469C188.172 15.6172 187.633 15.7227 186.883 15.8633C186.109 16.0039 185.617 16.0742 185.406 16.0742L184.668 16.1094L184.457 18.6758ZM197.148 17.1992C197.055 17.5742 196.996 17.8555 196.973 18.043C196.949 18.2305 196.914 18.5352 196.867 18.957C196.82 19.3789 196.797 19.7305 196.797 20.0117L196.691 27.1133C196.668 28.0977 196.586 29.2461 196.445 30.5586L196.305 32.0703C196.211 32.9844 196.047 33.7695 195.812 34.4258C195.578 35.0586 195.367 35.375 195.18 35.375C195.016 35.3516 194.875 35.0117 194.758 34.3555C194.641 33.7227 194.57 32.9844 194.547 32.1406C194.523 31.5781 194.512 31.0156 194.512 30.4531V29.5742L194.652 20.3633C194.676 19.7539 194.688 19.2617 194.688 18.8867C194.688 18.5117 194.676 18.2539 194.652 18.1133C194.629 17.8086 194.594 17.457 194.547 17.0586C194.5 16.6602 194.418 16.332 194.301 16.0742L194.16 15.3711L194.336 15.1602C194.547 15.1602 194.805 15.207 195.109 15.3008C195.719 15.4883 196.117 15.6406 196.305 15.7578L196.867 16.1094L198.59 15.7227C199.176 15.582 199.773 15.418 200.383 15.2305L201.156 15.0195C201.531 14.9023 201.859 14.7734 202.141 14.6328L202.633 14.457C202.797 14.457 202.996 14.5273 203.23 14.668C203.465 14.8086 203.711 14.9727 203.969 15.1602C204.25 15.3477 204.52 15.5586 204.777 15.793C204.988 15.9805 205.059 16.2617 204.988 16.6367C204.801 16.8945 204.672 17.1289 204.602 17.3398C204.555 17.5508 204.508 17.832 204.461 18.1836C204.414 18.5586 204.391 18.9453 204.391 19.3438L204.18 23.1055C204.133 24.043 204.062 24.7695 203.969 25.2852C203.898 25.8008 203.746 26.2578 203.512 26.6562C203.254 27.0547 202.961 27.3711 202.633 27.6055L202 27.8867C201.812 27.8398 201.625 27.6992 201.438 27.4648C201.227 27.207 200.934 26.8789 200.559 26.4805C200.207 26.0586 199.867 25.6836 199.539 25.3555L198.906 24.793L198.695 24.3008C198.836 24.2773 199 24.3008 199.188 24.3711L199.996 24.6172C200.465 24.7812 200.828 24.875 201.086 24.8984C201.297 24.8984 201.473 24.8633 201.613 24.793C201.824 24.6523 201.953 24.3477 202 23.8789C202.07 23.3633 202.117 22.8711 202.141 22.4023L202.281 17.832C202.281 17.293 202.258 16.9414 202.211 16.7773L202.07 16.4961C201.93 16.3555 201.719 16.2852 201.438 16.2852C201.203 16.2852 200.805 16.332 200.242 16.4258L198.66 16.7422L197.148 17.1992ZM197.852 6.40625L202.281 5.52734C202.516 5.48047 202.773 5.41016 203.055 5.31641L203.688 5.17578C203.992 5.15234 204.25 5.16406 204.461 5.21094C204.742 5.28125 205.035 5.41016 205.34 5.59766L205.832 5.94922C205.855 6.08984 205.773 6.25391 205.586 6.44141C205.398 6.58203 205.129 6.6875 204.777 6.75781L203.477 7.00391C203.102 7.05078 202.574 7.12109 201.895 7.21484C201.215 7.28516 200.605 7.35547 200.066 7.42578C199.527 7.51953 199.164 7.56641 198.977 7.56641C198.602 7.56641 198.238 7.51953 197.887 7.42578L197.289 7.32031L196.27 8.72656C195.871 9.24219 195.391 9.76953 194.828 10.3086C194.219 10.8711 193.82 11.2109 193.633 11.3281L193 11.7148L192.578 11.8555L192.332 11.6797L192.578 11.293L193.352 10.3086C193.68 9.91016 193.949 9.55859 194.16 9.25391C194.371 8.92578 194.617 8.51562 194.898 8.02344C195.203 7.53125 195.449 7.09766 195.637 6.72266C195.801 6.37109 195.953 6.01953 196.094 5.66797C196.234 5.29297 196.34 4.98828 196.41 4.75391C196.48 4.49609 196.562 4.23828 196.656 3.98047C196.703 3.69922 196.727 3.44141 196.727 3.20703L196.938 2.64453L197.184 2.53906C197.348 2.53906 197.535 2.58594 197.746 2.67969C198.027 2.79688 198.32 2.94922 198.625 3.13672C198.93 3.32422 199.164 3.52344 199.328 3.73438L199.539 4.15625L199.469 4.47266C199.352 4.58984 199.188 4.75391 198.977 4.96484C198.742 5.19922 198.531 5.43359 198.344 5.66797L197.852 6.40625ZM186.25 7.28516L187.234 7.10938C187.656 7.03906 188.324 6.86328 189.238 6.58203L189.766 6.40625L190.645 6.16016L191.172 6.26562C191.453 6.33594 191.664 6.39453 191.805 6.44141C191.945 6.51172 192.086 6.60547 192.227 6.72266L192.473 6.96875C192.496 7.13281 192.438 7.27344 192.297 7.39062C192.109 7.50781 191.805 7.61328 191.383 7.70703L190.539 7.91797C190.352 7.96484 189.883 8.03516 189.133 8.12891L187.938 8.30469C187.633 8.32812 187.387 8.33984 187.199 8.33984L186.742 8.30469L185.828 7.98828L184.773 9.21875C184.445 9.61719 184.07 10.0156 183.648 10.4141C183.227 10.8359 182.84 11.1758 182.488 11.4336C182.137 11.668 181.762 11.9023 181.363 12.1367L180.168 12.5234C180.145 12.3594 180.203 12.207 180.344 12.0664L180.941 11.5039C181.293 11.1758 181.609 10.8477 181.891 10.5195C182.172 10.2383 182.512 9.81641 182.91 9.25391C183.309 8.69141 183.672 8.12891 184 7.56641C184.328 7.05078 184.609 6.58203 184.844 6.16016C185.055 5.73828 185.23 5.33984 185.371 4.96484C185.512 4.58984 185.582 4.21484 185.582 3.83984L185.863 3.3125C186.168 3.3125 186.496 3.41797 186.848 3.62891C187.199 3.81641 187.434 3.96875 187.551 4.08594C187.691 4.20313 187.82 4.33203 187.938 4.47266L188.148 5.17578C188.102 5.31641 187.984 5.44531 187.797 5.5625L187.41 5.80859L186.742 6.72266L186.25 7.28516ZM186.391 10.0625C186.648 10.0156 186.883 10.0039 187.094 10.0273L187.867 10.2031C188.078 10.2734 188.312 10.3438 188.57 10.4141C188.828 10.4844 189.039 10.5898 189.203 10.7305C189.391 10.8711 189.52 11.0117 189.59 11.1523C189.66 11.293 189.695 11.5039 189.695 11.7852C189.695 12.1602 189.602 12.4414 189.414 12.6289C189.25 12.8164 189.039 12.9219 188.781 12.9453C188.57 12.9453 188.312 12.8164 188.008 12.5586C187.797 12.3945 187.516 12.1133 187.164 11.7148C186.812 11.3398 186.555 11.0469 186.391 10.8359C186.25 10.625 186.25 10.3672 186.391 10.0625ZM198.414 8.90234L199.293 9.04297C199.926 9.18359 200.465 9.35938 200.91 9.57031C201.332 9.78125 201.648 10.0273 201.859 10.3086C202.047 10.5898 202.141 10.9648 202.141 11.4336C202.117 11.9961 201.918 12.3594 201.543 12.5234C201.238 12.5234 200.945 12.4297 200.664 12.2422C200.289 12.0312 199.926 11.7266 199.574 11.3281L198.695 10.2383L198.027 8.9375C198.191 8.89062 198.32 8.87891 198.414 8.90234Z" fill="#333333"/>
<path d="M143.031 66.8438C142.719 66.8438 142.49 66.6771 142.344 66.3438L142.062 65.7188C141.25 65.9271 140.594 66.0833 140.094 66.1875L138.062 66.6875C137.646 66.7917 137.385 66.8438 137.281 66.8438C137.156 66.8438 137.052 66.8229 136.969 66.7812C136.906 66.7188 136.854 66.6667 136.812 66.625C136.771 66.5625 136.74 66.5104 136.719 66.4688C136.552 66.1771 136.479 65.9792 136.5 65.875L136.719 65.5312C137.26 64.7812 137.76 63.7083 138.219 62.3125L137.594 62.4062L136.781 62.5C136.719 62.5208 136.583 62.5625 136.375 62.625C136.188 62.6667 136.042 62.6562 135.938 62.5938C135.708 62.4479 135.406 62.1875 135.031 61.8125C134.948 61.7292 134.906 61.6667 134.906 61.625C134.906 61.5 135.135 61.4375 135.594 61.4375H136.656C137.365 61.3958 138.01 61.3438 138.594 61.2812C138.719 60.9688 138.854 60.5729 139 60.0938C139.146 59.6146 139.25 59.2292 139.312 58.9375C139.312 58.875 139.312 58.75 139.312 58.5625C139.333 58.375 139.375 58.2604 139.438 58.2188H139.469C139.552 58.2188 139.667 58.2604 139.812 58.3438C139.958 58.4271 140.094 58.5312 140.219 58.6562C140.615 59.0521 140.729 59.3646 140.562 59.5938C140.479 59.6146 140.302 59.9583 140.031 60.625C140.01 60.6667 139.938 60.8542 139.812 61.1875C139.979 61.1667 140.583 61.0938 141.625 60.9688C142.104 60.9271 142.469 60.875 142.719 60.8125C143.073 60.7083 143.354 60.6562 143.562 60.6562C143.729 60.6562 143.865 60.7188 143.969 60.8438C144.073 60.9479 144.146 61.0208 144.188 61.0625C144.25 61.125 144.323 61.25 144.406 61.4375C144.49 61.5833 144.521 61.6875 144.5 61.75C144.417 61.875 144.271 61.9375 144.062 61.9375C143.375 61.8958 142.552 61.9167 141.594 62C141.177 62.0417 140.865 62.0833 140.656 62.125L139.438 62.25L139.156 63.0938L138.812 63.8438C138.708 64.0938 138.594 64.3438 138.469 64.5938C138.344 64.8438 138.25 65.0521 138.188 65.2188C138.167 65.2604 138.156 65.3229 138.156 65.4062C138.156 65.5104 138.219 65.5625 138.344 65.5625C138.51 65.5625 139.083 65.4688 140.062 65.2812L141.219 65.0938L141.75 64.9688C141.562 64.4479 141.417 64.1146 141.312 63.9688C141.208 63.8229 141.146 63.7292 141.125 63.6875L141.312 63.5C142.125 64.0208 142.781 64.5521 143.281 65.0938C143.427 65.2812 143.521 65.4583 143.562 65.625C143.625 65.7917 143.646 65.9792 143.625 66.1875C143.583 66.375 143.51 66.5208 143.406 66.625C143.365 66.7292 143.24 66.8021 143.031 66.8438ZM136.469 72.8438C136.24 72.8438 135.958 72.6667 135.625 72.3125C135.375 72.0625 135.25 71.875 135.25 71.75C135.25 71.6875 135.292 71.6562 135.375 71.6562C135.458 71.6354 135.562 71.625 135.688 71.625L136.375 71.5938C136.771 71.5938 137.031 71.5833 137.156 71.5625C137.552 71.5625 137.885 71.5521 138.156 71.5312C139.948 71.3646 141.156 71.2292 141.781 71.125C142.094 71.0833 142.375 71.0417 142.625 71C142.875 70.9375 143.073 70.9062 143.219 70.9062C143.51 70.9062 143.802 71.0521 144.094 71.3438C144.323 71.5729 144.438 71.7604 144.438 71.9062C144.438 72.0312 144.365 72.1146 144.219 72.1562C144.115 72.1771 143.5 72.2188 142.375 72.2812C141.75 72.3021 140.979 72.3542 140.062 72.4375C139.146 72.5208 138.344 72.6042 137.656 72.6875C137.531 72.7083 137.354 72.7396 137.125 72.7812C136.896 72.8229 136.677 72.8438 136.469 72.8438ZM140.656 85.75C140.01 85.75 139.51 85.7292 139.156 85.6875C138.823 85.6458 138.542 85.5208 138.312 85.3125C137.917 85.0208 137.646 84.3854 137.5 83.4062L137.406 82.4062C137.406 82.1562 137.385 81.8438 137.344 81.4688C137.01 81.5104 136.771 81.5521 136.625 81.5938C136.583 81.6146 136.51 81.6458 136.406 81.6875C136.323 81.7083 136.26 81.7188 136.219 81.7188C136.073 81.7188 135.938 81.6771 135.812 81.5938C135.688 81.5104 135.531 81.3542 135.344 81.125C135.198 80.9375 135.125 80.8125 135.125 80.75C135.125 80.6875 135.198 80.6458 135.344 80.625C135.49 80.6042 135.688 80.5938 135.938 80.5938C136.292 80.5938 136.75 80.5521 137.312 80.4688L137.281 80.0312C137.281 79.1979 137.229 78.4896 137.125 77.9062L137.094 77.6875C137.094 77.3958 137.208 77.2812 137.438 77.3438C137.688 77.4271 137.917 77.5312 138.125 77.6562C138.292 77.7396 138.406 77.8229 138.469 77.9062C138.531 77.9688 138.552 78.0625 138.531 78.1875L138.438 79.5312V80.3438L141.188 80.0625C141.188 79.9167 141.198 79.5729 141.219 79.0312C141.24 78.4688 141.24 78.1042 141.219 77.9375C141.219 77.7708 141.198 77.6146 141.156 77.4688C141.135 77.3021 141.115 77.1667 141.094 77.0625C141.094 76.8958 141.177 76.8125 141.344 76.8125C141.51 76.8125 141.719 76.9062 141.969 77.0938C142.26 77.2812 142.448 77.4479 142.531 77.5938C142.635 77.7396 142.656 77.9167 142.594 78.125C142.49 78.4583 142.417 78.8333 142.375 79.25C142.333 79.6667 142.312 79.9167 142.312 80C142.562 79.9792 142.792 79.9479 143 79.9062C143.208 79.8646 143.344 79.8438 143.406 79.8438C143.573 79.8021 143.771 79.7812 144 79.7812C144.125 79.8021 144.302 79.9271 144.531 80.1562C144.719 80.4062 144.812 80.6042 144.812 80.75C144.812 80.9583 144.615 81.0417 144.219 81C143.865 80.9375 143.51 80.9062 143.156 80.9062C142.802 80.9062 142.5 80.9167 142.25 80.9375C142.188 81.6875 142.062 82.4271 141.875 83.1562C141.833 83.3229 141.76 83.4688 141.656 83.5938C141.552 83.6979 141.458 83.75 141.375 83.75C141.229 83.75 141.135 83.6979 141.094 83.5938C141.073 83.4688 141.062 83.2812 141.062 83.0312C141.104 82.4896 141.125 81.8125 141.125 81C140.562 81.0417 140.125 81.0833 139.812 81.125C139.333 81.2292 138.885 81.2917 138.469 81.3125C138.448 82.1667 138.49 82.9271 138.594 83.5938C138.656 84.0312 138.781 84.3333 138.969 84.5C139.094 84.6042 139.24 84.6667 139.406 84.6875C139.594 84.7083 139.781 84.7188 139.969 84.7188C140.156 84.7188 140.281 84.7188 140.344 84.7188C140.99 84.7188 141.594 84.6875 142.156 84.625C142.323 84.6042 142.469 84.5625 142.594 84.5C142.74 84.4375 142.844 84.4062 142.906 84.4062C143.094 84.4062 143.281 84.4688 143.469 84.5938C143.656 84.7188 143.75 84.8646 143.75 85.0312C143.75 85.1979 143.656 85.3229 143.469 85.4062C143.302 85.4896 143.031 85.5625 142.656 85.625C141.99 85.7083 141.323 85.75 140.656 85.75ZM110.969 76.25L111.406 76.4062C111.531 76.4479 111.688 76.5312 111.875 76.6562C112.062 76.7812 112.24 76.9167 112.406 77.0625L112.531 77.5938C112.448 77.7188 112.302 77.8646 112.094 78.0312C111.885 78.1979 111.635 78.4271 111.344 78.7188L110.469 79.8438C110.219 80.1354 109.802 80.5312 109.219 81.0312C108.635 81.5312 108.135 81.9375 107.719 82.25C107.281 82.5625 106.938 82.7812 106.688 82.9062L105.719 83.1562L106.031 82.7188L106.344 82.4062C106.51 82.2188 106.76 81.9583 107.094 81.625L108.031 80.5312C108.344 80.1562 108.667 79.7188 109 79.2188C109.333 78.7188 109.583 78.3125 109.75 78C109.896 77.6667 110.01 77.3854 110.094 77.1562C110.177 76.9479 110.25 76.6979 110.312 76.4062H109.469L109.062 76.9375L108.719 76.6562C108.594 76.5312 108.479 76.375 108.375 76.1875C108.271 76 108.188 75.8021 108.125 75.5938C108.062 75.3854 108.031 75.1979 108.031 75.0312C108.031 74.8646 108.104 74.4062 108.25 73.6562C108.292 73.4479 108.344 73.0417 108.406 72.4375C108.448 71.8542 108.49 71.4167 108.531 71.125L108.719 65.6875C108.719 65.2917 108.698 64.9896 108.656 64.7812C108.615 64.4688 108.552 64.1875 108.469 63.9375L108.312 63.4688L107.969 62.7188C108.052 62.5729 108.198 62.4896 108.406 62.4688C108.656 62.4688 108.99 62.5417 109.406 62.6875L110.062 62.9688L112.938 62.4688L113.781 62.2812C114.198 62.1979 114.552 62.1042 114.844 62L115.25 61.8438C115.438 61.8438 115.719 61.9167 116.094 62.0625C116.469 62.2083 116.75 62.3333 116.938 62.4375C117.125 62.5417 117.312 62.6771 117.5 62.8438L117.781 63.25C117.802 63.3958 117.76 63.5938 117.656 63.8438C117.531 64.0938 117.448 64.3125 117.406 64.5C117.365 64.6875 117.323 65.0417 117.281 65.5625C117.24 66.0833 117.219 66.4896 117.219 66.7812L117.156 71.3438V72.9375C117.198 73.4167 117.219 73.8438 117.219 74.2188C117.24 74.4688 117.25 74.7188 117.25 74.9688C117.229 75.3438 117.177 75.6458 117.094 75.875C117.01 76.1042 116.875 76.3646 116.688 76.6562C116.5 76.9271 116.271 77.0521 116 77.0312C115.812 76.9271 115.656 76.7604 115.531 76.5312L115.25 76.0938L110.969 76.25ZM110.031 67.5938L113.125 67.0312L114.219 66.7812C114.469 66.7812 114.719 66.8021 114.969 66.8438L115.469 66.9062V65.9375L115.406 64.7188C115.406 64.3229 115.385 64.0312 115.344 63.8438C115.302 63.6771 115.219 63.5417 115.094 63.4375C114.969 63.3542 114.76 63.3125 114.469 63.3125C114.094 63.3333 113.76 63.3646 113.469 63.4062L110.125 63.9062L110.031 67.5938ZM110.031 68.1562C110.01 68.4271 110 68.6354 110 68.7812L109.969 70.2812L110.219 71.1875L113.156 70.75L114.188 70.5938L114.656 70.6562L115.031 70.75L115.469 70.9375V67.7812L115.188 67.9062C115.062 67.9271 114.896 67.9479 114.688 67.9688L112.344 68.2812L111.281 68.4062L110.844 68.375L110.438 68.3438L110.031 68.1562ZM109.906 71.9062L109.844 73.0625L109.656 75.2188L112.719 75.0625L113.906 74.9688C114.26 74.9688 114.51 74.9896 114.656 75.0312L115.219 75.1562C115.26 74.9479 115.302 74.7604 115.344 74.5938C115.385 74.4271 115.417 74.2188 115.438 73.9688C115.458 73.7188 115.469 73.4271 115.469 73.0938V71.5312C115.302 71.5729 115.156 71.6146 115.031 71.6562L114.719 71.7188L112.281 71.9688L111.219 72.0625H110.75L110.375 72.0312L109.906 71.9062ZM123.406 74.9688L123.656 63.9688C123.656 63.6354 123.635 63.1771 123.594 62.5938C123.552 61.9896 123.51 61.5833 123.469 61.375C123.406 61.1458 123.344 60.9375 123.281 60.75C123.198 60.5417 123.115 60.3854 123.031 60.2812L122.906 60.0312L122.969 59.7188L123.438 59.5938C123.833 59.6354 124.125 59.6875 124.312 59.75C124.5 59.7917 124.688 59.8542 124.875 59.9375C125.062 60.0417 125.292 60.1562 125.562 60.2812C125.812 60.4271 125.99 60.5729 126.094 60.7188L126.219 61C126.219 61.1458 126.167 61.3021 126.062 61.4688C125.958 61.6354 125.875 61.8333 125.812 62.0625C125.75 62.2917 125.698 62.5625 125.656 62.875L125.531 63.8438C125.49 64.2188 125.469 64.6979 125.469 65.2812L125.344 67.6562L127.344 67.0625C127.885 66.8958 128.219 66.7917 128.344 66.75C128.469 66.7292 128.615 66.6979 128.781 66.6562C129.031 66.6562 129.292 66.6771 129.562 66.7188C129.833 66.7604 130.146 66.8229 130.5 66.9062C130.854 67.0312 131.135 67.1458 131.344 67.25L131.5 67.7812L130.719 68L126.969 68.75C126.635 68.8125 126.375 68.8438 126.188 68.8438L125.281 68.75L125.031 74.75L126.406 74.5312C126.865 74.4479 127.25 74.3854 127.562 74.3438C127.875 74.2604 128.208 74.1771 128.562 74.0938L129.125 73.9375C129.438 73.9167 129.698 73.9271 129.906 73.9688C130.115 74.0521 130.344 74.1562 130.594 74.2812L131.125 74.625C131.562 74.9167 131.865 75.1458 132.031 75.3125L132.25 75.7188C132.229 75.8854 132.115 76.0729 131.906 76.2812C131.698 76.4896 131.542 76.6771 131.438 76.8438C131.333 77.0104 131.177 77.3542 130.969 77.875C130.719 78.3958 130.573 78.7396 130.531 78.9062L129.812 81.5312L130.281 81.875L130.438 82.1875C130.375 82.3125 130.24 82.375 130.031 82.375H129.094C128.594 82.375 127.823 82.4062 126.781 82.4688L121.5 82.9375L121.25 83.2812L120.844 83.3438C120.719 83.2604 120.604 83.125 120.5 82.9375C120.375 82.75 120.281 82.3854 120.219 81.8438L119.469 76.9688C119.427 76.7396 119.344 76.4688 119.219 76.1562C119.094 75.8646 118.969 75.6354 118.844 75.4688L118.656 74.9375C118.74 74.8125 118.906 74.75 119.156 74.75C119.385 74.7708 119.562 74.8021 119.688 74.8438L120.969 75.2812L123.406 74.9688ZM121.594 81.6562L127.969 81.1562L128.781 76.1875V75.9062C128.719 75.7812 128.615 75.6562 128.469 75.5312L127.906 75.4688C127.74 75.4479 127.562 75.4375 127.375 75.4375C127.208 75.4375 127.031 75.4479 126.844 75.4688L121.156 76.2188L121.594 81.6562ZM113.938 78L113.844 77.5C113.969 77.4792 114.094 77.4896 114.219 77.5312L114.688 77.75L115.219 78.0625C115.51 78.25 115.865 78.5 116.281 78.8125C116.698 79.1458 117.01 79.5 117.219 79.875C117.427 80.25 117.552 80.6979 117.594 81.2188C117.594 81.6146 117.531 81.9062 117.406 82.0938C117.24 82.3438 117.052 82.4792 116.844 82.5C116.656 82.5 116.438 82.3229 116.188 81.9688C116.042 81.7604 115.833 81.4167 115.562 80.9375L115.125 80.1875L114.469 78.9688C114.219 78.5521 114.042 78.2292 113.938 78ZM184.719 62.2188C184.573 62.2188 184.646 62.0938 184.938 61.8438C185.229 61.5938 185.583 61.2917 186 60.9375C186.417 60.5625 186.885 60.0729 187.406 59.4688C187.74 59.0729 187.99 58.6562 188.156 58.2188C188.26 57.9688 188.375 57.8438 188.5 57.8438C188.604 57.8438 188.76 57.9271 188.969 58.0938C189.385 58.4271 189.594 58.7083 189.594 58.9375C189.594 59.0833 189.51 59.1875 189.344 59.25C189.26 59.2708 189.135 59.3646 188.969 59.5312C188.802 59.6771 188.677 59.7917 188.594 59.875C187.698 60.75 186.865 61.3854 186.094 61.7812C185.469 62.0729 185.052 62.2188 184.844 62.2188H184.719ZM188 68.0312C187.938 68.0312 187.833 67.9479 187.688 67.7812C187.562 67.5938 187.469 67.4167 187.406 67.25C187.385 67.125 187.385 66.9688 187.406 66.7812C187.448 66.5729 187.469 66.4167 187.469 66.3125C187.51 65.8958 187.531 65.5625 187.531 65.3125C187.552 65.0833 187.552 64.8333 187.531 64.5625C187.531 64.2917 187.531 64.1146 187.531 64.0312L187.5 63.5625C187 63.9167 186.615 64.1667 186.344 64.3125C185.74 64.6458 185.302 64.8542 185.031 64.9375C184.698 65.0625 184.396 65.125 184.125 65.125C183.979 65.125 183.896 65.1042 183.875 65.0625C183.833 64.9792 184.25 64.6771 185.125 64.1562C185.958 63.6354 186.865 62.9479 187.844 62.0938C188.385 61.5938 188.802 61.1146 189.094 60.6562C189.135 60.5938 189.167 60.5208 189.188 60.4375C189.229 60.3333 189.271 60.2708 189.312 60.25C189.375 60.2292 189.458 60.2396 189.562 60.2812C189.833 60.4271 190.062 60.6354 190.25 60.9062C190.333 61.0104 190.375 61.1146 190.375 61.2188C190.375 61.3229 190.323 61.4271 190.219 61.5312C190.115 61.6146 190.01 61.6771 189.906 61.7188C189.552 61.9479 189.229 62.1979 188.938 62.4688C188.646 62.7396 188.458 62.9167 188.375 63C188.688 63.25 188.844 63.4271 188.844 63.5312L188.75 64.1875C188.708 64.375 188.688 64.8438 188.688 65.5938C188.688 66.3229 188.708 66.8125 188.75 67.0625V67.125C188.75 67.2292 188.719 67.3438 188.656 67.4688C188.615 67.5729 188.583 67.6458 188.562 67.6875C188.417 67.9167 188.229 68.0312 188 68.0312ZM191.188 75.9688C190.875 75.9688 190.573 75.7396 190.281 75.2812C189.906 74.6979 189.542 74.2188 189.188 73.8438L188.375 73C187.938 73.5 187.552 73.8958 187.219 74.1875C186.906 74.4792 186.51 74.7604 186.031 75.0312C185.135 75.5521 184.385 75.8125 183.781 75.8125C183.635 75.8125 183.562 75.7604 183.562 75.6562C183.562 75.5938 183.76 75.4583 184.156 75.25C184.552 75.0417 184.927 74.7917 185.281 74.5C186.177 73.75 186.917 72.9792 187.5 72.1875C187.375 72.0625 186.75 71.5208 185.625 70.5625C185.479 70.4583 185.26 70.2812 184.969 70.0312C184.906 69.9896 184.781 69.8958 184.594 69.75C184.406 69.6042 184.312 69.5 184.312 69.4375C184.312 69.3333 184.365 69.2812 184.469 69.2812C184.781 69.2812 185.281 69.5 185.969 69.9375C186.656 70.3542 187.375 70.8542 188.125 71.4375C188.417 71.0833 188.646 70.75 188.812 70.4375C188.979 70.125 189.167 69.7396 189.375 69.2812C189.479 69.0521 189.542 68.8542 189.562 68.6875C189.583 68.5 189.594 68.3854 189.594 68.3438C189.594 68.1146 189.656 68 189.781 68C189.927 68 190.125 68.1146 190.375 68.3438C190.812 68.7604 191.031 69.0417 191.031 69.1875C191.031 69.2708 190.979 69.3646 190.875 69.4688C190.625 69.7188 190.396 70.0521 190.188 70.4688C190.062 70.7188 189.833 71.0729 189.5 71.5312C189.396 71.6562 189.312 71.7708 189.25 71.875C189.188 71.9792 189.125 72.0729 189.062 72.1562C189.542 72.5104 190.25 73.1146 191.188 73.9688C191.417 74.1771 191.562 74.375 191.625 74.5625C191.708 74.7292 191.75 74.9583 191.75 75.25C191.75 75.4583 191.698 75.6354 191.594 75.7812C191.49 75.9062 191.354 75.9688 191.188 75.9688ZM191.75 80.0938C191.979 80.3438 192.094 80.5521 192.094 80.7188C192.094 80.8646 192.01 81 191.844 81.125C191.74 81.2083 191.479 81.6667 191.062 82.5C190.604 83.25 190.094 83.8958 189.531 84.4375C188.99 85 188.448 85.4062 187.906 85.6562C187.781 85.6979 187.677 85.7188 187.594 85.7188C187.51 85.7188 187.469 85.6979 187.469 85.6562V85.5938C187.469 85.4688 187.573 85.3229 187.781 85.1562C188.156 84.8646 188.438 84.5625 188.625 84.25C188.833 83.9583 188.99 83.7396 189.094 83.5938C189.531 82.9688 189.844 82.4583 190.031 82.0625C190.24 81.7083 190.385 81.3438 190.469 80.9688H190.344C189.802 80.9688 188.927 81.0312 187.719 81.1562C187.531 81.1771 186.99 81.25 186.094 81.375C185.906 81.3958 185.615 81.4479 185.219 81.5312L184.844 81.625C184.76 81.6667 184.677 81.6875 184.594 81.6875C184.49 81.6875 184.385 81.6667 184.281 81.625C184.177 81.5625 184.073 81.4896 183.969 81.4062C183.719 81.1979 183.594 81.0208 183.594 80.875C183.615 80.8333 183.635 80.7708 183.656 80.6875C183.698 80.6042 183.719 80.5312 183.719 80.4688L183.875 79.4375C183.896 79.3333 183.917 79.2188 183.938 79.0938C183.958 78.9688 183.969 78.8438 183.969 78.7188C183.969 78.3229 183.958 78.0104 183.938 77.7812C183.938 77.5312 183.906 77.2708 183.844 77V76.9062C183.844 76.7604 183.906 76.6875 184.031 76.6875C184.156 76.6875 184.375 76.7812 184.688 76.9688C185.104 77.2604 185.312 77.4896 185.312 77.6562C185.312 77.7188 185.302 77.7708 185.281 77.8125C185.26 77.8542 185.24 77.8958 185.219 77.9375C185.156 78.3125 185.125 78.5208 185.125 78.5625L184.969 80.2188C184.969 80.2604 184.99 80.3125 185.031 80.375C185.094 80.4167 185.156 80.4375 185.219 80.4375C185.719 80.4375 186.844 80.3125 188.594 80.0625C189.281 80 189.771 79.9271 190.062 79.8438C190.25 79.8229 190.406 79.7917 190.531 79.75C190.677 79.6875 190.771 79.6562 190.812 79.6562C190.938 79.6146 191.021 79.5938 191.062 79.5938C191.25 79.5938 191.479 79.7604 191.75 80.0938ZM161.781 70.875L159.656 71.4688L158.719 71.7188C158.073 71.8854 157.646 71.9792 157.438 72C157.188 72 156.958 71.9792 156.75 71.9375C156.479 71.875 156.177 71.7396 155.844 71.5312C155.49 71.3229 155.229 71.0312 155.062 70.6562C155.146 70.5312 155.302 70.4583 155.531 70.4375L156.312 70.4062C156.958 70.3854 157.646 70.3542 158.375 70.3125C159.104 70.25 159.76 70.1667 160.344 70.0625L162.344 69.7188C162.635 69.0521 162.812 68.6354 162.875 68.4688L163.281 67.25C162.948 67.2708 162.688 67.2917 162.5 67.3125C162.312 67.3333 162 67.375 161.562 67.4375C161.125 67.5208 160.771 67.5625 160.5 67.5625C160.167 67.5625 159.906 67.5208 159.719 67.4375C159.469 67.3333 159.281 67.2188 159.156 67.0938L159.031 66.8125C159.052 66.6667 159.156 66.5938 159.344 66.5938L159.938 66.5312C160.083 66.5312 160.438 66.5 161 66.4375C161.562 66.375 162.094 66.3229 162.594 66.2812L163.656 66.1562C163.927 65.3229 164.083 64.8021 164.125 64.5938L164.375 63.3438C163.604 63.4062 162.906 63.4792 162.281 63.5625C161.635 63.625 161.219 63.6562 161.031 63.6562H160.562C160.146 63.6562 159.833 63.6146 159.625 63.5312C159.354 63.4062 159.156 63.2604 159.031 63.0938L158.906 62.7812L159.125 62.625H159.781L160.656 62.5312L162.469 62.4062L164.594 62.0938L164.719 60.4062V60.0938C164.719 59.8646 164.698 59.5833 164.656 59.25C164.615 58.9375 164.583 58.7188 164.562 58.5938L164.438 57.9062L164.75 57.6875C164.958 57.6667 165.177 57.6979 165.406 57.7812C165.698 57.9062 165.99 58.0417 166.281 58.1875C166.573 58.3333 166.823 58.5104 167.031 58.7188C167.24 58.9271 167.344 59.1354 167.344 59.3438L167.125 59.7812C166.979 60.0104 166.865 60.2708 166.781 60.5625L166.344 61.8438L168.906 61.4688L170.312 61.1562C170.562 61.1146 170.792 61.0833 171 61.0625C171.354 61.0625 171.729 61.1458 172.125 61.3125C172.479 61.4375 172.656 61.5938 172.656 61.7812C172.635 61.9896 172.552 62.1146 172.406 62.1562L171.781 62.3438C171.573 62.3854 171.219 62.4479 170.719 62.5312L168.719 62.8438C168.01 62.9479 167.417 63.0208 166.938 63.0625L166.094 63.1562C165.865 63.9688 165.729 64.4688 165.688 64.6562L165.344 65.9062L167.281 65.5625C167.698 65.5 168.177 65.4062 168.719 65.2812C169.26 65.1354 169.698 65.0521 170.031 65.0312C170.344 65.0312 170.594 65.0521 170.781 65.0938C171.073 65.1354 171.344 65.2188 171.594 65.3438L172 65.6875C172 65.8542 171.854 65.9792 171.562 66.0625C171.333 66.125 171.021 66.1771 170.625 66.2188C170.229 66.2604 169.719 66.3229 169.094 66.4062L167.188 66.7188L165.094 67.0312C164.802 67.8229 164.625 68.3125 164.562 68.5L164.219 69.4688C164.844 69.4062 165.312 69.3542 165.625 69.3125L168.844 69.0312C169.427 68.9896 170.062 68.9062 170.75 68.7812C171.438 68.6771 171.99 68.5729 172.406 68.4688L173.344 68.2188C173.76 68.1354 174.083 68.0938 174.312 68.0938C174.583 68.0938 174.823 68.1354 175.031 68.2188C175.26 68.3021 175.594 68.4375 176.031 68.625C176.469 68.8125 176.75 69.0104 176.875 69.2188L176.969 69.7188C176.885 69.8854 176.719 69.9792 176.469 70L175.781 70.0312L173.844 69.9688C173.531 69.9688 172.948 69.9896 172.094 70.0312L169.594 70.0938H168.469L169.469 70.8438L171.344 72.4375C172.344 73.2917 173.24 74.0104 174.031 74.5938C174.823 75.1771 175.479 75.6042 176 75.875C176.521 76.1458 177.281 76.4896 178.281 76.9062C179.281 77.3021 180.156 77.5938 180.906 77.7812L181.75 78.4375L181.094 78.625L179.094 79.0312C178.26 79.1979 177.615 79.2812 177.156 79.2812C176.615 79.2188 176.125 79.0417 175.688 78.75C175.25 78.4583 174.844 78.1146 174.469 77.7188L172.031 75.0938C170.823 73.7604 169.885 72.7708 169.219 72.125C168.594 71.4792 168.115 71.0521 167.781 70.8438L166.938 70.2188C166 70.3229 165.427 70.3854 165.219 70.4062L163.688 70.5938C163.062 71.8021 162.552 72.6979 162.156 73.2812C161.76 73.8646 161.219 74.5104 160.531 75.2188C159.865 75.9688 159.167 76.625 158.438 77.1875C157.708 77.75 157.031 78.2083 156.406 78.5625C155.74 78.9167 155.083 79.2188 154.438 79.4688C153.792 79.6979 153.365 79.8438 153.156 79.9062L152.25 79.75L153.031 79.25L153.906 78.75C154.448 78.4583 155.042 78.0833 155.688 77.625C156.333 77.1875 156.969 76.6875 157.594 76.125C158.219 75.5625 158.896 74.8646 159.625 74.0312C160.375 73.1979 160.865 72.5729 161.094 72.1562L161.781 70.875ZM167.875 84.3438L165.875 84.5312C164.958 84.6146 164.427 84.6562 164.281 84.6562L162.781 84.6875L162.656 85.1875C162.531 85.5625 162.385 85.75 162.219 85.75C162.052 85.7292 161.885 85.5938 161.719 85.3438C161.531 85.0729 161.417 84.75 161.375 84.375C161.375 84.1042 161.396 83.8229 161.438 83.5312C161.479 83.1354 161.5 82.6771 161.5 82.1562L161.344 77.6562C161.302 77.0729 161.24 76.6458 161.156 76.375C161.094 76.1042 161.021 75.8958 160.938 75.75L160.844 75.4688C160.885 75.3438 161.083 75.2604 161.438 75.2188L162.312 75.4062L163.312 75.2812C163.667 75.2396 164.094 75.1667 164.594 75.0625L166.281 74.7188C166.865 74.5938 167.281 74.4896 167.531 74.4062C167.781 74.3438 168.031 74.2604 168.281 74.1562L168.875 73.9688C169.104 73.9479 169.302 73.9688 169.469 74.0312C169.698 74.1146 169.948 74.25 170.219 74.4375C170.51 74.625 170.76 74.8125 170.969 75L171.312 75.4375C171.312 75.5833 171.281 75.7188 171.219 75.8438C171.156 76.0104 171.104 76.1875 171.062 76.375C171 76.5625 170.969 76.7396 170.969 76.9062C170.927 77.0729 170.896 77.4062 170.875 77.9062V78.4375C170.875 78.7917 170.885 79.1771 170.906 79.5938C170.927 80.0938 170.969 80.6146 171.031 81.1562L171.281 82.75C171.365 83.2917 171.406 83.6979 171.406 83.9688C171.365 84.5104 171.208 85.0521 170.938 85.5938C170.646 86.1354 170.365 86.4688 170.094 86.5938L169.625 86.7188C169.396 86.6979 169.177 86.4896 168.969 86.0938C168.781 85.7188 168.573 85.3542 168.344 85L167.875 84.3438ZM162.844 83.625C163.76 83.5208 164.458 83.4375 164.938 83.375L166.562 83.1562C167.167 83.0521 167.573 83 167.781 83C168.115 83.0208 168.365 83.0729 168.531 83.1562L169.188 83.5312L169.344 79.5625C168.885 79.6667 168.542 79.7292 168.312 79.75L166.156 80.1562C165.198 80.3229 164.521 80.4271 164.125 80.4688L163.75 80.5H163.438L162.781 80.3438L162.844 83.625ZM162.781 79.4688C162.99 79.4688 163.177 79.4583 163.344 79.4375C163.51 79.4167 163.948 79.3438 164.656 79.2188C165.406 79.0729 166.01 78.9375 166.469 78.8125C166.969 78.6667 167.344 78.5938 167.594 78.5938C167.823 78.5938 168.031 78.6042 168.219 78.625C168.49 78.6667 168.812 78.7604 169.188 78.9062L169.344 76.2812C169.323 75.9479 169.271 75.7292 169.188 75.625C169.083 75.5208 168.885 75.4583 168.594 75.4375C168.323 75.4375 168.031 75.4479 167.719 75.4688L166.344 75.5312C166.01 75.5729 165.531 75.6771 164.906 75.8438C164.281 75.9896 163.844 76.1042 163.594 76.1875L163.031 76.3125L162.906 76.625C162.927 76.75 162.927 76.9271 162.906 77.1562C162.865 77.3646 162.844 77.5417 162.844 77.6875L162.781 79.4688ZM236.531 67.625C236.198 67.625 235.99 67.5312 235.906 67.3438C235.802 67.0938 235.698 66.8854 235.594 66.7188C235.49 66.5312 235.302 66.3125 235.031 66.0625L235.094 65.9375C235.844 66.2083 236.333 66.3438 236.562 66.3438C236.729 66.3438 236.854 66.3125 236.938 66.25C237.021 66.1875 237.156 66.0417 237.344 65.8125C237.615 65.5208 237.865 65.0729 238.094 64.4688C238.406 63.5729 238.604 62.6458 238.688 61.6875V61.5938C238.688 61.4688 238.667 61.3854 238.625 61.3438C238.354 61.3438 237.635 61.4062 236.469 61.5312C235.823 63.1354 235.073 64.4583 234.219 65.5C233.385 66.5208 232.625 67.0312 231.938 67.0312C231.771 67.0312 231.688 66.9688 231.688 66.8438C231.688 66.8021 231.896 66.5625 232.312 66.125C232.729 65.6875 233.188 65.1146 233.688 64.4062C234.208 63.6771 234.698 62.7812 235.156 61.7188C235.052 61.7188 234.75 61.7396 234.25 61.7812C233.75 61.8229 233.323 61.8958 232.969 62C232.802 62.125 232.625 62.1458 232.438 62.0625C232.438 62.0625 232.417 62.0521 232.375 62.0312C232.333 62.0104 232.292 61.9792 232.25 61.9375C232.104 61.8542 231.979 61.75 231.875 61.625C231.792 61.4792 231.75 61.3438 231.75 61.2188C231.75 61.1562 231.802 61.0729 231.906 60.9688L232.281 60.4688C232.406 60.3021 232.521 60.0625 232.625 59.75C232.729 59.4167 232.781 59.1354 232.781 58.9062C232.781 58.7604 232.771 58.6667 232.75 58.625C232.729 58.5833 232.719 58.5312 232.719 58.4688C232.719 58.3646 232.771 58.3125 232.875 58.3125C233 58.3125 233.177 58.3854 233.406 58.5312C233.469 58.5729 233.583 58.6562 233.75 58.7812C233.938 58.8854 234.042 59.0104 234.062 59.1562C234.062 59.3021 233.979 59.5417 233.812 59.875L233.406 60.5938C233.365 60.6562 233.344 60.7292 233.344 60.8125C233.344 60.875 233.365 60.9271 233.406 60.9688C233.469 60.9896 233.542 60.9896 233.625 60.9688L235.5 60.7188C235.708 60.1771 235.875 59.6042 236 59V58.8125V58.2812C236 58.0521 236.062 57.9583 236.188 58C236.458 58.0625 236.677 58.1458 236.844 58.25C237.156 58.4375 237.312 58.5938 237.312 58.7188C237.312 58.8229 237.271 59 237.188 59.25C237.125 59.4792 237.073 59.6562 237.031 59.7812C237.01 59.8646 236.917 60.1354 236.75 60.5938C236.812 60.5938 237.198 60.5521 237.906 60.4688L238.219 60.4062C238.281 60.4062 238.396 60.3854 238.562 60.3438C238.604 60.3229 238.656 60.3125 238.719 60.3125C238.969 60.3125 239.125 60.3229 239.188 60.3438C239.271 60.3646 239.396 60.4271 239.562 60.5312C239.75 60.6562 239.875 60.7812 239.938 60.9062C240 61.0312 240.021 61.1771 240 61.3438L239.812 62.375L239.594 63.5C239.594 63.5833 239.521 63.8542 239.375 64.3125C239.229 64.7708 239.062 65.1771 238.875 65.5312C238.521 66.2396 238.104 66.7708 237.625 67.125C237.208 67.4583 236.844 67.625 236.531 67.625ZM232.469 72.8438C232.24 72.8438 231.958 72.6667 231.625 72.3125C231.375 72.0625 231.25 71.875 231.25 71.75C231.25 71.6875 231.292 71.6562 231.375 71.6562C231.458 71.6354 231.562 71.625 231.688 71.625L232.375 71.5938C232.771 71.5938 233.031 71.5833 233.156 71.5625C233.552 71.5625 233.885 71.5521 234.156 71.5312C235.948 71.3646 237.156 71.2292 237.781 71.125C238.094 71.0833 238.375 71.0417 238.625 71C238.875 70.9375 239.073 70.9062 239.219 70.9062C239.51 70.9062 239.802 71.0521 240.094 71.3438C240.323 71.5729 240.438 71.7604 240.438 71.9062C240.438 72.0312 240.365 72.1146 240.219 72.1562C240.115 72.1771 239.5 72.2188 238.375 72.2812C237.75 72.3021 236.979 72.3542 236.062 72.4375C235.146 72.5208 234.344 72.6042 233.656 72.6875C233.531 72.7083 233.354 72.7396 233.125 72.7812C232.896 72.8229 232.677 72.8438 232.469 72.8438ZM237.125 79.8125C236.917 80.0833 236.698 80.2188 236.469 80.2188C236.406 80.2188 236.375 80.1667 236.375 80.0625C236.375 79.9167 236.417 79.75 236.5 79.5625C236.5 79.5625 236.708 79.1458 237.125 78.3125C237.146 78.2292 237.177 78.1458 237.219 78.0625C237.26 77.9792 237.292 77.9062 237.312 77.8438V77.8125C237.312 77.7708 237.281 77.7292 237.219 77.6875C237.156 77.6458 237.083 77.6354 237 77.6562C236.667 77.6771 236.167 77.7292 235.5 77.8125C234.854 77.8958 234.375 77.9792 234.062 78.0625C233.938 78.1042 233.781 78.1562 233.594 78.2188C233.427 78.2812 233.292 78.3125 233.188 78.3125C232.812 78.3125 232.5 78.1979 232.25 77.9688C232.042 77.8229 231.885 77.6771 231.781 77.5312L231.719 77.375C231.719 77.2708 231.896 77.2396 232.25 77.2812C232.729 77.3229 233.719 77.2604 235.219 77.0938L235.844 77C236.01 76.9792 236.271 76.9479 236.625 76.9062C237 76.8438 237.292 76.7812 237.5 76.7188C237.562 76.6979 237.625 76.6771 237.688 76.6562C237.771 76.6146 237.844 76.5938 237.906 76.5938C238.01 76.5938 238.135 76.6458 238.281 76.75C238.448 76.8542 238.583 76.9479 238.688 77.0312C238.833 77.1354 238.927 77.2292 238.969 77.3125C239.031 77.375 239.052 77.4583 239.031 77.5625C239.031 77.6667 238.979 77.7604 238.875 77.8438C238.771 77.9271 238.698 77.9896 238.656 78.0312C238.615 78.0938 238.469 78.25 238.219 78.5C238.115 78.6667 237.927 78.8958 237.656 79.1875C237.406 79.4792 237.229 79.6875 237.125 79.8125ZM235.562 85.9688C235.562 85.9062 235.667 85.7396 235.875 85.4688C236.104 85.2188 236.281 85.0208 236.406 84.875C236.719 84.4583 237.094 83.8542 237.531 83.0625C237.99 82.2708 238.25 81.75 238.312 81.5C238.354 81.375 238.292 81.3125 238.125 81.3125C237.792 81.3125 236.875 81.4062 235.375 81.5938C234.396 81.7188 233.667 81.8438 233.188 81.9688C233.083 82.0312 232.979 82.0625 232.875 82.0625C232.708 82.0625 232.531 81.9479 232.344 81.7188C232.26 81.5729 232.219 81.4375 232.219 81.3125C232.219 81.2292 232.271 81.1458 232.375 81.0625L232.469 80.9375C232.531 80.8125 232.604 80.6458 232.688 80.4375C232.771 80.2292 232.844 80.0312 232.906 79.8438C233.01 79.5104 233.083 79.1458 233.125 78.75C233.146 78.5208 233.271 78.4583 233.5 78.5625C233.792 78.7083 234.01 78.8542 234.156 79C234.323 79.125 234.375 79.2188 234.312 79.2812C234.104 79.5312 233.938 79.8125 233.812 80.125C233.708 80.4583 233.646 80.6771 233.625 80.7812C233.625 80.8646 233.677 80.9062 233.781 80.9062C234.094 80.9062 234.562 80.8542 235.188 80.75C235.542 80.7083 235.979 80.6562 236.5 80.5938C237.021 80.5312 237.438 80.4688 237.75 80.4062L238.531 80.25C238.594 80.2292 238.677 80.2188 238.781 80.2188C238.885 80.2188 238.99 80.2604 239.094 80.3438C239.198 80.4062 239.312 80.4896 239.438 80.5938C239.646 80.7812 239.781 80.9375 239.844 81.0625C239.906 81.1667 239.938 81.2917 239.938 81.4375C239.938 81.5208 239.875 81.625 239.75 81.75C239.646 81.875 239.521 82.0729 239.375 82.3438C238.771 83.5729 237.99 84.6042 237.031 85.4375C236.76 85.6458 236.458 85.8229 236.125 85.9688C235.979 86.0104 235.844 86.0312 235.719 86.0312C235.615 86.0521 235.562 86.0312 235.562 85.9688ZM245.562 71.5312C245.812 71.5312 245.938 71.6458 245.938 71.875C245.938 72 245.823 72.1771 245.594 72.4062C244.969 73.1771 243.729 74.6458 241.875 76.8125C241.729 77 241.594 77.0938 241.469 77.0938C241.365 77.0938 241.135 76.9375 240.781 76.625C240.49 76.375 240.344 76.1667 240.344 76C240.344 75.8125 240.5 75.6354 240.812 75.4688C241.292 75.1979 242.01 74.6562 242.969 73.8438C243.927 72.9896 244.635 72.3125 245.094 71.8125C245.281 71.625 245.438 71.5312 245.562 71.5312ZM223.594 78.2812L223.562 81.5312L223.656 84.1562C223.635 84.5312 223.583 84.8438 223.5 85.0938C223.417 85.3438 223.292 85.5938 223.125 85.8438C222.958 86.1146 222.708 86.2083 222.375 86.125C222.146 85.875 221.969 85.5729 221.844 85.2188L221.562 84.375C221.521 84.1875 221.5 83.9792 221.5 83.75L221.625 83.2188C221.708 82.9062 221.771 82.5417 221.812 82.125C221.854 81.7292 221.896 81.3021 221.938 80.8438C221.979 80.3854 222 80.0417 222 79.8125L222.031 75.9375C222.031 75.4167 222.021 74.9271 222 74.4688C221.958 74.0104 221.917 73.6354 221.875 73.3438C221.833 73.0521 221.771 72.8021 221.688 72.5938L221.5 71.9375C221.583 71.7917 221.75 71.7083 222 71.6875L222.594 71.8125C222.948 71.8958 223.25 71.9896 223.5 72.0938C223.771 72.2188 223.917 72.3646 223.938 72.5312C223.958 72.6771 223.917 72.8646 223.812 73.0938C223.771 73.2188 223.719 73.6354 223.656 74.3438L223.594 74.9688L223.531 77.3125L226.094 77L226.25 75.5625C226.271 75.3125 226.281 75.0833 226.281 74.875C226.281 74.6667 226.271 74.4688 226.25 74.2812C226.229 73.9062 226.188 73.6146 226.125 73.4062L225.875 72.7188C225.958 72.5729 226.104 72.4896 226.312 72.4688C226.458 72.4688 226.625 72.4896 226.812 72.5312C226.979 72.5729 227.188 72.6354 227.438 72.7188C227.646 72.8021 227.833 72.8854 228 72.9688C228.125 73.0521 228.24 73.1667 228.344 73.3125L228.406 73.8125C228.323 74.0208 228.25 74.2292 228.188 74.4375C228.125 74.625 228.042 75.0104 227.938 75.5938L227.625 77.2188L228.188 77.5938L228.438 77.875C228.354 77.9792 228.229 78.0312 228.062 78.0312L223.594 78.2812ZM210.25 75.875L206.812 77.7812C206.646 77.8646 206.302 78.0729 205.781 78.4062C205.26 78.7604 204.896 79.0417 204.688 79.25L204.312 79.625L203.656 79.7188C203.323 79.6354 203.021 79.5 202.75 79.3125C202.479 79.125 202.25 78.9271 202.062 78.7188C201.854 78.5104 201.719 78.3333 201.656 78.1875L201.969 77.6562C202.26 77.6354 202.479 77.6042 202.625 77.5625C202.854 77.5208 203.104 77.4479 203.375 77.3438L204.438 76.9688L205.094 76.75C205.094 76.1458 205.104 75.6979 205.125 75.4062V70.6875C205.125 67.875 205.115 66.2083 205.094 65.6875C205.073 65.1667 205.042 64.8021 205 64.5938L204.844 64.0938C204.49 64.0104 204.198 63.9479 203.969 63.9062C203.74 63.8646 203.49 63.7604 203.219 63.5938L202.875 63.3125C202.917 63.1667 203.135 63.0625 203.531 63L204.531 62.8438L206.688 62.5625L209.375 62.0625C210.312 61.9167 210.896 61.8021 211.125 61.7188L212.094 61.5625C212.344 61.5417 212.562 61.5625 212.75 61.625C212.917 61.6667 213.115 61.7396 213.344 61.8438C213.573 61.9271 213.781 62.0521 213.969 62.2188L214.188 62.5938C214.146 62.7604 214.062 62.8646 213.938 62.9062C213.792 62.9479 213.427 62.9792 212.844 63H211.969L212.25 63.5625C212.25 63.75 212.219 63.9479 212.156 64.1562C212.094 64.3646 212.052 64.6667 212.031 65.0625C212.01 65.4583 211.979 65.9688 211.938 66.5938V71.4062L211.812 75.5C211.729 77.5625 211.656 79.1979 211.594 80.4062C211.531 81.6146 211.49 82.3958 211.469 82.75C211.448 83.1042 211.396 83.4271 211.312 83.7188C211.229 84.0312 211.104 84.2917 210.938 84.5L210.594 84.7812C210.448 84.7812 210.302 84.6771 210.156 84.4688C210.01 84.2604 209.896 84.0521 209.812 83.8438C209.729 83.6354 209.646 83.3646 209.562 83.0312C209.479 82.7188 209.438 82.4583 209.438 82.25L209.594 81.7188C209.698 81.4271 209.781 81.0417 209.844 80.5625C209.927 80.0833 209.979 79.6354 210 79.2188L210.062 78.375L210.25 75.875ZM206.594 76.2812L210.25 75.0312L210.344 71.9375L209.375 72.1875C209.125 72.25 208.76 72.3125 208.281 72.375L207.531 72.4688L206.75 72.3438L206.594 76.2812ZM206.75 71.6562C207.104 71.5729 207.385 71.5 207.594 71.4375C207.781 71.375 208.01 71.2812 208.281 71.1562L208.75 70.9688C208.875 70.9479 209.083 70.9688 209.375 71.0312L209.812 71.1562L210.344 71.375L210.469 68.0312L209.938 68.1875C209.771 68.2292 209.385 68.3125 208.781 68.4375C208.302 68.5417 207.938 68.5938 207.688 68.5938L206.906 68.5L206.75 71.6562ZM206.875 63.5938L207.25 64.125C207.25 64.2708 207.208 64.4688 207.125 64.7188C207.042 64.9688 207 65.2188 207 65.4688L206.969 67.7812C207.24 67.6979 207.479 67.6146 207.688 67.5312C207.896 67.4688 208.125 67.3854 208.375 67.2812C208.625 67.1771 208.854 67.1146 209.062 67.0938H209.344C209.615 67.1354 209.865 67.1979 210.094 67.2812L210.5 67.4062C210.521 66.7188 210.531 66.0938 210.531 65.5312C210.51 64.9479 210.469 64.5208 210.406 64.25L210.125 63.1562C209.354 63.2604 208.906 63.3229 208.781 63.3438L206.875 63.5938ZM217.938 76.9375L218.094 75.1875C218.115 74.9167 218.125 74.5729 218.125 74.1562C218.125 73.7604 218.094 73.4479 218.031 73.2188L217.812 72.75L217.688 72.4688C217.75 72.3438 217.865 72.2708 218.031 72.25C218.281 72.25 218.583 72.3021 218.938 72.4062C219.396 72.5521 219.719 72.6771 219.906 72.7812C220.094 72.8854 220.156 73.0729 220.094 73.3438C219.99 73.5729 219.917 73.8438 219.875 74.1562C219.833 74.4479 219.792 74.7812 219.75 75.1562L219.625 76.375C219.583 76.9167 219.49 77.4792 219.344 78.0625C219.219 78.6667 219.031 79.2604 218.781 79.8438C218.552 80.4271 218.135 81.0729 217.531 81.7812C216.948 82.5312 216.427 83.0521 215.969 83.3438C215.49 83.6771 215.021 83.9583 214.562 84.1875L213.656 84.375C213.656 84.2292 213.719 84.1146 213.844 84.0312L214.344 83.5938L215.344 82.625C215.74 82.2292 216.156 81.6667 216.594 80.9375C217.031 80.2083 217.323 79.5417 217.469 78.9375L217.75 77.8125L215.938 78.4062C215.438 78.5729 215.042 78.7708 214.75 79L213.844 79.5C213.698 79.375 213.552 79.2188 213.406 79.0312C213.26 78.8229 213.156 78.6354 213.094 78.4688L213.031 78.0625C213.052 77.9167 213.188 77.6979 213.438 77.4062C213.688 77.1146 213.854 76.8021 213.938 76.4688C214.042 76.1146 214.125 75.7292 214.188 75.3125C214.208 75.0417 214.219 74.8021 214.219 74.5938C214.219 74.3646 214.208 74.1562 214.188 73.9688L214.125 73.5938L214.25 73.25C214.438 73.2292 214.635 73.2604 214.844 73.3438C215.094 73.4479 215.312 73.5729 215.5 73.7188C215.708 73.8438 215.875 73.9896 216 74.1562L216.094 74.6562C215.99 74.7812 215.906 74.9375 215.844 75.125L215.562 75.7188L215.25 76.5938C215.167 76.8438 215.156 77.1458 215.219 77.5C215.365 77.5 215.51 77.4896 215.656 77.4688L217.938 76.9375ZM215.312 66.0938C215.958 66.0521 216.354 66.0312 216.5 66.0312L217.562 65.9062L218.031 64.9688C218.156 64.7188 218.25 64.5104 218.312 64.3438L218.469 63.8125C218.531 63.5 218.646 63.3229 218.812 63.2812C218.958 63.2604 219.125 63.3229 219.312 63.4688L219.688 64L220.062 64.5938V65.2812C219.896 65.4062 219.76 65.5208 219.656 65.625C219.552 65.7292 219.448 65.8438 219.344 65.9688C219.24 66.0938 219.062 66.3229 218.812 66.6562L217.906 67.8125C217.302 68.5833 216.885 69.1042 216.656 69.375C216.406 69.6458 216.229 69.8854 216.125 70.0938L216.031 70.4688L216.688 70.2812L218.188 69.8125C218 69.4583 217.865 69.2188 217.781 69.0938L218.062 68.7188L218.75 68.9688C219.188 69.1354 219.5 69.3438 219.688 69.5938C219.854 69.8229 219.958 70.0938 220 70.4062C220 70.6771 219.938 70.9271 219.812 71.1562C219.667 71.3854 219.521 71.5104 219.375 71.5312C219.083 71.5312 218.917 71.4375 218.875 71.25L218.438 70.3438L216.406 71.3125C216.219 71.3958 216.031 71.5104 215.844 71.6562L215.312 72.125C215.146 72.2708 214.906 72.3438 214.594 72.3438C214.406 72.2188 214.229 72.0521 214.062 71.8438C213.896 71.6146 213.792 71.4375 213.75 71.3125L213.688 71.0625C213.708 70.9167 213.76 70.7917 213.844 70.6875C213.927 70.5833 214.115 70.4062 214.406 70.1562C214.677 69.9062 214.938 69.625 215.188 69.3125L216.969 66.8125C216.615 66.9167 216.333 67.0104 216.125 67.0938C215.875 67.1562 215.667 67.2188 215.5 67.2812C215.333 67.3438 215.188 67.4167 215.062 67.5L214.688 67.7188L214.281 67.875C214.094 67.8542 213.927 67.75 213.781 67.5625C213.635 67.375 213.521 67.1771 213.438 66.9688C213.354 66.7812 213.302 66.6146 213.281 66.4688L213.312 66.1875C213.396 66.0625 213.583 65.8854 213.875 65.6562C214.167 65.4062 214.51 64.9896 214.906 64.4062C215.281 63.8229 215.562 63.3542 215.75 63C215.938 62.6458 216.125 62.25 216.312 61.8125C216.479 61.3958 216.583 61.0521 216.625 60.7812C216.688 60.5312 216.729 60.3021 216.75 60.0938L216.781 59.7188L217.031 59.5625C217.219 59.5417 217.458 59.625 217.75 59.8125L218.375 60.3125C218.479 60.3958 218.615 60.5521 218.781 60.7812L218.812 61.375C218.604 61.5208 218.417 61.6979 218.25 61.9062L217.75 62.5312L215.312 66.0938ZM222.438 65.1562L224.969 65.0938C225.177 64.7812 225.333 64.5208 225.438 64.3125C225.562 64.0833 225.667 63.8229 225.75 63.5312L225.875 62.875C225.917 62.7292 226.021 62.6042 226.188 62.5C226.354 62.4792 226.521 62.5104 226.688 62.5938C226.812 62.6771 226.927 62.7917 227.031 62.9375L227.406 63.4688C227.552 63.6979 227.615 64.0417 227.594 64.5C227.385 64.6042 227.167 64.7604 226.938 64.9688L226.469 65.4375C226.385 65.5417 226.25 65.6979 226.062 65.9062L223.531 68.6562L223.375 69.4062L225.969 69L225.438 67.5625L226.156 67.8125L226.688 68.125C227.021 68.3125 227.271 68.4688 227.438 68.5938C227.604 68.7396 227.729 68.9375 227.812 69.1875C227.938 69.4583 228 69.7396 228 70.0312C228 70.3229 227.927 70.5729 227.781 70.7812C227.635 70.9479 227.469 71.0312 227.281 71.0312C227.094 71.0104 226.969 70.9375 226.906 70.8125L226.188 69.5312L223.406 70.5C223.177 70.5833 223 70.6667 222.875 70.75C222.729 70.8125 222.583 70.9167 222.438 71.0625L222.062 71.3125C221.917 71.3125 221.771 71.2708 221.625 71.1875C221.417 71.0833 221.229 70.8958 221.062 70.625C220.896 70.3542 220.823 70.0833 220.844 69.8125C220.927 69.6667 221.062 69.5417 221.25 69.4375L221.594 69.2188C221.698 69.0938 221.948 68.8021 222.344 68.3438L224.312 65.9688C223.646 66.1354 223.167 66.2604 222.875 66.3438C222.583 66.4271 222.292 66.5521 222 66.7188L221.531 66.9062C221.344 66.9062 221.167 66.8021 221 66.5938C220.854 66.4271 220.729 66.2292 220.625 66L220.438 65.625V65.3438L220.594 65.0938L221.062 64.7188C221.312 64.5521 221.542 64.3333 221.75 64.0625C221.958 63.7917 222.24 63.3958 222.594 62.875C222.948 62.3542 223.208 61.9271 223.375 61.5938C223.583 61.2396 223.729 60.8854 223.812 60.5312C223.938 60.1562 224.01 59.8125 224.031 59.5C224.052 59.1875 224.156 58.9792 224.344 58.875C224.49 58.8542 224.625 58.8646 224.75 58.9062C224.896 58.9688 225.042 59.0521 225.188 59.1562C225.354 59.2812 225.5 59.4062 225.625 59.5312C225.771 59.6562 225.906 59.8333 226.031 60.0625L226 60.6875L225.625 60.9688C225.5 61.0938 225.281 61.3854 224.969 61.8438L223.969 63.0938L222.438 65.1562Z" fill="#333333"/>
</svg>
