<svg width="280" height="36" viewBox="0 0 280 36" fill="none" xmlns="http://www.w3.org/2000/svg">
<path d="M69.9336 7.49609C69.7695 7.49609 69.8516 7.35547 70.1797 7.07422C70.5078 6.79297 70.9062 6.45313 71.375 6.05469C71.8438 5.63281 72.3711 5.08203 72.957 4.40234C73.332 3.95703 73.6133 3.48828 73.8008 2.99609C73.918 2.71484 74.0469 2.57422 74.1875 2.57422C74.3047 2.57422 74.4805 2.66797 74.7148 2.85547C75.1836 3.23047 75.418 3.54687 75.418 3.80469C75.418 3.96875 75.3242 4.08594 75.1367 4.15625C75.043 4.17969 74.9023 4.28516 74.7148 4.47266C74.5273 4.63672 74.3867 4.76563 74.293 4.85938C73.2852 5.84375 72.3477 6.55859 71.4805 7.00391C70.7773 7.33203 70.3086 7.49609 70.0742 7.49609H69.9336ZM73.625 14.0352C73.5547 14.0352 73.4375 13.9414 73.2734 13.7539C73.1328 13.543 73.0273 13.3438 72.957 13.1562C72.9336 13.0156 72.9336 12.8398 72.957 12.6289C73.0039 12.3945 73.0273 12.2188 73.0273 12.1016C73.0742 11.6328 73.0977 11.2578 73.0977 10.9766C73.1211 10.7187 73.1211 10.4375 73.0977 10.1328C73.0977 9.82813 73.0977 9.62891 73.0977 9.53516L73.0625 9.00781C72.5 9.40625 72.0664 9.6875 71.7617 9.85156C71.082 10.2266 70.5898 10.4609 70.2852 10.5547C69.9102 10.6953 69.5703 10.7656 69.2656 10.7656C69.1016 10.7656 69.0078 10.7422 68.9844 10.6953C68.9375 10.6016 69.4062 10.2617 70.3906 9.67578C71.3281 9.08984 72.3477 8.31641 73.4492 7.35547C74.0586 6.79297 74.5273 6.25391 74.8555 5.73828C74.9023 5.66797 74.9375 5.58594 74.9609 5.49219C75.0078 5.375 75.0547 5.30469 75.1016 5.28125C75.1719 5.25781 75.2656 5.26953 75.3828 5.31641C75.6875 5.48047 75.9453 5.71484 76.1562 6.01953C76.25 6.13672 76.2969 6.25391 76.2969 6.37109C76.2969 6.48828 76.2383 6.60547 76.1211 6.72266C76.0039 6.81641 75.8867 6.88672 75.7695 6.93359C75.3711 7.19141 75.0078 7.47266 74.6797 7.77734C74.3516 8.08203 74.1406 8.28125 74.0469 8.375C74.3984 8.65625 74.5742 8.85547 74.5742 8.97266L74.4688 9.71094C74.4219 9.92188 74.3984 10.4492 74.3984 11.293C74.3984 12.1133 74.4219 12.6641 74.4688 12.9453V13.0156C74.4688 13.1328 74.4336 13.2617 74.3633 13.4023C74.3164 13.5195 74.2812 13.6016 74.2578 13.6484C74.0938 13.9063 73.8828 14.0352 73.625 14.0352ZM77.2109 22.9648C76.8594 22.9648 76.5195 22.707 76.1914 22.1914C75.7695 21.5352 75.3594 20.9961 74.9609 20.5742L74.0469 19.625C73.5547 20.1875 73.1211 20.6328 72.7461 20.9609C72.3945 21.2891 71.9492 21.6055 71.4102 21.9102C70.4023 22.4961 69.5586 22.7891 68.8789 22.7891C68.7148 22.7891 68.6328 22.7305 68.6328 22.6133C68.6328 22.543 68.8555 22.3906 69.3008 22.1562C69.7461 21.9219 70.168 21.6406 70.5664 21.3125C71.5742 20.4688 72.4062 19.6016 73.0625 18.7109C72.9219 18.5703 72.2188 17.9609 70.9531 16.8828C70.7891 16.7656 70.543 16.5664 70.2148 16.2852C70.1445 16.2383 70.0039 16.1328 69.793 15.9688C69.582 15.8047 69.4766 15.6875 69.4766 15.6172C69.4766 15.5 69.5352 15.4414 69.6523 15.4414C70.0039 15.4414 70.5664 15.6875 71.3398 16.1797C72.1133 16.6484 72.9219 17.2109 73.7656 17.8672C74.0938 17.4688 74.3516 17.0938 74.5391 16.7422C74.7266 16.3906 74.9375 15.957 75.1719 15.4414C75.2891 15.1836 75.3594 14.9609 75.3828 14.7734C75.4062 14.5625 75.418 14.4336 75.418 14.3867C75.418 14.1289 75.4883 14 75.6289 14C75.793 14 76.0156 14.1289 76.2969 14.3867C76.7891 14.8555 77.0352 15.1719 77.0352 15.3359C77.0352 15.4297 76.9766 15.5352 76.8594 15.6523C76.5781 15.9336 76.3203 16.3086 76.0859 16.7773C75.9453 17.0586 75.6875 17.457 75.3125 17.9727C75.1953 18.1133 75.1016 18.2422 75.0312 18.3594C74.9609 18.4766 74.8906 18.582 74.8203 18.6758C75.3594 19.0742 76.1562 19.7539 77.2109 20.7148C77.4688 20.9492 77.6328 21.1719 77.7031 21.3828C77.7969 21.5703 77.8438 21.8281 77.8438 22.1562C77.8438 22.3906 77.7852 22.5898 77.668 22.7539C77.5508 22.8945 77.3984 22.9648 77.2109 22.9648ZM77.8438 27.6055C78.1016 27.8867 78.2305 28.1211 78.2305 28.3086C78.2305 28.4727 78.1367 28.625 77.9492 28.7656C77.832 28.8594 77.5391 29.375 77.0703 30.3125C76.5547 31.1562 75.9805 31.8828 75.3477 32.4922C74.7383 33.125 74.1289 33.582 73.5195 33.8633C73.3789 33.9102 73.2617 33.9336 73.168 33.9336C73.0742 33.9336 73.0273 33.9102 73.0273 33.8633V33.793C73.0273 33.6523 73.1445 33.4883 73.3789 33.3008C73.8008 32.9727 74.1172 32.6328 74.3281 32.2812C74.5625 31.9531 74.7383 31.707 74.8555 31.543C75.3477 30.8398 75.6992 30.2656 75.9102 29.8203C76.1445 29.4219 76.3086 29.0117 76.4023 28.5898H76.2617C75.6523 28.5898 74.668 28.6602 73.3086 28.8008C73.0977 28.8242 72.4883 28.9062 71.4805 29.0469C71.2695 29.0703 70.9414 29.1289 70.4961 29.2227L70.0742 29.3281C69.9805 29.375 69.8867 29.3984 69.793 29.3984C69.6758 29.3984 69.5586 29.375 69.4414 29.3281C69.3242 29.2578 69.207 29.1758 69.0898 29.082C68.8086 28.8477 68.668 28.6484 68.668 28.4844C68.6914 28.4375 68.7148 28.3672 68.7383 28.2734C68.7852 28.1797 68.8086 28.0977 68.8086 28.0273L68.9844 26.8672C69.0078 26.75 69.0312 26.6211 69.0547 26.4805C69.0781 26.3398 69.0898 26.1992 69.0898 26.0586C69.0898 25.6133 69.0781 25.2617 69.0547 25.0039C69.0547 24.7227 69.0195 24.4297 68.9492 24.125V24.0195C68.9492 23.8555 69.0195 23.7734 69.1602 23.7734C69.3008 23.7734 69.5469 23.8789 69.8984 24.0898C70.3672 24.418 70.6016 24.6758 70.6016 24.8633C70.6016 24.9336 70.5898 24.9922 70.5664 25.0391C70.543 25.0859 70.5195 25.1328 70.4961 25.1797C70.4258 25.6016 70.3906 25.8359 70.3906 25.8828L70.2148 27.7461C70.2148 27.793 70.2383 27.8516 70.2852 27.9219C70.3555 27.9688 70.4258 27.9922 70.4961 27.9922C71.0586 27.9922 72.3242 27.8516 74.293 27.5703C75.0664 27.5 75.6172 27.418 75.9453 27.3242C76.1562 27.3008 76.332 27.2656 76.4727 27.2188C76.6367 27.1484 76.7422 27.1133 76.7891 27.1133C76.9297 27.0664 77.0234 27.043 77.0703 27.043C77.2812 27.043 77.5391 27.2305 77.8438 27.6055ZM44.1289 17.2344L41.7383 17.9023L40.6836 18.1836C39.957 18.3711 39.4766 18.4766 39.2422 18.5C38.9609 18.5 38.7031 18.4766 38.4688 18.4297C38.1641 18.3594 37.8242 18.207 37.4492 17.9727C37.0508 17.7383 36.7578 17.4102 36.5703 16.9883C36.6641 16.8477 36.8398 16.7656 37.0977 16.7422L37.9766 16.707C38.7031 16.6836 39.4766 16.6484 40.2969 16.6016C41.1172 16.5312 41.8555 16.4375 42.5117 16.3203L44.7617 15.9336C45.0898 15.1836 45.2891 14.7148 45.3594 14.5273L45.8164 13.1562C45.4414 13.1797 45.1484 13.2031 44.9375 13.2266C44.7266 13.25 44.375 13.2969 43.8828 13.3672C43.3906 13.4609 42.9922 13.5078 42.6875 13.5078C42.3125 13.5078 42.0195 13.4609 41.8086 13.3672C41.5273 13.25 41.3164 13.1211 41.1758 12.9805L41.0352 12.6641C41.0586 12.5 41.1758 12.418 41.3867 12.418L42.0547 12.3477C42.2188 12.3477 42.6172 12.3125 43.25 12.2422C43.8828 12.1719 44.4805 12.1133 45.043 12.0664L46.2383 11.9258C46.543 10.9883 46.7188 10.4023 46.7656 10.168L47.0469 8.76172C46.1797 8.83203 45.3945 8.91406 44.6914 9.00781C43.9648 9.07812 43.4961 9.11328 43.2852 9.11328H42.7578C42.2891 9.11328 41.9375 9.06641 41.7031 8.97266C41.3984 8.83203 41.1758 8.66797 41.0352 8.48047L40.8945 8.12891L41.1406 7.95312H41.8789L42.8633 7.84766L44.9023 7.70703L47.293 7.35547L47.4336 5.45703V5.10547C47.4336 4.84766 47.4102 4.53125 47.3633 4.15625C47.3164 3.80469 47.2812 3.55859 47.2578 3.41797L47.1172 2.64453L47.4688 2.39844C47.7031 2.375 47.9492 2.41016 48.207 2.50391C48.5352 2.64453 48.8633 2.79688 49.1914 2.96094C49.5195 3.125 49.8008 3.32422 50.0352 3.55859C50.2695 3.79297 50.3867 4.02734 50.3867 4.26172L50.1406 4.75391C49.9766 5.01172 49.8477 5.30469 49.7539 5.63281L49.2617 7.07422L52.1445 6.65234L53.7266 6.30078C54.0078 6.25391 54.2656 6.21875 54.5 6.19531C54.8984 6.19531 55.3203 6.28906 55.7656 6.47656C56.1641 6.61719 56.3633 6.79297 56.3633 7.00391C56.3398 7.23828 56.2461 7.37891 56.082 7.42578L55.3789 7.63672C55.1445 7.68359 54.7461 7.75391 54.1836 7.84766L51.9336 8.19922C51.1367 8.31641 50.4688 8.39844 49.9297 8.44531L48.9805 8.55078C48.7227 9.46484 48.5703 10.0273 48.5234 10.2383L48.1367 11.6445L50.3164 11.2578C50.7852 11.1875 51.3242 11.082 51.9336 10.9414C52.543 10.7773 53.0352 10.6836 53.4102 10.6602C53.7617 10.6602 54.043 10.6836 54.2539 10.7305C54.582 10.7773 54.8867 10.8711 55.168 11.0117L55.625 11.3984C55.625 11.5859 55.4609 11.7266 55.1328 11.8203C54.875 11.8906 54.5234 11.9492 54.0781 11.9961C53.6328 12.043 53.0586 12.1133 52.3555 12.207L50.2109 12.5586L47.8555 12.9102C47.5273 13.8008 47.3281 14.3516 47.2578 14.5625L46.8711 15.6523C47.5742 15.582 48.1016 15.5234 48.4531 15.4766L52.0742 15.1602C52.7305 15.1133 53.4453 15.0195 54.2188 14.8789C54.9922 14.7617 55.6133 14.6445 56.082 14.5273L57.1367 14.2461C57.6055 14.1523 57.9688 14.1055 58.2266 14.1055C58.5312 14.1055 58.8008 14.1523 59.0352 14.2461C59.293 14.3398 59.668 14.4922 60.1602 14.7031C60.6523 14.9141 60.9688 15.1367 61.1094 15.3711L61.2148 15.9336C61.1211 16.1211 60.9336 16.2266 60.6523 16.25L59.8789 16.2852L57.6992 16.2148C57.3477 16.2148 56.6914 16.2383 55.7305 16.2852L52.918 16.3555H51.6523L52.7773 17.1992L54.8867 18.9922C56.0117 19.9531 57.0195 20.7617 57.9102 21.418C58.8008 22.0742 59.5391 22.5547 60.125 22.8594C60.7109 23.1641 61.5664 23.5508 62.6914 24.0195C63.8164 24.4648 64.8008 24.793 65.6445 25.0039L66.5938 25.7422L65.8555 25.9531L63.6055 26.4102C62.668 26.5977 61.9414 26.6914 61.4258 26.6914C60.8164 26.6211 60.2656 26.4219 59.7734 26.0938C59.2812 25.7656 58.8242 25.3789 58.4023 24.9336L55.6602 21.9805C54.3008 20.4805 53.2461 19.3672 52.4961 18.6406C51.793 17.9141 51.2539 17.4336 50.8789 17.1992L49.9297 16.4961C48.875 16.6133 48.2305 16.6836 47.9961 16.707L46.2734 16.918C45.5703 18.2773 44.9961 19.2852 44.5508 19.9414C44.1055 20.5977 43.4961 21.3242 42.7227 22.1211C41.9727 22.9648 41.1875 23.7031 40.3672 24.3359C39.5469 24.9688 38.7852 25.4844 38.082 25.8828C37.332 26.2812 36.5938 26.6211 35.8672 26.9023C35.1406 27.1602 34.6602 27.3242 34.4258 27.3945L33.4062 27.2188L34.2852 26.6562L35.2695 26.0938C35.8789 25.7656 36.5469 25.3438 37.2734 24.8281C38 24.3359 38.7148 23.7734 39.418 23.1406C40.1211 22.5078 40.8828 21.7227 41.7031 20.7852C42.5469 19.8477 43.0977 19.1445 43.3555 18.6758L44.1289 17.2344ZM50.9844 32.3867L48.7344 32.5977C47.7031 32.6914 47.1055 32.7383 46.9414 32.7383L45.2539 32.7734L45.1133 33.3359C44.9727 33.7578 44.8086 33.9688 44.6211 33.9688C44.4336 33.9453 44.2461 33.793 44.0586 33.5117C43.8477 33.207 43.7188 32.8438 43.6719 32.4219C43.6719 32.1172 43.6953 31.8008 43.7422 31.4727C43.7891 31.0273 43.8125 30.5117 43.8125 29.9258L43.6367 24.8633C43.5898 24.207 43.5195 23.7266 43.4258 23.4219C43.3555 23.1172 43.2734 22.8828 43.1797 22.7188L43.0742 22.4023C43.1211 22.2617 43.3438 22.168 43.7422 22.1211L44.7266 22.332L45.8516 22.1914C46.25 22.1445 46.7305 22.0625 47.293 21.9453L49.1914 21.5586C49.8477 21.418 50.3164 21.3008 50.5977 21.207C50.8789 21.1367 51.1602 21.043 51.4414 20.9258L52.1094 20.7148C52.3672 20.6914 52.5898 20.7148 52.7773 20.7852C53.0352 20.8789 53.3164 21.0312 53.6211 21.2422C53.9492 21.4531 54.2305 21.6641 54.4648 21.875L54.8516 22.3672C54.8516 22.5312 54.8164 22.6836 54.7461 22.8242C54.6758 23.0117 54.6172 23.2109 54.5703 23.4219C54.5 23.6328 54.4648 23.832 54.4648 24.0195C54.418 24.207 54.3828 24.582 54.3594 25.1445V25.7422C54.3594 26.1406 54.3711 26.5742 54.3945 27.043C54.418 27.6055 54.4648 28.1914 54.5352 28.8008L54.8164 30.5938C54.9102 31.2031 54.957 31.6602 54.957 31.9648C54.9102 32.5742 54.7344 33.1836 54.4297 33.793C54.1016 34.4023 53.7852 34.7773 53.4805 34.918L52.9531 35.0586C52.6953 35.0352 52.4492 34.8008 52.2148 34.3555C52.0039 33.9336 51.7695 33.5234 51.5117 33.125L50.9844 32.3867ZM45.3242 31.5781C46.3555 31.4609 47.1406 31.3672 47.6797 31.2969L49.5078 31.0508C50.1875 30.9336 50.6445 30.875 50.8789 30.875C51.2539 30.8984 51.5352 30.957 51.7227 31.0508L52.4609 31.4727L52.6367 27.0078C52.1211 27.125 51.7344 27.1953 51.4766 27.2188L49.0508 27.6758C47.9727 27.8633 47.2109 27.9805 46.7656 28.0273L46.3438 28.0625H45.9922L45.2539 27.8867L45.3242 31.5781ZM45.2539 26.9023C45.4883 26.9023 45.6992 26.8906 45.8867 26.8672C46.0742 26.8438 46.5664 26.7617 47.3633 26.6211C48.207 26.457 48.8867 26.3047 49.4023 26.1641C49.9648 26 50.3867 25.918 50.668 25.918C50.9258 25.918 51.1602 25.9297 51.3711 25.9531C51.6758 26 52.0391 26.1055 52.4609 26.2695L52.6367 23.3164C52.6133 22.9414 52.5547 22.6953 52.4609 22.5781C52.3438 22.4609 52.1211 22.3906 51.793 22.3672C51.4883 22.3672 51.1602 22.3789 50.8086 22.4023L49.2617 22.4727C48.8867 22.5195 48.3477 22.6367 47.6445 22.8242C46.9414 22.9883 46.4492 23.1172 46.168 23.2109L45.5352 23.3516L45.3945 23.7031C45.418 23.8438 45.418 24.043 45.3945 24.3008C45.3477 24.5352 45.3242 24.7344 45.3242 24.8984L45.2539 26.9023ZM130.121 13.6836C129.957 13.6836 129.781 13.5781 129.594 13.3672C129.453 13.2031 129.359 13.0742 129.312 12.9805C129.266 12.8633 129.266 12.7109 129.312 12.5234L129.348 11.6797C129.371 11.5156 129.383 11.1172 129.383 10.4844V9.32422L128.328 9.81641L127.098 10.3438C126.793 10.4609 126.477 10.6016 126.148 10.7656C125.867 10.9062 125.621 10.9766 125.41 10.9766C125.246 10.9531 125.059 10.8945 124.848 10.8008C124.637 10.707 124.473 10.625 124.355 10.5547C124.098 10.3906 123.98 10.2148 124.004 10.0273L124.109 9.67578C124.109 9.48828 124.121 9.32422 124.145 9.18359L124.18 7.14453V5.24609C124.18 4.87109 124.156 4.55469 124.109 4.29688C124.062 4.01562 124.027 3.81641 124.004 3.69922C124.004 3.58203 124.039 3.5 124.109 3.45312C124.133 3.42969 124.191 3.41797 124.285 3.41797C124.449 3.41797 124.766 3.52344 125.234 3.73438C125.633 3.92188 125.797 4.15625 125.727 4.4375C125.68 4.60156 125.633 4.84766 125.586 5.17578L125.48 9.21875C125.48 9.33594 125.492 9.42969 125.516 9.5C125.562 9.54688 125.609 9.57031 125.656 9.57031C125.938 9.57031 126.277 9.48828 126.676 9.32422C127.426 9.08984 128.07 8.85547 128.609 8.62109L129.383 8.30469V5.98438C129.383 5.04688 129.324 4.14453 129.207 3.27734C129.184 3.20703 129.172 3.125 129.172 3.03125C129.172 2.79688 129.266 2.67969 129.453 2.67969C129.477 2.67969 129.605 2.72656 129.84 2.82031C130.191 3.00781 130.449 3.17188 130.613 3.3125C130.777 3.45312 130.871 3.53516 130.895 3.55859C130.988 3.62891 131.035 3.69922 131.035 3.76953C131.035 3.81641 131.012 3.875 130.965 3.94531C130.941 4.01562 130.918 4.07422 130.895 4.12109L130.789 5.17578L130.754 8.41016L130.789 11.5391C130.789 12.0781 130.754 12.5469 130.684 12.9453C130.566 13.4375 130.379 13.6836 130.121 13.6836ZM123.652 19.4492C123.395 19.4492 123.078 19.25 122.703 18.8516C122.422 18.5703 122.281 18.3594 122.281 18.2188C122.281 18.1484 122.328 18.1133 122.422 18.1133C122.516 18.0898 122.633 18.0781 122.773 18.0781L123.547 18.043C123.992 18.043 124.285 18.0312 124.426 18.0078C124.871 18.0078 125.246 17.9961 125.551 17.9727C127.566 17.7852 128.926 17.6328 129.629 17.5156C129.98 17.4688 130.297 17.4219 130.578 17.375C130.859 17.3047 131.082 17.2695 131.246 17.2695C131.574 17.2695 131.902 17.4336 132.23 17.7617C132.488 18.0195 132.617 18.2305 132.617 18.3945C132.617 18.5352 132.535 18.6289 132.371 18.6758C132.254 18.6992 131.562 18.7461 130.297 18.8164C129.594 18.8398 128.727 18.8984 127.695 18.9922C126.664 19.0859 125.762 19.1797 124.988 19.2734C124.848 19.2969 124.648 19.332 124.391 19.3789C124.133 19.4258 123.887 19.4492 123.652 19.4492ZM128.363 33.9688C127.637 33.9688 127.074 33.9453 126.676 33.8984C126.301 33.8516 125.984 33.7109 125.727 33.4766C125.281 33.1484 124.977 32.4336 124.812 31.332L124.707 30.207C124.707 29.9258 124.684 29.5742 124.637 29.1523C124.262 29.1992 123.992 29.2461 123.828 29.293C123.781 29.3164 123.699 29.3516 123.582 29.3984C123.488 29.4219 123.418 29.4336 123.371 29.4336C123.207 29.4336 123.055 29.3867 122.914 29.293C122.773 29.1992 122.598 29.0234 122.387 28.7656C122.223 28.5547 122.141 28.4141 122.141 28.3438C122.141 28.2734 122.223 28.2266 122.387 28.2031C122.551 28.1797 122.773 28.168 123.055 28.168C123.453 28.168 123.969 28.1211 124.602 28.0273L124.566 27.5352C124.566 26.5977 124.508 25.8008 124.391 25.1445L124.355 24.8984C124.355 24.5703 124.484 24.4414 124.742 24.5117C125.023 24.6055 125.281 24.7227 125.516 24.8633C125.703 24.957 125.832 25.0508 125.902 25.1445C125.973 25.2148 125.996 25.3203 125.973 25.4609L125.867 26.9727V27.8867L128.961 27.5703C128.961 27.4062 128.973 27.0195 128.996 26.4102C129.02 25.7773 129.02 25.3672 128.996 25.1797C128.996 24.9922 128.973 24.8164 128.926 24.6523C128.902 24.4648 128.879 24.3125 128.855 24.1953C128.855 24.0078 128.949 23.9141 129.137 23.9141C129.324 23.9141 129.559 24.0195 129.84 24.2305C130.168 24.4414 130.379 24.6289 130.473 24.793C130.59 24.957 130.613 25.1562 130.543 25.3906C130.426 25.7656 130.344 26.1875 130.297 26.6562C130.25 27.125 130.227 27.4062 130.227 27.5C130.508 27.4766 130.766 27.4414 131 27.3945C131.234 27.3477 131.387 27.3242 131.457 27.3242C131.645 27.2773 131.867 27.2539 132.125 27.2539C132.266 27.2773 132.465 27.418 132.723 27.6758C132.934 27.957 133.039 28.1797 133.039 28.3438C133.039 28.5781 132.816 28.6719 132.371 28.625C131.973 28.5547 131.574 28.5195 131.176 28.5195C130.777 28.5195 130.438 28.5312 130.156 28.5547C130.086 29.3984 129.945 30.2305 129.734 31.0508C129.688 31.2383 129.605 31.4023 129.488 31.543C129.371 31.6602 129.266 31.7188 129.172 31.7188C129.008 31.7188 128.902 31.6602 128.855 31.543C128.832 31.4023 128.82 31.1914 128.82 30.9102C128.867 30.3008 128.891 29.5391 128.891 28.625C128.258 28.6719 127.766 28.7188 127.414 28.7656C126.875 28.8828 126.371 28.9531 125.902 28.9766C125.879 29.9375 125.926 30.793 126.043 31.543C126.113 32.0352 126.254 32.375 126.465 32.5625C126.605 32.6797 126.77 32.75 126.957 32.7734C127.168 32.7969 127.379 32.8086 127.59 32.8086C127.801 32.8086 127.941 32.8086 128.012 32.8086C128.738 32.8086 129.418 32.7734 130.051 32.7031C130.238 32.6797 130.402 32.6328 130.543 32.5625C130.707 32.4922 130.824 32.457 130.895 32.457C131.105 32.457 131.316 32.5273 131.527 32.668C131.738 32.8086 131.844 32.9727 131.844 33.1602C131.844 33.3477 131.738 33.4883 131.527 33.582C131.34 33.6758 131.035 33.7578 130.613 33.8281C129.863 33.9219 129.113 33.9688 128.363 33.9688ZM138.383 17.9727C138.664 17.9727 138.805 18.1016 138.805 18.3594C138.805 18.5 138.676 18.6992 138.418 18.957C137.715 19.8242 136.32 21.4766 134.234 23.9141C134.07 24.125 133.918 24.2305 133.777 24.2305C133.66 24.2305 133.402 24.0547 133.004 23.7031C132.676 23.4219 132.512 23.1875 132.512 23C132.512 22.7891 132.688 22.5898 133.039 22.4023C133.578 22.0977 134.387 21.4883 135.465 20.5742C136.543 19.6133 137.34 18.8516 137.855 18.2891C138.066 18.0781 138.242 17.9727 138.383 17.9727ZM99.9922 26.3398C99.875 26.1523 99.7812 25.9883 99.7109 25.8477C99.6172 25.707 99.5234 25.5195 99.4297 25.2852V24.4414L100.379 24.6523L101.328 25.0742C101.75 25.2617 102.125 25.4492 102.453 25.6367C102.781 25.8477 103.051 26.1641 103.262 26.5859C103.426 26.9375 103.508 27.3477 103.508 27.8164C103.484 28.2852 103.367 28.6484 103.156 28.9062C102.969 29.1641 102.723 29.293 102.418 29.293C102.113 29.293 101.797 29.1055 101.469 28.7305C101.281 28.543 101.105 28.2734 100.941 27.9219L100.414 27.043L96.6172 29.7852L95.3516 30.8398L94.5078 31.6836L94.0859 31.9648C93.8516 31.9648 93.6172 31.8125 93.3828 31.5078C93.1719 31.25 92.9844 30.9336 92.8203 30.5586C92.6797 30.2539 92.6094 29.9609 92.6094 29.6797L92.8203 29.0117C92.9609 28.6367 93.0664 28.25 93.1367 27.8516C93.207 27.4297 93.2656 26.9492 93.3125 26.4102C93.3594 25.8945 93.4062 25.1445 93.4531 24.1602L93.6289 18.043C93.6289 17.7148 93.6172 17.375 93.5938 17.0234C93.5469 16.6719 93.4883 16.3789 93.418 16.1445C93.3477 15.9102 93.2422 15.6992 93.1016 15.5117L92.8203 15.2305L92.75 14.8789C92.8438 14.7383 93.0078 14.668 93.2422 14.668C93.8047 14.668 94.25 14.7617 94.5781 14.9492L95.1055 15.2305C95.6914 15.1602 96.1719 15.0898 96.5469 15.0195C96.9453 14.9727 97.4375 14.8789 98.0234 14.7383C98.5859 14.5977 99.0195 14.4805 99.3242 14.3867C99.6289 14.293 99.9453 14.1758 100.273 14.0352C100.602 13.8945 100.859 13.8242 101.047 13.8242C101.234 13.8477 101.457 13.918 101.715 14.0352L102.453 14.4219L102.91 14.7383C103.332 14.9961 103.602 15.207 103.719 15.3711L103.754 16.0039L103.402 16.5312C103.332 16.6719 103.227 16.9062 103.086 17.2344L102.91 17.7617L102.031 21.0312L101.68 22.4023C101.492 22.8711 101.305 23.1641 101.117 23.2812L100.73 23.4219H100.484L100.027 22.9648C99.3945 23.0352 98.9141 23.082 98.5859 23.1055L96.1602 23.457L95.2812 23.5273L95.0703 27.3945L95.2109 28.168C95.3984 28.168 95.6094 28.1211 95.8438 28.0273L99.9922 26.3398ZM95.2812 22.3672C95.7031 22.3438 96.0312 22.3203 96.2656 22.2969C96.5 22.2734 96.8516 22.2031 97.3203 22.0859C97.8359 21.9688 98.2812 21.875 98.6562 21.8047C98.9375 21.7578 99.1953 21.7344 99.4297 21.7344L100.098 21.8047L100.695 19.0977C100.109 19.1445 99.6758 19.1914 99.3945 19.2383L97.707 19.5195C97.2148 19.6133 96.8164 19.6602 96.5117 19.6602L95.9492 19.5898L95.4219 19.4141L95.2812 22.3672ZM95.457 18.6758C95.9023 18.6523 96.2539 18.6172 96.5117 18.5703C96.7695 18.5234 97.2031 18.418 97.8125 18.2539C98.375 18.0898 98.7969 17.9961 99.0781 17.9727C99.4766 17.9727 99.8633 18.043 100.238 18.1836L100.801 18.3945L100.977 17.3047C101.023 17 101.047 16.6602 101.047 16.2852C101.047 15.9102 100.988 15.6641 100.871 15.5469C100.754 15.4297 100.59 15.3711 100.379 15.3711C100.145 15.3945 99.8516 15.4531 99.5 15.5469C99.1719 15.6172 98.6328 15.7227 97.8828 15.8633C97.1094 16.0039 96.6172 16.0742 96.4062 16.0742L95.668 16.1094L95.457 18.6758ZM108.148 17.1992C108.055 17.5742 107.996 17.8555 107.973 18.043C107.949 18.2305 107.914 18.5352 107.867 18.957C107.82 19.3789 107.797 19.7305 107.797 20.0117L107.691 27.1133C107.668 28.0977 107.586 29.2461 107.445 30.5586L107.305 32.0703C107.211 32.9844 107.047 33.7695 106.812 34.4258C106.578 35.0586 106.367 35.375 106.18 35.375C106.016 35.3516 105.875 35.0117 105.758 34.3555C105.641 33.7227 105.57 32.9844 105.547 32.1406C105.523 31.5781 105.512 31.0156 105.512 30.4531V29.5742L105.652 20.3633C105.676 19.7539 105.688 19.2617 105.688 18.8867C105.688 18.5117 105.676 18.2539 105.652 18.1133C105.629 17.8086 105.594 17.457 105.547 17.0586C105.5 16.6602 105.418 16.332 105.301 16.0742L105.16 15.3711L105.336 15.1602C105.547 15.1602 105.805 15.207 106.109 15.3008C106.719 15.4883 107.117 15.6406 107.305 15.7578L107.867 16.1094L109.59 15.7227C110.176 15.582 110.773 15.418 111.383 15.2305L112.156 15.0195C112.531 14.9023 112.859 14.7734 113.141 14.6328L113.633 14.457C113.797 14.457 113.996 14.5273 114.23 14.668C114.465 14.8086 114.711 14.9727 114.969 15.1602C115.25 15.3477 115.52 15.5586 115.777 15.793C115.988 15.9805 116.059 16.2617 115.988 16.6367C115.801 16.8945 115.672 17.1289 115.602 17.3398C115.555 17.5508 115.508 17.832 115.461 18.1836C115.414 18.5586 115.391 18.9453 115.391 19.3438L115.18 23.1055C115.133 24.043 115.062 24.7695 114.969 25.2852C114.898 25.8008 114.746 26.2578 114.512 26.6562C114.254 27.0547 113.961 27.3711 113.633 27.6055L113 27.8867C112.812 27.8398 112.625 27.6992 112.438 27.4648C112.227 27.207 111.934 26.8789 111.559 26.4805C111.207 26.0586 110.867 25.6836 110.539 25.3555L109.906 24.793L109.695 24.3008C109.836 24.2773 110 24.3008 110.188 24.3711L110.996 24.6172C111.465 24.7812 111.828 24.875 112.086 24.8984C112.297 24.8984 112.473 24.8633 112.613 24.793C112.824 24.6523 112.953 24.3477 113 23.8789C113.07 23.3633 113.117 22.8711 113.141 22.4023L113.281 17.832C113.281 17.293 113.258 16.9414 113.211 16.7773L113.07 16.4961C112.93 16.3555 112.719 16.2852 112.438 16.2852C112.203 16.2852 111.805 16.332 111.242 16.4258L109.66 16.7422L108.148 17.1992ZM108.852 6.40625L113.281 5.52734C113.516 5.48047 113.773 5.41016 114.055 5.31641L114.688 5.17578C114.992 5.15234 115.25 5.16406 115.461 5.21094C115.742 5.28125 116.035 5.41016 116.34 5.59766L116.832 5.94922C116.855 6.08984 116.773 6.25391 116.586 6.44141C116.398 6.58203 116.129 6.6875 115.777 6.75781L114.477 7.00391C114.102 7.05078 113.574 7.12109 112.895 7.21484C112.215 7.28516 111.605 7.35547 111.066 7.42578C110.527 7.51953 110.164 7.56641 109.977 7.56641C109.602 7.56641 109.238 7.51953 108.887 7.42578L108.289 7.32031L107.27 8.72656C106.871 9.24219 106.391 9.76953 105.828 10.3086C105.219 10.8711 104.82 11.2109 104.633 11.3281L104 11.7148L103.578 11.8555L103.332 11.6797L103.578 11.293L104.352 10.3086C104.68 9.91016 104.949 9.55859 105.16 9.25391C105.371 8.92578 105.617 8.51562 105.898 8.02344C106.203 7.53125 106.449 7.09766 106.637 6.72266C106.801 6.37109 106.953 6.01953 107.094 5.66797C107.234 5.29297 107.34 4.98828 107.41 4.75391C107.48 4.49609 107.562 4.23828 107.656 3.98047C107.703 3.69922 107.727 3.44141 107.727 3.20703L107.938 2.64453L108.184 2.53906C108.348 2.53906 108.535 2.58594 108.746 2.67969C109.027 2.79688 109.32 2.94922 109.625 3.13672C109.93 3.32422 110.164 3.52344 110.328 3.73438L110.539 4.15625L110.469 4.47266C110.352 4.58984 110.188 4.75391 109.977 4.96484C109.742 5.19922 109.531 5.43359 109.344 5.66797L108.852 6.40625ZM97.25 7.28516L98.2344 7.10938C98.6562 7.03906 99.3242 6.86328 100.238 6.58203L100.766 6.40625L101.645 6.16016L102.172 6.26562C102.453 6.33594 102.664 6.39453 102.805 6.44141C102.945 6.51172 103.086 6.60547 103.227 6.72266L103.473 6.96875C103.496 7.13281 103.438 7.27344 103.297 7.39062C103.109 7.50781 102.805 7.61328 102.383 7.70703L101.539 7.91797C101.352 7.96484 100.883 8.03516 100.133 8.12891L98.9375 8.30469C98.6328 8.32812 98.3867 8.33984 98.1992 8.33984L97.7422 8.30469L96.8281 7.98828L95.7734 9.21875C95.4453 9.61719 95.0703 10.0156 94.6484 10.4141C94.2266 10.8359 93.8398 11.1758 93.4883 11.4336C93.1367 11.668 92.7617 11.9023 92.3633 12.1367L91.168 12.5234C91.1445 12.3594 91.2031 12.207 91.3438 12.0664L91.9414 11.5039C92.293 11.1758 92.6094 10.8477 92.8906 10.5195C93.1719 10.2383 93.5117 9.81641 93.9102 9.25391C94.3086 8.69141 94.6719 8.12891 95 7.56641C95.3281 7.05078 95.6094 6.58203 95.8438 6.16016C96.0547 5.73828 96.2305 5.33984 96.3711 4.96484C96.5117 4.58984 96.582 4.21484 96.582 3.83984L96.8633 3.3125C97.168 3.3125 97.4961 3.41797 97.8477 3.62891C98.1992 3.81641 98.4336 3.96875 98.5508 4.08594C98.6914 4.20313 98.8203 4.33203 98.9375 4.47266L99.1484 5.17578C99.1016 5.31641 98.9844 5.44531 98.7969 5.5625L98.4102 5.80859L97.7422 6.72266L97.25 7.28516ZM97.3906 10.0625C97.6484 10.0156 97.8828 10.0039 98.0938 10.0273L98.8672 10.2031C99.0781 10.2734 99.3125 10.3438 99.5703 10.4141C99.8281 10.4844 100.039 10.5898 100.203 10.7305C100.391 10.8711 100.52 11.0117 100.59 11.1523C100.66 11.293 100.695 11.5039 100.695 11.7852C100.695 12.1602 100.602 12.4414 100.414 12.6289C100.25 12.8164 100.039 12.9219 99.7812 12.9453C99.5703 12.9453 99.3125 12.8164 99.0078 12.5586C98.7969 12.3945 98.5156 12.1133 98.1641 11.7148C97.8125 11.3398 97.5547 11.0469 97.3906 10.8359C97.25 10.625 97.25 10.3672 97.3906 10.0625ZM109.414 8.90234L110.293 9.04297C110.926 9.18359 111.465 9.35938 111.91 9.57031C112.332 9.78125 112.648 10.0273 112.859 10.3086C113.047 10.5898 113.141 10.9648 113.141 11.4336C113.117 11.9961 112.918 12.3594 112.543 12.5234C112.238 12.5234 111.945 12.4297 111.664 12.2422C111.289 12.0312 110.926 11.7266 110.574 11.3281L109.695 10.2383L109.027 8.9375C109.191 8.89062 109.32 8.87891 109.414 8.90234ZM177.652 13.4727C177.395 13.4727 177.078 13.2734 176.703 12.875C176.422 12.5938 176.281 12.3828 176.281 12.2422C176.281 12.1719 176.328 12.1367 176.422 12.1367C176.516 12.1133 176.633 12.1016 176.773 12.1016L177.547 12.0664C177.992 12.0664 178.285 12.0547 178.426 12.0312C178.871 12.0312 179.246 12.0195 179.551 11.9961C181.566 11.8086 182.926 11.6563 183.629 11.5391C183.98 11.4922 184.297 11.4453 184.578 11.3984C184.859 11.3281 185.082 11.293 185.246 11.293C185.574 11.293 185.902 11.457 186.23 11.7852C186.488 12.043 186.617 12.2539 186.617 12.418C186.617 12.5586 186.535 12.6523 186.371 12.6992C186.254 12.7227 185.562 12.7695 184.297 12.8398C183.594 12.8633 182.727 12.9219 181.695 13.0156C180.664 13.1094 179.762 13.2031 178.988 13.2969C178.848 13.3203 178.648 13.3555 178.391 13.4023C178.133 13.4492 177.887 13.4727 177.652 13.4727ZM185.914 29.4336C185.891 29.457 185.832 29.4688 185.738 29.4688C185.551 29.4688 185.281 29.3398 184.93 29.082C184.133 28.2852 183.09 27.3008 181.801 26.1289C181.191 26.7383 180.617 27.2656 180.078 27.7109C179.891 27.8516 179.562 28.0625 179.094 28.3438C178.414 28.7422 177.758 28.9883 177.125 29.082H176.914C176.703 29.082 176.574 29.0586 176.527 29.0117C176.504 28.9883 176.551 28.9414 176.668 28.8711C176.809 28.8008 176.914 28.7422 176.984 28.6953C177.125 28.625 177.523 28.3672 178.18 27.9219C178.508 27.6875 178.977 27.2891 179.586 26.7266C180.195 26.1641 180.641 25.707 180.922 25.3555L179.48 24.2305C179.223 24.043 178.941 23.8438 178.637 23.6328C178.355 23.3984 178.156 23.2461 178.039 23.1758L178.004 23.0703C178.004 22.9297 178.121 22.8594 178.355 22.8594C178.637 22.8594 179.094 23.0352 179.727 23.3867L181.52 24.5469C181.918 24.0312 182.316 23.4688 182.715 22.8594C183.137 22.2266 183.359 21.8516 183.383 21.7344C183.406 21.6641 183.395 21.6055 183.348 21.5586C183.324 21.4883 183.277 21.4531 183.207 21.4531H182.504L181.238 21.5586C180.605 21.6055 179.973 21.6875 179.34 21.8047C179.27 21.8281 179.152 21.8633 178.988 21.9102C178.824 21.957 178.684 21.9805 178.566 21.9805C178.52 21.9805 178.32 21.8516 177.969 21.5938C177.641 21.3125 177.465 21.1367 177.441 21.0664C177.418 21.043 177.406 21.0078 177.406 20.9609C177.406 20.8438 177.535 20.7969 177.793 20.8203C178.051 20.8203 178.215 20.8203 178.285 20.8203C178.941 20.8203 179.891 20.7617 181.133 20.6445L182.328 20.5391L183.418 20.3984C183.77 20.3047 183.969 20.2578 184.016 20.2578H184.086C184.203 20.2578 184.309 20.293 184.402 20.3633C184.496 20.4336 184.566 20.5039 184.613 20.5742C184.66 20.6445 184.695 20.6914 184.719 20.7148C184.742 20.7383 184.812 20.8086 184.93 20.9258C185.047 21.0195 185.117 21.1133 185.141 21.207C185.188 21.2773 185.211 21.3594 185.211 21.4531C185.211 21.6641 185.129 21.8164 184.965 21.9102C184.848 21.957 184.637 22.2031 184.332 22.6484C183.816 23.4688 183.195 24.3477 182.469 25.2852C182.867 25.543 183.383 25.918 184.016 26.4102C184.297 26.5977 184.754 26.9141 185.387 27.3594C185.668 27.5703 185.879 27.8516 186.02 28.2031C186.113 28.5781 186.16 28.8594 186.16 29.0469C186.137 29.2344 186.055 29.3633 185.914 29.4336ZM192.383 14.1055C192.664 14.1055 192.805 14.2344 192.805 14.4922C192.805 14.6328 192.676 14.832 192.418 15.0898C191.715 15.957 190.32 17.6094 188.234 20.0469C188.07 20.2578 187.918 20.3633 187.777 20.3633C187.66 20.3633 187.402 20.1875 187.004 19.8359C186.676 19.5547 186.512 19.3203 186.512 19.1328C186.512 18.9219 186.688 18.7227 187.039 18.5352C187.578 18.2305 188.387 17.6211 189.465 16.707C190.543 15.7461 191.34 14.9844 191.855 14.4219C192.066 14.2109 192.242 14.1055 192.383 14.1055ZM148.895 26.0938L150.406 26.2695C150.734 26.3164 151.145 26.4102 151.637 26.5508C152.129 26.6914 152.926 26.9609 154.027 27.3594C155.129 27.7578 156.113 28.0859 156.98 28.3438C157.871 28.6016 158.891 28.8477 160.039 29.082C161.211 29.3164 162.312 29.5039 163.344 29.6445C164.422 29.7617 165.547 29.8555 166.719 29.9258C167.891 29.9727 169.039 30.0078 170.164 30.0312C171.289 30.0547 171.992 30.0664 172.273 30.0664L173.82 30.1016C174.148 30.125 174.277 30.3008 174.207 30.6289L173.117 31.2617C172.836 31.4023 172.332 31.5898 171.605 31.8242L169.004 32.7383C168.371 32.9727 167.762 33.1719 167.176 33.3359C166.59 33.5 166.109 33.582 165.734 33.582C165.266 33.582 164.668 33.4414 163.941 33.1602C163.168 32.8789 162.02 32.4102 160.496 31.7539C158.973 31.0977 157.859 30.6055 157.156 30.2773L153.922 28.9766C153.031 28.6016 152.352 28.332 151.883 28.168C151.414 28.0273 150.887 27.8984 150.301 27.7812C149.715 27.6875 149.164 27.6289 148.648 27.6055C148.016 27.6055 147.359 27.6523 146.68 27.7461C146 27.8398 145.508 27.9336 145.203 28.0273C144.922 28.1211 144.641 28.2383 144.359 28.3789L143.832 28.5898C143.621 28.5898 143.422 28.5312 143.234 28.4141C143.047 28.2969 142.836 28.1328 142.602 27.9219C142.391 27.7109 142.215 27.5234 142.074 27.3594C141.934 27.1719 141.816 26.9023 141.723 26.5508C141.746 26.3633 141.922 26.2461 142.25 26.1992C142.484 26.2461 142.789 26.2812 143.164 26.3047L144.148 26.4102L145.203 26.3047L146.469 26.1992L147.699 26.1289L147.91 25.7773C147.934 25.5898 147.969 25.332 148.016 25.0039C148.016 24.7227 147.992 24.4414 147.945 24.1602C147.898 23.832 147.793 23.4922 147.629 23.1406C147.488 22.7891 147.336 22.4727 147.172 22.1914C146.984 21.8867 146.797 21.6289 146.609 21.418L146.223 20.7852C146.223 20.5977 146.258 20.4219 146.328 20.2578L147.242 18.1133L147.453 17.4102L147.172 17.1289C147.031 17.1523 146.891 17.1875 146.75 17.2344C146.586 17.3047 146.281 17.3984 145.836 17.5156C145.367 17.6328 144.969 17.7266 144.641 17.7969C144.406 17.7969 144.195 17.7852 144.008 17.7617C143.68 17.7617 143.422 17.7266 143.234 17.6562C143.047 17.5859 142.859 17.3984 142.672 17.0938L143.199 16.8828L143.867 16.707C144.266 16.6133 144.664 16.4961 145.062 16.3555C145.484 16.2148 145.941 16.0273 146.434 15.793L147.629 15.1602L148.262 14.8789C148.473 14.8789 148.684 14.9258 148.895 15.0195C149.152 15.1133 149.422 15.2539 149.703 15.4414C150.031 15.6289 150.301 15.8281 150.512 16.0391L150.828 16.4609C150.805 16.6719 150.688 16.8711 150.477 17.0586L149.879 17.5508C149.668 17.7383 149.469 17.9375 149.281 18.1484L147.875 19.8008C147.734 19.9883 147.594 20.1641 147.453 20.3281V20.9258L148.297 21.5938C148.648 21.875 148.93 22.2031 149.141 22.5781C149.375 22.9297 149.492 23.3281 149.492 23.7734C149.492 24.1953 149.422 24.5938 149.281 24.9688C149.188 25.2734 149.07 25.5195 148.93 25.707L148.895 26.0938ZM154.977 11.5742C154.461 11.668 154.062 11.7148 153.781 11.7148C153.5 11.7148 153.23 11.7031 152.973 11.6797C152.715 11.6563 152.457 11.5742 152.199 11.4336L151.812 11.1523C151.812 10.9414 151.895 10.8242 152.059 10.8008L152.656 10.7305L153.746 10.5547C154.215 10.4844 154.672 10.3789 155.117 10.2383L156.312 9.88672C155.984 9.55859 155.75 9.30078 155.609 9.11328C155.469 8.92578 155.305 8.63281 155.117 8.23438C154.953 7.83594 154.836 7.51953 154.766 7.28516L154.449 6.51172V5.98438H154.73C154.988 6.03125 155.293 6.125 155.645 6.26562C155.996 6.40625 156.324 6.57031 156.629 6.75781C156.934 6.92187 157.156 7.14453 157.297 7.42578C157.438 7.70703 157.531 8.03516 157.578 8.41016L157.543 8.90234L157.297 9.64062L158.141 9.28906C158.422 9.17187 158.645 9.10156 158.809 9.07812C158.973 9.07812 159.137 9.10156 159.301 9.14844L159.934 9.35938C160.145 9.45312 160.32 9.55859 160.461 9.67578L160.672 10.0625L160.215 10.3789C159.91 10.4961 159.547 10.6133 159.125 10.7305L157.648 11.082L156.031 11.4336C156.477 11.6445 156.793 11.832 156.98 11.9961L157.121 12.5938L156.77 13.0859L156.453 13.7188L156.031 14.5977L157.051 14.3164C157.402 14.2227 157.707 14.1172 157.965 14L158.562 13.8242C158.773 13.8008 158.949 13.8242 159.09 13.8945C159.324 13.9883 159.57 14.1055 159.828 14.2461C160.109 14.3867 160.344 14.5273 160.531 14.668L160.812 15.0898C160.812 15.2539 160.742 15.4531 160.602 15.6875L160.25 16.2852C160.156 16.4492 160.027 17 159.863 17.9375L159.582 19.5898L161.41 19.3789L164.996 18.8867C164.949 18.6758 164.891 18.4414 164.82 18.1836C164.727 17.9492 164.539 17.7266 164.258 17.5156C163.977 17.3047 163.883 17.0117 163.977 16.6367L164.891 16.8125L166.438 14.9492L166.859 14.2461C166.836 14.0586 166.695 13.918 166.438 13.8242C166.227 13.8008 165.969 13.8359 165.664 13.9297L164.223 14.457C163.848 14.5977 163.52 14.7383 163.238 14.8789L162.641 15.0898C162.477 15.0898 162.266 15.0078 162.008 14.8438C161.727 14.6797 161.504 14.5273 161.34 14.3867L161.094 14.0703C161.094 13.9063 161.188 13.8008 161.375 13.7539L162.008 13.6836L163.203 13.5078C163.625 13.4375 164.199 13.3086 164.926 13.1211C165.652 12.9102 166.203 12.7227 166.578 12.5586L167.246 12.3477C167.504 12.3477 167.773 12.3945 168.055 12.4883C168.312 12.6055 168.617 12.7695 168.969 12.9805C169.32 13.168 169.637 13.3789 169.918 13.6133L170.305 14.0703C170.281 14.2344 170.152 14.375 169.918 14.4922L169.004 14.9492L167.141 16.1445L165.383 17.2344C165.57 17.3984 165.734 17.5742 165.875 17.7617C166.016 17.9023 166.109 18.043 166.156 18.1836L166.367 18.6406L168.195 18.3242C169.555 18.0898 170.316 17.9727 170.48 17.9727C170.645 17.9961 170.855 18.043 171.113 18.1133C171.371 18.1836 171.605 18.2773 171.816 18.3945C172.027 18.4883 172.25 18.6289 172.484 18.8164L172.766 19.2383L172.625 19.4844L172.344 19.5547L166.859 19.8711L167.105 21.4883C167.176 21.957 167.211 22.5312 167.211 23.2109C167.211 23.8906 167.164 24.5469 167.07 25.1797C166.977 25.625 166.848 26.0352 166.684 26.4102C166.52 26.7852 166.309 27.1484 166.051 27.5C165.793 27.8516 165.523 28.1211 165.242 28.3086L164.68 28.5195C164.469 28.4727 164.234 28.2852 163.977 27.957C163.695 27.6289 163.484 27.3594 163.344 27.1484C163.18 26.9609 163.016 26.7852 162.852 26.6211C162.664 26.4336 162.477 26.2578 162.289 26.0938L161.867 25.3555L162.5 25.4609C163.039 25.6016 163.426 25.6836 163.66 25.707L164.152 25.6367C164.41 25.5664 164.633 25.4141 164.82 25.1797C165.008 24.9688 165.148 24.6055 165.242 24.0898C165.336 23.5742 165.406 22.9883 165.453 22.332C165.477 22.0273 165.488 21.7695 165.488 21.5586L165.453 21.207L165.312 20.082L163.695 20.293C163.344 20.3398 162.898 20.4453 162.359 20.6094C161.914 20.7266 161.574 20.7852 161.34 20.7852C161.129 20.7852 160.883 20.7148 160.602 20.5742C160.32 20.4336 160.109 20.293 159.969 20.1523L159.547 19.8359L159.195 21.6641C159.078 22.1562 158.926 22.6953 158.738 23.2812C158.574 23.8672 158.387 24.3359 158.176 24.6875C157.965 25.0391 157.695 25.3789 157.367 25.707C157.016 26.0586 156.688 26.293 156.383 26.4102L156.066 26.4805L155.609 26.4102L155.398 25.9883C155.258 25.8008 155.117 25.543 154.977 25.2148L154.695 24.6875C154.602 24.5234 154.438 24.2539 154.203 23.8789L153.781 23.3867L153.887 22.9648L154.555 23.2461L155.258 23.6328C155.539 23.7734 155.832 23.8438 156.137 23.8438C156.418 23.7266 156.652 23.457 156.84 23.0352C157.027 22.6367 157.25 21.9219 157.508 20.8906C157.742 19.8359 157.906 19.0273 158 18.4648L158.211 16.4961L158.281 16.0742C158.281 15.7695 158.234 15.5586 158.141 15.4414C158 15.3008 157.742 15.2305 157.367 15.2305C157.109 15.2773 156.828 15.3945 156.523 15.582L155.855 15.793L154.871 17.6211C154.66 18.1367 154.402 18.6289 154.098 19.0977C153.816 19.5664 153.477 20.0469 153.078 20.5391C152.703 21.0312 152.34 21.418 151.988 21.6992C151.637 22.0039 151.32 22.2617 151.039 22.4727L150.406 22.8594L149.949 22.9297C149.949 22.7656 150.008 22.5898 150.125 22.4023L150.582 21.9102C150.957 21.4414 151.297 20.9844 151.602 20.5391C151.93 20.0938 152.293 19.5078 152.691 18.7812C153.09 18.0781 153.43 17.3633 153.711 16.6367C154.016 15.9336 154.285 15.1836 154.52 14.3867C154.777 13.5898 154.906 12.957 154.906 12.4883L154.977 11.5742ZM163.766 9.18359L167.422 8.19922C168.219 7.96484 168.699 7.84766 168.863 7.84766C169.027 7.87109 169.215 7.91797 169.426 7.98828C169.637 8.05859 169.824 8.12891 169.988 8.19922C170.129 8.24609 170.27 8.33984 170.41 8.48047L170.586 8.76172C170.539 8.94922 170.398 9.08984 170.164 9.18359C169.93 9.27734 169.555 9.35938 169.039 9.42969L166.367 9.99219L164.82 10.2031L163.906 10.3086L163.133 10.2031C162.852 10.4844 162.594 10.7656 162.359 11.0469L161.902 11.5391L161.234 12.0664L160.672 12.4883L160.285 12.3477L160.707 11.5742L161.34 10.5195C161.645 10.0273 161.867 9.61719 162.008 9.28906C162.195 8.9375 162.406 8.49219 162.641 7.95312C162.875 7.39062 163.039 6.93359 163.133 6.58203C163.227 6.23047 163.297 5.85547 163.344 5.45703C163.367 5.03516 163.391 4.75391 163.414 4.61328L163.66 4.29688C163.801 4.27344 163.977 4.30859 164.188 4.40234C164.422 4.49609 164.633 4.58984 164.82 4.68359L165.523 5.10547C165.852 5.29297 166.004 5.55078 165.98 5.87891C165.934 6.01953 165.805 6.19531 165.594 6.40625C165.359 6.61719 165.125 6.92187 164.891 7.32031L163.766 9.18359ZM145.836 8.33984L145.59 7.32031L146.258 7.42578L147.102 7.63672L148.086 7.98828C148.32 8.08203 148.578 8.19922 148.859 8.33984C149.141 8.48047 149.352 8.64453 149.492 8.83203C149.633 9.01953 149.738 9.25391 149.809 9.53516L149.844 9.85156C149.844 10.1094 149.82 10.3438 149.773 10.5547C149.68 10.9062 149.527 11.1641 149.316 11.3281L148.895 11.5742C148.613 11.5742 148.355 11.457 148.121 11.2227L147.383 10.3789L146.609 9.32422C146.211 8.85547 145.953 8.52734 145.836 8.33984ZM235.414 17.4453C235.273 17.4453 235.086 17.293 234.852 16.9883C234.617 16.6602 234.512 16.3789 234.535 16.1445C234.582 15.957 234.617 15.4297 234.641 14.5625C234.664 13.9766 234.676 12.9453 234.676 11.4688C234.676 10.4375 234.664 9.74609 234.641 9.39453L233.48 9.5C232.66 9.61719 231.957 9.67578 231.371 9.67578C231.207 9.67578 230.973 9.54688 230.668 9.28906C230.363 9.03125 230.211 8.84375 230.211 8.72656C230.211 8.53906 230.41 8.46875 230.809 8.51562C231.066 8.53906 231.828 8.52734 233.094 8.48047C234.828 8.36328 236.082 8.29297 236.855 8.26953C237.254 8.24609 237.617 8.21094 237.945 8.16406C238.297 8.09375 238.543 8.04687 238.684 8.02344C238.895 8 239.082 8.02344 239.246 8.09375C239.41 8.16406 239.562 8.25781 239.703 8.375C239.867 8.46875 239.996 8.53906 240.09 8.58594C240.301 8.72656 240.406 8.85547 240.406 8.97266C240.406 9.06641 240.348 9.16016 240.23 9.25391C240.137 9.32422 240.031 9.35938 239.914 9.35938C239.797 9.35938 239.633 9.34766 239.422 9.32422C239.234 9.30078 239.023 9.28906 238.789 9.28906C237.922 9.28906 237.031 9.3125 236.117 9.35938C236.094 9.54688 236.082 10.0156 236.082 10.7656C236.035 12.0312 236.012 13.2734 236.012 14.4922V15.8633V16.1797C236.012 16.5781 235.977 16.8359 235.906 16.9531C235.695 17.2812 235.531 17.4453 235.414 17.4453ZM231.652 25.7773C231.395 25.7773 231.078 25.5781 230.703 25.1797C230.422 24.8984 230.281 24.6875 230.281 24.5469C230.281 24.4766 230.328 24.4414 230.422 24.4414C230.516 24.418 230.633 24.4062 230.773 24.4062L231.547 24.3711C231.992 24.3711 232.285 24.3594 232.426 24.3359C232.871 24.3359 233.246 24.3242 233.551 24.3008C235.566 24.1133 236.926 23.9609 237.629 23.8438C237.98 23.7969 238.297 23.75 238.578 23.7031C238.859 23.6328 239.082 23.5977 239.246 23.5977C239.574 23.5977 239.902 23.7617 240.23 24.0898C240.488 24.3477 240.617 24.5586 240.617 24.7227C240.617 24.8633 240.535 24.957 240.371 25.0039C240.254 25.0273 239.562 25.0742 238.297 25.1445C237.594 25.168 236.727 25.2266 235.695 25.3203C234.664 25.4141 233.762 25.5078 232.988 25.6016C232.848 25.625 232.648 25.6602 232.391 25.707C232.133 25.7539 231.887 25.7773 231.652 25.7773ZM241.883 16.918C242 16.918 242.176 17 242.41 17.1641C242.387 17.2109 242.434 17.3047 242.551 17.4453C242.668 17.5625 242.75 17.6445 242.797 17.6914C242.914 17.8086 243.031 17.9492 243.148 18.1133C243.289 18.2773 243.441 18.4531 243.605 18.6406C244.027 19.0859 245 20.2461 246.523 22.1211C246.781 22.4961 246.91 22.7188 246.91 22.7891C246.91 23.0234 246.77 23.1406 246.488 23.1406C246.324 23.1406 246.148 23.0234 245.961 22.7891C245.516 22.3203 244.719 21.582 243.57 20.5742C242.68 19.7539 241.871 19.1211 241.145 18.6758C240.793 18.5117 240.617 18.3242 240.617 18.1133C240.617 17.9492 240.793 17.7148 241.145 17.4102C241.473 17.082 241.719 16.918 241.883 16.918ZM205.848 11.2227L205.812 6.72266L205.742 5.84375C205.695 5.32813 205.637 5 205.566 4.85938L205.215 4.08594L205.672 3.66406L206.656 3.73438C206.797 3.75781 207.008 3.82812 207.289 3.94531C207.617 4.03906 207.828 4.14453 207.922 4.26172C208.039 4.40234 208.109 4.56641 208.133 4.75391L207.746 5.63281L207.641 6.65234L207.605 7.49609L209.82 6.93359C210.195 6.83984 210.488 6.74609 210.699 6.65234L211.121 6.51172C211.285 6.53516 211.496 6.59375 211.754 6.6875C212.012 6.75781 212.223 6.86328 212.387 7.00391L212.598 7.32031C212.574 7.48437 212.375 7.61328 212 7.70703L211.156 7.91797C210.688 8.01172 210.242 8.08203 209.82 8.12891C209.398 8.17578 209.035 8.21094 208.73 8.23438H208.203L207.57 8.12891L207.359 10.9766L209.961 10.4492L211.086 10.168L211.859 9.88672C212.07 9.83984 212.281 9.81641 212.492 9.81641C212.656 9.81641 212.902 9.875 213.23 9.99219C213.582 10.1094 213.898 10.2617 214.18 10.4492C214.461 10.6367 214.73 10.8477 214.988 11.082L215.27 11.7148C215.199 11.9023 215.035 12.0547 214.777 12.1719C214.496 12.2891 214.203 12.418 213.898 12.5586C213.594 12.6992 213.336 12.8398 213.125 12.9805L212.492 13.4727L211.719 14.0352L211.332 13.9297L211.648 13.0859L211.965 12.418C212.035 12.2305 212.105 11.9492 212.176 11.5742L212.105 11.2578L211.648 11.1523C211.414 11.1992 211.109 11.2461 210.734 11.293C210.336 11.3867 209.691 11.4922 208.801 11.6094L207.078 11.8906L205.531 12.1367L206.375 12.4883C206.586 12.582 206.762 12.6758 206.902 12.7695L207.078 13.0508C207.102 13.1914 207.078 13.3555 207.008 13.543L206.832 13.9648L206.797 14.4922C207.078 14.4219 207.406 14.3281 207.781 14.2109C208.156 14.0938 208.414 14.0234 208.555 14C208.695 13.9766 209.105 13.9414 209.785 13.8945C210.09 13.8711 210.324 13.918 210.488 14.0352L210.805 14.3516C210.758 14.5156 210.664 14.6328 210.523 14.7031C210.336 14.7969 210.055 14.8906 209.68 14.9844L208.59 15.3008L207.465 15.5117L206.656 15.7227C206.656 15.957 206.645 16.168 206.621 16.3555L206.656 16.707C206.797 16.8477 206.996 16.9414 207.254 16.9883C207.512 17.0352 207.875 17.0586 208.344 17.0586H209.469C209.961 17.0586 210.371 17.0352 210.699 16.9883L211.262 16.918L211.648 16.9531C211.789 17.0234 211.918 17.1289 212.035 17.2695C212.152 17.3633 212.234 17.5742 212.281 17.9023C212.234 18.0664 212 18.1836 211.578 18.2539L210.418 18.3945C210.02 18.3945 209.492 18.3828 208.836 18.3594C208.273 18.3359 207.805 18.3008 207.43 18.2539C207.055 18.207 206.703 18.1133 206.375 17.9727C206.07 17.8555 205.824 17.668 205.637 17.4102C205.449 17.1758 205.355 16.918 205.355 16.6367L205.32 15.9688C204.992 16.0625 204.746 16.1211 204.582 16.1445L203.773 16.2148L202.859 16.2852H202.297C202.203 16.7539 202.156 17.1055 202.156 17.3398L201.945 18.957C201.805 19.8945 201.652 20.8555 201.488 21.8398C201.324 22.8242 201.125 23.7617 200.891 24.6523C200.656 25.5664 200.41 26.4102 200.152 27.1836C199.895 27.957 199.602 28.6367 199.273 29.2227C198.992 29.8086 198.641 30.418 198.219 31.0508C197.797 31.6836 197.469 32.1055 197.234 32.3164L196.531 33.0547L196.145 32.9844L196.672 31.9648C196.859 31.5898 197.047 31.1914 197.234 30.7695C197.422 30.3477 197.68 29.7266 198.008 28.9062C198.289 28.0859 198.547 27.3008 198.781 26.5508C199.016 25.8242 199.215 25.0859 199.379 24.3359C199.543 23.5625 199.719 22.5547 199.906 21.3125C200.094 20.0703 200.211 19.1094 200.258 18.4297C200.328 17.7734 200.375 17.0938 200.398 16.3906C200.422 16.0391 200.434 15.7227 200.434 15.4414C200.434 15.1602 200.422 14.9258 200.398 14.7383C200.375 14.1523 200.316 13.7656 200.223 13.5781L199.977 13.0859L199.625 12.9453L199.273 12.3828L199.766 12.207L201.172 11.9961C202.414 11.8086 203.164 11.6914 203.422 11.6445L205.848 11.2227ZM202.332 15.582L203.281 15.3711L204.477 15.0898L205.25 14.8789C205.273 14.5273 205.285 14.2461 205.285 14.0352L205.25 13.6484L205.039 12.2773L202.367 12.7695L202.684 13.1562C202.707 13.3203 202.672 13.5781 202.578 13.9297L202.438 14.9492L202.332 15.582ZM205.32 31.2617C205.203 31.1211 205.098 30.9805 205.004 30.8398C204.91 30.6992 204.781 30.4297 204.617 30.0312L204.09 28.8711C203.926 28.543 203.879 28.1562 203.949 27.7109L204.898 28.168C205.18 28.3086 205.414 28.4727 205.602 28.6602C205.836 28.8242 206 29.0234 206.094 29.2578C206.234 29.5156 206.305 29.7383 206.305 29.9258C206.305 30.1602 206.27 30.3711 206.199 30.5586L206.023 31.1211C206.727 30.957 207.16 30.8516 207.324 30.8047L208.484 30.5234L208.73 29.6797C208.777 29.5156 208.859 29.2109 208.977 28.7656C209.094 28.3203 209.164 27.957 209.188 27.6758L209.223 27.3945L209.188 27.043L209.082 26.5508C208.73 26.5508 208.461 26.5625 208.273 26.5859L206.867 26.7617L205.461 26.9023L204.969 26.9727C204.945 27.1133 204.898 27.2539 204.828 27.3945C204.758 27.5352 204.617 27.6172 204.406 27.6406C204.242 27.6406 204.066 27.4766 203.879 27.1484L203.773 26.6914C203.727 26.457 203.633 26.0234 203.492 25.3906L203.281 24.4414C203.188 24.1602 203.105 23.9375 203.035 23.7734C202.965 23.6094 202.848 23.4453 202.684 23.2812L202.613 22.543C202.918 22.543 203.258 22.6016 203.633 22.7188L204.195 22.8945C204.523 22.8711 204.887 22.8242 205.285 22.7539C205.684 22.707 206.047 22.6367 206.375 22.543C206.703 22.4727 207.207 22.3555 207.887 22.1914C208.566 22.0039 209.023 21.8633 209.258 21.7695L209.82 21.6289C210.008 21.6055 210.172 21.6289 210.312 21.6992C210.5 21.7461 210.723 21.8516 210.98 22.0156L211.438 22.332L211.508 23.0703C211.297 23.2812 211.133 23.4922 211.016 23.7031C210.922 23.9141 210.852 24.1133 210.805 24.3008L210.594 25.0742L210.383 25.707C210.523 25.8008 210.523 26.0469 210.383 26.4453L209.75 26.4102L210.488 26.8672C210.699 26.9844 210.863 27.1133 210.98 27.2539L211.016 27.8164C210.805 28.0508 210.617 28.2969 210.453 28.5547L210.207 28.9766L209.75 29.5742L209.258 30.3125L210.91 29.8906C211.379 29.7734 211.766 29.668 212.07 29.5742L212.914 29.3633L213.441 29.5039L213.617 29.6797C213.594 29.8203 213.477 29.9492 213.266 30.0664C213.078 30.1602 212.727 30.2891 212.211 30.4531L211.332 30.6992L210.172 31.0508L205.883 32.3164C205.742 32.3867 205.379 32.5273 204.793 32.7383C204.23 32.9258 203.82 33.0664 203.562 33.1602C203.305 33.2539 203.023 33.3828 202.719 33.5469L202.121 33.793C201.887 33.793 201.617 33.6758 201.312 33.4414C201.078 33.3008 200.82 33.1133 200.539 32.8789C200.258 32.6211 200.082 32.3984 200.012 32.2109L200.152 31.7188L200.785 31.7539C201.02 31.7773 201.289 31.7891 201.594 31.7891C201.805 31.7891 202.344 31.7305 203.211 31.6133L204.512 31.4023L205.32 31.2617ZM204.934 26.1289C205.496 26.0352 205.965 25.9531 206.34 25.8828C206.715 25.8125 207.043 25.7539 207.324 25.707C207.605 25.6367 207.969 25.5547 208.414 25.4609L209.117 25.2852C209.188 25.0273 209.234 24.8281 209.258 24.6875C209.305 24.5234 209.34 24.3008 209.363 24.0195C209.41 23.7383 209.445 23.5039 209.469 23.3164L209.188 22.8594C208.883 22.8359 208.531 22.8711 208.133 22.9648L206.867 23.2109L205.812 23.457L205.039 23.5273L204.547 23.668C204.594 23.9961 204.641 24.2539 204.688 24.4414L204.828 25.3906L204.934 26.1289ZM204.09 21.2773C203.926 21.2773 203.703 21.2539 203.422 21.207C203.164 21.1602 202.977 21.0781 202.859 20.9609L202.824 20.6094C203.152 20.4922 203.562 20.4102 204.055 20.3633C204.547 20.293 205.18 20.1758 205.953 20.0117C206.703 19.8711 207.359 19.7305 207.922 19.5898L208.977 19.3086C209.234 19.2383 209.445 19.2148 209.609 19.2383L210.172 19.3086C210.5 19.3555 210.746 19.4258 210.91 19.5195L211.121 19.8711L210.629 20.1172C210.301 20.2109 210.043 20.2812 209.855 20.3281C209.691 20.3516 209.164 20.4453 208.273 20.6094L206.48 20.9609C205.941 21.0781 205.426 21.1602 204.934 21.207L204.266 21.2773H204.09ZM216.641 15.4766C216.547 14.9375 216.465 14.3984 216.395 13.8594L216.148 11.8906C216.055 11.1172 215.973 10.2969 215.902 9.42969C215.832 8.5625 215.797 8.04687 215.797 7.88281C215.773 7.71875 215.738 7.44922 215.691 7.07422C215.621 6.67578 215.574 6.38281 215.551 6.19531C215.504 5.98438 215.434 5.72656 215.34 5.42188C215.223 5.09375 215.094 4.82422 214.953 4.61328L214.777 4.01562C214.895 3.82812 215.059 3.72266 215.27 3.69922C215.527 3.69922 215.855 3.78125 216.254 3.94531C216.746 4.13281 217.074 4.27344 217.238 4.36719C217.402 4.48438 217.578 4.625 217.766 4.78906C217.953 4.95312 218.059 5.21094 218.082 5.5625L217.906 6.08984C217.836 6.23047 217.766 6.44141 217.695 6.72266C217.602 7.00391 217.543 7.21484 217.52 7.35547C217.496 7.49609 217.484 7.77734 217.484 8.19922V9.81641C217.484 10.2383 217.52 10.918 217.59 11.8555C217.66 12.793 217.719 13.4492 217.766 13.8242L217.906 15.1602L219.031 14.8086L220.191 14.457L221.492 14C221.891 13.8828 222.184 13.7891 222.371 13.7188L222.758 13.6484C222.969 13.625 223.297 13.6016 223.742 13.5781C224.164 13.5781 224.469 13.6367 224.656 13.7539L224.973 14.0352C224.949 14.2461 224.844 14.4102 224.656 14.5273C224.469 14.668 224.199 14.7852 223.848 14.8789L222.477 15.3359C221.961 15.5 221.234 15.6992 220.297 15.9336L218.926 16.2852L218.188 16.4609C218.305 17.0703 218.434 17.6914 218.574 18.3242C218.715 18.9336 218.938 19.7422 219.242 20.75C219.547 21.7578 219.852 22.5781 220.156 23.2109L220.719 24.582L221.316 23.5273C221.527 23.1992 221.75 22.7539 221.984 22.1914C222.219 21.6758 222.406 21.207 222.547 20.7852C222.688 20.3633 222.793 19.9766 222.863 19.625C222.91 19.4141 222.922 19.1797 222.898 18.9219L222.969 17.7969C223.133 17.75 223.32 17.7617 223.531 17.832L224.164 18.1484C224.492 18.3125 224.738 18.4531 224.902 18.5703C225.066 18.6875 225.219 18.8516 225.359 19.0625L225.5 19.5195C225.477 19.6602 225.395 19.8008 225.254 19.9414C225.113 20.082 224.973 20.2461 224.832 20.4336L224.48 20.9961C224.387 21.1367 224.234 21.4297 224.023 21.875L223.215 23.3516L222.336 24.8984L221.598 26.0938L222.477 27.4648C222.758 27.9336 223.062 28.3555 223.391 28.7305C223.719 29.1289 224.059 29.5039 224.41 29.8555C224.762 30.2305 225.055 30.4648 225.289 30.5586L225.711 30.6992C225.852 30.6523 225.969 30.5469 226.062 30.3828C226.109 30.2188 226.203 29.9375 226.344 29.5391L226.555 28.9062L226.836 27.8867L226.977 27.2539L227.152 27.043C227.316 27.043 227.398 27.1367 227.398 27.3242V28.0977C227.398 28.9883 227.41 29.5742 227.434 29.8555C227.434 30.1367 227.469 30.5469 227.539 31.0859C227.609 31.625 227.715 32.1523 227.855 32.668C228.02 33.1836 228.113 33.5703 228.137 33.8281C228.137 34.0156 228.09 34.168 227.996 34.2852C227.879 34.4727 227.656 34.5781 227.328 34.6016C227.047 34.6016 226.695 34.4609 226.273 34.1797C225.477 33.6875 224.844 33.2305 224.375 32.8086C223.906 32.3867 223.355 31.7891 222.723 31.0156C222.09 30.2422 221.609 29.5742 221.281 29.0117L220.367 27.6055L219.383 28.5547C219.055 28.8594 218.668 29.1758 218.223 29.5039C217.777 29.832 217.285 30.1602 216.746 30.4883C216.207 30.793 215.785 31.0039 215.48 31.1211L214.109 31.2617L215.023 30.5234C215.422 30.2422 215.75 29.9961 216.008 29.7852C216.242 29.5977 216.734 29.1289 217.484 28.3789C218.258 27.6523 218.727 27.1836 218.891 26.9727L219.664 26.0938C219.312 25.3203 219.008 24.6055 218.75 23.9492C218.469 23.2695 218.199 22.4258 217.941 21.418C217.66 20.4102 217.426 19.4258 217.238 18.4648L216.922 16.7773C216.641 16.8242 216.312 16.8945 215.938 16.9883C215.562 17.0352 215.293 17.082 215.129 17.1289H214.004C213.699 17.1289 213.453 17.0703 213.266 16.9531L213.055 16.5312L213.547 16.3555C213.852 16.3086 214.18 16.2383 214.531 16.1445L215.727 15.7578L216.641 15.4766ZM221.562 9.46484L221 8.90234L220.859 8.44531C221 8.42188 221.141 8.42188 221.281 8.44531L222.09 8.62109C222.395 8.69141 222.828 8.83203 223.391 9.04297C223.953 9.27734 224.352 9.46484 224.586 9.60547C224.82 9.74609 224.973 9.91016 225.043 10.0977C225.113 10.2383 225.148 10.4492 225.148 10.7305C225.148 11.0117 225.102 11.2461 225.008 11.4336C224.961 11.6211 224.867 11.7617 224.727 11.8555L224.41 11.9961C224.152 11.9961 223.906 11.8789 223.672 11.6445C223.484 11.5039 223.273 11.3164 223.039 11.082C222.805 10.8477 222.547 10.5664 222.266 10.2383C221.938 9.91016 221.703 9.65234 221.562 9.46484Z" fill="#333333"/>
</svg>
