<svg width="350" height="88" viewBox="0 0 350 88" fill="none" xmlns="http://www.w3.org/2000/svg">
<path d="M158.934 7.49609C158.77 7.49609 158.852 7.35547 159.18 7.07422C159.508 6.79297 159.906 6.45313 160.375 6.05469C160.844 5.63281 161.371 5.08203 161.957 4.40234C162.332 3.95703 162.613 3.48828 162.801 2.99609C162.918 2.71484 163.047 2.57422 163.188 2.57422C163.305 2.57422 163.48 2.66797 163.715 2.85547C164.184 3.23047 164.418 3.54687 164.418 3.80469C164.418 3.96875 164.324 4.08594 164.137 4.15625C164.043 4.17969 163.902 4.28516 163.715 4.47266C163.527 4.63672 163.387 4.76563 163.293 4.85938C162.285 5.84375 161.348 6.55859 160.48 7.00391C159.777 7.33203 159.309 7.49609 159.074 7.49609H158.934ZM162.625 14.0352C162.555 14.0352 162.438 13.9414 162.273 13.7539C162.133 13.543 162.027 13.3438 161.957 13.1562C161.934 13.0156 161.934 12.8398 161.957 12.6289C162.004 12.3945 162.027 12.2188 162.027 12.1016C162.074 11.6328 162.098 11.2578 162.098 10.9766C162.121 10.7187 162.121 10.4375 162.098 10.1328C162.098 9.82813 162.098 9.62891 162.098 9.53516L162.062 9.00781C161.5 9.40625 161.066 9.6875 160.762 9.85156C160.082 10.2266 159.59 10.4609 159.285 10.5547C158.91 10.6953 158.57 10.7656 158.266 10.7656C158.102 10.7656 158.008 10.7422 157.984 10.6953C157.938 10.6016 158.406 10.2617 159.391 9.67578C160.328 9.08984 161.348 8.31641 162.449 7.35547C163.059 6.79297 163.527 6.25391 163.855 5.73828C163.902 5.66797 163.938 5.58594 163.961 5.49219C164.008 5.375 164.055 5.30469 164.102 5.28125C164.172 5.25781 164.266 5.26953 164.383 5.31641C164.688 5.48047 164.945 5.71484 165.156 6.01953C165.25 6.13672 165.297 6.25391 165.297 6.37109C165.297 6.48828 165.238 6.60547 165.121 6.72266C165.004 6.81641 164.887 6.88672 164.77 6.93359C164.371 7.19141 164.008 7.47266 163.68 7.77734C163.352 8.08203 163.141 8.28125 163.047 8.375C163.398 8.65625 163.574 8.85547 163.574 8.97266L163.469 9.71094C163.422 9.92188 163.398 10.4492 163.398 11.293C163.398 12.1133 163.422 12.6641 163.469 12.9453V13.0156C163.469 13.1328 163.434 13.2617 163.363 13.4023C163.316 13.5195 163.281 13.6016 163.258 13.6484C163.094 13.9063 162.883 14.0352 162.625 14.0352ZM166.211 22.9648C165.859 22.9648 165.52 22.707 165.191 22.1914C164.77 21.5352 164.359 20.9961 163.961 20.5742L163.047 19.625C162.555 20.1875 162.121 20.6328 161.746 20.9609C161.395 21.2891 160.949 21.6055 160.41 21.9102C159.402 22.4961 158.559 22.7891 157.879 22.7891C157.715 22.7891 157.633 22.7305 157.633 22.6133C157.633 22.543 157.855 22.3906 158.301 22.1562C158.746 21.9219 159.168 21.6406 159.566 21.3125C160.574 20.4688 161.406 19.6016 162.062 18.7109C161.922 18.5703 161.219 17.9609 159.953 16.8828C159.789 16.7656 159.543 16.5664 159.215 16.2852C159.145 16.2383 159.004 16.1328 158.793 15.9688C158.582 15.8047 158.477 15.6875 158.477 15.6172C158.477 15.5 158.535 15.4414 158.652 15.4414C159.004 15.4414 159.566 15.6875 160.34 16.1797C161.113 16.6484 161.922 17.2109 162.766 17.8672C163.094 17.4688 163.352 17.0938 163.539 16.7422C163.727 16.3906 163.938 15.957 164.172 15.4414C164.289 15.1836 164.359 14.9609 164.383 14.7734C164.406 14.5625 164.418 14.4336 164.418 14.3867C164.418 14.1289 164.488 14 164.629 14C164.793 14 165.016 14.1289 165.297 14.3867C165.789 14.8555 166.035 15.1719 166.035 15.3359C166.035 15.4297 165.977 15.5352 165.859 15.6523C165.578 15.9336 165.32 16.3086 165.086 16.7773C164.945 17.0586 164.688 17.457 164.312 17.9727C164.195 18.1133 164.102 18.2422 164.031 18.3594C163.961 18.4766 163.891 18.582 163.82 18.6758C164.359 19.0742 165.156 19.7539 166.211 20.7148C166.469 20.9492 166.633 21.1719 166.703 21.3828C166.797 21.5703 166.844 21.8281 166.844 22.1562C166.844 22.3906 166.785 22.5898 166.668 22.7539C166.551 22.8945 166.398 22.9648 166.211 22.9648ZM166.844 27.6055C167.102 27.8867 167.23 28.1211 167.23 28.3086C167.23 28.4727 167.137 28.625 166.949 28.7656C166.832 28.8594 166.539 29.375 166.07 30.3125C165.555 31.1562 164.98 31.8828 164.348 32.4922C163.738 33.125 163.129 33.582 162.52 33.8633C162.379 33.9102 162.262 33.9336 162.168 33.9336C162.074 33.9336 162.027 33.9102 162.027 33.8633V33.793C162.027 33.6523 162.145 33.4883 162.379 33.3008C162.801 32.9727 163.117 32.6328 163.328 32.2812C163.562 31.9531 163.738 31.707 163.855 31.543C164.348 30.8398 164.699 30.2656 164.91 29.8203C165.145 29.4219 165.309 29.0117 165.402 28.5898H165.262C164.652 28.5898 163.668 28.6602 162.309 28.8008C162.098 28.8242 161.488 28.9062 160.48 29.0469C160.27 29.0703 159.941 29.1289 159.496 29.2227L159.074 29.3281C158.98 29.375 158.887 29.3984 158.793 29.3984C158.676 29.3984 158.559 29.375 158.441 29.3281C158.324 29.2578 158.207 29.1758 158.09 29.082C157.809 28.8477 157.668 28.6484 157.668 28.4844C157.691 28.4375 157.715 28.3672 157.738 28.2734C157.785 28.1797 157.809 28.0977 157.809 28.0273L157.984 26.8672C158.008 26.75 158.031 26.6211 158.055 26.4805C158.078 26.3398 158.09 26.1992 158.09 26.0586C158.09 25.6133 158.078 25.2617 158.055 25.0039C158.055 24.7227 158.02 24.4297 157.949 24.125V24.0195C157.949 23.8555 158.02 23.7734 158.16 23.7734C158.301 23.7734 158.547 23.8789 158.898 24.0898C159.367 24.418 159.602 24.6758 159.602 24.8633C159.602 24.9336 159.59 24.9922 159.566 25.0391C159.543 25.0859 159.52 25.1328 159.496 25.1797C159.426 25.6016 159.391 25.8359 159.391 25.8828L159.215 27.7461C159.215 27.793 159.238 27.8516 159.285 27.9219C159.355 27.9688 159.426 27.9922 159.496 27.9922C160.059 27.9922 161.324 27.8516 163.293 27.5703C164.066 27.5 164.617 27.418 164.945 27.3242C165.156 27.3008 165.332 27.2656 165.473 27.2188C165.637 27.1484 165.742 27.1133 165.789 27.1133C165.93 27.0664 166.023 27.043 166.07 27.043C166.281 27.043 166.539 27.2305 166.844 27.6055ZM133.129 17.2344L130.738 17.9023L129.684 18.1836C128.957 18.3711 128.477 18.4766 128.242 18.5C127.961 18.5 127.703 18.4766 127.469 18.4297C127.164 18.3594 126.824 18.207 126.449 17.9727C126.051 17.7383 125.758 17.4102 125.57 16.9883C125.664 16.8477 125.84 16.7656 126.098 16.7422L126.977 16.707C127.703 16.6836 128.477 16.6484 129.297 16.6016C130.117 16.5312 130.855 16.4375 131.512 16.3203L133.762 15.9336C134.09 15.1836 134.289 14.7148 134.359 14.5273L134.816 13.1562C134.441 13.1797 134.148 13.2031 133.938 13.2266C133.727 13.25 133.375 13.2969 132.883 13.3672C132.391 13.4609 131.992 13.5078 131.688 13.5078C131.312 13.5078 131.02 13.4609 130.809 13.3672C130.527 13.25 130.316 13.1211 130.176 12.9805L130.035 12.6641C130.059 12.5 130.176 12.418 130.387 12.418L131.055 12.3477C131.219 12.3477 131.617 12.3125 132.25 12.2422C132.883 12.1719 133.48 12.1133 134.043 12.0664L135.238 11.9258C135.543 10.9883 135.719 10.4023 135.766 10.168L136.047 8.76172C135.18 8.83203 134.395 8.91406 133.691 9.00781C132.965 9.07812 132.496 9.11328 132.285 9.11328H131.758C131.289 9.11328 130.938 9.06641 130.703 8.97266C130.398 8.83203 130.176 8.66797 130.035 8.48047L129.895 8.12891L130.141 7.95312H130.879L131.863 7.84766L133.902 7.70703L136.293 7.35547L136.434 5.45703V5.10547C136.434 4.84766 136.41 4.53125 136.363 4.15625C136.316 3.80469 136.281 3.55859 136.258 3.41797L136.117 2.64453L136.469 2.39844C136.703 2.375 136.949 2.41016 137.207 2.50391C137.535 2.64453 137.863 2.79688 138.191 2.96094C138.52 3.125 138.801 3.32422 139.035 3.55859C139.27 3.79297 139.387 4.02734 139.387 4.26172L139.141 4.75391C138.977 5.01172 138.848 5.30469 138.754 5.63281L138.262 7.07422L141.145 6.65234L142.727 6.30078C143.008 6.25391 143.266 6.21875 143.5 6.19531C143.898 6.19531 144.32 6.28906 144.766 6.47656C145.164 6.61719 145.363 6.79297 145.363 7.00391C145.34 7.23828 145.246 7.37891 145.082 7.42578L144.379 7.63672C144.145 7.68359 143.746 7.75391 143.184 7.84766L140.934 8.19922C140.137 8.31641 139.469 8.39844 138.93 8.44531L137.98 8.55078C137.723 9.46484 137.57 10.0273 137.523 10.2383L137.137 11.6445L139.316 11.2578C139.785 11.1875 140.324 11.082 140.934 10.9414C141.543 10.7773 142.035 10.6836 142.41 10.6602C142.762 10.6602 143.043 10.6836 143.254 10.7305C143.582 10.7773 143.887 10.8711 144.168 11.0117L144.625 11.3984C144.625 11.5859 144.461 11.7266 144.133 11.8203C143.875 11.8906 143.523 11.9492 143.078 11.9961C142.633 12.043 142.059 12.1133 141.355 12.207L139.211 12.5586L136.855 12.9102C136.527 13.8008 136.328 14.3516 136.258 14.5625L135.871 15.6523C136.574 15.582 137.102 15.5234 137.453 15.4766L141.074 15.1602C141.73 15.1133 142.445 15.0195 143.219 14.8789C143.992 14.7617 144.613 14.6445 145.082 14.5273L146.137 14.2461C146.605 14.1523 146.969 14.1055 147.227 14.1055C147.531 14.1055 147.801 14.1523 148.035 14.2461C148.293 14.3398 148.668 14.4922 149.16 14.7031C149.652 14.9141 149.969 15.1367 150.109 15.3711L150.215 15.9336C150.121 16.1211 149.934 16.2266 149.652 16.25L148.879 16.2852L146.699 16.2148C146.348 16.2148 145.691 16.2383 144.73 16.2852L141.918 16.3555H140.652L141.777 17.1992L143.887 18.9922C145.012 19.9531 146.02 20.7617 146.91 21.418C147.801 22.0742 148.539 22.5547 149.125 22.8594C149.711 23.1641 150.566 23.5508 151.691 24.0195C152.816 24.4648 153.801 24.793 154.645 25.0039L155.594 25.7422L154.855 25.9531L152.605 26.4102C151.668 26.5977 150.941 26.6914 150.426 26.6914C149.816 26.6211 149.266 26.4219 148.773 26.0938C148.281 25.7656 147.824 25.3789 147.402 24.9336L144.66 21.9805C143.301 20.4805 142.246 19.3672 141.496 18.6406C140.793 17.9141 140.254 17.4336 139.879 17.1992L138.93 16.4961C137.875 16.6133 137.23 16.6836 136.996 16.707L135.273 16.918C134.57 18.2773 133.996 19.2852 133.551 19.9414C133.105 20.5977 132.496 21.3242 131.723 22.1211C130.973 22.9648 130.188 23.7031 129.367 24.3359C128.547 24.9688 127.785 25.4844 127.082 25.8828C126.332 26.2812 125.594 26.6211 124.867 26.9023C124.141 27.1602 123.66 27.3242 123.426 27.3945L122.406 27.2188L123.285 26.6562L124.27 26.0938C124.879 25.7656 125.547 25.3438 126.273 24.8281C127 24.3359 127.715 23.7734 128.418 23.1406C129.121 22.5078 129.883 21.7227 130.703 20.7852C131.547 19.8477 132.098 19.1445 132.355 18.6758L133.129 17.2344ZM139.984 32.3867L137.734 32.5977C136.703 32.6914 136.105 32.7383 135.941 32.7383L134.254 32.7734L134.113 33.3359C133.973 33.7578 133.809 33.9688 133.621 33.9688C133.434 33.9453 133.246 33.793 133.059 33.5117C132.848 33.207 132.719 32.8438 132.672 32.4219C132.672 32.1172 132.695 31.8008 132.742 31.4727C132.789 31.0273 132.812 30.5117 132.812 29.9258L132.637 24.8633C132.59 24.207 132.52 23.7266 132.426 23.4219C132.355 23.1172 132.273 22.8828 132.18 22.7188L132.074 22.4023C132.121 22.2617 132.344 22.168 132.742 22.1211L133.727 22.332L134.852 22.1914C135.25 22.1445 135.73 22.0625 136.293 21.9453L138.191 21.5586C138.848 21.418 139.316 21.3008 139.598 21.207C139.879 21.1367 140.16 21.043 140.441 20.9258L141.109 20.7148C141.367 20.6914 141.59 20.7148 141.777 20.7852C142.035 20.8789 142.316 21.0312 142.621 21.2422C142.949 21.4531 143.23 21.6641 143.465 21.875L143.852 22.3672C143.852 22.5312 143.816 22.6836 143.746 22.8242C143.676 23.0117 143.617 23.2109 143.57 23.4219C143.5 23.6328 143.465 23.832 143.465 24.0195C143.418 24.207 143.383 24.582 143.359 25.1445V25.7422C143.359 26.1406 143.371 26.5742 143.395 27.043C143.418 27.6055 143.465 28.1914 143.535 28.8008L143.816 30.5938C143.91 31.2031 143.957 31.6602 143.957 31.9648C143.91 32.5742 143.734 33.1836 143.43 33.793C143.102 34.4023 142.785 34.7773 142.48 34.918L141.953 35.0586C141.695 35.0352 141.449 34.8008 141.215 34.3555C141.004 33.9336 140.77 33.5234 140.512 33.125L139.984 32.3867ZM134.324 31.5781C135.355 31.4609 136.141 31.3672 136.68 31.2969L138.508 31.0508C139.188 30.9336 139.645 30.875 139.879 30.875C140.254 30.8984 140.535 30.957 140.723 31.0508L141.461 31.4727L141.637 27.0078C141.121 27.125 140.734 27.1953 140.477 27.2188L138.051 27.6758C136.973 27.8633 136.211 27.9805 135.766 28.0273L135.344 28.0625H134.992L134.254 27.8867L134.324 31.5781ZM134.254 26.9023C134.488 26.9023 134.699 26.8906 134.887 26.8672C135.074 26.8438 135.566 26.7617 136.363 26.6211C137.207 26.457 137.887 26.3047 138.402 26.1641C138.965 26 139.387 25.918 139.668 25.918C139.926 25.918 140.16 25.9297 140.371 25.9531C140.676 26 141.039 26.1055 141.461 26.2695L141.637 23.3164C141.613 22.9414 141.555 22.6953 141.461 22.5781C141.344 22.4609 141.121 22.3906 140.793 22.3672C140.488 22.3672 140.16 22.3789 139.809 22.4023L138.262 22.4727C137.887 22.5195 137.348 22.6367 136.645 22.8242C135.941 22.9883 135.449 23.1172 135.168 23.2109L134.535 23.3516L134.395 23.7031C134.418 23.8438 134.418 24.043 134.395 24.3008C134.348 24.5352 134.324 24.7344 134.324 24.8984L134.254 26.9023ZM219.121 13.6836C218.957 13.6836 218.781 13.5781 218.594 13.3672C218.453 13.2031 218.359 13.0742 218.312 12.9805C218.266 12.8633 218.266 12.7109 218.312 12.5234L218.348 11.6797C218.371 11.5156 218.383 11.1172 218.383 10.4844V9.32422L217.328 9.81641L216.098 10.3438C215.793 10.4609 215.477 10.6016 215.148 10.7656C214.867 10.9062 214.621 10.9766 214.41 10.9766C214.246 10.9531 214.059 10.8945 213.848 10.8008C213.637 10.707 213.473 10.625 213.355 10.5547C213.098 10.3906 212.98 10.2148 213.004 10.0273L213.109 9.67578C213.109 9.48828 213.121 9.32422 213.145 9.18359L213.18 7.14453V5.24609C213.18 4.87109 213.156 4.55469 213.109 4.29688C213.062 4.01562 213.027 3.81641 213.004 3.69922C213.004 3.58203 213.039 3.5 213.109 3.45312C213.133 3.42969 213.191 3.41797 213.285 3.41797C213.449 3.41797 213.766 3.52344 214.234 3.73438C214.633 3.92188 214.797 4.15625 214.727 4.4375C214.68 4.60156 214.633 4.84766 214.586 5.17578L214.48 9.21875C214.48 9.33594 214.492 9.42969 214.516 9.5C214.562 9.54688 214.609 9.57031 214.656 9.57031C214.938 9.57031 215.277 9.48828 215.676 9.32422C216.426 9.08984 217.07 8.85547 217.609 8.62109L218.383 8.30469V5.98438C218.383 5.04688 218.324 4.14453 218.207 3.27734C218.184 3.20703 218.172 3.125 218.172 3.03125C218.172 2.79688 218.266 2.67969 218.453 2.67969C218.477 2.67969 218.605 2.72656 218.84 2.82031C219.191 3.00781 219.449 3.17188 219.613 3.3125C219.777 3.45312 219.871 3.53516 219.895 3.55859C219.988 3.62891 220.035 3.69922 220.035 3.76953C220.035 3.81641 220.012 3.875 219.965 3.94531C219.941 4.01562 219.918 4.07422 219.895 4.12109L219.789 5.17578L219.754 8.41016L219.789 11.5391C219.789 12.0781 219.754 12.5469 219.684 12.9453C219.566 13.4375 219.379 13.6836 219.121 13.6836ZM212.652 19.4492C212.395 19.4492 212.078 19.25 211.703 18.8516C211.422 18.5703 211.281 18.3594 211.281 18.2188C211.281 18.1484 211.328 18.1133 211.422 18.1133C211.516 18.0898 211.633 18.0781 211.773 18.0781L212.547 18.043C212.992 18.043 213.285 18.0312 213.426 18.0078C213.871 18.0078 214.246 17.9961 214.551 17.9727C216.566 17.7852 217.926 17.6328 218.629 17.5156C218.98 17.4688 219.297 17.4219 219.578 17.375C219.859 17.3047 220.082 17.2695 220.246 17.2695C220.574 17.2695 220.902 17.4336 221.23 17.7617C221.488 18.0195 221.617 18.2305 221.617 18.3945C221.617 18.5352 221.535 18.6289 221.371 18.6758C221.254 18.6992 220.562 18.7461 219.297 18.8164C218.594 18.8398 217.727 18.8984 216.695 18.9922C215.664 19.0859 214.762 19.1797 213.988 19.2734C213.848 19.2969 213.648 19.332 213.391 19.3789C213.133 19.4258 212.887 19.4492 212.652 19.4492ZM217.363 33.9688C216.637 33.9688 216.074 33.9453 215.676 33.8984C215.301 33.8516 214.984 33.7109 214.727 33.4766C214.281 33.1484 213.977 32.4336 213.812 31.332L213.707 30.207C213.707 29.9258 213.684 29.5742 213.637 29.1523C213.262 29.1992 212.992 29.2461 212.828 29.293C212.781 29.3164 212.699 29.3516 212.582 29.3984C212.488 29.4219 212.418 29.4336 212.371 29.4336C212.207 29.4336 212.055 29.3867 211.914 29.293C211.773 29.1992 211.598 29.0234 211.387 28.7656C211.223 28.5547 211.141 28.4141 211.141 28.3438C211.141 28.2734 211.223 28.2266 211.387 28.2031C211.551 28.1797 211.773 28.168 212.055 28.168C212.453 28.168 212.969 28.1211 213.602 28.0273L213.566 27.5352C213.566 26.5977 213.508 25.8008 213.391 25.1445L213.355 24.8984C213.355 24.5703 213.484 24.4414 213.742 24.5117C214.023 24.6055 214.281 24.7227 214.516 24.8633C214.703 24.957 214.832 25.0508 214.902 25.1445C214.973 25.2148 214.996 25.3203 214.973 25.4609L214.867 26.9727V27.8867L217.961 27.5703C217.961 27.4062 217.973 27.0195 217.996 26.4102C218.02 25.7773 218.02 25.3672 217.996 25.1797C217.996 24.9922 217.973 24.8164 217.926 24.6523C217.902 24.4648 217.879 24.3125 217.855 24.1953C217.855 24.0078 217.949 23.9141 218.137 23.9141C218.324 23.9141 218.559 24.0195 218.84 24.2305C219.168 24.4414 219.379 24.6289 219.473 24.793C219.59 24.957 219.613 25.1562 219.543 25.3906C219.426 25.7656 219.344 26.1875 219.297 26.6562C219.25 27.125 219.227 27.4062 219.227 27.5C219.508 27.4766 219.766 27.4414 220 27.3945C220.234 27.3477 220.387 27.3242 220.457 27.3242C220.645 27.2773 220.867 27.2539 221.125 27.2539C221.266 27.2773 221.465 27.418 221.723 27.6758C221.934 27.957 222.039 28.1797 222.039 28.3438C222.039 28.5781 221.816 28.6719 221.371 28.625C220.973 28.5547 220.574 28.5195 220.176 28.5195C219.777 28.5195 219.438 28.5312 219.156 28.5547C219.086 29.3984 218.945 30.2305 218.734 31.0508C218.688 31.2383 218.605 31.4023 218.488 31.543C218.371 31.6602 218.266 31.7188 218.172 31.7188C218.008 31.7188 217.902 31.6602 217.855 31.543C217.832 31.4023 217.82 31.1914 217.82 30.9102C217.867 30.3008 217.891 29.5391 217.891 28.625C217.258 28.6719 216.766 28.7188 216.414 28.7656C215.875 28.8828 215.371 28.9531 214.902 28.9766C214.879 29.9375 214.926 30.793 215.043 31.543C215.113 32.0352 215.254 32.375 215.465 32.5625C215.605 32.6797 215.77 32.75 215.957 32.7734C216.168 32.7969 216.379 32.8086 216.59 32.8086C216.801 32.8086 216.941 32.8086 217.012 32.8086C217.738 32.8086 218.418 32.7734 219.051 32.7031C219.238 32.6797 219.402 32.6328 219.543 32.5625C219.707 32.4922 219.824 32.457 219.895 32.457C220.105 32.457 220.316 32.5273 220.527 32.668C220.738 32.8086 220.844 32.9727 220.844 33.1602C220.844 33.3477 220.738 33.4883 220.527 33.582C220.34 33.6758 220.035 33.7578 219.613 33.8281C218.863 33.9219 218.113 33.9688 217.363 33.9688ZM227.383 17.9727C227.664 17.9727 227.805 18.1016 227.805 18.3594C227.805 18.5 227.676 18.6992 227.418 18.957C226.715 19.8242 225.32 21.4766 223.234 23.9141C223.07 24.125 222.918 24.2305 222.777 24.2305C222.66 24.2305 222.402 24.0547 222.004 23.7031C221.676 23.4219 221.512 23.1875 221.512 23C221.512 22.7891 221.688 22.5898 222.039 22.4023C222.578 22.0977 223.387 21.4883 224.465 20.5742C225.543 19.6133 226.34 18.8516 226.855 18.2891C227.066 18.0781 227.242 17.9727 227.383 17.9727ZM188.992 26.3398C188.875 26.1523 188.781 25.9883 188.711 25.8477C188.617 25.707 188.523 25.5195 188.43 25.2852V24.4414L189.379 24.6523L190.328 25.0742C190.75 25.2617 191.125 25.4492 191.453 25.6367C191.781 25.8477 192.051 26.1641 192.262 26.5859C192.426 26.9375 192.508 27.3477 192.508 27.8164C192.484 28.2852 192.367 28.6484 192.156 28.9062C191.969 29.1641 191.723 29.293 191.418 29.293C191.113 29.293 190.797 29.1055 190.469 28.7305C190.281 28.543 190.105 28.2734 189.941 27.9219L189.414 27.043L185.617 29.7852L184.352 30.8398L183.508 31.6836L183.086 31.9648C182.852 31.9648 182.617 31.8125 182.383 31.5078C182.172 31.25 181.984 30.9336 181.82 30.5586C181.68 30.2539 181.609 29.9609 181.609 29.6797L181.82 29.0117C181.961 28.6367 182.066 28.25 182.137 27.8516C182.207 27.4297 182.266 26.9492 182.312 26.4102C182.359 25.8945 182.406 25.1445 182.453 24.1602L182.629 18.043C182.629 17.7148 182.617 17.375 182.594 17.0234C182.547 16.6719 182.488 16.3789 182.418 16.1445C182.348 15.9102 182.242 15.6992 182.102 15.5117L181.82 15.2305L181.75 14.8789C181.844 14.7383 182.008 14.668 182.242 14.668C182.805 14.668 183.25 14.7617 183.578 14.9492L184.105 15.2305C184.691 15.1602 185.172 15.0898 185.547 15.0195C185.945 14.9727 186.438 14.8789 187.023 14.7383C187.586 14.5977 188.02 14.4805 188.324 14.3867C188.629 14.293 188.945 14.1758 189.273 14.0352C189.602 13.8945 189.859 13.8242 190.047 13.8242C190.234 13.8477 190.457 13.918 190.715 14.0352L191.453 14.4219L191.91 14.7383C192.332 14.9961 192.602 15.207 192.719 15.3711L192.754 16.0039L192.402 16.5312C192.332 16.6719 192.227 16.9062 192.086 17.2344L191.91 17.7617L191.031 21.0312L190.68 22.4023C190.492 22.8711 190.305 23.1641 190.117 23.2812L189.73 23.4219H189.484L189.027 22.9648C188.395 23.0352 187.914 23.082 187.586 23.1055L185.16 23.457L184.281 23.5273L184.07 27.3945L184.211 28.168C184.398 28.168 184.609 28.1211 184.844 28.0273L188.992 26.3398ZM184.281 22.3672C184.703 22.3438 185.031 22.3203 185.266 22.2969C185.5 22.2734 185.852 22.2031 186.32 22.0859C186.836 21.9688 187.281 21.875 187.656 21.8047C187.938 21.7578 188.195 21.7344 188.43 21.7344L189.098 21.8047L189.695 19.0977C189.109 19.1445 188.676 19.1914 188.395 19.2383L186.707 19.5195C186.215 19.6133 185.816 19.6602 185.512 19.6602L184.949 19.5898L184.422 19.4141L184.281 22.3672ZM184.457 18.6758C184.902 18.6523 185.254 18.6172 185.512 18.5703C185.77 18.5234 186.203 18.418 186.812 18.2539C187.375 18.0898 187.797 17.9961 188.078 17.9727C188.477 17.9727 188.863 18.043 189.238 18.1836L189.801 18.3945L189.977 17.3047C190.023 17 190.047 16.6602 190.047 16.2852C190.047 15.9102 189.988 15.6641 189.871 15.5469C189.754 15.4297 189.59 15.3711 189.379 15.3711C189.145 15.3945 188.852 15.4531 188.5 15.5469C188.172 15.6172 187.633 15.7227 186.883 15.8633C186.109 16.0039 185.617 16.0742 185.406 16.0742L184.668 16.1094L184.457 18.6758ZM197.148 17.1992C197.055 17.5742 196.996 17.8555 196.973 18.043C196.949 18.2305 196.914 18.5352 196.867 18.957C196.82 19.3789 196.797 19.7305 196.797 20.0117L196.691 27.1133C196.668 28.0977 196.586 29.2461 196.445 30.5586L196.305 32.0703C196.211 32.9844 196.047 33.7695 195.812 34.4258C195.578 35.0586 195.367 35.375 195.18 35.375C195.016 35.3516 194.875 35.0117 194.758 34.3555C194.641 33.7227 194.57 32.9844 194.547 32.1406C194.523 31.5781 194.512 31.0156 194.512 30.4531V29.5742L194.652 20.3633C194.676 19.7539 194.688 19.2617 194.688 18.8867C194.688 18.5117 194.676 18.2539 194.652 18.1133C194.629 17.8086 194.594 17.457 194.547 17.0586C194.5 16.6602 194.418 16.332 194.301 16.0742L194.16 15.3711L194.336 15.1602C194.547 15.1602 194.805 15.207 195.109 15.3008C195.719 15.4883 196.117 15.6406 196.305 15.7578L196.867 16.1094L198.59 15.7227C199.176 15.582 199.773 15.418 200.383 15.2305L201.156 15.0195C201.531 14.9023 201.859 14.7734 202.141 14.6328L202.633 14.457C202.797 14.457 202.996 14.5273 203.23 14.668C203.465 14.8086 203.711 14.9727 203.969 15.1602C204.25 15.3477 204.52 15.5586 204.777 15.793C204.988 15.9805 205.059 16.2617 204.988 16.6367C204.801 16.8945 204.672 17.1289 204.602 17.3398C204.555 17.5508 204.508 17.832 204.461 18.1836C204.414 18.5586 204.391 18.9453 204.391 19.3438L204.18 23.1055C204.133 24.043 204.062 24.7695 203.969 25.2852C203.898 25.8008 203.746 26.2578 203.512 26.6562C203.254 27.0547 202.961 27.3711 202.633 27.6055L202 27.8867C201.812 27.8398 201.625 27.6992 201.438 27.4648C201.227 27.207 200.934 26.8789 200.559 26.4805C200.207 26.0586 199.867 25.6836 199.539 25.3555L198.906 24.793L198.695 24.3008C198.836 24.2773 199 24.3008 199.188 24.3711L199.996 24.6172C200.465 24.7812 200.828 24.875 201.086 24.8984C201.297 24.8984 201.473 24.8633 201.613 24.793C201.824 24.6523 201.953 24.3477 202 23.8789C202.07 23.3633 202.117 22.8711 202.141 22.4023L202.281 17.832C202.281 17.293 202.258 16.9414 202.211 16.7773L202.07 16.4961C201.93 16.3555 201.719 16.2852 201.438 16.2852C201.203 16.2852 200.805 16.332 200.242 16.4258L198.66 16.7422L197.148 17.1992ZM197.852 6.40625L202.281 5.52734C202.516 5.48047 202.773 5.41016 203.055 5.31641L203.688 5.17578C203.992 5.15234 204.25 5.16406 204.461 5.21094C204.742 5.28125 205.035 5.41016 205.34 5.59766L205.832 5.94922C205.855 6.08984 205.773 6.25391 205.586 6.44141C205.398 6.58203 205.129 6.6875 204.777 6.75781L203.477 7.00391C203.102 7.05078 202.574 7.12109 201.895 7.21484C201.215 7.28516 200.605 7.35547 200.066 7.42578C199.527 7.51953 199.164 7.56641 198.977 7.56641C198.602 7.56641 198.238 7.51953 197.887 7.42578L197.289 7.32031L196.27 8.72656C195.871 9.24219 195.391 9.76953 194.828 10.3086C194.219 10.8711 193.82 11.2109 193.633 11.3281L193 11.7148L192.578 11.8555L192.332 11.6797L192.578 11.293L193.352 10.3086C193.68 9.91016 193.949 9.55859 194.16 9.25391C194.371 8.92578 194.617 8.51562 194.898 8.02344C195.203 7.53125 195.449 7.09766 195.637 6.72266C195.801 6.37109 195.953 6.01953 196.094 5.66797C196.234 5.29297 196.34 4.98828 196.41 4.75391C196.48 4.49609 196.562 4.23828 196.656 3.98047C196.703 3.69922 196.727 3.44141 196.727 3.20703L196.938 2.64453L197.184 2.53906C197.348 2.53906 197.535 2.58594 197.746 2.67969C198.027 2.79688 198.32 2.94922 198.625 3.13672C198.93 3.32422 199.164 3.52344 199.328 3.73438L199.539 4.15625L199.469 4.47266C199.352 4.58984 199.188 4.75391 198.977 4.96484C198.742 5.19922 198.531 5.43359 198.344 5.66797L197.852 6.40625ZM186.25 7.28516L187.234 7.10938C187.656 7.03906 188.324 6.86328 189.238 6.58203L189.766 6.40625L190.645 6.16016L191.172 6.26562C191.453 6.33594 191.664 6.39453 191.805 6.44141C191.945 6.51172 192.086 6.60547 192.227 6.72266L192.473 6.96875C192.496 7.13281 192.438 7.27344 192.297 7.39062C192.109 7.50781 191.805 7.61328 191.383 7.70703L190.539 7.91797C190.352 7.96484 189.883 8.03516 189.133 8.12891L187.938 8.30469C187.633 8.32812 187.387 8.33984 187.199 8.33984L186.742 8.30469L185.828 7.98828L184.773 9.21875C184.445 9.61719 184.07 10.0156 183.648 10.4141C183.227 10.8359 182.84 11.1758 182.488 11.4336C182.137 11.668 181.762 11.9023 181.363 12.1367L180.168 12.5234C180.145 12.3594 180.203 12.207 180.344 12.0664L180.941 11.5039C181.293 11.1758 181.609 10.8477 181.891 10.5195C182.172 10.2383 182.512 9.81641 182.91 9.25391C183.309 8.69141 183.672 8.12891 184 7.56641C184.328 7.05078 184.609 6.58203 184.844 6.16016C185.055 5.73828 185.23 5.33984 185.371 4.96484C185.512 4.58984 185.582 4.21484 185.582 3.83984L185.863 3.3125C186.168 3.3125 186.496 3.41797 186.848 3.62891C187.199 3.81641 187.434 3.96875 187.551 4.08594C187.691 4.20313 187.82 4.33203 187.938 4.47266L188.148 5.17578C188.102 5.31641 187.984 5.44531 187.797 5.5625L187.41 5.80859L186.742 6.72266L186.25 7.28516ZM186.391 10.0625C186.648 10.0156 186.883 10.0039 187.094 10.0273L187.867 10.2031C188.078 10.2734 188.312 10.3438 188.57 10.4141C188.828 10.4844 189.039 10.5898 189.203 10.7305C189.391 10.8711 189.52 11.0117 189.59 11.1523C189.66 11.293 189.695 11.5039 189.695 11.7852C189.695 12.1602 189.602 12.4414 189.414 12.6289C189.25 12.8164 189.039 12.9219 188.781 12.9453C188.57 12.9453 188.312 12.8164 188.008 12.5586C187.797 12.3945 187.516 12.1133 187.164 11.7148C186.812 11.3398 186.555 11.0469 186.391 10.8359C186.25 10.625 186.25 10.3672 186.391 10.0625ZM198.414 8.90234L199.293 9.04297C199.926 9.18359 200.465 9.35938 200.91 9.57031C201.332 9.78125 201.648 10.0273 201.859 10.3086C202.047 10.5898 202.141 10.9648 202.141 11.4336C202.117 11.9961 201.918 12.3594 201.543 12.5234C201.238 12.5234 200.945 12.4297 200.664 12.2422C200.289 12.0312 199.926 11.7266 199.574 11.3281L198.695 10.2383L198.027 8.9375C198.191 8.89062 198.32 8.87891 198.414 8.90234Z" fill="#333333"/>
<path d="M139.094 70.5625C138.094 70.5625 137.427 70.5 137.094 70.375C136.698 70.1875 136.438 69.7604 136.312 69.0938C136.25 68.7396 136.219 68.2917 136.219 67.75L136.094 65.7188V64.9375C136.073 64.9167 136.062 64.8646 136.062 64.7812L136.031 64.4375C136.01 64.2708 135.917 64.0729 135.75 63.8438C135.688 63.7188 135.656 63.625 135.656 63.5625C135.656 63.4167 135.833 63.375 136.188 63.4375C136.562 63.5 136.99 63.5312 137.469 63.5312C137.802 63.5312 138.427 63.5104 139.344 63.4688C139.656 63.4479 140.385 63.3542 141.531 63.1875L142.531 62.9688L142.781 62.9062C142.969 62.9062 143.198 63.0208 143.469 63.25C143.698 63.4375 143.812 63.6146 143.812 63.7812C143.812 63.9896 143.656 64.1146 143.344 64.1562C142.531 64.2188 141.906 64.25 141.469 64.25L140.344 64.3125C140.01 64.3542 139.781 64.375 139.656 64.375C138.281 64.4375 137.5 64.4688 137.312 64.4688C137.312 65.9271 137.323 66.8333 137.344 67.1875C137.385 67.7708 137.417 68.2292 137.438 68.5625C137.479 68.8958 137.531 69.1146 137.594 69.2188C137.635 69.3021 137.708 69.3646 137.812 69.4062C137.938 69.4271 138.052 69.4479 138.156 69.4688C138.281 69.4688 138.375 69.4688 138.438 69.4688C138.458 69.4688 138.51 69.4792 138.594 69.5C138.698 69.5 138.896 69.5 139.188 69.5C139.396 69.5 139.75 69.4792 140.25 69.4375C140.896 69.3958 141.521 69.3125 142.125 69.1875C142.271 69.1667 142.604 69.1562 143.125 69.1562C143.375 69.1562 143.615 69.2708 143.844 69.5C143.948 69.6042 144 69.75 144 69.9375C144 70.0833 143.958 70.1875 143.875 70.25C143.75 70.3125 143.552 70.3646 143.281 70.4062C143.031 70.4271 142.708 70.4479 142.312 70.4688C141.167 70.5312 140.094 70.5625 139.094 70.5625ZM143.562 81.2188C143.854 81.4062 144 81.5833 144 81.75C144 81.9792 143.823 82.125 143.469 82.1875C143.115 82.25 142.615 82.2917 141.969 82.3125C141.031 82.3333 140.427 82.3021 140.156 82.2188C139.698 82.0104 139.469 81.6667 139.469 81.1875L139.5 80.0312C139.542 79.6562 139.562 79.3229 139.562 79.0312C139.583 78.8438 139.594 78.4792 139.594 77.9375C139.281 78.6458 138.875 79.3333 138.375 80C138.021 80.4375 137.708 80.8021 137.438 81.0938C137.167 81.3646 136.844 81.625 136.469 81.875C136.094 82.125 135.75 82.25 135.438 82.25C135.25 82.25 135.156 82.1875 135.156 82.0625C135.156 82.0417 135.354 81.8854 135.75 81.5938C136.167 81.2812 136.583 80.8542 137 80.3125C137.625 79.4792 138.167 78.5 138.625 77.375C137.812 77.4792 137.271 77.5729 137 77.6562C136.896 77.6771 136.802 77.7083 136.719 77.75C136.635 77.7708 136.531 77.7708 136.406 77.75C136.302 77.7083 136.156 77.625 135.969 77.5C135.781 77.3542 135.635 77.2188 135.531 77.0938C135.448 76.9688 135.406 76.8854 135.406 76.8438C135.406 76.7396 135.562 76.6875 135.875 76.6875C136.646 76.6875 137.635 76.6042 138.844 76.4375C138.969 75.9583 139.031 75.1875 139.031 74.125V73.5312C139.031 73.2812 139.083 73.1458 139.188 73.125C139.208 73.1042 139.25 73.0938 139.312 73.0938C139.479 73.0938 139.708 73.2188 140 73.4688C140.229 73.6562 140.375 73.8021 140.438 73.9062C140.521 73.9896 140.531 74.1042 140.469 74.25C140.448 74.2917 140.406 74.375 140.344 74.5C140.281 74.625 140.24 74.75 140.219 74.875C140.198 74.9792 140.156 75.1875 140.094 75.5C140.031 75.7917 139.99 76.0521 139.969 76.2812C140.26 76.2604 140.625 76.2188 141.062 76.1562C141.5 76.0938 141.823 76.0312 142.031 75.9688L142.656 75.8125C142.865 75.7708 143.208 75.9479 143.688 76.3438C143.771 76.4062 143.812 76.4792 143.812 76.5625C143.812 76.6458 143.771 76.7188 143.688 76.7812C143.625 76.8229 143.542 76.8438 143.438 76.8438C143.062 76.8438 142.375 76.9062 141.375 77.0312L140.344 77.125C140.573 77.2917 140.719 77.4375 140.781 77.5625C140.844 77.6875 140.854 77.8125 140.812 77.9375L140.719 78.4375C140.677 78.8542 140.635 79.3125 140.594 79.8125C140.573 80.3125 140.573 80.6979 140.594 80.9688C140.594 81.0729 140.656 81.1667 140.781 81.25C140.927 81.3333 141.073 81.375 141.219 81.375C141.74 81.375 142.323 81.3229 142.969 81.2188L143.25 81.1562C143.375 81.1562 143.479 81.1771 143.562 81.2188ZM145.562 70.5938C145.667 70.5938 145.823 70.6667 146.031 70.8125C146.01 70.8542 146.052 70.9375 146.156 71.0625C146.26 71.1667 146.333 71.2396 146.375 71.2812C146.479 71.3854 146.583 71.5104 146.688 71.6562C146.812 71.8021 146.948 71.9583 147.094 72.125C147.469 72.5208 148.333 73.5521 149.688 75.2188C149.917 75.5521 150.031 75.75 150.031 75.8125C150.031 76.0208 149.906 76.125 149.656 76.125C149.51 76.125 149.354 76.0208 149.188 75.8125C148.792 75.3958 148.083 74.7396 147.062 73.8438C146.271 73.1146 145.552 72.5521 144.906 72.1562C144.594 72.0104 144.438 71.8438 144.438 71.6562C144.438 71.5104 144.594 71.3021 144.906 71.0312C145.198 70.7396 145.417 70.5938 145.562 70.5938ZM111.469 67.3438C111.198 67.3854 110.771 67.4792 110.188 67.625C109.583 67.7708 109.021 67.9271 108.5 68.0938L107.719 68.4062C107.49 68.4896 107.26 68.5312 107.031 68.5312C106.698 68.5312 106.385 68.4792 106.094 68.375C105.698 68.2292 105.385 68.0625 105.156 67.875L104.844 67.5C104.885 67.3542 105 67.2604 105.188 67.2188L105.969 67.1562C106.469 67.0938 106.906 67.0312 107.281 66.9688L110.594 66.3438L113.531 65.75C113.406 65.5833 113.25 65.3854 113.062 65.1562C112.875 64.9062 112.719 64.6562 112.594 64.4062C112.469 64.1562 112.271 63.7083 112 63.0625C111.75 62.4583 111.625 62.0625 111.625 61.875L111.812 61.5C111.979 61.4792 112.135 61.4896 112.281 61.5312C112.76 61.6771 113.156 61.8438 113.469 62.0312C113.802 62.1979 114.135 62.4479 114.469 62.7812C114.823 63.1146 115.031 63.4688 115.094 63.8438L115.125 64.125C115.125 64.4375 115.062 64.6979 114.938 64.9062L114.656 65.4375C115.448 65.2917 116.031 65.1875 116.406 65.125C116.781 65.0625 117.073 65.0312 117.281 65.0312C117.49 65.0312 117.698 65.0729 117.906 65.1562C118.115 65.2188 118.323 65.3229 118.531 65.4688L118.781 65.875C118.74 66.0625 118.635 66.1667 118.469 66.1875L117.75 66.2812C116.833 66.3646 116.24 66.4271 115.969 66.4688C115.698 66.5104 115.177 66.6042 114.406 66.75L113.094 67L112.281 67.1562C112.531 67.2812 112.75 67.4062 112.938 67.5312C113.125 67.6562 113.365 67.8542 113.656 68.125L114.094 68.625C114.094 68.8125 113.99 69.0521 113.781 69.3438L113.469 69.75C113.385 69.9167 113.219 70.3229 112.969 70.9688L112.812 71.4062C112.958 71.4688 113.115 71.5208 113.281 71.5625C113.427 71.625 113.75 71.6979 114.25 71.7812C114.729 71.8646 115.042 71.9062 115.188 71.9062C115.333 71.9271 115.531 71.9375 115.781 71.9375L116.188 71.9062C116.417 71.9479 116.625 72.0312 116.812 72.1562C117 72.3021 117.229 72.5417 117.5 72.875C117.771 73.2292 117.865 73.5521 117.781 73.8438L117.469 74.3125C117.385 74.4375 117.281 74.6667 117.156 75C117.031 75.3542 116.917 75.7083 116.812 76.0625C116.688 76.4375 116.458 77.2292 116.125 78.4375C115.771 79.6667 115.438 80.5417 115.125 81.0625C114.812 81.5833 114.469 82.0312 114.094 82.4062C113.74 82.7812 113.354 83.0521 112.938 83.2188C112.667 83.3229 112.406 83.375 112.156 83.375C112.031 83.3125 111.844 83.0104 111.594 82.4688C111.344 81.9271 111.177 81.5521 111.094 81.3438C111.01 81.1771 110.854 80.9062 110.625 80.5312L110.406 79.6562L110.844 79.9062L111.625 80.4375C111.958 80.6667 112.26 80.7812 112.531 80.7812C112.885 80.7396 113.198 80.4792 113.469 80C113.76 79.5208 114.094 78.7396 114.469 77.6562C114.865 76.5729 115.094 75.9062 115.156 75.6562C115.198 75.4062 115.25 75.1146 115.312 74.7812C115.375 74.4479 115.417 74.1458 115.438 73.875L115.406 73.5312C115.323 73.2812 115.167 73.1146 114.938 73.0312C114.708 72.9479 114.427 72.8646 114.094 72.7812C113.76 72.6979 113.458 72.6146 113.188 72.5312L112.438 72.2812C112.104 73.0521 111.781 73.7604 111.469 74.4062C111.177 75.0729 110.76 75.8333 110.219 76.6875C109.677 77.5625 109.031 78.3854 108.281 79.1562C107.531 79.9062 106.896 80.4688 106.375 80.8438C105.833 81.2188 105.396 81.4688 105.062 81.5938L104.25 81.625L104.781 81.0938C105.031 80.8646 105.396 80.5 105.875 80C106.354 79.4792 106.885 78.8438 107.469 78.0938C108.052 77.3438 108.604 76.4688 109.125 75.4688C109.646 74.4896 110.062 73.5938 110.375 72.7812C110.688 71.9896 110.948 71.1979 111.156 70.4062C111.365 69.6146 111.479 68.9896 111.5 68.5312C111.5 68.3438 111.49 68.1458 111.469 67.9375V67.3438ZM122.656 75.5312C122.823 74.9688 122.948 74.5 123.031 74.125C123.115 73.7708 123.219 73.25 123.344 72.5625C123.427 71.875 123.49 71.3229 123.531 70.9062C123.552 70.6979 123.562 70.5104 123.562 70.3438L123.531 70.0312C123.51 69.7604 123.469 69.5208 123.406 69.3125L123.25 68.8438C122.729 68.8438 122.292 68.8958 121.938 69C121.583 69.1042 121.281 69.1562 121.031 69.1562C120.781 69.1562 120.594 69.125 120.469 69.0625L119.969 68.875C119.469 69.4792 119.042 69.9688 118.688 70.3438C118.333 70.7396 117.979 71.0938 117.625 71.4062L116.812 71.5625L117.094 71.0938L118.094 69.625C118.594 68.8542 118.979 68.1979 119.25 67.6562C119.521 67.1146 119.865 66.3854 120.281 65.4688C120.698 64.5312 120.99 63.8333 121.156 63.375C121.323 62.9167 121.5 62.3646 121.688 61.7188C121.854 61.0938 121.969 60.5938 122.031 60.2188C122.094 59.9896 122.104 59.6562 122.062 59.2188L122.312 58.6875C122.458 58.6667 122.615 58.6875 122.781 58.75C122.969 58.8333 123.208 58.9792 123.5 59.1875C123.792 59.3958 124.052 59.625 124.281 59.875C124.51 60.125 124.625 60.3438 124.625 60.5312C124.604 60.6979 124.49 60.8854 124.281 61.0938L123.938 61.4688C123.875 61.5938 123.792 61.7812 123.688 62.0312C123.583 62.2396 123.365 62.7292 123.031 63.5C122.656 64.2708 122.417 64.7812 122.312 65.0312L121.406 66.625L120.5 68.1875L122.188 67.7812C122.625 67.6562 123.438 67.4062 124.625 67.0312C125.792 66.6562 126.562 66.4167 126.938 66.3125C127.312 66.2083 127.635 66.1562 127.906 66.1562C128.115 66.1562 128.396 66.1979 128.75 66.2812C129.104 66.3646 129.438 66.4896 129.75 66.6562C130.042 66.8021 130.156 67.0104 130.094 67.2812C130.01 67.4062 129.823 67.4688 129.531 67.4688C129.219 67.4896 128.677 67.5625 127.906 67.6875C127.115 67.8125 126.49 67.9167 126.031 68C125.573 68.0625 125.125 68.1562 124.688 68.2812L124.094 68.4375C124.385 68.5 124.594 68.5521 124.719 68.5938C124.844 68.6354 125.01 68.7083 125.219 68.8125C125.448 68.9167 125.646 69.0521 125.812 69.2188L125.938 69.8125C125.75 70.125 125.604 70.4896 125.5 70.9062L125.281 71.625L125.031 73.0312C124.844 73.9896 124.688 74.6354 124.562 74.9688L123.844 76.9688C124.365 77.4688 124.885 77.9271 125.406 78.3438C125.906 78.7604 126.583 79.2292 127.438 79.75C128.292 80.25 129.031 80.625 129.656 80.875C130.302 81.1458 131 81.3646 131.75 81.5312L132.75 81.8125L133.75 82.0938L134 82.3125L133.906 82.5938L133.219 82.8125C132.969 82.9167 132.615 83.0104 132.156 83.0938C131.74 83.1771 131.167 83.2812 130.438 83.4062C129.833 83.4896 129.302 83.5312 128.844 83.5312C128.177 83.5312 127.625 83.4271 127.188 83.2188C126.771 83.0104 126.292 82.5625 125.75 81.875L123.969 79.4688L123.031 78.3125C122.698 78.7292 122.406 79.0625 122.156 79.3125L121.125 80.2188C120.667 80.5521 120.094 80.8438 119.406 81.0938C118.74 81.3438 118.104 81.5312 117.5 81.6562C117 81.7604 116.594 81.8125 116.281 81.8125L115.469 81.7188L115.562 81.5L116.125 81.2812L117.25 80.875L118.531 80.25C119.052 79.9583 119.562 79.6146 120.062 79.2188C120.583 78.8438 121 78.4271 121.312 77.9688L122.031 76.9062L121.562 76.1562C121.375 75.8646 121.125 75.5 120.812 75.0625C120.5 74.625 120.198 74.2292 119.906 73.875C119.594 73.5208 119.344 73.2708 119.156 73.125C118.948 72.9792 118.781 72.8854 118.656 72.8438L118.094 72.7188L117.875 72.4688C117.896 72.3438 118 72.25 118.188 72.1875C118.354 72.125 118.594 72.0833 118.906 72.0625H119.281C119.573 72.125 119.812 72.2188 120 72.3438C120.167 72.4896 120.406 72.7396 120.719 73.0938L122.656 75.5312ZM187.875 67.5938C187.708 67.5938 187.542 67.5625 187.375 67.5C187.208 67.4167 187.083 67.2917 187 67.125C186.938 66.9375 186.802 66.7188 186.594 66.4688C186.406 66.2188 186.219 66.0312 186.031 65.9062L186.156 65.75C186.26 65.8125 186.51 65.9375 186.906 66.125C187.302 66.3125 187.594 66.4062 187.781 66.4062C188.073 66.4062 188.333 66.3021 188.562 66.0938C188.792 65.8854 189.083 65.4896 189.438 64.9062C189.688 64.5104 189.917 64.0417 190.125 63.5C190.333 62.9583 190.49 62.4583 190.594 62L190.625 61.9375C190.625 61.875 190.604 61.8229 190.562 61.7812C190.521 61.7188 190.479 61.6875 190.438 61.6875L189 61.8125C188.042 61.9792 187.042 62.1146 186 62.2188C185.812 62.2396 185.594 62.2917 185.344 62.375C185.094 62.4583 184.917 62.5 184.812 62.5C184.646 62.5 184.427 62.3646 184.156 62.0938C184.052 62.0104 183.948 61.9062 183.844 61.7812C183.76 61.6562 183.74 61.5521 183.781 61.4688C183.948 61.3021 184.031 61.2188 184.031 61.2188L184.188 61.0938C184.479 60.8021 184.771 60.4167 185.062 59.9375C185.271 59.6458 185.49 59.1562 185.719 58.4688C185.719 58.2396 185.771 58.125 185.875 58.125C185.938 58.125 186.042 58.1667 186.188 58.25L186.688 58.5625C186.812 58.6667 186.896 58.75 186.938 58.8125C186.979 58.875 187 58.9583 187 59.0625C187 59.1875 186.917 59.3438 186.75 59.5312C186.583 59.6979 186.438 59.8646 186.312 60.0312L185.594 61.0625L185.531 61.1875C185.531 61.25 185.615 61.2812 185.781 61.2812L188.188 60.9688L189.812 60.8438L190.438 60.7812L190.781 60.7188H190.875C191.083 60.7188 191.312 60.8958 191.562 61.25C191.854 61.5208 192 61.75 192 61.9375L191.844 62.3438C191.823 62.3854 191.656 62.875 191.344 63.8125C190.969 64.7083 190.646 65.3854 190.375 65.8438C190.104 66.3021 189.812 66.6562 189.5 66.9062C188.938 67.3646 188.396 67.5938 187.875 67.5938ZM184.469 72.8438C184.24 72.8438 183.958 72.6667 183.625 72.3125C183.375 72.0625 183.25 71.875 183.25 71.75C183.25 71.6875 183.292 71.6562 183.375 71.6562C183.458 71.6354 183.562 71.625 183.688 71.625L184.375 71.5938C184.771 71.5938 185.031 71.5833 185.156 71.5625C185.552 71.5625 185.885 71.5521 186.156 71.5312C187.948 71.3646 189.156 71.2292 189.781 71.125C190.094 71.0833 190.375 71.0417 190.625 71C190.875 70.9375 191.073 70.9062 191.219 70.9062C191.51 70.9062 191.802 71.0521 192.094 71.3438C192.323 71.5729 192.438 71.7604 192.438 71.9062C192.438 72.0312 192.365 72.1146 192.219 72.1562C192.115 72.1771 191.5 72.2188 190.375 72.2812C189.75 72.3021 188.979 72.3542 188.062 72.4375C187.146 72.5208 186.344 72.6042 185.656 72.6875C185.531 72.7083 185.354 72.7396 185.125 72.7812C184.896 72.8229 184.677 72.8438 184.469 72.8438ZM189.125 79.8125C188.917 80.0833 188.698 80.2188 188.469 80.2188C188.406 80.2188 188.375 80.1667 188.375 80.0625C188.375 79.9167 188.417 79.75 188.5 79.5625C188.5 79.5625 188.708 79.1458 189.125 78.3125C189.146 78.2292 189.177 78.1458 189.219 78.0625C189.26 77.9792 189.292 77.9062 189.312 77.8438V77.8125C189.312 77.7708 189.281 77.7292 189.219 77.6875C189.156 77.6458 189.083 77.6354 189 77.6562C188.667 77.6771 188.167 77.7292 187.5 77.8125C186.854 77.8958 186.375 77.9792 186.062 78.0625C185.938 78.1042 185.781 78.1562 185.594 78.2188C185.427 78.2812 185.292 78.3125 185.188 78.3125C184.812 78.3125 184.5 78.1979 184.25 77.9688C184.042 77.8229 183.885 77.6771 183.781 77.5312L183.719 77.375C183.719 77.2708 183.896 77.2396 184.25 77.2812C184.729 77.3229 185.719 77.2604 187.219 77.0938L187.844 77C188.01 76.9792 188.271 76.9479 188.625 76.9062C189 76.8438 189.292 76.7812 189.5 76.7188C189.562 76.6979 189.625 76.6771 189.688 76.6562C189.771 76.6146 189.844 76.5938 189.906 76.5938C190.01 76.5938 190.135 76.6458 190.281 76.75C190.448 76.8542 190.583 76.9479 190.688 77.0312C190.833 77.1354 190.927 77.2292 190.969 77.3125C191.031 77.375 191.052 77.4583 191.031 77.5625C191.031 77.6667 190.979 77.7604 190.875 77.8438C190.771 77.9271 190.698 77.9896 190.656 78.0312C190.615 78.0938 190.469 78.25 190.219 78.5C190.115 78.6667 189.927 78.8958 189.656 79.1875C189.406 79.4792 189.229 79.6875 189.125 79.8125ZM187.562 85.9688C187.562 85.9062 187.667 85.7396 187.875 85.4688C188.104 85.2188 188.281 85.0208 188.406 84.875C188.719 84.4583 189.094 83.8542 189.531 83.0625C189.99 82.2708 190.25 81.75 190.312 81.5C190.354 81.375 190.292 81.3125 190.125 81.3125C189.792 81.3125 188.875 81.4062 187.375 81.5938C186.396 81.7188 185.667 81.8438 185.188 81.9688C185.083 82.0312 184.979 82.0625 184.875 82.0625C184.708 82.0625 184.531 81.9479 184.344 81.7188C184.26 81.5729 184.219 81.4375 184.219 81.3125C184.219 81.2292 184.271 81.1458 184.375 81.0625L184.469 80.9375C184.531 80.8125 184.604 80.6458 184.688 80.4375C184.771 80.2292 184.844 80.0312 184.906 79.8438C185.01 79.5104 185.083 79.1458 185.125 78.75C185.146 78.5208 185.271 78.4583 185.5 78.5625C185.792 78.7083 186.01 78.8542 186.156 79C186.323 79.125 186.375 79.2188 186.312 79.2812C186.104 79.5312 185.938 79.8125 185.812 80.125C185.708 80.4583 185.646 80.6771 185.625 80.7812C185.625 80.8646 185.677 80.9062 185.781 80.9062C186.094 80.9062 186.562 80.8542 187.188 80.75C187.542 80.7083 187.979 80.6562 188.5 80.5938C189.021 80.5312 189.438 80.4688 189.75 80.4062L190.531 80.25C190.594 80.2292 190.677 80.2188 190.781 80.2188C190.885 80.2188 190.99 80.2604 191.094 80.3438C191.198 80.4062 191.312 80.4896 191.438 80.5938C191.646 80.7812 191.781 80.9375 191.844 81.0625C191.906 81.1667 191.938 81.2917 191.938 81.4375C191.938 81.5208 191.875 81.625 191.75 81.75C191.646 81.875 191.521 82.0729 191.375 82.3438C190.771 83.5729 189.99 84.6042 189.031 85.4375C188.76 85.6458 188.458 85.8229 188.125 85.9688C187.979 86.0104 187.844 86.0312 187.719 86.0312C187.615 86.0521 187.562 86.0312 187.562 85.9688ZM163.562 70.0312L163.938 69.4375C164.125 69.1667 164.375 68.7812 164.688 68.2812C165 67.7812 165.344 67.1042 165.719 66.25C166.094 65.3958 166.385 64.6979 166.594 64.1562C166.781 63.6146 166.906 63.2083 166.969 62.9375C167.01 62.6667 167.042 62.3958 167.062 62.125C167.083 61.8542 167.094 61.6146 167.094 61.4062L167.125 61.0938L167.344 60.875C167.469 60.8542 167.615 60.875 167.781 60.9375C168.094 61.0833 168.323 61.1875 168.469 61.25C168.594 61.3333 168.781 61.4688 169.031 61.6562C169.26 61.8438 169.427 62.0104 169.531 62.1562L169.562 62.6562C169.375 62.8646 169.219 63.0417 169.094 63.1875C168.99 63.3333 168.885 63.4896 168.781 63.6562L168.094 65.0312C167.885 65.4479 167.531 66.0208 167.031 66.75L166.594 67.4062L167.125 67.8438C167.271 67.9688 167.417 68.1146 167.562 68.2812C167.708 68.4688 167.792 68.6354 167.812 68.7812C167.812 68.9271 167.76 69.1875 167.656 69.5625C167.615 69.7083 167.573 69.9062 167.531 70.1562C167.51 70.4062 167.49 70.7708 167.469 71.25C167.427 71.7292 167.406 72.1667 167.406 72.5625L167.344 77.375L167.406 78.75L167.438 80.2188C167.458 80.7604 167.458 81.1771 167.438 81.4688C167.375 81.7188 167.323 81.9479 167.281 82.1562C167.219 82.3646 167.135 82.5729 167.031 82.7812L166.781 83.1562L166.281 83.2812C166.073 83.0312 165.906 82.7812 165.781 82.5312C165.677 82.2812 165.604 82.0833 165.562 81.9375C165.521 81.7917 165.469 81.5938 165.406 81.3438L165.312 80.7812C165.312 80.5729 165.365 80.3125 165.469 80C165.552 79.6458 165.625 79.3229 165.688 79.0312C165.729 78.7188 165.781 78.25 165.844 77.625C165.885 77.0208 165.906 76.5833 165.906 76.3125L166.094 71.2812V69.9062C166.073 69.4896 166.042 69.1979 166 69.0312L165.844 68.4062L165.062 69.3438C164.833 69.6354 164.594 69.8646 164.344 70.0312L163.969 70.2812C164.302 70.4688 164.552 70.6354 164.719 70.7812L164.844 71.3438L164.469 71.75C164.385 71.875 164.281 72.0521 164.156 72.2812L163.375 74L163.5 74.4062C163.375 74.4896 163.115 74.5521 162.719 74.5938L160.469 74.7812L160.406 77.0938L161.25 76.9062C161.667 76.8438 162.031 76.7708 162.344 76.6875C162.677 76.625 162.917 76.5938 163.062 76.5938C163.25 76.5938 163.438 76.625 163.625 76.6875C163.812 76.75 164.021 76.8333 164.25 76.9375C164.479 77.0417 164.667 77.1667 164.812 77.3125L165.031 77.5938C165.01 77.7604 164.917 77.8646 164.75 77.9062C164.604 77.9479 164.198 77.9792 163.531 78L162.031 78.0938L160.906 78.2188L160.344 78.2812L160.219 82.5938C160.219 83.0104 160.198 83.4375 160.156 83.875C160.115 84.3333 160.073 84.6979 160.031 84.9688C159.99 85.2396 159.917 85.4479 159.812 85.5938L159.281 85.7188C159.073 85.5521 158.927 85.375 158.844 85.1875C158.76 85 158.677 84.7292 158.594 84.375C158.469 84.0208 158.406 83.7708 158.406 83.625C158.406 83.4792 158.469 83.1979 158.594 82.7812C158.677 82.4688 158.729 82.1562 158.75 81.8438C158.792 81.5521 158.833 81.0729 158.875 80.4062L158.969 79.375L159 78.4688L157.781 78.6562L156.062 78.9062L155.469 79.0312C155.073 79.1354 154.771 79.2188 154.562 79.2812L154.188 79.4062C154.042 79.4062 153.823 79.3542 153.531 79.25C153.24 79.1458 152.969 79.0417 152.719 78.9375C152.448 78.8333 152.24 78.6458 152.094 78.375L152.25 78.1562L152.688 78.0938L153.469 78.0312C154.115 77.9896 154.896 77.8958 155.812 77.75L158.188 77.4062L159.031 77.2812L159.094 74.9062L157.094 75.0938L157.031 75.5C156.948 75.7708 156.812 75.9167 156.625 75.9375C156.438 75.9375 156.292 75.8333 156.188 75.625C156.042 75.375 155.948 75.0729 155.906 74.7188L155.594 72.7188C155.552 72.5104 155.5 72.3333 155.438 72.1875C155.375 72.0417 155.302 71.9062 155.219 71.7812C155.156 71.6562 155.073 71.5312 154.969 71.4062V70.875C155.094 70.8333 155.26 70.8333 155.469 70.875L156.094 71.0312L159.219 70.5938C159.177 70.2604 159.135 70.0104 159.094 69.8438C159.073 69.7188 159.01 69.5208 158.906 69.25L158.531 68.7188L158.281 69.1562C158.219 69.3646 158.052 69.5104 157.781 69.5938L157.469 69.25C157.302 68.9792 157.208 68.6875 157.188 68.375L156.906 65.8438L156.375 65.9688L155.844 66.125L155.531 66.2188C155.344 66.2188 155.135 66.1979 154.906 66.1562C154.656 66.0938 154.427 66.0104 154.219 65.9062C153.969 65.7812 153.802 65.6562 153.719 65.5312L153.844 65.0938L154.562 64.9688C155.167 64.9062 155.583 64.8542 155.812 64.8125L156.781 64.6562L156.656 63.5938C156.635 63.3854 156.604 63.1875 156.562 63C156.542 62.8125 156.49 62.6354 156.406 62.4688C156.323 62.3021 156.24 62.1562 156.156 62.0312L155.906 61.6875L155.781 61.3438C155.823 61.1771 156.01 61.0833 156.344 61.0625L157.125 61.1875L157.625 61.3438L158.031 61.5C158.135 61.5833 158.219 61.6979 158.281 61.8438L158.188 63.0312L158.25 64.375L160.594 64L161.156 63.9062L161.281 62.2812C161.302 62.1146 161.312 61.9062 161.312 61.6562C161.292 61.3229 161.271 61.0729 161.25 60.9062C161.229 60.6979 161.177 60.5 161.094 60.3125L161 59.7812C161.104 59.6562 161.24 59.5938 161.406 59.5938C161.698 59.6146 162.094 59.7188 162.594 59.9062C163.073 60.1146 163.385 60.3229 163.531 60.5312L163.656 61.0938C163.531 61.3021 163.417 61.5208 163.312 61.75C163.208 61.9792 163.135 62.1562 163.094 62.2812C163.052 62.4479 163.01 62.625 162.969 62.8125L162.844 63.5938C163.219 63.4688 163.5 63.4062 163.688 63.4062C163.875 63.4062 164.052 63.4271 164.219 63.4688C164.385 63.5104 164.625 63.6146 164.938 63.7812C165.25 63.9479 165.469 64.0833 165.594 64.1875L165.781 64.4062C165.781 64.5521 165.698 64.6667 165.531 64.75C165.365 64.8542 165.083 64.9062 164.688 64.9062L163.656 64.9375L162.594 65.0312L162.25 67.8125L162.594 68.1875C162.552 68.3125 162.469 68.3958 162.344 68.4375C162.219 68.4792 161.927 68.5104 161.469 68.5312L160.031 68.625C160.24 68.7292 160.417 68.8333 160.562 68.9375C160.708 69.0417 160.771 69.2188 160.75 69.4688L160.594 70.4062L161.719 70.2812L162.188 70.1875L162.844 70.0312L163.094 69.9688L163.562 70.0312ZM160.562 71.3438L160.5 73.7188L162.156 73.5312L162.531 71.5312L162.344 71.1875C162.135 71.1667 161.969 71.1667 161.844 71.1875L160.562 71.3438ZM159.219 71.4688L156.75 71.7812L157.031 74.1562L159.125 73.9062L159.219 71.4688ZM158.312 65.5625L158.406 67.8125L160.844 67.5312L161.031 65.1562L159.781 65.3438L159.281 65.4062L158.312 65.5625ZM171.781 77.5625C171.24 76.9167 170.812 76.3854 170.5 75.9688C170.188 75.5521 169.927 75.2604 169.719 75.0938C169.51 74.9271 169.302 74.8229 169.094 74.7812L168.688 74.2812C168.875 74.1562 169.073 74.0938 169.281 74.0938C169.531 74.1146 169.74 74.1667 169.906 74.25C170.073 74.3333 170.271 74.4792 170.5 74.6875C170.729 74.8958 170.917 75.0833 171.062 75.25L172.188 76.5938C172.333 76.0521 172.448 75.5938 172.531 75.2188C172.594 74.8646 172.656 74.4167 172.719 73.875L172.781 73.1562C172.51 73.2188 172.271 73.25 172.062 73.25L171.188 73.2188C171.125 73.5521 170.99 73.7396 170.781 73.7812C170.635 73.7812 170.49 73.6979 170.344 73.5312C170.177 73.3229 170.073 73.0208 170.031 72.625L169.625 68.9062C169.562 68.5312 169.49 68.1979 169.406 67.9062C169.302 67.5729 169.188 67.3333 169.062 67.1875L168.688 66.625C168.75 66.5 168.906 66.4375 169.156 66.4375C169.344 66.4583 169.635 66.5312 170.031 66.6562L172.969 66.4375C172.927 65.875 172.885 65.4062 172.844 65.0312C172.802 64.6771 172.76 64.4167 172.719 64.25L172.469 63.5312C172.031 63.5938 171.656 63.625 171.344 63.625C171.01 63.6042 170.74 63.5729 170.531 63.5312C170.302 63.4688 170.094 63.375 169.906 63.25L169.656 62.9688L169.719 62.7812L170.156 62.7188L171.438 62.5625C171.938 62.5 172.469 62.4271 173.031 62.3438C173.615 62.2604 174.125 62.1771 174.562 62.0938C175.021 61.9896 175.406 61.8958 175.719 61.8125L176.312 61.6562C176.562 61.6562 176.781 61.6875 176.969 61.75C177.177 61.8125 177.438 61.9062 177.75 62.0312L178.188 62.375L178.094 62.6562L177.125 62.9062C176.938 62.9688 176.562 63.0312 176 63.0938L175.156 63.1875L174.031 63.4062C174.385 63.5104 174.615 63.6146 174.719 63.7188L174.875 64L174.656 64.9688L174.625 66.125C175.021 66.0625 175.365 66.0104 175.656 65.9688C175.948 65.9271 176.208 65.875 176.438 65.8125C176.667 65.75 176.927 65.6562 177.219 65.5312L177.656 65.3125L177.906 65.2188C178.115 65.2188 178.344 65.2812 178.594 65.4062C178.865 65.5312 179.146 65.7083 179.438 65.9375C179.708 66.1667 179.854 66.3646 179.875 66.5312C179.875 66.6771 179.844 66.8229 179.781 66.9688L179.469 67.4688C179.385 67.6354 179.302 67.8229 179.219 68.0312L178.781 69.6562C178.573 70.4479 178.396 71.1562 178.25 71.7812C178.125 72.3854 177.99 72.7917 177.844 73C177.677 73.2292 177.479 73.3854 177.25 73.4688L176.969 73.4062L176.344 72.9688L175.062 73.0312H174.344L174.219 74.0312C174.177 74.3646 174.073 74.8854 173.906 75.5938C173.74 76.3021 173.615 76.7396 173.531 76.9062L173.219 77.7812L174.719 79.1875C175.219 79.5833 175.833 79.9896 176.562 80.4062C177.312 80.8021 177.969 81.0938 178.531 81.2812C179.073 81.4896 179.667 81.6771 180.312 81.8438L181.469 82.1562L181.969 82.5625L181.5 82.7812L180.719 82.9375L179.781 83.2188C179.594 83.2604 179.26 83.3125 178.781 83.375C178.281 83.4375 177.948 83.4688 177.781 83.4688C177.281 83.4688 176.844 83.3646 176.469 83.1562C176.073 82.9479 175.615 82.5104 175.094 81.8438L173.406 79.6875L172.656 78.75C172.135 79.3542 171.698 79.8021 171.344 80.0938C171.01 80.3854 170.573 80.6771 170.031 80.9688C169.51 81.2604 169.073 81.4479 168.719 81.5312L167.625 81.7188C167.604 81.5938 167.677 81.4688 167.844 81.3438L168.219 81.1562C168.469 81.0104 168.844 80.75 169.344 80.375C169.802 80.0208 170.198 79.6562 170.531 79.2812C170.865 78.9062 171.156 78.5208 171.406 78.125L171.781 77.5625ZM172.969 67.3438L172.625 67.4062L170.781 67.5625L170.938 69.5625L171.781 69.4688L173.031 69.2812L172.969 67.3438ZM172.906 72.125C172.906 71.5625 172.917 71.2188 172.938 71.0938L172.969 70.3125C172.615 70.3542 172.271 70.375 171.938 70.375L170.969 70.2188L171.156 72.2188L172.906 72.125ZM174.406 72C174.74 71.9792 175.01 71.9583 175.219 71.9375C175.448 71.9167 175.677 71.9062 175.906 71.9062L176.406 72.0625L177.094 69.6875L176.156 69.9375L174.531 70.125L174.406 72ZM174.594 68.9688C175.115 68.8438 175.458 68.7812 175.625 68.7812L177.219 69.2188L177.469 67.8438L177.5 67.5L177.469 67.2188L177.219 66.8438C177.031 66.8229 176.833 66.8333 176.625 66.875L174.594 67.1562V68.9688ZM239.562 69.625C239.854 69.875 240 70.2812 240 70.8438C239.958 71.1562 239.823 71.3021 239.594 71.2812C239.323 71.3021 238.99 71.1354 238.594 70.7812C238.427 70.5938 238.083 70.3021 237.562 69.9062C237.062 69.4896 236.615 69.1562 236.219 68.9062C235.615 69.4479 234.885 69.9688 234.031 70.4688C233.198 70.9688 232.531 71.2188 232.031 71.2188C231.823 71.2188 231.719 71.1562 231.719 71.0312C231.719 70.9896 231.958 70.8229 232.438 70.5312C233 70.2188 233.552 69.8542 234.094 69.4375C234.615 69.0417 235.042 68.6771 235.375 68.3438L234.656 67.9375C234.177 67.625 233.865 67.4375 233.719 67.375C233.094 66.9792 232.781 66.7292 232.781 66.625C232.781 66.5625 232.885 66.5312 233.094 66.5312C233.26 66.5104 233.646 66.6354 234.25 66.9062L236 67.7188L236.469 67.2188C236.531 67.1354 236.604 67.0521 236.688 66.9688C236.771 66.8854 236.854 66.7917 236.938 66.6875C237.25 66.2917 237.5 65.9583 237.688 65.6875C237.896 65.3958 238.01 65.1771 238.031 65.0312C238.031 64.9479 237.958 64.9062 237.812 64.9062C237.604 64.9062 237.156 64.9583 236.469 65.0625L235.719 65.1562C235.135 65.2396 234.646 65.3333 234.25 65.4375C234.021 65.4792 233.823 65.5417 233.656 65.625C233.594 65.6458 233.5 65.6562 233.375 65.6562C233.25 65.6562 233.156 65.6562 233.094 65.6562C233.031 65.6354 232.979 65.5938 232.938 65.5312C232.896 65.4896 232.833 65.4167 232.75 65.3125C232.646 65.1458 232.594 65.0104 232.594 64.9062C232.594 64.8646 232.677 64.7604 232.844 64.5938L233.438 63.9062C233.583 63.7188 233.76 63.4271 233.969 63.0312C234.177 62.6146 234.292 62.2917 234.312 62.0625C234.312 62 234.354 61.9688 234.438 61.9688C234.625 61.9688 234.844 62.0729 235.094 62.2812C235.198 62.3646 235.281 62.4583 235.344 62.5625C235.427 62.6667 235.469 62.75 235.469 62.8125C235.469 62.8958 235.417 62.9896 235.312 63.0938C235.208 63.1979 234.969 63.5104 234.594 64.0312L234.156 64.5938L235.969 64.2812C236.74 64.2188 237.312 64.1354 237.688 64.0312L238.156 63.9688C238.26 63.9479 238.385 63.9375 238.531 63.9375C238.677 63.9375 238.917 64.0938 239.25 64.4062C239.375 64.5104 239.458 64.6042 239.5 64.6875C239.562 64.75 239.594 64.8229 239.594 64.9062C239.594 64.9896 239.573 65.0729 239.531 65.1562C239.49 65.2188 239.448 65.2812 239.406 65.3438C239.198 65.5521 238.896 65.9375 238.5 66.5C238.167 66.9792 237.677 67.5625 237.031 68.25L237.812 68.625C238.812 69.125 239.396 69.4583 239.562 69.625ZM239.188 80.1875C239.229 80.2708 239.302 80.3958 239.406 80.5625C239.51 80.7292 239.562 80.9271 239.562 81.1562C239.562 81.3646 239.479 81.5312 239.312 81.6562C239.146 81.8021 238.958 81.875 238.75 81.875C238.562 81.875 238.406 81.6875 238.281 81.3125C238.219 81.1667 238.167 81.0521 238.125 80.9688C238.104 80.8646 238.083 80.7812 238.062 80.7188C237.792 80.8021 237.438 80.875 237 80.9375C236.562 81 236.25 81.0521 236.062 81.0938C235.062 81.2812 234.375 81.4167 234 81.5C233.854 81.5417 233.698 81.5938 233.531 81.6562C233.365 81.6979 233.271 81.7292 233.25 81.75C233.125 81.7917 233.031 81.8125 232.969 81.8125C232.802 81.8125 232.646 81.7396 232.5 81.5938C232.25 81.4062 232.062 81.1562 231.938 80.8438C231.917 80.8229 231.906 80.7917 231.906 80.75C231.906 80.7083 231.958 80.6562 232.062 80.5938C232.188 80.5312 232.281 80.4896 232.344 80.4688C232.615 80.3229 233.094 79.8854 233.781 79.1562L234.625 78.3438L232.781 77.3438C232.573 77.2812 232.438 77.2083 232.375 77.125C232.312 77.0417 232.281 76.9167 232.281 76.75C232.281 76.625 232.302 76.5417 232.344 76.5C232.406 76.4375 232.531 76.3438 232.719 76.2188C232.906 76.0938 233.094 75.9271 233.281 75.7188C233.385 75.5938 233.521 75.4583 233.688 75.3125C233.854 75.1667 234.01 75.0104 234.156 74.8438C234.781 74.1146 235.177 73.5417 235.344 73.125C235.448 72.9167 235.531 72.8125 235.594 72.8125C235.635 72.8125 235.719 72.8542 235.844 72.9375C236.24 73.2292 236.479 73.5 236.562 73.75V73.8438C236.562 73.9479 236.51 74.0312 236.406 74.0938C236.302 74.1562 236.229 74.2083 236.188 74.25C236.125 74.2917 235.812 74.5938 235.25 75.1562L234.688 75.7188C234.583 75.8229 234.406 76 234.156 76.25C233.906 76.4792 233.781 76.6146 233.781 76.6562C233.781 76.7188 233.812 76.7708 233.875 76.8125C233.958 76.8542 234.021 76.8958 234.062 76.9375L235.375 77.5625C236.188 76.75 236.656 76.2708 236.781 76.125C237.323 75.5 237.625 75.1042 237.688 74.9375C237.708 74.9167 237.74 74.8646 237.781 74.7812C237.823 74.6979 237.865 74.6562 237.906 74.6562C237.969 74.6562 238.031 74.6875 238.094 74.75C238.427 75.0625 238.667 75.3542 238.812 75.625C238.854 75.7083 238.875 75.7604 238.875 75.7812C238.875 75.8229 238.823 75.8854 238.719 75.9688C238.635 76.0312 238.552 76.0938 238.469 76.1562C237.74 76.7604 236.885 77.5521 235.906 78.5312L234 80.3125C233.958 80.3542 233.938 80.3958 233.938 80.4375C233.938 80.4792 233.958 80.5104 234 80.5312C234.042 80.5521 234.104 80.5521 234.188 80.5312L237.844 79.9062C237.74 79.4896 237.615 79.0729 237.469 78.6562V78.5938C237.469 78.5312 237.5 78.5 237.562 78.5C237.646 78.5 237.771 78.5625 237.938 78.6875C238.271 78.9792 238.688 79.4792 239.188 80.1875ZM241.562 70.5938C241.667 70.5938 241.823 70.6667 242.031 70.8125C242.01 70.8542 242.052 70.9375 242.156 71.0625C242.26 71.1667 242.333 71.2396 242.375 71.2812C242.479 71.3854 242.583 71.5104 242.688 71.6562C242.812 71.8021 242.948 71.9583 243.094 72.125C243.469 72.5208 244.333 73.5521 245.688 75.2188C245.917 75.5521 246.031 75.75 246.031 75.8125C246.031 76.0208 245.906 76.125 245.656 76.125C245.51 76.125 245.354 76.0208 245.188 75.8125C244.792 75.3958 244.083 74.7396 243.062 73.8438C242.271 73.1146 241.552 72.5521 240.906 72.1562C240.594 72.0104 240.438 71.8438 240.438 71.6562C240.438 71.5104 240.594 71.3021 240.906 71.0312C241.198 70.7396 241.417 70.5938 241.562 70.5938ZM207.938 69.625C208.312 69.1458 208.604 68.7604 208.812 68.4688C209.021 68.1562 209.198 67.8646 209.344 67.5938C209.49 67.3021 209.635 66.9688 209.781 66.5938C209.927 66.2188 210.021 65.8854 210.062 65.5938C210.125 65.3021 210.229 65.1146 210.375 65.0312C210.542 65.0104 210.75 65.0521 211 65.1562C211.292 65.3021 211.542 65.4688 211.75 65.6562C211.958 65.8229 212.135 66.0312 212.281 66.2812L212.469 66.7812C212.448 66.9271 212.365 67.0521 212.219 67.1562L211.312 67.6562L210.438 68.3438L209.344 69.1875C208.99 69.4583 208.75 69.625 208.625 69.6875L207.906 70.0938C207.844 70.8021 207.792 71.4688 207.75 72.0938C207.708 72.7188 207.656 73.3229 207.594 73.9062C207.531 74.4896 207.458 74.9271 207.375 75.2188L207.062 76.5938C207.438 76.6771 207.688 76.75 207.812 76.8125C207.979 76.8542 208.344 77 208.906 77.25C209.49 77.5208 209.896 77.7396 210.125 77.9062C210.375 78.0729 210.552 78.3229 210.656 78.6562C210.74 78.8854 210.771 79.1771 210.75 79.5312C210.688 79.8438 210.594 80.0625 210.469 80.1875C210.344 80.3333 210.177 80.4167 209.969 80.4375C209.802 80.4375 209.604 80.3125 209.375 80.0625L208.938 79.4688L207 76.9375L206.312 78.7188C206.083 79.2604 205.771 79.8229 205.375 80.4062C205 81.0104 204.594 81.5312 204.156 81.9688L202.875 83.1562C202.458 83.5104 202.125 83.7604 201.875 83.9062L201 84.0312L201.438 83.5C202.042 82.8542 202.583 82.1979 203.062 81.5312C203.521 80.8646 203.906 80.2083 204.219 79.5625C204.531 78.9167 204.802 78.2708 205.031 77.625C205.26 76.9792 205.479 76.1979 205.688 75.2812C205.854 74.3646 205.99 73.4896 206.094 72.6562C206.177 71.8438 206.24 70.8021 206.281 69.5312C206.302 68.2812 206.312 67.1562 206.312 66.1562C206.312 64.6979 206.271 63.5938 206.188 62.8438C206.104 62.0521 205.99 61.5208 205.844 61.25L205.625 60.75L205.688 60.4062C205.812 60.2812 205.979 60.2188 206.188 60.2188C206.521 60.2188 206.885 60.2708 207.281 60.375C207.677 60.5 208 60.6562 208.25 60.8438C208.521 61.0104 208.667 61.1875 208.688 61.375L208.531 61.9062C208.469 62.0729 208.396 62.4062 208.312 62.9062C208.229 63.3854 208.188 63.7083 208.188 63.875L208 67.8438L207.938 69.625ZM201.938 69L202.438 69.1562C202.771 69.2812 203.073 69.4271 203.344 69.5938C203.635 69.7604 203.906 69.9896 204.156 70.2812C204.406 70.5729 204.573 70.8854 204.656 71.2188C204.698 71.4271 204.719 71.6354 204.719 71.8438C204.719 71.9896 204.708 72.1458 204.688 72.3125C204.646 72.5833 204.562 72.8021 204.438 72.9688C204.312 73.1354 204.146 73.2396 203.938 73.2812C203.729 73.2812 203.479 73.125 203.188 72.8125C203.042 72.6667 202.875 72.4375 202.688 72.125C202.5 71.8125 202.333 71.5104 202.188 71.2188C202.021 70.9062 201.875 70.5938 201.75 70.2812L201.438 69.5L201.531 69.0312C201.698 68.9896 201.833 68.9792 201.938 69ZM213.5 71.9375L215.188 71.4688C215.562 71.3438 215.927 71.1979 216.281 71.0312L216.875 70.7188C217.042 70.7188 217.281 70.7708 217.594 70.875C217.885 70.9792 218.104 71.0729 218.25 71.1562C218.417 71.2188 218.604 71.3229 218.812 71.4688C219.021 71.5938 219.135 71.7292 219.156 71.875C219.156 72.0208 219.062 72.2292 218.875 72.5C218.708 72.7292 218.583 72.9271 218.5 73.0938C218.396 73.2604 218.302 73.4688 218.219 73.7188L217.5 75.9062C217.625 75.9896 217.75 76.0833 217.875 76.1875L218.031 76.4688C218.01 76.6562 217.833 76.7708 217.5 76.8125L217 76.8438L213.375 77.5938C213.375 78.1562 213.365 78.7083 213.344 79.25V80.5C213.365 81.0208 213.448 81.4583 213.594 81.8125C213.74 82.1458 213.969 82.4479 214.281 82.7188C214.594 82.9688 215.156 83.1875 215.969 83.375C216.781 83.5625 217.667 83.6667 218.625 83.6875C218.938 83.7083 219.25 83.7188 219.562 83.7188C220.167 83.7188 220.792 83.6875 221.438 83.625C222.438 83.5208 223.292 83.3646 224 83.1562C224.729 82.9062 225.26 82.5938 225.594 82.2188C225.948 81.8438 226.188 81.4375 226.312 81C226.479 80.5625 226.615 80.0104 226.719 79.3438L226.938 77.9062L227.125 77.4688C227.292 77.4688 227.396 77.5938 227.438 77.8438L227.75 79.2188C227.833 79.7604 227.917 80.1458 228 80.375C228.083 80.6042 228.188 80.8646 228.312 81.1562C228.438 81.4271 228.583 81.6667 228.75 81.875C228.917 82.0625 229.042 82.2604 229.125 82.4688C229.125 82.6771 228.865 83.0104 228.344 83.4688C227.948 83.8021 227.438 84.125 226.812 84.4375C226.188 84.75 225.417 85 224.5 85.1875C223.542 85.375 222.521 85.4896 221.438 85.5312C221.062 85.5521 220.677 85.5625 220.281 85.5625C219.719 85.5625 219.167 85.5417 218.625 85.5C217.708 85.4375 216.875 85.3021 216.125 85.0938C215.396 84.9062 214.76 84.6667 214.219 84.375C213.698 84.0625 213.281 83.7292 212.969 83.375C212.656 83.0208 212.438 82.6146 212.312 82.1562C212.188 81.6979 212.115 81.2188 212.094 80.7188C212.073 80.2188 212.062 79.8229 212.062 79.5312L212.188 76.8438L212.25 74.25C212.25 73.4792 212.198 72.9167 212.094 72.5625C212.01 72.2917 211.969 72.0625 211.969 71.875L212.219 71.5312C212.365 71.5104 212.5 71.5312 212.625 71.5938L213.5 71.9375ZM213.438 76.4375C214.479 76.25 215.167 76.0833 215.5 75.9375L216.094 75.7188L216.562 73.4375C216.646 73.0833 216.677 72.7604 216.656 72.4688C216.531 72.3021 216.344 72.2188 216.094 72.2188L215.562 72.2812C215.229 72.3438 214.938 72.4167 214.688 72.5L214.031 72.7188L213.75 73.5312C213.667 73.7812 213.625 74.0312 213.625 74.2812L213.438 76.4375ZM215.812 66.9062C216.396 66.8229 216.865 66.75 217.219 66.6875C217.573 66.625 218.062 66.5104 218.688 66.3438L220.562 65.9062C221.396 65.6979 222.042 65.5 222.5 65.3125C222.938 65.125 223.25 65.0312 223.438 65.0312C223.646 65.0521 223.833 65.125 224 65.25C224.208 65.3542 224.458 65.5208 224.75 65.75C225.083 65.9583 225.302 66.1458 225.406 66.3125C225.51 66.4792 225.562 66.6667 225.562 66.875L225.375 67.3438C225.25 67.5938 225.167 67.8854 225.125 68.2188L224.875 69.4062C224.771 69.9062 224.646 70.6458 224.5 71.625C224.375 72.6042 224.271 73.2708 224.188 73.625C224.125 74 224.031 74.4479 223.906 74.9688C223.781 75.4896 223.635 75.9375 223.469 76.3125C223.323 76.6875 223.104 77.0625 222.812 77.4375C222.562 77.7917 222.271 78.0417 221.938 78.1875L221.5 78.3125H221.25C221.083 78.2292 220.927 78.0312 220.781 77.7188C220.635 77.3854 220.458 77.0729 220.25 76.7812C220.042 76.4896 219.844 76.2396 219.656 76.0312L219.25 75.25H219.5L220.188 75.4688C220.521 75.6146 220.844 75.7188 221.156 75.7812C221.427 75.7396 221.656 75.5729 221.844 75.2812C222.031 74.9896 222.188 74.5417 222.312 73.9375C222.479 73.3333 222.625 72.6667 222.75 71.9375C222.875 71.2083 222.958 70.5833 223 70.0625C223.042 69.5208 223.094 68.8438 223.156 68.0312C223.156 67.4479 223.104 67.0938 223 66.9688C222.854 66.8021 222.562 66.6979 222.125 66.6562C221.75 66.6562 221.156 66.7604 220.344 66.9688C219.531 67.1771 218.896 67.3542 218.438 67.5C217.979 67.6458 217.562 67.8021 217.188 67.9688L216.531 68.2188L216.062 68.0938L215.312 67.7812C215.042 68.1562 214.812 68.4583 214.625 68.6875C214.417 68.9375 214.146 69.2396 213.812 69.5938C213.479 69.9271 213.229 70.1667 213.062 70.3125L212.562 70.7188L212.188 70.7812C212.188 70.6146 212.229 70.4583 212.312 70.3125L212.625 69.8125L213.188 68.9062C213.354 68.5938 213.583 68.1354 213.875 67.5312L214.719 65.6562C214.99 65.0521 215.219 64.4479 215.406 63.8438C215.594 63.2604 215.75 62.75 215.875 62.3125C215.958 61.875 216.042 61.4688 216.125 61.0938C216.188 60.7604 216.219 60.4583 216.219 60.1875L216.25 59.6562C216.354 59.5312 216.5 59.4583 216.688 59.4375C216.917 59.4375 217.25 59.5729 217.688 59.8438C218.146 60.0938 218.479 60.3333 218.688 60.5625C218.854 60.75 218.938 60.9688 218.938 61.2188L218.688 61.5938C218.521 61.7812 218.365 62.0104 218.219 62.2812C218.073 62.5312 217.938 62.8021 217.812 63.0938L217.219 64.2812C216.948 64.8438 216.729 65.2708 216.562 65.5625L215.812 66.9062Z" fill="#333333"/>
</svg>
