<svg width="252" height="84" viewBox="0 0 252 84" fill="none" xmlns="http://www.w3.org/2000/svg">
<path d="M109.934 7.49609C109.77 7.49609 109.852 7.35547 110.18 7.07422C110.508 6.79297 110.906 6.45313 111.375 6.05469C111.844 5.63281 112.371 5.08203 112.957 4.40234C113.332 3.95703 113.613 3.48828 113.801 2.99609C113.918 2.71484 114.047 2.57422 114.188 2.57422C114.305 2.57422 114.48 2.66797 114.715 2.85547C115.184 3.23047 115.418 3.54687 115.418 3.80469C115.418 3.96875 115.324 4.08594 115.137 4.15625C115.043 4.17969 114.902 4.28516 114.715 4.47266C114.527 4.63672 114.387 4.76563 114.293 4.85938C113.285 5.84375 112.348 6.55859 111.48 7.00391C110.777 7.33203 110.309 7.49609 110.074 7.49609H109.934ZM113.625 14.0352C113.555 14.0352 113.438 13.9414 113.273 13.7539C113.133 13.543 113.027 13.3438 112.957 13.1562C112.934 13.0156 112.934 12.8398 112.957 12.6289C113.004 12.3945 113.027 12.2188 113.027 12.1016C113.074 11.6328 113.098 11.2578 113.098 10.9766C113.121 10.7187 113.121 10.4375 113.098 10.1328C113.098 9.82813 113.098 9.62891 113.098 9.53516L113.062 9.00781C112.5 9.40625 112.066 9.6875 111.762 9.85156C111.082 10.2266 110.59 10.4609 110.285 10.5547C109.91 10.6953 109.57 10.7656 109.266 10.7656C109.102 10.7656 109.008 10.7422 108.984 10.6953C108.938 10.6016 109.406 10.2617 110.391 9.67578C111.328 9.08984 112.348 8.31641 113.449 7.35547C114.059 6.79297 114.527 6.25391 114.855 5.73828C114.902 5.66797 114.938 5.58594 114.961 5.49219C115.008 5.375 115.055 5.30469 115.102 5.28125C115.172 5.25781 115.266 5.26953 115.383 5.31641C115.688 5.48047 115.945 5.71484 116.156 6.01953C116.25 6.13672 116.297 6.25391 116.297 6.37109C116.297 6.48828 116.238 6.60547 116.121 6.72266C116.004 6.81641 115.887 6.88672 115.77 6.93359C115.371 7.19141 115.008 7.47266 114.68 7.77734C114.352 8.08203 114.141 8.28125 114.047 8.375C114.398 8.65625 114.574 8.85547 114.574 8.97266L114.469 9.71094C114.422 9.92188 114.398 10.4492 114.398 11.293C114.398 12.1133 114.422 12.6641 114.469 12.9453V13.0156C114.469 13.1328 114.434 13.2617 114.363 13.4023C114.316 13.5195 114.281 13.6016 114.258 13.6484C114.094 13.9063 113.883 14.0352 113.625 14.0352ZM117.211 22.9648C116.859 22.9648 116.52 22.707 116.191 22.1914C115.77 21.5352 115.359 20.9961 114.961 20.5742L114.047 19.625C113.555 20.1875 113.121 20.6328 112.746 20.9609C112.395 21.2891 111.949 21.6055 111.41 21.9102C110.402 22.4961 109.559 22.7891 108.879 22.7891C108.715 22.7891 108.633 22.7305 108.633 22.6133C108.633 22.543 108.855 22.3906 109.301 22.1562C109.746 21.9219 110.168 21.6406 110.566 21.3125C111.574 20.4688 112.406 19.6016 113.062 18.7109C112.922 18.5703 112.219 17.9609 110.953 16.8828C110.789 16.7656 110.543 16.5664 110.215 16.2852C110.145 16.2383 110.004 16.1328 109.793 15.9688C109.582 15.8047 109.477 15.6875 109.477 15.6172C109.477 15.5 109.535 15.4414 109.652 15.4414C110.004 15.4414 110.566 15.6875 111.34 16.1797C112.113 16.6484 112.922 17.2109 113.766 17.8672C114.094 17.4688 114.352 17.0938 114.539 16.7422C114.727 16.3906 114.938 15.957 115.172 15.4414C115.289 15.1836 115.359 14.9609 115.383 14.7734C115.406 14.5625 115.418 14.4336 115.418 14.3867C115.418 14.1289 115.488 14 115.629 14C115.793 14 116.016 14.1289 116.297 14.3867C116.789 14.8555 117.035 15.1719 117.035 15.3359C117.035 15.4297 116.977 15.5352 116.859 15.6523C116.578 15.9336 116.32 16.3086 116.086 16.7773C115.945 17.0586 115.688 17.457 115.312 17.9727C115.195 18.1133 115.102 18.2422 115.031 18.3594C114.961 18.4766 114.891 18.582 114.82 18.6758C115.359 19.0742 116.156 19.7539 117.211 20.7148C117.469 20.9492 117.633 21.1719 117.703 21.3828C117.797 21.5703 117.844 21.8281 117.844 22.1562C117.844 22.3906 117.785 22.5898 117.668 22.7539C117.551 22.8945 117.398 22.9648 117.211 22.9648ZM117.844 27.6055C118.102 27.8867 118.23 28.1211 118.23 28.3086C118.23 28.4727 118.137 28.625 117.949 28.7656C117.832 28.8594 117.539 29.375 117.07 30.3125C116.555 31.1562 115.98 31.8828 115.348 32.4922C114.738 33.125 114.129 33.582 113.52 33.8633C113.379 33.9102 113.262 33.9336 113.168 33.9336C113.074 33.9336 113.027 33.9102 113.027 33.8633V33.793C113.027 33.6523 113.145 33.4883 113.379 33.3008C113.801 32.9727 114.117 32.6328 114.328 32.2812C114.562 31.9531 114.738 31.707 114.855 31.543C115.348 30.8398 115.699 30.2656 115.91 29.8203C116.145 29.4219 116.309 29.0117 116.402 28.5898H116.262C115.652 28.5898 114.668 28.6602 113.309 28.8008C113.098 28.8242 112.488 28.9062 111.48 29.0469C111.27 29.0703 110.941 29.1289 110.496 29.2227L110.074 29.3281C109.98 29.375 109.887 29.3984 109.793 29.3984C109.676 29.3984 109.559 29.375 109.441 29.3281C109.324 29.2578 109.207 29.1758 109.09 29.082C108.809 28.8477 108.668 28.6484 108.668 28.4844C108.691 28.4375 108.715 28.3672 108.738 28.2734C108.785 28.1797 108.809 28.0977 108.809 28.0273L108.984 26.8672C109.008 26.75 109.031 26.6211 109.055 26.4805C109.078 26.3398 109.09 26.1992 109.09 26.0586C109.09 25.6133 109.078 25.2617 109.055 25.0039C109.055 24.7227 109.02 24.4297 108.949 24.125V24.0195C108.949 23.8555 109.02 23.7734 109.16 23.7734C109.301 23.7734 109.547 23.8789 109.898 24.0898C110.367 24.418 110.602 24.6758 110.602 24.8633C110.602 24.9336 110.59 24.9922 110.566 25.0391C110.543 25.0859 110.52 25.1328 110.496 25.1797C110.426 25.6016 110.391 25.8359 110.391 25.8828L110.215 27.7461C110.215 27.793 110.238 27.8516 110.285 27.9219C110.355 27.9688 110.426 27.9922 110.496 27.9922C111.059 27.9922 112.324 27.8516 114.293 27.5703C115.066 27.5 115.617 27.418 115.945 27.3242C116.156 27.3008 116.332 27.2656 116.473 27.2188C116.637 27.1484 116.742 27.1133 116.789 27.1133C116.93 27.0664 117.023 27.043 117.07 27.043C117.281 27.043 117.539 27.2305 117.844 27.6055ZM84.1289 17.2344L81.7383 17.9023L80.6836 18.1836C79.957 18.3711 79.4766 18.4766 79.2422 18.5C78.9609 18.5 78.7031 18.4766 78.4688 18.4297C78.1641 18.3594 77.8242 18.207 77.4492 17.9727C77.0508 17.7383 76.7578 17.4102 76.5703 16.9883C76.6641 16.8477 76.8398 16.7656 77.0977 16.7422L77.9766 16.707C78.7031 16.6836 79.4766 16.6484 80.2969 16.6016C81.1172 16.5312 81.8555 16.4375 82.5117 16.3203L84.7617 15.9336C85.0898 15.1836 85.2891 14.7148 85.3594 14.5273L85.8164 13.1562C85.4414 13.1797 85.1484 13.2031 84.9375 13.2266C84.7266 13.25 84.375 13.2969 83.8828 13.3672C83.3906 13.4609 82.9922 13.5078 82.6875 13.5078C82.3125 13.5078 82.0195 13.4609 81.8086 13.3672C81.5273 13.25 81.3164 13.1211 81.1758 12.9805L81.0352 12.6641C81.0586 12.5 81.1758 12.418 81.3867 12.418L82.0547 12.3477C82.2188 12.3477 82.6172 12.3125 83.25 12.2422C83.8828 12.1719 84.4805 12.1133 85.043 12.0664L86.2383 11.9258C86.543 10.9883 86.7188 10.4023 86.7656 10.168L87.0469 8.76172C86.1797 8.83203 85.3945 8.91406 84.6914 9.00781C83.9648 9.07812 83.4961 9.11328 83.2852 9.11328H82.7578C82.2891 9.11328 81.9375 9.06641 81.7031 8.97266C81.3984 8.83203 81.1758 8.66797 81.0352 8.48047L80.8945 8.12891L81.1406 7.95312H81.8789L82.8633 7.84766L84.9023 7.70703L87.293 7.35547L87.4336 5.45703V5.10547C87.4336 4.84766 87.4102 4.53125 87.3633 4.15625C87.3164 3.80469 87.2812 3.55859 87.2578 3.41797L87.1172 2.64453L87.4688 2.39844C87.7031 2.375 87.9492 2.41016 88.207 2.50391C88.5352 2.64453 88.8633 2.79688 89.1914 2.96094C89.5195 3.125 89.8008 3.32422 90.0352 3.55859C90.2695 3.79297 90.3867 4.02734 90.3867 4.26172L90.1406 4.75391C89.9766 5.01172 89.8477 5.30469 89.7539 5.63281L89.2617 7.07422L92.1445 6.65234L93.7266 6.30078C94.0078 6.25391 94.2656 6.21875 94.5 6.19531C94.8984 6.19531 95.3203 6.28906 95.7656 6.47656C96.1641 6.61719 96.3633 6.79297 96.3633 7.00391C96.3398 7.23828 96.2461 7.37891 96.082 7.42578L95.3789 7.63672C95.1445 7.68359 94.7461 7.75391 94.1836 7.84766L91.9336 8.19922C91.1367 8.31641 90.4688 8.39844 89.9297 8.44531L88.9805 8.55078C88.7227 9.46484 88.5703 10.0273 88.5234 10.2383L88.1367 11.6445L90.3164 11.2578C90.7852 11.1875 91.3242 11.082 91.9336 10.9414C92.543 10.7773 93.0352 10.6836 93.4102 10.6602C93.7617 10.6602 94.043 10.6836 94.2539 10.7305C94.582 10.7773 94.8867 10.8711 95.168 11.0117L95.625 11.3984C95.625 11.5859 95.4609 11.7266 95.1328 11.8203C94.875 11.8906 94.5234 11.9492 94.0781 11.9961C93.6328 12.043 93.0586 12.1133 92.3555 12.207L90.2109 12.5586L87.8555 12.9102C87.5273 13.8008 87.3281 14.3516 87.2578 14.5625L86.8711 15.6523C87.5742 15.582 88.1016 15.5234 88.4531 15.4766L92.0742 15.1602C92.7305 15.1133 93.4453 15.0195 94.2188 14.8789C94.9922 14.7617 95.6133 14.6445 96.082 14.5273L97.1367 14.2461C97.6055 14.1523 97.9688 14.1055 98.2266 14.1055C98.5312 14.1055 98.8008 14.1523 99.0352 14.2461C99.293 14.3398 99.668 14.4922 100.16 14.7031C100.652 14.9141 100.969 15.1367 101.109 15.3711L101.215 15.9336C101.121 16.1211 100.934 16.2266 100.652 16.25L99.8789 16.2852L97.6992 16.2148C97.3477 16.2148 96.6914 16.2383 95.7305 16.2852L92.918 16.3555H91.6523L92.7773 17.1992L94.8867 18.9922C96.0117 19.9531 97.0195 20.7617 97.9102 21.418C98.8008 22.0742 99.5391 22.5547 100.125 22.8594C100.711 23.1641 101.566 23.5508 102.691 24.0195C103.816 24.4648 104.801 24.793 105.645 25.0039L106.594 25.7422L105.855 25.9531L103.605 26.4102C102.668 26.5977 101.941 26.6914 101.426 26.6914C100.816 26.6211 100.266 26.4219 99.7734 26.0938C99.2812 25.7656 98.8242 25.3789 98.4023 24.9336L95.6602 21.9805C94.3008 20.4805 93.2461 19.3672 92.4961 18.6406C91.793 17.9141 91.2539 17.4336 90.8789 17.1992L89.9297 16.4961C88.875 16.6133 88.2305 16.6836 87.9961 16.707L86.2734 16.918C85.5703 18.2773 84.9961 19.2852 84.5508 19.9414C84.1055 20.5977 83.4961 21.3242 82.7227 22.1211C81.9727 22.9648 81.1875 23.7031 80.3672 24.3359C79.5469 24.9688 78.7852 25.4844 78.082 25.8828C77.332 26.2812 76.5938 26.6211 75.8672 26.9023C75.1406 27.1602 74.6602 27.3242 74.4258 27.3945L73.4062 27.2188L74.2852 26.6562L75.2695 26.0938C75.8789 25.7656 76.5469 25.3438 77.2734 24.8281C78 24.3359 78.7148 23.7734 79.418 23.1406C80.1211 22.5078 80.8828 21.7227 81.7031 20.7852C82.5469 19.8477 83.0977 19.1445 83.3555 18.6758L84.1289 17.2344ZM90.9844 32.3867L88.7344 32.5977C87.7031 32.6914 87.1055 32.7383 86.9414 32.7383L85.2539 32.7734L85.1133 33.3359C84.9727 33.7578 84.8086 33.9688 84.6211 33.9688C84.4336 33.9453 84.2461 33.793 84.0586 33.5117C83.8477 33.207 83.7188 32.8438 83.6719 32.4219C83.6719 32.1172 83.6953 31.8008 83.7422 31.4727C83.7891 31.0273 83.8125 30.5117 83.8125 29.9258L83.6367 24.8633C83.5898 24.207 83.5195 23.7266 83.4258 23.4219C83.3555 23.1172 83.2734 22.8828 83.1797 22.7188L83.0742 22.4023C83.1211 22.2617 83.3438 22.168 83.7422 22.1211L84.7266 22.332L85.8516 22.1914C86.25 22.1445 86.7305 22.0625 87.293 21.9453L89.1914 21.5586C89.8477 21.418 90.3164 21.3008 90.5977 21.207C90.8789 21.1367 91.1602 21.043 91.4414 20.9258L92.1094 20.7148C92.3672 20.6914 92.5898 20.7148 92.7773 20.7852C93.0352 20.8789 93.3164 21.0312 93.6211 21.2422C93.9492 21.4531 94.2305 21.6641 94.4648 21.875L94.8516 22.3672C94.8516 22.5312 94.8164 22.6836 94.7461 22.8242C94.6758 23.0117 94.6172 23.2109 94.5703 23.4219C94.5 23.6328 94.4648 23.832 94.4648 24.0195C94.418 24.207 94.3828 24.582 94.3594 25.1445V25.7422C94.3594 26.1406 94.3711 26.5742 94.3945 27.043C94.418 27.6055 94.4648 28.1914 94.5352 28.8008L94.8164 30.5938C94.9102 31.2031 94.957 31.6602 94.957 31.9648C94.9102 32.5742 94.7344 33.1836 94.4297 33.793C94.1016 34.4023 93.7852 34.7773 93.4805 34.918L92.9531 35.0586C92.6953 35.0352 92.4492 34.8008 92.2148 34.3555C92.0039 33.9336 91.7695 33.5234 91.5117 33.125L90.9844 32.3867ZM85.3242 31.5781C86.3555 31.4609 87.1406 31.3672 87.6797 31.2969L89.5078 31.0508C90.1875 30.9336 90.6445 30.875 90.8789 30.875C91.2539 30.8984 91.5352 30.957 91.7227 31.0508L92.4609 31.4727L92.6367 27.0078C92.1211 27.125 91.7344 27.1953 91.4766 27.2188L89.0508 27.6758C87.9727 27.8633 87.2109 27.9805 86.7656 28.0273L86.3438 28.0625H85.9922L85.2539 27.8867L85.3242 31.5781ZM85.2539 26.9023C85.4883 26.9023 85.6992 26.8906 85.8867 26.8672C86.0742 26.8438 86.5664 26.7617 87.3633 26.6211C88.207 26.457 88.8867 26.3047 89.4023 26.1641C89.9648 26 90.3867 25.918 90.668 25.918C90.9258 25.918 91.1602 25.9297 91.3711 25.9531C91.6758 26 92.0391 26.1055 92.4609 26.2695L92.6367 23.3164C92.6133 22.9414 92.5547 22.6953 92.4609 22.5781C92.3438 22.4609 92.1211 22.3906 91.793 22.3672C91.4883 22.3672 91.1602 22.3789 90.8086 22.4023L89.2617 22.4727C88.8867 22.5195 88.3477 22.6367 87.6445 22.8242C86.9414 22.9883 86.4492 23.1172 86.168 23.2109L85.5352 23.3516L85.3945 23.7031C85.418 23.8438 85.418 24.043 85.3945 24.3008C85.3477 24.5352 85.3242 24.7344 85.3242 24.8984L85.2539 26.9023ZM170.121 13.6836C169.957 13.6836 169.781 13.5781 169.594 13.3672C169.453 13.2031 169.359 13.0742 169.312 12.9805C169.266 12.8633 169.266 12.7109 169.312 12.5234L169.348 11.6797C169.371 11.5156 169.383 11.1172 169.383 10.4844V9.32422L168.328 9.81641L167.098 10.3438C166.793 10.4609 166.477 10.6016 166.148 10.7656C165.867 10.9062 165.621 10.9766 165.41 10.9766C165.246 10.9531 165.059 10.8945 164.848 10.8008C164.637 10.707 164.473 10.625 164.355 10.5547C164.098 10.3906 163.98 10.2148 164.004 10.0273L164.109 9.67578C164.109 9.48828 164.121 9.32422 164.145 9.18359L164.18 7.14453V5.24609C164.18 4.87109 164.156 4.55469 164.109 4.29688C164.062 4.01562 164.027 3.81641 164.004 3.69922C164.004 3.58203 164.039 3.5 164.109 3.45312C164.133 3.42969 164.191 3.41797 164.285 3.41797C164.449 3.41797 164.766 3.52344 165.234 3.73438C165.633 3.92188 165.797 4.15625 165.727 4.4375C165.68 4.60156 165.633 4.84766 165.586 5.17578L165.48 9.21875C165.48 9.33594 165.492 9.42969 165.516 9.5C165.562 9.54688 165.609 9.57031 165.656 9.57031C165.938 9.57031 166.277 9.48828 166.676 9.32422C167.426 9.08984 168.07 8.85547 168.609 8.62109L169.383 8.30469V5.98438C169.383 5.04688 169.324 4.14453 169.207 3.27734C169.184 3.20703 169.172 3.125 169.172 3.03125C169.172 2.79688 169.266 2.67969 169.453 2.67969C169.477 2.67969 169.605 2.72656 169.84 2.82031C170.191 3.00781 170.449 3.17188 170.613 3.3125C170.777 3.45312 170.871 3.53516 170.895 3.55859C170.988 3.62891 171.035 3.69922 171.035 3.76953C171.035 3.81641 171.012 3.875 170.965 3.94531C170.941 4.01562 170.918 4.07422 170.895 4.12109L170.789 5.17578L170.754 8.41016L170.789 11.5391C170.789 12.0781 170.754 12.5469 170.684 12.9453C170.566 13.4375 170.379 13.6836 170.121 13.6836ZM163.652 19.4492C163.395 19.4492 163.078 19.25 162.703 18.8516C162.422 18.5703 162.281 18.3594 162.281 18.2188C162.281 18.1484 162.328 18.1133 162.422 18.1133C162.516 18.0898 162.633 18.0781 162.773 18.0781L163.547 18.043C163.992 18.043 164.285 18.0312 164.426 18.0078C164.871 18.0078 165.246 17.9961 165.551 17.9727C167.566 17.7852 168.926 17.6328 169.629 17.5156C169.98 17.4688 170.297 17.4219 170.578 17.375C170.859 17.3047 171.082 17.2695 171.246 17.2695C171.574 17.2695 171.902 17.4336 172.23 17.7617C172.488 18.0195 172.617 18.2305 172.617 18.3945C172.617 18.5352 172.535 18.6289 172.371 18.6758C172.254 18.6992 171.562 18.7461 170.297 18.8164C169.594 18.8398 168.727 18.8984 167.695 18.9922C166.664 19.0859 165.762 19.1797 164.988 19.2734C164.848 19.2969 164.648 19.332 164.391 19.3789C164.133 19.4258 163.887 19.4492 163.652 19.4492ZM168.363 33.9688C167.637 33.9688 167.074 33.9453 166.676 33.8984C166.301 33.8516 165.984 33.7109 165.727 33.4766C165.281 33.1484 164.977 32.4336 164.812 31.332L164.707 30.207C164.707 29.9258 164.684 29.5742 164.637 29.1523C164.262 29.1992 163.992 29.2461 163.828 29.293C163.781 29.3164 163.699 29.3516 163.582 29.3984C163.488 29.4219 163.418 29.4336 163.371 29.4336C163.207 29.4336 163.055 29.3867 162.914 29.293C162.773 29.1992 162.598 29.0234 162.387 28.7656C162.223 28.5547 162.141 28.4141 162.141 28.3438C162.141 28.2734 162.223 28.2266 162.387 28.2031C162.551 28.1797 162.773 28.168 163.055 28.168C163.453 28.168 163.969 28.1211 164.602 28.0273L164.566 27.5352C164.566 26.5977 164.508 25.8008 164.391 25.1445L164.355 24.8984C164.355 24.5703 164.484 24.4414 164.742 24.5117C165.023 24.6055 165.281 24.7227 165.516 24.8633C165.703 24.957 165.832 25.0508 165.902 25.1445C165.973 25.2148 165.996 25.3203 165.973 25.4609L165.867 26.9727V27.8867L168.961 27.5703C168.961 27.4062 168.973 27.0195 168.996 26.4102C169.02 25.7773 169.02 25.3672 168.996 25.1797C168.996 24.9922 168.973 24.8164 168.926 24.6523C168.902 24.4648 168.879 24.3125 168.855 24.1953C168.855 24.0078 168.949 23.9141 169.137 23.9141C169.324 23.9141 169.559 24.0195 169.84 24.2305C170.168 24.4414 170.379 24.6289 170.473 24.793C170.59 24.957 170.613 25.1562 170.543 25.3906C170.426 25.7656 170.344 26.1875 170.297 26.6562C170.25 27.125 170.227 27.4062 170.227 27.5C170.508 27.4766 170.766 27.4414 171 27.3945C171.234 27.3477 171.387 27.3242 171.457 27.3242C171.645 27.2773 171.867 27.2539 172.125 27.2539C172.266 27.2773 172.465 27.418 172.723 27.6758C172.934 27.957 173.039 28.1797 173.039 28.3438C173.039 28.5781 172.816 28.6719 172.371 28.625C171.973 28.5547 171.574 28.5195 171.176 28.5195C170.777 28.5195 170.438 28.5312 170.156 28.5547C170.086 29.3984 169.945 30.2305 169.734 31.0508C169.688 31.2383 169.605 31.4023 169.488 31.543C169.371 31.6602 169.266 31.7188 169.172 31.7188C169.008 31.7188 168.902 31.6602 168.855 31.543C168.832 31.4023 168.82 31.1914 168.82 30.9102C168.867 30.3008 168.891 29.5391 168.891 28.625C168.258 28.6719 167.766 28.7188 167.414 28.7656C166.875 28.8828 166.371 28.9531 165.902 28.9766C165.879 29.9375 165.926 30.793 166.043 31.543C166.113 32.0352 166.254 32.375 166.465 32.5625C166.605 32.6797 166.77 32.75 166.957 32.7734C167.168 32.7969 167.379 32.8086 167.59 32.8086C167.801 32.8086 167.941 32.8086 168.012 32.8086C168.738 32.8086 169.418 32.7734 170.051 32.7031C170.238 32.6797 170.402 32.6328 170.543 32.5625C170.707 32.4922 170.824 32.457 170.895 32.457C171.105 32.457 171.316 32.5273 171.527 32.668C171.738 32.8086 171.844 32.9727 171.844 33.1602C171.844 33.3477 171.738 33.4883 171.527 33.582C171.34 33.6758 171.035 33.7578 170.613 33.8281C169.863 33.9219 169.113 33.9688 168.363 33.9688ZM178.383 17.9727C178.664 17.9727 178.805 18.1016 178.805 18.3594C178.805 18.5 178.676 18.6992 178.418 18.957C177.715 19.8242 176.32 21.4766 174.234 23.9141C174.07 24.125 173.918 24.2305 173.777 24.2305C173.66 24.2305 173.402 24.0547 173.004 23.7031C172.676 23.4219 172.512 23.1875 172.512 23C172.512 22.7891 172.688 22.5898 173.039 22.4023C173.578 22.0977 174.387 21.4883 175.465 20.5742C176.543 19.6133 177.34 18.8516 177.855 18.2891C178.066 18.0781 178.242 17.9727 178.383 17.9727ZM139.992 26.3398C139.875 26.1523 139.781 25.9883 139.711 25.8477C139.617 25.707 139.523 25.5195 139.43 25.2852V24.4414L140.379 24.6523L141.328 25.0742C141.75 25.2617 142.125 25.4492 142.453 25.6367C142.781 25.8477 143.051 26.1641 143.262 26.5859C143.426 26.9375 143.508 27.3477 143.508 27.8164C143.484 28.2852 143.367 28.6484 143.156 28.9062C142.969 29.1641 142.723 29.293 142.418 29.293C142.113 29.293 141.797 29.1055 141.469 28.7305C141.281 28.543 141.105 28.2734 140.941 27.9219L140.414 27.043L136.617 29.7852L135.352 30.8398L134.508 31.6836L134.086 31.9648C133.852 31.9648 133.617 31.8125 133.383 31.5078C133.172 31.25 132.984 30.9336 132.82 30.5586C132.68 30.2539 132.609 29.9609 132.609 29.6797L132.82 29.0117C132.961 28.6367 133.066 28.25 133.137 27.8516C133.207 27.4297 133.266 26.9492 133.312 26.4102C133.359 25.8945 133.406 25.1445 133.453 24.1602L133.629 18.043C133.629 17.7148 133.617 17.375 133.594 17.0234C133.547 16.6719 133.488 16.3789 133.418 16.1445C133.348 15.9102 133.242 15.6992 133.102 15.5117L132.82 15.2305L132.75 14.8789C132.844 14.7383 133.008 14.668 133.242 14.668C133.805 14.668 134.25 14.7617 134.578 14.9492L135.105 15.2305C135.691 15.1602 136.172 15.0898 136.547 15.0195C136.945 14.9727 137.438 14.8789 138.023 14.7383C138.586 14.5977 139.02 14.4805 139.324 14.3867C139.629 14.293 139.945 14.1758 140.273 14.0352C140.602 13.8945 140.859 13.8242 141.047 13.8242C141.234 13.8477 141.457 13.918 141.715 14.0352L142.453 14.4219L142.91 14.7383C143.332 14.9961 143.602 15.207 143.719 15.3711L143.754 16.0039L143.402 16.5312C143.332 16.6719 143.227 16.9062 143.086 17.2344L142.91 17.7617L142.031 21.0312L141.68 22.4023C141.492 22.8711 141.305 23.1641 141.117 23.2812L140.73 23.4219H140.484L140.027 22.9648C139.395 23.0352 138.914 23.082 138.586 23.1055L136.16 23.457L135.281 23.5273L135.07 27.3945L135.211 28.168C135.398 28.168 135.609 28.1211 135.844 28.0273L139.992 26.3398ZM135.281 22.3672C135.703 22.3438 136.031 22.3203 136.266 22.2969C136.5 22.2734 136.852 22.2031 137.32 22.0859C137.836 21.9688 138.281 21.875 138.656 21.8047C138.938 21.7578 139.195 21.7344 139.43 21.7344L140.098 21.8047L140.695 19.0977C140.109 19.1445 139.676 19.1914 139.395 19.2383L137.707 19.5195C137.215 19.6133 136.816 19.6602 136.512 19.6602L135.949 19.5898L135.422 19.4141L135.281 22.3672ZM135.457 18.6758C135.902 18.6523 136.254 18.6172 136.512 18.5703C136.77 18.5234 137.203 18.418 137.812 18.2539C138.375 18.0898 138.797 17.9961 139.078 17.9727C139.477 17.9727 139.863 18.043 140.238 18.1836L140.801 18.3945L140.977 17.3047C141.023 17 141.047 16.6602 141.047 16.2852C141.047 15.9102 140.988 15.6641 140.871 15.5469C140.754 15.4297 140.59 15.3711 140.379 15.3711C140.145 15.3945 139.852 15.4531 139.5 15.5469C139.172 15.6172 138.633 15.7227 137.883 15.8633C137.109 16.0039 136.617 16.0742 136.406 16.0742L135.668 16.1094L135.457 18.6758ZM148.148 17.1992C148.055 17.5742 147.996 17.8555 147.973 18.043C147.949 18.2305 147.914 18.5352 147.867 18.957C147.82 19.3789 147.797 19.7305 147.797 20.0117L147.691 27.1133C147.668 28.0977 147.586 29.2461 147.445 30.5586L147.305 32.0703C147.211 32.9844 147.047 33.7695 146.812 34.4258C146.578 35.0586 146.367 35.375 146.18 35.375C146.016 35.3516 145.875 35.0117 145.758 34.3555C145.641 33.7227 145.57 32.9844 145.547 32.1406C145.523 31.5781 145.512 31.0156 145.512 30.4531V29.5742L145.652 20.3633C145.676 19.7539 145.688 19.2617 145.688 18.8867C145.688 18.5117 145.676 18.2539 145.652 18.1133C145.629 17.8086 145.594 17.457 145.547 17.0586C145.5 16.6602 145.418 16.332 145.301 16.0742L145.16 15.3711L145.336 15.1602C145.547 15.1602 145.805 15.207 146.109 15.3008C146.719 15.4883 147.117 15.6406 147.305 15.7578L147.867 16.1094L149.59 15.7227C150.176 15.582 150.773 15.418 151.383 15.2305L152.156 15.0195C152.531 14.9023 152.859 14.7734 153.141 14.6328L153.633 14.457C153.797 14.457 153.996 14.5273 154.23 14.668C154.465 14.8086 154.711 14.9727 154.969 15.1602C155.25 15.3477 155.52 15.5586 155.777 15.793C155.988 15.9805 156.059 16.2617 155.988 16.6367C155.801 16.8945 155.672 17.1289 155.602 17.3398C155.555 17.5508 155.508 17.832 155.461 18.1836C155.414 18.5586 155.391 18.9453 155.391 19.3438L155.18 23.1055C155.133 24.043 155.062 24.7695 154.969 25.2852C154.898 25.8008 154.746 26.2578 154.512 26.6562C154.254 27.0547 153.961 27.3711 153.633 27.6055L153 27.8867C152.812 27.8398 152.625 27.6992 152.438 27.4648C152.227 27.207 151.934 26.8789 151.559 26.4805C151.207 26.0586 150.867 25.6836 150.539 25.3555L149.906 24.793L149.695 24.3008C149.836 24.2773 150 24.3008 150.188 24.3711L150.996 24.6172C151.465 24.7812 151.828 24.875 152.086 24.8984C152.297 24.8984 152.473 24.8633 152.613 24.793C152.824 24.6523 152.953 24.3477 153 23.8789C153.07 23.3633 153.117 22.8711 153.141 22.4023L153.281 17.832C153.281 17.293 153.258 16.9414 153.211 16.7773L153.07 16.4961C152.93 16.3555 152.719 16.2852 152.438 16.2852C152.203 16.2852 151.805 16.332 151.242 16.4258L149.66 16.7422L148.148 17.1992ZM148.852 6.40625L153.281 5.52734C153.516 5.48047 153.773 5.41016 154.055 5.31641L154.688 5.17578C154.992 5.15234 155.25 5.16406 155.461 5.21094C155.742 5.28125 156.035 5.41016 156.34 5.59766L156.832 5.94922C156.855 6.08984 156.773 6.25391 156.586 6.44141C156.398 6.58203 156.129 6.6875 155.777 6.75781L154.477 7.00391C154.102 7.05078 153.574 7.12109 152.895 7.21484C152.215 7.28516 151.605 7.35547 151.066 7.42578C150.527 7.51953 150.164 7.56641 149.977 7.56641C149.602 7.56641 149.238 7.51953 148.887 7.42578L148.289 7.32031L147.27 8.72656C146.871 9.24219 146.391 9.76953 145.828 10.3086C145.219 10.8711 144.82 11.2109 144.633 11.3281L144 11.7148L143.578 11.8555L143.332 11.6797L143.578 11.293L144.352 10.3086C144.68 9.91016 144.949 9.55859 145.16 9.25391C145.371 8.92578 145.617 8.51562 145.898 8.02344C146.203 7.53125 146.449 7.09766 146.637 6.72266C146.801 6.37109 146.953 6.01953 147.094 5.66797C147.234 5.29297 147.34 4.98828 147.41 4.75391C147.48 4.49609 147.562 4.23828 147.656 3.98047C147.703 3.69922 147.727 3.44141 147.727 3.20703L147.938 2.64453L148.184 2.53906C148.348 2.53906 148.535 2.58594 148.746 2.67969C149.027 2.79688 149.32 2.94922 149.625 3.13672C149.93 3.32422 150.164 3.52344 150.328 3.73438L150.539 4.15625L150.469 4.47266C150.352 4.58984 150.188 4.75391 149.977 4.96484C149.742 5.19922 149.531 5.43359 149.344 5.66797L148.852 6.40625ZM137.25 7.28516L138.234 7.10938C138.656 7.03906 139.324 6.86328 140.238 6.58203L140.766 6.40625L141.645 6.16016L142.172 6.26562C142.453 6.33594 142.664 6.39453 142.805 6.44141C142.945 6.51172 143.086 6.60547 143.227 6.72266L143.473 6.96875C143.496 7.13281 143.438 7.27344 143.297 7.39062C143.109 7.50781 142.805 7.61328 142.383 7.70703L141.539 7.91797C141.352 7.96484 140.883 8.03516 140.133 8.12891L138.938 8.30469C138.633 8.32812 138.387 8.33984 138.199 8.33984L137.742 8.30469L136.828 7.98828L135.773 9.21875C135.445 9.61719 135.07 10.0156 134.648 10.4141C134.227 10.8359 133.84 11.1758 133.488 11.4336C133.137 11.668 132.762 11.9023 132.363 12.1367L131.168 12.5234C131.145 12.3594 131.203 12.207 131.344 12.0664L131.941 11.5039C132.293 11.1758 132.609 10.8477 132.891 10.5195C133.172 10.2383 133.512 9.81641 133.91 9.25391C134.309 8.69141 134.672 8.12891 135 7.56641C135.328 7.05078 135.609 6.58203 135.844 6.16016C136.055 5.73828 136.23 5.33984 136.371 4.96484C136.512 4.58984 136.582 4.21484 136.582 3.83984L136.863 3.3125C137.168 3.3125 137.496 3.41797 137.848 3.62891C138.199 3.81641 138.434 3.96875 138.551 4.08594C138.691 4.20313 138.82 4.33203 138.938 4.47266L139.148 5.17578C139.102 5.31641 138.984 5.44531 138.797 5.5625L138.41 5.80859L137.742 6.72266L137.25 7.28516ZM137.391 10.0625C137.648 10.0156 137.883 10.0039 138.094 10.0273L138.867 10.2031C139.078 10.2734 139.312 10.3438 139.57 10.4141C139.828 10.4844 140.039 10.5898 140.203 10.7305C140.391 10.8711 140.52 11.0117 140.59 11.1523C140.66 11.293 140.695 11.5039 140.695 11.7852C140.695 12.1602 140.602 12.4414 140.414 12.6289C140.25 12.8164 140.039 12.9219 139.781 12.9453C139.57 12.9453 139.312 12.8164 139.008 12.5586C138.797 12.3945 138.516 12.1133 138.164 11.7148C137.812 11.3398 137.555 11.0469 137.391 10.8359C137.25 10.625 137.25 10.3672 137.391 10.0625ZM149.414 8.90234L150.293 9.04297C150.926 9.18359 151.465 9.35938 151.91 9.57031C152.332 9.78125 152.648 10.0273 152.859 10.3086C153.047 10.5898 153.141 10.9648 153.141 11.4336C153.117 11.9961 152.918 12.3594 152.543 12.5234C152.238 12.5234 151.945 12.4297 151.664 12.2422C151.289 12.0312 150.926 11.7266 150.574 11.3281L149.695 10.2383L149.027 8.9375C149.191 8.89062 149.32 8.87891 149.414 8.90234Z" fill="#333333"/>
<path d="M32.0195 66.6445C31.7826 66.6445 31.6094 66.5625 31.5 66.3984C31.3359 66.1615 31.1719 65.9701 31.0078 65.8242C30.862 65.6784 30.5977 65.4779 30.2148 65.2227L30.2969 65.0859C31.1354 65.3776 31.7279 65.5234 32.0742 65.5234C32.3659 65.5234 32.6849 65.3594 33.0312 65.0312C33.3958 64.6849 33.7057 64.1927 33.9609 63.5547C34.0885 63.263 34.1797 63.026 34.2344 62.8438C34.3073 62.6432 34.362 62.4245 34.3984 62.1875V62.1328C34.3984 61.9688 34.3164 61.8867 34.1523 61.8867C33.9701 61.8867 33.6419 61.9414 33.168 62.0508C32.9128 62.1237 32.5755 62.2331 32.1562 62.3789L31.9375 62.3242C31.9193 62.306 31.8737 62.2786 31.8008 62.2422C31.7461 62.1875 31.7005 62.1328 31.6641 62.0781C31.5729 61.987 31.5273 61.9232 31.5273 61.8867L31.5 61.7773C31.5 61.6497 31.5638 61.5312 31.6914 61.4219C31.8372 61.3125 31.9193 61.2305 31.9375 61.1758C32.0833 61.0117 32.375 60.6107 32.8125 59.9727C32.849 59.9362 32.9128 59.8542 33.0039 59.7266C33.0951 59.5807 33.1406 59.4531 33.1406 59.3438C33.1406 59.2161 32.6029 59.3073 31.5273 59.6172C30.4336 59.9453 29.8594 60.1094 29.8047 60.1094C29.6224 60.1094 29.431 59.9544 29.2305 59.6445C29.0846 59.4987 29.0117 59.3802 29.0117 59.2891C29.0117 59.1615 29.194 59.0885 29.5586 59.0703C29.9779 59.0521 30.625 58.9792 31.5 58.8516C32.3932 58.724 32.9219 58.6419 33.0859 58.6055L33.4688 58.4961C33.5234 58.4779 33.5872 58.4688 33.6602 58.4688C33.7148 58.4688 33.7969 58.5052 33.9062 58.5781C34.0339 58.651 34.1432 58.7057 34.2344 58.7422C34.4714 58.8516 34.6081 58.9792 34.6445 59.125V59.207C34.6445 59.3711 34.5534 59.5443 34.3711 59.7266C34.2982 59.7995 34.1523 59.9544 33.9336 60.1914C33.7148 60.4102 33.5781 60.556 33.5234 60.6289C33.4505 60.7018 33.3411 60.8203 33.1953 60.9844C33.0495 61.1484 32.9674 61.2487 32.9492 61.2852C32.9492 61.3398 32.9674 61.3763 33.0039 61.3945C33.0404 61.4128 33.0859 61.4219 33.1406 61.4219C33.6875 61.349 34.1341 61.2669 34.4805 61.1758L34.918 61.0391C35.1185 61.0391 35.2643 61.112 35.3555 61.2578C35.5195 61.4401 35.6289 61.5951 35.6836 61.7227C35.7383 61.832 35.7383 61.9414 35.6836 62.0508C35.6654 62.1055 35.638 62.1602 35.6016 62.2148C35.5651 62.2695 35.5286 62.3333 35.4922 62.4062C35.474 62.4427 35.4375 62.5156 35.3828 62.625C35.3281 62.7344 35.2917 62.8438 35.2734 62.9531C34.9453 63.901 34.5534 64.7122 34.0977 65.3867C33.8424 65.6966 33.5599 65.9609 33.25 66.1797C32.8307 66.4896 32.4206 66.6445 32.0195 66.6445ZM35.1641 73.9727C34.8906 73.9727 34.6263 73.7721 34.3711 73.3711C34.043 72.8607 33.724 72.4414 33.4141 72.1133L32.7031 71.375C32.3203 71.8125 31.9831 72.1589 31.6914 72.4141C31.418 72.6693 31.0716 72.9154 30.6523 73.1523C29.8685 73.6081 29.2122 73.8359 28.6836 73.8359C28.556 73.8359 28.4922 73.7904 28.4922 73.6992C28.4922 73.6445 28.6654 73.526 29.0117 73.3438C29.3581 73.1615 29.6862 72.9427 29.9961 72.6875C30.7799 72.0312 31.4271 71.3568 31.9375 70.6641C31.8281 70.5547 31.2812 70.0807 30.2969 69.2422C30.1693 69.151 29.9779 68.9961 29.7227 68.7773C29.668 68.7409 29.5586 68.6589 29.3945 68.5312C29.2305 68.4036 29.1484 68.3125 29.1484 68.2578C29.1484 68.1667 29.194 68.1211 29.2852 68.1211C29.5586 68.1211 29.9961 68.3125 30.5977 68.6953C31.1992 69.0599 31.8281 69.4974 32.4844 70.0078C32.7396 69.6979 32.9401 69.4062 33.0859 69.1328C33.2318 68.8594 33.3958 68.5221 33.5781 68.1211C33.6693 67.9206 33.724 67.7474 33.7422 67.6016C33.7604 67.4375 33.7695 67.3372 33.7695 67.3008C33.7695 67.1003 33.8242 67 33.9336 67C34.0612 67 34.2344 67.1003 34.4531 67.3008C34.8359 67.6654 35.0273 67.9115 35.0273 68.0391C35.0273 68.112 34.9818 68.194 34.8906 68.2852C34.6719 68.5039 34.4714 68.7956 34.2891 69.1602C34.1797 69.3789 33.9792 69.6888 33.6875 70.0898C33.5964 70.1992 33.5234 70.2995 33.4688 70.3906C33.4141 70.4818 33.3594 70.5638 33.3047 70.6367C33.724 70.9466 34.3438 71.4753 35.1641 72.2227C35.3646 72.4049 35.4922 72.5781 35.5469 72.7422C35.6198 72.888 35.6562 73.0885 35.6562 73.3438C35.6562 73.526 35.6107 73.681 35.5195 73.8086C35.4284 73.918 35.3099 73.9727 35.1641 73.9727ZM29.1211 82.1484C28.8477 82.1484 28.638 82.0755 28.4922 81.9297C28.3281 81.7656 28.2461 81.6198 28.2461 81.4922C28.2461 81.3646 28.319 81.2279 28.4648 81.082C28.4831 81.0638 28.5833 80.918 28.7656 80.6445C29.1667 80.0065 29.6224 79.1953 30.1328 78.2109C30.6615 77.2083 30.9896 76.5247 31.1172 76.1602C31.2266 75.8138 31.3268 75.513 31.418 75.2578C31.5273 75.0026 31.6185 74.875 31.6914 74.875C31.819 74.875 31.9284 74.9206 32.0195 75.0117C32.1107 75.0846 32.2018 75.194 32.293 75.3398C32.4023 75.4674 32.4844 75.5586 32.5391 75.6133C32.6667 75.7591 32.7305 75.8958 32.7305 76.0234C32.7305 76.1146 32.694 76.2057 32.6211 76.2969C32.5482 76.388 32.5026 76.4518 32.4844 76.4883L31.2812 78.5117C30.9714 79.0768 30.5612 79.7786 30.0508 80.6172C29.9779 80.7083 29.9414 80.7995 29.9414 80.8906C29.9414 80.9635 30.0234 81 30.1875 81C30.5339 81 31.181 80.9635 32.1289 80.8906C33.0768 80.7995 33.7148 80.7266 34.043 80.6719C34.5169 80.6172 34.8451 80.5625 35.0273 80.5078C35.2279 80.4531 35.5195 80.5898 35.9023 80.918C36.3581 81.3008 36.4583 81.5469 36.2031 81.6562C36.0573 81.7292 35.7747 81.7656 35.3555 81.7656H34.2617C34.0247 81.7656 33.651 81.7839 33.1406 81.8203C32.8307 81.8203 32.4844 81.8294 32.1016 81.8477C31.7188 81.8659 31.3997 81.8841 31.1445 81.9023C30.8529 81.9206 30.2878 81.9753 29.4492 82.0664L29.1211 82.1484ZM40.7422 70.0898C40.9609 70.0898 41.0703 70.1901 41.0703 70.3906C41.0703 70.5 40.9701 70.6549 40.7695 70.8555C40.2227 71.5299 39.138 72.8151 37.5156 74.7109C37.388 74.875 37.2695 74.957 37.1602 74.957C37.069 74.957 36.8685 74.8203 36.5586 74.5469C36.3034 74.3281 36.1758 74.1458 36.1758 74C36.1758 73.8359 36.3125 73.681 36.5859 73.5352C37.0052 73.2982 37.6341 72.8242 38.4727 72.1133C39.3112 71.3659 39.931 70.7734 40.332 70.3359C40.4961 70.1719 40.6328 70.0898 40.7422 70.0898ZM10.418 74.8477C10.6367 74.957 10.8099 75.0664 10.9375 75.1758L11.1562 75.5039C11.1562 75.6497 11.1289 75.7956 11.0742 75.9414C11.0195 76.0872 10.974 76.2422 10.9375 76.4062C10.901 76.5703 10.8737 76.7253 10.8555 76.8711V77.6094L10.8281 79.7148C10.8281 79.8424 10.8372 79.9701 10.8555 80.0977L11.1562 80.4531L12.1953 79.9883L14.8477 79.0039C14.8841 79.1315 14.793 79.2682 14.5742 79.4141L12.8242 80.7539C12.3867 81.082 12.0221 81.3737 11.7305 81.6289C11.4206 81.8841 11.1745 82.112 10.9922 82.3125L10.3086 83.0508L10.0352 83.2695C9.90755 83.2695 9.78906 83.2148 9.67969 83.1055C9.55208 83.0326 9.43359 82.8776 9.32422 82.6406C9.19661 82.4036 9.10547 82.2031 9.05078 82.0391V81.5195C9.16016 81.2643 9.23307 81.0638 9.26953 80.918L9.40625 80.3164C9.44271 80.0977 9.47005 79.8607 9.48828 79.6055V77.3633C9.48828 76.4154 9.44271 75.832 9.35156 75.6133L9.13281 74.957L8.72266 74.7656C8.57682 74.9661 8.44922 75.2122 8.33984 75.5039C8.2487 75.7773 8.06641 76.1966 7.79297 76.7617C7.53776 77.3451 7.24609 77.8828 6.91797 78.375C6.58984 78.8854 6.23438 79.3229 5.85156 79.6875C5.46875 80.0703 5.04036 80.444 4.56641 80.8086C4.07422 81.1732 3.67318 81.4193 3.36328 81.5469L2.51562 81.7383C2.4974 81.6107 2.53385 81.5104 2.625 81.4375L3.08984 81.082C3.27214 80.9727 3.5638 80.7083 3.96484 80.2891C4.36589 79.888 4.67578 79.5599 4.89453 79.3047C5.11328 79.0495 5.3776 78.6758 5.6875 78.1836C6.01562 77.6914 6.29818 77.1992 6.53516 76.707C6.79036 76.1966 6.99089 75.6953 7.13672 75.2031C7.28255 74.7109 7.41927 74.1549 7.54688 73.5352C7.67448 72.9154 7.75651 72.3867 7.79297 71.9492C7.82943 71.6211 7.84766 71.3294 7.84766 71.0742L7.79297 70.0078C7.70182 69.862 7.61068 69.7344 7.51953 69.625L7.35547 69.3789L7.38281 69.1328C7.49219 69.0781 7.63802 69.0508 7.82031 69.0508H8.39453C8.61328 69.0508 8.99609 69.0326 9.54297 68.9961L12.3867 68.75C13.043 68.6953 13.6628 68.6315 14.2461 68.5586L15.9141 68.3398C16.4427 68.2669 16.8438 68.1849 17.1172 68.0938L17.582 67.957C17.7643 67.957 17.9466 67.9753 18.1289 68.0117L18.5664 68.1484C18.8763 68.2396 19.0859 68.3398 19.1953 68.4492L19.25 68.832C19.1224 68.9049 19.0039 68.9505 18.8945 68.9688L17.7461 69.1328C16.9622 69.2604 16.1055 69.3607 15.1758 69.4336C14.2279 69.5065 13.1341 69.5977 11.8945 69.707L9.48828 69.8984L9.70703 70.3086C9.72526 70.418 9.6888 70.5547 9.59766 70.7188C9.52474 70.8828 9.47005 71.0286 9.43359 71.1562L9.32422 71.5938C9.79818 71.5755 10.2266 71.5573 10.6094 71.5391C10.9922 71.5026 11.6576 71.4023 12.6055 71.2383C13.5534 71.056 14.2461 70.9375 14.6836 70.8828C15.1211 70.8099 15.4857 70.7096 15.7773 70.582L16.2969 70.3906C16.4792 70.3724 16.6797 70.3906 16.8984 70.4453C17.1172 70.5 17.3086 70.5547 17.4727 70.6094C17.6185 70.6641 17.7643 70.737 17.9102 70.8281L17.9375 71.3203L17.2539 71.457L11.8398 72.3047C11.5117 72.3594 11.2018 72.4232 10.9102 72.4961L10.3906 72.5781C10.1719 72.5781 9.89844 72.5234 9.57031 72.4141L9.1875 72.2773L8.99609 73.0977L8.77734 74.1094L17.0898 73.0703C17.6185 73.0156 18.0833 72.9336 18.4844 72.8242C18.8672 72.7148 19.1315 72.6602 19.2773 72.6602C19.4232 72.6602 19.5872 72.6966 19.7695 72.7695C19.9518 72.8424 20.125 72.9062 20.2891 72.9609C20.4531 73.0339 20.6445 73.1341 20.8633 73.2617L21.1641 73.5352L21.1094 73.7812C21.0182 73.8724 20.8451 73.918 20.5898 73.918L20.0156 73.9453C19.2318 73.9635 18.1836 74.0273 16.8711 74.1367C15.5586 74.2461 14.5378 74.3555 13.8086 74.4648L11.7031 74.7383L10.5273 74.8477H10.418ZM10.6914 61.5586C10.6549 61.2305 10.6276 60.9661 10.6094 60.7656C10.5911 60.5651 10.5638 60.3737 10.5273 60.1914C10.4727 60.0273 10.3997 59.8268 10.3086 59.5898L10.0078 58.8789C10.0625 58.7695 10.1992 58.6966 10.418 58.6602H10.6641C10.8828 58.6966 11.138 58.7604 11.4297 58.8516C11.7031 58.9427 11.9128 59.043 12.0586 59.1523L12.25 59.3984C12.2682 59.526 12.2409 59.7266 12.168 60C12.1133 60.1641 12.0768 60.4648 12.0586 60.9023V61.3945C12.7331 61.3216 13.1341 61.276 13.2617 61.2578L14.6289 61.0117V60.2734C14.6289 60.1458 14.6198 59.918 14.6016 59.5898C14.5833 59.2617 14.5378 58.9883 14.4648 58.7695L14.3555 58.4141L14.4375 58.1953C14.5286 58.1042 14.6654 58.0586 14.8477 58.0586C15.0117 58.0768 15.2487 58.1315 15.5586 58.2227C15.8503 58.332 16.0964 58.4596 16.2969 58.6055C16.4974 58.7695 16.5977 58.9518 16.5977 59.1523L16.4336 59.4805C16.3242 59.6628 16.2513 59.8359 16.2148 60L16.1055 60.7109C16.6341 60.6016 17.0169 60.5104 17.2539 60.4375C17.5091 60.3646 17.7917 60.2643 18.1016 60.1367C18.4115 60.0273 18.6576 59.9635 18.8398 59.9453C19.0221 59.9453 19.2135 59.9909 19.4141 60.082C19.6146 60.1549 19.8242 60.2552 20.043 60.3828C20.2617 60.4922 20.4714 60.6107 20.6719 60.7383C20.8724 60.8841 21.0273 61.0299 21.1367 61.1758L21.2734 61.5586C21.2552 61.668 21.1914 61.7773 21.082 61.8867L20.7266 62.4062L20.4531 62.8164C20.3984 62.9258 20.2982 63.181 20.1523 63.582L19.4414 65.5781C19.1497 66.362 18.9401 66.8268 18.8125 66.9727C18.6849 67.1185 18.5026 67.2461 18.2656 67.3555L18.0195 67.3281C17.8555 67.237 17.7279 67.0911 17.6367 66.8906L8.91406 67.7656L8.61328 67.9297L8.39453 67.8477C8.28516 67.7018 8.21224 67.5742 8.17578 67.4648C8.13932 67.3555 8.04818 66.9089 7.90234 66.125L7.46484 63.5273C7.39193 63.1263 7.27344 62.8346 7.10938 62.6523L6.5625 62.0508L6.61719 61.668C6.81771 61.6497 7.03646 61.6497 7.27344 61.668L8.06641 61.75L10.6367 61.5586H10.6914ZM10.9648 63.8828L10.8008 62.3242L8.61328 62.4883L8.77734 64.1562L10.9648 63.8828ZM8.88672 65.0039L9.13281 66.7266L11.2656 66.5352L11.0742 64.8398L8.88672 65.0039ZM12.1133 62.1875L12.168 63.7461L14.5469 63.4453L14.6289 61.832C13.918 61.9232 13.4987 61.9779 13.3711 61.9961L12.1133 62.1875ZM12.332 66.3984L14.4375 66.125L14.4648 64.457L12.25 64.7305L12.332 66.3984ZM15.4492 65.9062L16.5977 65.7695C16.8893 65.7331 17.099 65.7148 17.2266 65.7148L17.6094 65.9062L18.4023 63.8555L17.8555 63.9648L15.6953 64.293L15.4492 65.9062ZM15.832 63.1992C16.1966 63.1263 16.5156 63.0716 16.7891 63.0352C16.9896 62.9987 17.2083 62.9805 17.4453 62.9805L18.0195 63.1172L18.5664 63.2539L18.7852 62.3242C18.8398 62.0872 18.8581 61.8685 18.8398 61.668C18.8034 61.5221 18.6393 61.3854 18.3477 61.2578C18.1289 61.2396 17.9284 61.2487 17.7461 61.2852L16.0508 61.6133L15.832 63.1992ZM17.0898 77.3633L17.8008 76.5977C18.0013 76.3789 18.1836 76.1602 18.3477 75.9414C18.5299 75.7227 18.6667 75.5039 18.7578 75.2852L18.9492 74.793L19.25 74.5195C19.3958 74.5013 19.5508 74.5469 19.7148 74.6562L20.125 74.957C20.362 75.1211 20.5534 75.2852 20.6992 75.4492L20.8633 75.832C20.8268 75.9596 20.7539 76.0508 20.6445 76.1055C20.5352 76.1419 20.3529 76.1966 20.0977 76.2695C19.8424 76.3424 19.6328 76.4336 19.4688 76.543L17.3906 77.6094C17.7188 77.9193 18.0013 78.1654 18.2383 78.3477C18.4935 78.5482 18.9036 78.8307 19.4688 79.1953C20.0339 79.5781 20.5352 79.8789 20.9727 80.0977C21.4102 80.3346 21.793 80.5169 22.1211 80.6445L23.3516 81.0547L24.7461 81.4648L25.3477 81.6289L25.5117 82.0391L24.7461 82.2578C24.2174 82.3854 23.8529 82.4766 23.6523 82.5312C23.4336 82.5859 23.1146 82.6497 22.6953 82.7227C22.276 82.7956 21.9206 82.8411 21.6289 82.8594C21.4284 82.8594 21.2734 82.832 21.1641 82.7773C21.0182 82.7409 20.8268 82.6315 20.5898 82.4492C20.3711 82.2669 20.0977 81.9935 19.7695 81.6289L18.5117 80.3164L17.2812 79.0039C16.3516 77.9831 15.8229 77.418 15.6953 77.3086C15.5677 77.1992 15.2852 76.9805 14.8477 76.6523C14.4102 76.306 14.0729 76.0964 13.8359 76.0234L13.3438 75.668C13.362 75.5586 13.5169 75.4766 13.8086 75.4219C14.082 75.4036 14.3281 75.4401 14.5469 75.5312C14.7474 75.6224 15.0117 75.7956 15.3398 76.0508L17.0898 77.3633ZM74.8398 69.9531C74.5482 69.9531 74.3659 69.8711 74.293 69.707C74.2018 69.4883 74.1107 69.306 74.0195 69.1602C73.9284 68.9961 73.7643 68.8047 73.5273 68.5859L73.582 68.4766C74.2383 68.7135 74.6667 68.832 74.8672 68.832C75.013 68.832 75.1224 68.8047 75.1953 68.75C75.2682 68.6953 75.3867 68.5677 75.5508 68.3672C75.7878 68.112 76.0065 67.7201 76.207 67.1914C76.4805 66.4076 76.6536 65.5964 76.7266 64.7578V64.6758C76.7266 64.5664 76.7083 64.4935 76.6719 64.457C76.4349 64.457 75.806 64.5117 74.7852 64.6211C74.2201 66.0247 73.5638 67.1823 72.8164 68.0938C72.0872 68.987 71.4219 69.4336 70.8203 69.4336C70.6745 69.4336 70.6016 69.3789 70.6016 69.2695C70.6016 69.2331 70.7839 69.0234 71.1484 68.6406C71.513 68.2578 71.9141 67.7565 72.3516 67.1367C72.8073 66.4987 73.2357 65.7148 73.6367 64.7852C73.5456 64.7852 73.2812 64.8034 72.8438 64.8398C72.4062 64.8763 72.0326 64.9401 71.7227 65.0312C71.5768 65.1406 71.4219 65.1589 71.2578 65.0859C71.2578 65.0859 71.2396 65.0768 71.2031 65.0586C71.1667 65.0404 71.1302 65.013 71.0938 64.9766C70.9661 64.9036 70.8568 64.8125 70.7656 64.7031C70.6927 64.5755 70.6562 64.457 70.6562 64.3477C70.6562 64.293 70.7018 64.2201 70.793 64.1289L71.1211 63.6914C71.2305 63.5456 71.3307 63.3359 71.4219 63.0625C71.513 62.7708 71.5586 62.5247 71.5586 62.3242C71.5586 62.1966 71.5495 62.1146 71.5312 62.0781C71.513 62.0417 71.5039 61.9961 71.5039 61.9414C71.5039 61.8503 71.5495 61.8047 71.6406 61.8047C71.75 61.8047 71.9049 61.8685 72.1055 61.9961C72.1602 62.0326 72.2604 62.1055 72.4062 62.2148C72.5703 62.306 72.6615 62.4154 72.6797 62.543C72.6797 62.6706 72.6068 62.8802 72.4609 63.1719L72.1055 63.8008C72.069 63.8555 72.0508 63.9193 72.0508 63.9922C72.0508 64.0469 72.069 64.0924 72.1055 64.1289C72.1602 64.1471 72.224 64.1471 72.2969 64.1289L73.9375 63.9102C74.1198 63.4362 74.2656 62.9349 74.375 62.4062V62.2422V61.7773C74.375 61.5768 74.4297 61.4948 74.5391 61.5312C74.776 61.5859 74.9674 61.6589 75.1133 61.75C75.3867 61.9141 75.5234 62.0508 75.5234 62.1602C75.5234 62.2513 75.487 62.4062 75.4141 62.625C75.3594 62.8255 75.3138 62.9805 75.2773 63.0898C75.2591 63.1628 75.1771 63.3997 75.0312 63.8008C75.0859 63.8008 75.4232 63.7643 76.043 63.6914L76.3164 63.6367C76.3711 63.6367 76.4714 63.6185 76.6172 63.582C76.6536 63.5638 76.6992 63.5547 76.7539 63.5547C76.9727 63.5547 77.1094 63.5638 77.1641 63.582C77.237 63.6003 77.3464 63.6549 77.4922 63.7461C77.6562 63.8555 77.7656 63.9648 77.8203 64.0742C77.875 64.1836 77.8932 64.3112 77.875 64.457L77.7109 65.3594L77.5195 66.3438C77.5195 66.4167 77.4557 66.6536 77.3281 67.0547C77.2005 67.4557 77.0547 67.8112 76.8906 68.1211C76.5807 68.7409 76.2161 69.2057 75.7969 69.5156C75.4323 69.8073 75.1133 69.9531 74.8398 69.9531ZM71.2852 76.1602C71.0846 76.1602 70.8385 76.0052 70.5469 75.6953C70.3281 75.4766 70.2188 75.3125 70.2188 75.2031C70.2188 75.1484 70.2552 75.1211 70.3281 75.1211C70.401 75.1029 70.4922 75.0938 70.6016 75.0938L71.2031 75.0664C71.5495 75.0664 71.7773 75.0573 71.8867 75.0391C72.2331 75.0391 72.5247 75.0299 72.7617 75.0117C74.3294 74.8659 75.3867 74.7474 75.9336 74.6562C76.207 74.6198 76.4531 74.5833 76.6719 74.5469C76.8906 74.4922 77.0638 74.4648 77.1914 74.4648C77.4466 74.4648 77.7018 74.5924 77.957 74.8477C78.1576 75.0482 78.2578 75.2122 78.2578 75.3398C78.2578 75.4492 78.194 75.5221 78.0664 75.5586C77.9753 75.5768 77.4375 75.6133 76.4531 75.668C75.9062 75.6862 75.2318 75.7318 74.4297 75.8047C73.6276 75.8776 72.9258 75.9505 72.3242 76.0234C72.2148 76.0417 72.0599 76.069 71.8594 76.1055C71.6589 76.1419 71.4674 76.1602 71.2852 76.1602ZM79.2422 69.2695C79.3333 69.2695 79.4701 69.3333 79.6523 69.4609C79.6341 69.4974 79.6706 69.5703 79.7617 69.6797C79.8529 69.7708 79.9167 69.8346 79.9531 69.8711C80.0443 69.9622 80.1354 70.0716 80.2266 70.1992C80.3359 70.3268 80.4544 70.4635 80.582 70.6094C80.9102 70.9557 81.6667 71.8581 82.8516 73.3164C83.0521 73.6081 83.1523 73.7812 83.1523 73.8359C83.1523 74.0182 83.043 74.1094 82.8242 74.1094C82.6966 74.1094 82.5599 74.0182 82.4141 73.8359C82.0677 73.4714 81.4479 72.8971 80.5547 72.1133C79.862 71.4753 79.2331 70.9831 78.668 70.6367C78.3945 70.5091 78.2578 70.3633 78.2578 70.1992C78.2578 70.0716 78.3945 69.8893 78.668 69.6523C78.9232 69.3971 79.1146 69.2695 79.2422 69.2695ZM49.3008 62.3789C49.1185 62.306 48.9544 62.2148 48.8086 62.1055L48.6992 61.75C48.8086 61.6589 48.9362 61.6042 49.082 61.5859L50.5859 61.4219L58.3789 60.3555C59.2357 60.2461 59.9831 60.1367 60.6211 60.0273L62.0977 59.7539C62.5898 59.681 62.9453 59.6172 63.1641 59.5625C63.401 59.526 63.5924 59.4987 63.7383 59.4805C63.957 59.4805 64.194 59.526 64.4492 59.6172C64.7044 59.6901 64.9323 59.7904 65.1328 59.918C65.3333 60.0273 65.4974 60.1641 65.625 60.3281L65.7617 60.6836C65.7253 60.8294 65.543 60.9206 65.2148 60.957L63.7383 61.0117L60.1836 61.2305C60.0742 61.2487 59.3997 61.3216 58.1602 61.4492C56.9206 61.5951 56.2279 61.6771 56.082 61.6953L51.5977 62.543L51.7891 62.9258C51.7344 63.0716 51.6706 63.2266 51.5977 63.3906C51.5247 63.5547 51.4609 63.7096 51.4062 63.8555L51.3516 64.2109C51.3151 64.4115 51.2878 64.6029 51.2695 64.7852L51.1055 66.1523L50.832 68.0938C50.6862 69.1328 50.5586 69.9076 50.4492 70.418C50.3581 70.9284 50.2305 71.5026 50.0664 72.1406C49.8841 72.7786 49.6289 73.5807 49.3008 74.5469C48.9727 75.513 48.6445 76.306 48.3164 76.9258C47.9883 77.5456 47.6237 78.1107 47.2227 78.6211C46.8216 79.1315 46.4753 79.5234 46.1836 79.7969L45.4727 80.4258L44.9258 80.6172L45.1445 80.1797L45.6094 79.4961C45.8646 79.0951 46.1289 78.6576 46.4023 78.1836C46.6758 77.7096 46.9674 77.1263 47.2773 76.4336C47.569 75.7409 47.8242 75.0846 48.043 74.4648C48.2435 73.8268 48.4349 73.1159 48.6172 72.332C48.7995 71.5299 48.9635 70.7188 49.1094 69.8984C49.2734 69.0781 49.3828 68.3581 49.4375 67.7383C49.5104 67.1185 49.5742 66.5078 49.6289 65.9062C49.6654 65.3047 49.6927 64.7578 49.7109 64.2656C49.7109 63.9193 49.7018 63.6732 49.6836 63.5273C49.6471 63.1992 49.5742 62.944 49.4648 62.7617L49.3008 62.3789ZM54.1133 67.5469C53.8216 67.5833 53.5573 67.6198 53.3203 67.6562L52.8828 67.7109C52.6823 67.7292 52.5091 67.7383 52.3633 67.7383C52.1263 67.7383 51.9258 67.7109 51.7617 67.6562L51.3789 67.4648L51.4336 67.2461C51.5247 67.1732 51.707 67.1094 51.9805 67.0547L54.4961 66.6445C54.4596 66.1341 54.4414 65.8151 54.4414 65.6875L54.2773 64.9219L53.457 65.2227C53.2018 65.2956 52.9648 65.3685 52.7461 65.4414L52.0352 65.332L52.7461 64.9492L53.3477 64.6211L54.332 64.0742L55.0977 63.582C55.3164 63.4362 55.4896 63.2904 55.6172 63.1445C55.7448 63.0352 55.8451 62.8984 55.918 62.7344L56.1641 62.4336C56.2734 62.4154 56.4102 62.4336 56.5742 62.4883L57.2031 62.7891C57.4036 62.8802 57.5586 62.9987 57.668 63.1445L57.75 63.5273L57.3672 63.6914C57.1302 63.7643 56.9388 63.8372 56.793 63.9102L55.9727 64.293L55.207 64.6211C55.444 64.7305 55.6263 64.8307 55.7539 64.9219C55.8815 65.0312 55.9544 65.1589 55.9727 65.3047L55.8633 65.8516L55.7539 66.3711C56.1185 66.2982 56.3919 66.2617 56.5742 66.2617C56.7747 66.2617 56.9935 66.2799 57.2305 66.3164C57.4492 66.3711 57.6133 66.4349 57.7227 66.5078L57.832 66.7266C57.832 66.8724 57.6133 66.9727 57.1758 67.0273L55.6445 67.2461V68.0117C55.8633 68.0846 56.1185 68.1576 56.4102 68.2305C56.7018 68.3034 56.9388 68.3763 57.1211 68.4492C57.3034 68.5221 57.4583 68.6224 57.5859 68.75C57.7318 68.8776 57.832 69.0872 57.8867 69.3789L57.8594 69.707C57.7682 69.8893 57.6497 69.9987 57.5039 70.0352C57.3763 70.0352 57.2669 69.9987 57.1758 69.9258C57.0664 69.8529 56.9388 69.7253 56.793 69.543L56.0273 68.7773L55.6445 68.3945L55.6172 70.8008L55.6445 71.9219C55.6445 72.3047 55.5625 72.6237 55.3984 72.8789L55.0703 73.2617C54.9427 73.2617 54.8242 73.2161 54.7148 73.125C54.569 72.9974 54.4414 72.806 54.332 72.5508L54.168 72.0859C54.168 71.9219 54.1862 71.7122 54.2227 71.457C54.2956 71.2018 54.3503 70.8737 54.3867 70.4727L54.4961 69.3242C54.3503 69.4701 54.1862 69.6523 54.0039 69.8711L53.2656 70.582C52.9557 70.8737 52.6367 71.1289 52.3086 71.3477L51.543 71.7852L50.9688 72.0586L50.4766 72.0312L50.832 71.6758L51.2148 71.3203L51.9805 70.582C52.1992 70.3451 52.5182 69.9622 52.9375 69.4336C53.3568 68.9049 53.6029 68.5586 53.6758 68.3945L54.1133 67.5469ZM61.0859 67.0547L60.1016 67.3281C59.901 67.3828 59.7188 67.4466 59.5547 67.5195L59.2539 67.6289C59.0898 67.6289 58.9258 67.6016 58.7617 67.5469L58.4336 67.4375C58.2878 67.3464 58.151 67.1914 58.0234 66.9727L58.4336 66.8359L61.332 66.2617V65.2773C61.332 64.9128 61.2865 64.5846 61.1953 64.293C60.8672 64.293 60.5573 64.3385 60.2656 64.4297C59.9922 64.5026 59.7461 64.5573 59.5273 64.5938L58.9805 64.7031L58.5156 64.5664L59.0898 64.2656L60.1016 63.7734C60.3568 63.6458 60.694 63.4544 61.1133 63.1992C61.5508 62.9622 61.8698 62.7526 62.0703 62.5703C62.2708 62.3698 62.4167 62.1966 62.5078 62.0508L62.8359 61.8047C63.1823 61.8229 63.474 61.8776 63.7109 61.9688C63.9479 62.0599 64.1393 62.1693 64.2852 62.2969L64.5039 62.9258C64.4128 62.9987 64.2852 63.0534 64.1211 63.0898C63.9388 63.1081 63.7474 63.1628 63.5469 63.2539L62.8633 63.5273L62.3711 63.7461C62.5352 63.8555 62.6628 63.9648 62.7539 64.0742C62.8268 64.1836 62.8724 64.3203 62.8906 64.4844C62.8906 64.612 62.8633 64.7669 62.8086 64.9492L62.6992 65.3867L62.6445 65.9336L64.1758 65.5508C64.4492 65.4779 64.6862 65.4414 64.8867 65.4414C65.1055 65.4414 65.3607 65.4779 65.6523 65.5508C65.944 65.6602 66.1628 65.7878 66.3086 65.9336L66.5273 66.207C66.4909 66.3164 66.3997 66.3893 66.2539 66.4258C66.1081 66.4622 65.944 66.4896 65.7617 66.5078C65.5794 66.5078 65.2878 66.5169 64.8867 66.5352C64.4857 66.5534 64.1758 66.5716 63.957 66.5898L62.5078 66.8086V67.6289L63.8203 68.1484C64.2214 68.3125 64.5951 68.4766 64.9414 68.6406C65.306 68.8047 65.6797 69.0234 66.0625 69.2969C66.4453 69.5703 66.7096 69.8529 66.8555 70.1445C67.0013 70.418 67.0742 70.6641 67.0742 70.8828C67.056 71.0833 67.0013 71.2292 66.9102 71.3203C66.819 71.4115 66.6823 71.4661 66.5 71.4844C66.3177 71.4844 66.0898 71.3659 65.8164 71.1289C65.5977 70.9831 65.3698 70.8008 65.1328 70.582C64.8958 70.3815 64.668 70.1719 64.4492 69.9531L62.5078 68.1211L62.5352 69.543L62.5898 71.6758C62.5534 71.8216 62.5078 71.9492 62.4531 72.0586C62.3984 72.168 62.2982 72.3138 62.1523 72.4961L61.6602 72.6875C61.5143 72.5599 61.3867 72.3685 61.2773 72.1133C61.1497 71.8763 61.0768 71.6667 61.0586 71.4844L61.168 70.8828C61.2409 70.5547 61.2773 70.181 61.2773 69.7617L61.332 69.0508L60.4844 69.8711C60.2109 70.1628 59.9557 70.3997 59.7188 70.582C59.4818 70.8008 59.1263 71.0378 58.6523 71.293C58.1784 71.5482 57.8867 71.694 57.7773 71.7305L57.2305 71.9766L56.9023 71.8398L57.5586 71.293C57.832 71.056 58.1784 70.7279 58.5977 70.3086C59.0352 69.8711 59.4271 69.4427 59.7734 69.0234C60.1198 68.5859 60.3841 68.2305 60.5664 67.957L61.0859 67.0547ZM54.7695 80.9727L54.6602 81.6562C54.6055 82.0938 54.4779 82.3125 54.2773 82.3125C54.0768 82.2943 53.9036 82.194 53.7578 82.0117C53.612 81.8294 53.4844 81.556 53.375 81.1914C53.3021 80.8815 53.2656 80.6081 53.2656 80.3711L53.4297 79.8516C53.5391 79.5599 53.6211 79.2135 53.6758 78.8125C53.7305 78.4297 53.7669 78.056 53.7852 77.6914V76.0781C53.7852 75.9141 53.7669 75.668 53.7305 75.3398C53.6758 74.9935 53.6029 74.7109 53.5117 74.4922L53.4023 74.1094C53.4388 73.9453 53.5573 73.8451 53.7578 73.8086C53.9401 73.7904 54.1133 73.8268 54.2773 73.918L54.9336 74.2461C55.8633 74.1185 56.5651 74.0091 57.0391 73.918L59.0352 73.5898C59.5456 73.5169 60.0195 73.4167 60.457 73.2891L61.2227 73.0977C61.4049 73.0977 61.6693 73.1615 62.0156 73.2891C62.362 73.4167 62.6628 73.5898 62.918 73.8086L63.3008 74.2188C63.3008 74.3464 63.2279 74.5469 63.082 74.8203C63.0091 75.0026 62.9544 75.349 62.918 75.8594V76.8711L63.0273 78.9492L63.1914 80.3984C63.1914 80.7266 63.1549 81.0182 63.082 81.2734C63.0091 81.5469 62.8997 81.8112 62.7539 82.0664C62.6081 82.3216 62.444 82.5404 62.2617 82.7227C62.0794 82.9049 61.9154 82.9961 61.7695 82.9961C61.6237 82.9779 61.4779 82.8503 61.332 82.6133L61.0586 81.9844L60.457 80.7812C59.8008 80.7995 59.3268 80.8086 59.0352 80.8086L56.4648 80.918L54.7695 80.9727ZM54.8516 79.9883L57.9414 79.8242L59.1445 79.7148C59.5273 79.6784 59.8646 79.6602 60.1562 79.6602C60.5208 79.6784 60.7578 79.7057 60.8672 79.7422L61.3867 79.9336C61.3867 79.6055 61.4049 79.3229 61.4414 79.0859V78.7031L61.4961 77.3086L60.9219 77.418C60.7214 77.4544 60.457 77.5 60.1289 77.5547C59.8008 77.6094 59.2721 77.6732 58.543 77.7461C57.7956 77.8372 57.1758 77.9102 56.6836 77.9648C56.3372 78.0195 56.0365 78.0469 55.7812 78.0469L54.9062 77.9375L54.8516 79.9883ZM54.9336 77.2266C55.3711 77.1719 55.7174 77.1354 55.9727 77.1172C56.2279 77.099 56.7018 77.0352 57.3945 76.9258C58.0872 76.8164 58.625 76.7253 59.0078 76.6523C59.3906 76.5794 59.6549 76.5339 59.8008 76.5156C59.9648 76.4974 60.1198 76.4883 60.2656 76.4883C60.5391 76.4883 60.7487 76.5247 60.8945 76.5977L61.4961 76.8438V75.8047C61.4961 75.112 61.4505 74.7109 61.3594 74.6016C61.2682 74.4922 61.0495 74.4102 60.7031 74.3555C60.4661 74.3555 60.0013 74.3828 59.3086 74.4375L58.0508 74.5469L56.9023 74.7109L55.043 74.957L54.9336 77.2266ZM113.285 72.0586C113.085 72.0586 112.839 71.9036 112.547 71.5938C112.328 71.375 112.219 71.2109 112.219 71.1016C112.219 71.0469 112.255 71.0195 112.328 71.0195C112.401 71.0013 112.492 70.9922 112.602 70.9922L113.203 70.9648C113.549 70.9648 113.777 70.9557 113.887 70.9375C114.233 70.9375 114.525 70.9284 114.762 70.9102C116.329 70.7643 117.387 70.6458 117.934 70.5547C118.207 70.5182 118.453 70.4818 118.672 70.4453C118.891 70.3906 119.064 70.3633 119.191 70.3633C119.447 70.3633 119.702 70.4909 119.957 70.7461C120.158 70.9466 120.258 71.1107 120.258 71.2383C120.258 71.3477 120.194 71.4206 120.066 71.457C119.975 71.4753 119.438 71.5117 118.453 71.5664C117.906 71.5846 117.232 71.6302 116.43 71.7031C115.628 71.776 114.926 71.849 114.324 71.9219C114.215 71.9401 114.06 71.9674 113.859 72.0039C113.659 72.0404 113.467 72.0586 113.285 72.0586ZM87.6914 70.3633L88.293 70.3086L88.8125 70.2539L90.6445 70.1172L92.4766 69.8711L95.8945 69.4336L99.3945 69.0781C100.889 68.9141 101.883 68.8138 102.375 68.7773C102.867 68.7227 103.314 68.668 103.715 68.6133C104.116 68.5768 104.553 68.5039 105.027 68.3945C105.501 68.3216 105.839 68.2852 106.039 68.2852C106.422 68.2852 106.878 68.4219 107.406 68.6953C107.935 68.9505 108.299 69.1784 108.5 69.3789L108.801 69.7344L108.855 69.9531C108.819 70.1354 108.728 70.263 108.582 70.3359C108.436 70.3906 108.254 70.418 108.035 70.418C107.871 70.4362 107.616 70.4453 107.27 70.4453C106.941 70.4453 106.531 70.4362 106.039 70.418C105.055 70.3815 104.28 70.3633 103.715 70.3633C102.475 70.3633 101.154 70.418 99.75 70.5273C98.3464 70.6367 97.1159 70.7461 96.0586 70.8555C95.0013 70.9831 94.2083 71.1016 93.6797 71.2109C93.151 71.3203 92.5677 71.457 91.9297 71.6211C91.2917 71.7852 90.7904 71.931 90.4258 72.0586C90.0612 72.1862 89.7878 72.25 89.6055 72.25C89.3503 72.25 89.1315 72.2044 88.9492 72.1133C88.7305 72.0039 88.4844 71.8672 88.2109 71.7031C87.9375 71.5208 87.737 71.375 87.6094 71.2656C87.4818 71.138 87.3542 70.9284 87.2266 70.6367C87.2812 70.4909 87.4362 70.3997 87.6914 70.3633ZM155.887 68.4492C155.285 68.2305 155.003 67.9935 155.039 67.7383C155.148 66.9727 155.203 66.0977 155.203 65.1133C155.203 64.6758 155.194 64.3568 155.176 64.1562C155.158 63.9193 155.139 63.7188 155.121 63.5547C155.103 63.3724 155.103 63.2721 155.121 63.2539C155.194 63.181 155.285 63.1445 155.395 63.1445C155.559 63.1445 155.759 63.2174 155.996 63.3633C156.251 63.5091 156.379 63.6549 156.379 63.8008C156.379 63.8919 156.37 63.9831 156.352 64.0742C156.333 64.1471 156.324 64.2292 156.324 64.3203L156.16 67.0273C156.16 67.1732 156.215 67.2643 156.324 67.3008H156.461C156.607 67.3008 156.707 67.2917 156.762 67.2734L160.289 66.7812V66.0703C160.289 65.1771 160.271 64.4844 160.234 63.9922C160.216 63.5729 160.171 63.2357 160.098 62.9805C160.043 62.6888 160.116 62.543 160.316 62.543C160.462 62.543 160.654 62.5977 160.891 62.707C161.182 62.8529 161.355 62.9805 161.41 63.0898C161.465 63.181 161.483 63.3268 161.465 63.5273C161.428 63.8555 161.41 64.3477 161.41 65.0039L161.438 67.082C161.438 67.5195 161.355 67.8659 161.191 68.1211C161.1 68.2305 161.009 68.2852 160.918 68.2852C160.827 68.2852 160.699 68.2031 160.535 68.0391C160.499 68.0026 160.453 67.9479 160.398 67.875C160.344 67.8021 160.289 67.7565 160.234 67.7383C160.18 67.7201 160.107 67.7109 160.016 67.7109C159.596 67.7474 158.585 67.8841 156.98 68.1211C156.707 68.1576 156.488 68.2305 156.324 68.3398C156.142 68.431 156.023 68.4766 155.969 68.4766L155.887 68.4492ZM158.949 79.5234C158.384 79.5234 157.947 79.5052 157.637 79.4688C157.345 79.4323 157.099 79.3229 156.898 79.1406C156.552 78.8854 156.315 78.3294 156.188 77.4727L156.105 76.5977C156.105 76.3789 156.087 76.1055 156.051 75.7773C155.759 75.8138 155.549 75.8503 155.422 75.8867C155.385 75.9049 155.322 75.9323 155.23 75.9688C155.158 75.987 155.103 75.9961 155.066 75.9961C154.939 75.9961 154.82 75.9596 154.711 75.8867C154.602 75.8138 154.465 75.6771 154.301 75.4766C154.173 75.3125 154.109 75.2031 154.109 75.1484C154.109 75.0938 154.173 75.0573 154.301 75.0391C154.428 75.0208 154.602 75.0117 154.82 75.0117C155.13 75.0117 155.531 74.9753 156.023 74.9023L155.996 74.5195C155.996 73.7904 155.951 73.1706 155.859 72.6602L155.832 72.4688C155.832 72.2135 155.932 72.1133 156.133 72.168C156.352 72.2409 156.552 72.332 156.734 72.4414C156.88 72.5143 156.98 72.5872 157.035 72.6602C157.09 72.7148 157.108 72.7969 157.09 72.9062L157.008 74.082V74.793L159.414 74.5469C159.414 74.4193 159.423 74.1185 159.441 73.6445C159.46 73.1523 159.46 72.8333 159.441 72.6875C159.441 72.5417 159.423 72.4049 159.387 72.2773C159.368 72.1315 159.35 72.013 159.332 71.9219C159.332 71.776 159.405 71.7031 159.551 71.7031C159.697 71.7031 159.879 71.7852 160.098 71.9492C160.353 72.1133 160.517 72.2591 160.59 72.3867C160.681 72.5143 160.699 72.6693 160.645 72.8516C160.553 73.1432 160.49 73.4714 160.453 73.8359C160.417 74.2005 160.398 74.4193 160.398 74.4922C160.617 74.474 160.818 74.4466 161 74.4102C161.182 74.3737 161.301 74.3555 161.355 74.3555C161.501 74.319 161.674 74.3008 161.875 74.3008C161.984 74.319 162.139 74.4284 162.34 74.6289C162.504 74.8477 162.586 75.0208 162.586 75.1484C162.586 75.3307 162.413 75.4036 162.066 75.3672C161.757 75.3125 161.447 75.2852 161.137 75.2852C160.827 75.2852 160.562 75.2943 160.344 75.3125C160.289 75.9688 160.18 76.6159 160.016 77.2539C159.979 77.3997 159.915 77.5273 159.824 77.6367C159.733 77.7279 159.651 77.7734 159.578 77.7734C159.451 77.7734 159.368 77.7279 159.332 77.6367C159.314 77.5273 159.305 77.3633 159.305 77.1445C159.341 76.6706 159.359 76.0781 159.359 75.3672C158.867 75.4036 158.484 75.4401 158.211 75.4766C157.792 75.5677 157.4 75.6224 157.035 75.6406C157.017 76.388 157.053 77.0534 157.145 77.6367C157.199 78.0195 157.309 78.2839 157.473 78.4297C157.582 78.5208 157.71 78.5755 157.855 78.5938C158.02 78.612 158.184 78.6211 158.348 78.6211C158.512 78.6211 158.621 78.6211 158.676 78.6211C159.241 78.6211 159.77 78.5938 160.262 78.5391C160.408 78.5208 160.535 78.4844 160.645 78.4297C160.772 78.375 160.863 78.3477 160.918 78.3477C161.082 78.3477 161.246 78.4023 161.41 78.5117C161.574 78.6211 161.656 78.7487 161.656 78.8945C161.656 79.0404 161.574 79.1497 161.41 79.2227C161.264 79.2956 161.027 79.3594 160.699 79.4141C160.116 79.487 159.533 79.5234 158.949 79.5234ZM163.242 69.2695C163.333 69.2695 163.47 69.3333 163.652 69.4609C163.634 69.4974 163.671 69.5703 163.762 69.6797C163.853 69.7708 163.917 69.8346 163.953 69.8711C164.044 69.9622 164.135 70.0716 164.227 70.1992C164.336 70.3268 164.454 70.4635 164.582 70.6094C164.91 70.9557 165.667 71.8581 166.852 73.3164C167.052 73.6081 167.152 73.7812 167.152 73.8359C167.152 74.0182 167.043 74.1094 166.824 74.1094C166.697 74.1094 166.56 74.0182 166.414 73.8359C166.068 73.4714 165.448 72.8971 164.555 72.1133C163.862 71.4753 163.233 70.9831 162.668 70.6367C162.395 70.5091 162.258 70.3633 162.258 70.1992C162.258 70.0716 162.395 69.8893 162.668 69.6523C162.923 69.3971 163.115 69.2695 163.242 69.2695ZM139.371 61.6133L142.816 61.0117C143.035 60.9753 143.409 60.8841 143.938 60.7383C144.466 60.6107 144.922 60.474 145.305 60.3281C145.688 60.1641 145.952 60.082 146.098 60.082C146.298 60.082 146.526 60.1367 146.781 60.2461C147.036 60.3555 147.319 60.5013 147.629 60.6836C147.921 60.8659 148.139 61.0299 148.285 61.1758L148.504 61.5312C148.522 61.6589 148.477 61.832 148.367 62.0508C148.148 62.4701 148.012 62.8529 147.957 63.1992C147.884 63.5638 147.848 64.2383 147.848 65.2227L147.684 75.7773L147.711 78.6758C147.693 79.2956 147.638 79.8424 147.547 80.3164C147.456 80.7539 147.337 81.1367 147.191 81.4648C147.046 81.7565 146.854 82.0391 146.617 82.3125C146.38 82.5859 146.161 82.7318 145.961 82.75C145.779 82.75 145.578 82.668 145.359 82.5039L145.004 82.1211C144.785 81.9023 144.384 81.556 143.801 81.082L142.816 80.3164L142.16 79.8516L141.969 79.6055C141.987 79.4779 142.087 79.4232 142.27 79.4414L142.816 79.5508L143.363 79.6602L144.211 79.8242C144.484 79.8789 144.703 79.9062 144.867 79.9062L145.141 79.8789C145.341 79.806 145.505 79.6693 145.633 79.4688C145.76 79.2682 145.842 79.0039 145.879 78.6758C145.915 78.3477 145.943 77.819 145.961 77.0898L146.098 71.7852C145.97 71.8581 145.824 71.931 145.66 72.0039C145.514 72.0768 145.259 72.1315 144.895 72.168L143.527 72.332L141.449 72.6602L140.355 72.8789C140.137 72.9154 139.927 72.9336 139.727 72.9336C139.435 72.9336 139.207 72.9154 139.043 72.8789L138.387 72.7148L138.086 74C137.995 74.3828 137.867 74.8112 137.703 75.2852C137.539 75.7227 137.302 76.2513 136.992 76.8711C136.682 77.4909 136.327 78.0469 135.926 78.5391C135.525 79.0312 135.124 79.4414 134.723 79.7695C134.34 80.0977 133.957 80.3893 133.574 80.6445C133.173 80.918 132.882 81.1094 132.699 81.2188L132.152 81.5195L131.852 81.6562L131.715 81.3555L132.234 80.8359C132.544 80.5625 132.882 80.2253 133.246 79.8242C133.611 79.4232 133.975 78.9766 134.34 78.4844C134.704 77.9922 135.069 77.4089 135.434 76.7344C135.78 76.0781 136.053 75.431 136.254 74.793C136.473 74.1732 136.655 73.4622 136.801 72.6602C136.947 71.8398 137.038 71.1289 137.074 70.5273C137.147 69.944 137.193 69.2513 137.211 68.4492L137.293 65.0586C137.293 64.4388 137.275 63.8646 137.238 63.3359C137.165 62.8073 137.092 62.4336 137.02 62.2148L136.691 61.2852L136.719 61.0117C136.792 60.8841 136.983 60.8294 137.293 60.8477C137.658 60.8841 137.977 60.9388 138.25 61.0117C138.505 61.1029 138.706 61.194 138.852 61.2852L139.371 61.6133ZM138.551 71.8672C139.025 71.8125 139.408 71.7578 139.699 71.7031C139.991 71.6667 140.337 71.612 140.738 71.5391L141.613 71.4023C141.832 71.3659 142.16 71.293 142.598 71.1836C143.017 71.0742 143.345 71.0013 143.582 70.9648C143.819 70.9102 144.029 70.8828 144.211 70.8828C144.557 70.901 144.977 70.9922 145.469 71.1562L146.098 71.4023L146.152 67.0273L142.27 67.6562C141.012 67.8568 140.273 67.957 140.055 67.957C139.836 67.957 139.672 67.9388 139.562 67.9023L138.852 67.7383C138.815 68.4492 138.788 69.0326 138.77 69.4883C138.733 69.9622 138.697 70.3815 138.66 70.7461L138.551 71.8672ZM138.852 66.9453L141.695 66.4258L142.898 66.1523C143.646 66.0065 144.138 65.9245 144.375 65.9062C144.667 65.9062 144.922 65.9336 145.141 65.9883C145.359 66.0612 145.542 66.1159 145.688 66.1523L146.125 66.3438L146.152 63.3359L146.098 62.6523C146.079 62.2331 146.016 61.9688 145.906 61.8594C145.815 61.7682 145.624 61.7044 145.332 61.668C145.186 61.6497 145.031 61.6406 144.867 61.6406C144.703 61.6406 144.53 61.6497 144.348 61.668L142.434 61.9414C141.632 62.0508 140.993 62.1602 140.52 62.2695L139.48 62.4883C139.371 62.7799 139.271 63.0352 139.18 63.2539C139.089 63.4727 139.025 63.6914 138.988 63.9102C138.952 64.1654 138.934 64.4753 138.934 64.8398L138.852 66.9453ZM197.285 72.0586C197.085 72.0586 196.839 71.9036 196.547 71.5938C196.328 71.375 196.219 71.2109 196.219 71.1016C196.219 71.0469 196.255 71.0195 196.328 71.0195C196.401 71.0013 196.492 70.9922 196.602 70.9922L197.203 70.9648C197.549 70.9648 197.777 70.9557 197.887 70.9375C198.233 70.9375 198.525 70.9284 198.762 70.9102C200.329 70.7643 201.387 70.6458 201.934 70.5547C202.207 70.5182 202.453 70.4818 202.672 70.4453C202.891 70.3906 203.064 70.3633 203.191 70.3633C203.447 70.3633 203.702 70.4909 203.957 70.7461C204.158 70.9466 204.258 71.1107 204.258 71.2383C204.258 71.3477 204.194 71.4206 204.066 71.457C203.975 71.4753 203.438 71.5117 202.453 71.5664C201.906 71.5846 201.232 71.6302 200.43 71.7031C199.628 71.776 198.926 71.849 198.324 71.9219C198.215 71.9401 198.06 71.9674 197.859 72.0039C197.659 72.0404 197.467 72.0586 197.285 72.0586ZM171.691 70.3633L172.293 70.3086L172.812 70.2539L174.645 70.1172L176.477 69.8711L179.895 69.4336L183.395 69.0781C184.889 68.9141 185.883 68.8138 186.375 68.7773C186.867 68.7227 187.314 68.668 187.715 68.6133C188.116 68.5768 188.553 68.5039 189.027 68.3945C189.501 68.3216 189.839 68.2852 190.039 68.2852C190.422 68.2852 190.878 68.4219 191.406 68.6953C191.935 68.9505 192.299 69.1784 192.5 69.3789L192.801 69.7344L192.855 69.9531C192.819 70.1354 192.728 70.263 192.582 70.3359C192.436 70.3906 192.254 70.418 192.035 70.418C191.871 70.4362 191.616 70.4453 191.27 70.4453C190.941 70.4453 190.531 70.4362 190.039 70.418C189.055 70.3815 188.28 70.3633 187.715 70.3633C186.475 70.3633 185.154 70.418 183.75 70.5273C182.346 70.6367 181.116 70.7461 180.059 70.8555C179.001 70.9831 178.208 71.1016 177.68 71.2109C177.151 71.3203 176.568 71.457 175.93 71.6211C175.292 71.7852 174.79 71.931 174.426 72.0586C174.061 72.1862 173.788 72.25 173.605 72.25C173.35 72.25 173.132 72.2044 172.949 72.1133C172.73 72.0039 172.484 71.8672 172.211 71.7031C171.938 71.5208 171.737 71.375 171.609 71.2656C171.482 71.138 171.354 70.9284 171.227 70.6367C171.281 70.4909 171.436 70.3997 171.691 70.3633ZM240.133 75.0391C240.023 75.0391 239.868 74.957 239.668 74.793C239.559 74.7201 239.467 74.6471 239.395 74.5742C239.322 74.5013 239.285 74.4375 239.285 74.3828L239.312 73.9453C239.331 73.7812 239.34 73.4167 239.34 72.8516C239.322 72.4505 239.312 71.612 239.312 70.3359C239.312 69.8255 239.267 69.3607 239.176 68.9414C239.176 68.9414 239.139 68.7227 239.066 68.2852V68.2031C239.066 68.0391 239.176 67.9935 239.395 68.0664C239.486 68.0846 239.695 68.1211 240.023 68.1758C240.37 68.1211 241.527 67.9844 243.496 67.7656C243.77 67.7292 243.988 67.6927 244.152 67.6562C244.316 67.6198 244.435 67.5924 244.508 67.5742H244.617C244.818 67.5742 245 67.6745 245.164 67.875C245.456 68.2214 245.574 68.4674 245.52 68.6133C245.447 68.7956 245.374 69.1055 245.301 69.543C245.264 69.7982 245.219 70.2357 245.164 70.8555V72.1133V74.1094C245.164 74.2734 245.082 74.4922 244.918 74.7656C244.882 74.8568 244.809 74.9297 244.699 74.9844C244.608 75.0391 244.508 75.0664 244.398 75.0664C244.289 75.0664 244.207 75.0391 244.152 74.9844C244.116 74.9479 244.079 74.9115 244.043 74.875C244.007 74.8203 243.97 74.7839 243.934 74.7656C243.915 74.7474 243.879 74.7383 243.824 74.7383C242.694 74.7383 241.673 74.8112 240.762 74.957C240.689 74.9753 240.616 74.9844 240.543 74.9844C240.488 74.9844 240.434 74.9935 240.379 75.0117L240.188 75.0391H240.133ZM240.652 74.0273C241.108 74.0091 241.728 73.9544 242.512 73.8633C242.876 73.8268 243.086 73.8086 243.141 73.8086H243.359C243.651 73.8086 243.87 73.8633 244.016 73.9727C244.143 73.0612 244.207 71.3932 244.207 68.9688C244.171 68.6953 244.061 68.5586 243.879 68.5586C243.533 68.5586 242.831 68.6224 241.773 68.75C241.664 68.75 241.555 68.7591 241.445 68.7773C241.336 68.7956 241.227 68.8138 241.117 68.832C240.807 68.8867 240.579 68.9141 240.434 68.9141C240.306 68.9141 240.26 68.9779 240.297 69.1055L240.27 70.0352C240.251 70.1628 240.242 70.2812 240.242 70.3906C240.26 70.5 240.27 70.6003 240.27 70.6914C240.288 70.8372 240.297 71.0742 240.297 71.4023C240.297 72.8242 240.306 73.6081 240.324 73.7539C240.324 73.8815 240.361 73.9635 240.434 74C240.507 74.0365 240.579 74.0456 240.652 74.0273ZM242.676 72.4961C242.475 72.4961 242.32 72.3958 242.211 72.1953C241.828 71.5573 241.473 71.0286 241.145 70.6094L240.953 70.3086C240.88 70.1992 240.844 70.1172 240.844 70.0625C240.862 69.9896 240.908 69.9622 240.98 69.9805C241.454 70.1263 241.892 70.3633 242.293 70.6914C242.913 71.1654 243.223 71.5299 243.223 71.7852C243.223 71.9128 243.186 72.0404 243.113 72.168C242.986 72.3867 242.84 72.4961 242.676 72.4961ZM247.242 65.168C247.333 65.168 247.47 65.2318 247.652 65.3594C247.634 65.3958 247.671 65.4688 247.762 65.5781C247.853 65.6693 247.917 65.7331 247.953 65.7695C248.044 65.8607 248.135 65.9701 248.227 66.0977C248.336 66.2253 248.454 66.362 248.582 66.5078C248.91 66.8542 249.667 67.7565 250.852 69.2148C251.052 69.5065 251.152 69.6797 251.152 69.7344C251.152 69.9167 251.043 70.0078 250.824 70.0078C250.697 70.0078 250.56 69.9167 250.414 69.7344C250.068 69.3698 249.448 68.7956 248.555 68.0117C247.862 67.3737 247.233 66.8815 246.668 66.5352C246.395 66.4076 246.258 66.2617 246.258 66.0977C246.258 65.9701 246.395 65.7878 246.668 65.5508C246.923 65.2956 247.115 65.168 247.242 65.168ZM219.16 63.6914L220.992 63.418C221.576 63.3268 222.049 63.2448 222.414 63.1719L224.766 62.707C225.385 62.5977 225.768 62.5247 225.914 62.4883L226.68 62.2969L227.008 62.2148C227.135 62.1784 227.281 62.1146 227.445 62.0234L227.828 61.8867C227.956 61.8685 228.102 61.8958 228.266 61.9688C228.484 62.0599 228.794 62.2057 229.195 62.4062C229.596 62.6068 229.934 62.8255 230.207 63.0625C230.48 63.2995 230.59 63.5547 230.535 63.8281C230.408 64.0651 230.307 64.2656 230.234 64.4297C230.161 64.5938 230.116 64.7578 230.098 64.9219C230.061 65.0859 230.025 65.4596 229.988 66.043L229.934 66.918L229.852 71.6211C229.852 71.931 229.87 72.6328 229.906 73.7266L229.961 75.3398C229.997 75.8503 230.016 76.1966 230.016 76.3789C229.997 76.707 229.961 77.0534 229.906 77.418C229.87 77.7826 229.806 78.1107 229.715 78.4023C229.624 78.6576 229.478 78.9583 229.277 79.3047C229.077 79.651 228.831 79.9154 228.539 80.0977C228.339 80.2253 228.138 80.2891 227.938 80.2891C227.755 80.2344 227.6 80.0339 227.473 79.6875C227.345 79.3411 227.19 79.0039 227.008 78.6758L226.707 78.1289L226.461 77.6367C225.914 77.6732 225.549 77.6914 225.367 77.6914C225.185 77.7279 224.811 77.7734 224.246 77.8281C223.681 77.8828 222.888 77.9648 221.867 78.0742C221.174 78.1471 220.628 78.1836 220.227 78.1836C220.026 78.1836 219.862 78.1745 219.734 78.1562L219.051 78.0742L218.969 78.8945C218.932 79.3685 218.823 79.6237 218.641 79.6602C218.477 79.6602 218.285 79.4961 218.066 79.168C217.829 78.8581 217.674 78.5846 217.602 78.3477C217.529 78.0924 217.483 77.8099 217.465 77.5C217.465 77.1719 217.51 76.7161 217.602 76.1328C217.711 75.6042 217.784 75.1211 217.82 74.6836L217.957 73.043C217.993 72.3867 218.039 71.3021 218.094 69.7891C218.148 68.5859 218.176 67.6107 218.176 66.8633V66.3711C218.158 65.8424 218.121 65.4232 218.066 65.1133C218.012 64.8216 217.948 64.5938 217.875 64.4297L217.602 63.4727L218.039 63.418C218.44 63.4544 218.704 63.5 218.832 63.5547L219.16 63.6914ZM219.188 77.0352C219.479 76.9987 219.898 76.9714 220.445 76.9531C220.992 76.9349 221.43 76.9076 221.758 76.8711C222.104 76.8346 222.624 76.7708 223.316 76.6797C224.027 76.5885 224.592 76.5065 225.012 76.4336C225.322 76.3971 225.604 76.3789 225.859 76.3789C226.26 76.3789 226.552 76.4245 226.734 76.5156L227.418 76.7891C227.546 76.4245 227.628 76.1419 227.664 75.9414C227.719 75.7227 227.773 75.3581 227.828 74.8477C227.865 74.3372 227.892 73.9909 227.91 73.8086L227.965 70.4727C227.473 70.582 227.117 70.6458 226.898 70.6641L225.34 70.8828L223.316 71.2383C222.569 71.3477 221.885 71.4206 221.266 71.457C221.029 71.4753 220.828 71.4844 220.664 71.4844C220.409 71.4844 220.217 71.4661 220.09 71.4297L219.352 71.2656L219.188 77.0352ZM219.406 70.4727C219.753 70.4362 220.072 70.4089 220.363 70.3906C220.673 70.3724 220.983 70.3359 221.293 70.2812L223.016 69.9805C223.818 69.8346 224.419 69.6979 224.82 69.5703C225.221 69.4427 225.495 69.3789 225.641 69.3789C225.75 69.3424 225.887 69.3242 226.051 69.3242C226.215 69.3424 226.406 69.3789 226.625 69.4336C226.862 69.5065 227.154 69.5885 227.5 69.6797L228.047 69.8438L227.965 65.3047C227.947 64.849 227.919 64.5117 227.883 64.293C227.81 64.0742 227.691 63.8919 227.527 63.7461C227.345 63.6367 227.053 63.5729 226.652 63.5547C226.124 63.5547 225.531 63.5911 224.875 63.6641C224.237 63.7552 223.617 63.8555 223.016 63.9648C222.396 64.0742 221.803 64.2018 221.238 64.3477C220.673 64.4935 220.327 64.5664 220.199 64.5664L219.543 64.6211L219.406 70.4727Z" fill="#333333"/>
</svg>
