<svg width="350" height="88" viewBox="0 0 350 88" fill="none" xmlns="http://www.w3.org/2000/svg">
<path d="M158.934 7.49609C158.77 7.49609 158.852 7.35547 159.18 7.07422C159.508 6.79297 159.906 6.45313 160.375 6.05469C160.844 5.63281 161.371 5.08203 161.957 4.40234C162.332 3.95703 162.613 3.48828 162.801 2.99609C162.918 2.71484 163.047 2.57422 163.188 2.57422C163.305 2.57422 163.48 2.66797 163.715 2.85547C164.184 3.23047 164.418 3.54687 164.418 3.80469C164.418 3.96875 164.324 4.08594 164.137 4.15625C164.043 4.17969 163.902 4.28516 163.715 4.47266C163.527 4.63672 163.387 4.76563 163.293 4.85938C162.285 5.84375 161.348 6.55859 160.48 7.00391C159.777 7.33203 159.309 7.49609 159.074 7.49609H158.934ZM162.625 14.0352C162.555 14.0352 162.438 13.9414 162.273 13.7539C162.133 13.543 162.027 13.3438 161.957 13.1562C161.934 13.0156 161.934 12.8398 161.957 12.6289C162.004 12.3945 162.027 12.2188 162.027 12.1016C162.074 11.6328 162.098 11.2578 162.098 10.9766C162.121 10.7187 162.121 10.4375 162.098 10.1328C162.098 9.82813 162.098 9.62891 162.098 9.53516L162.062 9.00781C161.5 9.40625 161.066 9.6875 160.762 9.85156C160.082 10.2266 159.59 10.4609 159.285 10.5547C158.91 10.6953 158.57 10.7656 158.266 10.7656C158.102 10.7656 158.008 10.7422 157.984 10.6953C157.938 10.6016 158.406 10.2617 159.391 9.67578C160.328 9.08984 161.348 8.31641 162.449 7.35547C163.059 6.79297 163.527 6.25391 163.855 5.73828C163.902 5.66797 163.938 5.58594 163.961 5.49219C164.008 5.375 164.055 5.30469 164.102 5.28125C164.172 5.25781 164.266 5.26953 164.383 5.31641C164.688 5.48047 164.945 5.71484 165.156 6.01953C165.25 6.13672 165.297 6.25391 165.297 6.37109C165.297 6.48828 165.238 6.60547 165.121 6.72266C165.004 6.81641 164.887 6.88672 164.77 6.93359C164.371 7.19141 164.008 7.47266 163.68 7.77734C163.352 8.08203 163.141 8.28125 163.047 8.375C163.398 8.65625 163.574 8.85547 163.574 8.97266L163.469 9.71094C163.422 9.92188 163.398 10.4492 163.398 11.293C163.398 12.1133 163.422 12.6641 163.469 12.9453V13.0156C163.469 13.1328 163.434 13.2617 163.363 13.4023C163.316 13.5195 163.281 13.6016 163.258 13.6484C163.094 13.9063 162.883 14.0352 162.625 14.0352ZM166.211 22.9648C165.859 22.9648 165.52 22.707 165.191 22.1914C164.77 21.5352 164.359 20.9961 163.961 20.5742L163.047 19.625C162.555 20.1875 162.121 20.6328 161.746 20.9609C161.395 21.2891 160.949 21.6055 160.41 21.9102C159.402 22.4961 158.559 22.7891 157.879 22.7891C157.715 22.7891 157.633 22.7305 157.633 22.6133C157.633 22.543 157.855 22.3906 158.301 22.1562C158.746 21.9219 159.168 21.6406 159.566 21.3125C160.574 20.4688 161.406 19.6016 162.062 18.7109C161.922 18.5703 161.219 17.9609 159.953 16.8828C159.789 16.7656 159.543 16.5664 159.215 16.2852C159.145 16.2383 159.004 16.1328 158.793 15.9688C158.582 15.8047 158.477 15.6875 158.477 15.6172C158.477 15.5 158.535 15.4414 158.652 15.4414C159.004 15.4414 159.566 15.6875 160.34 16.1797C161.113 16.6484 161.922 17.2109 162.766 17.8672C163.094 17.4688 163.352 17.0938 163.539 16.7422C163.727 16.3906 163.938 15.957 164.172 15.4414C164.289 15.1836 164.359 14.9609 164.383 14.7734C164.406 14.5625 164.418 14.4336 164.418 14.3867C164.418 14.1289 164.488 14 164.629 14C164.793 14 165.016 14.1289 165.297 14.3867C165.789 14.8555 166.035 15.1719 166.035 15.3359C166.035 15.4297 165.977 15.5352 165.859 15.6523C165.578 15.9336 165.32 16.3086 165.086 16.7773C164.945 17.0586 164.688 17.457 164.312 17.9727C164.195 18.1133 164.102 18.2422 164.031 18.3594C163.961 18.4766 163.891 18.582 163.82 18.6758C164.359 19.0742 165.156 19.7539 166.211 20.7148C166.469 20.9492 166.633 21.1719 166.703 21.3828C166.797 21.5703 166.844 21.8281 166.844 22.1562C166.844 22.3906 166.785 22.5898 166.668 22.7539C166.551 22.8945 166.398 22.9648 166.211 22.9648ZM166.844 27.6055C167.102 27.8867 167.23 28.1211 167.23 28.3086C167.23 28.4727 167.137 28.625 166.949 28.7656C166.832 28.8594 166.539 29.375 166.07 30.3125C165.555 31.1562 164.98 31.8828 164.348 32.4922C163.738 33.125 163.129 33.582 162.52 33.8633C162.379 33.9102 162.262 33.9336 162.168 33.9336C162.074 33.9336 162.027 33.9102 162.027 33.8633V33.793C162.027 33.6523 162.145 33.4883 162.379 33.3008C162.801 32.9727 163.117 32.6328 163.328 32.2812C163.562 31.9531 163.738 31.707 163.855 31.543C164.348 30.8398 164.699 30.2656 164.91 29.8203C165.145 29.4219 165.309 29.0117 165.402 28.5898H165.262C164.652 28.5898 163.668 28.6602 162.309 28.8008C162.098 28.8242 161.488 28.9062 160.48 29.0469C160.27 29.0703 159.941 29.1289 159.496 29.2227L159.074 29.3281C158.98 29.375 158.887 29.3984 158.793 29.3984C158.676 29.3984 158.559 29.375 158.441 29.3281C158.324 29.2578 158.207 29.1758 158.09 29.082C157.809 28.8477 157.668 28.6484 157.668 28.4844C157.691 28.4375 157.715 28.3672 157.738 28.2734C157.785 28.1797 157.809 28.0977 157.809 28.0273L157.984 26.8672C158.008 26.75 158.031 26.6211 158.055 26.4805C158.078 26.3398 158.09 26.1992 158.09 26.0586C158.09 25.6133 158.078 25.2617 158.055 25.0039C158.055 24.7227 158.02 24.4297 157.949 24.125V24.0195C157.949 23.8555 158.02 23.7734 158.16 23.7734C158.301 23.7734 158.547 23.8789 158.898 24.0898C159.367 24.418 159.602 24.6758 159.602 24.8633C159.602 24.9336 159.59 24.9922 159.566 25.0391C159.543 25.0859 159.52 25.1328 159.496 25.1797C159.426 25.6016 159.391 25.8359 159.391 25.8828L159.215 27.7461C159.215 27.793 159.238 27.8516 159.285 27.9219C159.355 27.9688 159.426 27.9922 159.496 27.9922C160.059 27.9922 161.324 27.8516 163.293 27.5703C164.066 27.5 164.617 27.418 164.945 27.3242C165.156 27.3008 165.332 27.2656 165.473 27.2188C165.637 27.1484 165.742 27.1133 165.789 27.1133C165.93 27.0664 166.023 27.043 166.07 27.043C166.281 27.043 166.539 27.2305 166.844 27.6055ZM133.129 17.2344L130.738 17.9023L129.684 18.1836C128.957 18.3711 128.477 18.4766 128.242 18.5C127.961 18.5 127.703 18.4766 127.469 18.4297C127.164 18.3594 126.824 18.207 126.449 17.9727C126.051 17.7383 125.758 17.4102 125.57 16.9883C125.664 16.8477 125.84 16.7656 126.098 16.7422L126.977 16.707C127.703 16.6836 128.477 16.6484 129.297 16.6016C130.117 16.5312 130.855 16.4375 131.512 16.3203L133.762 15.9336C134.09 15.1836 134.289 14.7148 134.359 14.5273L134.816 13.1562C134.441 13.1797 134.148 13.2031 133.938 13.2266C133.727 13.25 133.375 13.2969 132.883 13.3672C132.391 13.4609 131.992 13.5078 131.688 13.5078C131.312 13.5078 131.02 13.4609 130.809 13.3672C130.527 13.25 130.316 13.1211 130.176 12.9805L130.035 12.6641C130.059 12.5 130.176 12.418 130.387 12.418L131.055 12.3477C131.219 12.3477 131.617 12.3125 132.25 12.2422C132.883 12.1719 133.48 12.1133 134.043 12.0664L135.238 11.9258C135.543 10.9883 135.719 10.4023 135.766 10.168L136.047 8.76172C135.18 8.83203 134.395 8.91406 133.691 9.00781C132.965 9.07812 132.496 9.11328 132.285 9.11328H131.758C131.289 9.11328 130.938 9.06641 130.703 8.97266C130.398 8.83203 130.176 8.66797 130.035 8.48047L129.895 8.12891L130.141 7.95312H130.879L131.863 7.84766L133.902 7.70703L136.293 7.35547L136.434 5.45703V5.10547C136.434 4.84766 136.41 4.53125 136.363 4.15625C136.316 3.80469 136.281 3.55859 136.258 3.41797L136.117 2.64453L136.469 2.39844C136.703 2.375 136.949 2.41016 137.207 2.50391C137.535 2.64453 137.863 2.79688 138.191 2.96094C138.52 3.125 138.801 3.32422 139.035 3.55859C139.27 3.79297 139.387 4.02734 139.387 4.26172L139.141 4.75391C138.977 5.01172 138.848 5.30469 138.754 5.63281L138.262 7.07422L141.145 6.65234L142.727 6.30078C143.008 6.25391 143.266 6.21875 143.5 6.19531C143.898 6.19531 144.32 6.28906 144.766 6.47656C145.164 6.61719 145.363 6.79297 145.363 7.00391C145.34 7.23828 145.246 7.37891 145.082 7.42578L144.379 7.63672C144.145 7.68359 143.746 7.75391 143.184 7.84766L140.934 8.19922C140.137 8.31641 139.469 8.39844 138.93 8.44531L137.98 8.55078C137.723 9.46484 137.57 10.0273 137.523 10.2383L137.137 11.6445L139.316 11.2578C139.785 11.1875 140.324 11.082 140.934 10.9414C141.543 10.7773 142.035 10.6836 142.41 10.6602C142.762 10.6602 143.043 10.6836 143.254 10.7305C143.582 10.7773 143.887 10.8711 144.168 11.0117L144.625 11.3984C144.625 11.5859 144.461 11.7266 144.133 11.8203C143.875 11.8906 143.523 11.9492 143.078 11.9961C142.633 12.043 142.059 12.1133 141.355 12.207L139.211 12.5586L136.855 12.9102C136.527 13.8008 136.328 14.3516 136.258 14.5625L135.871 15.6523C136.574 15.582 137.102 15.5234 137.453 15.4766L141.074 15.1602C141.73 15.1133 142.445 15.0195 143.219 14.8789C143.992 14.7617 144.613 14.6445 145.082 14.5273L146.137 14.2461C146.605 14.1523 146.969 14.1055 147.227 14.1055C147.531 14.1055 147.801 14.1523 148.035 14.2461C148.293 14.3398 148.668 14.4922 149.16 14.7031C149.652 14.9141 149.969 15.1367 150.109 15.3711L150.215 15.9336C150.121 16.1211 149.934 16.2266 149.652 16.25L148.879 16.2852L146.699 16.2148C146.348 16.2148 145.691 16.2383 144.73 16.2852L141.918 16.3555H140.652L141.777 17.1992L143.887 18.9922C145.012 19.9531 146.02 20.7617 146.91 21.418C147.801 22.0742 148.539 22.5547 149.125 22.8594C149.711 23.1641 150.566 23.5508 151.691 24.0195C152.816 24.4648 153.801 24.793 154.645 25.0039L155.594 25.7422L154.855 25.9531L152.605 26.4102C151.668 26.5977 150.941 26.6914 150.426 26.6914C149.816 26.6211 149.266 26.4219 148.773 26.0938C148.281 25.7656 147.824 25.3789 147.402 24.9336L144.66 21.9805C143.301 20.4805 142.246 19.3672 141.496 18.6406C140.793 17.9141 140.254 17.4336 139.879 17.1992L138.93 16.4961C137.875 16.6133 137.23 16.6836 136.996 16.707L135.273 16.918C134.57 18.2773 133.996 19.2852 133.551 19.9414C133.105 20.5977 132.496 21.3242 131.723 22.1211C130.973 22.9648 130.188 23.7031 129.367 24.3359C128.547 24.9688 127.785 25.4844 127.082 25.8828C126.332 26.2812 125.594 26.6211 124.867 26.9023C124.141 27.1602 123.66 27.3242 123.426 27.3945L122.406 27.2188L123.285 26.6562L124.27 26.0938C124.879 25.7656 125.547 25.3438 126.273 24.8281C127 24.3359 127.715 23.7734 128.418 23.1406C129.121 22.5078 129.883 21.7227 130.703 20.7852C131.547 19.8477 132.098 19.1445 132.355 18.6758L133.129 17.2344ZM139.984 32.3867L137.734 32.5977C136.703 32.6914 136.105 32.7383 135.941 32.7383L134.254 32.7734L134.113 33.3359C133.973 33.7578 133.809 33.9688 133.621 33.9688C133.434 33.9453 133.246 33.793 133.059 33.5117C132.848 33.207 132.719 32.8438 132.672 32.4219C132.672 32.1172 132.695 31.8008 132.742 31.4727C132.789 31.0273 132.812 30.5117 132.812 29.9258L132.637 24.8633C132.59 24.207 132.52 23.7266 132.426 23.4219C132.355 23.1172 132.273 22.8828 132.18 22.7188L132.074 22.4023C132.121 22.2617 132.344 22.168 132.742 22.1211L133.727 22.332L134.852 22.1914C135.25 22.1445 135.73 22.0625 136.293 21.9453L138.191 21.5586C138.848 21.418 139.316 21.3008 139.598 21.207C139.879 21.1367 140.16 21.043 140.441 20.9258L141.109 20.7148C141.367 20.6914 141.59 20.7148 141.777 20.7852C142.035 20.8789 142.316 21.0312 142.621 21.2422C142.949 21.4531 143.23 21.6641 143.465 21.875L143.852 22.3672C143.852 22.5312 143.816 22.6836 143.746 22.8242C143.676 23.0117 143.617 23.2109 143.57 23.4219C143.5 23.6328 143.465 23.832 143.465 24.0195C143.418 24.207 143.383 24.582 143.359 25.1445V25.7422C143.359 26.1406 143.371 26.5742 143.395 27.043C143.418 27.6055 143.465 28.1914 143.535 28.8008L143.816 30.5938C143.91 31.2031 143.957 31.6602 143.957 31.9648C143.91 32.5742 143.734 33.1836 143.43 33.793C143.102 34.4023 142.785 34.7773 142.48 34.918L141.953 35.0586C141.695 35.0352 141.449 34.8008 141.215 34.3555C141.004 33.9336 140.77 33.5234 140.512 33.125L139.984 32.3867ZM134.324 31.5781C135.355 31.4609 136.141 31.3672 136.68 31.2969L138.508 31.0508C139.188 30.9336 139.645 30.875 139.879 30.875C140.254 30.8984 140.535 30.957 140.723 31.0508L141.461 31.4727L141.637 27.0078C141.121 27.125 140.734 27.1953 140.477 27.2188L138.051 27.6758C136.973 27.8633 136.211 27.9805 135.766 28.0273L135.344 28.0625H134.992L134.254 27.8867L134.324 31.5781ZM134.254 26.9023C134.488 26.9023 134.699 26.8906 134.887 26.8672C135.074 26.8438 135.566 26.7617 136.363 26.6211C137.207 26.457 137.887 26.3047 138.402 26.1641C138.965 26 139.387 25.918 139.668 25.918C139.926 25.918 140.16 25.9297 140.371 25.9531C140.676 26 141.039 26.1055 141.461 26.2695L141.637 23.3164C141.613 22.9414 141.555 22.6953 141.461 22.5781C141.344 22.4609 141.121 22.3906 140.793 22.3672C140.488 22.3672 140.16 22.3789 139.809 22.4023L138.262 22.4727C137.887 22.5195 137.348 22.6367 136.645 22.8242C135.941 22.9883 135.449 23.1172 135.168 23.2109L134.535 23.3516L134.395 23.7031C134.418 23.8438 134.418 24.043 134.395 24.3008C134.348 24.5352 134.324 24.7344 134.324 24.8984L134.254 26.9023ZM219.121 13.6836C218.957 13.6836 218.781 13.5781 218.594 13.3672C218.453 13.2031 218.359 13.0742 218.312 12.9805C218.266 12.8633 218.266 12.7109 218.312 12.5234L218.348 11.6797C218.371 11.5156 218.383 11.1172 218.383 10.4844V9.32422L217.328 9.81641L216.098 10.3438C215.793 10.4609 215.477 10.6016 215.148 10.7656C214.867 10.9062 214.621 10.9766 214.41 10.9766C214.246 10.9531 214.059 10.8945 213.848 10.8008C213.637 10.707 213.473 10.625 213.355 10.5547C213.098 10.3906 212.98 10.2148 213.004 10.0273L213.109 9.67578C213.109 9.48828 213.121 9.32422 213.145 9.18359L213.18 7.14453V5.24609C213.18 4.87109 213.156 4.55469 213.109 4.29688C213.062 4.01562 213.027 3.81641 213.004 3.69922C213.004 3.58203 213.039 3.5 213.109 3.45312C213.133 3.42969 213.191 3.41797 213.285 3.41797C213.449 3.41797 213.766 3.52344 214.234 3.73438C214.633 3.92188 214.797 4.15625 214.727 4.4375C214.68 4.60156 214.633 4.84766 214.586 5.17578L214.48 9.21875C214.48 9.33594 214.492 9.42969 214.516 9.5C214.562 9.54688 214.609 9.57031 214.656 9.57031C214.938 9.57031 215.277 9.48828 215.676 9.32422C216.426 9.08984 217.07 8.85547 217.609 8.62109L218.383 8.30469V5.98438C218.383 5.04688 218.324 4.14453 218.207 3.27734C218.184 3.20703 218.172 3.125 218.172 3.03125C218.172 2.79688 218.266 2.67969 218.453 2.67969C218.477 2.67969 218.605 2.72656 218.84 2.82031C219.191 3.00781 219.449 3.17188 219.613 3.3125C219.777 3.45312 219.871 3.53516 219.895 3.55859C219.988 3.62891 220.035 3.69922 220.035 3.76953C220.035 3.81641 220.012 3.875 219.965 3.94531C219.941 4.01562 219.918 4.07422 219.895 4.12109L219.789 5.17578L219.754 8.41016L219.789 11.5391C219.789 12.0781 219.754 12.5469 219.684 12.9453C219.566 13.4375 219.379 13.6836 219.121 13.6836ZM212.652 19.4492C212.395 19.4492 212.078 19.25 211.703 18.8516C211.422 18.5703 211.281 18.3594 211.281 18.2188C211.281 18.1484 211.328 18.1133 211.422 18.1133C211.516 18.0898 211.633 18.0781 211.773 18.0781L212.547 18.043C212.992 18.043 213.285 18.0312 213.426 18.0078C213.871 18.0078 214.246 17.9961 214.551 17.9727C216.566 17.7852 217.926 17.6328 218.629 17.5156C218.98 17.4688 219.297 17.4219 219.578 17.375C219.859 17.3047 220.082 17.2695 220.246 17.2695C220.574 17.2695 220.902 17.4336 221.23 17.7617C221.488 18.0195 221.617 18.2305 221.617 18.3945C221.617 18.5352 221.535 18.6289 221.371 18.6758C221.254 18.6992 220.562 18.7461 219.297 18.8164C218.594 18.8398 217.727 18.8984 216.695 18.9922C215.664 19.0859 214.762 19.1797 213.988 19.2734C213.848 19.2969 213.648 19.332 213.391 19.3789C213.133 19.4258 212.887 19.4492 212.652 19.4492ZM217.363 33.9688C216.637 33.9688 216.074 33.9453 215.676 33.8984C215.301 33.8516 214.984 33.7109 214.727 33.4766C214.281 33.1484 213.977 32.4336 213.812 31.332L213.707 30.207C213.707 29.9258 213.684 29.5742 213.637 29.1523C213.262 29.1992 212.992 29.2461 212.828 29.293C212.781 29.3164 212.699 29.3516 212.582 29.3984C212.488 29.4219 212.418 29.4336 212.371 29.4336C212.207 29.4336 212.055 29.3867 211.914 29.293C211.773 29.1992 211.598 29.0234 211.387 28.7656C211.223 28.5547 211.141 28.4141 211.141 28.3438C211.141 28.2734 211.223 28.2266 211.387 28.2031C211.551 28.1797 211.773 28.168 212.055 28.168C212.453 28.168 212.969 28.1211 213.602 28.0273L213.566 27.5352C213.566 26.5977 213.508 25.8008 213.391 25.1445L213.355 24.8984C213.355 24.5703 213.484 24.4414 213.742 24.5117C214.023 24.6055 214.281 24.7227 214.516 24.8633C214.703 24.957 214.832 25.0508 214.902 25.1445C214.973 25.2148 214.996 25.3203 214.973 25.4609L214.867 26.9727V27.8867L217.961 27.5703C217.961 27.4062 217.973 27.0195 217.996 26.4102C218.02 25.7773 218.02 25.3672 217.996 25.1797C217.996 24.9922 217.973 24.8164 217.926 24.6523C217.902 24.4648 217.879 24.3125 217.855 24.1953C217.855 24.0078 217.949 23.9141 218.137 23.9141C218.324 23.9141 218.559 24.0195 218.84 24.2305C219.168 24.4414 219.379 24.6289 219.473 24.793C219.59 24.957 219.613 25.1562 219.543 25.3906C219.426 25.7656 219.344 26.1875 219.297 26.6562C219.25 27.125 219.227 27.4062 219.227 27.5C219.508 27.4766 219.766 27.4414 220 27.3945C220.234 27.3477 220.387 27.3242 220.457 27.3242C220.645 27.2773 220.867 27.2539 221.125 27.2539C221.266 27.2773 221.465 27.418 221.723 27.6758C221.934 27.957 222.039 28.1797 222.039 28.3438C222.039 28.5781 221.816 28.6719 221.371 28.625C220.973 28.5547 220.574 28.5195 220.176 28.5195C219.777 28.5195 219.438 28.5312 219.156 28.5547C219.086 29.3984 218.945 30.2305 218.734 31.0508C218.688 31.2383 218.605 31.4023 218.488 31.543C218.371 31.6602 218.266 31.7188 218.172 31.7188C218.008 31.7188 217.902 31.6602 217.855 31.543C217.832 31.4023 217.82 31.1914 217.82 30.9102C217.867 30.3008 217.891 29.5391 217.891 28.625C217.258 28.6719 216.766 28.7188 216.414 28.7656C215.875 28.8828 215.371 28.9531 214.902 28.9766C214.879 29.9375 214.926 30.793 215.043 31.543C215.113 32.0352 215.254 32.375 215.465 32.5625C215.605 32.6797 215.77 32.75 215.957 32.7734C216.168 32.7969 216.379 32.8086 216.59 32.8086C216.801 32.8086 216.941 32.8086 217.012 32.8086C217.738 32.8086 218.418 32.7734 219.051 32.7031C219.238 32.6797 219.402 32.6328 219.543 32.5625C219.707 32.4922 219.824 32.457 219.895 32.457C220.105 32.457 220.316 32.5273 220.527 32.668C220.738 32.8086 220.844 32.9727 220.844 33.1602C220.844 33.3477 220.738 33.4883 220.527 33.582C220.34 33.6758 220.035 33.7578 219.613 33.8281C218.863 33.9219 218.113 33.9688 217.363 33.9688ZM227.383 17.9727C227.664 17.9727 227.805 18.1016 227.805 18.3594C227.805 18.5 227.676 18.6992 227.418 18.957C226.715 19.8242 225.32 21.4766 223.234 23.9141C223.07 24.125 222.918 24.2305 222.777 24.2305C222.66 24.2305 222.402 24.0547 222.004 23.7031C221.676 23.4219 221.512 23.1875 221.512 23C221.512 22.7891 221.688 22.5898 222.039 22.4023C222.578 22.0977 223.387 21.4883 224.465 20.5742C225.543 19.6133 226.34 18.8516 226.855 18.2891C227.066 18.0781 227.242 17.9727 227.383 17.9727ZM188.992 26.3398C188.875 26.1523 188.781 25.9883 188.711 25.8477C188.617 25.707 188.523 25.5195 188.43 25.2852V24.4414L189.379 24.6523L190.328 25.0742C190.75 25.2617 191.125 25.4492 191.453 25.6367C191.781 25.8477 192.051 26.1641 192.262 26.5859C192.426 26.9375 192.508 27.3477 192.508 27.8164C192.484 28.2852 192.367 28.6484 192.156 28.9062C191.969 29.1641 191.723 29.293 191.418 29.293C191.113 29.293 190.797 29.1055 190.469 28.7305C190.281 28.543 190.105 28.2734 189.941 27.9219L189.414 27.043L185.617 29.7852L184.352 30.8398L183.508 31.6836L183.086 31.9648C182.852 31.9648 182.617 31.8125 182.383 31.5078C182.172 31.25 181.984 30.9336 181.82 30.5586C181.68 30.2539 181.609 29.9609 181.609 29.6797L181.82 29.0117C181.961 28.6367 182.066 28.25 182.137 27.8516C182.207 27.4297 182.266 26.9492 182.312 26.4102C182.359 25.8945 182.406 25.1445 182.453 24.1602L182.629 18.043C182.629 17.7148 182.617 17.375 182.594 17.0234C182.547 16.6719 182.488 16.3789 182.418 16.1445C182.348 15.9102 182.242 15.6992 182.102 15.5117L181.82 15.2305L181.75 14.8789C181.844 14.7383 182.008 14.668 182.242 14.668C182.805 14.668 183.25 14.7617 183.578 14.9492L184.105 15.2305C184.691 15.1602 185.172 15.0898 185.547 15.0195C185.945 14.9727 186.438 14.8789 187.023 14.7383C187.586 14.5977 188.02 14.4805 188.324 14.3867C188.629 14.293 188.945 14.1758 189.273 14.0352C189.602 13.8945 189.859 13.8242 190.047 13.8242C190.234 13.8477 190.457 13.918 190.715 14.0352L191.453 14.4219L191.91 14.7383C192.332 14.9961 192.602 15.207 192.719 15.3711L192.754 16.0039L192.402 16.5312C192.332 16.6719 192.227 16.9062 192.086 17.2344L191.91 17.7617L191.031 21.0312L190.68 22.4023C190.492 22.8711 190.305 23.1641 190.117 23.2812L189.73 23.4219H189.484L189.027 22.9648C188.395 23.0352 187.914 23.082 187.586 23.1055L185.16 23.457L184.281 23.5273L184.07 27.3945L184.211 28.168C184.398 28.168 184.609 28.1211 184.844 28.0273L188.992 26.3398ZM184.281 22.3672C184.703 22.3438 185.031 22.3203 185.266 22.2969C185.5 22.2734 185.852 22.2031 186.32 22.0859C186.836 21.9688 187.281 21.875 187.656 21.8047C187.938 21.7578 188.195 21.7344 188.43 21.7344L189.098 21.8047L189.695 19.0977C189.109 19.1445 188.676 19.1914 188.395 19.2383L186.707 19.5195C186.215 19.6133 185.816 19.6602 185.512 19.6602L184.949 19.5898L184.422 19.4141L184.281 22.3672ZM184.457 18.6758C184.902 18.6523 185.254 18.6172 185.512 18.5703C185.77 18.5234 186.203 18.418 186.812 18.2539C187.375 18.0898 187.797 17.9961 188.078 17.9727C188.477 17.9727 188.863 18.043 189.238 18.1836L189.801 18.3945L189.977 17.3047C190.023 17 190.047 16.6602 190.047 16.2852C190.047 15.9102 189.988 15.6641 189.871 15.5469C189.754 15.4297 189.59 15.3711 189.379 15.3711C189.145 15.3945 188.852 15.4531 188.5 15.5469C188.172 15.6172 187.633 15.7227 186.883 15.8633C186.109 16.0039 185.617 16.0742 185.406 16.0742L184.668 16.1094L184.457 18.6758ZM197.148 17.1992C197.055 17.5742 196.996 17.8555 196.973 18.043C196.949 18.2305 196.914 18.5352 196.867 18.957C196.82 19.3789 196.797 19.7305 196.797 20.0117L196.691 27.1133C196.668 28.0977 196.586 29.2461 196.445 30.5586L196.305 32.0703C196.211 32.9844 196.047 33.7695 195.812 34.4258C195.578 35.0586 195.367 35.375 195.18 35.375C195.016 35.3516 194.875 35.0117 194.758 34.3555C194.641 33.7227 194.57 32.9844 194.547 32.1406C194.523 31.5781 194.512 31.0156 194.512 30.4531V29.5742L194.652 20.3633C194.676 19.7539 194.688 19.2617 194.688 18.8867C194.688 18.5117 194.676 18.2539 194.652 18.1133C194.629 17.8086 194.594 17.457 194.547 17.0586C194.5 16.6602 194.418 16.332 194.301 16.0742L194.16 15.3711L194.336 15.1602C194.547 15.1602 194.805 15.207 195.109 15.3008C195.719 15.4883 196.117 15.6406 196.305 15.7578L196.867 16.1094L198.59 15.7227C199.176 15.582 199.773 15.418 200.383 15.2305L201.156 15.0195C201.531 14.9023 201.859 14.7734 202.141 14.6328L202.633 14.457C202.797 14.457 202.996 14.5273 203.23 14.668C203.465 14.8086 203.711 14.9727 203.969 15.1602C204.25 15.3477 204.52 15.5586 204.777 15.793C204.988 15.9805 205.059 16.2617 204.988 16.6367C204.801 16.8945 204.672 17.1289 204.602 17.3398C204.555 17.5508 204.508 17.832 204.461 18.1836C204.414 18.5586 204.391 18.9453 204.391 19.3438L204.18 23.1055C204.133 24.043 204.062 24.7695 203.969 25.2852C203.898 25.8008 203.746 26.2578 203.512 26.6562C203.254 27.0547 202.961 27.3711 202.633 27.6055L202 27.8867C201.812 27.8398 201.625 27.6992 201.438 27.4648C201.227 27.207 200.934 26.8789 200.559 26.4805C200.207 26.0586 199.867 25.6836 199.539 25.3555L198.906 24.793L198.695 24.3008C198.836 24.2773 199 24.3008 199.188 24.3711L199.996 24.6172C200.465 24.7812 200.828 24.875 201.086 24.8984C201.297 24.8984 201.473 24.8633 201.613 24.793C201.824 24.6523 201.953 24.3477 202 23.8789C202.07 23.3633 202.117 22.8711 202.141 22.4023L202.281 17.832C202.281 17.293 202.258 16.9414 202.211 16.7773L202.07 16.4961C201.93 16.3555 201.719 16.2852 201.438 16.2852C201.203 16.2852 200.805 16.332 200.242 16.4258L198.66 16.7422L197.148 17.1992ZM197.852 6.40625L202.281 5.52734C202.516 5.48047 202.773 5.41016 203.055 5.31641L203.688 5.17578C203.992 5.15234 204.25 5.16406 204.461 5.21094C204.742 5.28125 205.035 5.41016 205.34 5.59766L205.832 5.94922C205.855 6.08984 205.773 6.25391 205.586 6.44141C205.398 6.58203 205.129 6.6875 204.777 6.75781L203.477 7.00391C203.102 7.05078 202.574 7.12109 201.895 7.21484C201.215 7.28516 200.605 7.35547 200.066 7.42578C199.527 7.51953 199.164 7.56641 198.977 7.56641C198.602 7.56641 198.238 7.51953 197.887 7.42578L197.289 7.32031L196.27 8.72656C195.871 9.24219 195.391 9.76953 194.828 10.3086C194.219 10.8711 193.82 11.2109 193.633 11.3281L193 11.7148L192.578 11.8555L192.332 11.6797L192.578 11.293L193.352 10.3086C193.68 9.91016 193.949 9.55859 194.16 9.25391C194.371 8.92578 194.617 8.51562 194.898 8.02344C195.203 7.53125 195.449 7.09766 195.637 6.72266C195.801 6.37109 195.953 6.01953 196.094 5.66797C196.234 5.29297 196.34 4.98828 196.41 4.75391C196.48 4.49609 196.562 4.23828 196.656 3.98047C196.703 3.69922 196.727 3.44141 196.727 3.20703L196.938 2.64453L197.184 2.53906C197.348 2.53906 197.535 2.58594 197.746 2.67969C198.027 2.79688 198.32 2.94922 198.625 3.13672C198.93 3.32422 199.164 3.52344 199.328 3.73438L199.539 4.15625L199.469 4.47266C199.352 4.58984 199.188 4.75391 198.977 4.96484C198.742 5.19922 198.531 5.43359 198.344 5.66797L197.852 6.40625ZM186.25 7.28516L187.234 7.10938C187.656 7.03906 188.324 6.86328 189.238 6.58203L189.766 6.40625L190.645 6.16016L191.172 6.26562C191.453 6.33594 191.664 6.39453 191.805 6.44141C191.945 6.51172 192.086 6.60547 192.227 6.72266L192.473 6.96875C192.496 7.13281 192.438 7.27344 192.297 7.39062C192.109 7.50781 191.805 7.61328 191.383 7.70703L190.539 7.91797C190.352 7.96484 189.883 8.03516 189.133 8.12891L187.938 8.30469C187.633 8.32812 187.387 8.33984 187.199 8.33984L186.742 8.30469L185.828 7.98828L184.773 9.21875C184.445 9.61719 184.07 10.0156 183.648 10.4141C183.227 10.8359 182.84 11.1758 182.488 11.4336C182.137 11.668 181.762 11.9023 181.363 12.1367L180.168 12.5234C180.145 12.3594 180.203 12.207 180.344 12.0664L180.941 11.5039C181.293 11.1758 181.609 10.8477 181.891 10.5195C182.172 10.2383 182.512 9.81641 182.91 9.25391C183.309 8.69141 183.672 8.12891 184 7.56641C184.328 7.05078 184.609 6.58203 184.844 6.16016C185.055 5.73828 185.23 5.33984 185.371 4.96484C185.512 4.58984 185.582 4.21484 185.582 3.83984L185.863 3.3125C186.168 3.3125 186.496 3.41797 186.848 3.62891C187.199 3.81641 187.434 3.96875 187.551 4.08594C187.691 4.20313 187.82 4.33203 187.938 4.47266L188.148 5.17578C188.102 5.31641 187.984 5.44531 187.797 5.5625L187.41 5.80859L186.742 6.72266L186.25 7.28516ZM186.391 10.0625C186.648 10.0156 186.883 10.0039 187.094 10.0273L187.867 10.2031C188.078 10.2734 188.312 10.3438 188.57 10.4141C188.828 10.4844 189.039 10.5898 189.203 10.7305C189.391 10.8711 189.52 11.0117 189.59 11.1523C189.66 11.293 189.695 11.5039 189.695 11.7852C189.695 12.1602 189.602 12.4414 189.414 12.6289C189.25 12.8164 189.039 12.9219 188.781 12.9453C188.57 12.9453 188.312 12.8164 188.008 12.5586C187.797 12.3945 187.516 12.1133 187.164 11.7148C186.812 11.3398 186.555 11.0469 186.391 10.8359C186.25 10.625 186.25 10.3672 186.391 10.0625ZM198.414 8.90234L199.293 9.04297C199.926 9.18359 200.465 9.35938 200.91 9.57031C201.332 9.78125 201.648 10.0273 201.859 10.3086C202.047 10.5898 202.141 10.9648 202.141 11.4336C202.117 11.9961 201.918 12.3594 201.543 12.5234C201.238 12.5234 200.945 12.4297 200.664 12.2422C200.289 12.0312 199.926 11.7266 199.574 11.3281L198.695 10.2383L198.027 8.9375C198.191 8.89062 198.32 8.87891 198.414 8.90234Z" fill="#333333"/>
<path d="M167.188 70.6562C166.875 70.6562 166.573 70.4271 166.281 69.9688C165.906 69.3854 165.542 68.9062 165.188 68.5312L164.375 67.6875C163.938 68.1875 163.552 68.5833 163.219 68.875C162.906 69.1667 162.51 69.4479 162.031 69.7188C161.135 70.2396 160.385 70.5 159.781 70.5C159.635 70.5 159.562 70.4479 159.562 70.3438C159.562 70.2812 159.76 70.1458 160.156 69.9375C160.552 69.7292 160.927 69.4792 161.281 69.1875C162.177 68.4375 162.917 67.6667 163.5 66.875C163.375 66.75 162.75 66.2083 161.625 65.25C161.479 65.1458 161.26 64.9688 160.969 64.7188C160.906 64.6771 160.781 64.5833 160.594 64.4375C160.406 64.2917 160.312 64.1875 160.312 64.125C160.312 64.0208 160.365 63.9688 160.469 63.9688C160.781 63.9688 161.281 64.1875 161.969 64.625C162.656 65.0417 163.375 65.5417 164.125 66.125C164.417 65.7708 164.646 65.4375 164.812 65.125C164.979 64.8125 165.167 64.4271 165.375 63.9688C165.479 63.7396 165.542 63.5417 165.562 63.375C165.583 63.1875 165.594 63.0729 165.594 63.0312C165.594 62.8021 165.656 62.6875 165.781 62.6875C165.927 62.6875 166.125 62.8021 166.375 63.0312C166.812 63.4479 167.031 63.7292 167.031 63.875C167.031 63.9583 166.979 64.0521 166.875 64.1562C166.625 64.4062 166.396 64.7396 166.188 65.1562C166.062 65.4062 165.833 65.7604 165.5 66.2188C165.396 66.3438 165.312 66.4583 165.25 66.5625C165.188 66.6667 165.125 66.7604 165.062 66.8438C165.542 67.1979 166.25 67.8021 167.188 68.6562C167.417 68.8646 167.562 69.0625 167.625 69.25C167.708 69.4167 167.75 69.6458 167.75 69.9375C167.75 70.1458 167.698 70.3229 167.594 70.4688C167.49 70.5938 167.354 70.6562 167.188 70.6562ZM166.438 82C166.354 82 166.26 81.9688 166.156 81.9062C166.052 81.8229 165.917 81.7083 165.75 81.5625C165.021 81 164.312 80.1562 163.625 79.0312C162.938 77.9062 162.448 76.6875 162.156 75.375C162.135 75.25 162.104 75.1042 162.062 74.9375C162.021 74.7708 161.979 74.6458 161.938 74.5625C161.938 74.5417 161.906 74.5312 161.844 74.5312C161.698 74.5312 161.417 74.625 161 74.8125C160.875 74.875 160.75 74.9688 160.625 75.0938C160.521 75.1979 160.406 75.2396 160.281 75.2188C160.198 75.2188 160.083 75.1667 159.938 75.0625C159.792 74.9583 159.688 74.8646 159.625 74.7812C159.417 74.4896 159.312 74.3125 159.312 74.25C159.312 74.125 159.427 74.0521 159.656 74.0312C159.969 74.0312 160.167 74.0208 160.25 74C160.854 73.9167 161.427 73.7812 161.969 73.5938C162.052 73.5729 162.167 73.5104 162.312 73.4062C162.333 73.4062 162.365 73.3958 162.406 73.375C162.469 73.3542 162.542 73.375 162.625 73.4375C162.938 73.6458 163.094 73.8021 163.094 73.9062C163.094 75.3646 163.51 76.7292 164.344 78C165.177 79.2708 166.396 80.3438 168 81.2188C168.083 81.2604 168.188 81.3021 168.312 81.3438C168.438 81.3854 168.5 81.4479 168.5 81.5312C168.5 81.6354 168.156 81.7292 167.469 81.8125L166.688 81.9375L166.438 82ZM173.562 68.0938C173.812 68.0938 173.938 68.2083 173.938 68.4375C173.938 68.5625 173.823 68.7396 173.594 68.9688C172.969 69.7396 171.729 71.2083 169.875 73.375C169.729 73.5625 169.594 73.6562 169.469 73.6562C169.365 73.6562 169.135 73.5 168.781 73.1875C168.49 72.9375 168.344 72.7292 168.344 72.5625C168.344 72.375 168.5 72.1979 168.812 72.0312C169.292 71.7604 170.01 71.2188 170.969 70.4062C171.927 69.5521 172.635 68.875 173.094 68.375C173.281 68.1875 173.438 68.0938 173.562 68.0938ZM142.062 63.9375C142.375 63.875 142.656 63.8021 142.906 63.7188C143.135 63.6771 143.365 63.6146 143.594 63.5312C143.844 63.4479 144.094 63.3333 144.344 63.1875L144.844 63C145.052 62.9792 145.26 63 145.469 63.0625C145.719 63.1458 145.99 63.2604 146.281 63.4062C146.573 63.5521 146.781 63.6979 146.906 63.8438L146.969 64.4062L146.531 64.875C146.406 64.9792 146.271 65.1771 146.125 65.4688L145.844 66.0312L145.625 66.5C146.021 66.4792 146.365 66.4479 146.656 66.4062C146.948 66.3854 147.271 66.3438 147.625 66.2812C147.917 66.2396 148.167 66.2188 148.375 66.2188C148.646 66.2188 148.906 66.2708 149.156 66.375C149.406 66.4792 149.656 66.6354 149.906 66.8438L150.188 67.2812L150 67.5H148.781L147.281 67.5312C146.135 67.5312 145.448 67.5417 145.219 67.5625C145.01 67.5833 144.396 67.6354 143.375 67.7188C142.354 67.8021 141.667 67.8646 141.312 67.9062C140.958 67.9479 140.521 68.0104 140 68.0938C139.479 68.2188 139.115 68.2917 138.906 68.3125L138.438 68.4062L137.969 68.5625L137 68.875C136.854 68.8125 136.677 68.7188 136.469 68.5938L135.906 68.1875L135.656 67.7812C135.698 67.6562 135.823 67.5938 136.031 67.5938L136.688 67.5625L137.438 67.4688L138.125 67.4062L139.156 67.2812L140.094 67.1562L140.219 66.1562L140.344 65.0938L139.281 65.25C138.906 65.25 138.635 65.2188 138.469 65.1562C138.302 65.1146 138.177 64.9271 138.094 64.5938L138.969 64.4062L140.469 64.2188C140.469 64.0312 140.479 63.8333 140.5 63.625C140.521 63.4167 140.531 63.2188 140.531 63.0312C140.49 62.8229 140.427 62.5938 140.344 62.3438L140.594 61.7812C140.906 61.7812 141.24 61.8646 141.594 62.0312C141.969 62.1771 142.229 62.3229 142.375 62.4688L142.5 63C142.354 63.25 142.25 63.4479 142.188 63.5938L142.062 63.9375ZM141.281 66.9688C141.719 66.9271 142.052 66.8854 142.281 66.8438L143.594 66.7188L144.156 66.6562L144.406 65.625C144.448 65.4792 144.49 65.2292 144.531 64.875L144.25 64.4375C144.042 64.4167 143.823 64.4375 143.594 64.5L142.5 64.7188L141.781 64.8438L141.594 65.7188L141.281 66.9688ZM141.625 79.1562C141.354 79.1979 141.156 79.2292 141.031 79.25L140.156 79.375C139.906 79.4167 139.625 79.4688 139.312 79.5312C139 79.5938 138.781 79.6458 138.656 79.6875C138.531 79.7083 138.385 79.7604 138.219 79.8438L137.938 79.9062C137.792 79.9062 137.656 79.8438 137.531 79.7188C137.406 79.5938 137.302 79.4583 137.219 79.3125L137.094 79.0312C137.094 78.8854 137.188 78.7083 137.375 78.5C137.542 78.2917 137.688 78.0312 137.812 77.7188C137.958 77.3854 138.042 77.0938 138.062 76.8438L138.156 76.2812C137.865 76.1562 137.74 75.9167 137.781 75.5625C138.115 75.5417 138.49 75.5104 138.906 75.4688L140.375 75.3438L141.625 75.1875V74.375L141.594 73.9375L141.5 73.1875L140.969 73.2812L140.219 73.375L140.031 73.6562C139.948 73.8021 139.76 73.8438 139.469 73.7812C139.302 73.4896 139.198 73.2188 139.156 72.9688L138.781 71.1562C138.74 70.9271 138.667 70.7188 138.562 70.5312C138.458 70.3229 138.344 70.1458 138.219 70L138.062 69.5938L138.406 69.4688C138.76 69.5104 139.021 69.5625 139.188 69.625L139.656 69.8125C140.198 69.75 140.594 69.6875 140.844 69.625L142.344 69.375C143.073 69.2708 143.51 69.1979 143.656 69.1562L144.625 68.9375L144.969 68.9062C145.177 68.9062 145.385 68.9479 145.594 69.0312C145.802 69.1146 146.042 69.2292 146.312 69.375C146.583 69.5417 146.76 69.7188 146.844 69.9062L146.812 70.4062L146.375 70.6875L145.969 71.125L145.531 71.7812C145.573 72.0104 145.667 72.1875 145.812 72.3125L145.781 72.7188C145.531 72.7604 145.146 72.8021 144.625 72.8438C144.104 72.8646 143.719 72.8958 143.469 72.9375L142.656 73.0938L143.156 73.3438L143.375 73.5938C143.396 73.7396 143.385 73.9062 143.344 74.0938L143.219 74.6875L143.094 75.0938C143.385 75.0312 143.646 74.9688 143.875 74.9062C144.104 74.8646 144.365 74.8021 144.656 74.7188C144.948 74.6354 145.198 74.5938 145.406 74.5938C145.615 74.5938 145.802 74.625 145.969 74.6875C146.198 74.75 146.385 74.8646 146.531 75.0312L146.781 75.3125C146.74 75.4583 146.594 75.5521 146.344 75.5938C146.094 75.6354 145.76 75.6771 145.344 75.7188L144.062 75.9062L143.062 76.0312L142.938 78.0625C143.354 78.0417 143.677 78.0208 143.906 78C144.135 77.9792 144.458 77.9375 144.875 77.875C145.292 77.8125 145.615 77.7708 145.844 77.75C146.073 77.7292 146.26 77.7188 146.406 77.7188C146.573 77.7396 146.771 77.8021 147 77.9062C147.229 77.9896 147.417 78.0938 147.562 78.2188C147.708 78.3438 147.823 78.5625 147.906 78.875C147.865 79 147.74 79.0625 147.531 79.0625H145.844L144.625 79.0312C144.396 79.0104 144.208 79 144.062 79L143.781 79.0312L142.906 79.0938L142.844 79.9062C142.802 80.2812 142.76 80.6146 142.719 80.9062C142.677 81.1979 142.583 81.4896 142.438 81.7812L142.125 82.1875C141.979 82.1667 141.865 82.0312 141.781 81.7812C141.719 81.5312 141.677 81.1354 141.656 80.5938L141.625 79.7812V79.1562ZM141.656 76.1562L139.438 76.3438L139.406 76.6875C139.365 76.8333 139.302 77.0312 139.219 77.2812L138.938 77.9062L138.969 78.5938C139.24 78.5521 139.615 78.4896 140.094 78.4062L141.031 78.2812L141.625 78.2188L141.656 76.1562ZM140.094 72.5C140.594 72.4375 140.948 72.3854 141.156 72.3438C141.406 72.3021 141.823 72.2188 142.406 72.0938C142.99 71.9688 143.354 71.8854 143.5 71.8438L144.156 71.6875L144.281 71.2188C144.323 71.0938 144.365 70.8854 144.406 70.5938L144.25 70C144.083 69.9167 143.896 69.875 143.688 69.875L143.281 69.9062C142.865 69.9479 142.552 69.9896 142.344 70.0312L141.312 70.2188L140.531 70.375L139.938 70.4062L140.094 72.5ZM134.719 60.9062L137.125 60.7188C137.917 60.6771 138.479 60.6458 138.812 60.625C139.167 60.6042 140.01 60.5312 141.344 60.4062C142.719 60.3021 143.75 60.2188 144.438 60.1562L146.625 59.9062C147.375 59.8229 147.969 59.7604 148.406 59.7188C148.865 59.6562 149.198 59.6042 149.406 59.5625L150.219 59.4062C150.552 59.3229 150.792 59.2812 150.938 59.2812C151.125 59.2812 151.385 59.3438 151.719 59.4688C152.052 59.5938 152.385 59.7604 152.719 59.9688C153.052 60.1354 153.365 60.3438 153.656 60.5938L154.094 61.0312C154.094 61.2188 154.073 61.3854 154.031 61.5312L153.781 62.0625C153.698 62.2917 153.635 62.5104 153.594 62.7188C153.552 62.9062 153.51 63.2604 153.469 63.7812L153.344 65C153.302 65.4375 153.281 65.9896 153.281 66.6562C153.26 66.9062 153.25 67.3229 153.25 67.9062C153.271 68.4896 153.281 69.3854 153.281 70.5938V74.0938C153.281 74.6354 153.302 75.4896 153.344 76.6562C153.385 77.8229 153.427 78.8125 153.469 79.625L153.5 81.9062V82.75C153.5 83.2292 153.49 83.6042 153.469 83.875C153.365 84.4375 153.198 84.9062 152.969 85.2812C152.76 85.6562 152.51 85.9375 152.219 86.125L151.688 86.3438C151.521 86.3438 151.385 86.2708 151.281 86.125C151.177 86 151.01 85.6562 150.781 85.0938L150.344 84.1562L149.969 83.375H148.75C148.5 83.375 148.167 83.3854 147.75 83.4062C147.146 83.4479 146.677 83.4688 146.344 83.4688L137.062 84.0312C136.375 84.0938 135.885 84.1354 135.594 84.1562L134.844 84.1875H134.406L133.969 84.0312L133.906 84.6562C133.844 84.9896 133.76 85.2396 133.656 85.4062L133.344 85.6562C133.198 85.6562 133.052 85.5729 132.906 85.4062C132.74 85.2396 132.562 85 132.375 84.6875C132.208 84.375 132.083 84.0417 132 83.6875C132 83.4375 132.01 83.2292 132.031 83.0625C132.052 82.8125 132.135 82.2917 132.281 81.5C132.448 80.7083 132.573 79.9062 132.656 79.0938C132.76 78.2604 132.865 77.2188 132.969 75.9688L133.188 72.6562C133.25 71.6771 133.292 70.5521 133.312 69.2812C133.354 68.0104 133.375 67.0521 133.375 66.4062L133.312 64.5625C133.292 63.9167 133.26 63.4062 133.219 63.0312C133.177 62.6146 133.115 62.2604 133.031 61.9688C132.948 61.6562 132.854 61.375 132.75 61.125L132.656 60.6875C132.698 60.5625 132.854 60.4896 133.125 60.4688C133.292 60.4688 133.438 60.4896 133.562 60.5312C133.75 60.5729 134.01 60.6562 134.344 60.7812L134.719 60.9062ZM134.938 62.0312C134.917 62.8646 134.906 63.4688 134.906 63.8438L134.781 66.375L134.719 69.1562L134.594 72.3438L134.5 75.5312C134.479 76.3646 134.427 77.4896 134.344 78.9062C134.302 80.3021 134.26 81.2188 134.219 81.6562L134.062 83L145.969 82.2188C146.26 82.2188 146.729 82.1771 147.375 82.0938C148.021 82.0104 148.51 81.9688 148.844 81.9688C149.177 81.9688 149.479 82.0104 149.75 82.0938C150 82.1771 150.24 82.2812 150.469 82.4062L151.094 82.75L151.219 82.3438L151.344 81.5312C151.365 81.1562 151.385 80.5208 151.406 79.625C151.406 78.7292 151.427 77.9896 151.469 77.4062C151.469 76.8021 151.479 76.4271 151.5 76.2812L151.531 69.25L151.469 66.8438L151.406 64.875L151.219 63.0938C151.177 62.4062 151.115 61.9271 151.031 61.6562C150.99 61.4062 150.906 61.2396 150.781 61.1562C150.677 61.0729 150.479 61.0208 150.188 61C149.917 60.9792 149.552 60.9688 149.094 60.9688L147.031 61.0938L144.719 61.1562C144.052 61.1979 143.469 61.2396 142.969 61.2812C142.51 61.3229 141.49 61.4271 139.906 61.5938C138.323 61.7604 137.396 61.8646 137.125 61.9062C136.854 61.9271 136.552 61.9583 136.219 62L135.656 62.0625L134.938 62.0312ZM212.531 71.375C212.198 71.375 211.99 71.2812 211.906 71.0938C211.802 70.8438 211.698 70.6354 211.594 70.4688C211.49 70.2812 211.302 70.0625 211.031 69.8125L211.094 69.6875C211.844 69.9583 212.333 70.0938 212.562 70.0938C212.729 70.0938 212.854 70.0625 212.938 70C213.021 69.9375 213.156 69.7917 213.344 69.5625C213.615 69.2708 213.865 68.8229 214.094 68.2188C214.406 67.3229 214.604 66.3958 214.688 65.4375V65.3438C214.688 65.2188 214.667 65.1354 214.625 65.0938C214.354 65.0938 213.635 65.1562 212.469 65.2812C211.823 66.8854 211.073 68.2083 210.219 69.25C209.385 70.2708 208.625 70.7812 207.938 70.7812C207.771 70.7812 207.688 70.7188 207.688 70.5938C207.688 70.5521 207.896 70.3125 208.312 69.875C208.729 69.4375 209.188 68.8646 209.688 68.1562C210.208 67.4271 210.698 66.5312 211.156 65.4688C211.052 65.4688 210.75 65.4896 210.25 65.5312C209.75 65.5729 209.323 65.6458 208.969 65.75C208.802 65.875 208.625 65.8958 208.438 65.8125C208.438 65.8125 208.417 65.8021 208.375 65.7812C208.333 65.7604 208.292 65.7292 208.25 65.6875C208.104 65.6042 207.979 65.5 207.875 65.375C207.792 65.2292 207.75 65.0938 207.75 64.9688C207.75 64.9062 207.802 64.8229 207.906 64.7188L208.281 64.2188C208.406 64.0521 208.521 63.8125 208.625 63.5C208.729 63.1667 208.781 62.8854 208.781 62.6562C208.781 62.5104 208.771 62.4167 208.75 62.375C208.729 62.3333 208.719 62.2812 208.719 62.2188C208.719 62.1146 208.771 62.0625 208.875 62.0625C209 62.0625 209.177 62.1354 209.406 62.2812C209.469 62.3229 209.583 62.4062 209.75 62.5312C209.938 62.6354 210.042 62.7604 210.062 62.9062C210.062 63.0521 209.979 63.2917 209.812 63.625L209.406 64.3438C209.365 64.4062 209.344 64.4792 209.344 64.5625C209.344 64.625 209.365 64.6771 209.406 64.7188C209.469 64.7396 209.542 64.7396 209.625 64.7188L211.5 64.4688C211.708 63.9271 211.875 63.3542 212 62.75V62.5625V62.0312C212 61.8021 212.062 61.7083 212.188 61.75C212.458 61.8125 212.677 61.8958 212.844 62C213.156 62.1875 213.312 62.3438 213.312 62.4688C213.312 62.5729 213.271 62.75 213.188 63C213.125 63.2292 213.073 63.4062 213.031 63.5312C213.01 63.6146 212.917 63.8854 212.75 64.3438C212.812 64.3438 213.198 64.3021 213.906 64.2188L214.219 64.1562C214.281 64.1562 214.396 64.1354 214.562 64.0938C214.604 64.0729 214.656 64.0625 214.719 64.0625C214.969 64.0625 215.125 64.0729 215.188 64.0938C215.271 64.1146 215.396 64.1771 215.562 64.2812C215.75 64.4062 215.875 64.5312 215.938 64.6562C216 64.7812 216.021 64.9271 216 65.0938L215.812 66.125L215.594 67.25C215.594 67.3333 215.521 67.6042 215.375 68.0625C215.229 68.5208 215.062 68.9271 214.875 69.2812C214.521 69.9896 214.104 70.5208 213.625 70.875C213.208 71.2083 212.844 71.375 212.531 71.375ZM215.188 81.5938C214.875 81.5938 214.573 81.3646 214.281 80.9062C213.906 80.3229 213.542 79.8438 213.188 79.4688L212.375 78.625C211.938 79.125 211.552 79.5208 211.219 79.8125C210.906 80.1042 210.51 80.3854 210.031 80.6562C209.135 81.1771 208.385 81.4375 207.781 81.4375C207.635 81.4375 207.562 81.3854 207.562 81.2812C207.562 81.2188 207.76 81.0833 208.156 80.875C208.552 80.6667 208.927 80.4167 209.281 80.125C210.177 79.375 210.917 78.6042 211.5 77.8125C211.375 77.6875 210.75 77.1458 209.625 76.1875C209.479 76.0833 209.26 75.9062 208.969 75.6562C208.906 75.6146 208.781 75.5208 208.594 75.375C208.406 75.2292 208.312 75.125 208.312 75.0625C208.312 74.9583 208.365 74.9062 208.469 74.9062C208.781 74.9062 209.281 75.125 209.969 75.5625C210.656 75.9792 211.375 76.4792 212.125 77.0625C212.417 76.7083 212.646 76.375 212.812 76.0625C212.979 75.75 213.167 75.3646 213.375 74.9062C213.479 74.6771 213.542 74.4792 213.562 74.3125C213.583 74.125 213.594 74.0104 213.594 73.9688C213.594 73.7396 213.656 73.625 213.781 73.625C213.927 73.625 214.125 73.7396 214.375 73.9688C214.812 74.3854 215.031 74.6667 215.031 74.8125C215.031 74.8958 214.979 74.9896 214.875 75.0938C214.625 75.3438 214.396 75.6771 214.188 76.0938C214.062 76.3438 213.833 76.6979 213.5 77.1562C213.396 77.2812 213.312 77.3958 213.25 77.5C213.188 77.6042 213.125 77.6979 213.062 77.7812C213.542 78.1354 214.25 78.7396 215.188 79.5938C215.417 79.8021 215.562 80 215.625 80.1875C215.708 80.3542 215.75 80.5833 215.75 80.875C215.75 81.0833 215.698 81.2604 215.594 81.4062C215.49 81.5312 215.354 81.5938 215.188 81.5938ZM221.562 68.0938C221.812 68.0938 221.938 68.2083 221.938 68.4375C221.938 68.5625 221.823 68.7396 221.594 68.9688C220.969 69.7396 219.729 71.2083 217.875 73.375C217.729 73.5625 217.594 73.6562 217.469 73.6562C217.365 73.6562 217.135 73.5 216.781 73.1875C216.49 72.9375 216.344 72.7292 216.344 72.5625C216.344 72.375 216.5 72.1979 216.812 72.0312C217.292 71.7604 218.01 71.2188 218.969 70.4062C219.927 69.5521 220.635 68.875 221.094 68.375C221.281 68.1875 221.438 68.0938 221.562 68.0938ZM193.844 64.7188C194.177 64.7396 194.427 64.8021 194.594 64.9062L194.781 65.375C194.656 65.625 194.562 65.9062 194.5 66.2188L196 66L197.031 65.75L197.688 65.875C198.042 65.9375 198.292 66 198.438 66.0625L198.656 66.2812L198.625 66.5C198.521 66.6042 198.406 66.6667 198.281 66.6875L194.344 67.5625V68.2812C194.365 68.4896 194.427 68.6667 194.531 68.8125C194.635 68.9583 194.917 69.0312 195.375 69.0312C195.771 69.0312 196.229 68.9792 196.75 68.875C197.354 68.7708 197.854 68.6146 198.25 68.4062C198.604 68.2188 198.875 68.125 199.062 68.125C199.208 68.1458 199.396 68.2292 199.625 68.375C199.875 68.5208 200.052 68.6771 200.156 68.8438L200.281 69.25C200.24 69.4792 199.885 69.6667 199.219 69.8125C198.552 69.9792 197.719 70.1042 196.719 70.1875C196.344 70.2292 196.01 70.25 195.719 70.25C195.26 70.25 194.885 70.2083 194.594 70.125C194.094 69.9792 193.74 69.7708 193.531 69.5C193.323 69.25 193.219 69 193.219 68.75L193.156 67.7812C192.552 67.8854 192.052 67.9375 191.656 67.9375C191.281 67.9167 191 67.8542 190.812 67.75L190.531 67.3438C190.656 67.2188 190.854 67.125 191.125 67.0625L193.156 66.7188L193.094 65.8438C193.052 65.6354 193.01 65.4479 192.969 65.2812L192.906 64.875L190.094 65.3438L190.312 65.9375C190.188 66.25 190.104 66.5729 190.062 66.9062C190.042 67.2396 189.969 67.8854 189.844 68.8438L189.438 71.8438C189.25 73.0938 189.062 74.2604 188.875 75.3438C188.667 76.4271 188.385 77.5625 188.031 78.75C187.698 79.9375 187.302 80.9896 186.844 81.9062C186.385 82.7812 185.958 83.4792 185.562 84C185.167 84.5208 184.802 84.9583 184.469 85.3125L183.906 85.9688L183.469 86.0938C183.469 85.9271 183.51 85.7604 183.594 85.5938L183.844 85.1562C184.281 84.3646 184.729 83.5 185.188 82.5625C185.625 81.6042 186.031 80.5 186.406 79.25C186.76 78.0208 187.062 76.8125 187.312 75.625C187.583 74.4375 187.771 73.4062 187.875 72.5312C187.979 71.6562 188.073 70.6354 188.156 69.4688C188.24 68.3438 188.292 67.5104 188.312 66.9688C188.333 66.4479 188.344 66.1146 188.344 65.9688L188.312 65.4375L187.906 65.1562L187.688 64.7188C187.812 64.5521 188.01 64.4688 188.281 64.4688L189.188 64.4062C189.896 64.3646 190.396 64.3229 190.688 64.2812L193.188 63.8438L193 60.2812C192.979 59.8021 192.948 59.4792 192.906 59.3125L192.562 58.2812L193 57.9062C193.438 57.9271 193.771 57.9792 194 58.0625C194.229 58.125 194.438 58.2188 194.625 58.3438L194.906 58.75C194.927 58.8958 194.906 59.0417 194.844 59.1875C194.76 59.4167 194.719 59.6562 194.719 59.9062L194.656 61.1562C195.198 60.9479 195.688 60.7708 196.125 60.625C196.562 60.4792 196.948 60.3333 197.281 60.1875C197.615 60.0625 197.885 60 198.094 60C198.281 60.0208 198.469 60.0729 198.656 60.1562C198.865 60.2396 199.042 60.3333 199.188 60.4375L199.312 60.9062C199.125 61.0729 198.906 61.1771 198.656 61.2188L196.375 61.6562C196.042 61.7188 195.708 61.75 195.375 61.75L194.656 61.5938L194.531 63.6562L198.219 62.9688L199.531 62.6562C199.844 62.5938 200.094 62.5625 200.281 62.5625C200.552 62.5833 200.875 62.6562 201.25 62.7812C201.646 62.9271 202.021 63.0938 202.375 63.2812C202.729 63.4688 203.021 63.6562 203.25 63.8438C203.438 64.0104 203.5 64.2292 203.438 64.5C203.333 64.6042 203.135 64.7083 202.844 64.8125C202.552 64.8958 202.292 64.9792 202.062 65.0625C201.833 65.1667 201.573 65.3021 201.281 65.4688L200.531 65.9062L199.906 66.2812L199.469 66.125L199.812 65.5312C199.958 65.3021 200.073 65.0417 200.156 64.75L200.219 64.2812L200.031 64L199.344 63.9062C199.094 63.8854 198.865 63.8958 198.656 63.9375L193.844 64.7188ZM190.562 84.4688L190 81.5938C189.958 81.4062 189.865 81.1562 189.719 80.8438C189.552 80.5521 189.385 80.3229 189.219 80.1562L188.969 79.8438C188.99 79.7188 189.073 79.625 189.219 79.5625L189.688 79.5938L190.688 79.7188L197.156 78.9375C197.781 78.875 198.344 78.7812 198.844 78.6562C199.365 78.5312 199.698 78.4688 199.844 78.4688C200.094 78.4896 200.354 78.5521 200.625 78.6562C200.896 78.7812 201.188 78.9479 201.5 79.1562C201.812 79.3854 202.01 79.5729 202.094 79.7188L202.219 80.0938L201.781 80.6562C201.573 80.8646 201.385 81.1667 201.219 81.5625L200.844 82.4688L200.406 83.5938L201.531 83.4688L202.656 83.375C202.99 83.375 203.26 83.4062 203.469 83.4688C203.677 83.5521 203.969 83.6771 204.344 83.8438C204.74 84.0521 204.99 84.2188 205.094 84.3438L205 84.8438L204.5 84.875C204.229 84.875 203.844 84.8646 203.344 84.8438H200.656C200.073 84.8438 199.292 84.8542 198.312 84.875C197.312 84.9167 196.292 84.9896 195.25 85.0938C194.229 85.1771 193.24 85.2708 192.281 85.375C191.323 85.4792 190.688 85.5729 190.375 85.6562C190.062 85.6979 189.677 85.7812 189.219 85.9062C188.823 86.0104 188.542 86.0625 188.375 86.0625C188.146 86.0625 187.969 86.0312 187.844 85.9688C187.719 85.9062 187.51 85.7812 187.219 85.5938C186.927 85.4062 186.771 85.1458 186.75 84.8125L187.969 84.7188L190.562 84.4688ZM191.656 84.4062L193.562 84.125L193.312 82.0312C193.25 81.4479 193.177 81.0625 193.094 80.875L192.812 80.25C192.188 80.3125 191.802 80.3646 191.656 80.4062L190.969 80.5625L191.656 84.4062ZM194.156 80.0938L194.531 80.5312C194.552 80.6562 194.552 80.7812 194.531 80.9062C194.49 81.1562 194.469 81.4896 194.469 81.9062L194.438 84.0938L196.062 83.9375C196.167 82.6458 196.219 81.8438 196.219 81.5312L196.125 79.9062L194.156 80.0938ZM196.719 83.9062L198.906 83.75L199.281 81.4062C199.385 80.8646 199.427 80.4688 199.406 80.2188C199.385 80.0521 199.26 79.8958 199.031 79.75L198.5 79.7188L197.156 79.8438C197.26 79.9479 197.396 80.1354 197.562 80.4062C197.583 80.5521 197.542 80.7604 197.438 81.0312C197.292 81.3229 197.198 81.5833 197.156 81.8125L196.719 83.9062ZM191.781 72.0312C192.865 71.9062 193.583 71.8125 193.938 71.75C194.292 71.6875 194.969 71.5312 195.969 71.2812C197.01 71.0521 197.677 70.8958 197.969 70.8125C198.26 70.75 198.51 70.7083 198.719 70.6875C198.969 70.6875 199.25 70.7396 199.562 70.8438C199.875 70.9688 200.135 71.0938 200.344 71.2188C200.552 71.3438 200.75 71.4792 200.938 71.625L201.219 72.0312C201.219 72.1979 201.146 72.4062 201 72.6562C200.896 72.8021 200.802 72.9583 200.719 73.125C200.615 73.3125 200.531 73.5312 200.469 73.7812L199.656 76.3438C199.552 76.6354 199.438 76.9062 199.312 77.1562C199.167 77.4479 198.927 77.6562 198.594 77.7812C198.448 77.7396 198.312 77.6562 198.188 77.5312L197.812 77.1562L192.469 77.625C192.427 77.7708 192.375 77.9167 192.312 78.0625L191.906 78.2812C191.781 78.1562 191.667 78.0312 191.562 77.9062C191.479 77.7812 191.427 77.5729 191.406 77.2812L190.969 74.2188C190.844 73.4479 190.708 72.9583 190.562 72.75L190.125 72.0312C190.188 71.9062 190.292 71.8229 190.438 71.7812L191.062 71.875L191.781 72.0312ZM194.406 74.125L194.344 72.4375C193.51 72.5417 192.99 72.6042 192.781 72.625L191.969 72.7188L192.188 74.4062L194.406 74.125ZM192.344 76.6562L194.344 76.3438V75.0312L192.281 75.25L192.344 76.6562ZM195.656 76.25C195.99 76.2083 196.281 76.1771 196.531 76.1562C196.781 76.1354 197.01 76.125 197.219 76.125L197.625 76.1875L198.094 76.4062L198.594 74.375L195.719 74.8125L195.656 76.25ZM195.75 73.8438C196.104 73.8021 196.469 73.75 196.844 73.6875L197.406 73.5938C197.615 73.5729 197.875 73.6042 198.188 73.6875L198.656 73.8438L198.906 72.5312V72.25C198.865 72.0625 198.698 71.9271 198.406 71.8438C198.198 71.8229 198 71.8333 197.812 71.875L195.844 72.2188L195.812 72.8125L195.75 73.8438ZM183.312 69.4062L184.844 67.3125C185.115 66.9583 185.281 66.6458 185.344 66.375L185.5 65.9062L185.719 65.7188C185.865 65.6979 186.031 65.7396 186.219 65.8438C186.635 66.1146 186.948 66.3958 187.156 66.6875L187.438 67.25C187.396 67.3958 187.302 67.5208 187.156 67.625L186.344 68.0312L183.281 69.9062L183.156 71.8438C183.094 72.5521 183.031 73.1562 182.969 73.6562L182.688 75.5625L183.5 75.9062C183.812 76.0312 184.073 76.1562 184.281 76.2812C184.49 76.4062 184.708 76.5833 184.938 76.8125C185.167 77.0417 185.344 77.3229 185.469 77.6562C185.531 77.8229 185.562 77.9792 185.562 78.125C185.562 78.2917 185.531 78.4479 185.469 78.5938C185.344 78.8854 185.198 79.0312 185.031 79.0312C184.844 79.0312 184.667 78.9792 184.5 78.875C184.312 78.7708 184.167 78.6562 184.062 78.5312C183.958 78.3854 183.833 78.1979 183.688 77.9688L183.094 77.0938L182.562 76.1562L181.969 78.1562C181.802 78.6979 181.562 79.2708 181.25 79.875C180.938 80.5 180.594 81.0729 180.219 81.5938C179.823 82.1146 179.417 82.5729 179 82.9688C178.604 83.3438 178.219 83.6667 177.844 83.9375L177.281 84.3438L176.938 84.1875L177.469 83.4375L178.469 82.0625C178.76 81.6667 179.073 81.1458 179.406 80.5C179.74 79.8542 180.021 79.1979 180.25 78.5312C180.479 77.9062 180.688 77.1562 180.875 76.2812C181.062 75.4271 181.208 74.6458 181.312 73.9375C181.417 73.2083 181.5 72.3229 181.562 71.2812C181.625 70.1979 181.667 69.25 181.688 68.4375L181.719 64.2188L181.656 63.0312C181.615 62.2812 181.562 61.8021 181.5 61.5938C181.438 61.3854 181.354 61.1458 181.25 60.875L181.094 60.4062L181.375 60.0625C181.562 60.0417 181.719 60.0521 181.844 60.0938C182.052 60.1354 182.219 60.1771 182.344 60.2188L183.062 60.4688C183.417 60.6146 183.646 60.7604 183.75 60.9062C183.854 61.0312 183.906 61.1979 183.906 61.4062L183.75 61.9688C183.688 62.1771 183.625 62.4583 183.562 62.8125C183.5 63.1667 183.469 63.6146 183.469 64.1562L183.312 69.4062ZM177.656 69.3125C177.573 69.0833 177.5 68.8646 177.438 68.6562L177.5 68.2812H177.75C178.188 68.3854 178.583 68.5729 178.938 68.8438C179.292 69.0938 179.583 69.3542 179.812 69.625C180.042 69.8958 180.198 70.1771 180.281 70.4688C180.365 70.7396 180.417 71.0938 180.438 71.5312C180.438 71.9062 180.344 72.1771 180.156 72.3438C179.99 72.5104 179.792 72.5938 179.562 72.5938C179.333 72.5521 179.125 72.375 178.938 72.0625C178.729 71.7708 178.573 71.5 178.469 71.25C178.344 71 178.219 70.6979 178.094 70.3438L177.656 69.3125Z" fill="#333333"/>
</svg>
