<svg width="252" height="84" viewBox="0 0 252 84" fill="none" xmlns="http://www.w3.org/2000/svg">
<path d="M109.934 7.49609C109.77 7.49609 109.852 7.35547 110.18 7.07422C110.508 6.79297 110.906 6.45313 111.375 6.05469C111.844 5.63281 112.371 5.08203 112.957 4.40234C113.332 3.95703 113.613 3.48828 113.801 2.99609C113.918 2.71484 114.047 2.57422 114.188 2.57422C114.305 2.57422 114.48 2.66797 114.715 2.85547C115.184 3.23047 115.418 3.54687 115.418 3.80469C115.418 3.96875 115.324 4.08594 115.137 4.15625C115.043 4.17969 114.902 4.28516 114.715 4.47266C114.527 4.63672 114.387 4.76563 114.293 4.85938C113.285 5.84375 112.348 6.55859 111.48 7.00391C110.777 7.33203 110.309 7.49609 110.074 7.49609H109.934ZM113.625 14.0352C113.555 14.0352 113.438 13.9414 113.273 13.7539C113.133 13.543 113.027 13.3438 112.957 13.1562C112.934 13.0156 112.934 12.8398 112.957 12.6289C113.004 12.3945 113.027 12.2188 113.027 12.1016C113.074 11.6328 113.098 11.2578 113.098 10.9766C113.121 10.7187 113.121 10.4375 113.098 10.1328C113.098 9.82813 113.098 9.62891 113.098 9.53516L113.062 9.00781C112.5 9.40625 112.066 9.6875 111.762 9.85156C111.082 10.2266 110.59 10.4609 110.285 10.5547C109.91 10.6953 109.57 10.7656 109.266 10.7656C109.102 10.7656 109.008 10.7422 108.984 10.6953C108.938 10.6016 109.406 10.2617 110.391 9.67578C111.328 9.08984 112.348 8.31641 113.449 7.35547C114.059 6.79297 114.527 6.25391 114.855 5.73828C114.902 5.66797 114.938 5.58594 114.961 5.49219C115.008 5.375 115.055 5.30469 115.102 5.28125C115.172 5.25781 115.266 5.26953 115.383 5.31641C115.688 5.48047 115.945 5.71484 116.156 6.01953C116.25 6.13672 116.297 6.25391 116.297 6.37109C116.297 6.48828 116.238 6.60547 116.121 6.72266C116.004 6.81641 115.887 6.88672 115.77 6.93359C115.371 7.19141 115.008 7.47266 114.68 7.77734C114.352 8.08203 114.141 8.28125 114.047 8.375C114.398 8.65625 114.574 8.85547 114.574 8.97266L114.469 9.71094C114.422 9.92188 114.398 10.4492 114.398 11.293C114.398 12.1133 114.422 12.6641 114.469 12.9453V13.0156C114.469 13.1328 114.434 13.2617 114.363 13.4023C114.316 13.5195 114.281 13.6016 114.258 13.6484C114.094 13.9063 113.883 14.0352 113.625 14.0352ZM117.211 22.9648C116.859 22.9648 116.52 22.707 116.191 22.1914C115.77 21.5352 115.359 20.9961 114.961 20.5742L114.047 19.625C113.555 20.1875 113.121 20.6328 112.746 20.9609C112.395 21.2891 111.949 21.6055 111.41 21.9102C110.402 22.4961 109.559 22.7891 108.879 22.7891C108.715 22.7891 108.633 22.7305 108.633 22.6133C108.633 22.543 108.855 22.3906 109.301 22.1562C109.746 21.9219 110.168 21.6406 110.566 21.3125C111.574 20.4688 112.406 19.6016 113.062 18.7109C112.922 18.5703 112.219 17.9609 110.953 16.8828C110.789 16.7656 110.543 16.5664 110.215 16.2852C110.145 16.2383 110.004 16.1328 109.793 15.9688C109.582 15.8047 109.477 15.6875 109.477 15.6172C109.477 15.5 109.535 15.4414 109.652 15.4414C110.004 15.4414 110.566 15.6875 111.34 16.1797C112.113 16.6484 112.922 17.2109 113.766 17.8672C114.094 17.4688 114.352 17.0938 114.539 16.7422C114.727 16.3906 114.938 15.957 115.172 15.4414C115.289 15.1836 115.359 14.9609 115.383 14.7734C115.406 14.5625 115.418 14.4336 115.418 14.3867C115.418 14.1289 115.488 14 115.629 14C115.793 14 116.016 14.1289 116.297 14.3867C116.789 14.8555 117.035 15.1719 117.035 15.3359C117.035 15.4297 116.977 15.5352 116.859 15.6523C116.578 15.9336 116.32 16.3086 116.086 16.7773C115.945 17.0586 115.688 17.457 115.312 17.9727C115.195 18.1133 115.102 18.2422 115.031 18.3594C114.961 18.4766 114.891 18.582 114.82 18.6758C115.359 19.0742 116.156 19.7539 117.211 20.7148C117.469 20.9492 117.633 21.1719 117.703 21.3828C117.797 21.5703 117.844 21.8281 117.844 22.1562C117.844 22.3906 117.785 22.5898 117.668 22.7539C117.551 22.8945 117.398 22.9648 117.211 22.9648ZM117.844 27.6055C118.102 27.8867 118.23 28.1211 118.23 28.3086C118.23 28.4727 118.137 28.625 117.949 28.7656C117.832 28.8594 117.539 29.375 117.07 30.3125C116.555 31.1562 115.98 31.8828 115.348 32.4922C114.738 33.125 114.129 33.582 113.52 33.8633C113.379 33.9102 113.262 33.9336 113.168 33.9336C113.074 33.9336 113.027 33.9102 113.027 33.8633V33.793C113.027 33.6523 113.145 33.4883 113.379 33.3008C113.801 32.9727 114.117 32.6328 114.328 32.2812C114.562 31.9531 114.738 31.707 114.855 31.543C115.348 30.8398 115.699 30.2656 115.91 29.8203C116.145 29.4219 116.309 29.0117 116.402 28.5898H116.262C115.652 28.5898 114.668 28.6602 113.309 28.8008C113.098 28.8242 112.488 28.9062 111.48 29.0469C111.27 29.0703 110.941 29.1289 110.496 29.2227L110.074 29.3281C109.98 29.375 109.887 29.3984 109.793 29.3984C109.676 29.3984 109.559 29.375 109.441 29.3281C109.324 29.2578 109.207 29.1758 109.09 29.082C108.809 28.8477 108.668 28.6484 108.668 28.4844C108.691 28.4375 108.715 28.3672 108.738 28.2734C108.785 28.1797 108.809 28.0977 108.809 28.0273L108.984 26.8672C109.008 26.75 109.031 26.6211 109.055 26.4805C109.078 26.3398 109.09 26.1992 109.09 26.0586C109.09 25.6133 109.078 25.2617 109.055 25.0039C109.055 24.7227 109.02 24.4297 108.949 24.125V24.0195C108.949 23.8555 109.02 23.7734 109.16 23.7734C109.301 23.7734 109.547 23.8789 109.898 24.0898C110.367 24.418 110.602 24.6758 110.602 24.8633C110.602 24.9336 110.59 24.9922 110.566 25.0391C110.543 25.0859 110.52 25.1328 110.496 25.1797C110.426 25.6016 110.391 25.8359 110.391 25.8828L110.215 27.7461C110.215 27.793 110.238 27.8516 110.285 27.9219C110.355 27.9688 110.426 27.9922 110.496 27.9922C111.059 27.9922 112.324 27.8516 114.293 27.5703C115.066 27.5 115.617 27.418 115.945 27.3242C116.156 27.3008 116.332 27.2656 116.473 27.2188C116.637 27.1484 116.742 27.1133 116.789 27.1133C116.93 27.0664 117.023 27.043 117.07 27.043C117.281 27.043 117.539 27.2305 117.844 27.6055ZM84.1289 17.2344L81.7383 17.9023L80.6836 18.1836C79.957 18.3711 79.4766 18.4766 79.2422 18.5C78.9609 18.5 78.7031 18.4766 78.4688 18.4297C78.1641 18.3594 77.8242 18.207 77.4492 17.9727C77.0508 17.7383 76.7578 17.4102 76.5703 16.9883C76.6641 16.8477 76.8398 16.7656 77.0977 16.7422L77.9766 16.707C78.7031 16.6836 79.4766 16.6484 80.2969 16.6016C81.1172 16.5312 81.8555 16.4375 82.5117 16.3203L84.7617 15.9336C85.0898 15.1836 85.2891 14.7148 85.3594 14.5273L85.8164 13.1562C85.4414 13.1797 85.1484 13.2031 84.9375 13.2266C84.7266 13.25 84.375 13.2969 83.8828 13.3672C83.3906 13.4609 82.9922 13.5078 82.6875 13.5078C82.3125 13.5078 82.0195 13.4609 81.8086 13.3672C81.5273 13.25 81.3164 13.1211 81.1758 12.9805L81.0352 12.6641C81.0586 12.5 81.1758 12.418 81.3867 12.418L82.0547 12.3477C82.2188 12.3477 82.6172 12.3125 83.25 12.2422C83.8828 12.1719 84.4805 12.1133 85.043 12.0664L86.2383 11.9258C86.543 10.9883 86.7188 10.4023 86.7656 10.168L87.0469 8.76172C86.1797 8.83203 85.3945 8.91406 84.6914 9.00781C83.9648 9.07812 83.4961 9.11328 83.2852 9.11328H82.7578C82.2891 9.11328 81.9375 9.06641 81.7031 8.97266C81.3984 8.83203 81.1758 8.66797 81.0352 8.48047L80.8945 8.12891L81.1406 7.95312H81.8789L82.8633 7.84766L84.9023 7.70703L87.293 7.35547L87.4336 5.45703V5.10547C87.4336 4.84766 87.4102 4.53125 87.3633 4.15625C87.3164 3.80469 87.2812 3.55859 87.2578 3.41797L87.1172 2.64453L87.4688 2.39844C87.7031 2.375 87.9492 2.41016 88.207 2.50391C88.5352 2.64453 88.8633 2.79688 89.1914 2.96094C89.5195 3.125 89.8008 3.32422 90.0352 3.55859C90.2695 3.79297 90.3867 4.02734 90.3867 4.26172L90.1406 4.75391C89.9766 5.01172 89.8477 5.30469 89.7539 5.63281L89.2617 7.07422L92.1445 6.65234L93.7266 6.30078C94.0078 6.25391 94.2656 6.21875 94.5 6.19531C94.8984 6.19531 95.3203 6.28906 95.7656 6.47656C96.1641 6.61719 96.3633 6.79297 96.3633 7.00391C96.3398 7.23828 96.2461 7.37891 96.082 7.42578L95.3789 7.63672C95.1445 7.68359 94.7461 7.75391 94.1836 7.84766L91.9336 8.19922C91.1367 8.31641 90.4688 8.39844 89.9297 8.44531L88.9805 8.55078C88.7227 9.46484 88.5703 10.0273 88.5234 10.2383L88.1367 11.6445L90.3164 11.2578C90.7852 11.1875 91.3242 11.082 91.9336 10.9414C92.543 10.7773 93.0352 10.6836 93.4102 10.6602C93.7617 10.6602 94.043 10.6836 94.2539 10.7305C94.582 10.7773 94.8867 10.8711 95.168 11.0117L95.625 11.3984C95.625 11.5859 95.4609 11.7266 95.1328 11.8203C94.875 11.8906 94.5234 11.9492 94.0781 11.9961C93.6328 12.043 93.0586 12.1133 92.3555 12.207L90.2109 12.5586L87.8555 12.9102C87.5273 13.8008 87.3281 14.3516 87.2578 14.5625L86.8711 15.6523C87.5742 15.582 88.1016 15.5234 88.4531 15.4766L92.0742 15.1602C92.7305 15.1133 93.4453 15.0195 94.2188 14.8789C94.9922 14.7617 95.6133 14.6445 96.082 14.5273L97.1367 14.2461C97.6055 14.1523 97.9688 14.1055 98.2266 14.1055C98.5312 14.1055 98.8008 14.1523 99.0352 14.2461C99.293 14.3398 99.668 14.4922 100.16 14.7031C100.652 14.9141 100.969 15.1367 101.109 15.3711L101.215 15.9336C101.121 16.1211 100.934 16.2266 100.652 16.25L99.8789 16.2852L97.6992 16.2148C97.3477 16.2148 96.6914 16.2383 95.7305 16.2852L92.918 16.3555H91.6523L92.7773 17.1992L94.8867 18.9922C96.0117 19.9531 97.0195 20.7617 97.9102 21.418C98.8008 22.0742 99.5391 22.5547 100.125 22.8594C100.711 23.1641 101.566 23.5508 102.691 24.0195C103.816 24.4648 104.801 24.793 105.645 25.0039L106.594 25.7422L105.855 25.9531L103.605 26.4102C102.668 26.5977 101.941 26.6914 101.426 26.6914C100.816 26.6211 100.266 26.4219 99.7734 26.0938C99.2812 25.7656 98.8242 25.3789 98.4023 24.9336L95.6602 21.9805C94.3008 20.4805 93.2461 19.3672 92.4961 18.6406C91.793 17.9141 91.2539 17.4336 90.8789 17.1992L89.9297 16.4961C88.875 16.6133 88.2305 16.6836 87.9961 16.707L86.2734 16.918C85.5703 18.2773 84.9961 19.2852 84.5508 19.9414C84.1055 20.5977 83.4961 21.3242 82.7227 22.1211C81.9727 22.9648 81.1875 23.7031 80.3672 24.3359C79.5469 24.9688 78.7852 25.4844 78.082 25.8828C77.332 26.2812 76.5938 26.6211 75.8672 26.9023C75.1406 27.1602 74.6602 27.3242 74.4258 27.3945L73.4062 27.2188L74.2852 26.6562L75.2695 26.0938C75.8789 25.7656 76.5469 25.3438 77.2734 24.8281C78 24.3359 78.7148 23.7734 79.418 23.1406C80.1211 22.5078 80.8828 21.7227 81.7031 20.7852C82.5469 19.8477 83.0977 19.1445 83.3555 18.6758L84.1289 17.2344ZM90.9844 32.3867L88.7344 32.5977C87.7031 32.6914 87.1055 32.7383 86.9414 32.7383L85.2539 32.7734L85.1133 33.3359C84.9727 33.7578 84.8086 33.9688 84.6211 33.9688C84.4336 33.9453 84.2461 33.793 84.0586 33.5117C83.8477 33.207 83.7188 32.8438 83.6719 32.4219C83.6719 32.1172 83.6953 31.8008 83.7422 31.4727C83.7891 31.0273 83.8125 30.5117 83.8125 29.9258L83.6367 24.8633C83.5898 24.207 83.5195 23.7266 83.4258 23.4219C83.3555 23.1172 83.2734 22.8828 83.1797 22.7188L83.0742 22.4023C83.1211 22.2617 83.3438 22.168 83.7422 22.1211L84.7266 22.332L85.8516 22.1914C86.25 22.1445 86.7305 22.0625 87.293 21.9453L89.1914 21.5586C89.8477 21.418 90.3164 21.3008 90.5977 21.207C90.8789 21.1367 91.1602 21.043 91.4414 20.9258L92.1094 20.7148C92.3672 20.6914 92.5898 20.7148 92.7773 20.7852C93.0352 20.8789 93.3164 21.0312 93.6211 21.2422C93.9492 21.4531 94.2305 21.6641 94.4648 21.875L94.8516 22.3672C94.8516 22.5312 94.8164 22.6836 94.7461 22.8242C94.6758 23.0117 94.6172 23.2109 94.5703 23.4219C94.5 23.6328 94.4648 23.832 94.4648 24.0195C94.418 24.207 94.3828 24.582 94.3594 25.1445V25.7422C94.3594 26.1406 94.3711 26.5742 94.3945 27.043C94.418 27.6055 94.4648 28.1914 94.5352 28.8008L94.8164 30.5938C94.9102 31.2031 94.957 31.6602 94.957 31.9648C94.9102 32.5742 94.7344 33.1836 94.4297 33.793C94.1016 34.4023 93.7852 34.7773 93.4805 34.918L92.9531 35.0586C92.6953 35.0352 92.4492 34.8008 92.2148 34.3555C92.0039 33.9336 91.7695 33.5234 91.5117 33.125L90.9844 32.3867ZM85.3242 31.5781C86.3555 31.4609 87.1406 31.3672 87.6797 31.2969L89.5078 31.0508C90.1875 30.9336 90.6445 30.875 90.8789 30.875C91.2539 30.8984 91.5352 30.957 91.7227 31.0508L92.4609 31.4727L92.6367 27.0078C92.1211 27.125 91.7344 27.1953 91.4766 27.2188L89.0508 27.6758C87.9727 27.8633 87.2109 27.9805 86.7656 28.0273L86.3438 28.0625H85.9922L85.2539 27.8867L85.3242 31.5781ZM85.2539 26.9023C85.4883 26.9023 85.6992 26.8906 85.8867 26.8672C86.0742 26.8438 86.5664 26.7617 87.3633 26.6211C88.207 26.457 88.8867 26.3047 89.4023 26.1641C89.9648 26 90.3867 25.918 90.668 25.918C90.9258 25.918 91.1602 25.9297 91.3711 25.9531C91.6758 26 92.0391 26.1055 92.4609 26.2695L92.6367 23.3164C92.6133 22.9414 92.5547 22.6953 92.4609 22.5781C92.3438 22.4609 92.1211 22.3906 91.793 22.3672C91.4883 22.3672 91.1602 22.3789 90.8086 22.4023L89.2617 22.4727C88.8867 22.5195 88.3477 22.6367 87.6445 22.8242C86.9414 22.9883 86.4492 23.1172 86.168 23.2109L85.5352 23.3516L85.3945 23.7031C85.418 23.8438 85.418 24.043 85.3945 24.3008C85.3477 24.5352 85.3242 24.7344 85.3242 24.8984L85.2539 26.9023ZM170.121 13.6836C169.957 13.6836 169.781 13.5781 169.594 13.3672C169.453 13.2031 169.359 13.0742 169.312 12.9805C169.266 12.8633 169.266 12.7109 169.312 12.5234L169.348 11.6797C169.371 11.5156 169.383 11.1172 169.383 10.4844V9.32422L168.328 9.81641L167.098 10.3438C166.793 10.4609 166.477 10.6016 166.148 10.7656C165.867 10.9062 165.621 10.9766 165.41 10.9766C165.246 10.9531 165.059 10.8945 164.848 10.8008C164.637 10.707 164.473 10.625 164.355 10.5547C164.098 10.3906 163.98 10.2148 164.004 10.0273L164.109 9.67578C164.109 9.48828 164.121 9.32422 164.145 9.18359L164.18 7.14453V5.24609C164.18 4.87109 164.156 4.55469 164.109 4.29688C164.062 4.01562 164.027 3.81641 164.004 3.69922C164.004 3.58203 164.039 3.5 164.109 3.45312C164.133 3.42969 164.191 3.41797 164.285 3.41797C164.449 3.41797 164.766 3.52344 165.234 3.73438C165.633 3.92188 165.797 4.15625 165.727 4.4375C165.68 4.60156 165.633 4.84766 165.586 5.17578L165.48 9.21875C165.48 9.33594 165.492 9.42969 165.516 9.5C165.562 9.54688 165.609 9.57031 165.656 9.57031C165.938 9.57031 166.277 9.48828 166.676 9.32422C167.426 9.08984 168.07 8.85547 168.609 8.62109L169.383 8.30469V5.98438C169.383 5.04688 169.324 4.14453 169.207 3.27734C169.184 3.20703 169.172 3.125 169.172 3.03125C169.172 2.79688 169.266 2.67969 169.453 2.67969C169.477 2.67969 169.605 2.72656 169.84 2.82031C170.191 3.00781 170.449 3.17188 170.613 3.3125C170.777 3.45312 170.871 3.53516 170.895 3.55859C170.988 3.62891 171.035 3.69922 171.035 3.76953C171.035 3.81641 171.012 3.875 170.965 3.94531C170.941 4.01562 170.918 4.07422 170.895 4.12109L170.789 5.17578L170.754 8.41016L170.789 11.5391C170.789 12.0781 170.754 12.5469 170.684 12.9453C170.566 13.4375 170.379 13.6836 170.121 13.6836ZM163.652 19.4492C163.395 19.4492 163.078 19.25 162.703 18.8516C162.422 18.5703 162.281 18.3594 162.281 18.2188C162.281 18.1484 162.328 18.1133 162.422 18.1133C162.516 18.0898 162.633 18.0781 162.773 18.0781L163.547 18.043C163.992 18.043 164.285 18.0312 164.426 18.0078C164.871 18.0078 165.246 17.9961 165.551 17.9727C167.566 17.7852 168.926 17.6328 169.629 17.5156C169.98 17.4688 170.297 17.4219 170.578 17.375C170.859 17.3047 171.082 17.2695 171.246 17.2695C171.574 17.2695 171.902 17.4336 172.23 17.7617C172.488 18.0195 172.617 18.2305 172.617 18.3945C172.617 18.5352 172.535 18.6289 172.371 18.6758C172.254 18.6992 171.562 18.7461 170.297 18.8164C169.594 18.8398 168.727 18.8984 167.695 18.9922C166.664 19.0859 165.762 19.1797 164.988 19.2734C164.848 19.2969 164.648 19.332 164.391 19.3789C164.133 19.4258 163.887 19.4492 163.652 19.4492ZM168.363 33.9688C167.637 33.9688 167.074 33.9453 166.676 33.8984C166.301 33.8516 165.984 33.7109 165.727 33.4766C165.281 33.1484 164.977 32.4336 164.812 31.332L164.707 30.207C164.707 29.9258 164.684 29.5742 164.637 29.1523C164.262 29.1992 163.992 29.2461 163.828 29.293C163.781 29.3164 163.699 29.3516 163.582 29.3984C163.488 29.4219 163.418 29.4336 163.371 29.4336C163.207 29.4336 163.055 29.3867 162.914 29.293C162.773 29.1992 162.598 29.0234 162.387 28.7656C162.223 28.5547 162.141 28.4141 162.141 28.3438C162.141 28.2734 162.223 28.2266 162.387 28.2031C162.551 28.1797 162.773 28.168 163.055 28.168C163.453 28.168 163.969 28.1211 164.602 28.0273L164.566 27.5352C164.566 26.5977 164.508 25.8008 164.391 25.1445L164.355 24.8984C164.355 24.5703 164.484 24.4414 164.742 24.5117C165.023 24.6055 165.281 24.7227 165.516 24.8633C165.703 24.957 165.832 25.0508 165.902 25.1445C165.973 25.2148 165.996 25.3203 165.973 25.4609L165.867 26.9727V27.8867L168.961 27.5703C168.961 27.4062 168.973 27.0195 168.996 26.4102C169.02 25.7773 169.02 25.3672 168.996 25.1797C168.996 24.9922 168.973 24.8164 168.926 24.6523C168.902 24.4648 168.879 24.3125 168.855 24.1953C168.855 24.0078 168.949 23.9141 169.137 23.9141C169.324 23.9141 169.559 24.0195 169.84 24.2305C170.168 24.4414 170.379 24.6289 170.473 24.793C170.59 24.957 170.613 25.1562 170.543 25.3906C170.426 25.7656 170.344 26.1875 170.297 26.6562C170.25 27.125 170.227 27.4062 170.227 27.5C170.508 27.4766 170.766 27.4414 171 27.3945C171.234 27.3477 171.387 27.3242 171.457 27.3242C171.645 27.2773 171.867 27.2539 172.125 27.2539C172.266 27.2773 172.465 27.418 172.723 27.6758C172.934 27.957 173.039 28.1797 173.039 28.3438C173.039 28.5781 172.816 28.6719 172.371 28.625C171.973 28.5547 171.574 28.5195 171.176 28.5195C170.777 28.5195 170.438 28.5312 170.156 28.5547C170.086 29.3984 169.945 30.2305 169.734 31.0508C169.688 31.2383 169.605 31.4023 169.488 31.543C169.371 31.6602 169.266 31.7188 169.172 31.7188C169.008 31.7188 168.902 31.6602 168.855 31.543C168.832 31.4023 168.82 31.1914 168.82 30.9102C168.867 30.3008 168.891 29.5391 168.891 28.625C168.258 28.6719 167.766 28.7188 167.414 28.7656C166.875 28.8828 166.371 28.9531 165.902 28.9766C165.879 29.9375 165.926 30.793 166.043 31.543C166.113 32.0352 166.254 32.375 166.465 32.5625C166.605 32.6797 166.77 32.75 166.957 32.7734C167.168 32.7969 167.379 32.8086 167.59 32.8086C167.801 32.8086 167.941 32.8086 168.012 32.8086C168.738 32.8086 169.418 32.7734 170.051 32.7031C170.238 32.6797 170.402 32.6328 170.543 32.5625C170.707 32.4922 170.824 32.457 170.895 32.457C171.105 32.457 171.316 32.5273 171.527 32.668C171.738 32.8086 171.844 32.9727 171.844 33.1602C171.844 33.3477 171.738 33.4883 171.527 33.582C171.34 33.6758 171.035 33.7578 170.613 33.8281C169.863 33.9219 169.113 33.9688 168.363 33.9688ZM178.383 17.9727C178.664 17.9727 178.805 18.1016 178.805 18.3594C178.805 18.5 178.676 18.6992 178.418 18.957C177.715 19.8242 176.32 21.4766 174.234 23.9141C174.07 24.125 173.918 24.2305 173.777 24.2305C173.66 24.2305 173.402 24.0547 173.004 23.7031C172.676 23.4219 172.512 23.1875 172.512 23C172.512 22.7891 172.688 22.5898 173.039 22.4023C173.578 22.0977 174.387 21.4883 175.465 20.5742C176.543 19.6133 177.34 18.8516 177.855 18.2891C178.066 18.0781 178.242 17.9727 178.383 17.9727ZM139.992 26.3398C139.875 26.1523 139.781 25.9883 139.711 25.8477C139.617 25.707 139.523 25.5195 139.43 25.2852V24.4414L140.379 24.6523L141.328 25.0742C141.75 25.2617 142.125 25.4492 142.453 25.6367C142.781 25.8477 143.051 26.1641 143.262 26.5859C143.426 26.9375 143.508 27.3477 143.508 27.8164C143.484 28.2852 143.367 28.6484 143.156 28.9062C142.969 29.1641 142.723 29.293 142.418 29.293C142.113 29.293 141.797 29.1055 141.469 28.7305C141.281 28.543 141.105 28.2734 140.941 27.9219L140.414 27.043L136.617 29.7852L135.352 30.8398L134.508 31.6836L134.086 31.9648C133.852 31.9648 133.617 31.8125 133.383 31.5078C133.172 31.25 132.984 30.9336 132.82 30.5586C132.68 30.2539 132.609 29.9609 132.609 29.6797L132.82 29.0117C132.961 28.6367 133.066 28.25 133.137 27.8516C133.207 27.4297 133.266 26.9492 133.312 26.4102C133.359 25.8945 133.406 25.1445 133.453 24.1602L133.629 18.043C133.629 17.7148 133.617 17.375 133.594 17.0234C133.547 16.6719 133.488 16.3789 133.418 16.1445C133.348 15.9102 133.242 15.6992 133.102 15.5117L132.82 15.2305L132.75 14.8789C132.844 14.7383 133.008 14.668 133.242 14.668C133.805 14.668 134.25 14.7617 134.578 14.9492L135.105 15.2305C135.691 15.1602 136.172 15.0898 136.547 15.0195C136.945 14.9727 137.438 14.8789 138.023 14.7383C138.586 14.5977 139.02 14.4805 139.324 14.3867C139.629 14.293 139.945 14.1758 140.273 14.0352C140.602 13.8945 140.859 13.8242 141.047 13.8242C141.234 13.8477 141.457 13.918 141.715 14.0352L142.453 14.4219L142.91 14.7383C143.332 14.9961 143.602 15.207 143.719 15.3711L143.754 16.0039L143.402 16.5312C143.332 16.6719 143.227 16.9062 143.086 17.2344L142.91 17.7617L142.031 21.0312L141.68 22.4023C141.492 22.8711 141.305 23.1641 141.117 23.2812L140.73 23.4219H140.484L140.027 22.9648C139.395 23.0352 138.914 23.082 138.586 23.1055L136.16 23.457L135.281 23.5273L135.07 27.3945L135.211 28.168C135.398 28.168 135.609 28.1211 135.844 28.0273L139.992 26.3398ZM135.281 22.3672C135.703 22.3438 136.031 22.3203 136.266 22.2969C136.5 22.2734 136.852 22.2031 137.32 22.0859C137.836 21.9688 138.281 21.875 138.656 21.8047C138.938 21.7578 139.195 21.7344 139.43 21.7344L140.098 21.8047L140.695 19.0977C140.109 19.1445 139.676 19.1914 139.395 19.2383L137.707 19.5195C137.215 19.6133 136.816 19.6602 136.512 19.6602L135.949 19.5898L135.422 19.4141L135.281 22.3672ZM135.457 18.6758C135.902 18.6523 136.254 18.6172 136.512 18.5703C136.77 18.5234 137.203 18.418 137.812 18.2539C138.375 18.0898 138.797 17.9961 139.078 17.9727C139.477 17.9727 139.863 18.043 140.238 18.1836L140.801 18.3945L140.977 17.3047C141.023 17 141.047 16.6602 141.047 16.2852C141.047 15.9102 140.988 15.6641 140.871 15.5469C140.754 15.4297 140.59 15.3711 140.379 15.3711C140.145 15.3945 139.852 15.4531 139.5 15.5469C139.172 15.6172 138.633 15.7227 137.883 15.8633C137.109 16.0039 136.617 16.0742 136.406 16.0742L135.668 16.1094L135.457 18.6758ZM148.148 17.1992C148.055 17.5742 147.996 17.8555 147.973 18.043C147.949 18.2305 147.914 18.5352 147.867 18.957C147.82 19.3789 147.797 19.7305 147.797 20.0117L147.691 27.1133C147.668 28.0977 147.586 29.2461 147.445 30.5586L147.305 32.0703C147.211 32.9844 147.047 33.7695 146.812 34.4258C146.578 35.0586 146.367 35.375 146.18 35.375C146.016 35.3516 145.875 35.0117 145.758 34.3555C145.641 33.7227 145.57 32.9844 145.547 32.1406C145.523 31.5781 145.512 31.0156 145.512 30.4531V29.5742L145.652 20.3633C145.676 19.7539 145.688 19.2617 145.688 18.8867C145.688 18.5117 145.676 18.2539 145.652 18.1133C145.629 17.8086 145.594 17.457 145.547 17.0586C145.5 16.6602 145.418 16.332 145.301 16.0742L145.16 15.3711L145.336 15.1602C145.547 15.1602 145.805 15.207 146.109 15.3008C146.719 15.4883 147.117 15.6406 147.305 15.7578L147.867 16.1094L149.59 15.7227C150.176 15.582 150.773 15.418 151.383 15.2305L152.156 15.0195C152.531 14.9023 152.859 14.7734 153.141 14.6328L153.633 14.457C153.797 14.457 153.996 14.5273 154.23 14.668C154.465 14.8086 154.711 14.9727 154.969 15.1602C155.25 15.3477 155.52 15.5586 155.777 15.793C155.988 15.9805 156.059 16.2617 155.988 16.6367C155.801 16.8945 155.672 17.1289 155.602 17.3398C155.555 17.5508 155.508 17.832 155.461 18.1836C155.414 18.5586 155.391 18.9453 155.391 19.3438L155.18 23.1055C155.133 24.043 155.062 24.7695 154.969 25.2852C154.898 25.8008 154.746 26.2578 154.512 26.6562C154.254 27.0547 153.961 27.3711 153.633 27.6055L153 27.8867C152.812 27.8398 152.625 27.6992 152.438 27.4648C152.227 27.207 151.934 26.8789 151.559 26.4805C151.207 26.0586 150.867 25.6836 150.539 25.3555L149.906 24.793L149.695 24.3008C149.836 24.2773 150 24.3008 150.188 24.3711L150.996 24.6172C151.465 24.7812 151.828 24.875 152.086 24.8984C152.297 24.8984 152.473 24.8633 152.613 24.793C152.824 24.6523 152.953 24.3477 153 23.8789C153.07 23.3633 153.117 22.8711 153.141 22.4023L153.281 17.832C153.281 17.293 153.258 16.9414 153.211 16.7773L153.07 16.4961C152.93 16.3555 152.719 16.2852 152.438 16.2852C152.203 16.2852 151.805 16.332 151.242 16.4258L149.66 16.7422L148.148 17.1992ZM148.852 6.40625L153.281 5.52734C153.516 5.48047 153.773 5.41016 154.055 5.31641L154.688 5.17578C154.992 5.15234 155.25 5.16406 155.461 5.21094C155.742 5.28125 156.035 5.41016 156.34 5.59766L156.832 5.94922C156.855 6.08984 156.773 6.25391 156.586 6.44141C156.398 6.58203 156.129 6.6875 155.777 6.75781L154.477 7.00391C154.102 7.05078 153.574 7.12109 152.895 7.21484C152.215 7.28516 151.605 7.35547 151.066 7.42578C150.527 7.51953 150.164 7.56641 149.977 7.56641C149.602 7.56641 149.238 7.51953 148.887 7.42578L148.289 7.32031L147.27 8.72656C146.871 9.24219 146.391 9.76953 145.828 10.3086C145.219 10.8711 144.82 11.2109 144.633 11.3281L144 11.7148L143.578 11.8555L143.332 11.6797L143.578 11.293L144.352 10.3086C144.68 9.91016 144.949 9.55859 145.16 9.25391C145.371 8.92578 145.617 8.51562 145.898 8.02344C146.203 7.53125 146.449 7.09766 146.637 6.72266C146.801 6.37109 146.953 6.01953 147.094 5.66797C147.234 5.29297 147.34 4.98828 147.41 4.75391C147.48 4.49609 147.562 4.23828 147.656 3.98047C147.703 3.69922 147.727 3.44141 147.727 3.20703L147.938 2.64453L148.184 2.53906C148.348 2.53906 148.535 2.58594 148.746 2.67969C149.027 2.79688 149.32 2.94922 149.625 3.13672C149.93 3.32422 150.164 3.52344 150.328 3.73438L150.539 4.15625L150.469 4.47266C150.352 4.58984 150.188 4.75391 149.977 4.96484C149.742 5.19922 149.531 5.43359 149.344 5.66797L148.852 6.40625ZM137.25 7.28516L138.234 7.10938C138.656 7.03906 139.324 6.86328 140.238 6.58203L140.766 6.40625L141.645 6.16016L142.172 6.26562C142.453 6.33594 142.664 6.39453 142.805 6.44141C142.945 6.51172 143.086 6.60547 143.227 6.72266L143.473 6.96875C143.496 7.13281 143.438 7.27344 143.297 7.39062C143.109 7.50781 142.805 7.61328 142.383 7.70703L141.539 7.91797C141.352 7.96484 140.883 8.03516 140.133 8.12891L138.938 8.30469C138.633 8.32812 138.387 8.33984 138.199 8.33984L137.742 8.30469L136.828 7.98828L135.773 9.21875C135.445 9.61719 135.07 10.0156 134.648 10.4141C134.227 10.8359 133.84 11.1758 133.488 11.4336C133.137 11.668 132.762 11.9023 132.363 12.1367L131.168 12.5234C131.145 12.3594 131.203 12.207 131.344 12.0664L131.941 11.5039C132.293 11.1758 132.609 10.8477 132.891 10.5195C133.172 10.2383 133.512 9.81641 133.91 9.25391C134.309 8.69141 134.672 8.12891 135 7.56641C135.328 7.05078 135.609 6.58203 135.844 6.16016C136.055 5.73828 136.23 5.33984 136.371 4.96484C136.512 4.58984 136.582 4.21484 136.582 3.83984L136.863 3.3125C137.168 3.3125 137.496 3.41797 137.848 3.62891C138.199 3.81641 138.434 3.96875 138.551 4.08594C138.691 4.20313 138.82 4.33203 138.938 4.47266L139.148 5.17578C139.102 5.31641 138.984 5.44531 138.797 5.5625L138.41 5.80859L137.742 6.72266L137.25 7.28516ZM137.391 10.0625C137.648 10.0156 137.883 10.0039 138.094 10.0273L138.867 10.2031C139.078 10.2734 139.312 10.3438 139.57 10.4141C139.828 10.4844 140.039 10.5898 140.203 10.7305C140.391 10.8711 140.52 11.0117 140.59 11.1523C140.66 11.293 140.695 11.5039 140.695 11.7852C140.695 12.1602 140.602 12.4414 140.414 12.6289C140.25 12.8164 140.039 12.9219 139.781 12.9453C139.57 12.9453 139.312 12.8164 139.008 12.5586C138.797 12.3945 138.516 12.1133 138.164 11.7148C137.812 11.3398 137.555 11.0469 137.391 10.8359C137.25 10.625 137.25 10.3672 137.391 10.0625ZM149.414 8.90234L150.293 9.04297C150.926 9.18359 151.465 9.35938 151.91 9.57031C152.332 9.78125 152.648 10.0273 152.859 10.3086C153.047 10.5898 153.141 10.9648 153.141 11.4336C153.117 11.9961 152.918 12.3594 152.543 12.5234C152.238 12.5234 151.945 12.4297 151.664 12.2422C151.289 12.0312 150.926 11.7266 150.574 11.3281L149.695 10.2383L149.027 8.9375C149.191 8.89062 149.32 8.87891 149.414 8.90234Z" fill="#333333"/>
<path d="M98.0273 65.9883C97.7539 65.9883 97.5534 65.8424 97.4258 65.5508L97.1797 65.0039C96.4688 65.1862 95.8945 65.3229 95.457 65.4141L93.6797 65.8516C93.3151 65.9427 93.0872 65.9883 92.9961 65.9883C92.8867 65.9883 92.7956 65.9701 92.7227 65.9336C92.668 65.8789 92.6224 65.8333 92.5859 65.7969C92.5495 65.7422 92.5221 65.6966 92.5039 65.6602C92.3581 65.4049 92.2943 65.2318 92.3125 65.1406L92.5039 64.8398C92.9779 64.1836 93.4154 63.2448 93.8164 62.0234L93.2695 62.1055L92.5586 62.1875C92.5039 62.2057 92.3854 62.2422 92.2031 62.2969C92.0391 62.3333 91.9115 62.3242 91.8203 62.2695C91.6198 62.1419 91.3555 61.9141 91.0273 61.5859C90.9544 61.513 90.918 61.4583 90.918 61.4219C90.918 61.3125 91.1185 61.2578 91.5195 61.2578H92.4492C93.069 61.2214 93.6341 61.1758 94.1445 61.1211C94.2539 60.8477 94.3724 60.5013 94.5 60.082C94.6276 59.6628 94.7188 59.3255 94.7734 59.0703C94.7734 59.0156 94.7734 58.9062 94.7734 58.7422C94.7917 58.5781 94.8281 58.4779 94.8828 58.4414H94.9102C94.9831 58.4414 95.0833 58.4779 95.2109 58.5508C95.3385 58.6237 95.457 58.7148 95.5664 58.8242C95.9128 59.1706 96.013 59.444 95.8672 59.6445C95.7943 59.6628 95.6393 59.9635 95.4023 60.5469C95.3841 60.5833 95.3203 60.7474 95.2109 61.0391C95.3568 61.0208 95.8854 60.957 96.7969 60.8477C97.2161 60.8112 97.5352 60.7656 97.7539 60.7109C98.0638 60.6198 98.3099 60.5742 98.4922 60.5742C98.638 60.5742 98.7565 60.6289 98.8477 60.7383C98.9388 60.8294 99.0026 60.8932 99.0391 60.9297C99.0938 60.9844 99.1576 61.0938 99.2305 61.2578C99.3034 61.3854 99.3307 61.4766 99.3125 61.5312C99.2396 61.6406 99.112 61.6953 98.9297 61.6953C98.3281 61.6589 97.6081 61.6771 96.7695 61.75C96.4049 61.7865 96.1315 61.8229 95.9492 61.8594L94.8828 61.9688L94.6367 62.707L94.3359 63.3633C94.2448 63.582 94.1445 63.8008 94.0352 64.0195C93.9258 64.2383 93.8438 64.4206 93.7891 64.5664C93.7708 64.6029 93.7617 64.6576 93.7617 64.7305C93.7617 64.8216 93.8164 64.8672 93.9258 64.8672C94.0716 64.8672 94.5729 64.7852 95.4297 64.6211L96.4414 64.457L96.9062 64.3477C96.7422 63.8919 96.6146 63.6003 96.5234 63.4727C96.4323 63.3451 96.3776 63.263 96.3594 63.2266L96.5234 63.0625C97.2344 63.5182 97.8086 63.9831 98.2461 64.457C98.3737 64.6211 98.4557 64.776 98.4922 64.9219C98.5469 65.0677 98.5651 65.2318 98.5469 65.4141C98.5104 65.5781 98.4466 65.7057 98.3555 65.7969C98.319 65.888 98.2096 65.9518 98.0273 65.9883ZM92.2852 71.2383C92.0846 71.2383 91.8385 71.0833 91.5469 70.7734C91.3281 70.5547 91.2188 70.3906 91.2188 70.2812C91.2188 70.2266 91.2552 70.1992 91.3281 70.1992C91.401 70.181 91.4922 70.1719 91.6016 70.1719L92.2031 70.1445C92.5495 70.1445 92.7773 70.1354 92.8867 70.1172C93.2331 70.1172 93.5247 70.1081 93.7617 70.0898C95.3294 69.944 96.3867 69.8255 96.9336 69.7344C97.207 69.6979 97.4531 69.6615 97.6719 69.625C97.8906 69.5703 98.0638 69.543 98.1914 69.543C98.4466 69.543 98.7018 69.6706 98.957 69.9258C99.1576 70.1263 99.2578 70.2904 99.2578 70.418C99.2578 70.5273 99.194 70.6003 99.0664 70.6367C98.9753 70.6549 98.4375 70.6914 97.4531 70.7461C96.9062 70.7643 96.2318 70.8099 95.4297 70.8828C94.6276 70.9557 93.9258 71.0286 93.3242 71.1016C93.2148 71.1198 93.0599 71.1471 92.8594 71.1836C92.6589 71.2201 92.4674 71.2383 92.2852 71.2383ZM95.9492 82.5312C95.3841 82.5312 94.9466 82.513 94.6367 82.4766C94.3451 82.4401 94.099 82.3307 93.8984 82.1484C93.5521 81.8932 93.3151 81.3372 93.1875 80.4805L93.1055 79.6055C93.1055 79.3867 93.0872 79.1133 93.0508 78.7852C92.7591 78.8216 92.5495 78.8581 92.4219 78.8945C92.3854 78.9128 92.3216 78.9401 92.2305 78.9766C92.1576 78.9948 92.1029 79.0039 92.0664 79.0039C91.9388 79.0039 91.8203 78.9674 91.7109 78.8945C91.6016 78.8216 91.4648 78.6849 91.3008 78.4844C91.1732 78.3203 91.1094 78.2109 91.1094 78.1562C91.1094 78.1016 91.1732 78.0651 91.3008 78.0469C91.4284 78.0286 91.6016 78.0195 91.8203 78.0195C92.1302 78.0195 92.5312 77.9831 93.0234 77.9102L92.9961 77.5273C92.9961 76.7982 92.9505 76.1784 92.8594 75.668L92.832 75.4766C92.832 75.2214 92.9323 75.1211 93.1328 75.1758C93.3516 75.2487 93.5521 75.3398 93.7344 75.4492C93.8802 75.5221 93.9805 75.5951 94.0352 75.668C94.0898 75.7227 94.1081 75.8047 94.0898 75.9141L94.0078 77.0898V77.8008L96.4141 77.5547C96.4141 77.4271 96.4232 77.1263 96.4414 76.6523C96.4596 76.1602 96.4596 75.8411 96.4414 75.6953C96.4414 75.5495 96.4232 75.4128 96.3867 75.2852C96.3685 75.1393 96.3503 75.0208 96.332 74.9297C96.332 74.7839 96.4049 74.7109 96.5508 74.7109C96.6966 74.7109 96.8789 74.793 97.0977 74.957C97.3529 75.1211 97.5169 75.2669 97.5898 75.3945C97.681 75.5221 97.6992 75.6771 97.6445 75.8594C97.5534 76.151 97.4896 76.4792 97.4531 76.8438C97.4167 77.2083 97.3984 77.4271 97.3984 77.5C97.6172 77.4818 97.8177 77.4544 98 77.418C98.1823 77.3815 98.3008 77.3633 98.3555 77.3633C98.5013 77.3268 98.6745 77.3086 98.875 77.3086C98.9844 77.3268 99.1393 77.4362 99.3398 77.6367C99.5039 77.8555 99.5859 78.0286 99.5859 78.1562C99.5859 78.3385 99.4128 78.4115 99.0664 78.375C98.7565 78.3203 98.4466 78.293 98.1367 78.293C97.8268 78.293 97.5625 78.3021 97.3438 78.3203C97.2891 78.9766 97.1797 79.6237 97.0156 80.2617C96.9792 80.4076 96.9154 80.5352 96.8242 80.6445C96.7331 80.7357 96.651 80.7812 96.5781 80.7812C96.4505 80.7812 96.3685 80.7357 96.332 80.6445C96.3138 80.5352 96.3047 80.3711 96.3047 80.1523C96.3411 79.6784 96.3594 79.0859 96.3594 78.375C95.8672 78.4115 95.4844 78.4479 95.2109 78.4844C94.7917 78.5755 94.3997 78.6302 94.0352 78.6484C94.0169 79.3958 94.0534 80.0612 94.1445 80.6445C94.1992 81.0273 94.3086 81.2917 94.4727 81.4375C94.582 81.5286 94.7096 81.5833 94.8555 81.6016C95.0195 81.6198 95.1836 81.6289 95.3477 81.6289C95.5117 81.6289 95.6211 81.6289 95.6758 81.6289C96.2409 81.6289 96.7695 81.6016 97.2617 81.5469C97.4076 81.5286 97.5352 81.4922 97.6445 81.4375C97.7721 81.3828 97.8633 81.3555 97.918 81.3555C98.082 81.3555 98.2461 81.4102 98.4102 81.5195C98.5742 81.6289 98.6562 81.7565 98.6562 81.9023C98.6562 82.0482 98.5742 82.1576 98.4102 82.2305C98.2643 82.3034 98.0273 82.3672 97.6992 82.4219C97.1159 82.4948 96.5326 82.5312 95.9492 82.5312ZM69.9727 74.2188L70.3555 74.3555C70.4648 74.3919 70.6016 74.4648 70.7656 74.5742C70.9297 74.6836 71.0846 74.8021 71.2305 74.9297L71.3398 75.3945C71.2669 75.5039 71.1393 75.6315 70.957 75.7773C70.7747 75.9232 70.556 76.1237 70.3008 76.3789L69.5352 77.3633C69.3164 77.6185 68.9518 77.9648 68.4414 78.4023C67.931 78.8398 67.4935 79.1953 67.1289 79.4688C66.7461 79.7422 66.4453 79.9336 66.2266 80.043L65.3789 80.2617L65.6523 79.8789L65.9258 79.6055C66.0716 79.4414 66.2904 79.2135 66.582 78.9219L67.4023 77.9648C67.6758 77.6367 67.9583 77.2539 68.25 76.8164C68.5417 76.3789 68.7604 76.0234 68.9062 75.75C69.0339 75.4583 69.1341 75.2122 69.207 75.0117C69.2799 74.8294 69.3438 74.6107 69.3984 74.3555H68.6602L68.3047 74.8203L68.0039 74.5742C67.8945 74.4648 67.7943 74.3281 67.7031 74.1641C67.612 74 67.5391 73.8268 67.4844 73.6445C67.4297 73.4622 67.4023 73.2982 67.4023 73.1523C67.4023 73.0065 67.4661 72.6055 67.5938 71.9492C67.6302 71.7669 67.6758 71.4115 67.7305 70.8828C67.7669 70.3724 67.8034 69.9896 67.8398 69.7344L68.0039 64.9766C68.0039 64.6302 67.9857 64.3659 67.9492 64.1836C67.9128 63.9102 67.8581 63.6641 67.7852 63.4453L67.6484 63.0352L67.3477 62.3789C67.4206 62.2513 67.5482 62.1784 67.7305 62.1602C67.9492 62.1602 68.2409 62.224 68.6055 62.3516L69.1797 62.5977L71.6953 62.1602L72.4336 61.9961C72.7982 61.9232 73.1081 61.8411 73.3633 61.75L73.7188 61.6133C73.8828 61.6133 74.1289 61.6771 74.457 61.8047C74.7852 61.9323 75.0312 62.0417 75.1953 62.1328C75.3594 62.224 75.5234 62.3424 75.6875 62.4883L75.9336 62.8438C75.9518 62.9714 75.9154 63.1445 75.8242 63.3633C75.7148 63.582 75.6419 63.7734 75.6055 63.9375C75.569 64.1016 75.5326 64.4115 75.4961 64.8672C75.4596 65.3229 75.4414 65.6784 75.4414 65.9336L75.3867 69.9258V71.3203C75.4232 71.7396 75.4414 72.1133 75.4414 72.4414C75.4596 72.6602 75.4688 72.8789 75.4688 73.0977C75.4505 73.4258 75.4049 73.6901 75.332 73.8906C75.2591 74.0911 75.1406 74.319 74.9766 74.5742C74.8125 74.8112 74.612 74.9206 74.375 74.9023C74.2109 74.8112 74.0742 74.6654 73.9648 74.4648L73.7188 74.082L69.9727 74.2188ZM69.1523 66.6445L71.8594 66.1523L72.8164 65.9336C73.0352 65.9336 73.2539 65.9518 73.4727 65.9883L73.9102 66.043V65.1953L73.8555 64.1289C73.8555 63.7826 73.8372 63.5273 73.8008 63.3633C73.7643 63.2174 73.6914 63.099 73.582 63.0078C73.4727 62.9349 73.2904 62.8984 73.0352 62.8984C72.707 62.9167 72.4154 62.944 72.1602 62.9805L69.2344 63.418L69.1523 66.6445ZM69.1523 67.1367C69.1341 67.3737 69.125 67.556 69.125 67.6836L69.0977 68.9961L69.3164 69.7891L71.8867 69.4062L72.7891 69.2695L73.1992 69.3242L73.5273 69.4062L73.9102 69.5703V66.8086L73.6641 66.918C73.5547 66.9362 73.4089 66.9544 73.2266 66.9727L71.1758 67.2461L70.2461 67.3555L69.8633 67.3281L69.5078 67.3008L69.1523 67.1367ZM69.043 70.418L68.9883 71.4297L68.8242 73.3164L71.5039 73.1797L72.543 73.0977C72.8529 73.0977 73.0716 73.1159 73.1992 73.1523L73.6914 73.2617C73.7279 73.0794 73.7643 72.9154 73.8008 72.7695C73.8372 72.6237 73.8646 72.4414 73.8828 72.2227C73.901 72.0039 73.9102 71.7487 73.9102 71.457V70.0898C73.7643 70.1263 73.6367 70.1628 73.5273 70.1992L73.2539 70.2539L71.1211 70.4727L70.1914 70.5547H69.7812L69.4531 70.5273L69.043 70.418ZM80.8555 73.0977L81.0742 63.4727C81.0742 63.181 81.056 62.7799 81.0195 62.2695C80.9831 61.7409 80.9466 61.3854 80.9102 61.2031C80.8555 61.0026 80.8008 60.8203 80.7461 60.6562C80.6732 60.474 80.6003 60.3372 80.5273 60.2461L80.418 60.0273L80.4727 59.7539L80.8828 59.6445C81.2292 59.681 81.4844 59.7266 81.6484 59.7812C81.8125 59.8177 81.9766 59.8724 82.1406 59.9453C82.3047 60.0365 82.5052 60.1367 82.7422 60.2461C82.9609 60.3737 83.1159 60.5013 83.207 60.6289L83.3164 60.875C83.3164 61.0026 83.2708 61.1393 83.1797 61.2852C83.0885 61.431 83.0156 61.6042 82.9609 61.8047C82.9062 62.0052 82.8607 62.2422 82.8242 62.5156L82.7148 63.3633C82.6784 63.6914 82.6602 64.1107 82.6602 64.6211L82.5508 66.6992L84.3008 66.1797C84.7747 66.0339 85.0664 65.9427 85.1758 65.9062C85.2852 65.888 85.4128 65.8607 85.5586 65.8242C85.7773 65.8242 86.0052 65.8424 86.2422 65.8789C86.4792 65.9154 86.7526 65.9701 87.0625 66.043C87.3724 66.1523 87.6185 66.2526 87.8008 66.3438L87.9375 66.8086L87.2539 67L83.9727 67.6562C83.681 67.7109 83.4531 67.7383 83.2891 67.7383L82.4961 67.6562L82.2773 72.9062L83.4805 72.7148C83.8815 72.6419 84.2188 72.5872 84.4922 72.5508C84.7656 72.4779 85.0573 72.4049 85.3672 72.332L85.8594 72.1953C86.1328 72.1771 86.3607 72.1862 86.543 72.2227C86.7253 72.2956 86.9258 72.3867 87.1445 72.4961L87.6094 72.7969C87.9922 73.0521 88.2565 73.2526 88.4023 73.3984L88.5938 73.7539C88.5755 73.8997 88.4753 74.0638 88.293 74.2461C88.1107 74.4284 87.974 74.5924 87.8828 74.7383C87.7917 74.8841 87.6549 75.1849 87.4727 75.6406C87.2539 76.0964 87.1263 76.3971 87.0898 76.543L86.4609 78.8398L86.8711 79.1406L87.0078 79.4141C86.9531 79.5234 86.8346 79.5781 86.6523 79.5781H85.832C85.3945 79.5781 84.7201 79.6055 83.8086 79.6602L79.1875 80.0703L78.9688 80.3711L78.6133 80.4258C78.5039 80.3529 78.4036 80.2344 78.3125 80.0703C78.2031 79.9062 78.1211 79.5872 78.0664 79.1133L77.4102 74.8477C77.3737 74.6471 77.3008 74.4102 77.1914 74.1367C77.082 73.8815 76.9727 73.681 76.8633 73.5352L76.6992 73.0703C76.7721 72.9609 76.918 72.9062 77.1367 72.9062C77.3372 72.9245 77.4922 72.9518 77.6016 72.9883L78.7227 73.3711L80.8555 73.0977ZM79.2695 78.9492L84.8477 78.5117L85.5586 74.1641V73.918C85.5039 73.8086 85.4128 73.6992 85.2852 73.5898L84.793 73.5352C84.6471 73.5169 84.4922 73.5078 84.3281 73.5078C84.1823 73.5078 84.0273 73.5169 83.8633 73.5352L78.8867 74.1914L79.2695 78.9492ZM72.5703 75.75L72.4883 75.3125C72.5977 75.2943 72.707 75.3034 72.8164 75.3398L73.2266 75.5312L73.6914 75.8047C73.9466 75.9688 74.2565 76.1875 74.6211 76.4609C74.9857 76.7526 75.2591 77.0625 75.4414 77.3906C75.6237 77.7188 75.7331 78.1107 75.7695 78.5664C75.7695 78.9128 75.7148 79.168 75.6055 79.332C75.4596 79.5508 75.2956 79.6693 75.1133 79.6875C74.9492 79.6875 74.7578 79.5326 74.5391 79.2227C74.4115 79.0404 74.2292 78.7396 73.9922 78.3203L73.6094 77.6641L73.0352 76.5977C72.8164 76.2331 72.6615 75.9505 72.5703 75.75ZM134.504 61.9414C134.376 61.9414 134.44 61.832 134.695 61.6133C134.951 61.3945 135.26 61.1302 135.625 60.8203C135.99 60.4922 136.4 60.0638 136.855 59.5352C137.147 59.1888 137.366 58.8242 137.512 58.4414C137.603 58.2227 137.703 58.1133 137.812 58.1133C137.904 58.1133 138.04 58.1862 138.223 58.332C138.587 58.6237 138.77 58.8698 138.77 59.0703C138.77 59.1979 138.697 59.2891 138.551 59.3438C138.478 59.362 138.368 59.444 138.223 59.5898C138.077 59.7174 137.967 59.8177 137.895 59.8906C137.111 60.6562 136.382 61.2122 135.707 61.5586C135.16 61.8138 134.796 61.9414 134.613 61.9414H134.504ZM137.375 67.0273C137.32 67.0273 137.229 66.9544 137.102 66.8086C136.992 66.6445 136.91 66.4896 136.855 66.3438C136.837 66.2344 136.837 66.0977 136.855 65.9336C136.892 65.7513 136.91 65.6146 136.91 65.5234C136.947 65.1589 136.965 64.8672 136.965 64.6484C136.983 64.4479 136.983 64.2292 136.965 63.9922C136.965 63.7552 136.965 63.6003 136.965 63.5273L136.938 63.1172C136.5 63.4271 136.163 63.6458 135.926 63.7734C135.397 64.0651 135.014 64.2474 134.777 64.3203C134.486 64.4297 134.221 64.4844 133.984 64.4844C133.857 64.4844 133.784 64.4661 133.766 64.4297C133.729 64.3568 134.094 64.0924 134.859 63.6367C135.589 63.181 136.382 62.5794 137.238 61.832C137.712 61.3945 138.077 60.9753 138.332 60.5742C138.368 60.5195 138.396 60.4557 138.414 60.3828C138.451 60.2917 138.487 60.237 138.523 60.2188C138.578 60.2005 138.651 60.2096 138.742 60.2461C138.979 60.3737 139.18 60.556 139.344 60.793C139.417 60.8841 139.453 60.9753 139.453 61.0664C139.453 61.1576 139.408 61.2487 139.316 61.3398C139.225 61.4128 139.134 61.4674 139.043 61.5039C138.733 61.7044 138.451 61.9232 138.195 62.1602C137.94 62.3971 137.776 62.5521 137.703 62.625C137.977 62.8438 138.113 62.9987 138.113 63.0898L138.031 63.6641C137.995 63.8281 137.977 64.2383 137.977 64.8945C137.977 65.5326 137.995 65.9609 138.031 66.1797V66.2344C138.031 66.3255 138.004 66.4258 137.949 66.5352C137.913 66.6263 137.885 66.6901 137.867 66.7266C137.74 66.9271 137.576 67.0273 137.375 67.0273ZM140.164 73.9727C139.891 73.9727 139.626 73.7721 139.371 73.3711C139.043 72.8607 138.724 72.4414 138.414 72.1133L137.703 71.375C137.32 71.8125 136.983 72.1589 136.691 72.4141C136.418 72.6693 136.072 72.9154 135.652 73.1523C134.868 73.6081 134.212 73.8359 133.684 73.8359C133.556 73.8359 133.492 73.7904 133.492 73.6992C133.492 73.6445 133.665 73.526 134.012 73.3438C134.358 73.1615 134.686 72.9427 134.996 72.6875C135.78 72.0312 136.427 71.3568 136.938 70.6641C136.828 70.5547 136.281 70.0807 135.297 69.2422C135.169 69.151 134.978 68.9961 134.723 68.7773C134.668 68.7409 134.559 68.6589 134.395 68.5312C134.23 68.4036 134.148 68.3125 134.148 68.2578C134.148 68.1667 134.194 68.1211 134.285 68.1211C134.559 68.1211 134.996 68.3125 135.598 68.6953C136.199 69.0599 136.828 69.4974 137.484 70.0078C137.74 69.6979 137.94 69.4062 138.086 69.1328C138.232 68.8594 138.396 68.5221 138.578 68.1211C138.669 67.9206 138.724 67.7474 138.742 67.6016C138.76 67.4375 138.77 67.3372 138.77 67.3008C138.77 67.1003 138.824 67 138.934 67C139.061 67 139.234 67.1003 139.453 67.3008C139.836 67.6654 140.027 67.9115 140.027 68.0391C140.027 68.112 139.982 68.194 139.891 68.2852C139.672 68.5039 139.471 68.7956 139.289 69.1602C139.18 69.3789 138.979 69.6888 138.688 70.0898C138.596 70.1992 138.523 70.2995 138.469 70.3906C138.414 70.4818 138.359 70.5638 138.305 70.6367C138.724 70.9466 139.344 71.4753 140.164 72.2227C140.365 72.4049 140.492 72.5781 140.547 72.7422C140.62 72.888 140.656 73.0885 140.656 73.3438C140.656 73.526 140.611 73.681 140.52 73.8086C140.428 73.918 140.31 73.9727 140.164 73.9727ZM140.656 77.582C140.857 77.8008 140.957 77.9831 140.957 78.1289C140.957 78.2565 140.884 78.375 140.738 78.4844C140.647 78.5573 140.419 78.9583 140.055 79.6875C139.654 80.3438 139.207 80.9089 138.715 81.3828C138.241 81.875 137.767 82.2305 137.293 82.4492C137.184 82.4857 137.092 82.5039 137.02 82.5039C136.947 82.5039 136.91 82.4857 136.91 82.4492V82.3945C136.91 82.2852 137.001 82.1576 137.184 82.0117C137.512 81.7565 137.758 81.4922 137.922 81.2188C138.104 80.9635 138.241 80.7721 138.332 80.6445C138.715 80.0977 138.988 79.651 139.152 79.3047C139.335 78.9948 139.462 78.6758 139.535 78.3477H139.426C138.952 78.3477 138.186 78.4023 137.129 78.5117C136.965 78.5299 136.491 78.5938 135.707 78.7031C135.543 78.7214 135.288 78.7669 134.941 78.8398L134.613 78.9219C134.54 78.9583 134.467 78.9766 134.395 78.9766C134.303 78.9766 134.212 78.9583 134.121 78.9219C134.03 78.8672 133.939 78.8034 133.848 78.7305C133.629 78.5482 133.52 78.3932 133.52 78.2656C133.538 78.2292 133.556 78.1745 133.574 78.1016C133.611 78.0286 133.629 77.9648 133.629 77.9102L133.766 77.0078C133.784 76.9167 133.802 76.8164 133.82 76.707C133.839 76.5977 133.848 76.4883 133.848 76.3789C133.848 76.0326 133.839 75.7591 133.82 75.5586C133.82 75.3398 133.793 75.112 133.738 74.875V74.793C133.738 74.6654 133.793 74.6016 133.902 74.6016C134.012 74.6016 134.203 74.6836 134.477 74.8477C134.841 75.1029 135.023 75.3034 135.023 75.4492C135.023 75.5039 135.014 75.5495 134.996 75.5859C134.978 75.6224 134.96 75.6589 134.941 75.6953C134.887 76.0234 134.859 76.2057 134.859 76.2422L134.723 77.6914C134.723 77.7279 134.741 77.7734 134.777 77.8281C134.832 77.8646 134.887 77.8828 134.941 77.8828C135.379 77.8828 136.363 77.7734 137.895 77.5547C138.496 77.5 138.924 77.4362 139.18 77.3633C139.344 77.3451 139.48 77.3177 139.59 77.2812C139.717 77.2266 139.799 77.1992 139.836 77.1992C139.945 77.1628 140.018 77.1445 140.055 77.1445C140.219 77.1445 140.419 77.2904 140.656 77.582ZM114.434 69.5156L112.574 70.0352L111.754 70.2539C111.189 70.3997 110.815 70.4818 110.633 70.5C110.414 70.5 110.214 70.4818 110.031 70.4453C109.794 70.3906 109.53 70.2721 109.238 70.0898C108.928 69.9076 108.701 69.6523 108.555 69.3242C108.628 69.2148 108.764 69.151 108.965 69.1328L109.648 69.1055C110.214 69.0872 110.815 69.0599 111.453 69.0234C112.091 68.9688 112.665 68.8958 113.176 68.8047L114.926 68.5039C115.181 67.9206 115.336 67.556 115.391 67.4102L115.746 66.3438C115.454 66.362 115.227 66.3802 115.062 66.3984C114.898 66.4167 114.625 66.4531 114.242 66.5078C113.859 66.5807 113.549 66.6172 113.312 66.6172C113.021 66.6172 112.793 66.5807 112.629 66.5078C112.41 66.4167 112.246 66.3164 112.137 66.207L112.027 65.9609C112.046 65.8333 112.137 65.7695 112.301 65.7695L112.82 65.7148C112.948 65.7148 113.258 65.6875 113.75 65.6328C114.242 65.5781 114.707 65.5326 115.145 65.4961L116.074 65.3867C116.311 64.6576 116.448 64.2018 116.484 64.0195L116.703 62.9258C116.029 62.9805 115.418 63.0443 114.871 63.1172C114.306 63.1719 113.941 63.1992 113.777 63.1992H113.367C113.003 63.1992 112.729 63.1628 112.547 63.0898C112.31 62.9805 112.137 62.8529 112.027 62.707L111.918 62.4336L112.109 62.2969H112.684L113.449 62.2148L115.035 62.1055L116.895 61.832L117.004 60.3555V60.082C117.004 59.8815 116.986 59.6354 116.949 59.3438C116.913 59.0703 116.885 58.8789 116.867 58.7695L116.758 58.168L117.031 57.9766C117.214 57.9583 117.405 57.9857 117.605 58.0586C117.861 58.168 118.116 58.2865 118.371 58.4141C118.626 58.5417 118.845 58.6966 119.027 58.8789C119.21 59.0612 119.301 59.2435 119.301 59.4258L119.109 59.8086C118.982 60.0091 118.882 60.237 118.809 60.4922L118.426 61.6133L120.668 61.2852L121.898 61.0117C122.117 60.9753 122.318 60.9479 122.5 60.9297C122.81 60.9297 123.138 61.0026 123.484 61.1484C123.794 61.2578 123.949 61.3945 123.949 61.5586C123.931 61.7409 123.858 61.8503 123.73 61.8867L123.184 62.0508C123.001 62.0872 122.691 62.1419 122.254 62.2148L120.504 62.4883C119.884 62.5794 119.365 62.6432 118.945 62.6797L118.207 62.7617C118.007 63.4727 117.888 63.9102 117.852 64.0742L117.551 65.168L119.246 64.8672C119.611 64.8125 120.03 64.7305 120.504 64.6211C120.978 64.4935 121.361 64.4206 121.652 64.4023C121.926 64.4023 122.145 64.4206 122.309 64.457C122.564 64.4935 122.801 64.5664 123.02 64.6758L123.375 64.9766C123.375 65.1224 123.247 65.2318 122.992 65.3047C122.792 65.3594 122.518 65.4049 122.172 65.4414C121.826 65.4779 121.379 65.5326 120.832 65.6055L119.164 65.8789L117.332 66.1523C117.077 66.8451 116.922 67.2734 116.867 67.4375L116.566 68.2852C117.113 68.2305 117.523 68.1849 117.797 68.1484L120.613 67.9023C121.124 67.8659 121.68 67.793 122.281 67.6836C122.883 67.5924 123.366 67.5013 123.73 67.4102L124.551 67.1914C124.915 67.1185 125.198 67.082 125.398 67.082C125.635 67.082 125.845 67.1185 126.027 67.1914C126.228 67.2643 126.52 67.3828 126.902 67.5469C127.285 67.7109 127.531 67.8841 127.641 68.0664L127.723 68.5039C127.65 68.6497 127.504 68.7318 127.285 68.75L126.684 68.7773L124.988 68.7227C124.715 68.7227 124.204 68.7409 123.457 68.7773L121.27 68.832H120.285L121.16 69.4883L122.801 70.8828C123.676 71.6302 124.46 72.2591 125.152 72.7695C125.845 73.2799 126.419 73.6536 126.875 73.8906C127.331 74.1276 127.996 74.4284 128.871 74.793C129.746 75.1393 130.512 75.3945 131.168 75.5586L131.906 76.1328L131.332 76.2969L129.582 76.6523C128.853 76.7982 128.288 76.8711 127.887 76.8711C127.413 76.8164 126.984 76.6615 126.602 76.4062C126.219 76.151 125.863 75.8503 125.535 75.5039L123.402 73.207C122.345 72.0404 121.525 71.1745 120.941 70.6094C120.395 70.0443 119.975 69.6706 119.684 69.4883L118.945 68.9414C118.125 69.0326 117.624 69.0872 117.441 69.1055L116.102 69.2695C115.555 70.3268 115.108 71.1107 114.762 71.6211C114.415 72.1315 113.941 72.6966 113.34 73.3164C112.757 73.9727 112.146 74.5469 111.508 75.0391C110.87 75.5312 110.277 75.9323 109.73 76.2422C109.147 76.5521 108.573 76.8164 108.008 77.0352C107.443 77.2357 107.069 77.3633 106.887 77.418L106.094 77.2812L106.777 76.8438L107.543 76.4062C108.017 76.151 108.536 75.8229 109.102 75.4219C109.667 75.0391 110.223 74.6016 110.77 74.1094C111.316 73.6172 111.909 73.0065 112.547 72.2773C113.203 71.5482 113.632 71.0013 113.832 70.6367L114.434 69.5156ZM119.766 81.3008L118.016 81.4648C117.214 81.5378 116.749 81.5742 116.621 81.5742L115.309 81.6016L115.199 82.0391C115.09 82.3672 114.962 82.5312 114.816 82.5312C114.671 82.513 114.525 82.3945 114.379 82.1758C114.215 81.9388 114.115 81.6562 114.078 81.3281C114.078 81.0911 114.096 80.8451 114.133 80.5898C114.169 80.2435 114.188 79.8424 114.188 79.3867L114.051 75.4492C114.014 74.9388 113.96 74.5651 113.887 74.3281C113.832 74.0911 113.768 73.9089 113.695 73.7812L113.613 73.5352C113.65 73.4258 113.823 73.3529 114.133 73.3164L114.898 73.4805L115.773 73.3711C116.083 73.3346 116.457 73.2708 116.895 73.1797L118.371 72.8789C118.882 72.7695 119.246 72.6784 119.465 72.6055C119.684 72.5508 119.902 72.4779 120.121 72.3867L120.641 72.2227C120.841 72.2044 121.014 72.2227 121.16 72.2773C121.361 72.3503 121.579 72.4688 121.816 72.6328C122.072 72.7969 122.29 72.9609 122.473 73.125L122.773 73.5078C122.773 73.6354 122.746 73.7539 122.691 73.8633C122.637 74.0091 122.591 74.1641 122.555 74.3281C122.5 74.4922 122.473 74.6471 122.473 74.793C122.436 74.9388 122.409 75.2305 122.391 75.668V76.1328C122.391 76.4427 122.4 76.7799 122.418 77.1445C122.436 77.582 122.473 78.0378 122.527 78.5117L122.746 79.9062C122.819 80.3802 122.855 80.7357 122.855 80.9727C122.819 81.4466 122.682 81.9206 122.445 82.3945C122.19 82.8685 121.944 83.1602 121.707 83.2695L121.297 83.3789C121.096 83.3607 120.905 83.1784 120.723 82.832C120.559 82.5039 120.376 82.1849 120.176 81.875L119.766 81.3008ZM115.363 80.6719C116.165 80.5807 116.776 80.5078 117.195 80.4531L118.617 80.2617C119.146 80.1706 119.501 80.125 119.684 80.125C119.975 80.1432 120.194 80.1888 120.34 80.2617L120.914 80.5898L121.051 77.1172C120.65 77.2083 120.349 77.263 120.148 77.2812L118.262 77.6367C117.423 77.7826 116.831 77.8737 116.484 77.9102L116.156 77.9375H115.883L115.309 77.8008L115.363 80.6719ZM115.309 77.0352C115.491 77.0352 115.655 77.026 115.801 77.0078C115.947 76.9896 116.329 76.9258 116.949 76.8164C117.605 76.6888 118.134 76.5703 118.535 76.4609C118.973 76.3333 119.301 76.2695 119.52 76.2695C119.72 76.2695 119.902 76.2786 120.066 76.2969C120.303 76.3333 120.586 76.4154 120.914 76.543L121.051 74.2461C121.033 73.9544 120.987 73.763 120.914 73.6719C120.823 73.5807 120.65 73.526 120.395 73.5078C120.158 73.5078 119.902 73.5169 119.629 73.5352L118.426 73.5898C118.134 73.6263 117.715 73.7174 117.168 73.8633C116.621 73.9909 116.238 74.0911 116.02 74.1641L115.527 74.2734L115.418 74.5469C115.436 74.6562 115.436 74.8112 115.418 75.0117C115.382 75.194 115.363 75.349 115.363 75.4766L115.309 77.0352ZM179.84 66.6719C179.548 66.6719 179.366 66.5898 179.293 66.4258C179.202 66.207 179.111 66.0247 179.02 65.8789C178.928 65.7148 178.764 65.5234 178.527 65.3047L178.582 65.1953C179.238 65.4323 179.667 65.5508 179.867 65.5508C180.013 65.5508 180.122 65.5234 180.195 65.4688C180.268 65.4141 180.387 65.2865 180.551 65.0859C180.788 64.8307 181.007 64.4388 181.207 63.9102C181.48 63.1263 181.654 62.3151 181.727 61.4766V61.3945C181.727 61.2852 181.708 61.2122 181.672 61.1758C181.435 61.1758 180.806 61.2305 179.785 61.3398C179.22 62.7435 178.564 63.901 177.816 64.8125C177.087 65.7057 176.422 66.1523 175.82 66.1523C175.674 66.1523 175.602 66.0977 175.602 65.9883C175.602 65.9518 175.784 65.7422 176.148 65.3594C176.513 64.9766 176.914 64.4753 177.352 63.8555C177.807 63.2174 178.236 62.4336 178.637 61.5039C178.546 61.5039 178.281 61.5221 177.844 61.5586C177.406 61.5951 177.033 61.6589 176.723 61.75C176.577 61.8594 176.422 61.8776 176.258 61.8047C176.258 61.8047 176.24 61.7956 176.203 61.7773C176.167 61.7591 176.13 61.7318 176.094 61.6953C175.966 61.6224 175.857 61.5312 175.766 61.4219C175.693 61.2943 175.656 61.1758 175.656 61.0664C175.656 61.0117 175.702 60.9388 175.793 60.8477L176.121 60.4102C176.23 60.2643 176.331 60.0547 176.422 59.7812C176.513 59.4896 176.559 59.2435 176.559 59.043C176.559 58.9154 176.549 58.8333 176.531 58.7969C176.513 58.7604 176.504 58.7148 176.504 58.6602C176.504 58.569 176.549 58.5234 176.641 58.5234C176.75 58.5234 176.905 58.5872 177.105 58.7148C177.16 58.7513 177.26 58.8242 177.406 58.9336C177.57 59.0247 177.661 59.1341 177.68 59.2617C177.68 59.3893 177.607 59.599 177.461 59.8906L177.105 60.5195C177.069 60.5742 177.051 60.638 177.051 60.7109C177.051 60.7656 177.069 60.8112 177.105 60.8477C177.16 60.8659 177.224 60.8659 177.297 60.8477L178.938 60.6289C179.12 60.1549 179.266 59.6536 179.375 59.125V58.9609V58.4961C179.375 58.2956 179.43 58.2135 179.539 58.25C179.776 58.3047 179.967 58.3776 180.113 58.4688C180.387 58.6328 180.523 58.7695 180.523 58.8789C180.523 58.9701 180.487 59.125 180.414 59.3438C180.359 59.5443 180.314 59.6992 180.277 59.8086C180.259 59.8815 180.177 60.1185 180.031 60.5195C180.086 60.5195 180.423 60.4831 181.043 60.4102L181.316 60.3555C181.371 60.3555 181.471 60.3372 181.617 60.3008C181.654 60.2826 181.699 60.2734 181.754 60.2734C181.973 60.2734 182.109 60.2826 182.164 60.3008C182.237 60.319 182.346 60.3737 182.492 60.4648C182.656 60.5742 182.766 60.6836 182.82 60.793C182.875 60.9023 182.893 61.0299 182.875 61.1758L182.711 62.0781L182.52 63.0625C182.52 63.1354 182.456 63.3724 182.328 63.7734C182.201 64.1745 182.055 64.5299 181.891 64.8398C181.581 65.4596 181.216 65.9245 180.797 66.2344C180.432 66.526 180.113 66.6719 179.84 66.6719ZM176.285 71.2383C176.085 71.2383 175.839 71.0833 175.547 70.7734C175.328 70.5547 175.219 70.3906 175.219 70.2812C175.219 70.2266 175.255 70.1992 175.328 70.1992C175.401 70.181 175.492 70.1719 175.602 70.1719L176.203 70.1445C176.549 70.1445 176.777 70.1354 176.887 70.1172C177.233 70.1172 177.525 70.1081 177.762 70.0898C179.329 69.944 180.387 69.8255 180.934 69.7344C181.207 69.6979 181.453 69.6615 181.672 69.625C181.891 69.5703 182.064 69.543 182.191 69.543C182.447 69.543 182.702 69.6706 182.957 69.9258C183.158 70.1263 183.258 70.2904 183.258 70.418C183.258 70.5273 183.194 70.6003 183.066 70.6367C182.975 70.6549 182.438 70.6914 181.453 70.7461C180.906 70.7643 180.232 70.8099 179.43 70.8828C178.628 70.9557 177.926 71.0286 177.324 71.1016C177.215 71.1198 177.06 71.1471 176.859 71.1836C176.659 71.2201 176.467 71.2383 176.285 71.2383ZM180.359 77.3359C180.177 77.5729 179.986 77.6914 179.785 77.6914C179.73 77.6914 179.703 77.6458 179.703 77.5547C179.703 77.4271 179.74 77.2812 179.812 77.1172C179.812 77.1172 179.995 76.7526 180.359 76.0234C180.378 75.9505 180.405 75.8776 180.441 75.8047C180.478 75.7318 180.505 75.668 180.523 75.6133V75.5859C180.523 75.5495 180.496 75.513 180.441 75.4766C180.387 75.4401 180.323 75.431 180.25 75.4492C179.958 75.4674 179.521 75.513 178.938 75.5859C178.372 75.6589 177.953 75.7318 177.68 75.8047C177.57 75.8411 177.434 75.8867 177.27 75.9414C177.124 75.9961 177.005 76.0234 176.914 76.0234C176.586 76.0234 176.312 75.9232 176.094 75.7227C175.911 75.5951 175.775 75.4674 175.684 75.3398L175.629 75.2031C175.629 75.112 175.784 75.0846 176.094 75.1211C176.513 75.1576 177.379 75.1029 178.691 74.957L179.238 74.875C179.384 74.8568 179.612 74.8294 179.922 74.793C180.25 74.7383 180.505 74.6836 180.688 74.6289C180.742 74.6107 180.797 74.5924 180.852 74.5742C180.924 74.5378 180.988 74.5195 181.043 74.5195C181.134 74.5195 181.243 74.5651 181.371 74.6562C181.517 74.7474 181.635 74.8294 181.727 74.9023C181.854 74.9935 181.936 75.0755 181.973 75.1484C182.027 75.2031 182.046 75.276 182.027 75.3672C182.027 75.4583 181.982 75.5404 181.891 75.6133C181.799 75.6862 181.736 75.7409 181.699 75.7773C181.663 75.832 181.535 75.9688 181.316 76.1875C181.225 76.3333 181.061 76.5339 180.824 76.7891C180.605 77.0443 180.451 77.2266 180.359 77.3359ZM178.992 82.7227C178.992 82.668 179.083 82.5221 179.266 82.2852C179.466 82.0664 179.621 81.8932 179.73 81.7656C180.004 81.401 180.332 80.8724 180.715 80.1797C181.116 79.487 181.344 79.0312 181.398 78.8125C181.435 78.7031 181.38 78.6484 181.234 78.6484C180.943 78.6484 180.141 78.7305 178.828 78.8945C177.971 79.0039 177.333 79.1133 176.914 79.2227C176.823 79.2773 176.732 79.3047 176.641 79.3047C176.495 79.3047 176.34 79.2044 176.176 79.0039C176.103 78.8763 176.066 78.7578 176.066 78.6484C176.066 78.5755 176.112 78.5026 176.203 78.4297L176.285 78.3203C176.34 78.2109 176.404 78.0651 176.477 77.8828C176.549 77.7005 176.613 77.5273 176.668 77.3633C176.759 77.0716 176.823 76.7526 176.859 76.4062C176.878 76.2057 176.987 76.151 177.188 76.2422C177.443 76.3698 177.634 76.4974 177.762 76.625C177.908 76.7344 177.953 76.8164 177.898 76.8711C177.716 77.0898 177.57 77.3359 177.461 77.6094C177.37 77.901 177.315 78.0924 177.297 78.1836C177.297 78.2565 177.342 78.293 177.434 78.293C177.707 78.293 178.117 78.2474 178.664 78.1562C178.974 78.1198 179.357 78.0742 179.812 78.0195C180.268 77.9648 180.633 77.9102 180.906 77.8555L181.59 77.7188C181.645 77.7005 181.717 77.6914 181.809 77.6914C181.9 77.6914 181.991 77.7279 182.082 77.8008C182.173 77.8555 182.273 77.9284 182.383 78.0195C182.565 78.1836 182.684 78.3203 182.738 78.4297C182.793 78.5208 182.82 78.6302 182.82 78.7578C182.82 78.8307 182.766 78.9219 182.656 79.0312C182.565 79.1406 182.456 79.3138 182.328 79.5508C181.799 80.6263 181.116 81.5286 180.277 82.2578C180.04 82.4401 179.776 82.5951 179.484 82.7227C179.357 82.7591 179.238 82.7773 179.129 82.7773C179.038 82.7956 178.992 82.7773 178.992 82.7227ZM187.742 70.0898C187.961 70.0898 188.07 70.1901 188.07 70.3906C188.07 70.5 187.97 70.6549 187.77 70.8555C187.223 71.5299 186.138 72.8151 184.516 74.7109C184.388 74.875 184.27 74.957 184.16 74.957C184.069 74.957 183.868 74.8203 183.559 74.5469C183.303 74.3281 183.176 74.1458 183.176 74C183.176 73.8359 183.312 73.681 183.586 73.5352C184.005 73.2982 184.634 72.8242 185.473 72.1133C186.311 71.3659 186.931 70.7734 187.332 70.3359C187.496 70.1719 187.633 70.0898 187.742 70.0898ZM168.52 75.9961L168.492 78.8398L168.574 81.1367C168.556 81.4648 168.51 81.7383 168.438 81.957C168.365 82.1758 168.255 82.3945 168.109 82.6133C167.964 82.8503 167.745 82.9323 167.453 82.8594C167.253 82.6406 167.098 82.3763 166.988 82.0664L166.742 81.3281C166.706 81.1641 166.688 80.9818 166.688 80.7812L166.797 80.3164C166.87 80.043 166.924 79.724 166.961 79.3594C166.997 79.013 167.034 78.6393 167.07 78.2383C167.107 77.8372 167.125 77.5365 167.125 77.3359L167.152 73.9453C167.152 73.4896 167.143 73.0612 167.125 72.6602C167.089 72.2591 167.052 71.931 167.016 71.6758C166.979 71.4206 166.924 71.2018 166.852 71.0195L166.688 70.4453C166.76 70.3177 166.906 70.2448 167.125 70.2266L167.645 70.3359C167.954 70.4089 168.219 70.4909 168.438 70.582C168.674 70.6914 168.802 70.819 168.82 70.9648C168.839 71.0924 168.802 71.2565 168.711 71.457C168.674 71.5664 168.629 71.931 168.574 72.5508L168.52 73.0977L168.465 75.1484L170.707 74.875L170.844 73.6172C170.862 73.3984 170.871 73.1979 170.871 73.0156C170.871 72.8333 170.862 72.6602 170.844 72.4961C170.826 72.168 170.789 71.9128 170.734 71.7305L170.516 71.1289C170.589 71.0013 170.716 70.9284 170.898 70.9102C171.026 70.9102 171.172 70.9284 171.336 70.9648C171.482 71.0013 171.664 71.056 171.883 71.1289C172.065 71.2018 172.229 71.2747 172.375 71.3477C172.484 71.4206 172.585 71.5208 172.676 71.6484L172.73 72.0859C172.658 72.2682 172.594 72.4505 172.539 72.6328C172.484 72.7969 172.411 73.1341 172.32 73.6445L172.047 75.0664L172.539 75.3945L172.758 75.6406C172.685 75.7318 172.576 75.7773 172.43 75.7773L168.52 75.9961ZM156.844 73.8906L153.836 75.5586C153.69 75.6315 153.389 75.8138 152.934 76.1055C152.478 76.4154 152.159 76.6615 151.977 76.8438L151.648 77.1719L151.074 77.2539C150.783 77.181 150.518 77.0625 150.281 76.8984C150.044 76.7344 149.844 76.5612 149.68 76.3789C149.497 76.1966 149.379 76.0417 149.324 75.9141L149.598 75.4492C149.853 75.431 150.044 75.4036 150.172 75.3672C150.372 75.3307 150.591 75.2669 150.828 75.1758L151.758 74.8477L152.332 74.6562C152.332 74.1276 152.341 73.7357 152.359 73.4805V69.3516C152.359 66.8906 152.35 65.4323 152.332 64.9766C152.314 64.5208 152.286 64.2018 152.25 64.0195L152.113 63.582C151.803 63.5091 151.548 63.4544 151.348 63.418C151.147 63.3815 150.928 63.2904 150.691 63.1445L150.391 62.8984C150.427 62.7708 150.618 62.6797 150.965 62.625L151.84 62.4883L153.727 62.2422L156.078 61.8047C156.898 61.6771 157.409 61.5768 157.609 61.5039L158.457 61.3672C158.676 61.349 158.867 61.3672 159.031 61.4219C159.177 61.4583 159.35 61.5221 159.551 61.6133C159.751 61.6862 159.934 61.7956 160.098 61.9414L160.289 62.2695C160.253 62.4154 160.18 62.5065 160.07 62.543C159.943 62.5794 159.624 62.6068 159.113 62.625H158.348L158.594 63.1172C158.594 63.2812 158.566 63.4544 158.512 63.6367C158.457 63.819 158.421 64.0833 158.402 64.4297C158.384 64.776 158.357 65.2227 158.32 65.7695V69.9805L158.211 73.5625C158.138 75.3672 158.074 76.7982 158.02 77.8555C157.965 78.9128 157.928 79.5964 157.91 79.9062C157.892 80.2161 157.846 80.4987 157.773 80.7539C157.701 81.0273 157.591 81.2552 157.445 81.4375L157.145 81.6836C157.017 81.6836 156.889 81.5924 156.762 81.4102C156.634 81.2279 156.534 81.0456 156.461 80.8633C156.388 80.681 156.315 80.444 156.242 80.1523C156.169 79.8789 156.133 79.651 156.133 79.4688L156.27 79.0039C156.361 78.7487 156.434 78.4115 156.488 77.9922C156.561 77.5729 156.607 77.181 156.625 76.8164L156.68 76.0781L156.844 73.8906ZM153.645 74.2461L156.844 73.1523L156.926 70.4453L156.078 70.6641C155.859 70.7188 155.54 70.7734 155.121 70.8281L154.465 70.9102L153.781 70.8008L153.645 74.2461ZM153.781 70.1992C154.091 70.1263 154.337 70.0625 154.52 70.0078C154.684 69.9531 154.884 69.8711 155.121 69.7617L155.531 69.5977C155.641 69.5794 155.823 69.5977 156.078 69.6523L156.461 69.7617L156.926 69.9531L157.035 67.0273L156.57 67.1641C156.424 67.2005 156.087 67.2734 155.559 67.3828C155.139 67.474 154.82 67.5195 154.602 67.5195L153.918 67.4375L153.781 70.1992ZM153.891 63.1445L154.219 63.6094C154.219 63.737 154.182 63.9102 154.109 64.1289C154.036 64.3477 154 64.5664 154 64.7852L153.973 66.8086C154.21 66.7357 154.419 66.6628 154.602 66.5898C154.784 66.5352 154.984 66.4622 155.203 66.3711C155.422 66.2799 155.622 66.2253 155.805 66.207H156.051C156.288 66.2435 156.507 66.2982 156.707 66.3711L157.062 66.4805C157.081 65.8789 157.09 65.332 157.09 64.8398C157.072 64.3294 157.035 63.9557 156.98 63.7188L156.734 62.7617C156.06 62.8529 155.668 62.9076 155.559 62.9258L153.891 63.1445ZM163.57 74.8203L163.707 73.2891C163.725 73.0521 163.734 72.7513 163.734 72.3867C163.734 72.0404 163.707 71.7669 163.652 71.5664L163.461 71.1562L163.352 70.9102C163.406 70.8008 163.507 70.737 163.652 70.7188C163.871 70.7188 164.135 70.7643 164.445 70.8555C164.846 70.9831 165.129 71.0924 165.293 71.1836C165.457 71.2747 165.512 71.4388 165.457 71.6758C165.366 71.8763 165.302 72.1133 165.266 72.3867C165.229 72.6419 165.193 72.9336 165.156 73.2617L165.047 74.3281C165.01 74.8021 164.928 75.2943 164.801 75.8047C164.691 76.3333 164.527 76.8529 164.309 77.3633C164.108 77.8737 163.743 78.4388 163.215 79.0586C162.704 79.7148 162.249 80.1706 161.848 80.4258C161.428 80.7174 161.018 80.9635 160.617 81.1641L159.824 81.3281C159.824 81.2005 159.879 81.1003 159.988 81.0273L160.426 80.6445L161.301 79.7969C161.647 79.4505 162.012 78.9583 162.395 78.3203C162.777 77.6823 163.033 77.099 163.16 76.5703L163.406 75.5859L161.82 76.1055C161.383 76.2513 161.036 76.4245 160.781 76.625L159.988 77.0625C159.861 76.9531 159.733 76.8164 159.605 76.6523C159.478 76.4701 159.387 76.306 159.332 76.1602L159.277 75.8047C159.296 75.6771 159.414 75.4857 159.633 75.2305C159.852 74.9753 159.997 74.7018 160.07 74.4102C160.161 74.1003 160.234 73.763 160.289 73.3984C160.307 73.1615 160.316 72.9518 160.316 72.7695C160.316 72.569 160.307 72.3867 160.289 72.2227L160.234 71.8945L160.344 71.5938C160.508 71.5755 160.681 71.6029 160.863 71.6758C161.082 71.7669 161.273 71.8763 161.438 72.0039C161.62 72.1133 161.766 72.2409 161.875 72.3867L161.957 72.8242C161.866 72.9336 161.793 73.0703 161.738 73.2344L161.492 73.7539L161.219 74.5195C161.146 74.7383 161.137 75.0026 161.191 75.3125C161.319 75.3125 161.447 75.3034 161.574 75.2852L163.57 74.8203ZM161.273 65.332C161.839 65.2956 162.185 65.2773 162.312 65.2773L163.242 65.168L163.652 64.3477C163.762 64.1289 163.844 63.9466 163.898 63.8008L164.035 63.3359C164.09 63.0625 164.19 62.9076 164.336 62.8711C164.464 62.8529 164.609 62.9076 164.773 63.0352L165.102 63.5L165.43 64.0195V64.6211C165.284 64.7305 165.165 64.8307 165.074 64.9219C164.983 65.013 164.892 65.1133 164.801 65.2227C164.71 65.332 164.555 65.5326 164.336 65.8242L163.543 66.8359C163.014 67.5104 162.65 67.9661 162.449 68.2031C162.23 68.4401 162.076 68.6497 161.984 68.832L161.902 69.1602L162.477 68.9961L163.789 68.5859C163.625 68.276 163.507 68.0664 163.434 67.957L163.68 67.6289L164.281 67.8477C164.664 67.9935 164.938 68.1758 165.102 68.3945C165.247 68.5951 165.339 68.832 165.375 69.1055C165.375 69.3424 165.32 69.5612 165.211 69.7617C165.083 69.9622 164.956 70.0716 164.828 70.0898C164.573 70.0898 164.427 70.0078 164.391 69.8438L164.008 69.0508L162.23 69.8984C162.066 69.9714 161.902 70.0716 161.738 70.1992L161.273 70.6094C161.128 70.737 160.918 70.8008 160.645 70.8008C160.48 70.6914 160.326 70.5456 160.18 70.3633C160.034 70.1628 159.943 70.0078 159.906 69.8984L159.852 69.6797C159.87 69.5521 159.915 69.4427 159.988 69.3516C160.061 69.2604 160.225 69.1055 160.48 68.8867C160.717 68.668 160.945 68.4219 161.164 68.1484L162.723 65.9609C162.413 66.0521 162.167 66.1341 161.984 66.207C161.766 66.2617 161.583 66.3164 161.438 66.3711C161.292 66.4258 161.164 66.4896 161.055 66.5625L160.727 66.7539L160.371 66.8906C160.207 66.8724 160.061 66.7812 159.934 66.6172C159.806 66.4531 159.706 66.2799 159.633 66.0977C159.56 65.9336 159.514 65.7878 159.496 65.6602L159.523 65.4141C159.596 65.3047 159.76 65.1497 160.016 64.9492C160.271 64.7305 160.572 64.3659 160.918 63.8555C161.246 63.3451 161.492 62.9349 161.656 62.625C161.82 62.3151 161.984 61.9688 162.148 61.5859C162.294 61.2214 162.385 60.9206 162.422 60.6836C162.477 60.4648 162.513 60.2643 162.531 60.082L162.559 59.7539L162.777 59.6172C162.941 59.599 163.151 59.6719 163.406 59.8359L163.953 60.2734C164.044 60.3464 164.163 60.4831 164.309 60.6836L164.336 61.2031C164.154 61.3307 163.99 61.4857 163.844 61.668L163.406 62.2148L161.273 65.332ZM167.508 64.5117L169.723 64.457C169.905 64.1836 170.042 63.9557 170.133 63.7734C170.242 63.5729 170.333 63.3451 170.406 63.0898L170.516 62.5156C170.552 62.388 170.643 62.2786 170.789 62.1875C170.935 62.1693 171.081 62.1966 171.227 62.2695C171.336 62.3424 171.436 62.4427 171.527 62.5703L171.855 63.0352C171.983 63.2357 172.038 63.5365 172.02 63.9375C171.837 64.0286 171.646 64.1654 171.445 64.3477L171.035 64.7578C170.962 64.849 170.844 64.9857 170.68 65.168L168.465 67.5742L168.328 68.2305L170.598 67.875L170.133 66.6172L170.762 66.8359L171.227 67.1094C171.518 67.2734 171.737 67.4102 171.883 67.5195C172.029 67.6471 172.138 67.8203 172.211 68.0391C172.32 68.276 172.375 68.5221 172.375 68.7773C172.375 69.0326 172.311 69.2513 172.184 69.4336C172.056 69.5794 171.91 69.6523 171.746 69.6523C171.582 69.6341 171.473 69.5703 171.418 69.4609L170.789 68.3398L168.355 69.1875C168.155 69.2604 168 69.3333 167.891 69.4062C167.763 69.4609 167.635 69.5521 167.508 69.6797L167.18 69.8984C167.052 69.8984 166.924 69.862 166.797 69.7891C166.615 69.6979 166.451 69.5339 166.305 69.2969C166.159 69.0599 166.095 68.8229 166.113 68.5859C166.186 68.4583 166.305 68.349 166.469 68.2578L166.77 68.0664C166.861 67.957 167.079 67.7018 167.426 67.3008L169.148 65.2227C168.565 65.3685 168.146 65.4779 167.891 65.5508C167.635 65.6237 167.38 65.7331 167.125 65.8789L166.715 66.043C166.551 66.043 166.396 65.9518 166.25 65.7695C166.122 65.6237 166.013 65.4505 165.922 65.25L165.758 64.9219V64.6758L165.895 64.457L166.305 64.1289C166.523 63.9831 166.724 63.7917 166.906 63.5547C167.089 63.3177 167.335 62.9714 167.645 62.5156C167.954 62.0599 168.182 61.6862 168.328 61.3945C168.51 61.0846 168.638 60.7747 168.711 60.4648C168.82 60.1367 168.884 59.8359 168.902 59.5625C168.921 59.2891 169.012 59.1068 169.176 59.0156C169.303 58.9974 169.422 59.0065 169.531 59.043C169.659 59.0977 169.786 59.1706 169.914 59.2617C170.06 59.3711 170.188 59.4805 170.297 59.5898C170.424 59.6992 170.543 59.8542 170.652 60.0547L170.625 60.6016L170.297 60.8477C170.188 60.957 169.996 61.2122 169.723 61.6133L168.848 62.707L167.508 64.5117Z" fill="#333333"/>
</svg>
