<svg width="300" height="84" viewBox="0 0 300 84" fill="none" xmlns="http://www.w3.org/2000/svg">
<path d="M133.934 7.49609C133.77 7.49609 133.852 7.35547 134.18 7.07422C134.508 6.79297 134.906 6.45313 135.375 6.05469C135.844 5.63281 136.371 5.08203 136.957 4.40234C137.332 3.95703 137.613 3.48828 137.801 2.99609C137.918 2.71484 138.047 2.57422 138.188 2.57422C138.305 2.57422 138.48 2.66797 138.715 2.85547C139.184 3.23047 139.418 3.54687 139.418 3.80469C139.418 3.96875 139.324 4.08594 139.137 4.15625C139.043 4.17969 138.902 4.28516 138.715 4.47266C138.527 4.63672 138.387 4.76563 138.293 4.85938C137.285 5.84375 136.348 6.55859 135.48 7.00391C134.777 7.33203 134.309 7.49609 134.074 7.49609H133.934ZM137.625 14.0352C137.555 14.0352 137.438 13.9414 137.273 13.7539C137.133 13.543 137.027 13.3438 136.957 13.1562C136.934 13.0156 136.934 12.8398 136.957 12.6289C137.004 12.3945 137.027 12.2188 137.027 12.1016C137.074 11.6328 137.098 11.2578 137.098 10.9766C137.121 10.7187 137.121 10.4375 137.098 10.1328C137.098 9.82813 137.098 9.62891 137.098 9.53516L137.062 9.00781C136.5 9.40625 136.066 9.6875 135.762 9.85156C135.082 10.2266 134.59 10.4609 134.285 10.5547C133.91 10.6953 133.57 10.7656 133.266 10.7656C133.102 10.7656 133.008 10.7422 132.984 10.6953C132.938 10.6016 133.406 10.2617 134.391 9.67578C135.328 9.08984 136.348 8.31641 137.449 7.35547C138.059 6.79297 138.527 6.25391 138.855 5.73828C138.902 5.66797 138.938 5.58594 138.961 5.49219C139.008 5.375 139.055 5.30469 139.102 5.28125C139.172 5.25781 139.266 5.26953 139.383 5.31641C139.688 5.48047 139.945 5.71484 140.156 6.01953C140.25 6.13672 140.297 6.25391 140.297 6.37109C140.297 6.48828 140.238 6.60547 140.121 6.72266C140.004 6.81641 139.887 6.88672 139.77 6.93359C139.371 7.19141 139.008 7.47266 138.68 7.77734C138.352 8.08203 138.141 8.28125 138.047 8.375C138.398 8.65625 138.574 8.85547 138.574 8.97266L138.469 9.71094C138.422 9.92188 138.398 10.4492 138.398 11.293C138.398 12.1133 138.422 12.6641 138.469 12.9453V13.0156C138.469 13.1328 138.434 13.2617 138.363 13.4023C138.316 13.5195 138.281 13.6016 138.258 13.6484C138.094 13.9063 137.883 14.0352 137.625 14.0352ZM141.211 22.9648C140.859 22.9648 140.52 22.707 140.191 22.1914C139.77 21.5352 139.359 20.9961 138.961 20.5742L138.047 19.625C137.555 20.1875 137.121 20.6328 136.746 20.9609C136.395 21.2891 135.949 21.6055 135.41 21.9102C134.402 22.4961 133.559 22.7891 132.879 22.7891C132.715 22.7891 132.633 22.7305 132.633 22.6133C132.633 22.543 132.855 22.3906 133.301 22.1562C133.746 21.9219 134.168 21.6406 134.566 21.3125C135.574 20.4688 136.406 19.6016 137.062 18.7109C136.922 18.5703 136.219 17.9609 134.953 16.8828C134.789 16.7656 134.543 16.5664 134.215 16.2852C134.145 16.2383 134.004 16.1328 133.793 15.9688C133.582 15.8047 133.477 15.6875 133.477 15.6172C133.477 15.5 133.535 15.4414 133.652 15.4414C134.004 15.4414 134.566 15.6875 135.34 16.1797C136.113 16.6484 136.922 17.2109 137.766 17.8672C138.094 17.4688 138.352 17.0938 138.539 16.7422C138.727 16.3906 138.938 15.957 139.172 15.4414C139.289 15.1836 139.359 14.9609 139.383 14.7734C139.406 14.5625 139.418 14.4336 139.418 14.3867C139.418 14.1289 139.488 14 139.629 14C139.793 14 140.016 14.1289 140.297 14.3867C140.789 14.8555 141.035 15.1719 141.035 15.3359C141.035 15.4297 140.977 15.5352 140.859 15.6523C140.578 15.9336 140.32 16.3086 140.086 16.7773C139.945 17.0586 139.688 17.457 139.312 17.9727C139.195 18.1133 139.102 18.2422 139.031 18.3594C138.961 18.4766 138.891 18.582 138.82 18.6758C139.359 19.0742 140.156 19.7539 141.211 20.7148C141.469 20.9492 141.633 21.1719 141.703 21.3828C141.797 21.5703 141.844 21.8281 141.844 22.1562C141.844 22.3906 141.785 22.5898 141.668 22.7539C141.551 22.8945 141.398 22.9648 141.211 22.9648ZM141.844 27.6055C142.102 27.8867 142.23 28.1211 142.23 28.3086C142.23 28.4727 142.137 28.625 141.949 28.7656C141.832 28.8594 141.539 29.375 141.07 30.3125C140.555 31.1562 139.98 31.8828 139.348 32.4922C138.738 33.125 138.129 33.582 137.52 33.8633C137.379 33.9102 137.262 33.9336 137.168 33.9336C137.074 33.9336 137.027 33.9102 137.027 33.8633V33.793C137.027 33.6523 137.145 33.4883 137.379 33.3008C137.801 32.9727 138.117 32.6328 138.328 32.2812C138.562 31.9531 138.738 31.707 138.855 31.543C139.348 30.8398 139.699 30.2656 139.91 29.8203C140.145 29.4219 140.309 29.0117 140.402 28.5898H140.262C139.652 28.5898 138.668 28.6602 137.309 28.8008C137.098 28.8242 136.488 28.9062 135.48 29.0469C135.27 29.0703 134.941 29.1289 134.496 29.2227L134.074 29.3281C133.98 29.375 133.887 29.3984 133.793 29.3984C133.676 29.3984 133.559 29.375 133.441 29.3281C133.324 29.2578 133.207 29.1758 133.09 29.082C132.809 28.8477 132.668 28.6484 132.668 28.4844C132.691 28.4375 132.715 28.3672 132.738 28.2734C132.785 28.1797 132.809 28.0977 132.809 28.0273L132.984 26.8672C133.008 26.75 133.031 26.6211 133.055 26.4805C133.078 26.3398 133.09 26.1992 133.09 26.0586C133.09 25.6133 133.078 25.2617 133.055 25.0039C133.055 24.7227 133.02 24.4297 132.949 24.125V24.0195C132.949 23.8555 133.02 23.7734 133.16 23.7734C133.301 23.7734 133.547 23.8789 133.898 24.0898C134.367 24.418 134.602 24.6758 134.602 24.8633C134.602 24.9336 134.59 24.9922 134.566 25.0391C134.543 25.0859 134.52 25.1328 134.496 25.1797C134.426 25.6016 134.391 25.8359 134.391 25.8828L134.215 27.7461C134.215 27.793 134.238 27.8516 134.285 27.9219C134.355 27.9688 134.426 27.9922 134.496 27.9922C135.059 27.9922 136.324 27.8516 138.293 27.5703C139.066 27.5 139.617 27.418 139.945 27.3242C140.156 27.3008 140.332 27.2656 140.473 27.2188C140.637 27.1484 140.742 27.1133 140.789 27.1133C140.93 27.0664 141.023 27.043 141.07 27.043C141.281 27.043 141.539 27.2305 141.844 27.6055ZM108.129 17.2344L105.738 17.9023L104.684 18.1836C103.957 18.3711 103.477 18.4766 103.242 18.5C102.961 18.5 102.703 18.4766 102.469 18.4297C102.164 18.3594 101.824 18.207 101.449 17.9727C101.051 17.7383 100.758 17.4102 100.57 16.9883C100.664 16.8477 100.84 16.7656 101.098 16.7422L101.977 16.707C102.703 16.6836 103.477 16.6484 104.297 16.6016C105.117 16.5312 105.855 16.4375 106.512 16.3203L108.762 15.9336C109.09 15.1836 109.289 14.7148 109.359 14.5273L109.816 13.1562C109.441 13.1797 109.148 13.2031 108.938 13.2266C108.727 13.25 108.375 13.2969 107.883 13.3672C107.391 13.4609 106.992 13.5078 106.688 13.5078C106.312 13.5078 106.02 13.4609 105.809 13.3672C105.527 13.25 105.316 13.1211 105.176 12.9805L105.035 12.6641C105.059 12.5 105.176 12.418 105.387 12.418L106.055 12.3477C106.219 12.3477 106.617 12.3125 107.25 12.2422C107.883 12.1719 108.48 12.1133 109.043 12.0664L110.238 11.9258C110.543 10.9883 110.719 10.4023 110.766 10.168L111.047 8.76172C110.18 8.83203 109.395 8.91406 108.691 9.00781C107.965 9.07812 107.496 9.11328 107.285 9.11328H106.758C106.289 9.11328 105.938 9.06641 105.703 8.97266C105.398 8.83203 105.176 8.66797 105.035 8.48047L104.895 8.12891L105.141 7.95312H105.879L106.863 7.84766L108.902 7.70703L111.293 7.35547L111.434 5.45703V5.10547C111.434 4.84766 111.41 4.53125 111.363 4.15625C111.316 3.80469 111.281 3.55859 111.258 3.41797L111.117 2.64453L111.469 2.39844C111.703 2.375 111.949 2.41016 112.207 2.50391C112.535 2.64453 112.863 2.79688 113.191 2.96094C113.52 3.125 113.801 3.32422 114.035 3.55859C114.27 3.79297 114.387 4.02734 114.387 4.26172L114.141 4.75391C113.977 5.01172 113.848 5.30469 113.754 5.63281L113.262 7.07422L116.145 6.65234L117.727 6.30078C118.008 6.25391 118.266 6.21875 118.5 6.19531C118.898 6.19531 119.32 6.28906 119.766 6.47656C120.164 6.61719 120.363 6.79297 120.363 7.00391C120.34 7.23828 120.246 7.37891 120.082 7.42578L119.379 7.63672C119.145 7.68359 118.746 7.75391 118.184 7.84766L115.934 8.19922C115.137 8.31641 114.469 8.39844 113.93 8.44531L112.98 8.55078C112.723 9.46484 112.57 10.0273 112.523 10.2383L112.137 11.6445L114.316 11.2578C114.785 11.1875 115.324 11.082 115.934 10.9414C116.543 10.7773 117.035 10.6836 117.41 10.6602C117.762 10.6602 118.043 10.6836 118.254 10.7305C118.582 10.7773 118.887 10.8711 119.168 11.0117L119.625 11.3984C119.625 11.5859 119.461 11.7266 119.133 11.8203C118.875 11.8906 118.523 11.9492 118.078 11.9961C117.633 12.043 117.059 12.1133 116.355 12.207L114.211 12.5586L111.855 12.9102C111.527 13.8008 111.328 14.3516 111.258 14.5625L110.871 15.6523C111.574 15.582 112.102 15.5234 112.453 15.4766L116.074 15.1602C116.73 15.1133 117.445 15.0195 118.219 14.8789C118.992 14.7617 119.613 14.6445 120.082 14.5273L121.137 14.2461C121.605 14.1523 121.969 14.1055 122.227 14.1055C122.531 14.1055 122.801 14.1523 123.035 14.2461C123.293 14.3398 123.668 14.4922 124.16 14.7031C124.652 14.9141 124.969 15.1367 125.109 15.3711L125.215 15.9336C125.121 16.1211 124.934 16.2266 124.652 16.25L123.879 16.2852L121.699 16.2148C121.348 16.2148 120.691 16.2383 119.73 16.2852L116.918 16.3555H115.652L116.777 17.1992L118.887 18.9922C120.012 19.9531 121.02 20.7617 121.91 21.418C122.801 22.0742 123.539 22.5547 124.125 22.8594C124.711 23.1641 125.566 23.5508 126.691 24.0195C127.816 24.4648 128.801 24.793 129.645 25.0039L130.594 25.7422L129.855 25.9531L127.605 26.4102C126.668 26.5977 125.941 26.6914 125.426 26.6914C124.816 26.6211 124.266 26.4219 123.773 26.0938C123.281 25.7656 122.824 25.3789 122.402 24.9336L119.66 21.9805C118.301 20.4805 117.246 19.3672 116.496 18.6406C115.793 17.9141 115.254 17.4336 114.879 17.1992L113.93 16.4961C112.875 16.6133 112.23 16.6836 111.996 16.707L110.273 16.918C109.57 18.2773 108.996 19.2852 108.551 19.9414C108.105 20.5977 107.496 21.3242 106.723 22.1211C105.973 22.9648 105.188 23.7031 104.367 24.3359C103.547 24.9688 102.785 25.4844 102.082 25.8828C101.332 26.2812 100.594 26.6211 99.8672 26.9023C99.1406 27.1602 98.6602 27.3242 98.4258 27.3945L97.4062 27.2188L98.2852 26.6562L99.2695 26.0938C99.8789 25.7656 100.547 25.3438 101.273 24.8281C102 24.3359 102.715 23.7734 103.418 23.1406C104.121 22.5078 104.883 21.7227 105.703 20.7852C106.547 19.8477 107.098 19.1445 107.355 18.6758L108.129 17.2344ZM114.984 32.3867L112.734 32.5977C111.703 32.6914 111.105 32.7383 110.941 32.7383L109.254 32.7734L109.113 33.3359C108.973 33.7578 108.809 33.9688 108.621 33.9688C108.434 33.9453 108.246 33.793 108.059 33.5117C107.848 33.207 107.719 32.8438 107.672 32.4219C107.672 32.1172 107.695 31.8008 107.742 31.4727C107.789 31.0273 107.812 30.5117 107.812 29.9258L107.637 24.8633C107.59 24.207 107.52 23.7266 107.426 23.4219C107.355 23.1172 107.273 22.8828 107.18 22.7188L107.074 22.4023C107.121 22.2617 107.344 22.168 107.742 22.1211L108.727 22.332L109.852 22.1914C110.25 22.1445 110.73 22.0625 111.293 21.9453L113.191 21.5586C113.848 21.418 114.316 21.3008 114.598 21.207C114.879 21.1367 115.16 21.043 115.441 20.9258L116.109 20.7148C116.367 20.6914 116.59 20.7148 116.777 20.7852C117.035 20.8789 117.316 21.0312 117.621 21.2422C117.949 21.4531 118.23 21.6641 118.465 21.875L118.852 22.3672C118.852 22.5312 118.816 22.6836 118.746 22.8242C118.676 23.0117 118.617 23.2109 118.57 23.4219C118.5 23.6328 118.465 23.832 118.465 24.0195C118.418 24.207 118.383 24.582 118.359 25.1445V25.7422C118.359 26.1406 118.371 26.5742 118.395 27.043C118.418 27.6055 118.465 28.1914 118.535 28.8008L118.816 30.5938C118.91 31.2031 118.957 31.6602 118.957 31.9648C118.91 32.5742 118.734 33.1836 118.43 33.793C118.102 34.4023 117.785 34.7773 117.48 34.918L116.953 35.0586C116.695 35.0352 116.449 34.8008 116.215 34.3555C116.004 33.9336 115.77 33.5234 115.512 33.125L114.984 32.3867ZM109.324 31.5781C110.355 31.4609 111.141 31.3672 111.68 31.2969L113.508 31.0508C114.188 30.9336 114.645 30.875 114.879 30.875C115.254 30.8984 115.535 30.957 115.723 31.0508L116.461 31.4727L116.637 27.0078C116.121 27.125 115.734 27.1953 115.477 27.2188L113.051 27.6758C111.973 27.8633 111.211 27.9805 110.766 28.0273L110.344 28.0625H109.992L109.254 27.8867L109.324 31.5781ZM109.254 26.9023C109.488 26.9023 109.699 26.8906 109.887 26.8672C110.074 26.8438 110.566 26.7617 111.363 26.6211C112.207 26.457 112.887 26.3047 113.402 26.1641C113.965 26 114.387 25.918 114.668 25.918C114.926 25.918 115.16 25.9297 115.371 25.9531C115.676 26 116.039 26.1055 116.461 26.2695L116.637 23.3164C116.613 22.9414 116.555 22.6953 116.461 22.5781C116.344 22.4609 116.121 22.3906 115.793 22.3672C115.488 22.3672 115.16 22.3789 114.809 22.4023L113.262 22.4727C112.887 22.5195 112.348 22.6367 111.645 22.8242C110.941 22.9883 110.449 23.1172 110.168 23.2109L109.535 23.3516L109.395 23.7031C109.418 23.8438 109.418 24.043 109.395 24.3008C109.348 24.5352 109.324 24.7344 109.324 24.8984L109.254 26.9023ZM194.121 13.6836C193.957 13.6836 193.781 13.5781 193.594 13.3672C193.453 13.2031 193.359 13.0742 193.312 12.9805C193.266 12.8633 193.266 12.7109 193.312 12.5234L193.348 11.6797C193.371 11.5156 193.383 11.1172 193.383 10.4844V9.32422L192.328 9.81641L191.098 10.3438C190.793 10.4609 190.477 10.6016 190.148 10.7656C189.867 10.9062 189.621 10.9766 189.41 10.9766C189.246 10.9531 189.059 10.8945 188.848 10.8008C188.637 10.707 188.473 10.625 188.355 10.5547C188.098 10.3906 187.98 10.2148 188.004 10.0273L188.109 9.67578C188.109 9.48828 188.121 9.32422 188.145 9.18359L188.18 7.14453V5.24609C188.18 4.87109 188.156 4.55469 188.109 4.29688C188.062 4.01562 188.027 3.81641 188.004 3.69922C188.004 3.58203 188.039 3.5 188.109 3.45312C188.133 3.42969 188.191 3.41797 188.285 3.41797C188.449 3.41797 188.766 3.52344 189.234 3.73438C189.633 3.92188 189.797 4.15625 189.727 4.4375C189.68 4.60156 189.633 4.84766 189.586 5.17578L189.48 9.21875C189.48 9.33594 189.492 9.42969 189.516 9.5C189.562 9.54688 189.609 9.57031 189.656 9.57031C189.938 9.57031 190.277 9.48828 190.676 9.32422C191.426 9.08984 192.07 8.85547 192.609 8.62109L193.383 8.30469V5.98438C193.383 5.04688 193.324 4.14453 193.207 3.27734C193.184 3.20703 193.172 3.125 193.172 3.03125C193.172 2.79688 193.266 2.67969 193.453 2.67969C193.477 2.67969 193.605 2.72656 193.84 2.82031C194.191 3.00781 194.449 3.17188 194.613 3.3125C194.777 3.45312 194.871 3.53516 194.895 3.55859C194.988 3.62891 195.035 3.69922 195.035 3.76953C195.035 3.81641 195.012 3.875 194.965 3.94531C194.941 4.01562 194.918 4.07422 194.895 4.12109L194.789 5.17578L194.754 8.41016L194.789 11.5391C194.789 12.0781 194.754 12.5469 194.684 12.9453C194.566 13.4375 194.379 13.6836 194.121 13.6836ZM187.652 19.4492C187.395 19.4492 187.078 19.25 186.703 18.8516C186.422 18.5703 186.281 18.3594 186.281 18.2188C186.281 18.1484 186.328 18.1133 186.422 18.1133C186.516 18.0898 186.633 18.0781 186.773 18.0781L187.547 18.043C187.992 18.043 188.285 18.0312 188.426 18.0078C188.871 18.0078 189.246 17.9961 189.551 17.9727C191.566 17.7852 192.926 17.6328 193.629 17.5156C193.98 17.4688 194.297 17.4219 194.578 17.375C194.859 17.3047 195.082 17.2695 195.246 17.2695C195.574 17.2695 195.902 17.4336 196.23 17.7617C196.488 18.0195 196.617 18.2305 196.617 18.3945C196.617 18.5352 196.535 18.6289 196.371 18.6758C196.254 18.6992 195.562 18.7461 194.297 18.8164C193.594 18.8398 192.727 18.8984 191.695 18.9922C190.664 19.0859 189.762 19.1797 188.988 19.2734C188.848 19.2969 188.648 19.332 188.391 19.3789C188.133 19.4258 187.887 19.4492 187.652 19.4492ZM192.363 33.9688C191.637 33.9688 191.074 33.9453 190.676 33.8984C190.301 33.8516 189.984 33.7109 189.727 33.4766C189.281 33.1484 188.977 32.4336 188.812 31.332L188.707 30.207C188.707 29.9258 188.684 29.5742 188.637 29.1523C188.262 29.1992 187.992 29.2461 187.828 29.293C187.781 29.3164 187.699 29.3516 187.582 29.3984C187.488 29.4219 187.418 29.4336 187.371 29.4336C187.207 29.4336 187.055 29.3867 186.914 29.293C186.773 29.1992 186.598 29.0234 186.387 28.7656C186.223 28.5547 186.141 28.4141 186.141 28.3438C186.141 28.2734 186.223 28.2266 186.387 28.2031C186.551 28.1797 186.773 28.168 187.055 28.168C187.453 28.168 187.969 28.1211 188.602 28.0273L188.566 27.5352C188.566 26.5977 188.508 25.8008 188.391 25.1445L188.355 24.8984C188.355 24.5703 188.484 24.4414 188.742 24.5117C189.023 24.6055 189.281 24.7227 189.516 24.8633C189.703 24.957 189.832 25.0508 189.902 25.1445C189.973 25.2148 189.996 25.3203 189.973 25.4609L189.867 26.9727V27.8867L192.961 27.5703C192.961 27.4062 192.973 27.0195 192.996 26.4102C193.02 25.7773 193.02 25.3672 192.996 25.1797C192.996 24.9922 192.973 24.8164 192.926 24.6523C192.902 24.4648 192.879 24.3125 192.855 24.1953C192.855 24.0078 192.949 23.9141 193.137 23.9141C193.324 23.9141 193.559 24.0195 193.84 24.2305C194.168 24.4414 194.379 24.6289 194.473 24.793C194.59 24.957 194.613 25.1562 194.543 25.3906C194.426 25.7656 194.344 26.1875 194.297 26.6562C194.25 27.125 194.227 27.4062 194.227 27.5C194.508 27.4766 194.766 27.4414 195 27.3945C195.234 27.3477 195.387 27.3242 195.457 27.3242C195.645 27.2773 195.867 27.2539 196.125 27.2539C196.266 27.2773 196.465 27.418 196.723 27.6758C196.934 27.957 197.039 28.1797 197.039 28.3438C197.039 28.5781 196.816 28.6719 196.371 28.625C195.973 28.5547 195.574 28.5195 195.176 28.5195C194.777 28.5195 194.438 28.5312 194.156 28.5547C194.086 29.3984 193.945 30.2305 193.734 31.0508C193.688 31.2383 193.605 31.4023 193.488 31.543C193.371 31.6602 193.266 31.7188 193.172 31.7188C193.008 31.7188 192.902 31.6602 192.855 31.543C192.832 31.4023 192.82 31.1914 192.82 30.9102C192.867 30.3008 192.891 29.5391 192.891 28.625C192.258 28.6719 191.766 28.7188 191.414 28.7656C190.875 28.8828 190.371 28.9531 189.902 28.9766C189.879 29.9375 189.926 30.793 190.043 31.543C190.113 32.0352 190.254 32.375 190.465 32.5625C190.605 32.6797 190.77 32.75 190.957 32.7734C191.168 32.7969 191.379 32.8086 191.59 32.8086C191.801 32.8086 191.941 32.8086 192.012 32.8086C192.738 32.8086 193.418 32.7734 194.051 32.7031C194.238 32.6797 194.402 32.6328 194.543 32.5625C194.707 32.4922 194.824 32.457 194.895 32.457C195.105 32.457 195.316 32.5273 195.527 32.668C195.738 32.8086 195.844 32.9727 195.844 33.1602C195.844 33.3477 195.738 33.4883 195.527 33.582C195.34 33.6758 195.035 33.7578 194.613 33.8281C193.863 33.9219 193.113 33.9688 192.363 33.9688ZM202.383 17.9727C202.664 17.9727 202.805 18.1016 202.805 18.3594C202.805 18.5 202.676 18.6992 202.418 18.957C201.715 19.8242 200.32 21.4766 198.234 23.9141C198.07 24.125 197.918 24.2305 197.777 24.2305C197.66 24.2305 197.402 24.0547 197.004 23.7031C196.676 23.4219 196.512 23.1875 196.512 23C196.512 22.7891 196.688 22.5898 197.039 22.4023C197.578 22.0977 198.387 21.4883 199.465 20.5742C200.543 19.6133 201.34 18.8516 201.855 18.2891C202.066 18.0781 202.242 17.9727 202.383 17.9727ZM163.992 26.3398C163.875 26.1523 163.781 25.9883 163.711 25.8477C163.617 25.707 163.523 25.5195 163.43 25.2852V24.4414L164.379 24.6523L165.328 25.0742C165.75 25.2617 166.125 25.4492 166.453 25.6367C166.781 25.8477 167.051 26.1641 167.262 26.5859C167.426 26.9375 167.508 27.3477 167.508 27.8164C167.484 28.2852 167.367 28.6484 167.156 28.9062C166.969 29.1641 166.723 29.293 166.418 29.293C166.113 29.293 165.797 29.1055 165.469 28.7305C165.281 28.543 165.105 28.2734 164.941 27.9219L164.414 27.043L160.617 29.7852L159.352 30.8398L158.508 31.6836L158.086 31.9648C157.852 31.9648 157.617 31.8125 157.383 31.5078C157.172 31.25 156.984 30.9336 156.82 30.5586C156.68 30.2539 156.609 29.9609 156.609 29.6797L156.82 29.0117C156.961 28.6367 157.066 28.25 157.137 27.8516C157.207 27.4297 157.266 26.9492 157.312 26.4102C157.359 25.8945 157.406 25.1445 157.453 24.1602L157.629 18.043C157.629 17.7148 157.617 17.375 157.594 17.0234C157.547 16.6719 157.488 16.3789 157.418 16.1445C157.348 15.9102 157.242 15.6992 157.102 15.5117L156.82 15.2305L156.75 14.8789C156.844 14.7383 157.008 14.668 157.242 14.668C157.805 14.668 158.25 14.7617 158.578 14.9492L159.105 15.2305C159.691 15.1602 160.172 15.0898 160.547 15.0195C160.945 14.9727 161.438 14.8789 162.023 14.7383C162.586 14.5977 163.02 14.4805 163.324 14.3867C163.629 14.293 163.945 14.1758 164.273 14.0352C164.602 13.8945 164.859 13.8242 165.047 13.8242C165.234 13.8477 165.457 13.918 165.715 14.0352L166.453 14.4219L166.91 14.7383C167.332 14.9961 167.602 15.207 167.719 15.3711L167.754 16.0039L167.402 16.5312C167.332 16.6719 167.227 16.9062 167.086 17.2344L166.91 17.7617L166.031 21.0312L165.68 22.4023C165.492 22.8711 165.305 23.1641 165.117 23.2812L164.73 23.4219H164.484L164.027 22.9648C163.395 23.0352 162.914 23.082 162.586 23.1055L160.16 23.457L159.281 23.5273L159.07 27.3945L159.211 28.168C159.398 28.168 159.609 28.1211 159.844 28.0273L163.992 26.3398ZM159.281 22.3672C159.703 22.3438 160.031 22.3203 160.266 22.2969C160.5 22.2734 160.852 22.2031 161.32 22.0859C161.836 21.9688 162.281 21.875 162.656 21.8047C162.938 21.7578 163.195 21.7344 163.43 21.7344L164.098 21.8047L164.695 19.0977C164.109 19.1445 163.676 19.1914 163.395 19.2383L161.707 19.5195C161.215 19.6133 160.816 19.6602 160.512 19.6602L159.949 19.5898L159.422 19.4141L159.281 22.3672ZM159.457 18.6758C159.902 18.6523 160.254 18.6172 160.512 18.5703C160.77 18.5234 161.203 18.418 161.812 18.2539C162.375 18.0898 162.797 17.9961 163.078 17.9727C163.477 17.9727 163.863 18.043 164.238 18.1836L164.801 18.3945L164.977 17.3047C165.023 17 165.047 16.6602 165.047 16.2852C165.047 15.9102 164.988 15.6641 164.871 15.5469C164.754 15.4297 164.59 15.3711 164.379 15.3711C164.145 15.3945 163.852 15.4531 163.5 15.5469C163.172 15.6172 162.633 15.7227 161.883 15.8633C161.109 16.0039 160.617 16.0742 160.406 16.0742L159.668 16.1094L159.457 18.6758ZM172.148 17.1992C172.055 17.5742 171.996 17.8555 171.973 18.043C171.949 18.2305 171.914 18.5352 171.867 18.957C171.82 19.3789 171.797 19.7305 171.797 20.0117L171.691 27.1133C171.668 28.0977 171.586 29.2461 171.445 30.5586L171.305 32.0703C171.211 32.9844 171.047 33.7695 170.812 34.4258C170.578 35.0586 170.367 35.375 170.18 35.375C170.016 35.3516 169.875 35.0117 169.758 34.3555C169.641 33.7227 169.57 32.9844 169.547 32.1406C169.523 31.5781 169.512 31.0156 169.512 30.4531V29.5742L169.652 20.3633C169.676 19.7539 169.688 19.2617 169.688 18.8867C169.688 18.5117 169.676 18.2539 169.652 18.1133C169.629 17.8086 169.594 17.457 169.547 17.0586C169.5 16.6602 169.418 16.332 169.301 16.0742L169.16 15.3711L169.336 15.1602C169.547 15.1602 169.805 15.207 170.109 15.3008C170.719 15.4883 171.117 15.6406 171.305 15.7578L171.867 16.1094L173.59 15.7227C174.176 15.582 174.773 15.418 175.383 15.2305L176.156 15.0195C176.531 14.9023 176.859 14.7734 177.141 14.6328L177.633 14.457C177.797 14.457 177.996 14.5273 178.23 14.668C178.465 14.8086 178.711 14.9727 178.969 15.1602C179.25 15.3477 179.52 15.5586 179.777 15.793C179.988 15.9805 180.059 16.2617 179.988 16.6367C179.801 16.8945 179.672 17.1289 179.602 17.3398C179.555 17.5508 179.508 17.832 179.461 18.1836C179.414 18.5586 179.391 18.9453 179.391 19.3438L179.18 23.1055C179.133 24.043 179.062 24.7695 178.969 25.2852C178.898 25.8008 178.746 26.2578 178.512 26.6562C178.254 27.0547 177.961 27.3711 177.633 27.6055L177 27.8867C176.812 27.8398 176.625 27.6992 176.438 27.4648C176.227 27.207 175.934 26.8789 175.559 26.4805C175.207 26.0586 174.867 25.6836 174.539 25.3555L173.906 24.793L173.695 24.3008C173.836 24.2773 174 24.3008 174.188 24.3711L174.996 24.6172C175.465 24.7812 175.828 24.875 176.086 24.8984C176.297 24.8984 176.473 24.8633 176.613 24.793C176.824 24.6523 176.953 24.3477 177 23.8789C177.07 23.3633 177.117 22.8711 177.141 22.4023L177.281 17.832C177.281 17.293 177.258 16.9414 177.211 16.7773L177.07 16.4961C176.93 16.3555 176.719 16.2852 176.438 16.2852C176.203 16.2852 175.805 16.332 175.242 16.4258L173.66 16.7422L172.148 17.1992ZM172.852 6.40625L177.281 5.52734C177.516 5.48047 177.773 5.41016 178.055 5.31641L178.688 5.17578C178.992 5.15234 179.25 5.16406 179.461 5.21094C179.742 5.28125 180.035 5.41016 180.34 5.59766L180.832 5.94922C180.855 6.08984 180.773 6.25391 180.586 6.44141C180.398 6.58203 180.129 6.6875 179.777 6.75781L178.477 7.00391C178.102 7.05078 177.574 7.12109 176.895 7.21484C176.215 7.28516 175.605 7.35547 175.066 7.42578C174.527 7.51953 174.164 7.56641 173.977 7.56641C173.602 7.56641 173.238 7.51953 172.887 7.42578L172.289 7.32031L171.27 8.72656C170.871 9.24219 170.391 9.76953 169.828 10.3086C169.219 10.8711 168.82 11.2109 168.633 11.3281L168 11.7148L167.578 11.8555L167.332 11.6797L167.578 11.293L168.352 10.3086C168.68 9.91016 168.949 9.55859 169.16 9.25391C169.371 8.92578 169.617 8.51562 169.898 8.02344C170.203 7.53125 170.449 7.09766 170.637 6.72266C170.801 6.37109 170.953 6.01953 171.094 5.66797C171.234 5.29297 171.34 4.98828 171.41 4.75391C171.48 4.49609 171.562 4.23828 171.656 3.98047C171.703 3.69922 171.727 3.44141 171.727 3.20703L171.938 2.64453L172.184 2.53906C172.348 2.53906 172.535 2.58594 172.746 2.67969C173.027 2.79688 173.32 2.94922 173.625 3.13672C173.93 3.32422 174.164 3.52344 174.328 3.73438L174.539 4.15625L174.469 4.47266C174.352 4.58984 174.188 4.75391 173.977 4.96484C173.742 5.19922 173.531 5.43359 173.344 5.66797L172.852 6.40625ZM161.25 7.28516L162.234 7.10938C162.656 7.03906 163.324 6.86328 164.238 6.58203L164.766 6.40625L165.645 6.16016L166.172 6.26562C166.453 6.33594 166.664 6.39453 166.805 6.44141C166.945 6.51172 167.086 6.60547 167.227 6.72266L167.473 6.96875C167.496 7.13281 167.438 7.27344 167.297 7.39062C167.109 7.50781 166.805 7.61328 166.383 7.70703L165.539 7.91797C165.352 7.96484 164.883 8.03516 164.133 8.12891L162.938 8.30469C162.633 8.32812 162.387 8.33984 162.199 8.33984L161.742 8.30469L160.828 7.98828L159.773 9.21875C159.445 9.61719 159.07 10.0156 158.648 10.4141C158.227 10.8359 157.84 11.1758 157.488 11.4336C157.137 11.668 156.762 11.9023 156.363 12.1367L155.168 12.5234C155.145 12.3594 155.203 12.207 155.344 12.0664L155.941 11.5039C156.293 11.1758 156.609 10.8477 156.891 10.5195C157.172 10.2383 157.512 9.81641 157.91 9.25391C158.309 8.69141 158.672 8.12891 159 7.56641C159.328 7.05078 159.609 6.58203 159.844 6.16016C160.055 5.73828 160.23 5.33984 160.371 4.96484C160.512 4.58984 160.582 4.21484 160.582 3.83984L160.863 3.3125C161.168 3.3125 161.496 3.41797 161.848 3.62891C162.199 3.81641 162.434 3.96875 162.551 4.08594C162.691 4.20313 162.82 4.33203 162.938 4.47266L163.148 5.17578C163.102 5.31641 162.984 5.44531 162.797 5.5625L162.41 5.80859L161.742 6.72266L161.25 7.28516ZM161.391 10.0625C161.648 10.0156 161.883 10.0039 162.094 10.0273L162.867 10.2031C163.078 10.2734 163.312 10.3438 163.57 10.4141C163.828 10.4844 164.039 10.5898 164.203 10.7305C164.391 10.8711 164.52 11.0117 164.59 11.1523C164.66 11.293 164.695 11.5039 164.695 11.7852C164.695 12.1602 164.602 12.4414 164.414 12.6289C164.25 12.8164 164.039 12.9219 163.781 12.9453C163.57 12.9453 163.312 12.8164 163.008 12.5586C162.797 12.3945 162.516 12.1133 162.164 11.7148C161.812 11.3398 161.555 11.0469 161.391 10.8359C161.25 10.625 161.25 10.3672 161.391 10.0625ZM173.414 8.90234L174.293 9.04297C174.926 9.18359 175.465 9.35938 175.91 9.57031C176.332 9.78125 176.648 10.0273 176.859 10.3086C177.047 10.5898 177.141 10.9648 177.141 11.4336C177.117 11.9961 176.918 12.3594 176.543 12.5234C176.238 12.5234 175.945 12.4297 175.664 12.2422C175.289 12.0312 174.926 11.7266 174.574 11.3281L173.695 10.2383L173.027 8.9375C173.191 8.89062 173.32 8.87891 173.414 8.90234Z" fill="#333333"/>
<path d="M56.0195 66.6445C55.7826 66.6445 55.6094 66.5625 55.5 66.3984C55.3359 66.1615 55.1719 65.9701 55.0078 65.8242C54.862 65.6784 54.5977 65.4779 54.2148 65.2227L54.2969 65.0859C55.1354 65.3776 55.7279 65.5234 56.0742 65.5234C56.3659 65.5234 56.6849 65.3594 57.0312 65.0312C57.3958 64.6849 57.7057 64.1927 57.9609 63.5547C58.0885 63.263 58.1797 63.026 58.2344 62.8438C58.3073 62.6432 58.362 62.4245 58.3984 62.1875V62.1328C58.3984 61.9688 58.3164 61.8867 58.1523 61.8867C57.9701 61.8867 57.6419 61.9414 57.168 62.0508C56.9128 62.1237 56.5755 62.2331 56.1562 62.3789L55.9375 62.3242C55.9193 62.306 55.8737 62.2786 55.8008 62.2422C55.7461 62.1875 55.7005 62.1328 55.6641 62.0781C55.5729 61.987 55.5273 61.9232 55.5273 61.8867L55.5 61.7773C55.5 61.6497 55.5638 61.5312 55.6914 61.4219C55.8372 61.3125 55.9193 61.2305 55.9375 61.1758C56.0833 61.0117 56.375 60.6107 56.8125 59.9727C56.849 59.9362 56.9128 59.8542 57.0039 59.7266C57.0951 59.5807 57.1406 59.4531 57.1406 59.3438C57.1406 59.2161 56.6029 59.3073 55.5273 59.6172C54.4336 59.9453 53.8594 60.1094 53.8047 60.1094C53.6224 60.1094 53.431 59.9544 53.2305 59.6445C53.0846 59.4987 53.0117 59.3802 53.0117 59.2891C53.0117 59.1615 53.194 59.0885 53.5586 59.0703C53.9779 59.0521 54.625 58.9792 55.5 58.8516C56.3932 58.724 56.9219 58.6419 57.0859 58.6055L57.4688 58.4961C57.5234 58.4779 57.5872 58.4688 57.6602 58.4688C57.7148 58.4688 57.7969 58.5052 57.9062 58.5781C58.0339 58.651 58.1432 58.7057 58.2344 58.7422C58.4714 58.8516 58.6081 58.9792 58.6445 59.125V59.207C58.6445 59.3711 58.5534 59.5443 58.3711 59.7266C58.2982 59.7995 58.1523 59.9544 57.9336 60.1914C57.7148 60.4102 57.5781 60.556 57.5234 60.6289C57.4505 60.7018 57.3411 60.8203 57.1953 60.9844C57.0495 61.1484 56.9674 61.2487 56.9492 61.2852C56.9492 61.3398 56.9674 61.3763 57.0039 61.3945C57.0404 61.4128 57.0859 61.4219 57.1406 61.4219C57.6875 61.349 58.1341 61.2669 58.4805 61.1758L58.918 61.0391C59.1185 61.0391 59.2643 61.112 59.3555 61.2578C59.5195 61.4401 59.6289 61.5951 59.6836 61.7227C59.7383 61.832 59.7383 61.9414 59.6836 62.0508C59.6654 62.1055 59.638 62.1602 59.6016 62.2148C59.5651 62.2695 59.5286 62.3333 59.4922 62.4062C59.474 62.4427 59.4375 62.5156 59.3828 62.625C59.3281 62.7344 59.2917 62.8438 59.2734 62.9531C58.9453 63.901 58.5534 64.7122 58.0977 65.3867C57.8424 65.6966 57.5599 65.9609 57.25 66.1797C56.8307 66.4896 56.4206 66.6445 56.0195 66.6445ZM59.1641 73.9727C58.8906 73.9727 58.6263 73.7721 58.3711 73.3711C58.043 72.8607 57.724 72.4414 57.4141 72.1133L56.7031 71.375C56.3203 71.8125 55.9831 72.1589 55.6914 72.4141C55.418 72.6693 55.0716 72.9154 54.6523 73.1523C53.8685 73.6081 53.2122 73.8359 52.6836 73.8359C52.556 73.8359 52.4922 73.7904 52.4922 73.6992C52.4922 73.6445 52.6654 73.526 53.0117 73.3438C53.3581 73.1615 53.6862 72.9427 53.9961 72.6875C54.7799 72.0312 55.4271 71.3568 55.9375 70.6641C55.8281 70.5547 55.2812 70.0807 54.2969 69.2422C54.1693 69.151 53.9779 68.9961 53.7227 68.7773C53.668 68.7409 53.5586 68.6589 53.3945 68.5312C53.2305 68.4036 53.1484 68.3125 53.1484 68.2578C53.1484 68.1667 53.194 68.1211 53.2852 68.1211C53.5586 68.1211 53.9961 68.3125 54.5977 68.6953C55.1992 69.0599 55.8281 69.4974 56.4844 70.0078C56.7396 69.6979 56.9401 69.4062 57.0859 69.1328C57.2318 68.8594 57.3958 68.5221 57.5781 68.1211C57.6693 67.9206 57.724 67.7474 57.7422 67.6016C57.7604 67.4375 57.7695 67.3372 57.7695 67.3008C57.7695 67.1003 57.8242 67 57.9336 67C58.0612 67 58.2344 67.1003 58.4531 67.3008C58.8359 67.6654 59.0273 67.9115 59.0273 68.0391C59.0273 68.112 58.9818 68.194 58.8906 68.2852C58.6719 68.5039 58.4714 68.7956 58.2891 69.1602C58.1797 69.3789 57.9792 69.6888 57.6875 70.0898C57.5964 70.1992 57.5234 70.2995 57.4688 70.3906C57.4141 70.4818 57.3594 70.5638 57.3047 70.6367C57.724 70.9466 58.3438 71.4753 59.1641 72.2227C59.3646 72.4049 59.4922 72.5781 59.5469 72.7422C59.6198 72.888 59.6562 73.0885 59.6562 73.3438C59.6562 73.526 59.6107 73.681 59.5195 73.8086C59.4284 73.918 59.3099 73.9727 59.1641 73.9727ZM53.1211 82.1484C52.8477 82.1484 52.638 82.0755 52.4922 81.9297C52.3281 81.7656 52.2461 81.6198 52.2461 81.4922C52.2461 81.3646 52.319 81.2279 52.4648 81.082C52.4831 81.0638 52.5833 80.918 52.7656 80.6445C53.1667 80.0065 53.6224 79.1953 54.1328 78.2109C54.6615 77.2083 54.9896 76.5247 55.1172 76.1602C55.2266 75.8138 55.3268 75.513 55.418 75.2578C55.5273 75.0026 55.6185 74.875 55.6914 74.875C55.819 74.875 55.9284 74.9206 56.0195 75.0117C56.1107 75.0846 56.2018 75.194 56.293 75.3398C56.4023 75.4674 56.4844 75.5586 56.5391 75.6133C56.6667 75.7591 56.7305 75.8958 56.7305 76.0234C56.7305 76.1146 56.694 76.2057 56.6211 76.2969C56.5482 76.388 56.5026 76.4518 56.4844 76.4883L55.2812 78.5117C54.9714 79.0768 54.5612 79.7786 54.0508 80.6172C53.9779 80.7083 53.9414 80.7995 53.9414 80.8906C53.9414 80.9635 54.0234 81 54.1875 81C54.5339 81 55.181 80.9635 56.1289 80.8906C57.0768 80.7995 57.7148 80.7266 58.043 80.6719C58.5169 80.6172 58.8451 80.5625 59.0273 80.5078C59.2279 80.4531 59.5195 80.5898 59.9023 80.918C60.3581 81.3008 60.4583 81.5469 60.2031 81.6562C60.0573 81.7292 59.7747 81.7656 59.3555 81.7656H58.2617C58.0247 81.7656 57.651 81.7839 57.1406 81.8203C56.8307 81.8203 56.4844 81.8294 56.1016 81.8477C55.7188 81.8659 55.3997 81.8841 55.1445 81.9023C54.8529 81.9206 54.2878 81.9753 53.4492 82.0664L53.1211 82.1484ZM64.7422 70.0898C64.9609 70.0898 65.0703 70.1901 65.0703 70.3906C65.0703 70.5 64.9701 70.6549 64.7695 70.8555C64.2227 71.5299 63.138 72.8151 61.5156 74.7109C61.388 74.875 61.2695 74.957 61.1602 74.957C61.069 74.957 60.8685 74.8203 60.5586 74.5469C60.3034 74.3281 60.1758 74.1458 60.1758 74C60.1758 73.8359 60.3125 73.681 60.5859 73.5352C61.0052 73.2982 61.6341 72.8242 62.4727 72.1133C63.3112 71.3659 63.931 70.7734 64.332 70.3359C64.4961 70.1719 64.6328 70.0898 64.7422 70.0898ZM34.418 74.8477C34.6367 74.957 34.8099 75.0664 34.9375 75.1758L35.1562 75.5039C35.1562 75.6497 35.1289 75.7956 35.0742 75.9414C35.0195 76.0872 34.974 76.2422 34.9375 76.4062C34.901 76.5703 34.8737 76.7253 34.8555 76.8711V77.6094L34.8281 79.7148C34.8281 79.8424 34.8372 79.9701 34.8555 80.0977L35.1562 80.4531L36.1953 79.9883L38.8477 79.0039C38.8841 79.1315 38.793 79.2682 38.5742 79.4141L36.8242 80.7539C36.3867 81.082 36.0221 81.3737 35.7305 81.6289C35.4206 81.8841 35.1745 82.112 34.9922 82.3125L34.3086 83.0508L34.0352 83.2695C33.9076 83.2695 33.7891 83.2148 33.6797 83.1055C33.5521 83.0326 33.4336 82.8776 33.3242 82.6406C33.1966 82.4036 33.1055 82.2031 33.0508 82.0391V81.5195C33.1602 81.2643 33.2331 81.0638 33.2695 80.918L33.4062 80.3164C33.4427 80.0977 33.4701 79.8607 33.4883 79.6055V77.3633C33.4883 76.4154 33.4427 75.832 33.3516 75.6133L33.1328 74.957L32.7227 74.7656C32.5768 74.9661 32.4492 75.2122 32.3398 75.5039C32.2487 75.7773 32.0664 76.1966 31.793 76.7617C31.5378 77.3451 31.2461 77.8828 30.918 78.375C30.5898 78.8854 30.2344 79.3229 29.8516 79.6875C29.4688 80.0703 29.0404 80.444 28.5664 80.8086C28.0742 81.1732 27.6732 81.4193 27.3633 81.5469L26.5156 81.7383C26.4974 81.6107 26.5339 81.5104 26.625 81.4375L27.0898 81.082C27.2721 80.9727 27.5638 80.7083 27.9648 80.2891C28.3659 79.888 28.6758 79.5599 28.8945 79.3047C29.1133 79.0495 29.3776 78.6758 29.6875 78.1836C30.0156 77.6914 30.2982 77.1992 30.5352 76.707C30.7904 76.1966 30.9909 75.6953 31.1367 75.2031C31.2826 74.7109 31.4193 74.1549 31.5469 73.5352C31.6745 72.9154 31.7565 72.3867 31.793 71.9492C31.8294 71.6211 31.8477 71.3294 31.8477 71.0742L31.793 70.0078C31.7018 69.862 31.6107 69.7344 31.5195 69.625L31.3555 69.3789L31.3828 69.1328C31.4922 69.0781 31.638 69.0508 31.8203 69.0508H32.3945C32.6133 69.0508 32.9961 69.0326 33.543 68.9961L36.3867 68.75C37.043 68.6953 37.6628 68.6315 38.2461 68.5586L39.9141 68.3398C40.4427 68.2669 40.8438 68.1849 41.1172 68.0938L41.582 67.957C41.7643 67.957 41.9466 67.9753 42.1289 68.0117L42.5664 68.1484C42.8763 68.2396 43.0859 68.3398 43.1953 68.4492L43.25 68.832C43.1224 68.9049 43.0039 68.9505 42.8945 68.9688L41.7461 69.1328C40.9622 69.2604 40.1055 69.3607 39.1758 69.4336C38.2279 69.5065 37.1341 69.5977 35.8945 69.707L33.4883 69.8984L33.707 70.3086C33.7253 70.418 33.6888 70.5547 33.5977 70.7188C33.5247 70.8828 33.4701 71.0286 33.4336 71.1562L33.3242 71.5938C33.7982 71.5755 34.2266 71.5573 34.6094 71.5391C34.9922 71.5026 35.6576 71.4023 36.6055 71.2383C37.5534 71.056 38.2461 70.9375 38.6836 70.8828C39.1211 70.8099 39.4857 70.7096 39.7773 70.582L40.2969 70.3906C40.4792 70.3724 40.6797 70.3906 40.8984 70.4453C41.1172 70.5 41.3086 70.5547 41.4727 70.6094C41.6185 70.6641 41.7643 70.737 41.9102 70.8281L41.9375 71.3203L41.2539 71.457L35.8398 72.3047C35.5117 72.3594 35.2018 72.4232 34.9102 72.4961L34.3906 72.5781C34.1719 72.5781 33.8984 72.5234 33.5703 72.4141L33.1875 72.2773L32.9961 73.0977L32.7773 74.1094L41.0898 73.0703C41.6185 73.0156 42.0833 72.9336 42.4844 72.8242C42.8672 72.7148 43.1315 72.6602 43.2773 72.6602C43.4232 72.6602 43.5872 72.6966 43.7695 72.7695C43.9518 72.8424 44.125 72.9062 44.2891 72.9609C44.4531 73.0339 44.6445 73.1341 44.8633 73.2617L45.1641 73.5352L45.1094 73.7812C45.0182 73.8724 44.8451 73.918 44.5898 73.918L44.0156 73.9453C43.2318 73.9635 42.1836 74.0273 40.8711 74.1367C39.5586 74.2461 38.5378 74.3555 37.8086 74.4648L35.7031 74.7383L34.5273 74.8477H34.418ZM34.6914 61.5586C34.6549 61.2305 34.6276 60.9661 34.6094 60.7656C34.5911 60.5651 34.5638 60.3737 34.5273 60.1914C34.4727 60.0273 34.3997 59.8268 34.3086 59.5898L34.0078 58.8789C34.0625 58.7695 34.1992 58.6966 34.418 58.6602H34.6641C34.8828 58.6966 35.138 58.7604 35.4297 58.8516C35.7031 58.9427 35.9128 59.043 36.0586 59.1523L36.25 59.3984C36.2682 59.526 36.2409 59.7266 36.168 60C36.1133 60.1641 36.0768 60.4648 36.0586 60.9023V61.3945C36.7331 61.3216 37.1341 61.276 37.2617 61.2578L38.6289 61.0117V60.2734C38.6289 60.1458 38.6198 59.918 38.6016 59.5898C38.5833 59.2617 38.5378 58.9883 38.4648 58.7695L38.3555 58.4141L38.4375 58.1953C38.5286 58.1042 38.6654 58.0586 38.8477 58.0586C39.0117 58.0768 39.2487 58.1315 39.5586 58.2227C39.8503 58.332 40.0964 58.4596 40.2969 58.6055C40.4974 58.7695 40.5977 58.9518 40.5977 59.1523L40.4336 59.4805C40.3242 59.6628 40.2513 59.8359 40.2148 60L40.1055 60.7109C40.6341 60.6016 41.0169 60.5104 41.2539 60.4375C41.5091 60.3646 41.7917 60.2643 42.1016 60.1367C42.4115 60.0273 42.6576 59.9635 42.8398 59.9453C43.0221 59.9453 43.2135 59.9909 43.4141 60.082C43.6146 60.1549 43.8242 60.2552 44.043 60.3828C44.2617 60.4922 44.4714 60.6107 44.6719 60.7383C44.8724 60.8841 45.0273 61.0299 45.1367 61.1758L45.2734 61.5586C45.2552 61.668 45.1914 61.7773 45.082 61.8867L44.7266 62.4062L44.4531 62.8164C44.3984 62.9258 44.2982 63.181 44.1523 63.582L43.4414 65.5781C43.1497 66.362 42.9401 66.8268 42.8125 66.9727C42.6849 67.1185 42.5026 67.2461 42.2656 67.3555L42.0195 67.3281C41.8555 67.237 41.7279 67.0911 41.6367 66.8906L32.9141 67.7656L32.6133 67.9297L32.3945 67.8477C32.2852 67.7018 32.2122 67.5742 32.1758 67.4648C32.1393 67.3555 32.0482 66.9089 31.9023 66.125L31.4648 63.5273C31.3919 63.1263 31.2734 62.8346 31.1094 62.6523L30.5625 62.0508L30.6172 61.668C30.8177 61.6497 31.0365 61.6497 31.2734 61.668L32.0664 61.75L34.6367 61.5586H34.6914ZM34.9648 63.8828L34.8008 62.3242L32.6133 62.4883L32.7773 64.1562L34.9648 63.8828ZM32.8867 65.0039L33.1328 66.7266L35.2656 66.5352L35.0742 64.8398L32.8867 65.0039ZM36.1133 62.1875L36.168 63.7461L38.5469 63.4453L38.6289 61.832C37.918 61.9232 37.4987 61.9779 37.3711 61.9961L36.1133 62.1875ZM36.332 66.3984L38.4375 66.125L38.4648 64.457L36.25 64.7305L36.332 66.3984ZM39.4492 65.9062L40.5977 65.7695C40.8893 65.7331 41.099 65.7148 41.2266 65.7148L41.6094 65.9062L42.4023 63.8555L41.8555 63.9648L39.6953 64.293L39.4492 65.9062ZM39.832 63.1992C40.1966 63.1263 40.5156 63.0716 40.7891 63.0352C40.9896 62.9987 41.2083 62.9805 41.4453 62.9805L42.0195 63.1172L42.5664 63.2539L42.7852 62.3242C42.8398 62.0872 42.8581 61.8685 42.8398 61.668C42.8034 61.5221 42.6393 61.3854 42.3477 61.2578C42.1289 61.2396 41.9284 61.2487 41.7461 61.2852L40.0508 61.6133L39.832 63.1992ZM41.0898 77.3633L41.8008 76.5977C42.0013 76.3789 42.1836 76.1602 42.3477 75.9414C42.5299 75.7227 42.6667 75.5039 42.7578 75.2852L42.9492 74.793L43.25 74.5195C43.3958 74.5013 43.5508 74.5469 43.7148 74.6562L44.125 74.957C44.362 75.1211 44.5534 75.2852 44.6992 75.4492L44.8633 75.832C44.8268 75.9596 44.7539 76.0508 44.6445 76.1055C44.5352 76.1419 44.3529 76.1966 44.0977 76.2695C43.8424 76.3424 43.6328 76.4336 43.4688 76.543L41.3906 77.6094C41.7188 77.9193 42.0013 78.1654 42.2383 78.3477C42.4935 78.5482 42.9036 78.8307 43.4688 79.1953C44.0339 79.5781 44.5352 79.8789 44.9727 80.0977C45.4102 80.3346 45.793 80.5169 46.1211 80.6445L47.3516 81.0547L48.7461 81.4648L49.3477 81.6289L49.5117 82.0391L48.7461 82.2578C48.2174 82.3854 47.8529 82.4766 47.6523 82.5312C47.4336 82.5859 47.1146 82.6497 46.6953 82.7227C46.276 82.7956 45.9206 82.8411 45.6289 82.8594C45.4284 82.8594 45.2734 82.832 45.1641 82.7773C45.0182 82.7409 44.8268 82.6315 44.5898 82.4492C44.3711 82.2669 44.0977 81.9935 43.7695 81.6289L42.5117 80.3164L41.2812 79.0039C40.3516 77.9831 39.8229 77.418 39.6953 77.3086C39.5677 77.1992 39.2852 76.9805 38.8477 76.6523C38.4102 76.306 38.0729 76.0964 37.8359 76.0234L37.3438 75.668C37.362 75.5586 37.5169 75.4766 37.8086 75.4219C38.082 75.4036 38.3281 75.4401 38.5469 75.5312C38.7474 75.6224 39.0117 75.7956 39.3398 76.0508L41.0898 77.3633ZM98.8398 69.9531C98.5482 69.9531 98.3659 69.8711 98.293 69.707C98.2018 69.4883 98.1107 69.306 98.0195 69.1602C97.9284 68.9961 97.7643 68.8047 97.5273 68.5859L97.582 68.4766C98.2383 68.7135 98.6667 68.832 98.8672 68.832C99.013 68.832 99.1224 68.8047 99.1953 68.75C99.2682 68.6953 99.3867 68.5677 99.5508 68.3672C99.7878 68.112 100.007 67.7201 100.207 67.1914C100.48 66.4076 100.654 65.5964 100.727 64.7578V64.6758C100.727 64.5664 100.708 64.4935 100.672 64.457C100.435 64.457 99.806 64.5117 98.7852 64.6211C98.2201 66.0247 97.5638 67.1823 96.8164 68.0938C96.0872 68.987 95.4219 69.4336 94.8203 69.4336C94.6745 69.4336 94.6016 69.3789 94.6016 69.2695C94.6016 69.2331 94.7839 69.0234 95.1484 68.6406C95.513 68.2578 95.9141 67.7565 96.3516 67.1367C96.8073 66.4987 97.2357 65.7148 97.6367 64.7852C97.5456 64.7852 97.2812 64.8034 96.8438 64.8398C96.4062 64.8763 96.0326 64.9401 95.7227 65.0312C95.5768 65.1406 95.4219 65.1589 95.2578 65.0859C95.2578 65.0859 95.2396 65.0768 95.2031 65.0586C95.1667 65.0404 95.1302 65.013 95.0938 64.9766C94.9661 64.9036 94.8568 64.8125 94.7656 64.7031C94.6927 64.5755 94.6562 64.457 94.6562 64.3477C94.6562 64.293 94.7018 64.2201 94.793 64.1289L95.1211 63.6914C95.2305 63.5456 95.3307 63.3359 95.4219 63.0625C95.513 62.7708 95.5586 62.5247 95.5586 62.3242C95.5586 62.1966 95.5495 62.1146 95.5312 62.0781C95.513 62.0417 95.5039 61.9961 95.5039 61.9414C95.5039 61.8503 95.5495 61.8047 95.6406 61.8047C95.75 61.8047 95.9049 61.8685 96.1055 61.9961C96.1602 62.0326 96.2604 62.1055 96.4062 62.2148C96.5703 62.306 96.6615 62.4154 96.6797 62.543C96.6797 62.6706 96.6068 62.8802 96.4609 63.1719L96.1055 63.8008C96.069 63.8555 96.0508 63.9193 96.0508 63.9922C96.0508 64.0469 96.069 64.0924 96.1055 64.1289C96.1602 64.1471 96.224 64.1471 96.2969 64.1289L97.9375 63.9102C98.1198 63.4362 98.2656 62.9349 98.375 62.4062V62.2422V61.7773C98.375 61.5768 98.4297 61.4948 98.5391 61.5312C98.776 61.5859 98.9674 61.6589 99.1133 61.75C99.3867 61.9141 99.5234 62.0508 99.5234 62.1602C99.5234 62.2513 99.487 62.4062 99.4141 62.625C99.3594 62.8255 99.3138 62.9805 99.2773 63.0898C99.2591 63.1628 99.1771 63.3997 99.0312 63.8008C99.0859 63.8008 99.4232 63.7643 100.043 63.6914L100.316 63.6367C100.371 63.6367 100.471 63.6185 100.617 63.582C100.654 63.5638 100.699 63.5547 100.754 63.5547C100.973 63.5547 101.109 63.5638 101.164 63.582C101.237 63.6003 101.346 63.6549 101.492 63.7461C101.656 63.8555 101.766 63.9648 101.82 64.0742C101.875 64.1836 101.893 64.3112 101.875 64.457L101.711 65.3594L101.52 66.3438C101.52 66.4167 101.456 66.6536 101.328 67.0547C101.201 67.4557 101.055 67.8112 100.891 68.1211C100.581 68.7409 100.216 69.2057 99.7969 69.5156C99.4323 69.8073 99.1133 69.9531 98.8398 69.9531ZM95.2852 76.1602C95.0846 76.1602 94.8385 76.0052 94.5469 75.6953C94.3281 75.4766 94.2188 75.3125 94.2188 75.2031C94.2188 75.1484 94.2552 75.1211 94.3281 75.1211C94.401 75.1029 94.4922 75.0938 94.6016 75.0938L95.2031 75.0664C95.5495 75.0664 95.7773 75.0573 95.8867 75.0391C96.2331 75.0391 96.5247 75.0299 96.7617 75.0117C98.3294 74.8659 99.3867 74.7474 99.9336 74.6562C100.207 74.6198 100.453 74.5833 100.672 74.5469C100.891 74.4922 101.064 74.4648 101.191 74.4648C101.447 74.4648 101.702 74.5924 101.957 74.8477C102.158 75.0482 102.258 75.2122 102.258 75.3398C102.258 75.4492 102.194 75.5221 102.066 75.5586C101.975 75.5768 101.438 75.6133 100.453 75.668C99.9062 75.6862 99.2318 75.7318 98.4297 75.8047C97.6276 75.8776 96.9258 75.9505 96.3242 76.0234C96.2148 76.0417 96.0599 76.069 95.8594 76.1055C95.6589 76.1419 95.4674 76.1602 95.2852 76.1602ZM103.242 69.2695C103.333 69.2695 103.47 69.3333 103.652 69.4609C103.634 69.4974 103.671 69.5703 103.762 69.6797C103.853 69.7708 103.917 69.8346 103.953 69.8711C104.044 69.9622 104.135 70.0716 104.227 70.1992C104.336 70.3268 104.454 70.4635 104.582 70.6094C104.91 70.9557 105.667 71.8581 106.852 73.3164C107.052 73.6081 107.152 73.7812 107.152 73.8359C107.152 74.0182 107.043 74.1094 106.824 74.1094C106.697 74.1094 106.56 74.0182 106.414 73.8359C106.068 73.4714 105.448 72.8971 104.555 72.1133C103.862 71.4753 103.233 70.9831 102.668 70.6367C102.395 70.5091 102.258 70.3633 102.258 70.1992C102.258 70.0716 102.395 69.8893 102.668 69.6523C102.923 69.3971 103.115 69.2695 103.242 69.2695ZM73.3008 62.3789C73.1185 62.306 72.9544 62.2148 72.8086 62.1055L72.6992 61.75C72.8086 61.6589 72.9362 61.6042 73.082 61.5859L74.5859 61.4219L82.3789 60.3555C83.2357 60.2461 83.9831 60.1367 84.6211 60.0273L86.0977 59.7539C86.5898 59.681 86.9453 59.6172 87.1641 59.5625C87.401 59.526 87.5924 59.4987 87.7383 59.4805C87.957 59.4805 88.194 59.526 88.4492 59.6172C88.7044 59.6901 88.9323 59.7904 89.1328 59.918C89.3333 60.0273 89.4974 60.1641 89.625 60.3281L89.7617 60.6836C89.7253 60.8294 89.543 60.9206 89.2148 60.957L87.7383 61.0117L84.1836 61.2305C84.0742 61.2487 83.3997 61.3216 82.1602 61.4492C80.9206 61.5951 80.2279 61.6771 80.082 61.6953L75.5977 62.543L75.7891 62.9258C75.7344 63.0716 75.6706 63.2266 75.5977 63.3906C75.5247 63.5547 75.4609 63.7096 75.4062 63.8555L75.3516 64.2109C75.3151 64.4115 75.2878 64.6029 75.2695 64.7852L75.1055 66.1523L74.832 68.0938C74.6862 69.1328 74.5586 69.9076 74.4492 70.418C74.3581 70.9284 74.2305 71.5026 74.0664 72.1406C73.8841 72.7786 73.6289 73.5807 73.3008 74.5469C72.9727 75.513 72.6445 76.306 72.3164 76.9258C71.9883 77.5456 71.6237 78.1107 71.2227 78.6211C70.8216 79.1315 70.4753 79.5234 70.1836 79.7969L69.4727 80.4258L68.9258 80.6172L69.1445 80.1797L69.6094 79.4961C69.8646 79.0951 70.1289 78.6576 70.4023 78.1836C70.6758 77.7096 70.9674 77.1263 71.2773 76.4336C71.569 75.7409 71.8242 75.0846 72.043 74.4648C72.2435 73.8268 72.4349 73.1159 72.6172 72.332C72.7995 71.5299 72.9635 70.7188 73.1094 69.8984C73.2734 69.0781 73.3828 68.3581 73.4375 67.7383C73.5104 67.1185 73.5742 66.5078 73.6289 65.9062C73.6654 65.3047 73.6927 64.7578 73.7109 64.2656C73.7109 63.9193 73.7018 63.6732 73.6836 63.5273C73.6471 63.1992 73.5742 62.944 73.4648 62.7617L73.3008 62.3789ZM78.1133 67.5469C77.8216 67.5833 77.5573 67.6198 77.3203 67.6562L76.8828 67.7109C76.6823 67.7292 76.5091 67.7383 76.3633 67.7383C76.1263 67.7383 75.9258 67.7109 75.7617 67.6562L75.3789 67.4648L75.4336 67.2461C75.5247 67.1732 75.707 67.1094 75.9805 67.0547L78.4961 66.6445C78.4596 66.1341 78.4414 65.8151 78.4414 65.6875L78.2773 64.9219L77.457 65.2227C77.2018 65.2956 76.9648 65.3685 76.7461 65.4414L76.0352 65.332L76.7461 64.9492L77.3477 64.6211L78.332 64.0742L79.0977 63.582C79.3164 63.4362 79.4896 63.2904 79.6172 63.1445C79.7448 63.0352 79.8451 62.8984 79.918 62.7344L80.1641 62.4336C80.2734 62.4154 80.4102 62.4336 80.5742 62.4883L81.2031 62.7891C81.4036 62.8802 81.5586 62.9987 81.668 63.1445L81.75 63.5273L81.3672 63.6914C81.1302 63.7643 80.9388 63.8372 80.793 63.9102L79.9727 64.293L79.207 64.6211C79.444 64.7305 79.6263 64.8307 79.7539 64.9219C79.8815 65.0312 79.9544 65.1589 79.9727 65.3047L79.8633 65.8516L79.7539 66.3711C80.1185 66.2982 80.3919 66.2617 80.5742 66.2617C80.7747 66.2617 80.9935 66.2799 81.2305 66.3164C81.4492 66.3711 81.6133 66.4349 81.7227 66.5078L81.832 66.7266C81.832 66.8724 81.6133 66.9727 81.1758 67.0273L79.6445 67.2461V68.0117C79.8633 68.0846 80.1185 68.1576 80.4102 68.2305C80.7018 68.3034 80.9388 68.3763 81.1211 68.4492C81.3034 68.5221 81.4583 68.6224 81.5859 68.75C81.7318 68.8776 81.832 69.0872 81.8867 69.3789L81.8594 69.707C81.7682 69.8893 81.6497 69.9987 81.5039 70.0352C81.3763 70.0352 81.2669 69.9987 81.1758 69.9258C81.0664 69.8529 80.9388 69.7253 80.793 69.543L80.0273 68.7773L79.6445 68.3945L79.6172 70.8008L79.6445 71.9219C79.6445 72.3047 79.5625 72.6237 79.3984 72.8789L79.0703 73.2617C78.9427 73.2617 78.8242 73.2161 78.7148 73.125C78.569 72.9974 78.4414 72.806 78.332 72.5508L78.168 72.0859C78.168 71.9219 78.1862 71.7122 78.2227 71.457C78.2956 71.2018 78.3503 70.8737 78.3867 70.4727L78.4961 69.3242C78.3503 69.4701 78.1862 69.6523 78.0039 69.8711L77.2656 70.582C76.9557 70.8737 76.6367 71.1289 76.3086 71.3477L75.543 71.7852L74.9688 72.0586L74.4766 72.0312L74.832 71.6758L75.2148 71.3203L75.9805 70.582C76.1992 70.3451 76.5182 69.9622 76.9375 69.4336C77.3568 68.9049 77.6029 68.5586 77.6758 68.3945L78.1133 67.5469ZM85.0859 67.0547L84.1016 67.3281C83.901 67.3828 83.7188 67.4466 83.5547 67.5195L83.2539 67.6289C83.0898 67.6289 82.9258 67.6016 82.7617 67.5469L82.4336 67.4375C82.2878 67.3464 82.151 67.1914 82.0234 66.9727L82.4336 66.8359L85.332 66.2617V65.2773C85.332 64.9128 85.2865 64.5846 85.1953 64.293C84.8672 64.293 84.5573 64.3385 84.2656 64.4297C83.9922 64.5026 83.7461 64.5573 83.5273 64.5938L82.9805 64.7031L82.5156 64.5664L83.0898 64.2656L84.1016 63.7734C84.3568 63.6458 84.694 63.4544 85.1133 63.1992C85.5508 62.9622 85.8698 62.7526 86.0703 62.5703C86.2708 62.3698 86.4167 62.1966 86.5078 62.0508L86.8359 61.8047C87.1823 61.8229 87.474 61.8776 87.7109 61.9688C87.9479 62.0599 88.1393 62.1693 88.2852 62.2969L88.5039 62.9258C88.4128 62.9987 88.2852 63.0534 88.1211 63.0898C87.9388 63.1081 87.7474 63.1628 87.5469 63.2539L86.8633 63.5273L86.3711 63.7461C86.5352 63.8555 86.6628 63.9648 86.7539 64.0742C86.8268 64.1836 86.8724 64.3203 86.8906 64.4844C86.8906 64.612 86.8633 64.7669 86.8086 64.9492L86.6992 65.3867L86.6445 65.9336L88.1758 65.5508C88.4492 65.4779 88.6862 65.4414 88.8867 65.4414C89.1055 65.4414 89.3607 65.4779 89.6523 65.5508C89.944 65.6602 90.1628 65.7878 90.3086 65.9336L90.5273 66.207C90.4909 66.3164 90.3997 66.3893 90.2539 66.4258C90.1081 66.4622 89.944 66.4896 89.7617 66.5078C89.5794 66.5078 89.2878 66.5169 88.8867 66.5352C88.4857 66.5534 88.1758 66.5716 87.957 66.5898L86.5078 66.8086V67.6289L87.8203 68.1484C88.2214 68.3125 88.5951 68.4766 88.9414 68.6406C89.306 68.8047 89.6797 69.0234 90.0625 69.2969C90.4453 69.5703 90.7096 69.8529 90.8555 70.1445C91.0013 70.418 91.0742 70.6641 91.0742 70.8828C91.056 71.0833 91.0013 71.2292 90.9102 71.3203C90.819 71.4115 90.6823 71.4661 90.5 71.4844C90.3177 71.4844 90.0898 71.3659 89.8164 71.1289C89.5977 70.9831 89.3698 70.8008 89.1328 70.582C88.8958 70.3815 88.668 70.1719 88.4492 69.9531L86.5078 68.1211L86.5352 69.543L86.5898 71.6758C86.5534 71.8216 86.5078 71.9492 86.4531 72.0586C86.3984 72.168 86.2982 72.3138 86.1523 72.4961L85.6602 72.6875C85.5143 72.5599 85.3867 72.3685 85.2773 72.1133C85.1497 71.8763 85.0768 71.6667 85.0586 71.4844L85.168 70.8828C85.2409 70.5547 85.2773 70.181 85.2773 69.7617L85.332 69.0508L84.4844 69.8711C84.2109 70.1628 83.9557 70.3997 83.7188 70.582C83.4818 70.8008 83.1263 71.0378 82.6523 71.293C82.1784 71.5482 81.8867 71.694 81.7773 71.7305L81.2305 71.9766L80.9023 71.8398L81.5586 71.293C81.832 71.056 82.1784 70.7279 82.5977 70.3086C83.0352 69.8711 83.4271 69.4427 83.7734 69.0234C84.1198 68.5859 84.3841 68.2305 84.5664 67.957L85.0859 67.0547ZM78.7695 80.9727L78.6602 81.6562C78.6055 82.0938 78.4779 82.3125 78.2773 82.3125C78.0768 82.2943 77.9036 82.194 77.7578 82.0117C77.612 81.8294 77.4844 81.556 77.375 81.1914C77.3021 80.8815 77.2656 80.6081 77.2656 80.3711L77.4297 79.8516C77.5391 79.5599 77.6211 79.2135 77.6758 78.8125C77.7305 78.4297 77.7669 78.056 77.7852 77.6914V76.0781C77.7852 75.9141 77.7669 75.668 77.7305 75.3398C77.6758 74.9935 77.6029 74.7109 77.5117 74.4922L77.4023 74.1094C77.4388 73.9453 77.5573 73.8451 77.7578 73.8086C77.9401 73.7904 78.1133 73.8268 78.2773 73.918L78.9336 74.2461C79.8633 74.1185 80.5651 74.0091 81.0391 73.918L83.0352 73.5898C83.5456 73.5169 84.0195 73.4167 84.457 73.2891L85.2227 73.0977C85.4049 73.0977 85.6693 73.1615 86.0156 73.2891C86.362 73.4167 86.6628 73.5898 86.918 73.8086L87.3008 74.2188C87.3008 74.3464 87.2279 74.5469 87.082 74.8203C87.0091 75.0026 86.9544 75.349 86.918 75.8594V76.8711L87.0273 78.9492L87.1914 80.3984C87.1914 80.7266 87.1549 81.0182 87.082 81.2734C87.0091 81.5469 86.8997 81.8112 86.7539 82.0664C86.6081 82.3216 86.444 82.5404 86.2617 82.7227C86.0794 82.9049 85.9154 82.9961 85.7695 82.9961C85.6237 82.9779 85.4779 82.8503 85.332 82.6133L85.0586 81.9844L84.457 80.7812C83.8008 80.7995 83.3268 80.8086 83.0352 80.8086L80.4648 80.918L78.7695 80.9727ZM78.8516 79.9883L81.9414 79.8242L83.1445 79.7148C83.5273 79.6784 83.8646 79.6602 84.1562 79.6602C84.5208 79.6784 84.7578 79.7057 84.8672 79.7422L85.3867 79.9336C85.3867 79.6055 85.4049 79.3229 85.4414 79.0859V78.7031L85.4961 77.3086L84.9219 77.418C84.7214 77.4544 84.457 77.5 84.1289 77.5547C83.8008 77.6094 83.2721 77.6732 82.543 77.7461C81.7956 77.8372 81.1758 77.9102 80.6836 77.9648C80.3372 78.0195 80.0365 78.0469 79.7812 78.0469L78.9062 77.9375L78.8516 79.9883ZM78.9336 77.2266C79.3711 77.1719 79.7174 77.1354 79.9727 77.1172C80.2279 77.099 80.7018 77.0352 81.3945 76.9258C82.0872 76.8164 82.625 76.7253 83.0078 76.6523C83.3906 76.5794 83.6549 76.5339 83.8008 76.5156C83.9648 76.4974 84.1198 76.4883 84.2656 76.4883C84.5391 76.4883 84.7487 76.5247 84.8945 76.5977L85.4961 76.8438V75.8047C85.4961 75.112 85.4505 74.7109 85.3594 74.6016C85.2682 74.4922 85.0495 74.4102 84.7031 74.3555C84.4661 74.3555 84.0013 74.3828 83.3086 74.4375L82.0508 74.5469L80.9023 74.7109L79.043 74.957L78.9336 77.2266ZM137.285 72.0586C137.085 72.0586 136.839 71.9036 136.547 71.5938C136.328 71.375 136.219 71.2109 136.219 71.1016C136.219 71.0469 136.255 71.0195 136.328 71.0195C136.401 71.0013 136.492 70.9922 136.602 70.9922L137.203 70.9648C137.549 70.9648 137.777 70.9557 137.887 70.9375C138.233 70.9375 138.525 70.9284 138.762 70.9102C140.329 70.7643 141.387 70.6458 141.934 70.5547C142.207 70.5182 142.453 70.4818 142.672 70.4453C142.891 70.3906 143.064 70.3633 143.191 70.3633C143.447 70.3633 143.702 70.4909 143.957 70.7461C144.158 70.9466 144.258 71.1107 144.258 71.2383C144.258 71.3477 144.194 71.4206 144.066 71.457C143.975 71.4753 143.438 71.5117 142.453 71.5664C141.906 71.5846 141.232 71.6302 140.43 71.7031C139.628 71.776 138.926 71.849 138.324 71.9219C138.215 71.9401 138.06 71.9674 137.859 72.0039C137.659 72.0404 137.467 72.0586 137.285 72.0586ZM111.691 70.3633L112.293 70.3086L112.812 70.2539L114.645 70.1172L116.477 69.8711L119.895 69.4336L123.395 69.0781C124.889 68.9141 125.883 68.8138 126.375 68.7773C126.867 68.7227 127.314 68.668 127.715 68.6133C128.116 68.5768 128.553 68.5039 129.027 68.3945C129.501 68.3216 129.839 68.2852 130.039 68.2852C130.422 68.2852 130.878 68.4219 131.406 68.6953C131.935 68.9505 132.299 69.1784 132.5 69.3789L132.801 69.7344L132.855 69.9531C132.819 70.1354 132.728 70.263 132.582 70.3359C132.436 70.3906 132.254 70.418 132.035 70.418C131.871 70.4362 131.616 70.4453 131.27 70.4453C130.941 70.4453 130.531 70.4362 130.039 70.418C129.055 70.3815 128.28 70.3633 127.715 70.3633C126.475 70.3633 125.154 70.418 123.75 70.5273C122.346 70.6367 121.116 70.7461 120.059 70.8555C119.001 70.9831 118.208 71.1016 117.68 71.2109C117.151 71.3203 116.568 71.457 115.93 71.6211C115.292 71.7852 114.79 71.931 114.426 72.0586C114.061 72.1862 113.788 72.25 113.605 72.25C113.35 72.25 113.132 72.2044 112.949 72.1133C112.73 72.0039 112.484 71.8672 112.211 71.7031C111.938 71.5208 111.737 71.375 111.609 71.2656C111.482 71.138 111.354 70.9284 111.227 70.6367C111.281 70.4909 111.436 70.3997 111.691 70.3633ZM179.887 68.4492C179.285 68.2305 179.003 67.9935 179.039 67.7383C179.148 66.9727 179.203 66.0977 179.203 65.1133C179.203 64.6758 179.194 64.3568 179.176 64.1562C179.158 63.9193 179.139 63.7188 179.121 63.5547C179.103 63.3724 179.103 63.2721 179.121 63.2539C179.194 63.181 179.285 63.1445 179.395 63.1445C179.559 63.1445 179.759 63.2174 179.996 63.3633C180.251 63.5091 180.379 63.6549 180.379 63.8008C180.379 63.8919 180.37 63.9831 180.352 64.0742C180.333 64.1471 180.324 64.2292 180.324 64.3203L180.16 67.0273C180.16 67.1732 180.215 67.2643 180.324 67.3008H180.461C180.607 67.3008 180.707 67.2917 180.762 67.2734L184.289 66.7812V66.0703C184.289 65.1771 184.271 64.4844 184.234 63.9922C184.216 63.5729 184.171 63.2357 184.098 62.9805C184.043 62.6888 184.116 62.543 184.316 62.543C184.462 62.543 184.654 62.5977 184.891 62.707C185.182 62.8529 185.355 62.9805 185.41 63.0898C185.465 63.181 185.483 63.3268 185.465 63.5273C185.428 63.8555 185.41 64.3477 185.41 65.0039L185.438 67.082C185.438 67.5195 185.355 67.8659 185.191 68.1211C185.1 68.2305 185.009 68.2852 184.918 68.2852C184.827 68.2852 184.699 68.2031 184.535 68.0391C184.499 68.0026 184.453 67.9479 184.398 67.875C184.344 67.8021 184.289 67.7565 184.234 67.7383C184.18 67.7201 184.107 67.7109 184.016 67.7109C183.596 67.7474 182.585 67.8841 180.98 68.1211C180.707 68.1576 180.488 68.2305 180.324 68.3398C180.142 68.431 180.023 68.4766 179.969 68.4766L179.887 68.4492ZM182.949 79.5234C182.384 79.5234 181.947 79.5052 181.637 79.4688C181.345 79.4323 181.099 79.3229 180.898 79.1406C180.552 78.8854 180.315 78.3294 180.188 77.4727L180.105 76.5977C180.105 76.3789 180.087 76.1055 180.051 75.7773C179.759 75.8138 179.549 75.8503 179.422 75.8867C179.385 75.9049 179.322 75.9323 179.23 75.9688C179.158 75.987 179.103 75.9961 179.066 75.9961C178.939 75.9961 178.82 75.9596 178.711 75.8867C178.602 75.8138 178.465 75.6771 178.301 75.4766C178.173 75.3125 178.109 75.2031 178.109 75.1484C178.109 75.0938 178.173 75.0573 178.301 75.0391C178.428 75.0208 178.602 75.0117 178.82 75.0117C179.13 75.0117 179.531 74.9753 180.023 74.9023L179.996 74.5195C179.996 73.7904 179.951 73.1706 179.859 72.6602L179.832 72.4688C179.832 72.2135 179.932 72.1133 180.133 72.168C180.352 72.2409 180.552 72.332 180.734 72.4414C180.88 72.5143 180.98 72.5872 181.035 72.6602C181.09 72.7148 181.108 72.7969 181.09 72.9062L181.008 74.082V74.793L183.414 74.5469C183.414 74.4193 183.423 74.1185 183.441 73.6445C183.46 73.1523 183.46 72.8333 183.441 72.6875C183.441 72.5417 183.423 72.4049 183.387 72.2773C183.368 72.1315 183.35 72.013 183.332 71.9219C183.332 71.776 183.405 71.7031 183.551 71.7031C183.697 71.7031 183.879 71.7852 184.098 71.9492C184.353 72.1133 184.517 72.2591 184.59 72.3867C184.681 72.5143 184.699 72.6693 184.645 72.8516C184.553 73.1432 184.49 73.4714 184.453 73.8359C184.417 74.2005 184.398 74.4193 184.398 74.4922C184.617 74.474 184.818 74.4466 185 74.4102C185.182 74.3737 185.301 74.3555 185.355 74.3555C185.501 74.319 185.674 74.3008 185.875 74.3008C185.984 74.319 186.139 74.4284 186.34 74.6289C186.504 74.8477 186.586 75.0208 186.586 75.1484C186.586 75.3307 186.413 75.4036 186.066 75.3672C185.757 75.3125 185.447 75.2852 185.137 75.2852C184.827 75.2852 184.562 75.2943 184.344 75.3125C184.289 75.9688 184.18 76.6159 184.016 77.2539C183.979 77.3997 183.915 77.5273 183.824 77.6367C183.733 77.7279 183.651 77.7734 183.578 77.7734C183.451 77.7734 183.368 77.7279 183.332 77.6367C183.314 77.5273 183.305 77.3633 183.305 77.1445C183.341 76.6706 183.359 76.0781 183.359 75.3672C182.867 75.4036 182.484 75.4401 182.211 75.4766C181.792 75.5677 181.4 75.6224 181.035 75.6406C181.017 76.388 181.053 77.0534 181.145 77.6367C181.199 78.0195 181.309 78.2839 181.473 78.4297C181.582 78.5208 181.71 78.5755 181.855 78.5938C182.02 78.612 182.184 78.6211 182.348 78.6211C182.512 78.6211 182.621 78.6211 182.676 78.6211C183.241 78.6211 183.77 78.5938 184.262 78.5391C184.408 78.5208 184.535 78.4844 184.645 78.4297C184.772 78.375 184.863 78.3477 184.918 78.3477C185.082 78.3477 185.246 78.4023 185.41 78.5117C185.574 78.6211 185.656 78.7487 185.656 78.8945C185.656 79.0404 185.574 79.1497 185.41 79.2227C185.264 79.2956 185.027 79.3594 184.699 79.4141C184.116 79.487 183.533 79.5234 182.949 79.5234ZM187.242 69.2695C187.333 69.2695 187.47 69.3333 187.652 69.4609C187.634 69.4974 187.671 69.5703 187.762 69.6797C187.853 69.7708 187.917 69.8346 187.953 69.8711C188.044 69.9622 188.135 70.0716 188.227 70.1992C188.336 70.3268 188.454 70.4635 188.582 70.6094C188.91 70.9557 189.667 71.8581 190.852 73.3164C191.052 73.6081 191.152 73.7812 191.152 73.8359C191.152 74.0182 191.043 74.1094 190.824 74.1094C190.697 74.1094 190.56 74.0182 190.414 73.8359C190.068 73.4714 189.448 72.8971 188.555 72.1133C187.862 71.4753 187.233 70.9831 186.668 70.6367C186.395 70.5091 186.258 70.3633 186.258 70.1992C186.258 70.0716 186.395 69.8893 186.668 69.6523C186.923 69.3971 187.115 69.2695 187.242 69.2695ZM163.371 61.6133L166.816 61.0117C167.035 60.9753 167.409 60.8841 167.938 60.7383C168.466 60.6107 168.922 60.474 169.305 60.3281C169.688 60.1641 169.952 60.082 170.098 60.082C170.298 60.082 170.526 60.1367 170.781 60.2461C171.036 60.3555 171.319 60.5013 171.629 60.6836C171.921 60.8659 172.139 61.0299 172.285 61.1758L172.504 61.5312C172.522 61.6589 172.477 61.832 172.367 62.0508C172.148 62.4701 172.012 62.8529 171.957 63.1992C171.884 63.5638 171.848 64.2383 171.848 65.2227L171.684 75.7773L171.711 78.6758C171.693 79.2956 171.638 79.8424 171.547 80.3164C171.456 80.7539 171.337 81.1367 171.191 81.4648C171.046 81.7565 170.854 82.0391 170.617 82.3125C170.38 82.5859 170.161 82.7318 169.961 82.75C169.779 82.75 169.578 82.668 169.359 82.5039L169.004 82.1211C168.785 81.9023 168.384 81.556 167.801 81.082L166.816 80.3164L166.16 79.8516L165.969 79.6055C165.987 79.4779 166.087 79.4232 166.27 79.4414L166.816 79.5508L167.363 79.6602L168.211 79.8242C168.484 79.8789 168.703 79.9062 168.867 79.9062L169.141 79.8789C169.341 79.806 169.505 79.6693 169.633 79.4688C169.76 79.2682 169.842 79.0039 169.879 78.6758C169.915 78.3477 169.943 77.819 169.961 77.0898L170.098 71.7852C169.97 71.8581 169.824 71.931 169.66 72.0039C169.514 72.0768 169.259 72.1315 168.895 72.168L167.527 72.332L165.449 72.6602L164.355 72.8789C164.137 72.9154 163.927 72.9336 163.727 72.9336C163.435 72.9336 163.207 72.9154 163.043 72.8789L162.387 72.7148L162.086 74C161.995 74.3828 161.867 74.8112 161.703 75.2852C161.539 75.7227 161.302 76.2513 160.992 76.8711C160.682 77.4909 160.327 78.0469 159.926 78.5391C159.525 79.0312 159.124 79.4414 158.723 79.7695C158.34 80.0977 157.957 80.3893 157.574 80.6445C157.173 80.918 156.882 81.1094 156.699 81.2188L156.152 81.5195L155.852 81.6562L155.715 81.3555L156.234 80.8359C156.544 80.5625 156.882 80.2253 157.246 79.8242C157.611 79.4232 157.975 78.9766 158.34 78.4844C158.704 77.9922 159.069 77.4089 159.434 76.7344C159.78 76.0781 160.053 75.431 160.254 74.793C160.473 74.1732 160.655 73.4622 160.801 72.6602C160.947 71.8398 161.038 71.1289 161.074 70.5273C161.147 69.944 161.193 69.2513 161.211 68.4492L161.293 65.0586C161.293 64.4388 161.275 63.8646 161.238 63.3359C161.165 62.8073 161.092 62.4336 161.02 62.2148L160.691 61.2852L160.719 61.0117C160.792 60.8841 160.983 60.8294 161.293 60.8477C161.658 60.8841 161.977 60.9388 162.25 61.0117C162.505 61.1029 162.706 61.194 162.852 61.2852L163.371 61.6133ZM162.551 71.8672C163.025 71.8125 163.408 71.7578 163.699 71.7031C163.991 71.6667 164.337 71.612 164.738 71.5391L165.613 71.4023C165.832 71.3659 166.16 71.293 166.598 71.1836C167.017 71.0742 167.345 71.0013 167.582 70.9648C167.819 70.9102 168.029 70.8828 168.211 70.8828C168.557 70.901 168.977 70.9922 169.469 71.1562L170.098 71.4023L170.152 67.0273L166.27 67.6562C165.012 67.8568 164.273 67.957 164.055 67.957C163.836 67.957 163.672 67.9388 163.562 67.9023L162.852 67.7383C162.815 68.4492 162.788 69.0326 162.77 69.4883C162.733 69.9622 162.697 70.3815 162.66 70.7461L162.551 71.8672ZM162.852 66.9453L165.695 66.4258L166.898 66.1523C167.646 66.0065 168.138 65.9245 168.375 65.9062C168.667 65.9062 168.922 65.9336 169.141 65.9883C169.359 66.0612 169.542 66.1159 169.688 66.1523L170.125 66.3438L170.152 63.3359L170.098 62.6523C170.079 62.2331 170.016 61.9688 169.906 61.8594C169.815 61.7682 169.624 61.7044 169.332 61.668C169.186 61.6497 169.031 61.6406 168.867 61.6406C168.703 61.6406 168.53 61.6497 168.348 61.668L166.434 61.9414C165.632 62.0508 164.993 62.1602 164.52 62.2695L163.48 62.4883C163.371 62.7799 163.271 63.0352 163.18 63.2539C163.089 63.4727 163.025 63.6914 162.988 63.9102C162.952 64.1654 162.934 64.4753 162.934 64.8398L162.852 66.9453ZM221.285 72.0586C221.085 72.0586 220.839 71.9036 220.547 71.5938C220.328 71.375 220.219 71.2109 220.219 71.1016C220.219 71.0469 220.255 71.0195 220.328 71.0195C220.401 71.0013 220.492 70.9922 220.602 70.9922L221.203 70.9648C221.549 70.9648 221.777 70.9557 221.887 70.9375C222.233 70.9375 222.525 70.9284 222.762 70.9102C224.329 70.7643 225.387 70.6458 225.934 70.5547C226.207 70.5182 226.453 70.4818 226.672 70.4453C226.891 70.3906 227.064 70.3633 227.191 70.3633C227.447 70.3633 227.702 70.4909 227.957 70.7461C228.158 70.9466 228.258 71.1107 228.258 71.2383C228.258 71.3477 228.194 71.4206 228.066 71.457C227.975 71.4753 227.438 71.5117 226.453 71.5664C225.906 71.5846 225.232 71.6302 224.43 71.7031C223.628 71.776 222.926 71.849 222.324 71.9219C222.215 71.9401 222.06 71.9674 221.859 72.0039C221.659 72.0404 221.467 72.0586 221.285 72.0586ZM195.691 70.3633L196.293 70.3086L196.812 70.2539L198.645 70.1172L200.477 69.8711L203.895 69.4336L207.395 69.0781C208.889 68.9141 209.883 68.8138 210.375 68.7773C210.867 68.7227 211.314 68.668 211.715 68.6133C212.116 68.5768 212.553 68.5039 213.027 68.3945C213.501 68.3216 213.839 68.2852 214.039 68.2852C214.422 68.2852 214.878 68.4219 215.406 68.6953C215.935 68.9505 216.299 69.1784 216.5 69.3789L216.801 69.7344L216.855 69.9531C216.819 70.1354 216.728 70.263 216.582 70.3359C216.436 70.3906 216.254 70.418 216.035 70.418C215.871 70.4362 215.616 70.4453 215.27 70.4453C214.941 70.4453 214.531 70.4362 214.039 70.418C213.055 70.3815 212.28 70.3633 211.715 70.3633C210.475 70.3633 209.154 70.418 207.75 70.5273C206.346 70.6367 205.116 70.7461 204.059 70.8555C203.001 70.9831 202.208 71.1016 201.68 71.2109C201.151 71.3203 200.568 71.457 199.93 71.6211C199.292 71.7852 198.79 71.931 198.426 72.0586C198.061 72.1862 197.788 72.25 197.605 72.25C197.35 72.25 197.132 72.2044 196.949 72.1133C196.73 72.0039 196.484 71.8672 196.211 71.7031C195.938 71.5208 195.737 71.375 195.609 71.2656C195.482 71.138 195.354 70.9284 195.227 70.6367C195.281 70.4909 195.436 70.3997 195.691 70.3633ZM264.133 75.0391C264.023 75.0391 263.868 74.957 263.668 74.793C263.559 74.7201 263.467 74.6471 263.395 74.5742C263.322 74.5013 263.285 74.4375 263.285 74.3828L263.312 73.9453C263.331 73.7812 263.34 73.4167 263.34 72.8516C263.322 72.4505 263.312 71.612 263.312 70.3359C263.312 69.8255 263.267 69.3607 263.176 68.9414C263.176 68.9414 263.139 68.7227 263.066 68.2852V68.2031C263.066 68.0391 263.176 67.9935 263.395 68.0664C263.486 68.0846 263.695 68.1211 264.023 68.1758C264.37 68.1211 265.527 67.9844 267.496 67.7656C267.77 67.7292 267.988 67.6927 268.152 67.6562C268.316 67.6198 268.435 67.5924 268.508 67.5742H268.617C268.818 67.5742 269 67.6745 269.164 67.875C269.456 68.2214 269.574 68.4674 269.52 68.6133C269.447 68.7956 269.374 69.1055 269.301 69.543C269.264 69.7982 269.219 70.2357 269.164 70.8555V72.1133V74.1094C269.164 74.2734 269.082 74.4922 268.918 74.7656C268.882 74.8568 268.809 74.9297 268.699 74.9844C268.608 75.0391 268.508 75.0664 268.398 75.0664C268.289 75.0664 268.207 75.0391 268.152 74.9844C268.116 74.9479 268.079 74.9115 268.043 74.875C268.007 74.8203 267.97 74.7839 267.934 74.7656C267.915 74.7474 267.879 74.7383 267.824 74.7383C266.694 74.7383 265.673 74.8112 264.762 74.957C264.689 74.9753 264.616 74.9844 264.543 74.9844C264.488 74.9844 264.434 74.9935 264.379 75.0117L264.188 75.0391H264.133ZM264.652 74.0273C265.108 74.0091 265.728 73.9544 266.512 73.8633C266.876 73.8268 267.086 73.8086 267.141 73.8086H267.359C267.651 73.8086 267.87 73.8633 268.016 73.9727C268.143 73.0612 268.207 71.3932 268.207 68.9688C268.171 68.6953 268.061 68.5586 267.879 68.5586C267.533 68.5586 266.831 68.6224 265.773 68.75C265.664 68.75 265.555 68.7591 265.445 68.7773C265.336 68.7956 265.227 68.8138 265.117 68.832C264.807 68.8867 264.579 68.9141 264.434 68.9141C264.306 68.9141 264.26 68.9779 264.297 69.1055L264.27 70.0352C264.251 70.1628 264.242 70.2812 264.242 70.3906C264.26 70.5 264.27 70.6003 264.27 70.6914C264.288 70.8372 264.297 71.0742 264.297 71.4023C264.297 72.8242 264.306 73.6081 264.324 73.7539C264.324 73.8815 264.361 73.9635 264.434 74C264.507 74.0365 264.579 74.0456 264.652 74.0273ZM266.676 72.4961C266.475 72.4961 266.32 72.3958 266.211 72.1953C265.828 71.5573 265.473 71.0286 265.145 70.6094L264.953 70.3086C264.88 70.1992 264.844 70.1172 264.844 70.0625C264.862 69.9896 264.908 69.9622 264.98 69.9805C265.454 70.1263 265.892 70.3633 266.293 70.6914C266.913 71.1654 267.223 71.5299 267.223 71.7852C267.223 71.9128 267.186 72.0404 267.113 72.168C266.986 72.3867 266.84 72.4961 266.676 72.4961ZM271.242 65.168C271.333 65.168 271.47 65.2318 271.652 65.3594C271.634 65.3958 271.671 65.4688 271.762 65.5781C271.853 65.6693 271.917 65.7331 271.953 65.7695C272.044 65.8607 272.135 65.9701 272.227 66.0977C272.336 66.2253 272.454 66.362 272.582 66.5078C272.91 66.8542 273.667 67.7565 274.852 69.2148C275.052 69.5065 275.152 69.6797 275.152 69.7344C275.152 69.9167 275.043 70.0078 274.824 70.0078C274.697 70.0078 274.56 69.9167 274.414 69.7344C274.068 69.3698 273.448 68.7956 272.555 68.0117C271.862 67.3737 271.233 66.8815 270.668 66.5352C270.395 66.4076 270.258 66.2617 270.258 66.0977C270.258 65.9701 270.395 65.7878 270.668 65.5508C270.923 65.2956 271.115 65.168 271.242 65.168ZM243.16 63.6914L244.992 63.418C245.576 63.3268 246.049 63.2448 246.414 63.1719L248.766 62.707C249.385 62.5977 249.768 62.5247 249.914 62.4883L250.68 62.2969L251.008 62.2148C251.135 62.1784 251.281 62.1146 251.445 62.0234L251.828 61.8867C251.956 61.8685 252.102 61.8958 252.266 61.9688C252.484 62.0599 252.794 62.2057 253.195 62.4062C253.596 62.6068 253.934 62.8255 254.207 63.0625C254.48 63.2995 254.59 63.5547 254.535 63.8281C254.408 64.0651 254.307 64.2656 254.234 64.4297C254.161 64.5938 254.116 64.7578 254.098 64.9219C254.061 65.0859 254.025 65.4596 253.988 66.043L253.934 66.918L253.852 71.6211C253.852 71.931 253.87 72.6328 253.906 73.7266L253.961 75.3398C253.997 75.8503 254.016 76.1966 254.016 76.3789C253.997 76.707 253.961 77.0534 253.906 77.418C253.87 77.7826 253.806 78.1107 253.715 78.4023C253.624 78.6576 253.478 78.9583 253.277 79.3047C253.077 79.651 252.831 79.9154 252.539 80.0977C252.339 80.2253 252.138 80.2891 251.938 80.2891C251.755 80.2344 251.6 80.0339 251.473 79.6875C251.345 79.3411 251.19 79.0039 251.008 78.6758L250.707 78.1289L250.461 77.6367C249.914 77.6732 249.549 77.6914 249.367 77.6914C249.185 77.7279 248.811 77.7734 248.246 77.8281C247.681 77.8828 246.888 77.9648 245.867 78.0742C245.174 78.1471 244.628 78.1836 244.227 78.1836C244.026 78.1836 243.862 78.1745 243.734 78.1562L243.051 78.0742L242.969 78.8945C242.932 79.3685 242.823 79.6237 242.641 79.6602C242.477 79.6602 242.285 79.4961 242.066 79.168C241.829 78.8581 241.674 78.5846 241.602 78.3477C241.529 78.0924 241.483 77.8099 241.465 77.5C241.465 77.1719 241.51 76.7161 241.602 76.1328C241.711 75.6042 241.784 75.1211 241.82 74.6836L241.957 73.043C241.993 72.3867 242.039 71.3021 242.094 69.7891C242.148 68.5859 242.176 67.6107 242.176 66.8633V66.3711C242.158 65.8424 242.121 65.4232 242.066 65.1133C242.012 64.8216 241.948 64.5938 241.875 64.4297L241.602 63.4727L242.039 63.418C242.44 63.4544 242.704 63.5 242.832 63.5547L243.16 63.6914ZM243.188 77.0352C243.479 76.9987 243.898 76.9714 244.445 76.9531C244.992 76.9349 245.43 76.9076 245.758 76.8711C246.104 76.8346 246.624 76.7708 247.316 76.6797C248.027 76.5885 248.592 76.5065 249.012 76.4336C249.322 76.3971 249.604 76.3789 249.859 76.3789C250.26 76.3789 250.552 76.4245 250.734 76.5156L251.418 76.7891C251.546 76.4245 251.628 76.1419 251.664 75.9414C251.719 75.7227 251.773 75.3581 251.828 74.8477C251.865 74.3372 251.892 73.9909 251.91 73.8086L251.965 70.4727C251.473 70.582 251.117 70.6458 250.898 70.6641L249.34 70.8828L247.316 71.2383C246.569 71.3477 245.885 71.4206 245.266 71.457C245.029 71.4753 244.828 71.4844 244.664 71.4844C244.409 71.4844 244.217 71.4661 244.09 71.4297L243.352 71.2656L243.188 77.0352ZM243.406 70.4727C243.753 70.4362 244.072 70.4089 244.363 70.3906C244.673 70.3724 244.983 70.3359 245.293 70.2812L247.016 69.9805C247.818 69.8346 248.419 69.6979 248.82 69.5703C249.221 69.4427 249.495 69.3789 249.641 69.3789C249.75 69.3424 249.887 69.3242 250.051 69.3242C250.215 69.3424 250.406 69.3789 250.625 69.4336C250.862 69.5065 251.154 69.5885 251.5 69.6797L252.047 69.8438L251.965 65.3047C251.947 64.849 251.919 64.5117 251.883 64.293C251.81 64.0742 251.691 63.8919 251.527 63.7461C251.345 63.6367 251.053 63.5729 250.652 63.5547C250.124 63.5547 249.531 63.5911 248.875 63.6641C248.237 63.7552 247.617 63.8555 247.016 63.9648C246.396 64.0742 245.803 64.2018 245.238 64.3477C244.673 64.4935 244.327 64.5664 244.199 64.5664L243.543 64.6211L243.406 70.4727Z" fill="#333333"/>
</svg>
