<svg width="135" height="70" viewBox="0 0 135 70" fill="none" xmlns="http://www.w3.org/2000/svg">
<path d="M56.1992 34.8711C56.0352 34.8711 55.9076 34.8346 55.8164 34.7617C55.8164 34.7617 55.7708 34.7161 55.6797 34.625C55.6068 34.4792 55.388 34.0781 55.0234 33.4219C54.6771 32.7656 54.4219 32.319 54.2578 32.082C53.9115 31.5716 53.7383 31.2435 53.7383 31.0977C53.7383 30.8971 53.8568 30.6055 54.0938 30.2227C54.4583 29.7122 54.7044 29.3021 54.832 28.9922C55.069 28.5547 55.2422 28.2174 55.3516 27.9805C55.4609 27.7253 55.5065 27.5247 55.4883 27.3789C55.4701 27.2878 55.4609 27.1875 55.4609 27.0781C55.4609 27.0052 55.4792 26.9688 55.5156 26.9688C55.5521 26.9505 55.625 26.9596 55.7344 26.9961C55.9167 27.0508 56.1263 27.1784 56.3633 27.3789C56.418 27.4336 56.4818 27.5065 56.5547 27.5977C56.6276 27.6888 56.6732 27.7708 56.6914 27.8438C56.7279 27.8984 56.737 27.9622 56.7188 28.0352C56.7188 28.0898 56.6914 28.1445 56.6367 28.1992L56.5 28.3086C56.3724 28.4727 56.2266 28.6732 56.0625 28.9102C55.8984 29.1471 55.7435 29.3659 55.5977 29.5664L54.9141 30.5508C54.7318 30.806 54.6406 30.9883 54.6406 31.0977C54.6406 31.1523 54.7227 31.2982 54.8867 31.5352L55.4609 32.1641C56.0078 32.7656 56.263 33.0482 56.2266 33.0117C56.5729 33.3581 56.7461 33.6953 56.7461 34.0234C56.7461 34.5885 56.5638 34.8711 56.1992 34.8711ZM59.8086 34.7891C59.6445 34.7891 59.5078 34.7617 59.3984 34.707C59.1979 34.5065 59.0521 34.2695 58.9609 33.9961L58.3867 32.9844L57.8398 32.0273C57.4935 31.5534 57.3203 31.2344 57.3203 31.0703C57.3203 30.8516 57.4388 30.569 57.6758 30.2227L58.1133 29.5938C58.2956 29.2839 58.3958 29.1016 58.4141 29.0469C58.5964 28.6823 58.7513 28.3633 58.8789 28.0898C59.0247 27.7982 59.0885 27.5794 59.0703 27.4336C59.0521 27.3607 59.043 27.2695 59.043 27.1602C59.043 27.0143 59.125 26.9779 59.2891 27.0508C59.526 27.1419 59.7812 27.2878 60.0547 27.4883C60.1823 27.6159 60.2643 27.7253 60.3008 27.8164C60.3555 27.8893 60.3828 27.9896 60.3828 28.1172C60.3828 28.1536 60.319 28.2266 60.1914 28.3359C60.0638 28.4271 59.9544 28.5273 59.8633 28.6367C59.7539 28.7461 59.5078 29.0924 59.125 29.6758C59.0521 29.7852 58.9609 29.9128 58.8516 30.0586C58.7604 30.1862 58.6419 30.3594 58.4961 30.5781C58.3138 30.8151 58.2227 30.9883 58.2227 31.0977C58.2227 31.207 58.332 31.3711 58.5508 31.5898C58.6237 31.6628 58.6966 31.7539 58.7695 31.8633C58.8607 31.9544 58.9701 32.0638 59.0977 32.1914L59.8086 32.9844C60.1549 33.2943 60.3281 33.5951 60.3281 33.8867C60.3281 34.4883 60.1549 34.7891 59.8086 34.7891ZM60.1641 43.8945C59.8906 43.8945 59.6263 43.694 59.3711 43.293C59.043 42.7826 58.724 42.3633 58.4141 42.0352L57.7031 41.2969C57.3203 41.7344 56.9831 42.0807 56.6914 42.3359C56.418 42.5911 56.0716 42.8372 55.6523 43.0742C54.8685 43.5299 54.2122 43.7578 53.6836 43.7578C53.556 43.7578 53.4922 43.7122 53.4922 43.6211C53.4922 43.5664 53.6654 43.4479 54.0117 43.2656C54.3581 43.0833 54.6862 42.8646 54.9961 42.6094C55.7799 41.9531 56.4271 41.2786 56.9375 40.5859C56.8281 40.4766 56.2812 40.0026 55.2969 39.1641C55.1693 39.0729 54.9779 38.918 54.7227 38.6992C54.668 38.6628 54.5586 38.5807 54.3945 38.4531C54.2305 38.3255 54.1484 38.2344 54.1484 38.1797C54.1484 38.0885 54.194 38.043 54.2852 38.043C54.5586 38.043 54.9961 38.2344 55.5977 38.6172C56.1992 38.9818 56.8281 39.4193 57.4844 39.9297C57.7396 39.6198 57.9401 39.3281 58.0859 39.0547C58.2318 38.7812 58.3958 38.444 58.5781 38.043C58.6693 37.8424 58.724 37.6693 58.7422 37.5234C58.7604 37.3594 58.7695 37.2591 58.7695 37.2227C58.7695 37.0221 58.8242 36.9219 58.9336 36.9219C59.0612 36.9219 59.2344 37.0221 59.4531 37.2227C59.8359 37.5872 60.0273 37.8333 60.0273 37.9609C60.0273 38.0339 59.9818 38.1159 59.8906 38.207C59.6719 38.4258 59.4714 38.7174 59.2891 39.082C59.1797 39.3008 58.9792 39.6107 58.6875 40.0117C58.5964 40.1211 58.5234 40.2214 58.4688 40.3125C58.4141 40.4036 58.3594 40.4857 58.3047 40.5586C58.724 40.8685 59.3438 41.3971 60.1641 42.1445C60.3646 42.3268 60.4922 42.5 60.5469 42.6641C60.6198 42.8099 60.6562 43.0104 60.6562 43.2656C60.6562 43.4479 60.6107 43.6029 60.5195 43.7305C60.4284 43.8398 60.3099 43.8945 60.1641 43.8945ZM62.2422 34.2695C62.3333 34.2695 62.4701 34.3333 62.6523 34.4609C62.6341 34.4974 62.6706 34.5703 62.7617 34.6797C62.8529 34.7708 62.9167 34.8346 62.9531 34.8711C63.0443 34.9622 63.1354 35.0716 63.2266 35.1992C63.3359 35.3268 63.4544 35.4635 63.582 35.6094C63.9102 35.9557 64.6667 36.8581 65.8516 38.3164C66.0521 38.6081 66.1523 38.7812 66.1523 38.8359C66.1523 39.0182 66.043 39.1094 65.8242 39.1094C65.6966 39.1094 65.5599 39.0182 65.4141 38.8359C65.0677 38.4714 64.4479 37.8971 63.5547 37.1133C62.862 36.4753 62.2331 35.9831 61.668 35.6367C61.3945 35.5091 61.2578 35.3633 61.2578 35.1992C61.2578 35.0716 61.3945 34.8893 61.668 34.6523C61.9232 34.3971 62.1146 34.2695 62.2422 34.2695ZM42.582 40.668L43.8125 41.6523C44.25 41.9805 44.724 42.2904 45.2344 42.582C45.7266 42.8737 46.2461 43.1198 46.793 43.3203C47.3398 43.5391 47.9141 43.7396 48.5156 43.9219C49.1172 44.0859 49.582 44.2044 49.9102 44.2773L50.6211 44.4688C50.7669 44.5234 50.8398 44.6602 50.8398 44.8789L50.0195 45.1523C49.3268 45.3711 48.6432 45.5352 47.9688 45.6445C47.2943 45.7539 46.8385 45.8086 46.6016 45.8086C46.1823 45.8086 45.8086 45.7357 45.4805 45.5898C45.1523 45.444 44.7148 45.0521 44.168 44.4141L43.2656 43.4297L42.4727 42.3906L41.9258 41.8164C41.5977 42.2539 41.2695 42.6458 40.9414 42.9922C40.5951 43.3385 40.0755 43.694 39.3828 44.0586C38.6719 44.4232 37.9974 44.6966 37.3594 44.8789C36.7031 45.043 36.1654 45.125 35.7461 45.125H35.2266L35.0352 45.043L35.1445 44.8516L35.7461 44.6055C36.1107 44.4961 36.5299 44.332 37.0039 44.1133C37.5143 43.8945 38.0339 43.6029 38.5625 43.2383C39.1094 42.8737 39.5378 42.5 39.8477 42.1172C40.1758 41.7526 40.4128 41.4518 40.5586 41.2148L40.9414 40.668C40.7591 40.4128 40.6224 40.2122 40.5312 40.0664L40.3398 39.7383L39.5469 38.7539C39.2005 38.3529 38.9453 38.0885 38.7812 37.9609C38.6172 37.8516 38.4805 37.7786 38.3711 37.7422L37.8789 37.6328L37.8242 37.2773L38.6172 37.0586H38.918C39.1732 37.1133 39.3828 37.2044 39.5469 37.332C39.7109 37.4779 39.9206 37.6875 40.1758 37.9609L41.4883 39.6289L41.7891 38.8633C41.8802 38.6445 41.9805 38.2891 42.0898 37.7969C42.1992 37.3047 42.2812 36.8216 42.3359 36.3477C42.3906 35.8555 42.4271 35.4544 42.4453 35.1445C42.4635 34.9805 42.4727 34.8346 42.4727 34.707L42.4453 34.4609C42.4271 34.2604 42.3815 34.069 42.3086 33.8867L42.2266 33.4492L41.1875 33.6133C40.9505 33.6862 40.7318 33.7227 40.5312 33.7227L39.4648 33.5586C38.9909 34.1784 38.6081 34.6523 38.3164 34.9805C38.0247 35.3086 37.7331 35.6003 37.4414 35.8555L36.8398 36.0742C36.8398 35.9466 36.9036 35.7917 37.0312 35.6094C37.2682 35.2266 37.5599 34.7253 37.9062 34.1055C38.2526 33.4674 38.5898 32.8021 38.918 32.1094C39.2096 31.4349 39.5104 30.6419 39.8203 29.7305C40.1302 28.819 40.349 28.1081 40.4766 27.5977C40.6042 27.0872 40.6862 26.5768 40.7227 26.0664C40.7409 25.8112 40.7227 25.6016 40.668 25.4375L40.6133 25.1914L40.6406 24.9453C40.7135 24.8177 40.8594 24.7357 41.0781 24.6992L41.6523 25.0273C41.9805 25.2279 42.2083 25.3919 42.3359 25.5195C42.4818 25.6289 42.6185 25.7747 42.7461 25.957L42.9648 26.3125L42.8008 26.832C42.6549 27.0143 42.5182 27.224 42.3906 27.4609L41.9805 28.3633L41.4336 29.7852C41.0326 30.7695 40.7409 31.4076 40.5586 31.6992L39.9023 32.8477C40.5404 32.7018 41.0599 32.5742 41.4609 32.4648C41.8802 32.3555 42.418 32.1914 43.0742 31.9727C43.7669 31.7539 44.3503 31.5534 44.8242 31.3711C45.3164 31.1888 45.6628 31.0885 45.8633 31.0703C46.1549 31.0703 46.4831 31.1523 46.8477 31.3164C47.2305 31.4622 47.513 31.6263 47.6953 31.8086L47.9414 32.1367C47.9232 32.2643 47.8138 32.3646 47.6133 32.4375C47.431 32.5104 47.0846 32.5469 46.5742 32.5469C45.918 32.5469 44.9701 32.6745 43.7305 32.9297L42.9648 33.0938L43.3477 33.2031L43.8398 33.3945C43.9857 33.4857 44.1315 33.6042 44.2773 33.75L44.3867 34.2695C44.2409 34.5247 44.1406 34.7799 44.0859 35.0352L43.8945 35.8555L43.6758 37.25C43.6211 37.5052 43.5117 37.9245 43.3477 38.5078C43.2018 39.1094 43.0742 39.5195 42.9648 39.7383L42.582 40.668ZM33.7773 32.3008L34.9805 31.9727L35.8008 31.7539C36.0195 31.7357 36.2292 31.7721 36.4297 31.8633C36.7214 31.9544 36.931 32.0547 37.0586 32.1641L37.2773 32.4375C37.2773 32.5651 37.2135 32.6745 37.0859 32.7656C36.9766 32.8568 36.776 32.9206 36.4844 32.957L35.3359 33.2305L33.5859 33.5586L32.9844 38.0703C33.4766 37.9792 33.8503 37.9154 34.1055 37.8789C34.3607 37.8242 34.5703 37.7695 34.7344 37.7148C34.8984 37.6784 35.1263 37.5964 35.418 37.4688C35.6003 37.4323 35.7734 37.4596 35.9375 37.5508L36.3203 37.7422C36.4479 37.7969 36.612 37.8971 36.8125 38.043C37.013 38.1706 37.168 38.2891 37.2773 38.3984L37.4414 38.6172C37.4232 38.7266 37.3776 38.8268 37.3047 38.918C37.2318 39.0273 37.1315 39.2096 37.0039 39.4648C36.8945 39.7018 36.8216 39.8932 36.7852 40.0391L36.0469 42.4727C36.375 42.7461 36.5299 42.9648 36.5117 43.1289C36.457 43.2383 36.2383 43.3203 35.8555 43.375C35.4727 43.375 35.1081 43.3932 34.7617 43.4297L33.7773 43.5664L32.3555 43.7305L30.2227 43.9492C30.2227 44.0951 30.2044 44.2409 30.168 44.3867C30.1315 44.5326 30.013 44.6146 29.8125 44.6328C29.6667 44.6328 29.5391 44.5781 29.4297 44.4688C29.3021 44.3411 29.2201 44.1224 29.1836 43.8125L28.9102 41.2969C28.8008 40.4401 28.6823 39.8568 28.5547 39.5469C28.4271 39.2552 28.2812 39.0182 28.1172 38.8359L28.0898 38.4531L28.582 38.3711L29.4844 38.5625L31.6992 38.2891L32.082 33.8047L29.9492 34.0508C29.5846 34.0872 29.2109 34.1055 28.8281 34.1055C28.4453 34.1055 28.0716 34.0508 27.707 33.9414C27.3789 33.8503 27.2148 33.7318 27.2148 33.5859C27.2148 33.4583 27.2878 33.3581 27.4336 33.2852L28.0352 33.2305L28.8008 33.1484C29.7305 33.0573 30.2956 32.9844 30.4961 32.9297L32.1367 32.6289L32.4102 29.1289C32.4284 28.6003 32.4375 28.1719 32.4375 27.8438V27.4336C32.401 27.069 32.3555 26.8229 32.3008 26.6953L32 26.0664L32.0273 25.8477C32.1367 25.7383 32.2826 25.6836 32.4648 25.6836L33.1211 25.8477C33.4128 25.957 33.668 26.0664 33.8867 26.1758C34.0872 26.2852 34.2878 26.4219 34.4883 26.5859L34.8164 26.9414V27.2969C34.7799 27.4062 34.7161 27.543 34.625 27.707C34.5339 27.8893 34.4518 28.0807 34.3789 28.2812C34.306 28.4818 34.2513 28.8008 34.2148 29.2383L33.7773 32.3008ZM30.2227 42.9648L32.2188 42.6641L33.1211 42.4727C33.6862 42.3451 34.1784 42.2539 34.5977 42.1992L35.1445 39.6562C35.1992 39.3828 35.2174 39.1549 35.1992 38.9727C35.181 38.8633 35.0534 38.7357 34.8164 38.5898H34.543C34.2513 38.5898 33.8503 38.6263 33.3398 38.6992L29.9766 39.2461L30.2227 42.9648Z" fill="#333333"/>
<path d="M95.5195 40.5312C95.3919 40.5312 95.3099 40.5221 95.2734 40.5039C95.2552 40.4674 95.2826 40.4036 95.3555 40.3125C95.6107 40.0755 95.8112 39.8477 95.957 39.6289C96.1211 39.3919 96.2943 39.0182 96.4766 38.5078C96.7682 37.6693 96.9141 37.0221 96.9141 36.5664C96.9141 36.1471 96.8867 35.7643 96.832 35.418V35.3359C96.832 35.1354 96.9596 35.0716 97.2148 35.1445C97.4336 35.1992 97.6797 35.2721 97.9531 35.3633C98.0078 35.3451 98.0898 35.3359 98.1992 35.3359C98.3086 35.3177 98.4818 35.2904 98.7188 35.2539C99.3385 35.1628 100.141 35.0716 101.125 34.9805C101.125 34.9076 101.198 34.6523 101.344 34.2148L101.508 33.6133C101.581 33.3581 101.553 33.2305 101.426 33.2305C101.061 33.2305 100.214 33.3216 98.8828 33.5039L97.4336 33.75C97.306 33.7682 97.1419 33.7135 96.9414 33.5859C96.7591 33.4583 96.6133 33.3125 96.5039 33.1484C96.4128 32.9844 96.431 32.875 96.5586 32.8203C96.7044 32.7292 96.8503 32.6836 96.9961 32.6836C97.1419 32.6836 97.2331 32.6836 97.2695 32.6836H97.625L99.4297 32.6289L101.18 32.4102C101.271 32.3919 101.38 32.3646 101.508 32.3281C101.654 32.2734 101.79 32.237 101.918 32.2188C102.1 32.1823 102.41 32.3828 102.848 32.8203C102.921 32.8932 102.957 32.9753 102.957 33.0664C102.957 33.1758 102.884 33.2852 102.738 33.3945C102.538 33.5951 102.41 33.7682 102.355 33.9141C102.337 34.0052 102.301 34.1419 102.246 34.3242C102.191 34.4883 102.137 34.6979 102.082 34.9531C102.191 35.0807 102.246 35.2357 102.246 35.418C102.246 35.5638 102.201 35.6732 102.109 35.7461C102.036 35.8008 101.882 35.8281 101.645 35.8281C100.824 35.8828 100.177 35.9375 99.7031 35.9922C99.2292 36.0286 98.6549 36.1198 97.9805 36.2656C97.9076 37.0859 97.7435 37.8424 97.4883 38.5352C97.2331 39.2096 96.8776 39.7201 96.4219 40.0664C95.9844 40.3763 95.6836 40.5312 95.5195 40.5312ZM104.242 30.168C104.333 30.168 104.47 30.2318 104.652 30.3594C104.634 30.3958 104.671 30.4688 104.762 30.5781C104.853 30.6693 104.917 30.7331 104.953 30.7695C105.044 30.8607 105.135 30.9701 105.227 31.0977C105.336 31.2253 105.454 31.362 105.582 31.5078C105.91 31.8542 106.667 32.7565 107.852 34.2148C108.052 34.5065 108.152 34.6797 108.152 34.7344C108.152 34.9167 108.043 35.0078 107.824 35.0078C107.697 35.0078 107.56 34.9167 107.414 34.7344C107.068 34.3698 106.448 33.7956 105.555 33.0117C104.862 32.3737 104.233 31.8815 103.668 31.5352C103.395 31.4076 103.258 31.2617 103.258 31.0977C103.258 30.9701 103.395 30.7878 103.668 30.5508C103.923 30.2956 104.115 30.168 104.242 30.168ZM79.6875 26.2852C79.6875 25.9388 79.6693 25.6471 79.6328 25.4102C79.5964 25.1732 79.5417 24.918 79.4688 24.6445C79.3958 24.3529 79.2865 24.0703 79.1406 23.7969L78.9766 23.3047C79.0495 23.1406 79.2682 23.0312 79.6328 22.9766C79.9609 23.013 80.2526 23.0677 80.5078 23.1406L81.2188 23.4414C81.474 23.569 81.6745 23.7148 81.8203 23.8789C81.9844 24.0247 82.0755 24.1615 82.0938 24.2891C82.0938 24.4167 82.0573 24.5898 81.9844 24.8086L81.8203 25.2461L81.6016 26.1211L85.5664 25.7109C85.9857 25.6745 86.5234 25.6107 87.1797 25.5195C87.8177 25.4284 88.3555 25.3372 88.793 25.2461C89.2305 25.1732 89.5495 25.1367 89.75 25.1367C90.0417 25.1367 90.388 25.1914 90.7891 25.3008C91.1719 25.4284 91.5091 25.5651 91.8008 25.7109C92.1107 25.8385 92.3112 26.0208 92.4023 26.2578V26.4766C92.3477 26.6042 92.2474 26.6862 92.1016 26.7227C91.9375 26.7773 91.737 26.8047 91.5 26.8047C91.1901 26.7865 90.5703 26.7773 89.6406 26.7773L87.918 26.75L86.168 26.832L84.6094 26.8867L81.4375 27.1602L81.2734 28.9922C82.0391 28.8828 82.7135 28.7826 83.2969 28.6914C83.8802 28.582 84.2904 28.5091 84.5273 28.4727L85.2109 28.3633C85.4297 28.3086 85.5938 28.2721 85.7031 28.2539C85.8854 28.2539 86.1224 28.3177 86.4141 28.4453C86.7057 28.5547 86.9701 28.6732 87.207 28.8008C87.444 28.9466 87.6536 29.0924 87.8359 29.2383C88 29.4023 88.0911 29.5391 88.1094 29.6484C88.1094 29.776 88.0729 29.8945 88 30.0039L87.5078 30.332C87.3984 30.4049 87.2161 30.5872 86.9609 30.8789L86.5508 31.3711L86.168 31.918L86.6602 32.3555C86.6784 32.5378 86.5052 32.6471 86.1406 32.6836L85.3477 32.7109L84.5547 32.793L81.1367 33.1484L81.1094 34.9258L82.6133 34.7891L83.4609 34.6523L84.6367 34.4336C84.9466 34.3971 85.2474 34.3151 85.5391 34.1875L86.0586 33.9961C86.2227 33.9961 86.3867 34.0143 86.5508 34.0508C86.6966 34.0872 86.8698 34.1419 87.0703 34.2148C87.2891 34.306 87.5078 34.4154 87.7266 34.543C87.9453 34.6888 88.1549 34.8529 88.3555 35.0352L88.5742 35.6367L88.082 36.3203L87.7812 36.9766C88.4375 36.8854 88.9844 36.8125 89.4219 36.7578C89.7682 36.7031 90.0872 36.6758 90.3789 36.6758C90.6888 36.7122 90.9531 36.7669 91.1719 36.8398L91.9922 37.168C92.3203 37.3138 92.5482 37.4505 92.6758 37.5781C92.8034 37.7057 92.8672 37.8333 92.8672 37.9609C92.8307 38.0885 92.7396 38.1888 92.5938 38.2617C92.4479 38.3346 92.2656 38.3711 92.0469 38.3711H91.1992L89.5859 38.3164L87.3438 38.2617L86.5781 40.6133L87.0977 40.832C87.2253 40.9049 87.2982 41.0234 87.3164 41.1875C87.3164 41.3333 87.1432 41.4154 86.7969 41.4336L85.7031 41.5156L83.9258 41.5977L81.1367 41.8164L81.2734 44.5508V45.918C81.237 46.3008 81.1732 46.6562 81.082 46.9844C80.9727 47.3125 80.7995 47.6497 80.5625 47.9961C80.3255 48.3242 80.043 48.4974 79.7148 48.5156C79.5872 48.4792 79.4596 48.3971 79.332 48.2695L78.7852 47.5039C78.5117 47.1576 78.2656 46.8659 78.0469 46.6289C77.8281 46.3737 77.5365 46.0911 77.1719 45.7812L76.7891 45.4258L76.707 45.043L76.9805 45.0156L77.582 45.1797C78.2565 45.3802 78.6849 45.4987 78.8672 45.5352C79.0312 45.5352 79.1589 45.4987 79.25 45.4258C79.3594 45.3529 79.4414 45.1523 79.4961 44.8242C79.5508 44.4961 79.5964 44.1315 79.6328 43.7305L79.6875 41.9258L78.0469 42.0898C77.5365 42.1263 77.099 42.181 76.7344 42.2539C76.4609 42.2904 76.224 42.3086 76.0234 42.3086C75.8047 42.3086 75.513 42.263 75.1484 42.1719C74.8021 42.0807 74.5924 41.9805 74.5195 41.8711L74.3828 41.5156C74.4557 41.4245 74.6198 41.3607 74.875 41.3242L79.6875 40.8594L79.7969 38.6719L76.1328 39.1641C75.5495 39.2552 75.0573 39.3281 74.6562 39.3828C74.237 39.4557 73.8086 39.5378 73.3711 39.6289C72.9518 39.7201 72.6419 39.7656 72.4414 39.7656C72.2409 39.7656 72.0495 39.7383 71.8672 39.6836C71.6849 39.6107 71.4661 39.5104 71.2109 39.3828C70.9922 39.2552 70.8099 39.1185 70.6641 38.9727L70.4727 38.6992C70.5091 38.5898 70.6641 38.526 70.9375 38.5078L72.0859 38.4531C72.4505 38.4349 73.0521 38.3984 73.8906 38.3438C74.7474 38.2708 75.5312 38.1979 76.2422 38.125C76.9349 38.0521 77.5911 37.9701 78.2109 37.8789L79.7969 37.6875L79.8516 36.1289L76.7344 36.5664C76.3333 36.6211 75.9779 36.6484 75.668 36.6484C75.3581 36.6302 75.0755 36.5846 74.8203 36.5117C74.5651 36.4023 74.3737 36.2747 74.2461 36.1289L74.1914 35.8008C74.4284 35.7279 74.9115 35.6549 75.6406 35.582L79.7969 35.1172L79.8242 33.2852L77.7188 33.4766L77.0625 33.5312L76.625 33.5859L76.4609 34.0508L76.1875 34.2148C76.0781 34.1966 75.9688 34.1237 75.8594 33.9961C75.7318 33.8503 75.6406 33.6497 75.5859 33.3945L75.1211 31.2891C75.0664 31.0521 75.0026 30.8607 74.9297 30.7148C74.8568 30.569 74.7383 30.4232 74.5742 30.2773C74.4284 30.1315 74.3099 29.9492 74.2188 29.7305L74.3555 29.5391L74.7656 29.5117C75.0391 29.5482 75.2396 29.5846 75.3672 29.6211L76.0234 29.7852L79.8516 29.1836L79.7422 27.2422L76.7891 27.543C76.4974 27.5794 76.0234 27.6523 75.3672 27.7617L74.0547 28.0352C73.362 28.181 72.7969 28.3086 72.3594 28.418C71.9219 28.5273 71.6029 28.582 71.4023 28.582C71.1107 28.582 70.7552 28.4909 70.3359 28.3086C69.8255 28.1263 69.5156 27.9531 69.4062 27.7891L69.2422 27.5156C69.2786 27.3516 69.4062 27.2695 69.625 27.2695L70.7188 27.2422C71.2474 27.224 71.9401 27.1602 72.7969 27.0508L74.6016 26.832L77.3359 26.5312L79.6875 26.2852ZM79.8516 32.3281L79.8242 30.0586C78.8945 30.2044 78.2018 30.3229 77.7461 30.4141C77.2904 30.5052 76.9531 30.5872 76.7344 30.6602L76.2695 30.7695L76.5156 32.6289L79.8516 32.3281ZM81.1641 40.6953C81.7656 40.6406 82.2214 40.5951 82.5312 40.5586L83.9531 40.3672L85.0469 40.2852L85.5938 38.3438L81.1094 38.5898L81.1641 40.6953ZM81.1094 37.5781L85.8672 37.2227C85.9401 36.931 85.9948 36.6576 86.0312 36.4023C86.0312 36.1471 85.9766 35.9466 85.8672 35.8008C85.7214 35.6914 85.5117 35.6185 85.2383 35.582C85.0378 35.5638 84.8464 35.5729 84.6641 35.6094C84.3359 35.6641 83.9805 35.7096 83.5977 35.7461C83.2148 35.7826 82.8503 35.819 82.5039 35.8555L81.1641 36.0469L81.1094 37.5781ZM81.1641 32.1914C81.7656 32.1185 82.2943 32.0456 82.75 31.9727C83.2057 31.918 83.5521 31.8633 83.7891 31.8086L84.8281 31.6445L85.1016 30.4688L85.1562 30.1133L85.1289 29.8672C85.0742 29.7396 84.974 29.6576 84.8281 29.6211C84.7188 29.5846 84.5 29.5664 84.1719 29.5664L83.5156 29.6211L81.2188 29.8398L81.1641 32.1914Z" fill="#333333"/>
</svg>
