<svg width="135" height="70" viewBox="0 0 135 70" fill="none" xmlns="http://www.w3.org/2000/svg">
<path d="M59.3164 31.7541C59.1888 31.7541 59.0521 31.672 58.9062 31.508C58.7969 31.3804 58.724 31.2801 58.6875 31.2072C58.651 31.116 58.651 30.9976 58.6875 30.8517L58.7148 30.1955C58.7331 30.0679 58.7422 29.758 58.7422 29.2658V28.3634L57.9219 28.7463L56.9648 29.1564C56.7279 29.2476 56.4818 29.3569 56.2266 29.4845C56.0078 29.5939 55.8164 29.6486 55.6523 29.6486C55.5247 29.6304 55.3789 29.5848 55.2148 29.5119C55.0508 29.439 54.9232 29.3752 54.832 29.3205C54.6315 29.1929 54.5404 29.0562 54.5586 28.9103L54.6406 28.6369C54.6406 28.491 54.6497 28.3634 54.668 28.2541L54.6953 26.6681V25.1916C54.6953 24.8999 54.6771 24.6538 54.6406 24.4533C54.6042 24.2345 54.5768 24.0796 54.5586 23.9884C54.5586 23.8973 54.5859 23.8335 54.6406 23.797C54.6589 23.7788 54.7044 23.7697 54.7773 23.7697C54.9049 23.7697 55.151 23.8517 55.5156 24.0158C55.8255 24.1616 55.9531 24.3439 55.8984 24.5627C55.862 24.6903 55.8255 24.8817 55.7891 25.1369L55.707 28.2814C55.707 28.3726 55.7161 28.4455 55.7344 28.5002C55.7708 28.5366 55.8073 28.5549 55.8438 28.5549C56.0625 28.5549 56.3268 28.491 56.6367 28.3634C57.2201 28.1812 57.7214 27.9989 58.1406 27.8166L58.7422 27.5705V25.7658C58.7422 25.0366 58.6966 24.3348 58.6055 23.6603C58.5872 23.6056 58.5781 23.5418 58.5781 23.4689C58.5781 23.2866 58.651 23.1955 58.7969 23.1955C58.8151 23.1955 58.9154 23.2319 59.0977 23.3049C59.3711 23.4507 59.5716 23.5783 59.6992 23.6877C59.8268 23.797 59.8997 23.8608 59.918 23.8791C59.9909 23.9338 60.0273 23.9884 60.0273 24.0431C60.0273 24.0796 60.0091 24.1252 59.9727 24.1799C59.9544 24.2345 59.9362 24.2801 59.918 24.3166L59.8359 25.1369L59.8086 27.6525L59.8359 30.0861C59.8359 30.5054 59.8086 30.87 59.7539 31.1799C59.6628 31.5627 59.5169 31.7541 59.3164 31.7541ZM54.2852 36.2384C54.0846 36.2384 53.8385 36.0835 53.5469 35.7736C53.3281 35.5549 53.2188 35.3908 53.2188 35.2814C53.2188 35.2267 53.2552 35.1994 53.3281 35.1994C53.401 35.1812 53.4922 35.172 53.6016 35.172L54.2031 35.1447C54.5495 35.1447 54.7773 35.1356 54.8867 35.1174C55.2331 35.1174 55.5247 35.1082 55.7617 35.09C57.3294 34.9442 58.3867 34.8257 58.9336 34.7345C59.207 34.6981 59.4531 34.6616 59.6719 34.6252C59.8906 34.5705 60.0638 34.5431 60.1914 34.5431C60.4466 34.5431 60.7018 34.6707 60.957 34.9259C61.1576 35.1265 61.2578 35.2905 61.2578 35.4181C61.2578 35.5275 61.194 35.6004 61.0664 35.6369C60.9753 35.6551 60.4375 35.6916 59.4531 35.7463C58.9062 35.7645 58.2318 35.8101 57.4297 35.883C56.6276 35.9559 55.9258 36.0288 55.3242 36.1017C55.2148 36.12 55.0599 36.1473 54.8594 36.1838C54.6589 36.2202 54.4674 36.2384 54.2852 36.2384ZM58.3594 42.3361C58.1771 42.5731 57.9857 42.6916 57.7852 42.6916C57.7305 42.6916 57.7031 42.646 57.7031 42.5548C57.7031 42.4272 57.7396 42.2814 57.8125 42.1173C57.8125 42.1173 57.9948 41.7528 58.3594 41.0236C58.3776 40.9507 58.4049 40.8778 58.4414 40.8048C58.4779 40.7319 58.5052 40.6681 58.5234 40.6134V40.5861C58.5234 40.5496 58.4961 40.5132 58.4414 40.4767C58.3867 40.4403 58.3229 40.4312 58.25 40.4494C57.9583 40.4676 57.5208 40.5132 56.9375 40.5861C56.3724 40.659 55.9531 40.7319 55.6797 40.8048C55.5703 40.8413 55.4336 40.8869 55.2695 40.9416C55.1237 40.9963 55.0052 41.0236 54.9141 41.0236C54.5859 41.0236 54.3125 40.9233 54.0938 40.7228C53.9115 40.5952 53.7747 40.4676 53.6836 40.34L53.6289 40.2033C53.6289 40.1121 53.7839 40.0848 54.0938 40.1213C54.513 40.1577 55.3789 40.103 56.6914 39.9572L57.2383 39.8752C57.3841 39.8569 57.612 39.8296 57.9219 39.7931C58.25 39.7384 58.5052 39.6838 58.6875 39.6291C58.7422 39.6108 58.7969 39.5926 58.8516 39.5744C58.9245 39.5379 58.9883 39.5197 59.043 39.5197C59.1341 39.5197 59.2435 39.5653 59.3711 39.6564C59.5169 39.7476 59.6354 39.8296 59.7266 39.9025C59.8542 39.9937 59.9362 40.0757 59.9727 40.1486C60.0273 40.2033 60.0456 40.2762 60.0273 40.3673C60.0273 40.4585 59.9818 40.5405 59.8906 40.6134C59.7995 40.6864 59.7357 40.741 59.6992 40.7775C59.6628 40.8322 59.5352 40.9689 59.3164 41.1877C59.2253 41.3335 59.0612 41.534 58.8242 41.7892C58.6055 42.0444 58.4505 42.2267 58.3594 42.3361ZM56.9922 47.7228C56.9922 47.6681 57.0833 47.5223 57.2656 47.2853C57.4661 47.0666 57.6211 46.8934 57.7305 46.7658C58.0039 46.4012 58.332 45.8726 58.7148 45.1798C59.1159 44.4871 59.3438 44.0314 59.3984 43.8127C59.4349 43.7033 59.3802 43.6486 59.2344 43.6486C58.9427 43.6486 58.1406 43.7306 56.8281 43.8947C55.9714 44.0041 55.3333 44.1134 54.9141 44.2228C54.8229 44.2775 54.7318 44.3048 54.6406 44.3048C54.4948 44.3048 54.3398 44.2046 54.1758 44.0041C54.1029 43.8765 54.0664 43.758 54.0664 43.6486C54.0664 43.5757 54.112 43.5028 54.2031 43.4298L54.2852 43.3205C54.3398 43.2111 54.4036 43.0653 54.4766 42.883C54.5495 42.7007 54.6133 42.5275 54.668 42.3634C54.7591 42.0718 54.8229 41.7528 54.8594 41.4064C54.8776 41.2059 54.987 41.1512 55.1875 41.2423C55.4427 41.37 55.6341 41.4976 55.7617 41.6252C55.9076 41.7345 55.9531 41.8166 55.8984 41.8713C55.7161 42.09 55.5703 42.3361 55.4609 42.6095C55.3698 42.9012 55.3151 43.0926 55.2969 43.1838C55.2969 43.2567 55.3424 43.2931 55.4336 43.2931C55.707 43.2931 56.1172 43.2476 56.6641 43.1564C56.974 43.12 57.3568 43.0744 57.8125 43.0197C58.2682 42.965 58.6328 42.9103 58.9062 42.8556L59.5898 42.7189C59.6445 42.7007 59.7174 42.6916 59.8086 42.6916C59.8997 42.6916 59.9909 42.728 60.082 42.8009C60.1732 42.8556 60.2734 42.9285 60.3828 43.0197C60.5651 43.1838 60.6836 43.3205 60.7383 43.4298C60.793 43.521 60.8203 43.6304 60.8203 43.758C60.8203 43.8309 60.7656 43.922 60.6562 44.0314C60.5651 44.1408 60.4557 44.314 60.3281 44.5509C59.7995 45.6265 59.1159 46.5288 58.2773 47.258C58.0404 47.4403 57.776 47.5952 57.4844 47.7228C57.3568 47.7593 57.2383 47.7775 57.1289 47.7775C57.0378 47.7957 56.9922 47.7775 56.9922 47.7228ZM65.8516 36.8947C65.9062 36.8947 65.9609 36.922 66.0156 36.9767C66.0703 37.0132 66.1068 37.0679 66.125 37.1408V37.1955C66.125 37.3231 66.0247 37.5692 65.8242 37.9338L63.8555 41.3517C63.7096 41.6616 63.5182 41.8166 63.2812 41.8166C63.0443 41.8166 62.8438 41.6707 62.6797 41.3791C62.5156 41.1421 62.3151 40.7866 62.0781 40.3127C61.9688 40.1486 61.8776 39.9845 61.8047 39.8205C61.7318 39.6564 61.6771 39.5379 61.6406 39.465C61.4401 39.1187 61.3398 38.8726 61.3398 38.7267C61.3398 38.6538 61.3672 38.5991 61.4219 38.5627C61.4766 38.508 61.5312 38.4806 61.5859 38.4806C61.7865 38.4806 61.9688 38.59 62.1328 38.8088C62.2604 38.9364 62.3607 39.0731 62.4336 39.2189L62.7344 39.6291L63.2812 40.258L63.5273 39.8752C63.7826 39.4377 64.3841 38.5718 65.332 37.2775C65.5326 37.0223 65.7057 36.8947 65.8516 36.8947ZM34.2969 26.3947C34.6068 26.3582 34.8438 26.3127 35.0078 26.258C35.1536 26.2215 35.4909 26.1213 36.0195 25.9572L36.8672 25.6838C37.1589 25.5744 37.4232 25.5106 37.6602 25.4924H37.9062C38.0703 25.5106 38.2435 25.5653 38.4258 25.6564C38.5898 25.7293 38.7266 25.8114 38.8359 25.9025C38.9453 25.9754 38.9818 26.1121 38.9453 26.3127C38.7995 26.4038 38.599 26.4858 38.3438 26.5588L37.1406 26.8322C36.9948 26.8687 36.6667 26.9142 36.1562 26.9689L35.1719 27.0783H34.8438L33.9414 26.9142L33.668 27.3791C33.4857 27.5978 33.349 27.7528 33.2578 27.8439L32.5469 28.7463C32.401 28.9285 32.2279 29.1291 32.0273 29.3478C31.8268 29.5483 31.5443 29.7944 31.1797 30.0861C30.8151 30.3595 30.5143 30.5692 30.2773 30.715L29.7031 31.0431L29.3477 30.8244L29.8672 30.2502C30.1589 29.9585 30.4049 29.6942 30.6055 29.4572C30.806 29.2384 31.0794 28.8739 31.4258 28.3634C31.7721 27.853 32.0456 27.3973 32.2461 26.9963C32.4648 26.6317 32.6471 26.2762 32.793 25.9299C32.957 25.6017 33.0664 25.3192 33.1211 25.0822C33.1758 24.8999 33.2031 24.6812 33.2031 24.4259L33.2305 23.9064C33.3216 23.8153 33.4401 23.7606 33.5859 23.7424C33.7318 23.7424 33.9505 23.8062 34.2422 23.9338L34.6797 24.1525L35.1445 24.4806L35.4453 24.7814L35.2812 25.1642C35.099 25.3283 34.9622 25.4832 34.8711 25.6291L34.4609 26.2033L34.2969 26.3947ZM42.5 25.3283L42.9922 25.2463L43.7031 25.0822L44.7969 24.8634L45.6172 24.6447C45.9635 24.5718 46.2643 24.4989 46.5195 24.4259C46.7747 24.353 46.9844 24.3075 47.1484 24.2892C47.3672 24.2892 47.5768 24.3075 47.7773 24.3439C48.0508 24.3986 48.2878 24.4897 48.4883 24.6174L48.7891 24.8908C48.7891 25.0184 48.707 25.1278 48.543 25.2189L47.9688 25.3556L46.8203 25.5744C46.4557 25.6473 45.9909 25.7111 45.4258 25.7658C44.8607 25.8205 44.4141 25.8752 44.0859 25.9299C43.849 25.9663 43.6211 25.9845 43.4023 25.9845C43.1289 25.9663 42.9284 25.939 42.8008 25.9025L42.1992 25.8752L41.9531 26.2306C41.8802 26.34 41.7708 26.5132 41.625 26.7502L41.2148 27.3791C41.0872 27.5614 40.8594 27.8348 40.5312 28.1994L39.7109 29.047C39.474 29.284 39.2643 29.4572 39.082 29.5666L38.6719 29.84L38.207 29.8674C38.1888 29.758 38.2435 29.6395 38.3711 29.5119L38.6992 29.1291C38.8268 28.9832 38.9909 28.7645 39.1914 28.4728L39.7656 27.4884C39.9844 27.1603 40.1758 26.8322 40.3398 26.5041C40.5039 26.1759 40.6589 25.8296 40.8047 25.465C40.9688 25.0822 41.0781 24.7814 41.1328 24.5627C41.2057 24.3621 41.2513 24.1434 41.2695 23.9064L41.2969 23.4689L41.543 22.8947C41.6706 22.8582 41.8255 22.8765 42.0078 22.9494L42.5547 23.2228L42.9375 23.5236L43.3203 23.8791L43.3477 24.2619L43.1016 24.5353L42.8281 24.7814L42.5 25.3283ZM32.3008 31.8634L34.2969 31.5353L34.8711 31.4259C35.2174 31.353 35.4635 31.2801 35.6094 31.2072L35.8555 31.1525C36.0013 31.1343 36.1654 31.1799 36.3477 31.2892C36.5117 31.3804 36.6667 31.4715 36.8125 31.5627C36.9401 31.6538 37.0495 31.745 37.1406 31.8361L37.2227 32.3009C37.0951 32.5197 36.9948 32.7567 36.9219 33.0119L36.7578 33.5588L36.2656 35.9377L36.0469 37.0861C35.974 37.3231 35.8737 37.5054 35.7461 37.633L35.5 37.7424L35.2266 37.4142L32.3281 37.7697L32 43.9494C31.9271 44.9702 31.8724 45.6265 31.8359 45.9181C31.7995 46.2098 31.7083 46.5379 31.5625 46.9025C31.4531 47.2489 31.3073 47.4403 31.125 47.4767C30.9609 47.4767 30.7786 47.3582 30.5781 47.1213C30.4688 46.9754 30.3503 46.7202 30.2227 46.3556C30.0951 45.991 30.0039 45.6903 29.9492 45.4533C29.9492 45.2892 29.9583 45.1434 29.9766 45.0158L30.25 44.3322C30.4141 43.8765 30.5417 43.4207 30.6328 42.965L30.8789 41.4064C30.9701 40.8413 31.0339 40.3218 31.0703 39.8478C31.1068 39.3556 31.1432 38.6447 31.1797 37.715L31.2617 35.5002L31.2344 34.6525C31.2161 34.1421 31.1979 33.814 31.1797 33.6681C31.1615 33.5223 31.1159 33.2944 31.043 32.9845C30.9701 32.6746 30.8789 32.4377 30.7695 32.2736L30.6055 31.9181L30.6602 31.6994C30.7513 31.6265 30.9245 31.5991 31.1797 31.6174L31.9453 31.6994L32.3008 31.8634ZM32.3828 36.8674C32.7474 36.8309 33.112 36.7762 33.4766 36.7033L34.0234 36.6213L34.2969 36.5666L34.5156 36.5939L35.1445 36.7306L35.418 34.6525C35.181 34.7254 34.944 34.7801 34.707 34.8166C34.4701 34.8713 34.1693 34.9259 33.8047 34.9806C33.4401 35.0535 33.1758 35.09 33.0117 35.09H32.4375L32.3828 36.8674ZM32.4648 34.4338L33.3672 34.2424C33.6042 34.1877 33.8411 34.1239 34.0781 34.0509L34.5703 33.9416C34.7708 33.9233 34.9531 33.9416 35.1172 33.9963L35.5 34.133C35.5365 33.6226 35.5729 33.2489 35.6094 33.0119L35.6641 32.7384L35.6367 32.4377C35.582 32.2189 35.4727 32.1095 35.3086 32.1095L32.5469 32.4103L32.4648 34.4338ZM36.4844 38.8634L37.6328 38.6994C37.9974 38.6265 38.3346 38.5535 38.6445 38.4806L39.2461 38.3166C39.5195 38.2437 39.7383 38.1616 39.9023 38.0705L40.2578 37.9338C40.4036 37.9338 40.5404 37.9702 40.668 38.0431C40.832 38.1343 40.987 38.2254 41.1328 38.3166C41.2786 38.4077 41.4062 38.4989 41.5156 38.59C41.625 38.6629 41.7161 38.745 41.7891 38.8361L41.8438 39.1642L41.5977 39.6017L41.5703 39.9845L41.543 40.5041L41.5703 42.6369C41.5703 43.0926 41.5521 43.4937 41.5156 43.84C41.4792 44.1681 41.4245 44.4325 41.3516 44.633C41.2604 44.8335 41.0964 45.0614 40.8594 45.3166L40.3945 45.6173C40.2669 45.5991 40.1667 45.5171 40.0938 45.3713L39.957 45.0158C39.9023 44.8153 39.8477 44.6421 39.793 44.4963L39.6016 44.0041L36.6211 44.2228C36.5664 44.4416 36.5026 44.6421 36.4297 44.8244C36.3568 44.9884 36.2109 45.0705 35.9922 45.0705C35.8828 45.0158 35.7734 44.8791 35.6641 44.6603L35.5 44.2502L35.6094 42.5548L35.5547 40.8595C35.5547 40.6955 35.5365 40.4767 35.5 40.2033C35.4818 39.9481 35.4544 39.7476 35.418 39.6017C35.3815 39.4377 35.3177 39.2645 35.2266 39.0822L35.1445 38.8088L35.2812 38.6447L35.582 38.6174C35.819 38.6538 35.9922 38.6903 36.1016 38.7267L36.4844 38.8634ZM40.4492 41.2697C39.9935 41.3791 39.556 41.4793 39.1367 41.5705C38.7357 41.6616 38.4076 41.7254 38.1523 41.7619C37.8971 41.7983 37.6693 41.8166 37.4688 41.8166L36.7031 41.7619L36.6484 43.5119C36.9036 43.4754 37.1042 43.439 37.25 43.4025L38.4531 43.2384C38.7995 43.1838 39.0456 43.1564 39.1914 43.1564C39.319 43.1746 39.4831 43.202 39.6836 43.2384L40.2031 43.4025C40.276 43.1108 40.3307 42.8647 40.3672 42.6642C40.4036 42.4637 40.4219 42.2358 40.4219 41.9806L40.4492 41.2697ZM36.7305 41.215C37.0768 41.1603 37.3776 41.1056 37.6328 41.0509C37.9062 40.9963 38.207 40.9233 38.5352 40.8322C38.8633 40.7228 39.0911 40.6681 39.2188 40.6681C39.4193 40.6681 39.6562 40.7046 39.9297 40.7775L40.4492 40.9416C40.4492 40.3582 40.4401 39.9298 40.4219 39.6564L40.3125 39.1916C40.2031 39.0822 39.9844 39.0275 39.6562 39.0275C39.3281 39.0457 39.0547 39.064 38.8359 39.0822C38.6172 39.1004 38.3711 39.1369 38.0977 39.1916C37.8242 39.228 37.5964 39.2736 37.4141 39.3283L36.7578 39.4923L36.7305 41.215ZM46.3555 36.2931C45.4987 36.4025 44.8516 36.4754 44.4141 36.5119L43.0469 36.6759L41.8984 36.7853L41.3789 37.0861C41.2331 37.0314 41.1146 36.8947 41.0234 36.6759C40.9505 36.4754 40.8958 36.2749 40.8594 36.0744C40.8594 35.8739 40.8776 35.6369 40.9141 35.3634C40.9505 35.0171 40.9688 34.7528 40.9688 34.5705L40.8594 32.3556C40.8229 32.1369 40.7865 31.9364 40.75 31.7541C40.7135 31.5718 40.6224 31.3804 40.4766 31.1799L40.2578 30.797L40.3945 30.4963H40.6133L41.3516 30.5783L41.8438 30.7424L42.9648 30.5236C43.3477 30.4507 43.7031 30.3778 44.0312 30.3049C44.3594 30.2137 44.7057 30.1226 45.0703 30.0314C45.3984 29.9403 45.6719 29.84 45.8906 29.7306C46.1094 29.6395 46.2734 29.5848 46.3828 29.5666C46.5286 29.5666 46.6927 29.6121 46.875 29.7033C47.0938 29.7944 47.3672 29.9403 47.6953 30.1408C48.0417 30.3413 48.2786 30.4963 48.4062 30.6056L48.625 30.8517C48.625 30.9793 48.5977 31.0978 48.543 31.2072L48.2422 31.7267C48.1146 31.9637 48.0234 32.2098 47.9688 32.465C47.9323 32.7202 47.8958 33.0483 47.8594 33.4494V34.4338L47.9141 41.2697L47.9961 43.3205C47.9961 43.6668 47.987 44.077 47.9688 44.5509C47.9323 45.1707 47.8958 45.6538 47.8594 46.0002C47.7865 46.3465 47.6771 46.7567 47.5312 47.2306C47.3672 47.7046 47.112 48.0601 46.7656 48.297C46.4557 48.4976 46.1914 48.5978 45.9727 48.5978C45.8086 48.5614 45.599 48.3973 45.3438 48.1056C45.125 47.814 44.806 47.4312 44.3867 46.9572C43.9674 46.5197 43.7122 46.2463 43.6211 46.1369L43.2383 45.3166L44.0312 45.5627L44.6875 45.7814C44.9792 45.8908 45.2344 45.9455 45.4531 45.9455C45.6536 45.8726 45.7995 45.6994 45.8906 45.4259C45.9635 45.1707 46.0091 44.9338 46.0273 44.715L46.1641 43.2658C46.237 42.4819 46.2734 41.8895 46.2734 41.4884L46.3555 36.2931ZM46.3281 33.0119C46.2917 32.6473 46.2734 32.4012 46.2734 32.2736V31.59L46.2188 31.2345C46.0911 31.1069 45.8633 31.0158 45.5352 30.9611C45.3711 30.9429 45.2344 30.9429 45.125 30.9611C44.9062 30.9793 44.6784 31.0158 44.4414 31.0705L42.0898 31.59L42.1172 33.4767C42.3724 33.422 42.5729 33.3765 42.7188 33.34L43.375 33.2033C43.7031 33.1486 44.013 33.0757 44.3047 32.9845L44.8789 32.8478C45.0794 32.8478 45.3438 32.866 45.6719 32.9025L46.3281 33.0119ZM42.1445 35.8556C43.0013 35.7827 43.7396 35.6916 44.3594 35.5822C44.9609 35.4728 45.3255 35.4181 45.4531 35.4181L46.3281 35.4455V33.4494C45.9635 33.5223 45.6354 33.5952 45.3438 33.6681C45.0521 33.741 44.6237 33.8322 44.0586 33.9416C43.4935 34.0509 43.138 34.1056 42.9922 34.1056L42.1172 34.0509L42.1445 35.8556ZM34.1328 28.0353C34.3151 28.0171 34.4792 28.0262 34.625 28.0627L35.1445 28.172C35.2904 28.2085 35.4544 28.2632 35.6367 28.3361C35.819 28.3908 35.9831 28.4819 36.1289 28.6095L36.375 28.883C36.4661 29.0106 36.5117 29.1564 36.5117 29.3205C36.4935 29.5939 36.4297 29.8035 36.3203 29.9494C36.1927 30.077 36.056 30.1499 35.9102 30.1681C35.7461 30.1681 35.5547 30.077 35.3359 29.8947C35.1172 29.7124 34.8984 29.4937 34.6797 29.2384L34.1328 28.5822L33.9688 28.3908C33.9323 28.2632 33.987 28.1447 34.1328 28.0353ZM43.1562 26.8322L43.7578 26.9416C44.013 26.978 44.3503 27.0692 44.7695 27.215C45.1888 27.3608 45.4622 27.4976 45.5898 27.6252C45.7174 27.7528 45.7995 27.9624 45.8359 28.2541C45.8359 28.564 45.7721 28.8009 45.6445 28.965C45.5352 29.0744 45.3802 29.1291 45.1797 29.1291C45.0339 29.1291 44.8242 29.0379 44.5508 28.8556C44.2773 28.6733 44.0951 28.5275 44.0039 28.4181L43.4297 27.8166L42.9375 27.2697L42.8008 26.9963C42.8555 26.8869 42.9466 26.8322 43.0742 26.8322H43.1562Z" fill="#333333"/>
<path d="M101.316 31.7541C101.189 31.7541 101.052 31.672 100.906 31.508C100.797 31.3804 100.724 31.2801 100.688 31.2072C100.651 31.116 100.651 30.9976 100.688 30.8517L100.715 30.1955C100.733 30.0679 100.742 29.758 100.742 29.2658V28.3634L99.9219 28.7463L98.9648 29.1564C98.7279 29.2476 98.4818 29.3569 98.2266 29.4845C98.0078 29.5939 97.8164 29.6486 97.6523 29.6486C97.5247 29.6304 97.3789 29.5848 97.2148 29.5119C97.0508 29.439 96.9232 29.3752 96.832 29.3205C96.6315 29.1929 96.5404 29.0562 96.5586 28.9103L96.6406 28.6369C96.6406 28.491 96.6497 28.3634 96.668 28.2541L96.6953 26.6681V25.1916C96.6953 24.8999 96.6771 24.6538 96.6406 24.4533C96.6042 24.2345 96.5768 24.0796 96.5586 23.9884C96.5586 23.8973 96.5859 23.8335 96.6406 23.797C96.6589 23.7788 96.7044 23.7697 96.7773 23.7697C96.9049 23.7697 97.151 23.8517 97.5156 24.0158C97.8255 24.1616 97.9531 24.3439 97.8984 24.5627C97.862 24.6903 97.8255 24.8817 97.7891 25.1369L97.707 28.2814C97.707 28.3726 97.7161 28.4455 97.7344 28.5002C97.7708 28.5366 97.8073 28.5549 97.8438 28.5549C98.0625 28.5549 98.3268 28.491 98.6367 28.3634C99.2201 28.1812 99.7214 27.9989 100.141 27.8166L100.742 27.5705V25.7658C100.742 25.0366 100.697 24.3348 100.605 23.6603C100.587 23.6056 100.578 23.5418 100.578 23.4689C100.578 23.2866 100.651 23.1955 100.797 23.1955C100.815 23.1955 100.915 23.2319 101.098 23.3049C101.371 23.4507 101.572 23.5783 101.699 23.6877C101.827 23.797 101.9 23.8608 101.918 23.8791C101.991 23.9338 102.027 23.9884 102.027 24.0431C102.027 24.0796 102.009 24.1252 101.973 24.1799C101.954 24.2345 101.936 24.2801 101.918 24.3166L101.836 25.1369L101.809 27.6525L101.836 30.0861C101.836 30.5054 101.809 30.87 101.754 31.1799C101.663 31.5627 101.517 31.7541 101.316 31.7541ZM96.2852 36.2384C96.0846 36.2384 95.8385 36.0835 95.5469 35.7736C95.3281 35.5549 95.2188 35.3908 95.2188 35.2814C95.2188 35.2267 95.2552 35.1994 95.3281 35.1994C95.401 35.1812 95.4922 35.172 95.6016 35.172L96.2031 35.1447C96.5495 35.1447 96.7773 35.1356 96.8867 35.1174C97.2331 35.1174 97.5247 35.1082 97.7617 35.09C99.3294 34.9442 100.387 34.8257 100.934 34.7345C101.207 34.6981 101.453 34.6616 101.672 34.6252C101.891 34.5705 102.064 34.5431 102.191 34.5431C102.447 34.5431 102.702 34.6707 102.957 34.9259C103.158 35.1265 103.258 35.2905 103.258 35.4181C103.258 35.5275 103.194 35.6004 103.066 35.6369C102.975 35.6551 102.438 35.6916 101.453 35.7463C100.906 35.7645 100.232 35.8101 99.4297 35.883C98.6276 35.9559 97.9258 36.0288 97.3242 36.1017C97.2148 36.12 97.0599 36.1473 96.8594 36.1838C96.6589 36.2202 96.4674 36.2384 96.2852 36.2384ZM99.9492 47.5314C99.3841 47.5314 98.9466 47.5132 98.6367 47.4767C98.3451 47.4403 98.099 47.3309 97.8984 47.1486C97.5521 46.8934 97.3151 46.3374 97.1875 45.4806L97.1055 44.6056C97.1055 44.3869 97.0872 44.1134 97.0508 43.7853C96.7591 43.8218 96.5495 43.8582 96.4219 43.8947C96.3854 43.9129 96.3216 43.9403 96.2305 43.9767C96.1576 43.995 96.1029 44.0041 96.0664 44.0041C95.9388 44.0041 95.8203 43.9676 95.7109 43.8947C95.6016 43.8218 95.4648 43.6851 95.3008 43.4845C95.1732 43.3205 95.1094 43.2111 95.1094 43.1564C95.1094 43.1017 95.1732 43.0653 95.3008 43.047C95.4284 43.0288 95.6016 43.0197 95.8203 43.0197C96.1302 43.0197 96.5312 42.9832 97.0234 42.9103L96.9961 42.5275C96.9961 41.7983 96.9505 41.1785 96.8594 40.6681L96.832 40.4767C96.832 40.2215 96.9323 40.1213 97.1328 40.1759C97.3516 40.2489 97.5521 40.34 97.7344 40.4494C97.8802 40.5223 97.9805 40.5952 98.0352 40.6681C98.0898 40.7228 98.1081 40.8048 98.0898 40.9142L98.0078 42.09V42.8009L100.414 42.5548C100.414 42.4272 100.423 42.1265 100.441 41.6525C100.46 41.1603 100.46 40.8413 100.441 40.6955C100.441 40.5496 100.423 40.4129 100.387 40.2853C100.368 40.1395 100.35 40.021 100.332 39.9298C100.332 39.784 100.405 39.7111 100.551 39.7111C100.697 39.7111 100.879 39.7931 101.098 39.9572C101.353 40.1213 101.517 40.2671 101.59 40.3947C101.681 40.5223 101.699 40.6772 101.645 40.8595C101.553 41.1512 101.49 41.4793 101.453 41.8439C101.417 42.2085 101.398 42.4272 101.398 42.5002C101.617 42.4819 101.818 42.4546 102 42.4181C102.182 42.3817 102.301 42.3634 102.355 42.3634C102.501 42.327 102.674 42.3088 102.875 42.3088C102.984 42.327 103.139 42.4364 103.34 42.6369C103.504 42.8556 103.586 43.0288 103.586 43.1564C103.586 43.3387 103.413 43.4116 103.066 43.3752C102.757 43.3205 102.447 43.2931 102.137 43.2931C101.827 43.2931 101.562 43.3022 101.344 43.3205C101.289 43.9767 101.18 44.6239 101.016 45.2619C100.979 45.4077 100.915 45.5353 100.824 45.6447C100.733 45.7358 100.651 45.7814 100.578 45.7814C100.451 45.7814 100.368 45.7358 100.332 45.6447C100.314 45.5353 100.305 45.3713 100.305 45.1525C100.341 44.6785 100.359 44.0861 100.359 43.3752C99.8672 43.4116 99.4844 43.4481 99.2109 43.4845C98.7917 43.5757 98.3997 43.6304 98.0352 43.6486C98.0169 44.396 98.0534 45.0614 98.1445 45.6447C98.1992 46.0275 98.3086 46.2918 98.4727 46.4377C98.582 46.5288 98.7096 46.5835 98.8555 46.6017C99.0195 46.62 99.1836 46.6291 99.3477 46.6291C99.5117 46.6291 99.6211 46.6291 99.6758 46.6291C100.241 46.6291 100.77 46.6017 101.262 46.547C101.408 46.5288 101.535 46.4923 101.645 46.4377C101.772 46.383 101.863 46.3556 101.918 46.3556C102.082 46.3556 102.246 46.4103 102.41 46.5197C102.574 46.6291 102.656 46.7567 102.656 46.9025C102.656 47.0483 102.574 47.1577 102.41 47.2306C102.264 47.3035 102.027 47.3673 101.699 47.422C101.116 47.495 100.533 47.5314 99.9492 47.5314ZM104.242 37.2775C104.333 37.2775 104.47 37.3413 104.652 37.4689C104.634 37.5054 104.671 37.5783 104.762 37.6877C104.853 37.7788 104.917 37.8426 104.953 37.8791C105.044 37.9702 105.135 38.0796 105.227 38.2072C105.336 38.3348 105.454 38.4715 105.582 38.6174C105.91 38.9637 106.667 39.866 107.852 41.3244C108.052 41.616 108.152 41.7892 108.152 41.8439C108.152 42.0262 108.043 42.1173 107.824 42.1173C107.697 42.1173 107.56 42.0262 107.414 41.8439C107.068 41.4793 106.448 40.9051 105.555 40.1213C104.862 39.4832 104.233 38.991 103.668 38.6447C103.395 38.5171 103.258 38.3713 103.258 38.2072C103.258 38.0796 103.395 37.8973 103.668 37.6603C103.923 37.4051 104.115 37.2775 104.242 37.2775ZM81.3828 26.34L81.9297 26.8049L85.1016 29.758C85.7943 30.396 86.4141 30.9246 86.9609 31.3439C87.5078 31.745 87.9635 32.0457 88.3281 32.2463L90.1328 33.1213C90.9714 33.4858 91.5 33.7228 91.7188 33.8322L92.375 34.0509L93.25 34.5431C93.2135 34.6525 93.1042 34.7254 92.9219 34.7619L91.7461 35.0353C91.6003 35.0718 91.181 35.1356 90.4883 35.2267C89.8138 35.3179 89.349 35.3634 89.0938 35.3634C88.8385 35.3452 88.6016 35.3088 88.3828 35.2541C88.1823 35.1812 87.9635 35.0627 87.7266 34.8986C87.4714 34.7345 87.0977 34.3608 86.6055 33.7775L83.7891 30.3869C82.5859 28.8192 81.8294 27.9168 81.5195 27.6799L80.7812 27.0509C80.4896 27.4338 80.2435 27.7437 80.043 27.9806C79.8424 28.2358 79.5234 28.6187 79.0859 29.1291L77.2266 31.0431C76.4427 31.8088 75.7409 32.4285 75.1211 32.9025C74.5013 33.3582 73.7721 33.8413 72.9336 34.3517C72.0951 34.8439 71.4753 35.172 71.0742 35.3361C70.6914 35.4819 70.2995 35.6187 69.8984 35.7463L68.7227 35.9924C68.7044 35.8647 68.75 35.7645 68.8594 35.6916L69.6797 35.1994C69.8984 35.09 70.2904 34.8348 70.8555 34.4338C71.4206 34.0692 72.1224 33.5405 72.9609 32.8478C73.7995 32.1733 74.556 31.508 75.2305 30.8517C75.9049 30.1955 76.5156 29.5483 77.0625 28.9103C77.6276 28.2723 78.056 27.7254 78.3477 27.2697C78.6393 26.8322 78.849 26.4585 78.9766 26.1486C79.1042 25.8387 79.1953 25.4468 79.25 24.9728L79.3867 24.2072L79.6602 23.9611C79.9336 23.9246 80.2161 23.9702 80.5078 24.0978C80.7812 24.2437 81.0456 24.4259 81.3008 24.6447C81.5378 24.8634 81.7018 25.064 81.793 25.2463L81.875 25.6564L81.793 25.9025L81.3828 26.34ZM72.5234 46.6017L73.1797 45.8361L73.5352 45.4533C73.7721 45.1798 74.0547 44.7059 74.3828 44.0314C74.7292 43.3569 74.9753 42.7827 75.1211 42.3088C75.2852 41.853 75.4401 41.1877 75.5859 40.3127C75.7682 39.4194 75.8867 38.6265 75.9414 37.9338C75.9961 37.3869 76.0234 36.8947 76.0234 36.4572C76.0052 36.1291 75.9688 35.8009 75.9141 35.4728C75.8594 35.1447 75.7682 34.8713 75.6406 34.6525C75.5312 34.4338 75.4766 34.2059 75.4766 33.9689C75.5677 33.8595 75.7227 33.814 75.9414 33.8322C76.2148 33.8687 76.543 33.9598 76.9258 34.1056C77.3086 34.215 77.5911 34.3426 77.7734 34.4884L78.0742 34.7892C78.0924 34.9168 78.0286 35.1447 77.8828 35.4728C77.8099 35.6369 77.7552 35.8556 77.7188 36.1291L77.6914 37.0588C77.6732 37.4598 77.6185 37.9976 77.5273 38.672C77.4544 39.3283 77.3359 39.9754 77.1719 40.6134C77.026 41.2332 76.8346 41.8348 76.5977 42.4181C76.3607 42.9832 76.0326 43.5757 75.6133 44.1955C75.2122 44.797 74.8477 45.2619 74.5195 45.59C74.1914 45.9181 73.8268 46.2189 73.4258 46.4923L72.7969 46.9025L72.3867 46.8478L72.5234 46.6017ZM84.9922 37.6603L84.8281 43.5119C84.7917 43.9858 84.7552 44.3869 84.7188 44.715C84.6823 45.0796 84.6185 45.4624 84.5273 45.8634C84.4362 46.3009 84.3177 46.7476 84.1719 47.2033C84.0443 47.6043 83.8893 47.8048 83.707 47.8048C83.5977 47.7502 83.4974 47.6408 83.4062 47.4767C83.3151 47.3127 83.2695 46.9572 83.2695 46.4103L83.1875 45.2345V43.84L83.2969 36.5392C83.2969 36.3934 83.2878 36.1382 83.2695 35.7736C83.2331 35.3908 83.1966 35.1265 83.1602 34.9806C83.1237 34.7983 83.0508 34.5796 82.9414 34.3244L82.832 33.8322C82.8867 33.7228 83.0234 33.6408 83.2422 33.5861C83.4427 33.5679 83.6615 33.6043 83.8984 33.6955C84.2448 33.8231 84.5273 33.9325 84.7461 34.0236C84.9466 34.1147 85.138 34.2332 85.3203 34.3791L85.6211 34.7345V34.9533L85.375 35.2541C85.3021 35.3634 85.2474 35.491 85.2109 35.6369C85.1562 35.8009 85.1198 35.9559 85.1016 36.1017C85.0833 36.2658 85.0651 36.5301 85.0469 36.8947C85.0104 37.2593 84.9922 37.5145 84.9922 37.6603Z" fill="#333333"/>
</svg>
