<svg width="135" height="70" viewBox="0 0 135 70" fill="none" xmlns="http://www.w3.org/2000/svg">
<path d="M57.2109 34.6797C57.1016 34.6797 56.9557 34.5612 56.7734 34.3242C56.5911 34.069 56.5091 33.8503 56.5273 33.668C56.5638 33.5221 56.5911 33.112 56.6094 32.4375C56.6276 31.9818 56.6367 31.1797 56.6367 30.0312C56.6367 29.2292 56.6276 28.6914 56.6094 28.418L55.707 28.5C55.069 28.5911 54.5221 28.6367 54.0664 28.6367C53.9388 28.6367 53.7565 28.5365 53.5195 28.3359C53.2826 28.1354 53.1641 27.9896 53.1641 27.8984C53.1641 27.7526 53.319 27.6979 53.6289 27.7344C53.8294 27.7526 54.4219 27.7435 55.4062 27.707C56.7552 27.6159 57.7305 27.5612 58.332 27.543C58.6419 27.5247 58.9245 27.4974 59.1797 27.4609C59.4531 27.4062 59.6445 27.3698 59.7539 27.3516C59.918 27.3333 60.0638 27.3516 60.1914 27.4062C60.319 27.4609 60.4375 27.5339 60.5469 27.625C60.6745 27.6979 60.7747 27.7526 60.8477 27.7891C61.0117 27.8984 61.0938 27.9987 61.0938 28.0898C61.0938 28.1628 61.0482 28.2357 60.957 28.3086C60.8841 28.3633 60.8021 28.3906 60.7109 28.3906C60.6198 28.3906 60.4922 28.3815 60.3281 28.3633C60.1823 28.3451 60.0182 28.3359 59.8359 28.3359C59.1615 28.3359 58.4688 28.3542 57.7578 28.3906C57.7396 28.5365 57.7305 28.901 57.7305 29.4844C57.694 30.4688 57.6758 31.4349 57.6758 32.3828V33.4492V33.6953C57.6758 34.0052 57.6484 34.2057 57.5938 34.2969C57.4297 34.5521 57.3021 34.6797 57.2109 34.6797ZM54.2852 41.1602C54.0846 41.1602 53.8385 41.0052 53.5469 40.6953C53.3281 40.4766 53.2188 40.3125 53.2188 40.2031C53.2188 40.1484 53.2552 40.1211 53.3281 40.1211C53.401 40.1029 53.4922 40.0938 53.6016 40.0938L54.2031 40.0664C54.5495 40.0664 54.7773 40.0573 54.8867 40.0391C55.2331 40.0391 55.5247 40.0299 55.7617 40.0117C57.3294 39.8659 58.3867 39.7474 58.9336 39.6562C59.207 39.6198 59.4531 39.5833 59.6719 39.5469C59.8906 39.4922 60.0638 39.4648 60.1914 39.4648C60.4466 39.4648 60.7018 39.5924 60.957 39.8477C61.1576 40.0482 61.2578 40.2122 61.2578 40.3398C61.2578 40.4492 61.194 40.5221 61.0664 40.5586C60.9753 40.5768 60.4375 40.6133 59.4531 40.668C58.9062 40.6862 58.2318 40.7318 57.4297 40.8047C56.6276 40.8776 55.9258 40.9505 55.3242 41.0234C55.2148 41.0417 55.0599 41.069 54.8594 41.1055C54.6589 41.1419 54.4674 41.1602 54.2852 41.1602ZM65.7422 32.082C65.9609 32.082 66.0703 32.1823 66.0703 32.3828C66.0703 32.4922 65.9701 32.6471 65.7695 32.8477C65.2227 33.5221 64.138 34.8073 62.5156 36.7031C62.388 36.8672 62.2695 36.9492 62.1602 36.9492C62.069 36.9492 61.8685 36.8125 61.5586 36.5391C61.3034 36.3203 61.1758 36.138 61.1758 35.9922C61.1758 35.8281 61.3125 35.6732 61.5859 35.5273C62.0052 35.2904 62.6341 34.8164 63.4727 34.1055C64.3112 33.3581 64.931 32.7656 65.332 32.3281C65.4961 32.1641 65.6328 32.082 65.7422 32.082ZM37.168 38.0977L40.0664 37.6602C40.3216 37.6237 40.7591 37.5417 41.3789 37.4141C41.9987 37.2865 42.5091 37.1589 42.9102 37.0312C43.2018 36.9401 43.4661 36.8945 43.7031 36.8945C43.8672 36.931 44.1771 37.0495 44.6328 37.25C45.1068 37.4688 45.4714 37.6784 45.7266 37.8789C45.9635 38.0612 46.1003 38.2253 46.1367 38.3711C46.1367 38.5169 46.0456 38.7721 45.8633 39.1367C45.6628 39.5195 45.5352 40.0208 45.4805 40.6406C45.444 41.2422 45.4258 41.7253 45.4258 42.0898L45.4531 44.0859C45.4349 44.5417 45.3893 45.0065 45.3164 45.4805C45.2253 45.9362 45.0521 46.3919 44.7969 46.8477C44.5234 47.3216 44.2773 47.6042 44.0586 47.6953L43.6211 47.8047C43.5117 47.7682 43.375 47.5768 43.2109 47.2305L42.8008 46.3008C42.6914 46.0273 42.6003 45.8451 42.5273 45.7539L42.1992 45.3711L38.207 45.6992C37.3503 45.7721 36.7396 45.8268 36.375 45.8633L36.0195 45.8906H35.7461L35.0898 45.6992L34.8711 46.4102C34.7799 46.6654 34.6706 46.8021 34.543 46.8203C34.3971 46.8203 34.2513 46.7018 34.1055 46.4648C33.9049 46.1549 33.7682 45.8268 33.6953 45.4805C33.6406 45.2253 33.6133 44.9974 33.6133 44.7969C33.6133 44.6693 33.6589 44.4232 33.75 44.0586C33.8594 43.7122 33.9232 43.4206 33.9414 43.1836C33.9779 42.9284 34.0143 42.3906 34.0508 41.5703V40.6133C34.0508 40.3581 34.0143 40.0117 33.9414 39.5742C33.8685 39.1549 33.7773 38.8177 33.668 38.5625L33.5586 38.1523C33.5951 38.0247 33.6771 37.9427 33.8047 37.9062C33.9505 37.9062 34.1419 37.9336 34.3789 37.9883L35.0898 38.2617L36.457 38.125L37.0586 37.0586C37.2409 36.7487 37.3958 36.4661 37.5234 36.2109C37.651 35.9557 37.7604 35.7005 37.8516 35.4453C37.9427 35.1901 38.0065 34.9805 38.043 34.8164L38.0977 34.5156L38.3711 34.3242C38.5169 34.306 38.681 34.3424 38.8633 34.4336C39.3008 34.6159 39.6654 34.7982 39.957 34.9805L40.0938 35.582L39.6289 35.9102C39.5195 35.9831 39.3281 36.1471 39.0547 36.4023C38.7812 36.6758 38.4622 36.9674 38.0977 37.2773L37.168 38.0977ZM35.1992 44.8789L39.875 44.4414L41.6797 44.2227C41.9531 44.2227 42.2174 44.2591 42.4727 44.332C42.7096 44.4049 42.8919 44.4779 43.0195 44.5508L43.2656 44.6602L43.4844 44.6055C43.5391 44.4596 43.5938 44.2318 43.6484 43.9219L43.7305 43.4297L43.7852 41.4883C43.3477 41.5977 43.0286 41.6706 42.8281 41.707L41.2969 41.9258L40.0664 42.1172L38.0977 42.3633C37.4779 42.4727 37.0859 42.5273 36.9219 42.5273H35.2812L35.1992 44.8789ZM35.3086 41.7617C35.7461 41.6888 36.0833 41.6341 36.3203 41.5977L37.8242 41.3789L39.6836 41.0781C40.3398 40.9688 40.8685 40.8685 41.2695 40.7773C41.6706 40.7044 42.0169 40.668 42.3086 40.668C42.6367 40.668 42.8828 40.6862 43.0469 40.7227L43.7578 40.9414L43.8125 39.2461C43.8125 38.8451 43.7214 38.599 43.5391 38.5078C43.3568 38.4167 43.1562 38.3711 42.9375 38.3711C42.2995 38.3893 41.7435 38.4076 41.2695 38.4258C40.8138 38.4622 40.2122 38.526 39.4648 38.6172L35.418 39.1367L35.3086 41.7617ZM31.6719 28.0625L32.4375 28.1445C32.5651 28.1445 32.8477 28.1992 33.2852 28.3086C33.7227 28.418 34.0143 28.5456 34.1602 28.6914C34.306 28.8372 34.3789 29.0378 34.3789 29.293C34.3789 29.5482 34.306 29.7122 34.1602 29.7852C34.0143 29.8945 33.8685 29.9492 33.7227 29.9492C33.5768 29.9492 33.4128 29.9219 33.2305 29.8672C33.0482 29.8125 32.8385 29.6758 32.6016 29.457L31.9727 28.9648C31.6628 28.7096 31.4531 28.5273 31.3438 28.418L31.4258 28.0898L31.6719 28.0625ZM37.7695 29.0469L37.7969 31.8633C37.7969 32.2461 37.7786 32.6471 37.7422 33.0664C37.724 33.4674 37.6328 33.8503 37.4688 34.2148C37.3047 34.5612 37.0404 34.8711 36.6758 35.1445C36.3659 35.3815 36.1016 35.4818 35.8828 35.4453C35.7917 35.3177 35.5638 35.026 35.1992 34.5703L34.6523 33.9414L34.2969 33.668L33.8867 33.0391L34.1055 33.0117L34.5977 33.0664C35.0716 33.1576 35.3997 33.2031 35.582 33.2031C35.7461 33.2031 35.901 33.1484 36.0469 33.0391C36.1927 32.9297 36.3021 32.7565 36.375 32.5195C36.4297 32.2643 36.4753 31.7448 36.5117 30.9609L36.5664 29.8945L36.4844 27.1328C36.4661 26.9505 36.4388 26.7956 36.4023 26.668L36.2656 26.4219C36.1745 26.349 36.0013 26.3216 35.7461 26.3398C35.6185 26.3398 35.418 26.3581 35.1445 26.3945C34.8529 26.4128 34.5612 26.4401 34.2695 26.4766L33.2305 26.6133C32.7565 26.6862 32.4193 26.7682 32.2188 26.8594L31.6172 26.9688C31.3255 26.8776 31.1341 26.7591 31.043 26.6133L30.9336 26.3125L31.3711 26.1758L31.9727 26.1211C32.3372 26.0846 32.6289 26.0482 32.8477 26.0117C33.0664 25.9753 33.3216 25.9297 33.6133 25.875C33.9049 25.8203 34.2422 25.7474 34.625 25.6562C35.0078 25.5833 35.3815 25.474 35.7461 25.3281L36.375 25.1094C36.5026 25.1276 36.6302 25.1458 36.7578 25.1641C36.8672 25.1823 37.0312 25.2461 37.25 25.3555C37.4505 25.4648 37.6784 25.6289 37.9336 25.8477C38.1888 26.0664 38.3255 26.2578 38.3438 26.4219L38.1797 26.8047C38.0156 27.0781 37.8971 27.3607 37.8242 27.6523C37.7695 27.8346 37.7422 28.099 37.7422 28.4453C37.7422 28.6276 37.7513 28.8281 37.7695 29.0469ZM43.8945 33.1211L43.5117 32.6836L43.7305 32.5195L44.2227 32.6562C44.4414 32.7292 44.6237 32.7839 44.7695 32.8203C44.9518 32.8385 45.1159 32.8477 45.2617 32.8477C45.4076 32.8294 45.5534 32.7747 45.6992 32.6836C45.8451 32.6107 45.9727 32.3464 46.082 31.8906C46.1914 31.4349 46.2461 30.8698 46.2461 30.1953L46.2188 27.2148L46.1367 26.0117C46.0456 25.8659 45.9271 25.7656 45.7812 25.7109C45.6172 25.6562 45.4076 25.6289 45.1523 25.6289C44.7148 25.6654 44.3685 25.6836 44.1133 25.6836C43.8763 25.7201 43.6211 25.7474 43.3477 25.7656L42.0898 25.9297C41.543 25.9844 41.151 26.0391 40.9141 26.0938L40.4219 26.1484C40.2214 26.1484 40.0391 26.1211 39.875 26.0664C39.6745 25.9935 39.5469 25.8112 39.4922 25.5195L39.9023 25.4375L40.9414 25.3281C41.6706 25.2552 42.181 25.2005 42.4727 25.1641C42.7643 25.1276 43.1654 25.0638 43.6758 24.9727C44.2044 24.8815 44.6146 24.7995 44.9062 24.7266L45.7266 24.5078C45.9271 24.4531 46.1276 24.4258 46.3281 24.4258L46.7109 24.5352C46.9115 24.5898 47.1211 24.681 47.3398 24.8086C47.5586 24.9544 47.7591 25.1185 47.9414 25.3008L48.2148 25.7656L48.0508 26.1484C47.9596 26.349 47.8594 26.6133 47.75 26.9414C47.6589 27.306 47.6133 27.6523 47.6133 27.9805L47.6406 29.8945L47.6953 30.6875C47.7135 31.1797 47.7227 31.5716 47.7227 31.8633C47.7227 32.319 47.668 32.7474 47.5586 33.1484C47.4492 33.5677 47.276 33.9596 47.0391 34.3242C46.8021 34.7253 46.556 34.9896 46.3008 35.1172L45.8359 35.3086C45.599 35.2721 45.3711 35.0807 45.1523 34.7344C44.9336 34.388 44.7148 34.069 44.4961 33.7773C44.2773 33.5039 44.0768 33.2852 43.8945 33.1211ZM41.0508 26.9961L41.5977 27.1055L42.1992 27.1875C42.4909 27.2422 42.8281 27.3242 43.2109 27.4336C43.5755 27.543 43.8307 27.6888 43.9766 27.8711C44.0859 28.0169 44.1406 28.2083 44.1406 28.4453C44.1224 28.6823 44.0404 28.8737 43.8945 29.0195C43.7487 29.1289 43.5755 29.1836 43.375 29.1836C43.1745 29.1836 42.9375 29.1016 42.6641 28.9375C42.3906 28.7734 42.1263 28.582 41.8711 28.3633L40.9414 27.5977L40.6406 27.3242L40.832 27.0234L41.0508 26.9961ZM32.875 31.4805L35.3906 30.2227L35.5547 30.5234L33.4766 32.3008C33.2031 32.5195 32.9935 32.6927 32.8477 32.8203C32.7018 32.9479 32.556 33.0938 32.4102 33.2578C32.2643 33.4219 32.1458 33.5768 32.0547 33.7227L31.6719 34.0508C31.5443 34.0508 31.4076 34.0143 31.2617 33.9414C31.0794 33.8685 30.8789 33.7409 30.6602 33.5586C30.4414 33.3763 30.2865 33.2305 30.1953 33.1211C30.1042 33.0117 30.0221 32.8659 29.9492 32.6836L30.1133 32.4102C30.3503 32.3555 30.5599 32.3099 30.7422 32.2734C30.9062 32.2188 31.0703 32.1732 31.2344 32.1367C31.3802 32.1003 31.6445 32.0091 32.0273 31.8633C32.3919 31.7174 32.6745 31.5898 32.875 31.4805ZM45.3164 29.5664L42.8555 31.5352L42.1445 32.1367C41.9987 32.2461 41.8438 32.3828 41.6797 32.5469L41.2695 32.957L41.0508 33.1484L40.832 33.2305C40.668 33.2305 40.4857 33.1484 40.2852 32.9844C40.0664 32.8385 39.9115 32.7201 39.8203 32.6289C39.7292 32.556 39.5924 32.4193 39.4102 32.2188C39.2461 32.0182 39.2096 31.7904 39.3008 31.5352C39.5378 31.4622 39.7292 31.4167 39.875 31.3984C40.0026 31.3802 40.1667 31.3438 40.3672 31.2891C40.5495 31.2344 40.8138 31.1432 41.1602 31.0156C41.5065 30.888 41.8164 30.7604 42.0898 30.6328L45.1797 29.2656L45.3984 29.4297L45.3164 29.5664Z" fill="#333333"/>
<path d="M102.355 34.3242C102.21 34.2878 102.091 34.1966 102 34.0508C101.964 34.0143 101.918 33.9414 101.863 33.832C101.827 33.7044 101.79 33.6133 101.754 33.5586L101.617 33.2578L99.8945 33.4766L99.2383 33.5859C99.0742 33.6042 98.7005 33.668 98.1172 33.7773C97.8802 33.8138 97.625 33.8867 97.3516 33.9961C97.2969 34.0143 97.2331 34.0508 97.1602 34.1055C97.0872 34.1602 97.0234 34.1875 96.9688 34.1875H96.75C96.5677 34.1875 96.3672 34.069 96.1484 33.832C96.0938 33.7591 96.0208 33.6862 95.9297 33.6133C95.8568 33.5221 95.8203 33.4583 95.8203 33.4219C95.8203 33.276 95.8841 33.1393 96.0117 33.0117C96.2852 32.7383 96.668 32.1823 97.1602 31.3438C97.3424 31.0885 97.5612 30.7148 97.8164 30.2227C98.0716 29.7305 98.2721 29.3203 98.418 28.9922C98.3997 29.0469 98.5 28.8008 98.7188 28.2539C98.8828 27.7982 98.9648 27.5065 98.9648 27.3789C99.0013 27.1784 99.0651 27.0781 99.1562 27.0781C99.2292 27.0781 99.3841 27.1784 99.6211 27.3789C99.8216 27.543 99.9766 27.707 100.086 27.8711C100.214 28.0352 100.277 28.1628 100.277 28.2539C100.277 28.3268 100.259 28.3906 100.223 28.4453C100.186 28.5 100.122 28.5638 100.031 28.6367C99.9583 28.7096 99.8672 28.819 99.7578 28.9648C99.5208 29.2747 99.2292 29.7487 98.8828 30.3867L98.3359 31.3438L97.9258 32.0273L97.625 32.5469L97.4336 32.8477C97.4154 32.8841 97.4154 32.9206 97.4336 32.957C97.4518 32.9753 97.4792 32.9844 97.5156 32.9844C97.5156 32.9844 97.9805 32.9297 98.9102 32.8203L101.426 32.5469C101.371 32.401 101.298 32.2096 101.207 31.9727C101.116 31.7174 101.007 31.4349 100.879 31.125C100.861 31.1068 100.852 31.0703 100.852 31.0156C100.852 30.9609 100.879 30.9336 100.934 30.9336C101.025 30.9336 101.134 30.9883 101.262 31.0977C101.408 31.1888 101.626 31.3802 101.918 31.6719C102.137 31.8542 102.319 32.0638 102.465 32.3008C102.629 32.5378 102.729 32.6745 102.766 32.7109C102.93 32.9479 103.012 33.1758 103.012 33.3945C103.012 33.5039 102.975 33.6862 102.902 33.9414C102.848 34.0872 102.775 34.1875 102.684 34.2422C102.611 34.2969 102.501 34.3242 102.355 34.3242ZM102.164 43.8945C101.891 43.8945 101.626 43.694 101.371 43.293C101.043 42.7826 100.724 42.3633 100.414 42.0352L99.7031 41.2969C99.3203 41.7344 98.9831 42.0807 98.6914 42.3359C98.418 42.5911 98.0716 42.8372 97.6523 43.0742C96.8685 43.5299 96.2122 43.7578 95.6836 43.7578C95.556 43.7578 95.4922 43.7122 95.4922 43.6211C95.4922 43.5664 95.6654 43.4479 96.0117 43.2656C96.3581 43.0833 96.6862 42.8646 96.9961 42.6094C97.7799 41.9531 98.4271 41.2786 98.9375 40.5859C98.8281 40.4766 98.2812 40.0026 97.2969 39.1641C97.1693 39.0729 96.9779 38.918 96.7227 38.6992C96.668 38.6628 96.5586 38.5807 96.3945 38.4531C96.2305 38.3255 96.1484 38.2344 96.1484 38.1797C96.1484 38.0885 96.194 38.043 96.2852 38.043C96.5586 38.043 96.9961 38.2344 97.5977 38.6172C98.1992 38.9818 98.8281 39.4193 99.4844 39.9297C99.7396 39.6198 99.9401 39.3281 100.086 39.0547C100.232 38.7812 100.396 38.444 100.578 38.043C100.669 37.8424 100.724 37.6693 100.742 37.5234C100.76 37.3594 100.77 37.2591 100.77 37.2227C100.77 37.0221 100.824 36.9219 100.934 36.9219C101.061 36.9219 101.234 37.0221 101.453 37.2227C101.836 37.5872 102.027 37.8333 102.027 37.9609C102.027 38.0339 101.982 38.1159 101.891 38.207C101.672 38.4258 101.471 38.7174 101.289 39.082C101.18 39.3008 100.979 39.6107 100.688 40.0117C100.596 40.1211 100.523 40.2214 100.469 40.3125C100.414 40.4036 100.359 40.4857 100.305 40.5586C100.724 40.8685 101.344 41.3971 102.164 42.1445C102.365 42.3268 102.492 42.5 102.547 42.6641C102.62 42.8099 102.656 43.0104 102.656 43.2656C102.656 43.4479 102.611 43.6029 102.52 43.7305C102.428 43.8398 102.31 43.8945 102.164 43.8945ZM107.742 32.082C107.961 32.082 108.07 32.1823 108.07 32.3828C108.07 32.4922 107.97 32.6471 107.77 32.8477C107.223 33.5221 106.138 34.8073 104.516 36.7031C104.388 36.8672 104.27 36.9492 104.16 36.9492C104.069 36.9492 103.868 36.8125 103.559 36.5391C103.303 36.3203 103.176 36.138 103.176 35.9922C103.176 35.8281 103.312 35.6732 103.586 35.5273C104.005 35.2904 104.634 34.8164 105.473 34.1055C106.311 33.3581 106.931 32.7656 107.332 32.3281C107.496 32.1641 107.633 32.082 107.742 32.082ZM73.2617 31.9727C73.4258 32.1003 73.5716 32.2188 73.6992 32.3281C73.8268 32.4375 73.9544 32.5742 74.082 32.7383C74.2096 32.8841 74.2826 33.0208 74.3008 33.1484C74.3008 33.2943 74.2552 33.5312 74.1641 33.8594C74.1276 33.987 74.0911 34.1419 74.0547 34.3242C74.0547 34.5065 74.0273 34.9076 73.9727 35.5273C73.918 36.1471 73.8906 36.5938 73.8906 36.8672L73.8359 41.3789L73.8906 42.582L73.918 43.8672C73.9362 44.1953 73.9453 44.4688 73.9453 44.6875C73.9453 44.9427 73.8997 45.207 73.8086 45.4805C73.7174 45.7357 73.6263 45.9544 73.5352 46.1367L73.3438 46.4648L72.9062 46.5469C72.724 46.3099 72.5781 46.1003 72.4688 45.918C72.3958 45.7174 72.3411 45.5534 72.3047 45.4258C72.2682 45.2799 72.2135 45.0885 72.1406 44.8516L72.0586 44.4141C72.0586 44.2682 72.1042 44.0495 72.1953 43.7578C72.2682 43.4661 72.332 43.1654 72.3867 42.8555C72.4232 42.5273 72.4596 42.1263 72.4961 41.6523C72.5508 41.1419 72.5781 40.7409 72.5781 40.4492L72.7422 35.7461V34.5977C72.7422 33.9961 72.724 33.6133 72.6875 33.4492L72.5781 32.9297L72.1406 33.5039C71.9766 33.6862 71.6484 34.0052 71.1562 34.4609C70.6823 34.8984 70.3268 35.1992 70.0898 35.3633C69.8529 35.5456 69.4427 35.8281 68.8594 36.2109L68.0664 36.4297L68.4766 35.9375L69.4062 35.0078C69.6979 34.6979 70.1628 34.0964 70.8008 33.2031L72.3047 31.043C72.6693 30.4779 73.0156 29.8581 73.3438 29.1836C73.6719 28.5273 73.9089 27.9987 74.0547 27.5977L74.4648 26.4492C74.5924 26.0846 74.6562 25.8203 74.6562 25.6562V25.1914L74.7109 24.8633C74.8203 24.7539 74.9479 24.6992 75.0938 24.6992C75.2396 24.6992 75.4219 24.7721 75.6406 24.918C75.8594 25.0638 76.0599 25.2096 76.2422 25.3555C76.4245 25.5013 76.5521 25.6289 76.625 25.7383C76.7344 25.8477 76.7891 26.0299 76.7891 26.2852C76.7526 26.3945 76.6797 26.5039 76.5703 26.6133C76.4427 26.7409 76.3333 26.8685 76.2422 26.9961C76.1328 27.1419 75.9688 27.4154 75.75 27.8164C75.5495 28.2174 75.2943 28.6823 74.9844 29.2109L73.8359 31.043L73.5625 31.5078L73.2617 31.9727ZM83.5703 31.9727C83.8255 32.1549 84.0443 32.3008 84.2266 32.4102L84.8281 32.8477L86.1406 33.9688C86.7057 34.4609 87.2617 34.8893 87.8086 35.2539C88.3372 35.6549 88.8385 35.9831 89.3125 36.2383C89.7865 36.4935 90.3607 36.7578 91.0352 37.0312C91.7096 37.3047 92.2656 37.5052 92.7031 37.6328L93.3867 37.8242L93.7969 37.9609L93.8516 38.3164L93.1953 38.4805L91.582 38.8086C90.9622 38.918 90.5065 38.9727 90.2148 38.9727C89.9049 38.9727 89.6042 38.918 89.3125 38.8086C89.0208 38.6628 88.638 38.3346 88.1641 37.8242L86.8242 36.4023L85.2109 34.6523C84.6641 34.0326 84.263 33.6133 84.0078 33.3945L83.1875 32.6289L82.3125 33.832L81.3828 34.8984C80.9818 35.3542 80.5625 35.7917 80.125 36.2109C79.7057 36.6484 79.2773 37.0404 78.8398 37.3867C78.4023 37.7513 77.9375 38.0977 77.4453 38.4258C76.9349 38.7539 76.4883 39 76.1055 39.1641C75.7044 39.3464 75.4036 39.4648 75.2031 39.5195L74.6016 39.4375L74.957 39.1367L75.6406 38.6445C76.0599 38.3164 76.4792 37.9701 76.8984 37.6055C77.3359 37.2409 77.7917 36.8034 78.2656 36.293C78.7578 35.819 79.2409 35.2721 79.7148 34.6523C80.207 34.0326 80.6354 33.4401 81 32.875C81.3646 32.3099 81.6107 31.8633 81.7383 31.5352C81.8477 31.2435 81.9115 30.9336 81.9297 30.6055V30.1953L81.9844 29.8945C82.0938 29.7669 82.2214 29.694 82.3672 29.6758C82.513 29.6758 82.6771 29.7305 82.8594 29.8398L83.2969 30.1406C83.4792 30.2682 83.625 30.3867 83.7344 30.4961C83.8438 30.6055 83.9349 30.7148 84.0078 30.8242L84.1172 31.043L84.0898 31.2617L83.5703 31.9727ZM76.543 31.3164L77.0625 30.7422C77.1901 30.6146 77.3724 30.4049 77.6094 30.1133C77.8281 29.8216 78.0924 29.4479 78.4023 28.9922C78.7122 28.5547 78.9583 28.1445 79.1406 27.7617L79.5781 26.7773C79.6693 26.5221 79.724 26.3034 79.7422 26.1211L79.9883 25.6289C80.0977 25.6107 80.2344 25.6289 80.3984 25.6836C80.5807 25.7565 80.7721 25.8477 80.9727 25.957C81.1732 26.0664 81.3737 26.1849 81.5742 26.3125C81.7565 26.4583 81.9023 26.6497 82.0117 26.8867L81.793 27.2969C81.5378 27.4245 81.3099 27.6159 81.1094 27.8711C80.9089 28.1263 80.5625 28.5091 80.0703 29.0195L79.3047 29.7852C78.9036 30.168 78.5573 30.4688 78.2656 30.6875C77.9375 30.9245 77.6458 31.1159 77.3906 31.2617C77.1354 31.4258 76.9167 31.5534 76.7344 31.6445L76.3516 31.5898L76.543 31.3164ZM86.5781 44.332L86.8789 44.5234L87.0977 44.8516C87.0065 44.9427 86.8516 44.9974 86.6328 45.0156L80.3164 45.4258C80.3164 45.681 80.2799 45.8815 80.207 46.0273C80.1523 46.2096 79.9883 46.2643 79.7148 46.1914C79.4779 45.9727 79.3411 45.7812 79.3047 45.6172C79.2682 45.4531 79.2318 45.1797 79.1953 44.7969L78.9766 42.8008C78.9036 42.1628 78.849 41.7161 78.8125 41.4609C78.776 41.224 78.7214 41.0052 78.6484 40.8047C78.5755 40.6042 78.457 40.431 78.293 40.2852L78.0195 39.957L78.0469 39.7383C78.138 39.6471 78.2747 39.6016 78.457 39.6016C78.7669 39.638 79.013 39.6836 79.1953 39.7383L79.5781 39.8477C80.3802 39.7018 80.9818 39.6107 81.3828 39.5742L83.1875 39.3281L84.7188 39.0547C85.0833 39 85.4297 38.918 85.7578 38.8086L86.3047 38.6445C86.5234 38.6445 86.7422 38.6901 86.9609 38.7812C87.2161 38.8906 87.4987 39.0456 87.8086 39.2461C88.1003 39.4466 88.3464 39.6471 88.5469 39.8477C88.7292 40.0117 88.8203 40.1758 88.8203 40.3398C88.8203 40.4674 88.7018 40.668 88.4648 40.9414C88.2279 41.1966 88.0729 41.3698 88 41.4609C87.9271 41.5521 87.8177 41.7344 87.6719 42.0078C87.5078 42.2812 87.3438 42.6185 87.1797 43.0195L86.5781 44.332ZM80.2344 44.4414L85.3203 43.9492L85.8125 41.2148L85.9219 40.7227L85.9492 40.4766L85.9219 40.2305C85.849 40.1211 85.7122 40.0482 85.5117 40.0117C85.3477 40.0117 85.1016 40.0299 84.7734 40.0664L83.5703 40.1758L82.1484 40.3945L80.8086 40.6133L80.0703 40.8047L80.125 42.0625L80.2344 44.4414ZM85.1016 26.7227L84.6641 26.2305L84.2812 25.793L84.4453 25.4922C84.8281 25.5469 85.1016 25.5924 85.2656 25.6289C85.4479 25.6654 85.7487 25.7656 86.168 25.9297C86.5872 26.0755 87.0156 26.2396 87.4531 26.4219C87.8906 26.6224 88.237 26.8503 88.4922 27.1055C88.7474 27.3789 88.9115 27.6523 88.9844 27.9258C89.0391 28.1628 89.0664 28.4362 89.0664 28.7461C89.0482 28.9648 89.0117 29.1471 88.957 29.293C88.9023 29.4388 88.7656 29.5664 88.5469 29.6758C88.3646 29.6758 88.1276 29.6029 87.8359 29.457C87.5807 29.3112 87.2161 28.9831 86.7422 28.4727L85.7031 27.4336L85.1016 26.7227Z" fill="#333333"/>
</svg>
