<svg width="220" height="70" viewBox="0 0 220 70" fill="none" xmlns="http://www.w3.org/2000/svg">
<path d="M57.582 34.2422C56.707 34.2422 56.1237 34.1875 55.832 34.0781C55.4857 33.9141 55.2578 33.5404 55.1484 32.957C55.0938 32.6471 55.0664 32.2552 55.0664 31.7812L54.957 30.0039V29.3203C54.9388 29.3021 54.9297 29.2565 54.9297 29.1836L54.9023 28.8828C54.8841 28.737 54.8021 28.5638 54.6562 28.3633C54.6016 28.2539 54.5742 28.1719 54.5742 28.1172C54.5742 27.9896 54.7292 27.9531 55.0391 28.0078C55.3672 28.0625 55.7409 28.0898 56.1602 28.0898C56.4518 28.0898 56.9987 28.0716 57.8008 28.0352C58.0742 28.0169 58.7122 27.9349 59.7148 27.7891L60.5898 27.5977L60.8086 27.543C60.9727 27.543 61.1732 27.6432 61.4102 27.8438C61.6107 28.0078 61.7109 28.1628 61.7109 28.3086C61.7109 28.4909 61.5742 28.6003 61.3008 28.6367C60.5898 28.6914 60.043 28.7188 59.6602 28.7188L58.6758 28.7734C58.3841 28.8099 58.1836 28.8281 58.0742 28.8281C56.8711 28.8828 56.1875 28.9102 56.0234 28.9102C56.0234 30.1862 56.0326 30.9792 56.0508 31.2891C56.0872 31.7995 56.1146 32.2005 56.1328 32.4922C56.1693 32.7839 56.2148 32.9753 56.2695 33.0664C56.306 33.1393 56.3698 33.194 56.4609 33.2305C56.5703 33.2487 56.6706 33.2669 56.7617 33.2852C56.8711 33.2852 56.9531 33.2852 57.0078 33.2852C57.026 33.2852 57.0716 33.2943 57.1445 33.3125C57.2357 33.3125 57.4089 33.3125 57.6641 33.3125C57.8464 33.3125 58.1562 33.2943 58.5938 33.2578C59.1589 33.2214 59.7057 33.1484 60.2344 33.0391C60.362 33.0208 60.6536 33.0117 61.1094 33.0117C61.3281 33.0117 61.5378 33.112 61.7383 33.3125C61.8294 33.4036 61.875 33.5312 61.875 33.6953C61.875 33.8229 61.8385 33.9141 61.7656 33.9688C61.6562 34.0234 61.4831 34.069 61.2461 34.1055C61.0273 34.1237 60.7448 34.1419 60.3984 34.1602C59.3958 34.2148 58.457 34.2422 57.582 34.2422ZM59.3594 39.3281C59.1771 39.5651 58.9857 39.6836 58.7852 39.6836C58.7305 39.6836 58.7031 39.638 58.7031 39.5469C58.7031 39.4193 58.7396 39.2734 58.8125 39.1094C58.8125 39.1094 58.9948 38.7448 59.3594 38.0156C59.3776 37.9427 59.4049 37.8698 59.4414 37.7969C59.4779 37.724 59.5052 37.6602 59.5234 37.6055V37.5781C59.5234 37.5417 59.4961 37.5052 59.4414 37.4688C59.3867 37.4323 59.3229 37.4232 59.25 37.4414C58.9583 37.4596 58.5208 37.5052 57.9375 37.5781C57.3724 37.651 56.9531 37.724 56.6797 37.7969C56.5703 37.8333 56.4336 37.8789 56.2695 37.9336C56.1237 37.9883 56.0052 38.0156 55.9141 38.0156C55.5859 38.0156 55.3125 37.9154 55.0938 37.7148C54.9115 37.5872 54.7747 37.4596 54.6836 37.332L54.6289 37.1953C54.6289 37.1042 54.7839 37.0768 55.0938 37.1133C55.513 37.1497 56.3789 37.0951 57.6914 36.9492L58.2383 36.8672C58.3841 36.849 58.612 36.8216 58.9219 36.7852C59.25 36.7305 59.5052 36.6758 59.6875 36.6211C59.7422 36.6029 59.7969 36.5846 59.8516 36.5664C59.9245 36.5299 59.9883 36.5117 60.043 36.5117C60.1341 36.5117 60.2435 36.5573 60.3711 36.6484C60.5169 36.7396 60.6354 36.8216 60.7266 36.8945C60.8542 36.9857 60.9362 37.0677 60.9727 37.1406C61.0273 37.1953 61.0456 37.2682 61.0273 37.3594C61.0273 37.4505 60.9818 37.5326 60.8906 37.6055C60.7995 37.6784 60.7357 37.7331 60.6992 37.7695C60.6628 37.8242 60.5352 37.9609 60.3164 38.1797C60.2253 38.3255 60.0612 38.526 59.8242 38.7812C59.6055 39.0365 59.4505 39.2188 59.3594 39.3281ZM57.9922 44.7148C57.9922 44.6602 58.0833 44.5234 58.2656 44.3047C58.4661 44.0677 58.6211 43.8854 58.7305 43.7578C59.0039 43.3932 59.332 42.8646 59.7148 42.1719C60.1159 41.4792 60.3438 41.0234 60.3984 40.8047C60.4349 40.6953 60.3802 40.6406 60.2344 40.6406C59.9427 40.6406 59.1406 40.7227 57.8281 40.8867C56.9714 40.9961 56.3333 41.1055 55.9141 41.2148C55.8229 41.2695 55.7318 41.2969 55.6406 41.2969C55.4948 41.2969 55.3398 41.1966 55.1758 40.9961C55.1029 40.8685 55.0664 40.75 55.0664 40.6406C55.0664 40.5677 55.112 40.4948 55.2031 40.4219L55.2852 40.3125C55.3398 40.2031 55.4036 40.0573 55.4766 39.875C55.5495 39.6927 55.6133 39.5195 55.668 39.3555C55.7591 39.0638 55.8229 38.7448 55.8594 38.3984C55.8776 38.1979 55.987 38.1432 56.1875 38.2344C56.4427 38.362 56.6341 38.4896 56.7617 38.6172C56.9076 38.7266 56.9531 38.8086 56.8984 38.8633C56.7161 39.082 56.5703 39.3281 56.4609 39.6016C56.3698 39.8932 56.3151 40.0846 56.2969 40.1758C56.2969 40.2487 56.3424 40.2852 56.4336 40.2852C56.707 40.2852 57.1172 40.2396 57.6641 40.1484C57.974 40.112 58.3568 40.0664 58.8125 40.0117C59.2682 39.957 59.6328 39.9023 59.9062 39.8477L60.5898 39.7109C60.6445 39.6927 60.7174 39.6836 60.8086 39.6836C60.8997 39.6836 60.9909 39.7201 61.082 39.793C61.1732 39.8477 61.2734 39.9206 61.3828 40.0117C61.5651 40.1758 61.6836 40.3125 61.7383 40.4219C61.793 40.513 61.8203 40.6224 61.8203 40.75C61.8203 40.8229 61.7656 40.9141 61.6562 41.0234C61.5651 41.1328 61.4557 41.306 61.3281 41.543C60.7995 42.6185 60.1159 43.5208 59.2773 44.25C59.0404 44.4323 58.776 44.5872 58.4844 44.7148C58.3568 44.7513 58.2383 44.7786 58.1289 44.7969C58.0378 44.7969 57.9922 44.7695 57.9922 44.7148ZM66.8516 33.8867C66.9062 33.8867 66.9609 33.9141 67.0156 33.9688C67.0703 34.0052 67.1068 34.0599 67.125 34.1328V34.1875C67.125 34.3151 67.0247 34.5612 66.8242 34.9258L64.8555 38.3438C64.7096 38.6536 64.5182 38.8086 64.2812 38.8086C64.0443 38.8086 63.8438 38.6628 63.6797 38.3711C63.5156 38.1341 63.3151 37.7786 63.0781 37.3047C62.9688 37.1406 62.8776 36.9766 62.8047 36.8125C62.7318 36.6484 62.6771 36.5299 62.6406 36.457C62.4401 36.1107 62.3398 35.8646 62.3398 35.7188C62.3398 35.6458 62.3672 35.5911 62.4219 35.5547C62.4766 35.5 62.5312 35.4727 62.5859 35.4727C62.7865 35.4727 62.9688 35.582 63.1328 35.8008C63.2604 35.9284 63.3607 36.0651 63.4336 36.2109L63.7344 36.6211L64.2812 37.25L64.5273 36.8672C64.7826 36.4297 65.3841 35.5638 66.332 34.2695C66.5326 34.0143 66.7057 33.8867 66.8516 33.8867ZM33 41.2148C33.237 41.2148 33.4284 41.224 33.5742 41.2422C33.7383 41.2604 33.9661 41.2969 34.2578 41.3516C34.5495 41.4062 34.8776 41.4883 35.2422 41.5977C35.6068 41.707 36.1992 41.9076 37.0195 42.1992L39.2891 42.9375C40 43.138 40.7474 43.3294 41.5312 43.5117C42.2969 43.6758 43.1354 43.8034 44.0469 43.8945C44.9583 44.0039 45.8333 44.0768 46.6719 44.1133L49.3242 44.168L50.7188 44.2227L51.9219 44.25C52.1224 44.2682 52.25 44.3503 52.3047 44.4961C52.3229 44.6055 52.25 44.6966 52.0859 44.7695L51.3477 45.125C51.1107 45.2344 50.737 45.3802 50.2266 45.5625L48.2578 46.2461C47.7839 46.4284 47.3281 46.5833 46.8906 46.7109C46.4531 46.8385 46.1159 46.9023 45.8789 46.9023C45.5143 46.9023 45.0495 46.8021 44.4844 46.6016L42.0781 45.5898L38.7695 44.168C37.6211 43.694 36.8646 43.375 36.5 43.2109C36.1172 43.0469 35.7435 42.9102 35.3789 42.8008C35.0326 42.6732 34.6497 42.5729 34.2305 42.5C33.8112 42.4453 33.3919 42.4089 32.9727 42.3906C32.444 42.3906 31.9427 42.4271 31.4688 42.5C30.9948 42.5547 30.6393 42.6185 30.4023 42.6914C30.1654 42.7643 29.9375 42.8555 29.7188 42.9648L29.3359 43.1289C29.1901 43.1289 29.0352 43.0742 28.8711 42.9648C28.707 42.8555 28.5521 42.737 28.4062 42.6094C28.2604 42.4818 28.1328 42.3451 28.0234 42.1992C27.9141 42.0534 27.8229 41.8438 27.75 41.5703C27.7865 41.4427 27.9323 41.3607 28.1875 41.3242C28.4062 41.3607 28.6341 41.388 28.8711 41.4062C29.1081 41.4245 29.3724 41.4336 29.6641 41.4336C29.9193 41.4336 30.1562 41.4245 30.375 41.4062L31.332 41.3242C31.569 41.2878 31.8789 41.2695 32.2617 41.2695C32.4076 40.9414 32.4896 40.6497 32.5078 40.3945C32.526 40.2669 32.5352 40.1393 32.5352 40.0117C32.5352 39.8659 32.526 39.7201 32.5078 39.5742C32.4349 39.3008 32.3438 39.0273 32.2344 38.7539C32.125 38.4987 31.9974 38.2526 31.8516 38.0156C31.7057 37.7786 31.5599 37.569 31.4141 37.3867L31.168 37.0859L31.1406 36.6211L31.9062 34.7617L32.125 34.1875L31.6602 34.0234C31.4596 34.0964 31.1771 34.1784 30.8125 34.2695C30.4479 34.3789 30.1836 34.4518 30.0195 34.4883H29.3906C29.1536 34.4518 28.9531 34.4154 28.7891 34.3789C28.625 34.3424 28.4701 34.1875 28.3242 33.9141L28.7344 33.7773L29.2812 33.6133C29.6458 33.5404 29.9193 33.4674 30.1016 33.3945C30.2656 33.3216 30.612 33.1849 31.1406 32.9844C31.651 32.7656 32.0247 32.5742 32.2617 32.4102L32.7266 32.1914C32.8906 32.1732 33.0638 32.2096 33.2461 32.3008C33.4466 32.3919 33.6562 32.5013 33.875 32.6289C34.0938 32.7747 34.2943 32.9297 34.4766 33.0938C34.6589 33.2578 34.7409 33.431 34.7227 33.6133L34.4219 33.9414L33.9297 34.3789C33.7839 34.5065 33.6562 34.6341 33.5469 34.7617L32.4531 36.0742C32.3073 36.2383 32.1888 36.3841 32.0977 36.5117L32.0703 37.0039L32.7539 37.5508C33.0273 37.7695 33.2461 38.0247 33.4102 38.3164C33.5924 38.6081 33.6836 38.9544 33.6836 39.3555C33.6836 39.6654 33.638 39.957 33.5469 40.2305C33.4557 40.4857 33.3646 40.6771 33.2734 40.8047L33 41.2148ZM38.1953 28.2266L37.9492 28.0898L37.7305 27.6797L38.25 27.5156L43.7461 26.5586C44.457 26.431 45.0221 26.2852 45.4414 26.1211C45.8607 25.9753 46.1523 25.9023 46.3164 25.9023C46.444 25.9023 46.6354 25.957 46.8906 26.0664C47.1458 26.1576 47.3828 26.2578 47.6016 26.3672C47.8203 26.4766 48.0026 26.6042 48.1484 26.75L48.3125 27.0234L48.2305 27.2422C48.1029 27.2969 47.9388 27.3333 47.7383 27.3516L47.1641 27.3789C46.7995 27.3971 46.3073 27.4427 45.6875 27.5156C45.0677 27.6068 44.3203 27.707 43.4453 27.8164C42.5703 27.9258 41.9505 28.026 41.5859 28.1172L40.1641 28.4453L40.3008 28.6914L40.3828 28.9922L40.2461 29.3477C40.1549 29.5299 40.0911 29.7031 40.0547 29.8672C40.0182 30.013 39.9271 30.5508 39.7812 31.4805L39.6172 32.5195C39.9453 32.5195 40.2461 32.5104 40.5195 32.4922C40.793 32.474 41.2487 32.4102 41.8867 32.3008C42.5247 32.1914 43.1172 32.0729 43.6641 31.9453C44.2109 31.8177 44.6302 31.7083 44.9219 31.6172C45.2135 31.526 45.4779 31.4349 45.7148 31.3438C45.9518 31.2526 46.1341 31.207 46.2617 31.207C46.3893 31.207 46.599 31.2982 46.8906 31.4805L47.5742 31.918C47.7565 32.0456 47.9023 32.2005 48.0117 32.3828C48.0846 32.4922 48.112 32.638 48.0938 32.8203C48.0573 32.9297 47.957 33.0573 47.793 33.2031C47.6289 33.3672 47.4375 33.5768 47.2188 33.832C47.0182 34.1237 46.8177 34.3971 46.6172 34.6523L45.6875 36.0195L45.0859 36.8398L45.6328 37.332L47.1641 38.5898C47.6016 39.0091 47.9206 39.3737 48.1211 39.6836C48.3216 40.0117 48.4583 40.3398 48.5312 40.668C48.5677 40.9049 48.5859 41.1693 48.5859 41.4609C48.5495 41.8802 48.4766 42.1354 48.3672 42.2266C48.276 42.3177 48.1667 42.3815 48.0391 42.418C47.9115 42.418 47.7474 42.3542 47.5469 42.2266C47.3281 42.0807 47.0273 41.7617 46.6445 41.2695C46.2617 40.7773 45.9062 40.3398 45.5781 39.957L44.7031 38.9727L44.1016 38.2891C43.7552 38.6536 43.5091 38.8997 43.3633 39.0273L42.4609 39.793C41.987 40.1576 41.6315 40.4219 41.3945 40.5859C41.1576 40.75 40.8203 40.9414 40.3828 41.1602C39.9271 41.3607 39.6081 41.4974 39.4258 41.5703L38.5781 41.7891V41.5156L39.1797 41.0508L40.7383 39.6836C41.3398 39.1367 41.7865 38.7083 42.0781 38.3984L43.0625 37.2773L42.2422 36.4023L40.6016 34.7891L39.4531 33.6133L38.9062 35.5273C38.7604 36.0378 38.6055 36.4935 38.4414 36.8945C38.2773 37.2956 38.0768 37.6966 37.8398 38.0977C37.6029 38.4987 37.3294 38.918 37.0195 39.3555C36.6914 39.7565 36.3724 40.1029 36.0625 40.3945L35.5156 40.8867L35.1875 40.8047L35.625 40.0938C35.9714 39.5651 36.2904 39.0273 36.582 38.4805C36.8555 37.9336 37.138 37.2682 37.4297 36.4844C37.6849 35.6823 37.8945 34.8346 38.0586 33.9414C38.2227 33.0299 38.3503 32.1732 38.4414 31.3711C38.5326 30.5326 38.5781 29.931 38.5781 29.5664C38.5781 29.1654 38.5417 28.9102 38.4688 28.8008L38.1953 28.2266ZM40.2734 33.5586L41.2031 34.1328C41.3854 34.2422 41.75 34.4883 42.2969 34.8711L43.1719 35.4727L43.9375 36.0195L44.375 35.3906C44.4844 35.1901 44.6393 34.8893 44.8398 34.4883C45.0404 34.1055 45.2135 33.75 45.3594 33.4219L45.4688 32.875L45.1953 32.6562C45.0859 32.638 44.9766 32.6471 44.8672 32.6836C44.7214 32.7201 44.4479 32.7747 44.0469 32.8477L42.6797 33.2031L41.4492 33.4492L40.793 33.5586H40.2734ZM31.6328 26.7773L31.168 26.1758L31.4141 26.0117L31.9336 26.0664L32.6719 26.2031L33.2734 26.3398C33.5104 26.3945 33.7839 26.4948 34.0938 26.6406C34.4219 26.7865 34.6406 26.9232 34.75 27.0508C34.8594 27.1602 34.9505 27.3424 35.0234 27.5977C35.0599 27.7253 35.0781 27.862 35.0781 28.0078C35.0781 28.1354 35.069 28.263 35.0508 28.3906C34.9779 28.6641 34.8594 28.8737 34.6953 29.0195C34.5495 29.1471 34.3854 29.2109 34.2031 29.2109C34.0391 29.2109 33.8568 29.1198 33.6562 28.9375C33.474 28.8099 33.2734 28.6185 33.0547 28.3633L32.3164 27.543C31.9701 27.1784 31.7422 26.9232 31.6328 26.7773Z" fill="#333333"/>
<path d="M96.2734 31.2344C96.2552 31.2344 96.1914 31.2526 96.082 31.2891C95.9909 31.3073 95.9453 31.2799 95.9453 31.207C95.9453 31.1888 95.9818 31.1523 96.0547 31.0977C96.1276 31.0247 96.1914 30.9609 96.2461 30.9062C96.3008 30.8516 96.3828 30.7786 96.4922 30.6875C96.6016 30.5781 96.6836 30.4688 96.7383 30.3594C97.0117 29.9036 97.2031 29.4479 97.3125 28.9922L97.4766 28.0352C97.6042 27.3242 97.6589 26.4948 97.6406 25.5469C97.6406 25.3281 97.6133 25.1003 97.5586 24.8633C97.5404 24.7539 97.4492 24.599 97.2852 24.3984V24.3711C97.2852 24.3346 97.3307 24.3164 97.4219 24.3164C97.5495 24.3164 97.6589 24.3255 97.75 24.3438C97.987 24.3984 98.2513 24.4258 98.543 24.4258C98.8529 24.4076 99.0443 24.3984 99.1172 24.3984L100.949 24.2617C101.314 24.2253 101.551 24.207 101.66 24.207C102.444 24.0977 102.799 24.0521 102.727 24.0703C103.146 23.9974 103.401 23.9609 103.492 23.9609C103.784 23.9792 104.076 24.207 104.367 24.6445L104.422 24.7812C104.422 24.8906 104.34 24.9544 104.176 24.9727C104.012 24.9909 103.911 25 103.875 25C103.31 25 102.891 25.0091 102.617 25.0273C101.924 25.0273 101.414 25.0365 101.086 25.0547L100.32 25.1094L98.7617 25.2734C98.6523 26.8047 98.5521 27.8073 98.4609 28.2812C98.3151 29.138 98.0326 29.8307 97.6133 30.3594C97.3034 30.7604 96.8568 31.0521 96.2734 31.2344ZM103.164 38.9727C102.891 38.9727 102.626 38.7721 102.371 38.3711C102.043 37.8607 101.724 37.4414 101.414 37.1133L100.703 36.375C100.32 36.8125 99.9831 37.1589 99.6914 37.4141C99.418 37.6693 99.0716 37.9154 98.6523 38.1523C97.8685 38.6081 97.2122 38.8359 96.6836 38.8359C96.556 38.8359 96.4922 38.7904 96.4922 38.6992C96.4922 38.6445 96.6654 38.526 97.0117 38.3438C97.3581 38.1615 97.6862 37.9427 97.9961 37.6875C98.7799 37.0312 99.4271 36.3568 99.9375 35.6641C99.8281 35.5547 99.2812 35.0807 98.2969 34.2422C98.1693 34.151 97.9779 33.9961 97.7227 33.7773C97.668 33.7409 97.5586 33.6589 97.3945 33.5312C97.2305 33.4036 97.1484 33.3125 97.1484 33.2578C97.1484 33.1667 97.194 33.1211 97.2852 33.1211C97.5586 33.1211 97.9961 33.3125 98.5977 33.6953C99.1992 34.0599 99.8281 34.4974 100.484 35.0078C100.74 34.6979 100.94 34.4062 101.086 34.1328C101.232 33.8594 101.396 33.5221 101.578 33.1211C101.669 32.9206 101.724 32.7474 101.742 32.6016C101.76 32.4375 101.77 32.3372 101.77 32.3008C101.77 32.1003 101.824 32 101.934 32C102.061 32 102.234 32.1003 102.453 32.3008C102.836 32.6654 103.027 32.9115 103.027 33.0391C103.027 33.112 102.982 33.194 102.891 33.2852C102.672 33.5039 102.471 33.7956 102.289 34.1602C102.18 34.3789 101.979 34.6888 101.688 35.0898C101.596 35.1992 101.523 35.2995 101.469 35.3906C101.414 35.4818 101.359 35.5638 101.305 35.6367C101.724 35.9466 102.344 36.4753 103.164 37.2227C103.365 37.4049 103.492 37.5781 103.547 37.7422C103.62 37.888 103.656 38.0885 103.656 38.3438C103.656 38.526 103.611 38.681 103.52 38.8086C103.428 38.918 103.31 38.9727 103.164 38.9727ZM102.508 47.2578C102.435 47.2578 102.353 47.2214 102.262 47.1484C102.171 47.0938 102.052 47.0026 101.906 46.875C101.268 46.3828 100.648 45.6445 100.047 44.6602C99.4453 43.6758 99.0169 42.6094 98.7617 41.4609C98.7435 41.3516 98.7161 41.224 98.6797 41.0781C98.6432 40.9323 98.6068 40.8229 98.5703 40.75C98.5703 40.7318 98.543 40.7227 98.4883 40.7227C98.3607 40.7227 98.1146 40.8047 97.75 40.9688C97.6406 41.0234 97.5312 41.1055 97.4219 41.2148C97.3307 41.306 97.2305 41.3424 97.1211 41.3242C97.0482 41.3242 96.9479 41.2786 96.8203 41.1875C96.6927 41.0964 96.6016 41.0143 96.5469 40.9414C96.3646 40.6862 96.2734 40.5312 96.2734 40.4766C96.2734 40.3672 96.3737 40.3034 96.5742 40.2852C96.8477 40.2852 97.0208 40.276 97.0938 40.2578C97.6224 40.1849 98.1237 40.0664 98.5977 39.9023C98.6706 39.8841 98.7708 39.8294 98.8984 39.7383C98.9167 39.7383 98.944 39.7292 98.9805 39.7109C99.0352 39.6927 99.099 39.7109 99.1719 39.7656C99.4453 39.9479 99.582 40.0846 99.582 40.1758C99.582 41.4518 99.9466 42.6458 100.676 43.7578C101.405 44.8698 102.471 45.8086 103.875 46.5742C103.948 46.6107 104.039 46.6471 104.148 46.6836C104.258 46.7201 104.312 46.7747 104.312 46.8477C104.312 46.9388 104.012 47.0208 103.41 47.0938L102.727 47.2031L102.508 47.2578ZM108.742 35.0898C108.961 35.0898 109.07 35.1901 109.07 35.3906C109.07 35.5 108.97 35.6549 108.77 35.8555C108.223 36.5299 107.138 37.8151 105.516 39.7109C105.388 39.875 105.27 39.957 105.16 39.957C105.069 39.957 104.868 39.8203 104.559 39.5469C104.303 39.3281 104.176 39.1458 104.176 39C104.176 38.8359 104.312 38.681 104.586 38.5352C105.005 38.2982 105.634 37.8242 106.473 37.1133C107.311 36.3659 107.931 35.7734 108.332 35.3359C108.496 35.1719 108.633 35.0898 108.742 35.0898ZM78.8555 33.2852C79.2201 33.2487 79.6576 33.194 80.168 33.1211L81.125 32.9844C81.2708 32.9661 81.5534 32.9023 81.9727 32.793L83.0664 32.5195L83.5859 32.4102C83.7865 32.4284 83.9779 32.4648 84.1602 32.5195L84.7891 32.8203C85.0625 32.9479 85.2721 33.1029 85.418 33.2852L85.4727 33.8047C85.2539 34.0052 85.0716 34.2695 84.9258 34.5977C84.7799 34.9258 84.6706 35.1992 84.5977 35.418C84.5247 35.6367 84.4518 35.8919 84.3789 36.1836L84.1602 37.1133C84.2513 37.1862 84.3424 37.2682 84.4336 37.3594L84.543 37.5508C84.5065 37.6602 84.3971 37.7331 84.2148 37.7695H83.5586L80.4961 38.0977L79.9219 38.1523L79.457 38.0977C79.457 38.3164 79.4206 38.5078 79.3477 38.6719C79.293 38.8359 79.1654 38.9271 78.9648 38.9453L78.6914 38.6719C78.5638 38.4714 78.4727 38.2435 78.418 37.9883L77.9258 35.0625L77.7344 34.4609L77.5156 33.832L77.0234 33.0664C77.0599 32.957 77.2148 32.9115 77.4883 32.9297L78.0625 33.0664L78.582 33.1758L78.8555 33.2852ZM79.4023 37.25L82.793 36.7852L83.3398 33.8594L83.3125 33.6133C83.2578 33.4857 83.1211 33.4128 82.9023 33.3945C82.7565 33.3945 82.5378 33.4219 82.2461 33.4766L81.0977 33.6406L79.6758 33.8594L79.0469 33.9414L79.4023 37.25ZM75.0273 43.457L74.9453 44.0586C74.9271 44.2409 74.8724 44.3958 74.7812 44.5234C74.6901 44.6693 74.4987 44.724 74.207 44.6875C74.043 44.5599 73.9336 44.4232 73.8789 44.2773C73.8424 44.1315 73.7878 43.931 73.7148 43.6758C73.6602 43.4023 73.6237 43.2018 73.6055 43.0742L72.8945 34.0508C72.8581 33.5951 72.7943 33.1393 72.7031 32.6836C72.6302 32.2096 72.5482 31.7448 72.457 31.2891C72.3477 30.8333 72.2383 30.487 72.1289 30.25L71.6914 29.457L71.6094 29.1289C71.6823 29.0195 71.8281 28.9648 72.0469 28.9648C72.2292 28.9648 72.4935 29.0104 72.8398 29.1016L73.6328 29.3477L83.75 28.3906L85.1719 28.2539C86.1016 28.1445 86.7852 28.0534 87.2227 27.9805C87.6966 27.9258 88.1706 27.8438 88.6445 27.7344C89.1185 27.625 89.4284 27.5612 89.5742 27.543C89.7747 27.543 90.0117 27.5885 90.2852 27.6797C90.5404 27.7708 90.8229 27.9258 91.1328 28.1445C91.4427 28.3633 91.7435 28.6003 92.0352 28.8555L92.4727 29.3203C92.4727 29.5208 92.4362 29.694 92.3633 29.8398L92.1445 30.2227C92.0352 30.4049 91.944 30.5964 91.8711 30.7969C91.7982 30.9974 91.7253 31.2526 91.6523 31.5625C91.5794 31.8724 91.5247 32.1549 91.4883 32.4102L90.9141 36.9766L90.668 39.3008C90.5768 39.957 90.4583 40.668 90.3125 41.4336C90.1849 42.1992 90.0208 42.8555 89.8203 43.4023C89.638 43.9492 89.4193 44.4323 89.1641 44.8516C88.8906 45.2708 88.6445 45.5352 88.4258 45.6445L87.9883 45.7539C87.7878 45.7174 87.6328 45.5716 87.5234 45.3164C87.4141 45.0612 87.2956 44.7422 87.168 44.3594L86.9219 43.7305L86.5664 42.8555C85.8919 42.8919 85.4362 42.9102 85.1992 42.9102C84.9622 42.9284 84.4518 42.9648 83.668 43.0195L80.4141 43.2383C79.0286 43.3112 78.026 43.3659 77.4062 43.4023C76.7682 43.4388 76.3125 43.457 76.0391 43.457H75.0273ZM74.9727 42.3086C75.5195 42.3086 75.9297 42.2995 76.2031 42.2812L78.1992 42.1445L80.5508 42.0078C81.0977 41.9714 81.8177 41.9076 82.7109 41.8164C83.6042 41.7435 84.2331 41.6888 84.5977 41.6523L85.6914 41.5977C85.8737 41.5794 86.0286 41.5703 86.1562 41.5703L86.4023 41.5977C86.5846 41.6159 86.7669 41.6706 86.9492 41.7617C87.1315 41.8346 87.3138 41.9258 87.4961 42.0352L87.8242 42.1992C87.9336 42.181 88.043 42.0078 88.1523 41.6797C88.2617 41.3516 88.3529 41.0326 88.4258 40.7227C88.5169 40.431 88.6172 39.9297 88.7266 39.2188C88.8542 38.5078 88.9362 37.888 88.9727 37.3594L89.3008 34.2695C89.3372 33.7409 89.3737 33.3034 89.4102 32.957C89.4284 32.6107 89.4466 32.1003 89.4648 31.4258L89.5195 30.1953C89.5195 29.849 89.4831 29.6029 89.4102 29.457C89.3372 29.3659 89.2096 29.2839 89.0273 29.2109C88.918 29.138 88.6536 29.1107 88.2344 29.1289L86.6758 29.1836C85.8372 29.2201 85.0898 29.2747 84.4336 29.3477L81.4805 29.6484L78.5547 29.9492L75.4648 30.332L74.0977 30.4961C74.1706 31.5169 74.2344 32.319 74.2891 32.9023C74.3438 33.5039 74.4258 34.4883 74.5352 35.8555C74.6445 37.2044 74.7174 38.207 74.7539 38.8633L74.918 41.1055L74.9727 42.3086Z" fill="#333333"/>
<path d="M145.984 28.418C145.984 28.819 145.966 29.2018 145.93 29.5664L145.875 31.0977C145.857 31.5169 145.802 32.2188 145.711 33.2031C145.693 33.4948 145.602 33.7227 145.438 33.8867C145.292 34.0508 145.155 34.1328 145.027 34.1328C144.882 34.1146 144.754 33.987 144.645 33.75C144.553 33.4948 144.526 33.2396 144.562 32.9844C144.581 32.8385 144.635 32.237 144.727 31.1797C144.763 30.0495 144.745 29.293 144.672 28.9102C144.654 28.7826 144.526 28.7005 144.289 28.6641H143.523L142.266 28.7734C142.01 28.7917 141.628 28.8464 141.117 28.9375C140.625 29.0286 140.224 29.1107 139.914 29.1836C139.896 29.8034 139.905 30.5872 139.941 31.5352L140.051 33.3945C140.051 33.5586 140.005 33.7044 139.914 33.832C139.841 33.9596 139.75 34.0234 139.641 34.0234C139.422 34.0234 139.249 33.8776 139.121 33.5859C139.012 33.3672 138.957 33.1211 138.957 32.8477L138.93 32.3828L138.875 30.8242C138.875 30.3685 138.857 29.7214 138.82 28.8828C138.82 28.737 138.811 28.6276 138.793 28.5547C138.775 28.4818 138.766 28.4362 138.766 28.418C138.747 28.3633 138.738 28.2995 138.738 28.2266C138.738 28.0807 138.811 28.0078 138.957 28.0078C139.066 28.0078 139.158 28.026 139.23 28.0625L139.723 28.2266C139.923 28.1901 140.096 28.1628 140.242 28.1445C140.406 28.1263 140.525 28.1081 140.598 28.0898C141.436 27.9622 142.475 27.8711 143.715 27.8164C144.171 27.8164 144.49 27.7708 144.672 27.6797C144.69 27.6615 144.727 27.6432 144.781 27.625C144.854 27.5885 144.909 27.5794 144.945 27.5977L145.219 27.6797C145.292 27.6979 145.365 27.7344 145.438 27.7891C145.51 27.8255 145.574 27.8711 145.629 27.9258C145.866 28.1628 145.984 28.3268 145.984 28.418ZM145.164 43.8945C144.891 43.8945 144.626 43.694 144.371 43.293C144.043 42.7826 143.724 42.3633 143.414 42.0352L142.703 41.2969C142.32 41.7344 141.983 42.0807 141.691 42.3359C141.418 42.5911 141.072 42.8372 140.652 43.0742C139.868 43.5299 139.212 43.7578 138.684 43.7578C138.556 43.7578 138.492 43.7122 138.492 43.6211C138.492 43.5664 138.665 43.4479 139.012 43.2656C139.358 43.0833 139.686 42.8646 139.996 42.6094C140.78 41.9531 141.427 41.2786 141.938 40.5859C141.828 40.4766 141.281 40.0026 140.297 39.1641C140.169 39.0729 139.978 38.918 139.723 38.6992C139.668 38.6628 139.559 38.5807 139.395 38.4531C139.23 38.3255 139.148 38.2344 139.148 38.1797C139.148 38.0885 139.194 38.043 139.285 38.043C139.559 38.043 139.996 38.2344 140.598 38.6172C141.199 38.9818 141.828 39.4193 142.484 39.9297C142.74 39.6198 142.94 39.3281 143.086 39.0547C143.232 38.7812 143.396 38.444 143.578 38.043C143.669 37.8424 143.724 37.6693 143.742 37.5234C143.76 37.3594 143.77 37.2591 143.77 37.2227C143.77 37.0221 143.824 36.9219 143.934 36.9219C144.061 36.9219 144.234 37.0221 144.453 37.2227C144.836 37.5872 145.027 37.8333 145.027 37.9609C145.027 38.0339 144.982 38.1159 144.891 38.207C144.672 38.4258 144.471 38.7174 144.289 39.082C144.18 39.3008 143.979 39.6107 143.688 40.0117C143.596 40.1211 143.523 40.2214 143.469 40.3125C143.414 40.4036 143.359 40.4857 143.305 40.5586C143.724 40.8685 144.344 41.3971 145.164 42.1445C145.365 42.3268 145.492 42.5 145.547 42.6641C145.62 42.8099 145.656 43.0104 145.656 43.2656C145.656 43.4479 145.611 43.6029 145.52 43.7305C145.428 43.8398 145.31 43.8945 145.164 43.8945ZM147.242 34.2695C147.333 34.2695 147.47 34.3333 147.652 34.4609C147.634 34.4974 147.671 34.5703 147.762 34.6797C147.853 34.7708 147.917 34.8346 147.953 34.8711C148.044 34.9622 148.135 35.0716 148.227 35.1992C148.336 35.3268 148.454 35.4635 148.582 35.6094C148.91 35.9557 149.667 36.8581 150.852 38.3164C151.052 38.6081 151.152 38.7812 151.152 38.8359C151.152 39.0182 151.043 39.1094 150.824 39.1094C150.697 39.1094 150.56 39.0182 150.414 38.8359C150.068 38.4714 149.448 37.8971 148.555 37.1133C147.862 36.4753 147.233 35.9831 146.668 35.6367C146.395 35.5091 146.258 35.3633 146.258 35.1992C146.258 35.0716 146.395 34.8893 146.668 34.6523C146.923 34.3971 147.115 34.2695 147.242 34.2695ZM119.734 27.9805L123.289 27.4609C123.799 27.388 124.182 27.3242 124.438 27.2695C124.729 27.2148 125.203 27.1055 125.859 26.9414C126.516 26.7956 127.008 26.668 127.336 26.5586C127.609 26.4857 127.828 26.4492 127.992 26.4492C128.211 26.4492 128.448 26.513 128.703 26.6406C128.958 26.7682 129.214 26.9141 129.469 27.0781C129.724 27.2422 129.934 27.4154 130.098 27.5977C130.243 27.7799 130.326 27.9531 130.344 28.1172L130.152 28.7461C130.061 29.0195 129.997 29.2292 129.961 29.375C129.924 29.5391 129.897 29.8034 129.879 30.168C129.861 30.5326 129.852 30.7969 129.852 30.9609L129.742 35.9102C129.742 36.6211 129.779 37.4596 129.852 38.4258C129.924 39.556 130.007 40.4674 130.098 41.1602C130.171 41.6706 130.198 42.1445 130.18 42.582C130.161 43.056 130.079 43.4935 129.934 43.8945C129.77 44.2956 129.587 44.6237 129.387 44.8789C129.186 45.1341 128.995 45.2982 128.812 45.3711L128.484 45.4805C128.339 45.4805 128.229 45.4349 128.156 45.3438C128.083 45.2526 128.01 45.0977 127.938 44.8789C127.865 44.6602 127.773 44.4414 127.664 44.2227L127.281 43.5117L125.039 43.7305C124.31 43.7852 123.298 43.849 122.004 43.9219L120.445 44.0859H119.352L119.188 44.7148C119.151 44.9336 118.996 45.0156 118.723 44.9609C118.486 44.7422 118.294 44.5143 118.148 44.2773C118.021 44.0221 117.911 43.7578 117.82 43.4844C117.711 43.2109 117.656 42.9375 117.656 42.6641C117.656 42.5182 117.711 42.2357 117.82 41.8164C117.93 41.3789 118.03 40.7865 118.121 40.0391C118.212 39.2917 118.276 38.6901 118.312 38.2344L118.477 31.9453V30.7422L118.422 30.1133C118.404 29.6758 118.367 29.375 118.312 29.2109C118.24 29.0651 118.13 28.8919 117.984 28.6914L117.738 28.2539C117.757 28.0898 117.921 27.9531 118.23 27.8438L119.078 27.9258L119.734 27.9805ZM119.461 42.9102C120.172 42.8737 120.792 42.8281 121.32 42.7734L122.961 42.6094C123.544 42.5547 124.201 42.4727 124.93 42.3633C125.659 42.2721 126.188 42.2174 126.516 42.1992C126.698 42.181 126.853 42.1719 126.98 42.1719L127.336 42.1992L127.91 42.3633C127.928 41.6523 127.956 41.1146 127.992 40.75L128.102 38.8633L128.156 37.8242C127.354 37.8971 126.771 37.9518 126.406 37.9883L124.328 38.2344L122.059 38.4805C121.694 38.5352 121.339 38.5716 120.992 38.5898C120.828 38.6081 120.682 38.6172 120.555 38.6172H120.281L119.734 38.5078L119.461 42.9102ZM119.789 37.6328C120.409 37.5781 120.883 37.5326 121.211 37.4961C121.576 37.4596 122.104 37.3867 122.797 37.2773C123.49 37.1862 124.073 37.1042 124.547 37.0312C125.003 36.9766 125.458 36.8945 125.914 36.7852C126.352 36.7122 126.661 36.6576 126.844 36.6211C127.208 36.6211 127.518 36.6576 127.773 36.7305L128.156 36.8398V33.1758C127.536 33.2669 126.98 33.3398 126.488 33.3945C125.996 33.4674 125.54 33.5312 125.121 33.5859C124.684 33.6406 124.064 33.7135 123.262 33.8047L121.348 34.0234C121.001 34.0599 120.737 34.0781 120.555 34.0781L119.898 33.9961L119.789 37.6328ZM119.926 33.0938C120.564 33.0026 121.147 32.9297 121.676 32.875C122.204 32.8021 122.578 32.7474 122.797 32.7109L124.383 32.4648C125.148 32.3555 125.723 32.2461 126.105 32.1367L126.898 32.0273C127.227 32.0091 127.482 32.0273 127.664 32.082L128.184 32.2461L128.156 29.5391L128.129 29.0195C128.111 28.7461 128.074 28.5547 128.02 28.4453C127.965 28.3359 127.883 28.2539 127.773 28.1992C127.664 28.1263 127.427 28.0898 127.062 28.0898L126.133 28.0352C125.987 28.0352 125.668 28.0625 125.176 28.1172L123.727 28.2539C123.471 28.2904 123.007 28.3815 122.332 28.5273C121.658 28.6732 121.193 28.7643 120.938 28.8008L120.09 28.9102L119.926 33.0938Z" fill="#333333"/>
<path d="M184.84 34.9531C184.548 34.9531 184.366 34.8711 184.293 34.707C184.202 34.4883 184.111 34.306 184.02 34.1602C183.928 33.9961 183.764 33.8047 183.527 33.5859L183.582 33.4766C184.238 33.7135 184.667 33.832 184.867 33.832C185.013 33.832 185.122 33.8047 185.195 33.75C185.268 33.6953 185.387 33.5677 185.551 33.3672C185.788 33.112 186.007 32.7201 186.207 32.1914C186.48 31.4076 186.654 30.5964 186.727 29.7578V29.6758C186.727 29.5664 186.708 29.4935 186.672 29.457C186.435 29.457 185.806 29.5117 184.785 29.6211C184.22 31.0247 183.564 32.1823 182.816 33.0938C182.087 33.987 181.422 34.4336 180.82 34.4336C180.674 34.4336 180.602 34.3789 180.602 34.2695C180.602 34.2331 180.784 34.0234 181.148 33.6406C181.513 33.2578 181.914 32.7565 182.352 32.1367C182.807 31.4987 183.236 30.7148 183.637 29.7852C183.546 29.7852 183.281 29.8034 182.844 29.8398C182.406 29.8763 182.033 29.9401 181.723 30.0312C181.577 30.1406 181.422 30.1589 181.258 30.0859C181.258 30.0859 181.24 30.0768 181.203 30.0586C181.167 30.0404 181.13 30.013 181.094 29.9766C180.966 29.9036 180.857 29.8125 180.766 29.7031C180.693 29.5755 180.656 29.457 180.656 29.3477C180.656 29.293 180.702 29.2201 180.793 29.1289L181.121 28.6914C181.23 28.5456 181.331 28.3359 181.422 28.0625C181.513 27.7708 181.559 27.5247 181.559 27.3242C181.559 27.1966 181.549 27.1146 181.531 27.0781C181.513 27.0417 181.504 26.9961 181.504 26.9414C181.504 26.8503 181.549 26.8047 181.641 26.8047C181.75 26.8047 181.905 26.8685 182.105 26.9961C182.16 27.0326 182.26 27.1055 182.406 27.2148C182.57 27.306 182.661 27.4154 182.68 27.543C182.68 27.6706 182.607 27.8802 182.461 28.1719L182.105 28.8008C182.069 28.8555 182.051 28.9193 182.051 28.9922C182.051 29.0469 182.069 29.0924 182.105 29.1289C182.16 29.1471 182.224 29.1471 182.297 29.1289L183.938 28.9102C184.12 28.4362 184.266 27.9349 184.375 27.4062V27.2422V26.7773C184.375 26.5768 184.43 26.4948 184.539 26.5312C184.776 26.5859 184.967 26.6589 185.113 26.75C185.387 26.9141 185.523 27.0508 185.523 27.1602C185.523 27.2513 185.487 27.4062 185.414 27.625C185.359 27.8255 185.314 27.9805 185.277 28.0898C185.259 28.1628 185.177 28.3997 185.031 28.8008C185.086 28.8008 185.423 28.7643 186.043 28.6914L186.316 28.6367C186.371 28.6367 186.471 28.6185 186.617 28.582C186.654 28.5638 186.699 28.5547 186.754 28.5547C186.973 28.5547 187.109 28.5638 187.164 28.582C187.237 28.6003 187.346 28.6549 187.492 28.7461C187.656 28.8555 187.766 28.9648 187.82 29.0742C187.875 29.1836 187.893 29.3112 187.875 29.457L187.711 30.3594L187.52 31.3438C187.52 31.4167 187.456 31.6536 187.328 32.0547C187.201 32.4557 187.055 32.8112 186.891 33.1211C186.581 33.7409 186.216 34.2057 185.797 34.5156C185.432 34.8073 185.113 34.9531 184.84 34.9531ZM187.164 43.8945C186.891 43.8945 186.626 43.694 186.371 43.293C186.043 42.7826 185.724 42.3633 185.414 42.0352L184.703 41.2969C184.32 41.7344 183.983 42.0807 183.691 42.3359C183.418 42.5911 183.072 42.8372 182.652 43.0742C181.868 43.5299 181.212 43.7578 180.684 43.7578C180.556 43.7578 180.492 43.7122 180.492 43.6211C180.492 43.5664 180.665 43.4479 181.012 43.2656C181.358 43.0833 181.686 42.8646 181.996 42.6094C182.78 41.9531 183.427 41.2786 183.938 40.5859C183.828 40.4766 183.281 40.0026 182.297 39.1641C182.169 39.0729 181.978 38.918 181.723 38.6992C181.668 38.6628 181.559 38.5807 181.395 38.4531C181.23 38.3255 181.148 38.2344 181.148 38.1797C181.148 38.0885 181.194 38.043 181.285 38.043C181.559 38.043 181.996 38.2344 182.598 38.6172C183.199 38.9818 183.828 39.4193 184.484 39.9297C184.74 39.6198 184.94 39.3281 185.086 39.0547C185.232 38.7812 185.396 38.444 185.578 38.043C185.669 37.8424 185.724 37.6693 185.742 37.5234C185.76 37.3594 185.77 37.2591 185.77 37.2227C185.77 37.0221 185.824 36.9219 185.934 36.9219C186.061 36.9219 186.234 37.0221 186.453 37.2227C186.836 37.5872 187.027 37.8333 187.027 37.9609C187.027 38.0339 186.982 38.1159 186.891 38.207C186.672 38.4258 186.471 38.7174 186.289 39.082C186.18 39.3008 185.979 39.6107 185.688 40.0117C185.596 40.1211 185.523 40.2214 185.469 40.3125C185.414 40.4036 185.359 40.4857 185.305 40.5586C185.724 40.8685 186.344 41.3971 187.164 42.1445C187.365 42.3268 187.492 42.5 187.547 42.6641C187.62 42.8099 187.656 43.0104 187.656 43.2656C187.656 43.4479 187.611 43.6029 187.52 43.7305C187.428 43.8398 187.31 43.8945 187.164 43.8945ZM189.242 34.2695C189.333 34.2695 189.47 34.3333 189.652 34.4609C189.634 34.4974 189.671 34.5703 189.762 34.6797C189.853 34.7708 189.917 34.8346 189.953 34.8711C190.044 34.9622 190.135 35.0716 190.227 35.1992C190.336 35.3268 190.454 35.4635 190.582 35.6094C190.91 35.9557 191.667 36.8581 192.852 38.3164C193.052 38.6081 193.152 38.7812 193.152 38.8359C193.152 39.0182 193.043 39.1094 192.824 39.1094C192.697 39.1094 192.56 39.0182 192.414 38.8359C192.068 38.4714 191.448 37.8971 190.555 37.1133C189.862 36.4753 189.233 35.9831 188.668 35.6367C188.395 35.5091 188.258 35.3633 188.258 35.1992C188.258 35.0716 188.395 34.8893 188.668 34.6523C188.923 34.3971 189.115 34.2695 189.242 34.2695ZM157.277 33.1211C157.861 33.0482 158.362 32.9753 158.781 32.9023C159.219 32.8477 159.647 32.7656 160.066 32.6562L161.023 32.4102C161.315 32.3372 161.534 32.2734 161.68 32.2188L161.926 32.1367C162.053 32.1185 162.227 32.1549 162.445 32.2461C162.682 32.319 162.874 32.4193 163.02 32.5469L163.211 32.8203C163.193 32.9661 163.047 33.0846 162.773 33.1758C162.518 33.2487 162.19 33.3216 161.789 33.3945L160.285 33.668L160.531 33.7773C160.677 33.832 160.805 33.8958 160.914 33.9688L161.023 34.5156C160.932 34.8073 160.868 35.1536 160.832 35.5547L160.805 36.0742L161.188 35.9648L161.598 35.8008C161.762 35.7461 161.898 35.7096 162.008 35.6914C162.154 35.6914 162.354 35.7096 162.609 35.7461L163.02 35.8555C163.22 35.9102 163.375 35.974 163.484 36.0469L163.648 36.2109L163.594 36.457C163.484 36.5299 163.375 36.5846 163.266 36.6211L163.02 36.7031L160.777 37.168L160.586 42.0898L163.703 41.0508L163.922 40.9961C164.086 40.9961 164.186 41.069 164.223 41.2148C164.241 41.3789 164.141 41.5065 163.922 41.5977L158.453 44.0039C158.307 44.0768 158.079 44.2044 157.77 44.3867L157.25 44.6875L156.867 44.9883L156.512 45.1523C156.348 45.1523 156.156 45.0794 155.938 44.9336C155.682 44.7878 155.482 44.6602 155.336 44.5508C155.19 44.4414 155.035 44.2956 154.871 44.1133C154.707 43.9674 154.561 43.7396 154.434 43.4297C154.488 43.3021 154.634 43.2383 154.871 43.2383H156.102L156.594 43.1562L157.113 43.0742L159.328 42.4453L159.273 37.5508L157.906 37.8242L157.332 37.9336C157.168 37.9336 156.94 37.9154 156.648 37.8789C156.357 37.8242 156.138 37.7422 155.992 37.6328L155.801 37.3867C155.819 37.2591 155.919 37.168 156.102 37.1133L156.648 37.0312L159.246 36.5117L159.219 35.8828C159.219 35.6458 159.21 35.4362 159.191 35.2539C159.173 35.0716 159.128 34.8711 159.055 34.6523L158.863 34.0781C158.626 34.0234 158.417 33.9961 158.234 33.9961C158.089 33.9961 157.906 33.9688 157.688 33.9141C157.469 33.8411 157.305 33.7773 157.195 33.7227L156.867 33.5312C156.539 33.8776 156.275 34.1237 156.074 34.2695C155.892 34.4518 155.546 34.7344 155.035 35.1172C154.525 35.5 154.197 35.7279 154.051 35.8008H153.367L153.695 35.418L154.461 34.625L155.418 33.4219C155.837 32.8932 156.202 32.401 156.512 31.9453C156.822 31.4896 157.186 30.888 157.605 30.1406C158.025 29.4115 158.326 28.8555 158.508 28.4727C158.69 28.1081 158.854 27.707 159 27.2695C159.146 26.8685 159.237 26.5768 159.273 26.3945L159.328 25.9023C159.365 25.6836 159.383 25.4466 159.383 25.1914L159.574 24.8633C159.72 24.8451 159.875 24.8815 160.039 24.9727C160.185 25.0456 160.367 25.1549 160.586 25.3008C160.805 25.4466 160.987 25.5742 161.133 25.6836C161.279 25.8112 161.397 25.9479 161.488 26.0938L161.598 26.3945C161.579 26.5039 161.516 26.6133 161.406 26.7227L161.16 27.0508L161.352 27.2422C161.497 27.2969 161.661 27.3516 161.844 27.4062C162.026 27.4609 162.336 27.5885 162.773 27.7891C163.211 27.9896 163.548 28.1628 163.785 28.3086C164.022 28.4544 164.186 28.6276 164.277 28.8281C164.368 29.0104 164.423 29.2383 164.441 29.5117C164.441 29.7122 164.378 29.8945 164.25 30.0586C164.122 30.2409 163.958 30.332 163.758 30.332C163.612 30.332 163.466 30.2865 163.32 30.1953C163.174 30.0859 163.01 29.9401 162.828 29.7578L161.953 28.8008L161.105 27.8711L160.887 27.543L160.723 27.8164L159.875 29.3477C159.656 29.7487 159.301 30.3229 158.809 31.0703C158.316 31.8177 157.943 32.3372 157.688 32.6289L157.277 33.1211ZM171.223 31.0977L168.625 31.6719C168.497 31.7083 168.242 31.7904 167.859 31.918C167.477 32.0273 167.203 32.1276 167.039 32.2188L166.738 32.3281C166.556 32.3281 166.419 32.2643 166.328 32.1367C166.255 32.0273 166.146 31.7904 166 31.4258C165.872 31.1706 165.863 30.9245 165.973 30.6875C166.21 30.5234 166.392 30.3867 166.52 30.2773C166.665 30.1497 166.802 30.013 166.93 29.8672L167.477 29.0195C167.714 28.6185 167.896 28.2904 168.023 28.0352C168.169 27.7617 168.315 27.4336 168.461 27.0508C168.625 26.668 168.762 26.3216 168.871 26.0117C168.962 25.7018 169.017 25.4375 169.035 25.2188L169.062 24.8086L169.309 24.5352C169.418 24.5169 169.527 24.5352 169.637 24.5898C169.764 24.6445 169.974 24.7721 170.266 24.9727C170.557 25.1549 170.74 25.3372 170.812 25.5195L170.867 25.875C170.831 26.0026 170.721 26.1667 170.539 26.3672C170.357 26.5677 170.22 26.7591 170.129 26.9414L169.883 27.3789C170.521 27.2878 170.995 27.1966 171.305 27.1055L172.207 26.8867C172.663 26.7773 173.018 26.668 173.273 26.5586L173.711 26.3945C173.875 26.3763 174.076 26.4128 174.312 26.5039C174.568 26.6133 174.796 26.7318 174.996 26.8594C175.197 27.0052 175.37 27.1602 175.516 27.3242L175.68 27.7617L175.379 27.9805C175.197 28.0898 175.005 28.2174 174.805 28.3633C174.586 28.5273 174.395 28.7096 174.23 28.9102C174.048 29.0924 173.802 29.4115 173.492 29.8672L172.152 31.6992L170.648 33.6406L171.961 33.5039L173.875 33.3398L175.133 33.1758C175.534 33.1029 175.871 33.0391 176.145 32.9844C176.4 32.9297 176.591 32.9023 176.719 32.9023C176.901 32.9206 177.156 33.0117 177.484 33.1758C177.812 33.3216 178.04 33.4401 178.168 33.5312C178.296 33.6224 178.432 33.75 178.578 33.9141L178.633 34.3516C178.451 34.4427 178.195 34.4883 177.867 34.4883H176.883L174.285 34.4609C173.72 34.4609 172.909 34.4883 171.852 34.543L170.648 34.5977C170.867 34.707 171.031 34.8164 171.141 34.9258L171.305 35.2266L171.168 35.6914L171.086 36.457L171.031 37.0859V37.6602L171.168 43.6758C171.186 43.8945 171.195 44.1042 171.195 44.3047C171.195 44.5052 171.186 44.7057 171.168 44.9062C171.15 45.2708 171.095 45.6354 171.004 46C170.913 46.3646 170.794 46.6654 170.648 46.9023C170.503 47.1393 170.293 47.3672 170.02 47.5859C169.764 47.7865 169.555 47.8867 169.391 47.8867C169.245 47.8503 169.108 47.7591 168.98 47.6133C168.853 47.4674 168.671 47.2396 168.434 46.9297C168.197 46.6016 167.969 46.3008 167.75 46.0273L167.148 45.3984L167.121 45.0156L167.859 45.1797L168.461 45.3164L168.871 45.3984C169.072 45.3802 169.227 45.3164 169.336 45.207C169.427 45.0977 169.5 44.8789 169.555 44.5508L169.664 43.7305C169.701 43.293 169.719 42.9284 169.719 42.6367L169.637 37.3047C169.618 36.849 169.6 36.457 169.582 36.1289C169.546 35.8008 169.5 35.5638 169.445 35.418L169.172 34.7617C168.625 34.8164 168.279 34.8529 168.133 34.8711C167.987 34.9076 167.568 34.9805 166.875 35.0898L165.836 35.3086C165.417 35.3815 165.125 35.418 164.961 35.418C164.833 35.3997 164.642 35.3542 164.387 35.2812L163.703 35.0352C163.521 34.9258 163.375 34.8164 163.266 34.707L163.32 34.3789L163.922 34.2695L165.398 34.1328L166.984 34.0508C167.221 34.0143 167.732 33.9505 168.516 33.8594L169.828 33.6953L171.223 31.0977ZM171.578 30.332L172.344 28.6914L172.48 28.2266C172.426 28.099 172.262 28.0352 171.988 28.0352L169.281 28.1992L167.996 30.1953L167.832 30.7969C168.014 30.7969 168.197 30.7878 168.379 30.7695L171.578 30.332ZM155.938 39.0273C156.047 39.0091 156.156 39.0182 156.266 39.0547C156.448 39.1276 156.621 39.1914 156.785 39.2461C156.967 39.319 157.132 39.3828 157.277 39.4375L157.605 39.6289C157.77 39.7383 157.906 39.875 158.016 40.0391C158.107 40.2031 158.161 40.4492 158.18 40.7773C158.18 41.0508 158.134 41.2695 158.043 41.4336C157.934 41.6523 157.788 41.7708 157.605 41.7891C157.441 41.7891 157.25 41.6706 157.031 41.4336C156.922 41.3242 156.767 41.1055 156.566 40.7773C156.366 40.4674 156.202 40.2031 156.074 39.9844C155.947 39.7839 155.865 39.6016 155.828 39.4375L155.773 39.2188L155.938 39.0273ZM162.363 40.4219L161.898 40.8047L161.57 40.6953L161.844 40.0664L162.09 39.6289C162.126 39.5195 162.19 39.319 162.281 39.0273C162.391 38.7357 162.454 38.4805 162.473 38.2617L162.719 37.7148C162.828 37.6966 162.947 37.7148 163.074 37.7695C163.257 37.8789 163.411 37.9792 163.539 38.0703C163.685 38.1615 163.812 38.2617 163.922 38.3711C164.031 38.4805 164.077 38.6992 164.059 39.0273L163.648 39.3008L163.32 39.5742C163.138 39.7201 162.947 39.8841 162.746 40.0664C162.546 40.2669 162.418 40.3854 162.363 40.4219ZM172.645 39.1914L172.234 39.0273L172.59 38.5898C172.717 38.444 172.872 38.2344 173.055 37.9609L173.602 37.1133C173.784 36.8216 173.921 36.5664 174.012 36.3477C174.121 36.1289 174.194 35.9284 174.23 35.7461L174.422 35.3906C174.549 35.3724 174.668 35.3815 174.777 35.418C175.051 35.5091 175.306 35.6458 175.543 35.8281C175.78 36.0286 175.99 36.2565 176.172 36.5117C176.336 36.7122 176.354 36.9583 176.227 37.25L175.68 37.4688C175.534 37.5234 175.333 37.6237 175.078 37.7695L174.148 38.3164C173.711 38.5716 173.401 38.763 173.219 38.8906C173.018 39.0182 172.827 39.1185 172.645 39.1914ZM167.367 40.9961L168.188 40.5039L168.352 40.8047L167.859 41.3789C167.786 41.4883 167.586 41.6706 167.258 41.9258C166.93 42.2174 166.556 42.582 166.137 43.0195L165.344 43.8398C165.253 43.9492 165.116 44.1224 164.934 44.3594L164.523 44.7422C164.396 44.7422 164.259 44.6966 164.113 44.6055C163.949 44.5326 163.749 44.3776 163.512 44.1406C163.275 43.9219 163.111 43.7396 163.02 43.5938L162.883 43.3203L162.938 43.1016C163.047 43.0469 163.202 43.0013 163.402 42.9648C163.603 42.9284 163.895 42.8372 164.277 42.6914L164.879 42.4453C165.043 42.3542 165.544 42.0534 166.383 41.543L167.367 40.9961ZM165.617 36.7031C166.091 36.8125 166.401 36.8945 166.547 36.9492C166.693 36.9857 166.893 37.0677 167.148 37.1953C167.422 37.3229 167.613 37.4596 167.723 37.6055C167.832 37.7513 167.905 37.9792 167.941 38.2891L167.969 38.5352C167.969 38.7721 167.932 38.9544 167.859 39.082C167.75 39.2826 167.586 39.3919 167.367 39.4102C167.185 39.4102 166.984 39.319 166.766 39.1367C166.583 38.9909 166.365 38.763 166.109 38.4531L165.672 37.9336C165.581 37.7878 165.471 37.6237 165.344 37.4414L165.125 37.0586L165.152 36.6758C165.262 36.6576 165.417 36.6667 165.617 36.7031ZM172.836 40.8594L173.492 41.0508C173.674 41.0872 174.039 41.224 174.586 41.4609C175.133 41.6797 175.552 41.862 175.844 42.0078C176.135 42.1354 176.482 42.3542 176.883 42.6641C177.284 42.9557 177.557 43.2201 177.703 43.457C177.849 43.7122 177.931 44.1042 177.949 44.6328C177.949 45.0885 177.767 45.3802 177.402 45.5078C177.184 45.5078 176.965 45.444 176.746 45.3164C176.509 45.207 176.227 44.9336 175.898 44.4961C175.552 44.0586 175.206 43.6758 174.859 43.3477C174.531 43.0013 174.076 42.5456 173.492 41.9805L172.672 41.2695L172.508 40.8594C172.617 40.8411 172.727 40.8411 172.836 40.8594Z" fill="#333333"/>
</svg>
