<svg width="135" height="70" viewBox="0 0 135 70" fill="none" xmlns="http://www.w3.org/2000/svg">
<path d="M54.2852 31.5898C54.0846 31.5898 53.8385 31.4349 53.5469 31.125C53.3281 30.9062 53.2188 30.7422 53.2188 30.6328C53.2188 30.5781 53.2552 30.5508 53.3281 30.5508C53.401 30.5326 53.4922 30.5234 53.6016 30.5234L54.2031 30.4961C54.5495 30.4961 54.7773 30.487 54.8867 30.4688C55.2331 30.4688 55.5247 30.4596 55.7617 30.4414C57.3294 30.2956 58.3867 30.1771 58.9336 30.0859C59.207 30.0495 59.4531 30.013 59.6719 29.9766C59.8906 29.9219 60.0638 29.8945 60.1914 29.8945C60.4466 29.8945 60.7018 30.0221 60.957 30.2773C61.1576 30.4779 61.2578 30.6419 61.2578 30.7695C61.2578 30.8789 61.194 30.9518 61.0664 30.9883C60.9753 31.0065 60.4375 31.043 59.4531 31.0977C58.9062 31.1159 58.2318 31.1615 57.4297 31.2344C56.6276 31.3073 55.9258 31.3802 55.3242 31.4531C55.2148 31.4714 55.0599 31.4987 54.8594 31.5352C54.6589 31.5716 54.4674 31.5898 54.2852 31.5898ZM60.7109 44.0039C60.6927 44.0221 60.6471 44.0312 60.5742 44.0312C60.4284 44.0312 60.2188 43.931 59.9453 43.7305C59.3255 43.1107 58.5143 42.3451 57.5117 41.4336C57.0378 41.9076 56.5911 42.3177 56.1719 42.6641C56.026 42.7734 55.7708 42.9375 55.4062 43.1562C54.8776 43.4661 54.3672 43.6576 53.875 43.7305H53.7109C53.5469 43.7305 53.4466 43.7122 53.4102 43.6758C53.3919 43.6576 53.4284 43.6211 53.5195 43.5664C53.6289 43.5117 53.7109 43.4661 53.7656 43.4297C53.875 43.375 54.1849 43.1745 54.6953 42.8281C54.9505 42.6458 55.3151 42.3359 55.7891 41.8984C56.263 41.4609 56.6094 41.1055 56.8281 40.832L55.707 39.957C55.5065 39.8112 55.2878 39.6562 55.0508 39.4922C54.832 39.3099 54.6771 39.1914 54.5859 39.1367L54.5586 39.0547C54.5586 38.9453 54.6497 38.8906 54.832 38.8906C55.0508 38.8906 55.4062 39.0273 55.8984 39.3008L57.293 40.2031C57.6029 39.8021 57.9128 39.3646 58.2227 38.8906C58.5508 38.3984 58.724 38.1068 58.7422 38.0156C58.7604 37.9609 58.7513 37.9154 58.7148 37.8789C58.6966 37.8242 58.6602 37.7969 58.6055 37.7969H58.0586L57.0742 37.8789C56.582 37.9154 56.0898 37.9792 55.5977 38.0703C55.543 38.0885 55.4518 38.1159 55.3242 38.1523C55.1966 38.1888 55.0872 38.207 54.9961 38.207C54.9596 38.207 54.8047 38.1068 54.5312 37.9062C54.276 37.6875 54.1393 37.5508 54.1211 37.4961C54.1029 37.4779 54.0938 37.4505 54.0938 37.4141C54.0938 37.3229 54.194 37.2865 54.3945 37.3047C54.5951 37.3047 54.7227 37.3047 54.7773 37.3047C55.2878 37.3047 56.026 37.2591 56.9922 37.168L57.9219 37.0859L58.7695 36.9766C59.043 36.9036 59.1979 36.8672 59.2344 36.8672H59.2891C59.3802 36.8672 59.4622 36.8945 59.5352 36.9492C59.6081 37.0039 59.6628 37.0586 59.6992 37.1133C59.7357 37.168 59.763 37.2044 59.7812 37.2227C59.7995 37.2409 59.8542 37.2956 59.9453 37.3867C60.0365 37.4596 60.0911 37.5326 60.1094 37.6055C60.1458 37.6602 60.1641 37.724 60.1641 37.7969C60.1641 37.9609 60.1003 38.0794 59.9727 38.1523C59.8815 38.1888 59.7174 38.3802 59.4805 38.7266C59.0794 39.3646 58.5964 40.0482 58.0312 40.7773C58.3411 40.9779 58.7422 41.2695 59.2344 41.6523C59.4531 41.7982 59.8086 42.0443 60.3008 42.3906C60.5195 42.5547 60.6836 42.7734 60.793 43.0469C60.8659 43.3385 60.9023 43.5573 60.9023 43.7031C60.8841 43.849 60.8203 43.9492 60.7109 44.0039ZM65.7422 32.082C65.9609 32.082 66.0703 32.1823 66.0703 32.3828C66.0703 32.4922 65.9701 32.6471 65.7695 32.8477C65.2227 33.5221 64.138 34.8073 62.5156 36.7031C62.388 36.8672 62.2695 36.9492 62.1602 36.9492C62.069 36.9492 61.8685 36.8125 61.5586 36.5391C61.3034 36.3203 61.1758 36.138 61.1758 35.9922C61.1758 35.8281 61.3125 35.6732 61.5859 35.5273C62.0052 35.2904 62.6341 34.8164 63.4727 34.1055C64.3112 33.3581 64.931 32.7656 65.332 32.3281C65.4961 32.1641 65.6328 32.082 65.7422 32.082ZM31.918 41.4062L33.0938 41.543C33.349 41.5794 33.668 41.6523 34.0508 41.7617C34.4336 41.8711 35.0534 42.0807 35.9102 42.3906C36.7669 42.7005 37.5326 42.9557 38.207 43.1562C38.8997 43.3568 39.6927 43.5482 40.5859 43.7305C41.4974 43.9128 42.3542 44.0586 43.1562 44.168C43.9948 44.2591 44.8698 44.332 45.7812 44.3867C46.6927 44.4232 47.5859 44.4505 48.4609 44.4688C49.3359 44.487 49.8828 44.4961 50.1016 44.4961L51.3047 44.5234C51.5599 44.5417 51.6602 44.6784 51.6055 44.9336L50.7578 45.4258C50.5391 45.5352 50.1471 45.681 49.582 45.8633L47.5586 46.5742C47.0664 46.7565 46.5924 46.9115 46.1367 47.0391C45.681 47.1667 45.3073 47.2305 45.0156 47.2305C44.651 47.2305 44.1862 47.1211 43.6211 46.9023C43.0195 46.6836 42.1263 46.319 40.9414 45.8086C39.7565 45.2982 38.8906 44.9154 38.3438 44.6602L35.8281 43.6484C35.1354 43.3568 34.6068 43.1471 34.2422 43.0195C33.8776 42.9102 33.4674 42.8099 33.0117 42.7188C32.556 42.6458 32.1276 42.6003 31.7266 42.582C31.2344 42.582 30.724 42.6185 30.1953 42.6914C29.6667 42.7643 29.2839 42.8372 29.0469 42.9102C28.8281 42.9831 28.6094 43.0742 28.3906 43.1836L27.9805 43.3477C27.8164 43.3477 27.6615 43.3021 27.5156 43.2109C27.3698 43.1198 27.2057 42.9922 27.0234 42.8281C26.8594 42.6641 26.7227 42.5182 26.6133 42.3906C26.5039 42.2448 26.4128 42.0352 26.3398 41.7617C26.3581 41.6159 26.4948 41.5247 26.75 41.4883C26.9323 41.5247 27.1693 41.5521 27.4609 41.5703L28.2266 41.6523L29.0469 41.5703L30.0312 41.4883L30.9883 41.4336L31.1523 41.1602C31.1706 41.0143 31.1979 40.8138 31.2344 40.5586C31.2344 40.3398 31.2161 40.1211 31.1797 39.9023C31.1432 39.6471 31.0612 39.3828 30.9336 39.1094C30.8242 38.8359 30.7057 38.5898 30.5781 38.3711C30.4323 38.1341 30.2865 37.9336 30.1406 37.7695L29.8398 37.2773C29.8398 37.1315 29.8672 36.9948 29.9219 36.8672L30.6328 35.1992L30.7969 34.6523L30.5781 34.4336C30.4688 34.4518 30.3594 34.4792 30.25 34.5156C30.1224 34.5703 29.8854 34.6432 29.5391 34.7344C29.1745 34.8255 28.8646 34.8984 28.6094 34.9531C28.4271 34.9531 28.263 34.944 28.1172 34.9258C27.862 34.9258 27.6615 34.8984 27.5156 34.8438C27.3698 34.7891 27.224 34.6432 27.0781 34.4062L27.4883 34.2422L28.0078 34.1055C28.3177 34.0326 28.6276 33.9414 28.9375 33.832C29.2656 33.7227 29.6211 33.5768 30.0039 33.3945L30.9336 32.9023L31.4258 32.6836C31.5898 32.6836 31.7539 32.7201 31.918 32.793C32.1185 32.8659 32.3281 32.9753 32.5469 33.1211C32.8021 33.2669 33.0117 33.4219 33.1758 33.5859L33.4219 33.9141C33.4036 34.0781 33.3125 34.2331 33.1484 34.3789L32.6836 34.7617C32.5195 34.9076 32.3646 35.0625 32.2188 35.2266L31.125 36.5117C31.0156 36.6576 30.9062 36.7943 30.7969 36.9219V37.3867L31.4531 37.9062C31.7266 38.125 31.9453 38.3802 32.1094 38.6719C32.2917 38.9453 32.3828 39.2552 32.3828 39.6016C32.3828 39.9297 32.3281 40.2396 32.2188 40.5312C32.1458 40.7682 32.0547 40.9596 31.9453 41.1055L31.918 41.4062ZM36.6484 30.1133C36.2474 30.1862 35.9375 30.2227 35.7188 30.2227C35.5 30.2227 35.2904 30.2135 35.0898 30.1953C34.8893 30.1771 34.6888 30.1133 34.4883 30.0039L34.1875 29.7852C34.1875 29.6211 34.2513 29.5299 34.3789 29.5117L34.8438 29.457L35.6914 29.3203C36.056 29.2656 36.4115 29.1836 36.7578 29.0742L37.6875 28.8008C37.4323 28.5456 37.25 28.3451 37.1406 28.1992C37.0312 28.0534 36.9036 27.8255 36.7578 27.5156C36.6302 27.2057 36.5391 26.9596 36.4844 26.7773L36.2383 26.1758V25.7656H36.457C36.6576 25.8021 36.8945 25.875 37.168 25.9844C37.4414 26.0938 37.6966 26.2214 37.9336 26.3672C38.1706 26.4948 38.3438 26.668 38.4531 26.8867C38.5625 27.1055 38.6354 27.3607 38.6719 27.6523L38.6445 28.0352L38.4531 28.6094L39.1094 28.3359C39.3281 28.2448 39.5013 28.1901 39.6289 28.1719C39.7565 28.1719 39.8841 28.1901 40.0117 28.2266L40.5039 28.3906C40.668 28.4635 40.8047 28.5456 40.9141 28.6367L41.0781 28.9375L40.7227 29.1836C40.4857 29.2747 40.2031 29.3659 39.875 29.457L38.7266 29.7305L37.4688 30.0039C37.8151 30.168 38.0612 30.3138 38.207 30.4414L38.3164 30.9062L38.043 31.2891L37.7969 31.7812L37.4688 32.4648L38.2617 32.2461C38.5352 32.1732 38.7721 32.0911 38.9727 32L39.4375 31.8633C39.6016 31.8451 39.7383 31.8633 39.8477 31.918C40.0299 31.9909 40.2214 32.082 40.4219 32.1914C40.6406 32.3008 40.8229 32.4102 40.9688 32.5195L41.1875 32.8477C41.1875 32.9753 41.1328 33.1302 41.0234 33.3125L40.75 33.7773C40.6771 33.9049 40.5768 34.3333 40.4492 35.0625L40.2305 36.3477L41.6523 36.1836L44.4414 35.8008C44.4049 35.6367 44.3594 35.4544 44.3047 35.2539C44.2318 35.0716 44.0859 34.8984 43.8672 34.7344C43.6484 34.5703 43.5755 34.3424 43.6484 34.0508L44.3594 34.1875L45.5625 32.7383L45.8906 32.1914C45.8724 32.0456 45.763 31.9362 45.5625 31.8633C45.3984 31.8451 45.1979 31.8724 44.9609 31.9453L43.8398 32.3555C43.5482 32.4648 43.293 32.5742 43.0742 32.6836L42.6094 32.8477C42.4818 32.8477 42.3177 32.7839 42.1172 32.6562C41.8984 32.5286 41.7253 32.4102 41.5977 32.3008L41.4062 32.0547C41.4062 31.9271 41.4792 31.8451 41.625 31.8086L42.1172 31.7539L43.0469 31.6172C43.375 31.5625 43.8216 31.4622 44.3867 31.3164C44.9518 31.1523 45.3802 31.0065 45.6719 30.8789L46.1914 30.7148C46.3919 30.7148 46.6016 30.7513 46.8203 30.8242C47.0208 30.9154 47.2578 31.043 47.5312 31.207C47.8047 31.3529 48.0508 31.5169 48.2695 31.6992L48.5703 32.0547C48.5521 32.1823 48.4518 32.2917 48.2695 32.3828L47.5586 32.7383L46.1094 33.668L44.7422 34.5156C44.888 34.6432 45.0156 34.7799 45.125 34.9258C45.2344 35.0352 45.3073 35.1445 45.3438 35.2539L45.5078 35.6094L46.9297 35.3633C47.987 35.181 48.5794 35.0898 48.707 35.0898C48.8346 35.1081 48.9987 35.1445 49.1992 35.1992C49.3997 35.2539 49.582 35.3268 49.7461 35.418C49.9102 35.4909 50.0833 35.6003 50.2656 35.7461L50.4844 36.0742L50.375 36.2656L50.1562 36.3203L45.8906 36.5664L46.082 37.8242C46.1367 38.1888 46.1641 38.6354 46.1641 39.1641C46.1641 39.6927 46.1276 40.2031 46.0547 40.6953C45.9818 41.0417 45.8815 41.3607 45.7539 41.6523C45.6263 41.944 45.4622 42.2266 45.2617 42.5C45.0612 42.7734 44.8516 42.9831 44.6328 43.1289L44.1953 43.293C44.0312 43.2565 43.849 43.1107 43.6484 42.8555C43.4297 42.6003 43.2656 42.3906 43.1562 42.2266C43.0286 42.0807 42.901 41.944 42.7734 41.8164C42.6276 41.6706 42.4818 41.5339 42.3359 41.4062L42.0078 40.832L42.5 40.9141C42.9193 41.0234 43.2201 41.0872 43.4023 41.1055L43.7852 41.0508C43.9857 40.9961 44.1589 40.8776 44.3047 40.6953C44.4505 40.5312 44.5599 40.2487 44.6328 39.8477C44.7057 39.4466 44.7604 38.9909 44.7969 38.4805C44.8151 38.2435 44.8242 38.043 44.8242 37.8789L44.7969 37.6055L44.6875 36.7305L43.4297 36.8945C43.1562 36.931 42.8099 37.013 42.3906 37.1406C42.0443 37.2318 41.7799 37.2773 41.5977 37.2773C41.4336 37.2773 41.2422 37.2227 41.0234 37.1133C40.8047 37.0039 40.6406 36.8945 40.5312 36.7852L40.2031 36.5391L39.9297 37.9609C39.8385 38.3438 39.7201 38.763 39.5742 39.2188C39.4466 39.6745 39.3008 40.0391 39.1367 40.3125C38.9727 40.5859 38.763 40.8503 38.5078 41.1055C38.2344 41.3789 37.9792 41.5612 37.7422 41.6523L37.4961 41.707L37.1406 41.6523L36.9766 41.3242C36.8672 41.1784 36.7578 40.9779 36.6484 40.7227L36.4297 40.3125C36.3568 40.1849 36.2292 39.9753 36.0469 39.6836L35.7188 39.3008L35.8008 38.9727L36.3203 39.1914L36.8672 39.4922C37.0859 39.6016 37.3138 39.6562 37.5508 39.6562C37.7695 39.5651 37.9518 39.3555 38.0977 39.0273C38.2435 38.7174 38.4167 38.1615 38.6172 37.3594C38.7995 36.5391 38.9271 35.9102 39 35.4727L39.1641 33.9414L39.2188 33.6133C39.2188 33.3763 39.1823 33.2122 39.1094 33.1211C39 33.0117 38.7995 32.957 38.5078 32.957C38.3073 32.9935 38.0885 33.0846 37.8516 33.2305L37.332 33.3945L36.5664 34.8164C36.4023 35.2174 36.2018 35.6003 35.9648 35.9648C35.7461 36.3294 35.4818 36.7031 35.1719 37.0859C34.8802 37.4688 34.5977 37.7695 34.3242 37.9883C34.0508 38.2253 33.8047 38.4258 33.5859 38.5898L33.0938 38.8906L32.7383 38.9453C32.7383 38.8177 32.7839 38.681 32.875 38.5352L33.2305 38.1523C33.5221 37.7878 33.7865 37.4323 34.0234 37.0859C34.2786 36.7396 34.5612 36.2839 34.8711 35.7188C35.181 35.1719 35.4453 34.6159 35.6641 34.0508C35.901 33.5039 36.1107 32.9206 36.293 32.3008C36.4935 31.681 36.5938 31.1888 36.5938 30.8242L36.6484 30.1133ZM43.4844 28.2539L46.3281 27.4883C46.9479 27.306 47.3216 27.2148 47.4492 27.2148C47.5768 27.2331 47.7227 27.2695 47.8867 27.3242C48.0508 27.3789 48.1966 27.4336 48.3242 27.4883C48.4336 27.5247 48.543 27.5977 48.6523 27.707L48.7891 27.9258C48.7526 28.0716 48.6432 28.181 48.4609 28.2539C48.2786 28.3268 47.987 28.3906 47.5859 28.4453L45.5078 28.8828L44.3047 29.0469L43.5938 29.1289L42.9922 29.0469C42.7734 29.2656 42.5729 29.4844 42.3906 29.7031L42.0352 30.0859L41.5156 30.4961L41.0781 30.8242L40.7773 30.7148L41.1055 30.1133L41.5977 29.293C41.8346 28.9102 42.0078 28.5911 42.1172 28.3359C42.263 28.0625 42.4271 27.7161 42.6094 27.2969C42.7917 26.8594 42.9193 26.5039 42.9922 26.2305C43.0651 25.957 43.1198 25.6654 43.1562 25.3555C43.1745 25.0273 43.1927 24.8086 43.2109 24.6992L43.4023 24.4531C43.5117 24.4349 43.6484 24.4622 43.8125 24.5352C43.9948 24.6081 44.1589 24.681 44.3047 24.7539L44.8516 25.082C45.1068 25.2279 45.2253 25.4284 45.207 25.6836C45.1706 25.793 45.0703 25.9297 44.9062 26.0938C44.724 26.2578 44.5417 26.4948 44.3594 26.8047L43.4844 28.2539ZM29.5391 27.5977L29.3477 26.8047L29.8672 26.8867L30.5234 27.0508L31.2891 27.3242C31.4714 27.3971 31.6719 27.4883 31.8906 27.5977C32.1094 27.707 32.2734 27.8346 32.3828 27.9805C32.4922 28.1263 32.5742 28.3086 32.6289 28.5273L32.6562 28.7734C32.6562 28.974 32.638 29.1562 32.6016 29.3203C32.5286 29.5938 32.4102 29.7943 32.2461 29.9219L31.918 30.1133C31.6992 30.1133 31.4987 30.0221 31.3164 29.8398L30.7422 29.1836L30.1406 28.3633C29.8307 27.9987 29.6302 27.7435 29.5391 27.5977Z" fill="#333333"/>
<path d="M99.2109 34.6797C99.1016 34.6797 98.9557 34.5612 98.7734 34.3242C98.5911 34.069 98.5091 33.8503 98.5273 33.668C98.5638 33.5221 98.5911 33.112 98.6094 32.4375C98.6276 31.9818 98.6367 31.1797 98.6367 30.0312C98.6367 29.2292 98.6276 28.6914 98.6094 28.418L97.707 28.5C97.069 28.5911 96.5221 28.6367 96.0664 28.6367C95.9388 28.6367 95.7565 28.5365 95.5195 28.3359C95.2826 28.1354 95.1641 27.9896 95.1641 27.8984C95.1641 27.7526 95.319 27.6979 95.6289 27.7344C95.8294 27.7526 96.4219 27.7435 97.4062 27.707C98.7552 27.6159 99.7305 27.5612 100.332 27.543C100.642 27.5247 100.924 27.4974 101.18 27.4609C101.453 27.4062 101.645 27.3698 101.754 27.3516C101.918 27.3333 102.064 27.3516 102.191 27.4062C102.319 27.4609 102.438 27.5339 102.547 27.625C102.674 27.6979 102.775 27.7526 102.848 27.7891C103.012 27.8984 103.094 27.9987 103.094 28.0898C103.094 28.1628 103.048 28.2357 102.957 28.3086C102.884 28.3633 102.802 28.3906 102.711 28.3906C102.62 28.3906 102.492 28.3815 102.328 28.3633C102.182 28.3451 102.018 28.3359 101.836 28.3359C101.161 28.3359 100.469 28.3542 99.7578 28.3906C99.7396 28.5365 99.7305 28.901 99.7305 29.4844C99.694 30.4688 99.6758 31.4349 99.6758 32.3828V33.4492V33.6953C99.6758 34.0052 99.6484 34.2057 99.5938 34.2969C99.4297 34.5521 99.3021 34.6797 99.2109 34.6797ZM96.2852 41.1602C96.0846 41.1602 95.8385 41.0052 95.5469 40.6953C95.3281 40.4766 95.2188 40.3125 95.2188 40.2031C95.2188 40.1484 95.2552 40.1211 95.3281 40.1211C95.401 40.1029 95.4922 40.0938 95.6016 40.0938L96.2031 40.0664C96.5495 40.0664 96.7773 40.0573 96.8867 40.0391C97.2331 40.0391 97.5247 40.0299 97.7617 40.0117C99.3294 39.8659 100.387 39.7474 100.934 39.6562C101.207 39.6198 101.453 39.5833 101.672 39.5469C101.891 39.4922 102.064 39.4648 102.191 39.4648C102.447 39.4648 102.702 39.5924 102.957 39.8477C103.158 40.0482 103.258 40.2122 103.258 40.3398C103.258 40.4492 103.194 40.5221 103.066 40.5586C102.975 40.5768 102.438 40.6133 101.453 40.668C100.906 40.6862 100.232 40.7318 99.4297 40.8047C98.6276 40.8776 97.9258 40.9505 97.3242 41.0234C97.2148 41.0417 97.0599 41.069 96.8594 41.1055C96.6589 41.1419 96.4674 41.1602 96.2852 41.1602ZM104.242 34.2695C104.333 34.2695 104.47 34.3333 104.652 34.4609C104.634 34.4974 104.671 34.5703 104.762 34.6797C104.853 34.7708 104.917 34.8346 104.953 34.8711C105.044 34.9622 105.135 35.0716 105.227 35.1992C105.336 35.3268 105.454 35.4635 105.582 35.6094C105.91 35.9557 106.667 36.8581 107.852 38.3164C108.052 38.6081 108.152 38.7812 108.152 38.8359C108.152 39.0182 108.043 39.1094 107.824 39.1094C107.697 39.1094 107.56 39.0182 107.414 38.8359C107.068 38.4714 106.448 37.8971 105.555 37.1133C104.862 36.4753 104.233 35.9831 103.668 35.6367C103.395 35.5091 103.258 35.3633 103.258 35.1992C103.258 35.0716 103.395 34.8893 103.668 34.6523C103.923 34.3971 104.115 34.2695 104.242 34.2695ZM76.2148 29.8398L76.1875 26.3398L76.1328 25.6562C76.0964 25.2552 76.0508 25 75.9961 24.8906L75.7227 24.2891L76.0781 23.9609L76.8438 24.0156C76.9531 24.0339 77.1172 24.0885 77.3359 24.1797C77.5911 24.2526 77.7552 24.3346 77.8281 24.4258C77.9193 24.5352 77.974 24.6628 77.9922 24.8086L77.6914 25.4922L77.6094 26.2852L77.582 26.9414L79.3047 26.5039C79.5964 26.431 79.8242 26.3581 79.9883 26.2852L80.3164 26.1758C80.444 26.194 80.6081 26.2396 80.8086 26.3125C81.0091 26.3672 81.1732 26.4492 81.3008 26.5586L81.4648 26.8047C81.4466 26.9323 81.2917 27.0326 81 27.1055L80.3438 27.2695C79.9792 27.3424 79.6328 27.3971 79.3047 27.4336C78.9766 27.4701 78.694 27.4974 78.457 27.5156H78.0469L77.5547 27.4336L77.3906 29.6484L79.4141 29.2383L80.2891 29.0195L80.8906 28.8008C81.0547 28.7643 81.2188 28.7461 81.3828 28.7461C81.5104 28.7461 81.7018 28.7917 81.957 28.8828C82.2305 28.974 82.4766 29.0924 82.6953 29.2383C82.9141 29.3841 83.1237 29.5482 83.3242 29.7305L83.543 30.2227C83.4883 30.3685 83.3607 30.487 83.1602 30.5781C82.9414 30.6693 82.7135 30.7695 82.4766 30.8789C82.2396 30.9883 82.0391 31.0977 81.875 31.207L81.3828 31.5898L80.7812 32.0273L80.4805 31.9453L80.7266 31.2891L80.9727 30.7695C81.0273 30.6237 81.082 30.4049 81.1367 30.1133L81.082 29.8672L80.7266 29.7852C80.5443 29.8216 80.3073 29.8581 80.0156 29.8945C79.7057 29.9674 79.2044 30.0495 78.5117 30.1406L77.1719 30.3594L75.9688 30.5508L76.625 30.8242C76.7891 30.8971 76.9258 30.9701 77.0352 31.043L77.1719 31.2617C77.1901 31.3711 77.1719 31.4987 77.1172 31.6445L76.9805 31.9727L76.9531 32.3828C77.1719 32.3281 77.4271 32.2552 77.7188 32.1641C78.0104 32.0729 78.2109 32.0182 78.3203 32C78.4297 31.9818 78.7487 31.9544 79.2773 31.918C79.5143 31.8997 79.6966 31.9362 79.8242 32.0273L80.0703 32.2734C80.0339 32.401 79.9609 32.4922 79.8516 32.5469C79.7057 32.6198 79.487 32.6927 79.1953 32.7656L78.3477 33.0117L77.4727 33.1758L76.8438 33.3398C76.8438 33.5221 76.8346 33.6862 76.8164 33.832L76.8438 34.1055C76.9531 34.2148 77.1081 34.2878 77.3086 34.3242C77.5091 34.3607 77.7917 34.3789 78.1562 34.3789H79.0312C79.4141 34.3789 79.7331 34.3607 79.9883 34.3242L80.4258 34.2695L80.7266 34.2969C80.8359 34.3516 80.9362 34.4336 81.0273 34.543C81.1185 34.6159 81.1823 34.7799 81.2188 35.0352C81.1823 35.1628 81 35.2539 80.6719 35.3086L79.7695 35.418C79.4596 35.418 79.0495 35.4089 78.5391 35.3906C78.1016 35.3724 77.737 35.3451 77.4453 35.3086C77.1536 35.2721 76.8802 35.1992 76.625 35.0898C76.388 34.9987 76.1966 34.8529 76.0508 34.6523C75.9049 34.4701 75.832 34.2695 75.832 34.0508L75.8047 33.5312C75.5495 33.6042 75.3581 33.6497 75.2305 33.668L74.6016 33.7227L73.8906 33.7773H73.4531C73.3802 34.1419 73.3438 34.4154 73.3438 34.5977L73.1797 35.8555C73.0703 36.5846 72.9518 37.332 72.8242 38.0977C72.6966 38.8633 72.5417 39.5924 72.3594 40.2852C72.1771 40.9961 71.9857 41.6523 71.7852 42.2539C71.5846 42.8555 71.3568 43.3841 71.1016 43.8398C70.8828 44.2956 70.6094 44.7695 70.2812 45.2617C69.9531 45.7539 69.6979 46.082 69.5156 46.2461L68.9688 46.8203L68.668 46.7656L69.0781 45.9727C69.224 45.681 69.3698 45.3711 69.5156 45.043C69.6615 44.7148 69.862 44.2318 70.1172 43.5938C70.3359 42.9557 70.5365 42.3451 70.7188 41.7617C70.901 41.1966 71.056 40.6224 71.1836 40.0391C71.3112 39.4375 71.4479 38.6536 71.5938 37.6875C71.7396 36.7214 71.8307 35.974 71.8672 35.4453C71.9219 34.9349 71.9583 34.4062 71.9766 33.8594C71.9948 33.5859 72.0039 33.3398 72.0039 33.1211C72.0039 32.9023 71.9948 32.7201 71.9766 32.5742C71.9583 32.1185 71.9128 31.8177 71.8398 31.6719L71.6484 31.2891L71.375 31.1797L71.1016 30.7422L71.4844 30.6055L72.5781 30.4414C73.5443 30.2956 74.1276 30.2044 74.3281 30.168L76.2148 29.8398ZM73.4805 33.2305L74.2188 33.0664L75.1484 32.8477L75.75 32.6836C75.7682 32.4102 75.7773 32.1914 75.7773 32.0273L75.75 31.7266L75.5859 30.6602L73.5078 31.043L73.7539 31.3438C73.7721 31.4714 73.7448 31.6719 73.6719 31.9453L73.5625 32.7383L73.4805 33.2305ZM75.8047 45.4258C75.7135 45.3164 75.6315 45.207 75.5586 45.0977C75.4857 44.9883 75.3854 44.7786 75.2578 44.4688L74.8477 43.5664C74.7201 43.3112 74.6836 43.0104 74.7383 42.6641L75.4766 43.0195C75.6953 43.1289 75.8776 43.2565 76.0234 43.4023C76.2057 43.5299 76.3333 43.6849 76.4062 43.8672C76.5156 44.0677 76.5703 44.2409 76.5703 44.3867C76.5703 44.569 76.543 44.7331 76.4883 44.8789L76.3516 45.3164C76.8984 45.1888 77.2357 45.1068 77.3633 45.0703L78.2656 44.8516L78.457 44.1953C78.4935 44.0677 78.5573 43.8307 78.6484 43.4844C78.7396 43.138 78.7943 42.8555 78.8125 42.6367L78.8398 42.418L78.8125 42.1445L78.7305 41.7617C78.457 41.7617 78.2474 41.7708 78.1016 41.7891L77.0078 41.9258L75.9141 42.0352L75.5312 42.0898C75.513 42.1992 75.4766 42.3086 75.4219 42.418C75.3672 42.5273 75.2578 42.5911 75.0938 42.6094C74.9661 42.6094 74.8294 42.4818 74.6836 42.2266L74.6016 41.8711C74.5651 41.6888 74.4922 41.3516 74.3828 40.8594L74.2188 40.1211C74.1458 39.9023 74.082 39.7292 74.0273 39.6016C73.9727 39.474 73.8815 39.3464 73.7539 39.2188L73.6992 38.6445C73.9362 38.6445 74.2005 38.6901 74.4922 38.7812L74.9297 38.918C75.1849 38.8997 75.4674 38.8633 75.7773 38.8086C76.0872 38.7721 76.3698 38.7174 76.625 38.6445C76.8802 38.5898 77.2721 38.4987 77.8008 38.3711C78.3294 38.2253 78.6849 38.1159 78.8672 38.043L79.3047 37.9336C79.4505 37.9154 79.5781 37.9336 79.6875 37.9883C79.8333 38.0247 80.0065 38.1068 80.207 38.2344L80.5625 38.4805L80.6172 39.0547C80.4531 39.2188 80.3255 39.3828 80.2344 39.5469C80.1615 39.7109 80.1068 39.8659 80.0703 40.0117L79.9062 40.6133L79.7422 41.1055C79.8516 41.1784 79.8516 41.3698 79.7422 41.6797L79.25 41.6523L79.8242 42.0078C79.9883 42.099 80.1159 42.1992 80.207 42.3086L80.2344 42.7461C80.0703 42.9284 79.9245 43.1198 79.7969 43.3203L79.6055 43.6484L79.25 44.1133L78.8672 44.6875L80.1523 44.3594C80.5169 44.2682 80.8177 44.1862 81.0547 44.1133L81.7109 43.9492L82.1211 44.0586L82.2578 44.1953C82.2396 44.3047 82.1484 44.4049 81.9844 44.4961C81.8385 44.569 81.5651 44.6693 81.1641 44.7969L80.4805 44.9883L79.5781 45.2617L76.2422 46.2461C76.1328 46.3008 75.8503 46.4102 75.3945 46.5742C74.957 46.7201 74.638 46.8294 74.4375 46.9023C74.237 46.9753 74.0182 47.0755 73.7812 47.2031L73.3164 47.3945C73.1341 47.3945 72.9245 47.3034 72.6875 47.1211C72.5052 47.0117 72.3047 46.8659 72.0859 46.6836C71.8672 46.4831 71.7305 46.3099 71.6758 46.1641L71.7852 45.7812L72.2773 45.8086C72.4596 45.8268 72.6693 45.8359 72.9062 45.8359C73.0703 45.8359 73.4896 45.7904 74.1641 45.6992L75.1758 45.5352L75.8047 45.4258ZM75.5039 41.4336C75.9414 41.3607 76.306 41.2969 76.5977 41.2422C76.8893 41.1875 77.1445 41.1419 77.3633 41.1055C77.582 41.0508 77.8646 40.987 78.2109 40.9141L78.7578 40.7773C78.8125 40.5768 78.849 40.4219 78.8672 40.3125C78.9036 40.1849 78.931 40.0117 78.9492 39.793C78.9857 39.5742 79.013 39.3919 79.0312 39.2461L78.8125 38.8906C78.5755 38.8724 78.3021 38.8997 77.9922 38.9727L77.0078 39.1641L76.1875 39.3555L75.5859 39.4102L75.2031 39.5195C75.2396 39.7747 75.276 39.9753 75.3125 40.1211L75.4219 40.8594L75.5039 41.4336ZM74.8477 37.6602C74.7201 37.6602 74.5469 37.6419 74.3281 37.6055C74.1276 37.569 73.9818 37.5052 73.8906 37.4141L73.8633 37.1406C74.1185 37.0495 74.4375 36.9857 74.8203 36.9492C75.2031 36.8945 75.6953 36.8034 76.2969 36.6758C76.8802 36.5664 77.3906 36.457 77.8281 36.3477L78.6484 36.1289C78.849 36.0742 79.013 36.056 79.1406 36.0742L79.5781 36.1289C79.8333 36.1654 80.0247 36.2201 80.1523 36.293L80.3164 36.5664L79.9336 36.7578C79.6784 36.8307 79.4779 36.8854 79.332 36.9219C79.2044 36.9401 78.7943 37.013 78.1016 37.1406L76.707 37.4141C76.2878 37.5052 75.8867 37.569 75.5039 37.6055L74.9844 37.6602H74.8477ZM84.6094 33.1484C84.5365 32.7292 84.4727 32.3099 84.418 31.8906L84.2266 30.3594C84.1536 29.7578 84.0898 29.1198 84.0352 28.4453C83.9805 27.7708 83.9531 27.3698 83.9531 27.2422C83.9349 27.1146 83.9076 26.9049 83.8711 26.6133C83.8164 26.3034 83.7799 26.0755 83.7617 25.9297C83.7253 25.7656 83.6706 25.5651 83.5977 25.3281C83.5065 25.0729 83.4062 24.8633 83.2969 24.6992L83.1602 24.2344C83.2513 24.0885 83.3789 24.0065 83.543 23.9883C83.7435 23.9883 83.9987 24.0521 84.3086 24.1797C84.6914 24.3255 84.9466 24.4349 85.0742 24.5078C85.2018 24.599 85.3385 24.7083 85.4844 24.8359C85.6302 24.9635 85.7122 25.1641 85.7305 25.4375L85.5938 25.8477C85.5391 25.957 85.4844 26.1211 85.4297 26.3398C85.3568 26.5586 85.3112 26.7227 85.293 26.832C85.2747 26.9414 85.2656 27.1602 85.2656 27.4883V28.7461C85.2656 29.0742 85.293 29.6029 85.3477 30.332C85.4023 31.0612 85.4479 31.5716 85.4844 31.8633L85.5938 32.9023L86.4688 32.6289L87.3711 32.3555L88.3828 32C88.6927 31.9089 88.9206 31.8359 89.0664 31.7812L89.3672 31.7266C89.5312 31.7083 89.7865 31.6901 90.1328 31.6719C90.4609 31.6719 90.6979 31.7174 90.8438 31.8086L91.0898 32.0273C91.0716 32.1914 90.9896 32.319 90.8438 32.4102C90.6979 32.5195 90.4883 32.6107 90.2148 32.6836L89.1484 33.0391C88.7474 33.1667 88.1823 33.3216 87.4531 33.5039L86.3867 33.7773L85.8125 33.9141C85.9036 34.388 86.0039 34.8711 86.1133 35.3633C86.2227 35.8372 86.3958 36.4661 86.6328 37.25C86.8698 38.0339 87.1068 38.6719 87.3438 39.1641L87.7812 40.2305L88.2461 39.4102C88.4102 39.1549 88.5833 38.8086 88.7656 38.3711C88.9479 37.9701 89.0938 37.6055 89.2031 37.2773C89.3125 36.9492 89.3945 36.6484 89.4492 36.375C89.4857 36.2109 89.4948 36.0286 89.4766 35.8281L89.5312 34.9531C89.6589 34.9167 89.8047 34.9258 89.9688 34.9805L90.4609 35.2266C90.7161 35.3542 90.9076 35.4635 91.0352 35.5547C91.1628 35.6458 91.2812 35.7734 91.3906 35.9375L91.5 36.293C91.4818 36.4023 91.418 36.5117 91.3086 36.6211C91.1992 36.7305 91.0898 36.8581 90.9805 37.0039L90.707 37.4414C90.6341 37.5508 90.5156 37.7786 90.3516 38.125L89.7227 39.2734L89.0391 40.4766L88.4648 41.4062L89.1484 42.4727C89.3672 42.8372 89.6042 43.1654 89.8594 43.457C90.1146 43.7669 90.3789 44.0586 90.6523 44.332C90.9258 44.6237 91.1536 44.806 91.3359 44.8789L91.6641 44.9883C91.7734 44.9518 91.8646 44.8698 91.9375 44.7422C91.974 44.6146 92.0469 44.3958 92.1562 44.0859L92.3203 43.5938L92.5391 42.8008L92.6484 42.3086L92.7852 42.1445C92.9128 42.1445 92.9766 42.2174 92.9766 42.3633V42.9648C92.9766 43.6576 92.9857 44.1133 93.0039 44.332C93.0039 44.5508 93.0312 44.8698 93.0859 45.2891C93.1406 45.7083 93.2227 46.1185 93.332 46.5195C93.4596 46.9206 93.5326 47.2214 93.5508 47.4219C93.5508 47.5677 93.5143 47.6862 93.4414 47.7773C93.3503 47.9232 93.1771 48.0052 92.9219 48.0234C92.7031 48.0234 92.4297 47.9141 92.1016 47.6953C91.4818 47.3125 90.9896 46.957 90.625 46.6289C90.2604 46.3008 89.832 45.8359 89.3398 45.2344C88.8477 44.6328 88.474 44.1133 88.2188 43.6758L87.5078 42.582L86.7422 43.3203C86.487 43.5573 86.1862 43.8034 85.8398 44.0586C85.4935 44.3138 85.1107 44.569 84.6914 44.8242C84.2721 45.0612 83.944 45.2253 83.707 45.3164L82.6406 45.4258L83.3516 44.8516C83.6615 44.6328 83.9167 44.4414 84.1172 44.2773C84.2995 44.1315 84.6823 43.7669 85.2656 43.1836C85.8672 42.6185 86.2318 42.2539 86.3594 42.0898L86.9609 41.4062C86.6875 40.8047 86.4505 40.2487 86.25 39.7383C86.0312 39.2096 85.8216 38.5534 85.6211 37.7695C85.4023 36.9857 85.2201 36.2201 85.0742 35.4727L84.8281 34.1602C84.6094 34.1966 84.3542 34.2513 84.0625 34.3242C83.7708 34.3607 83.5612 34.3971 83.4336 34.4336H82.5586C82.3216 34.4336 82.1302 34.388 81.9844 34.2969L81.8203 33.9688L82.2031 33.832C82.4401 33.7956 82.6953 33.7409 82.9688 33.668L83.8984 33.3672L84.6094 33.1484ZM88.4375 28.4727L88 28.0352L87.8906 27.6797C88 27.6615 88.1094 27.6615 88.2188 27.6797L88.8477 27.8164C89.0846 27.8711 89.4219 27.9805 89.8594 28.1445C90.2969 28.3268 90.6068 28.4727 90.7891 28.582C90.9714 28.6914 91.0898 28.819 91.1445 28.9648C91.1992 29.0742 91.2266 29.2383 91.2266 29.457C91.2266 29.6758 91.1901 29.8581 91.1172 30.0039C91.0807 30.1497 91.0078 30.2591 90.8984 30.332L90.6523 30.4414C90.4518 30.4414 90.2604 30.3503 90.0781 30.168C89.9323 30.0586 89.7682 29.9128 89.5859 29.7305C89.4036 29.5482 89.2031 29.3294 88.9844 29.0742C88.7292 28.819 88.5469 28.6185 88.4375 28.4727Z" fill="#333333"/>
</svg>
