<svg width="291" height="26" viewBox="0 0 291 26" fill="none" xmlns="http://www.w3.org/2000/svg">
<path d="M29.2109 8.39844C29.1016 8.39844 28.9557 8.27995 28.7734 8.04297C28.5911 7.78776 28.5091 7.56901 28.5273 7.38672C28.5638 7.24089 28.5911 6.83073 28.6094 6.15625C28.6276 5.70052 28.6367 4.89844 28.6367 3.75C28.6367 2.94792 28.6276 2.41016 28.6094 2.13672L27.707 2.21875C27.069 2.3099 26.5221 2.35547 26.0664 2.35547C25.9388 2.35547 25.7565 2.25521 25.5195 2.05469C25.2826 1.85417 25.1641 1.70833 25.1641 1.61719C25.1641 1.47135 25.319 1.41667 25.6289 1.45312C25.8294 1.47135 26.4219 1.46224 27.4062 1.42578C28.7552 1.33464 29.7305 1.27995 30.332 1.26172C30.6419 1.24349 30.9245 1.21615 31.1797 1.17969C31.4531 1.125 31.6445 1.08854 31.7539 1.07031C31.918 1.05208 32.0638 1.07031 32.1914 1.125C32.319 1.17969 32.4375 1.2526 32.5469 1.34375C32.6745 1.41667 32.7747 1.47135 32.8477 1.50781C33.0117 1.61719 33.0938 1.71745 33.0938 1.80859C33.0938 1.88151 33.0482 1.95443 32.957 2.02734C32.8841 2.08203 32.8021 2.10938 32.7109 2.10938C32.6198 2.10938 32.4922 2.10026 32.3281 2.08203C32.1823 2.0638 32.0182 2.05469 31.8359 2.05469C31.1615 2.05469 30.4688 2.07292 29.7578 2.10938C29.7396 2.25521 29.7305 2.61979 29.7305 3.20312C29.694 4.1875 29.6758 5.15365 29.6758 6.10156V7.16797V7.41406C29.6758 7.72396 29.6484 7.92448 29.5938 8.01562C29.4297 8.27083 29.3021 8.39844 29.2109 8.39844ZM26.2852 13.2383C26.0846 13.2383 25.8385 13.0833 25.5469 12.7734C25.3281 12.5547 25.2188 12.3906 25.2188 12.2812C25.2188 12.2266 25.2552 12.1992 25.3281 12.1992C25.401 12.181 25.4922 12.1719 25.6016 12.1719L26.2031 12.1445C26.5495 12.1445 26.7773 12.1354 26.8867 12.1172C27.2331 12.1172 27.5247 12.1081 27.7617 12.0898C29.3294 11.944 30.3867 11.8255 30.9336 11.7344C31.207 11.6979 31.4531 11.6615 31.6719 11.625C31.8906 11.5703 32.0638 11.543 32.1914 11.543C32.4466 11.543 32.7018 11.6706 32.957 11.9258C33.1576 12.1263 33.2578 12.2904 33.2578 12.418C33.2578 12.5273 33.194 12.6003 33.0664 12.6367C32.9753 12.6549 32.4375 12.6914 31.4531 12.7461C30.9062 12.7643 30.2318 12.8099 29.4297 12.8828C28.6276 12.9557 27.9258 13.0286 27.3242 13.1016C27.2148 13.1198 27.0599 13.1471 26.8594 13.1836C26.6589 13.2201 26.4674 13.2383 26.2852 13.2383ZM32.1641 22.6719C32.2005 22.7448 32.2643 22.8542 32.3555 23C32.4466 23.1458 32.4922 23.319 32.4922 23.5195C32.4922 23.7018 32.4193 23.8477 32.2734 23.957C32.1276 24.0846 31.9635 24.1484 31.7812 24.1484C31.6172 24.1484 31.4805 23.9844 31.3711 23.6562C31.3164 23.5286 31.2708 23.4193 31.2344 23.3281C31.2161 23.2552 31.1979 23.1914 31.1797 23.1367C30.9427 23.2096 30.6328 23.2734 30.25 23.3281C29.8672 23.3828 29.5938 23.4284 29.4297 23.4648C28.5547 23.6289 27.9531 23.7474 27.625 23.8203C27.4974 23.8568 27.3607 23.8932 27.2148 23.9297C27.069 23.9844 26.987 24.0208 26.9688 24.0391C26.8594 24.0755 26.7773 24.0938 26.7227 24.0938C26.5768 24.0938 26.4401 24.0299 26.3125 23.9023C26.0938 23.7383 25.9297 23.5195 25.8203 23.2461C25.8021 23.2279 25.793 23.2005 25.793 23.1641C25.793 23.1276 25.8385 23.082 25.9297 23.0273C26.0391 22.9727 26.1211 22.9362 26.1758 22.918C26.4128 22.7904 26.832 22.4076 27.4336 21.7695L28.1719 21.0586L26.5586 20.1836C26.3763 20.1289 26.2578 20.0651 26.2031 19.9922C26.1484 19.9193 26.1211 19.8099 26.1211 19.6641C26.1211 19.5547 26.1393 19.4818 26.1758 19.4453C26.2305 19.3906 26.3398 19.3086 26.5039 19.1992C26.668 19.0898 26.832 18.944 26.9961 18.7617C27.0872 18.6523 27.2057 18.5339 27.3516 18.4062C27.4974 18.2786 27.6341 18.1419 27.7617 17.9961C28.3086 17.3581 28.6549 16.8568 28.8008 16.4922C28.8919 16.3099 28.9648 16.2188 29.0195 16.2188C29.056 16.2188 29.1289 16.2552 29.2383 16.3281C29.5846 16.5833 29.7943 16.8203 29.8672 17.0391V17.1211C29.8672 17.2122 29.8216 17.2852 29.7305 17.3398C29.6393 17.3945 29.5755 17.4401 29.5391 17.4766C29.4844 17.513 29.2109 17.7773 28.7188 18.2695L28.2266 18.7617C28.1354 18.8529 27.9805 19.0078 27.7617 19.2266C27.543 19.4271 27.4336 19.5456 27.4336 19.582C27.4336 19.6367 27.4609 19.6823 27.5156 19.7188C27.5885 19.7552 27.6432 19.7917 27.6797 19.8281L28.8281 20.375C29.5391 19.6641 29.9492 19.2448 30.0586 19.1172C30.5326 18.5703 30.7969 18.224 30.8516 18.0781C30.8698 18.0599 30.8971 18.0143 30.9336 17.9414C30.9701 17.8685 31.0065 17.832 31.043 17.832C31.0977 17.832 31.1523 17.8594 31.207 17.9141C31.4987 18.1875 31.7083 18.4427 31.8359 18.6797C31.8724 18.7526 31.8906 18.7982 31.8906 18.8164C31.8906 18.8529 31.8451 18.9076 31.7539 18.9805C31.681 19.0352 31.6081 19.0898 31.5352 19.1445C30.8971 19.6732 30.1497 20.3659 29.293 21.2227L27.625 22.7812C27.5885 22.8177 27.5703 22.8542 27.5703 22.8906C27.5703 22.9271 27.5885 22.9544 27.625 22.9727C27.6615 22.9909 27.7161 22.9909 27.7891 22.9727L30.9883 22.4258C30.8971 22.0612 30.7878 21.6966 30.6602 21.332V21.2773C30.6602 21.2227 30.6875 21.1953 30.7422 21.1953C30.8151 21.1953 30.9245 21.25 31.0703 21.3594C31.362 21.6146 31.7266 22.0521 32.1641 22.6719ZM37.8516 13.8945C37.9062 13.8945 37.9609 13.9219 38.0156 13.9766C38.0703 14.013 38.1068 14.0677 38.125 14.1406V14.1953C38.125 14.3229 38.0247 14.569 37.8242 14.9336L35.8555 18.3516C35.7096 18.6615 35.5182 18.8164 35.2812 18.8164C35.0443 18.8164 34.8438 18.6706 34.6797 18.3789C34.5156 18.1419 34.3151 17.7865 34.0781 17.3125C33.9688 17.1484 33.8776 16.9844 33.8047 16.8203C33.7318 16.6562 33.6771 16.5378 33.6406 16.4648C33.4401 16.1185 33.3398 15.8724 33.3398 15.7266C33.3398 15.6536 33.3672 15.599 33.4219 15.5625C33.4766 15.5078 33.5312 15.4805 33.5859 15.4805C33.7865 15.4805 33.9688 15.5898 34.1328 15.8086C34.2604 15.9362 34.3607 16.0729 34.4336 16.2188L34.7344 16.6289L35.2812 17.2578L35.5273 16.875C35.7826 16.4375 36.3841 15.5716 37.332 14.2773C37.5326 14.0221 37.7057 13.8945 37.8516 13.8945ZM0.472656 17.2852L1.45703 15.8359C1.82161 15.3073 2.14062 14.7878 2.41406 14.2773C2.6875 13.7669 2.91536 13.2474 3.09766 12.7188C3.27995 12.1901 3.40755 11.8073 3.48047 11.5703C3.51693 11.388 3.53516 11.1784 3.53516 10.9414L3.67188 10.3398C3.79948 10.3216 3.91797 10.3216 4.02734 10.3398C4.17318 10.3945 4.39193 10.5221 4.68359 10.7227C5.01172 10.9049 5.29427 11.1328 5.53125 11.4062C5.69531 11.5885 5.76823 11.7982 5.75 12.0352C5.69531 12.1445 5.59505 12.263 5.44922 12.3906L5.17578 12.6367C5.08464 12.7461 4.7474 13.2383 4.16406 14.1133C3.58073 15.0065 3.02474 15.7174 2.49609 16.2461C1.94922 16.793 1.36589 17.276 0.746094 17.6953L0.363281 17.9414L0.0625 17.8047L0.472656 17.2852ZM10.2617 17.832L10.3984 8.42578L10.2617 5.5C10.2253 5.17188 10.1797 4.79818 10.125 4.37891C10.0703 3.97786 9.97917 3.63151 9.85156 3.33984C9.72396 3.04818 9.66016 2.82943 9.66016 2.68359L9.87891 2.35547C10.0247 2.33724 10.1523 2.33724 10.2617 2.35547C10.4987 2.39193 10.7539 2.45573 11.0273 2.54688C11.319 2.63802 11.6471 2.77474 12.0117 2.95703C12.3581 3.10286 12.6315 3.26693 12.832 3.44922C13.0143 3.63151 13.0964 3.86849 13.0781 4.16016L12.7227 4.81641C12.6497 4.94401 12.5586 5.23568 12.4492 5.69141C12.3216 6.16536 12.2122 6.62109 12.1211 7.05859C12.0482 7.49609 12.0026 8.11589 11.9844 8.91797L11.793 14.3867L11.957 19.8555L12.0117 21.332C12.0117 21.806 11.957 22.1979 11.8477 22.5078C11.7565 22.7995 11.5924 23.1367 11.3555 23.5195C11.1367 23.8841 10.9362 24.1211 10.7539 24.2305L10.4531 24.3398C10.3073 24.3398 10.1797 24.2852 10.0703 24.1758C9.96094 24.0482 9.76953 23.7839 9.49609 23.3828C9.20443 23 8.8763 22.6081 8.51172 22.207C8.12891 21.8242 7.80078 21.5143 7.52734 21.2773L7.03516 20.8672L6.98047 20.5391L7.19922 20.5117L8.07422 20.7852C8.58464 20.931 8.96745 21.013 9.22266 21.0312L9.57812 21.0039C9.74219 20.9128 9.86068 20.8034 9.93359 20.6758C9.98828 20.5299 10.043 20.1107 10.0977 19.418L10.2617 17.832ZM16.4414 11.1055L16.168 10.3398L16.8242 10.5039C17.0977 10.5951 17.4622 10.7591 17.918 10.9961C18.3919 11.2148 18.9206 11.5247 19.5039 11.9258C20.0872 12.3086 20.5977 12.7734 21.0352 13.3203C21.4727 13.8672 21.7734 14.3958 21.9375 14.9062C22.1016 15.3984 22.1836 15.8451 22.1836 16.2461C22.1654 16.5924 22.0833 16.8659 21.9375 17.0664C21.8099 17.2487 21.6276 17.3581 21.3906 17.3945C21.1901 17.3945 20.9987 17.3307 20.8164 17.2031C20.6706 17.112 20.4883 16.9023 20.2695 16.5742L19.0938 14.8242C18.5469 13.9857 18.1185 13.3477 17.8086 12.9102L16.9883 11.7617L16.4414 11.1055Z" fill="#333333"/>
<path d="M71.2109 8.39844C71.1016 8.39844 70.9557 8.27995 70.7734 8.04297C70.5911 7.78776 70.5091 7.56901 70.5273 7.38672C70.5638 7.24089 70.5911 6.83073 70.6094 6.15625C70.6276 5.70052 70.6367 4.89844 70.6367 3.75C70.6367 2.94792 70.6276 2.41016 70.6094 2.13672L69.707 2.21875C69.069 2.3099 68.5221 2.35547 68.0664 2.35547C67.9388 2.35547 67.7565 2.25521 67.5195 2.05469C67.2826 1.85417 67.1641 1.70833 67.1641 1.61719C67.1641 1.47135 67.319 1.41667 67.6289 1.45312C67.8294 1.47135 68.4219 1.46224 69.4062 1.42578C70.7552 1.33464 71.7305 1.27995 72.332 1.26172C72.6419 1.24349 72.9245 1.21615 73.1797 1.17969C73.4531 1.125 73.6445 1.08854 73.7539 1.07031C73.918 1.05208 74.0638 1.07031 74.1914 1.125C74.319 1.17969 74.4375 1.2526 74.5469 1.34375C74.6745 1.41667 74.7747 1.47135 74.8477 1.50781C75.0117 1.61719 75.0938 1.71745 75.0938 1.80859C75.0938 1.88151 75.0482 1.95443 74.957 2.02734C74.8841 2.08203 74.8021 2.10938 74.7109 2.10938C74.6198 2.10938 74.4922 2.10026 74.3281 2.08203C74.1823 2.0638 74.0182 2.05469 73.8359 2.05469C73.1615 2.05469 72.4688 2.07292 71.7578 2.10938C71.7396 2.25521 71.7305 2.61979 71.7305 3.20312C71.694 4.1875 71.6758 5.15365 71.6758 6.10156V7.16797V7.41406C71.6758 7.72396 71.6484 7.92448 71.5938 8.01562C71.4297 8.27083 71.3021 8.39844 71.2109 8.39844ZM68.8867 15.0977C68.2852 14.8789 68.0026 14.6419 68.0391 14.3867C68.1484 13.6211 68.2031 12.7461 68.2031 11.7617C68.2031 11.3242 68.194 11.0052 68.1758 10.8047C68.1576 10.5677 68.1393 10.3672 68.1211 10.2031C68.1029 10.0208 68.1029 9.92057 68.1211 9.90234C68.194 9.82943 68.2852 9.79297 68.3945 9.79297C68.5586 9.79297 68.7591 9.86589 68.9961 10.0117C69.2513 10.1576 69.3789 10.3034 69.3789 10.4492C69.3789 10.5404 69.3698 10.6315 69.3516 10.7227C69.3333 10.7956 69.3242 10.8776 69.3242 10.9688L69.1602 13.6758C69.1602 13.8216 69.2148 13.9128 69.3242 13.9492H69.4609C69.6068 13.9492 69.707 13.9401 69.7617 13.9219L73.2891 13.4297V12.7188C73.2891 11.8255 73.2708 11.1328 73.2344 10.6406C73.2161 10.2214 73.1706 9.88411 73.0977 9.62891C73.043 9.33724 73.1159 9.19141 73.3164 9.19141C73.4622 9.19141 73.6536 9.24609 73.8906 9.35547C74.1823 9.5013 74.3555 9.62891 74.4102 9.73828C74.4648 9.82943 74.4831 9.97526 74.4648 10.1758C74.4284 10.5039 74.4102 10.9961 74.4102 11.6523L74.4375 13.7305C74.4375 14.168 74.3555 14.5143 74.1914 14.7695C74.1003 14.8789 74.0091 14.9336 73.918 14.9336C73.8268 14.9336 73.6992 14.8516 73.5352 14.6875C73.4987 14.651 73.4531 14.5964 73.3984 14.5234C73.3438 14.4505 73.2891 14.4049 73.2344 14.3867C73.1797 14.3685 73.1068 14.3594 73.0156 14.3594C72.5964 14.3958 71.5846 14.5326 69.9805 14.7695C69.707 14.806 69.4883 14.8789 69.3242 14.9883C69.1419 15.0794 69.0234 15.125 68.9688 15.125L68.8867 15.0977ZM71.9492 24.5312C71.3841 24.5312 70.9466 24.513 70.6367 24.4766C70.3451 24.4401 70.099 24.3307 69.8984 24.1484C69.5521 23.8932 69.3151 23.3372 69.1875 22.4805L69.1055 21.6055C69.1055 21.3867 69.0872 21.1133 69.0508 20.7852C68.7591 20.8216 68.5495 20.8581 68.4219 20.8945C68.3854 20.9128 68.3216 20.9401 68.2305 20.9766C68.1576 20.9948 68.1029 21.0039 68.0664 21.0039C67.9388 21.0039 67.8203 20.9674 67.7109 20.8945C67.6016 20.8216 67.4648 20.6849 67.3008 20.4844C67.1732 20.3203 67.1094 20.2109 67.1094 20.1562C67.1094 20.1016 67.1732 20.0651 67.3008 20.0469C67.4284 20.0286 67.6016 20.0195 67.8203 20.0195C68.1302 20.0195 68.5312 19.9831 69.0234 19.9102L68.9961 19.5273C68.9961 18.7982 68.9505 18.1784 68.8594 17.668L68.832 17.4766C68.832 17.2214 68.9323 17.1211 69.1328 17.1758C69.3516 17.2487 69.5521 17.3398 69.7344 17.4492C69.8802 17.5221 69.9805 17.5951 70.0352 17.668C70.0898 17.7227 70.1081 17.8047 70.0898 17.9141L70.0078 19.0898V19.8008L72.4141 19.5547C72.4141 19.4271 72.4232 19.1263 72.4414 18.6523C72.4596 18.1602 72.4596 17.8411 72.4414 17.6953C72.4414 17.5495 72.4232 17.4128 72.3867 17.2852C72.3685 17.1393 72.3503 17.0208 72.332 16.9297C72.332 16.7839 72.4049 16.7109 72.5508 16.7109C72.6966 16.7109 72.8789 16.793 73.0977 16.957C73.3529 17.1211 73.5169 17.2669 73.5898 17.3945C73.681 17.5221 73.6992 17.6771 73.6445 17.8594C73.5534 18.151 73.4896 18.4792 73.4531 18.8438C73.4167 19.2083 73.3984 19.4271 73.3984 19.5C73.6172 19.4818 73.8177 19.4544 74 19.418C74.1823 19.3815 74.3008 19.3633 74.3555 19.3633C74.5013 19.3268 74.6745 19.3086 74.875 19.3086C74.9844 19.3268 75.1393 19.4362 75.3398 19.6367C75.5039 19.8555 75.5859 20.0286 75.5859 20.1562C75.5859 20.3385 75.4128 20.4115 75.0664 20.375C74.7565 20.3203 74.4466 20.293 74.1367 20.293C73.8268 20.293 73.5625 20.3021 73.3438 20.3203C73.2891 20.9766 73.1797 21.6237 73.0156 22.2617C72.9792 22.4076 72.9154 22.5352 72.8242 22.6445C72.7331 22.7357 72.651 22.7812 72.5781 22.7812C72.4505 22.7812 72.3685 22.7357 72.332 22.6445C72.3138 22.5352 72.3047 22.3711 72.3047 22.1523C72.3411 21.6784 72.3594 21.0859 72.3594 20.375C71.8672 20.4115 71.4844 20.4479 71.2109 20.4844C70.7917 20.5755 70.3997 20.6302 70.0352 20.6484C70.0169 21.3958 70.0534 22.0612 70.1445 22.6445C70.1992 23.0273 70.3086 23.2917 70.4727 23.4375C70.582 23.5286 70.7096 23.5833 70.8555 23.6016C71.0195 23.6198 71.1836 23.6289 71.3477 23.6289C71.5117 23.6289 71.6211 23.6289 71.6758 23.6289C72.2409 23.6289 72.7695 23.6016 73.2617 23.5469C73.4076 23.5286 73.5352 23.4922 73.6445 23.4375C73.7721 23.3828 73.8633 23.3555 73.918 23.3555C74.082 23.3555 74.2461 23.4102 74.4102 23.5195C74.5742 23.6289 74.6562 23.7565 74.6562 23.9023C74.6562 24.0482 74.5742 24.1576 74.4102 24.2305C74.2643 24.3034 74.0273 24.3672 73.6992 24.4219C73.1159 24.4948 72.5326 24.5312 71.9492 24.5312ZM79.7422 12.0898C79.9609 12.0898 80.0703 12.1901 80.0703 12.3906C80.0703 12.5 79.9701 12.6549 79.7695 12.8555C79.2227 13.5299 78.138 14.8151 76.5156 16.7109C76.388 16.875 76.2695 16.957 76.1602 16.957C76.069 16.957 75.8685 16.8203 75.5586 16.5469C75.3034 16.3281 75.1758 16.1458 75.1758 16C75.1758 15.8359 75.3125 15.681 75.5859 15.5352C76.0052 15.2982 76.6341 14.8242 77.4727 14.1133C78.3112 13.3659 78.931 12.7734 79.332 12.3359C79.4961 12.1719 79.6328 12.0898 79.7422 12.0898ZM46.4922 10.668L45.5625 5.55469C45.526 5.35417 45.4531 5.0625 45.3438 4.67969C45.2161 4.29688 45.0977 4.02344 44.9883 3.85938C44.8971 3.67708 44.8242 3.44922 44.7695 3.17578C44.8607 3.06641 45.0339 3.01172 45.2891 3.01172L46.1641 3.12109L46.6016 3.28516C46.8568 3.06641 47.0664 2.86589 47.2305 2.68359C47.3945 2.5013 47.5677 2.21875 47.75 1.83594C47.9323 1.45312 48.0599 1.20703 48.1328 1.09766L48.3516 0.933594H48.5977C48.7799 1.00651 49.0169 1.15234 49.3086 1.37109C49.582 1.58984 49.7826 1.79948 49.9102 2L49.8828 2.49219C49.6094 2.58333 49.3268 2.69271 49.0352 2.82031L48.2969 3.14844L46.875 3.85938L46.8203 4.57031L46.9023 5.71875L48.5703 5.19922C48.7708 5.1263 48.9531 5.08073 49.1172 5.0625C49.2995 5.04427 49.4635 5.03516 49.6094 5.03516L49.8828 5.14453L49.9648 5.58203C49.7279 5.76432 49.5 5.8737 49.2812 5.91016L47.0117 6.32031L47.1484 7.16797L47.2578 7.93359L48.8438 7.55078L49.3633 7.49609C49.7096 7.47786 49.9466 7.49609 50.0742 7.55078C50.2018 7.6237 50.2292 7.78776 50.1562 8.04297C49.901 8.20703 49.6549 8.29818 49.418 8.31641L47.3672 8.58984L47.6406 10.6133C50.1745 10.3945 51.6693 10.2487 52.125 10.1758L57.5391 9.65625C57.612 9 57.6667 8.58073 57.7031 8.39844L57.8672 7.71484L56.2812 7.82422H55.5977C55.3607 7.82422 55.1784 7.77865 55.0508 7.6875L54.8594 7.49609L54.8867 7.27734C54.9779 7.20443 55.1602 7.14974 55.4336 7.11328L57.1562 6.78516L57.6758 6.67578L58.0859 6.78516L58.332 4.92578L55.6797 5.0625L55.1055 4.78906C55.1237 4.67969 55.2057 4.60677 55.3516 4.57031L55.9531 4.48828L57.2656 4.21484L57.8672 4.10547L58.4688 4.16016L58.5781 2.84766L58.5234 2.51953C58.3776 2.41016 58.1953 2.35547 57.9766 2.35547C57.7578 2.3737 57.5664 2.39193 57.4023 2.41016L56.7461 2.51953C56.4909 2.57422 56.2448 2.60156 56.0078 2.60156C55.862 2.58333 55.6979 2.53776 55.5156 2.46484L55.2422 2.05469C55.2969 1.94531 55.4062 1.89062 55.5703 1.89062C55.7161 1.8724 55.9076 1.84505 56.1445 1.80859L57.4023 1.53516L58.3594 1.23438L58.9609 1.09766C59.1432 1.07943 59.3164 1.09766 59.4805 1.15234C59.6445 1.20703 59.8268 1.29818 60.0273 1.42578C60.2096 1.53516 60.401 1.68099 60.6016 1.86328L60.9023 2.21875C60.8841 2.34635 60.8294 2.49219 60.7383 2.65625C60.6289 2.82031 60.5286 3.01172 60.4375 3.23047C60.3281 3.44922 60.2461 3.64062 60.1914 3.80469C60.1367 3.96875 60.0911 4.16016 60.0547 4.37891L58.8516 9.4375L60.3281 9.24609L60.875 9.13672C61.2031 9.0638 61.4674 9.02734 61.668 9.02734C61.8685 9.04557 62.0508 9.09115 62.2148 9.16406C62.3789 9.25521 62.625 9.4375 62.9531 9.71094L63.8281 10.4219C64.138 10.6953 64.3477 10.9414 64.457 11.1602L64.5938 11.543C64.5573 11.707 64.4115 11.8255 64.1562 11.8984L63.0625 12.0352C62.9531 12.0716 62.6159 12.1628 62.0508 12.3086C61.4857 12.4544 61.1484 12.5365 61.0391 12.5547L60.1914 12.8555L59.7812 12.6641L60.4922 11.707C60.6745 11.4883 60.8294 11.2331 60.957 10.9414L61.0938 10.5039C61.0573 10.3945 60.9206 10.3307 60.6836 10.3125C60.4466 10.2943 60.2643 10.2852 60.1367 10.2852L48.6797 11.4062C48.2786 11.4609 47.8229 11.5156 47.3125 11.5703C46.8203 11.6432 46.4193 11.707 46.1094 11.7617C45.7812 11.8164 45.5169 11.8438 45.3164 11.8438C45.0612 11.8438 44.8607 11.8255 44.7148 11.7891L44.2773 11.707L43.9766 12.5547C43.8672 12.8646 43.7578 13.1289 43.6484 13.3477C43.5391 13.5664 43.3659 13.8216 43.1289 14.1133C42.8919 14.4049 42.6276 14.5781 42.3359 14.6328C42.1536 14.6328 42.0078 14.5964 41.8984 14.5234C41.7526 14.4323 41.6523 14.2409 41.5977 13.9492L41.5703 13.7305C41.5703 13.4935 41.5977 13.2839 41.6523 13.1016L42.0078 12.5273C42.2448 12.1992 42.4271 11.8893 42.5547 11.5977L42.9375 10.668C43.0651 10.3034 43.1745 10.0208 43.2656 9.82031C43.3385 9.63802 43.4661 9.53776 43.6484 9.51953L43.9492 9.76562C44.0404 9.89323 44.1224 10.0846 44.1953 10.3398L44.2773 10.7773C44.8789 10.7591 45.2526 10.7409 45.3984 10.7227L46.4922 10.668ZM53.4102 15.6445L53.7109 16.082L53.8203 16.8203L56.0625 16.6289C56.4271 16.5924 57.0833 16.5195 58.0312 16.4102C58.9792 16.3008 59.6628 16.2005 60.082 16.1094C60.5013 16 60.7839 15.9453 60.9297 15.9453C61.1484 15.9635 61.4948 16.0547 61.9688 16.2188C62.4609 16.3828 62.8255 16.5651 63.0625 16.7656C63.2812 16.9479 63.3451 17.1667 63.2539 17.4219C63.0898 17.5312 62.9349 17.5859 62.7891 17.5859L61.7227 17.6133H59.6719L57.6484 17.6953L55.5156 17.7227L53.8203 17.8047L53.793 21.0039C53.7747 21.1133 53.7565 21.4596 53.7383 22.043C53.7018 22.5898 53.6654 23.0091 53.6289 23.3008C53.5924 23.5924 53.5013 23.9023 53.3555 24.2305C53.2279 24.5404 53.0273 24.7956 52.7539 24.9961C52.5352 25.1784 52.2891 25.2513 52.0156 25.2148L51.4688 24.5859C51.25 24.3125 51.0312 24.0664 50.8125 23.8477L50.2656 23.3555L49.7188 22.8086L49.8008 22.4805L50.5938 22.5898L51.3594 22.7539L51.7695 22.8086C51.9336 22.7357 52.043 22.6081 52.0977 22.4258C52.1523 22.2435 52.1979 21.9245 52.2344 21.4688L52.3438 20.457V17.9414L50.2109 18.1328C49.737 18.1875 49.2904 18.2422 48.8711 18.2969C48.4518 18.3516 47.8685 18.4609 47.1211 18.625C46.3737 18.7708 45.8177 18.8893 45.4531 18.9805C45.0885 19.0898 44.8242 19.1445 44.6602 19.1445C44.4779 19.1445 44.2682 19.1172 44.0312 19.0625C43.8125 18.9896 43.5573 18.8893 43.2656 18.7617C42.974 18.6523 42.7552 18.5065 42.6094 18.3242L42.3906 17.9961C42.4271 17.8503 42.5729 17.7682 42.8281 17.75L43.5938 17.7227C43.9948 17.7227 44.8151 17.668 46.0547 17.5586C47.276 17.4492 48.1966 17.3581 48.8164 17.2852L52.2344 16.9023C52.1979 16.6836 52.1615 16.4831 52.125 16.3008C52.0703 16.1185 51.9609 15.9362 51.7969 15.7539L51.7422 15.1797C51.888 15.1615 52.0339 15.1706 52.1797 15.207L52.8359 15.3984L54.2031 14.0039C54.3125 13.8945 54.4219 13.7487 54.5312 13.5664L54.5039 13.1562C54.3945 13.138 54.2852 13.138 54.1758 13.1562L53.2734 13.293L50.375 13.9492L49.3906 14.168L49.0078 14.2227C48.8255 14.2227 48.6797 14.2044 48.5703 14.168C48.4609 14.1133 48.2969 14.0039 48.0781 13.8398L47.6953 13.3477C47.7135 13.2383 47.7865 13.1836 47.9141 13.1836C48.0599 13.1654 48.2969 13.138 48.625 13.1016L49.6641 13.0195C49.9557 13.0195 50.4206 12.9466 51.0586 12.8008L53.0547 12.4453C53.638 12.3177 54.1029 12.2083 54.4492 12.1172C54.7956 12.026 55.0417 11.9714 55.1875 11.9531C55.3698 11.9531 55.5247 11.9805 55.6523 12.0352C55.7799 12.0716 56.0716 12.2448 56.5273 12.5547C56.9831 12.8646 57.2474 13.0742 57.3203 13.1836L57.4297 13.5391C57.4297 13.6667 57.2839 13.776 56.9922 13.8672C56.7005 13.9583 56.4909 14.0221 56.3633 14.0586C56.2357 14.1133 56.0807 14.1862 55.8984 14.2773L53.4102 15.6445ZM52.043 7.63281L51.4688 7.05859L50.8945 6.51172L50.9219 6.32031L52.4531 6.97656C52.5625 6.79427 52.6445 6.63932 52.6992 6.51172C52.7539 6.40234 52.8086 6.23828 52.8633 6.01953C52.918 5.80078 52.9453 5.60026 52.9453 5.41797L53.082 5.0625H53.3281C53.6198 5.15365 53.8385 5.25391 53.9844 5.36328C54.1302 5.49089 54.2487 5.61849 54.3398 5.74609L54.4766 5.96484C54.4401 6.07422 54.349 6.19271 54.2031 6.32031C54.0573 6.44792 53.9206 6.58464 53.793 6.73047L53.1914 7.44141C53.4284 7.55078 53.6471 7.66016 53.8477 7.76953C54.0482 7.87891 54.1849 8.00651 54.2578 8.15234C54.3307 8.29818 54.3763 8.48047 54.3945 8.69922C54.3945 8.86328 54.349 9.02734 54.2578 9.19141L54.1211 9.38281L53.7109 9.41016C53.5651 9.30078 53.3919 9.11849 53.1914 8.86328L52.6172 8.20703L51.9062 8.80859C51.6875 8.99089 51.4505 9.17318 51.1953 9.35547L50.5938 9.68359L50.375 9.54688C50.612 9.29167 50.8034 9.08203 50.9492 8.91797L52.043 7.63281ZM52.207 3.06641L51.0859 1.69922L52.6445 2.38281L52.8359 1.80859C52.9089 1.55339 52.9635 1.35286 53 1.20703L53.0273 0.878906L53.2734 0.496094C53.5286 0.532552 53.7474 0.605469 53.9297 0.714844C54.112 0.824219 54.2669 0.951823 54.3945 1.09766L54.5312 1.37109C54.513 1.48047 54.4401 1.58073 54.3125 1.67188C54.2031 1.76302 54.0938 1.88151 53.9844 2.02734L53.4375 2.79297C53.6927 2.95703 53.9115 3.08464 54.0938 3.17578C54.2578 3.28516 54.3763 3.39453 54.4492 3.50391C54.5404 3.63151 54.5859 3.79557 54.5859 3.99609C54.5677 4.21484 54.513 4.38802 54.4219 4.51562C54.349 4.64323 54.2396 4.72526 54.0938 4.76172C53.9661 4.76172 53.8477 4.72526 53.7383 4.65234C53.6107 4.57943 53.474 4.43359 53.3281 4.21484L52.8359 3.66797C52.5807 3.92318 52.362 4.15104 52.1797 4.35156L51.4688 4.92578C51.2135 5.10807 50.9766 5.25391 50.7578 5.36328L50.5664 5.30859L50.8125 4.92578L51.6875 3.83203L52.207 3.06641Z" fill="#333333"/>
<path d="M113.266 11.9258C113.12 11.9258 112.974 11.8984 112.828 11.8438C112.682 11.7708 112.573 11.6615 112.5 11.5156C112.445 11.3516 112.327 11.1602 112.145 10.9414C111.98 10.7227 111.816 10.5586 111.652 10.4492L111.762 10.3125C111.853 10.3672 112.072 10.4766 112.418 10.6406C112.764 10.8047 113.02 10.8867 113.184 10.8867C113.439 10.8867 113.667 10.7956 113.867 10.6133C114.068 10.431 114.323 10.0846 114.633 9.57422C114.852 9.22786 115.052 8.81771 115.234 8.34375C115.417 7.86979 115.553 7.43229 115.645 7.03125L115.672 6.97656C115.672 6.92188 115.654 6.8763 115.617 6.83984C115.581 6.78516 115.544 6.75781 115.508 6.75781L114.25 6.86719C113.411 7.01302 112.536 7.13151 111.625 7.22266C111.461 7.24089 111.27 7.28646 111.051 7.35938C110.832 7.43229 110.677 7.46875 110.586 7.46875C110.44 7.46875 110.249 7.35026 110.012 7.11328C109.921 7.04036 109.829 6.94922 109.738 6.83984C109.665 6.73047 109.647 6.63932 109.684 6.56641C109.829 6.42057 109.902 6.34766 109.902 6.34766L110.039 6.23828C110.294 5.98307 110.549 5.64583 110.805 5.22656C110.987 4.97135 111.178 4.54297 111.379 3.94141C111.379 3.74089 111.424 3.64062 111.516 3.64062C111.57 3.64062 111.661 3.67708 111.789 3.75L112.227 4.02344C112.336 4.11458 112.409 4.1875 112.445 4.24219C112.482 4.29688 112.5 4.36979 112.5 4.46094C112.5 4.57031 112.427 4.70703 112.281 4.87109C112.135 5.01693 112.008 5.16276 111.898 5.30859L111.27 6.21094L111.215 6.32031C111.215 6.375 111.288 6.40234 111.434 6.40234L113.539 6.12891L114.961 6.01953L115.508 5.96484L115.809 5.91016H115.891C116.073 5.91016 116.273 6.0651 116.492 6.375C116.747 6.61198 116.875 6.8125 116.875 6.97656L116.738 7.33203C116.72 7.36849 116.574 7.79688 116.301 8.61719C115.973 9.40104 115.69 9.99349 115.453 10.3945C115.216 10.7956 114.961 11.1055 114.688 11.3242C114.195 11.7253 113.721 11.9258 113.266 11.9258ZM116.164 20.8945C115.891 20.8945 115.626 20.694 115.371 20.293C115.043 19.7826 114.724 19.3633 114.414 19.0352L113.703 18.2969C113.32 18.7344 112.983 19.0807 112.691 19.3359C112.418 19.5911 112.072 19.8372 111.652 20.0742C110.868 20.5299 110.212 20.7578 109.684 20.7578C109.556 20.7578 109.492 20.7122 109.492 20.6211C109.492 20.5664 109.665 20.4479 110.012 20.2656C110.358 20.0833 110.686 19.8646 110.996 19.6094C111.78 18.9531 112.427 18.2786 112.938 17.5859C112.828 17.4766 112.281 17.0026 111.297 16.1641C111.169 16.0729 110.978 15.918 110.723 15.6992C110.668 15.6628 110.559 15.5807 110.395 15.4531C110.23 15.3255 110.148 15.2344 110.148 15.1797C110.148 15.0885 110.194 15.043 110.285 15.043C110.559 15.043 110.996 15.2344 111.598 15.6172C112.199 15.9818 112.828 16.4193 113.484 16.9297C113.74 16.6198 113.94 16.3281 114.086 16.0547C114.232 15.7812 114.396 15.444 114.578 15.043C114.669 14.8424 114.724 14.6693 114.742 14.5234C114.76 14.3594 114.77 14.2591 114.77 14.2227C114.77 14.0221 114.824 13.9219 114.934 13.9219C115.061 13.9219 115.234 14.0221 115.453 14.2227C115.836 14.5872 116.027 14.8333 116.027 14.9609C116.027 15.0339 115.982 15.1159 115.891 15.207C115.672 15.4258 115.471 15.7174 115.289 16.082C115.18 16.3008 114.979 16.6107 114.688 17.0117C114.596 17.1211 114.523 17.2214 114.469 17.3125C114.414 17.4036 114.359 17.4857 114.305 17.5586C114.724 17.8685 115.344 18.3971 116.164 19.1445C116.365 19.3268 116.492 19.5 116.547 19.6641C116.62 19.8099 116.656 20.0104 116.656 20.2656C116.656 20.4479 116.611 20.6029 116.52 20.7305C116.428 20.8398 116.31 20.8945 116.164 20.8945ZM118.242 11.2695C118.333 11.2695 118.47 11.3333 118.652 11.4609C118.634 11.4974 118.671 11.5703 118.762 11.6797C118.853 11.7708 118.917 11.8346 118.953 11.8711C119.044 11.9622 119.135 12.0716 119.227 12.1992C119.336 12.3268 119.454 12.4635 119.582 12.6094C119.91 12.9557 120.667 13.8581 121.852 15.3164C122.052 15.6081 122.152 15.7812 122.152 15.8359C122.152 16.0182 122.043 16.1094 121.824 16.1094C121.697 16.1094 121.56 16.0182 121.414 15.8359C121.068 15.4714 120.448 14.8971 119.555 14.1133C118.862 13.4753 118.233 12.9831 117.668 12.6367C117.395 12.5091 117.258 12.3633 117.258 12.1992C117.258 12.0716 117.395 11.8893 117.668 11.6523C117.923 11.3971 118.115 11.2695 118.242 11.2695ZM87.125 6.56641L86.7422 6.51172C86.5599 6.47526 86.3867 6.4388 86.2227 6.40234C86.0768 6.36589 85.8945 6.20182 85.6758 5.91016C85.694 5.76432 85.7943 5.68229 85.9766 5.66406L86.7695 5.55469L88.082 5.41797C88.4466 5.38151 88.8294 5.32682 89.2305 5.25391C89.668 5.18099 89.9414 5.1263 90.0508 5.08984L90.8984 4.81641C90.4792 4.26953 90.1875 3.84115 90.0234 3.53125C89.8776 3.22135 89.7409 2.85677 89.6133 2.4375L89.4492 1.91797L89.3398 1.53516L89.4766 1.34375C89.6224 1.34375 89.7773 1.37109 89.9414 1.42578C90.1237 1.46224 90.3607 1.5625 90.6523 1.72656C90.944 1.89062 91.2174 2.05469 91.4727 2.21875C91.7279 2.38281 91.9193 2.57422 92.0469 2.79297C92.1198 2.9388 92.1471 3.21224 92.1289 3.61328C92.0924 3.90495 92.0378 4.13281 91.9648 4.29688L91.8555 4.70703C92.0013 4.67057 92.1654 4.63411 92.3477 4.59766C92.5299 4.5612 92.7669 4.4974 93.0586 4.40625C93.3685 4.3151 93.7331 4.19661 94.1523 4.05078C94.2982 4.05078 94.4349 4.06901 94.5625 4.10547C94.6901 4.1237 94.8724 4.1875 95.1094 4.29688C95.3464 4.38802 95.6107 4.5612 95.9023 4.81641C95.9023 4.96224 95.8385 5.08073 95.7109 5.17188C95.6016 5.26302 95.4466 5.32682 95.2461 5.36328L94.6992 5.5L93.7148 5.69141L93.0586 5.80078C93.2227 5.81901 93.3685 5.84635 93.4961 5.88281C93.6419 5.90104 93.806 5.96484 93.9883 6.07422C94.1706 6.14714 94.3346 6.23828 94.4805 6.34766C94.6081 6.42057 94.6719 6.51172 94.6719 6.62109C94.6719 6.71224 94.6172 6.82161 94.5078 6.94922C94.4167 7.05859 94.3164 7.20443 94.207 7.38672L93.7422 8.17969L93.1953 9.16406C93.013 9.47396 92.8216 9.77474 92.6211 10.0664L92.3477 10.5039C92.5482 10.4674 92.776 10.4219 93.0312 10.3672L93.8242 10.2031C94.1159 10.1484 94.362 10.1211 94.5625 10.1211C94.763 10.1211 94.9544 10.1393 95.1367 10.1758C95.3372 10.2122 95.5469 10.276 95.7656 10.3672C96.0026 10.4401 96.194 10.5312 96.3398 10.6406C96.4492 10.7682 96.5039 10.8958 96.5039 11.0234C96.5221 11.151 96.4492 11.2331 96.2852 11.2695L95.3008 11.3789C95.1185 11.4154 94.5716 11.4883 93.6602 11.5977L91.5547 11.8438C91.0807 11.9167 90.543 12.0078 89.9414 12.1172L87.9727 12.5273C87.2617 12.6732 86.7422 12.7917 86.4141 12.8828C86.1042 12.974 85.8034 13.0833 85.5117 13.2109L84.9375 13.4023L84.6914 13.4297C84.5273 13.4297 84.3633 13.4023 84.1992 13.3477C83.9805 13.2747 83.7799 13.1836 83.5977 13.0742C83.4154 12.9648 83.1966 12.8099 82.9414 12.6094L82.6406 12.1992C82.7135 12.0534 82.8503 11.9622 83.0508 11.9258L83.625 11.8711C84.901 11.7253 85.8216 11.6068 86.3867 11.5156L88.2461 11.2148L88.793 11.1602C88.6836 11.0508 88.6016 10.9414 88.5469 10.832C88.4922 10.7227 88.3919 10.4492 88.2461 10.0117L87.918 8.91797C87.6992 8.1888 87.5716 7.76953 87.5352 7.66016L87.207 6.89453L87.125 6.56641ZM87.6445 6.59375C87.8268 6.79427 87.9727 6.93099 88.082 7.00391L88.7383 7.60547C89.0664 7.93359 89.2852 8.22526 89.3945 8.48047C89.5039 8.71745 89.5951 8.97266 89.668 9.24609C89.6862 9.42839 89.6953 9.67448 89.6953 9.98438L89.5859 10.6406L89.3398 11.0508C89.7227 10.9779 90.0326 10.9232 90.2695 10.8867C90.5247 10.8503 90.8893 10.7865 91.3633 10.6953L91.7188 10.2305C91.8099 9.84766 91.9284 9.41016 92.0742 8.91797C92.2201 8.40755 92.3203 7.98828 92.375 7.66016C92.4479 7.3138 92.4844 7.04036 92.4844 6.83984C92.5026 6.63932 92.4935 6.45703 92.457 6.29297L92.375 5.88281L91.4727 6.07422C91.0352 6.14714 90.6888 6.20182 90.4336 6.23828L89.3398 6.40234L88.4102 6.56641L87.6445 6.59375ZM91.2812 14.2773C91.6458 14.2227 91.9284 14.1771 92.1289 14.1406C92.3477 14.0859 92.5846 14.0039 92.8398 13.8945C93.0951 13.8216 93.2865 13.776 93.4141 13.7578C93.5781 13.7578 93.7148 13.7852 93.8242 13.8398C93.9883 13.8763 94.207 13.9857 94.4805 14.168C94.7357 14.3138 94.9362 14.4414 95.082 14.5508C95.2279 14.6602 95.3464 14.7969 95.4375 14.9609C95.5286 15.1068 95.5013 15.2708 95.3555 15.4531C95.2096 15.6172 95.082 15.8177 94.9727 16.0547C94.8268 16.2734 94.7174 16.474 94.6445 16.6562L93.4961 18.8984L93.8789 19.0898L94.0977 19.3633C94.0977 19.5091 93.9883 19.6094 93.7695 19.6641L93.0586 19.7188L88.3555 20.3203C88.2461 20.7031 88.1458 20.8945 88.0547 20.8945C87.9635 20.8945 87.8724 20.8763 87.7812 20.8398C87.7083 20.8034 87.6172 20.7214 87.5078 20.5938C87.4167 20.4661 87.3711 20.3294 87.3711 20.1836L86.8789 17.3398C86.8242 16.9753 86.7331 16.6471 86.6055 16.3555C86.4961 16.0638 86.4049 15.8633 86.332 15.7539L85.8672 15.2891L85.7305 15.0156C85.7669 14.888 85.9674 14.8242 86.332 14.8242L86.7695 14.9062L87.3711 15.0703L91.2812 14.2773ZM88.2734 19.3633L92.5117 18.5977L92.9492 16.1914L93.0586 15.5078V15.2344C92.9857 15.1068 92.8125 15.043 92.5391 15.043C92.3568 15.043 92.1198 15.0794 91.8281 15.1523L90.543 15.4258L89.1484 15.6992L87.8086 15.9727L88.2734 19.3633ZM100.059 4.76172C99.9857 4.96224 99.931 5.1263 99.8945 5.25391C99.8581 5.36328 99.8034 5.63672 99.7305 6.07422C99.6758 6.51172 99.6484 6.83984 99.6484 7.05859L99.2383 20.1289C99.2018 21.1497 99.1654 21.7878 99.1289 22.043L98.9648 23.3008C98.8919 23.8477 98.8008 24.2578 98.6914 24.5312L98.3906 24.8867C98.263 24.8867 98.1445 24.7591 98.0352 24.5039C97.944 24.2487 97.8893 23.8477 97.8711 23.3008L97.8164 21.9609V20.8672L98.0898 6.94922C98.0898 6.62109 98.0807 6.26562 98.0625 5.88281C98.0443 5.48177 98.026 5.17188 98.0078 4.95312C98.0078 4.71615 97.9622 4.47005 97.8711 4.21484L97.7891 3.80469L98.0625 3.53125C98.2266 3.51302 98.3724 3.52214 98.5 3.55859L99.0469 3.72266L99.7305 4.10547L102.137 3.23047C102.556 3.08464 102.921 2.9388 103.23 2.79297C103.54 2.64714 103.759 2.57422 103.887 2.57422C104.033 2.57422 104.197 2.59245 104.379 2.62891C104.561 2.70182 104.816 2.8112 105.145 2.95703C105.473 3.10286 105.71 3.21224 105.855 3.28516C106.001 3.35807 106.12 3.44922 106.211 3.55859C106.32 3.66797 106.366 3.77734 106.348 3.88672C106.348 3.97786 106.275 4.09635 106.129 4.24219C105.983 4.36979 105.801 4.5612 105.582 4.81641L105.117 5.41797L102.957 8.58984L103.668 9.05469C103.923 9.21875 104.169 9.42839 104.406 9.68359C104.643 9.9388 104.917 10.3034 105.227 10.7773C105.536 11.2331 105.783 11.7799 105.965 12.418C106.129 12.9831 106.211 13.612 106.211 14.3047C106.174 15.0521 106.047 15.6628 105.828 16.1367C105.628 16.6107 105.281 16.9661 104.789 17.2031L104.242 16.7383L103.641 16.2461L102.656 15.3711L101.754 14.7422L101.152 14.2773L101.043 14.0312L101.289 14.0039L102.246 14.1133C102.501 14.168 102.793 14.2318 103.121 14.3047C103.449 14.3594 103.714 14.3867 103.914 14.3867C104.133 14.3867 104.297 14.3411 104.406 14.25L104.461 13.8125C104.443 13.4115 104.397 13.0469 104.324 12.7188C104.27 12.3906 104.188 12.0898 104.078 11.8164C103.987 11.5247 103.832 11.1602 103.613 10.7227C103.395 10.2852 103.094 9.875 102.711 9.49219C102.328 9.10938 102.137 8.84505 102.137 8.69922L102.465 7.87891L103.395 5.08984C103.504 4.77995 103.559 4.58854 103.559 4.51562C103.559 4.42448 103.531 4.34245 103.477 4.26953C103.422 4.17839 103.276 4.11458 103.039 4.07812C102.857 4.0599 102.647 4.08724 102.41 4.16016L100.059 4.76172Z" fill="#333333"/>
<path d="M155.293 12.0898C155.038 12.0898 154.846 12.0078 154.719 11.8438C154.555 11.5339 154.217 11.1966 153.707 10.832L153.762 10.6953C154.327 10.9323 154.801 11.0508 155.184 11.0508C155.421 11.0508 155.621 10.9141 155.785 10.6406C155.967 10.349 156.159 9.92969 156.359 9.38281C156.596 8.70833 156.724 8.14323 156.742 7.6875C156.742 7.63281 156.715 7.58724 156.66 7.55078C156.605 7.49609 156.56 7.46875 156.523 7.46875C156.359 7.45052 156.049 7.47786 155.594 7.55078L155.02 7.63281C154.855 7.65104 154.664 7.6875 154.445 7.74219C154.245 7.79688 154.081 7.83333 153.953 7.85156C153.88 7.86979 153.762 7.90625 153.598 7.96094C153.434 8.01562 153.315 8.04297 153.242 8.04297C153.151 8.04297 153.042 7.9974 152.914 7.90625C152.805 7.79688 152.704 7.67839 152.613 7.55078C152.595 7.53255 152.586 7.49609 152.586 7.44141C152.586 7.36849 152.641 7.27734 152.75 7.16797C152.878 7.04036 152.978 6.9401 153.051 6.86719C153.142 6.75781 153.233 6.63021 153.324 6.48438C153.415 6.32031 153.488 6.20182 153.543 6.12891C153.634 5.98307 153.707 5.8099 153.762 5.60938L153.816 5.36328C153.816 5.34505 153.807 5.29948 153.789 5.22656C153.771 5.13542 153.734 5.08984 153.68 5.08984C152.951 5.18099 152.413 5.29036 152.066 5.41797C151.993 5.45443 151.884 5.49089 151.738 5.52734C151.611 5.52734 151.501 5.47266 151.41 5.36328C151.355 5.34505 151.246 5.19922 151.082 4.92578C151.009 4.85286 150.973 4.78906 150.973 4.73438C150.973 4.60677 151.164 4.53385 151.547 4.51562L152.066 4.46094C152.158 4.46094 152.349 4.44271 152.641 4.40625C153.224 4.35156 154.035 4.28776 155.074 4.21484C155.439 4.19661 156.068 4.15104 156.961 4.07812C157.216 4.0599 157.526 4.02344 157.891 3.96875C158.091 3.91406 158.219 3.88672 158.273 3.88672C158.365 3.88672 158.456 3.92318 158.547 3.99609C158.638 4.03255 158.757 4.10547 158.902 4.21484C159.048 4.30599 159.158 4.40625 159.23 4.51562C159.303 4.60677 159.34 4.69792 159.34 4.78906C159.34 4.88021 159.294 4.94401 159.203 4.98047C159.112 5.01693 158.993 5.01693 158.848 4.98047C158.629 4.92578 158.374 4.88932 158.082 4.87109C157.809 4.85286 157.645 4.84375 157.59 4.84375C156.97 4.82552 156.195 4.85286 155.266 4.92578C155.01 4.96224 154.819 4.98047 154.691 4.98047C154.801 5.07161 154.901 5.21745 154.992 5.41797V5.47266C154.992 5.52734 154.965 5.60026 154.91 5.69141C154.855 5.78255 154.792 5.84635 154.719 5.88281C154.628 5.9375 154.518 6.0651 154.391 6.26562C154.263 6.46615 154.181 6.59375 154.145 6.64844C154.035 6.79427 153.98 6.91276 153.98 7.00391C153.98 7.07682 154.053 7.10417 154.199 7.08594C154.327 7.06771 154.591 7.03125 154.992 6.97656C155.411 6.90365 155.721 6.83984 155.922 6.78516C155.977 6.76693 156.059 6.7487 156.168 6.73047C156.296 6.71224 156.441 6.67578 156.605 6.62109C156.733 6.60286 156.861 6.63021 156.988 6.70312C157.134 6.77604 157.353 6.93099 157.645 7.16797C157.863 7.33203 157.973 7.47786 157.973 7.60547C157.973 7.69661 157.936 7.78776 157.863 7.87891C157.79 8.00651 157.736 8.17969 157.699 8.39844C157.535 9.16406 157.344 9.78385 157.125 10.2578C156.961 10.5859 156.806 10.8594 156.66 11.0781C156.514 11.2786 156.332 11.4792 156.113 11.6797C155.876 11.9531 155.603 12.0898 155.293 12.0898ZM155.484 21.6328C154.609 21.6328 153.88 21.4141 153.297 20.9766C152.695 20.4844 152.395 19.9102 152.395 19.2539C152.395 18.7435 152.586 18.2969 152.969 17.9141C153.461 17.4948 154.081 17.2852 154.828 17.2852C154.865 17.2852 154.892 17.2487 154.91 17.1758C154.947 17.0846 154.965 16.9661 154.965 16.8203L154.992 16.1094C154.865 16.1276 154.618 16.1549 154.254 16.1914C153.908 16.2279 153.652 16.2643 153.488 16.3008C153.579 16.2826 153.297 16.3464 152.641 16.4922C152.586 16.5104 152.486 16.5195 152.34 16.5195C151.993 16.5195 151.702 16.3646 151.465 16.0547C151.355 15.9453 151.301 15.8542 151.301 15.7812C151.301 15.6719 151.465 15.6172 151.793 15.6172L152.641 15.5625L154.965 15.2617V14.9336V14.25C154.947 14.1771 154.938 14.0951 154.938 14.0039C154.938 13.9128 154.928 13.8398 154.91 13.7852C154.874 13.6393 154.855 13.5482 154.855 13.5117C154.855 13.3841 154.919 13.3203 155.047 13.3203C155.211 13.3203 155.493 13.4388 155.895 13.6758C156.022 13.7487 156.086 13.849 156.086 13.9766C156.086 14.0677 156.068 14.1497 156.031 14.2227C156.013 14.2773 156.004 14.3411 156.004 14.4141V15.1797L156.824 15.0977L157.836 14.9883C157.927 14.9701 158.027 14.9427 158.137 14.9062C158.264 14.8698 158.365 14.8516 158.438 14.8516C158.547 14.8516 158.684 14.9062 158.848 15.0156C159.158 15.2161 159.312 15.3893 159.312 15.5352C159.312 15.681 159.158 15.7539 158.848 15.7539C158.757 15.7539 158.629 15.7721 158.465 15.8086C158.301 15.8268 158.091 15.8451 157.836 15.8633L156.004 16L155.977 17.668C155.94 17.9414 155.74 18.1146 155.375 18.1875H155.32C155.211 18.1875 155.102 18.1784 154.992 18.1602C154.901 18.1237 154.828 18.1055 154.773 18.1055C154.628 18.1055 154.482 18.1146 154.336 18.1328C154.19 18.151 154.062 18.2057 153.953 18.2969C153.643 18.5703 153.488 18.8893 153.488 19.2539C153.488 19.6185 153.661 19.9466 154.008 20.2383C154.318 20.5299 154.81 20.6758 155.484 20.6758C156.378 20.6393 157.107 20.3932 157.672 19.9375C157.909 19.7734 158.091 19.6914 158.219 19.6914C158.292 19.6914 158.383 19.7096 158.492 19.7461C158.51 19.7643 158.547 19.8008 158.602 19.8555C158.656 19.9102 158.684 19.9648 158.684 20.0195C158.684 20.5299 158.255 20.9492 157.398 21.2773C156.76 21.5143 156.122 21.6328 155.484 21.6328ZM160.242 11.2695C160.333 11.2695 160.47 11.3333 160.652 11.4609C160.634 11.4974 160.671 11.5703 160.762 11.6797C160.853 11.7708 160.917 11.8346 160.953 11.8711C161.044 11.9622 161.135 12.0716 161.227 12.1992C161.336 12.3268 161.454 12.4635 161.582 12.6094C161.91 12.9557 162.667 13.8581 163.852 15.3164C164.052 15.6081 164.152 15.7812 164.152 15.8359C164.152 16.0182 164.043 16.1094 163.824 16.1094C163.697 16.1094 163.56 16.0182 163.414 15.8359C163.068 15.4714 162.448 14.8971 161.555 14.1133C160.862 13.4753 160.233 12.9831 159.668 12.6367C159.395 12.5091 159.258 12.3633 159.258 12.1992C159.258 12.0716 159.395 11.8893 159.668 11.6523C159.923 11.3971 160.115 11.2695 160.242 11.2695ZM140.801 15.125L140.664 22.0977L140.637 23L140.555 23.6289C140.536 23.7565 140.491 23.9206 140.418 24.1211L140.172 24.6133C140.081 24.7409 139.999 24.8503 139.926 24.9414L139.707 25.0781C139.579 25.0781 139.452 24.9779 139.324 24.7773C139.251 24.668 139.16 24.4492 139.051 24.1211C138.923 23.793 138.832 23.5195 138.777 23.3008C138.759 23.1732 138.75 23.0091 138.75 22.8086C138.75 22.5534 138.796 22.2161 138.887 21.7969C138.996 21.3776 139.069 21.0768 139.105 20.8945C139.142 20.694 139.197 20.2747 139.27 19.6367L139.434 18.2148L139.461 17.1758L139.516 16.4102C138.768 17.3398 138.167 18.0417 137.711 18.5156C137.255 18.9896 136.681 19.4909 135.988 20.0195C135.296 20.5299 134.721 20.8763 134.266 21.0586L133.582 21.2773L132.707 21.4961C132.689 21.3867 132.743 21.2865 132.871 21.1953L133.309 20.8945C133.418 20.8216 133.618 20.6758 133.91 20.457L135.496 19.0352C135.934 18.6159 136.508 17.9505 137.219 17.0391C137.93 16.1458 138.431 15.4076 138.723 14.8242L139.215 13.9766L137.027 14.4414C136.827 14.4779 136.572 14.5417 136.262 14.6328C135.952 14.724 135.724 14.7695 135.578 14.7695C135.341 14.7695 135.04 14.6784 134.676 14.4961L134.32 14.3594C134.029 14.2318 133.819 14.1042 133.691 13.9766L133.555 13.7305C133.591 13.5846 133.71 13.5117 133.91 13.5117L134.84 13.457L135.988 13.3477C136.408 13.3112 136.9 13.2565 137.465 13.1836L139.68 12.8828L139.762 10.7773L137.301 11.0234L137.082 11.2148L136.672 11.2969C136.526 11.1693 136.408 10.9779 136.316 10.7227C136.243 10.4674 136.189 10.1393 136.152 9.73828L135.715 6.12891C135.678 5.8737 135.642 5.65495 135.605 5.47266C135.551 5.29036 135.478 5.07161 135.387 4.81641L135.195 4.35156L134.812 3.66797C134.885 3.55859 135.04 3.51302 135.277 3.53125L135.934 3.64062L136.645 3.83203L139.871 3.39453C140.418 3.33984 141.056 3.2487 141.785 3.12109L143.371 2.84766C143.699 2.77474 143.991 2.69271 144.246 2.60156L144.656 2.46484C144.82 2.46484 145.076 2.51953 145.422 2.62891C145.768 2.73828 146.014 2.83854 146.16 2.92969C146.306 3.0026 146.507 3.13932 146.762 3.33984L147.145 3.80469V4.10547L146.871 4.48828C146.689 4.72526 146.552 4.96224 146.461 5.19922C146.37 5.45443 146.288 5.70964 146.215 5.96484L145.148 9.62891C145.003 10.1211 144.884 10.4492 144.793 10.6133C144.684 10.7956 144.556 10.9232 144.41 10.9961L143.945 11.0508L143.699 10.9141L143.562 10.3672L140.965 10.6406L140.855 12.8281L142.387 12.6914L143.535 12.582L144.82 12.418C145.167 12.3815 145.513 12.3268 145.859 12.2539C146.206 12.1628 146.452 12.1172 146.598 12.1172C146.78 12.1354 146.999 12.1992 147.254 12.3086C147.509 12.418 147.746 12.5365 147.965 12.6641C148.184 12.7917 148.384 12.9466 148.566 13.1289L148.812 13.4844C148.794 13.6484 148.712 13.7487 148.566 13.7852C148.421 13.8216 148.238 13.8398 148.02 13.8398L147.309 13.7852C147.163 13.7852 146.661 13.7669 145.805 13.7305C144.948 13.694 144.337 13.6758 143.973 13.6758C143.608 13.6758 143.125 13.7031 142.523 13.7578L141.566 13.8398L140.828 13.9492C141.047 14.2409 141.211 14.4414 141.32 14.5508L142.332 15.7266L143.699 17.2031C144.191 17.6953 144.665 18.1146 145.121 18.4609C145.595 18.8073 146.105 19.1081 146.652 19.3633C147.199 19.6549 147.637 19.8646 147.965 19.9922C148.311 20.1198 148.603 20.2201 148.84 20.293L149.305 20.457L149.605 20.6484C149.605 20.7943 149.533 20.8945 149.387 20.9492L148.703 21.1406C148.466 21.1953 148.056 21.2682 147.473 21.3594C146.98 21.4505 146.552 21.4961 146.188 21.4961C145.841 21.4961 145.586 21.4596 145.422 21.3867C145.258 21.3138 145.076 21.1953 144.875 21.0312C144.693 20.849 144.474 20.5846 144.219 20.2383C143.945 19.8919 143.608 19.4089 143.207 18.7891L141.867 16.793L141.047 15.5078L140.801 15.125ZM137.137 7.16797L139.707 6.83984L139.652 6.01953L139.598 5.58203L139.516 4.98047L139.27 4.16016L136.809 4.51562L137.137 7.16797ZM139.762 7.71484C139.16 7.78776 138.686 7.84245 138.34 7.87891C138.103 7.89714 137.893 7.90625 137.711 7.90625L137.191 7.87891L137.355 10.0664L139.762 9.90234V7.71484ZM141.32 6.64844L142.277 6.45703C142.751 6.36589 143.043 6.3112 143.152 6.29297L143.863 6.40234L144.383 6.45703L144.574 5.14453C144.629 4.85286 144.656 4.59766 144.656 4.37891L144.602 3.99609C144.547 3.86849 144.447 3.77734 144.301 3.72266C144.191 3.6862 144.018 3.66797 143.781 3.66797L140.637 4.02344C140.983 4.22396 141.238 4.39714 141.402 4.54297L141.676 4.95312C141.694 5.0625 141.658 5.20833 141.566 5.39062C141.493 5.6276 141.439 5.88281 141.402 6.15625L141.32 6.64844ZM141.074 9.62891C141.53 9.59245 142.004 9.53776 142.496 9.46484C142.897 9.39193 143.171 9.35547 143.316 9.35547L143.809 9.38281L143.973 8.69922L144.246 7.25L141.184 7.60547L141.074 9.62891ZM130.957 6.56641C130.793 6.45703 130.665 6.34766 130.574 6.23828C130.465 6.12891 130.365 6.01042 130.273 5.88281C130.182 5.73698 130.064 5.52734 129.918 5.25391L129.535 4.43359C129.426 4.16016 129.28 3.8138 129.098 3.39453L128.906 2.92969L128.934 2.71094L129.289 2.62891L129.754 2.79297C129.973 2.90234 130.173 3.01172 130.355 3.12109C130.538 3.21224 130.72 3.32161 130.902 3.44922C131.085 3.55859 131.249 3.69531 131.395 3.85938C131.54 4.00521 131.668 4.16016 131.777 4.32422C131.887 4.47005 131.951 4.65234 131.969 4.87109L131.996 5.11719L131.969 5.39062C131.951 5.55469 131.905 5.70964 131.832 5.85547C131.796 6.0013 131.714 6.16536 131.586 6.34766L132.652 6.23828C133.017 6.16536 133.272 6.12891 133.418 6.12891C133.564 6.12891 133.746 6.16536 133.965 6.23828C134.22 6.3112 134.439 6.40234 134.621 6.51172C134.803 6.62109 134.885 6.78516 134.867 7.00391C134.812 7.11328 134.712 7.16797 134.566 7.16797C134.457 7.20443 134.275 7.23177 134.02 7.25C133.764 7.28646 133.418 7.33203 132.98 7.38672C132.579 7.45964 132.197 7.52344 131.832 7.57812L129.918 7.96094C129.59 8.01562 129.225 8.09766 128.824 8.20703C128.423 8.31641 128.068 8.40755 127.758 8.48047C127.448 8.55339 127.184 8.64453 126.965 8.75391L126.555 8.91797C126.391 8.91797 126.236 8.89974 126.09 8.86328C125.944 8.82682 125.78 8.77214 125.598 8.69922L125.133 8.50781C125.005 8.45312 124.85 8.36198 124.668 8.23438L124.395 7.98828L124.422 7.6875L124.805 7.57812L125.516 7.49609C125.917 7.45964 126.719 7.33203 127.922 7.11328L130.957 6.56641ZM127.949 10.7227L128.387 10.6406C128.569 10.6224 128.815 10.5677 129.125 10.4766C129.453 10.3854 129.772 10.3034 130.082 10.2305C130.41 10.1393 130.684 10.0482 130.902 9.95703L131.285 9.84766L131.695 9.82031C131.823 9.83854 132.014 9.875 132.27 9.92969C132.525 9.98438 132.716 10.0482 132.844 10.1211L133.035 10.2852L132.953 10.5039L132.707 10.668L131.777 10.8867L129.59 11.3789L129.234 11.4883L128.988 11.543C128.861 11.543 128.715 11.5339 128.551 11.5156L128.031 11.4062C127.794 11.2969 127.63 11.0964 127.539 10.8047L127.949 10.7227ZM128.004 13.4297L128.414 13.3477L129.016 13.2383L130.055 13.0195L130.875 12.7461C131.057 12.7096 131.24 12.6823 131.422 12.6641C131.568 12.6641 131.704 12.6732 131.832 12.6914C132.051 12.7096 132.233 12.7461 132.379 12.8008C132.525 12.8555 132.671 12.9193 132.816 12.9922L133.008 13.1562L132.98 13.375C132.908 13.4661 132.798 13.5117 132.652 13.5117L131.34 13.7852L129.973 14.0586L129.098 14.2773L128.469 14.25C128.305 14.2135 128.132 14.168 127.949 14.1133C127.767 14.0404 127.639 13.8398 127.566 13.5117C127.785 13.4753 127.931 13.4479 128.004 13.4297ZM127.895 16.6289L129.426 16.3008C129.608 16.2643 129.781 16.2188 129.945 16.1641L130.684 15.918C131.012 15.8086 131.258 15.6992 131.422 15.5898L131.75 15.4258C131.878 15.4258 132.033 15.4622 132.215 15.5352C132.397 15.6081 132.607 15.6992 132.844 15.8086C133.081 15.918 133.29 16.0365 133.473 16.1641C133.637 16.2734 133.682 16.4557 133.609 16.7109C133.445 16.9115 133.318 17.0938 133.227 17.2578C133.135 17.4219 133.053 17.5859 132.98 17.75C132.908 17.9141 132.835 18.1055 132.762 18.3242L132.215 19.9102L132.543 20.1289L132.652 20.5938C132.525 20.612 132.397 20.6302 132.27 20.6484C132.124 20.6484 131.969 20.6576 131.805 20.6758L131.477 20.7031C131.349 20.7214 131.03 20.7669 130.52 20.8398L128.879 21.2227C128.77 21.4596 128.578 21.5599 128.305 21.5234C128.122 21.3594 128.004 21.2044 127.949 21.0586C127.876 20.8945 127.84 20.7396 127.84 20.5938L127.484 18.6523C127.43 18.3971 127.366 18.1602 127.293 17.9414C127.238 17.7227 127.174 17.5404 127.102 17.3945C127.01 17.2669 126.91 17.1576 126.801 17.0664L126.527 16.6836C126.564 16.556 126.682 16.474 126.883 16.4375L127.348 16.5195L127.895 16.6289ZM128.934 20.1562L131.121 19.6914L131.504 17.3672L131.531 17.0664L131.395 16.793C131.23 16.7747 131.012 16.793 130.738 16.8477L128.551 17.2852L128.934 20.1562Z" fill="#333333"/>
<path d="M200.164 11.3242C199.891 11.3242 199.626 11.1237 199.371 10.7227C199.043 10.2122 198.724 9.79297 198.414 9.46484L197.703 8.72656C197.32 9.16406 196.983 9.51042 196.691 9.76562C196.418 10.0208 196.072 10.2669 195.652 10.5039C194.868 10.9596 194.212 11.1875 193.684 11.1875C193.556 11.1875 193.492 11.1419 193.492 11.0508C193.492 10.9961 193.665 10.8776 194.012 10.6953C194.358 10.513 194.686 10.2943 194.996 10.0391C195.78 9.38281 196.427 8.70833 196.938 8.01562C196.828 7.90625 196.281 7.43229 195.297 6.59375C195.169 6.5026 194.978 6.34766 194.723 6.12891C194.668 6.09245 194.559 6.01042 194.395 5.88281C194.23 5.75521 194.148 5.66406 194.148 5.60938C194.148 5.51823 194.194 5.47266 194.285 5.47266C194.559 5.47266 194.996 5.66406 195.598 6.04688C196.199 6.41146 196.828 6.84896 197.484 7.35938C197.74 7.04948 197.94 6.75781 198.086 6.48438C198.232 6.21094 198.396 5.8737 198.578 5.47266C198.669 5.27214 198.724 5.09896 198.742 4.95312C198.76 4.78906 198.77 4.6888 198.77 4.65234C198.77 4.45182 198.824 4.35156 198.934 4.35156C199.061 4.35156 199.234 4.45182 199.453 4.65234C199.836 5.01693 200.027 5.26302 200.027 5.39062C200.027 5.46354 199.982 5.54557 199.891 5.63672C199.672 5.85547 199.471 6.14714 199.289 6.51172C199.18 6.73047 198.979 7.04036 198.688 7.44141C198.596 7.55078 198.523 7.65104 198.469 7.74219C198.414 7.83333 198.359 7.91536 198.305 7.98828C198.724 8.29818 199.344 8.82682 200.164 9.57422C200.365 9.75651 200.492 9.92969 200.547 10.0938C200.62 10.2396 200.656 10.4401 200.656 10.6953C200.656 10.8776 200.611 11.0326 200.52 11.1602C200.428 11.2695 200.31 11.3242 200.164 11.3242ZM200.656 16.5742C200.857 16.793 200.957 16.9753 200.957 17.1211C200.957 17.2487 200.884 17.3672 200.738 17.4766C200.647 17.5495 200.419 17.9505 200.055 18.6797C199.654 19.3359 199.207 19.9102 198.715 20.4023C198.241 20.8763 197.767 21.2227 197.293 21.4414C197.184 21.4779 197.092 21.4961 197.02 21.4961C196.947 21.4961 196.91 21.4779 196.91 21.4414V21.3867C196.91 21.2773 197.001 21.1497 197.184 21.0039C197.512 20.7487 197.758 20.4935 197.922 20.2383C198.104 19.9648 198.241 19.7643 198.332 19.6367C198.715 19.0898 198.988 18.6432 199.152 18.2969C199.335 17.987 199.462 17.668 199.535 17.3398H199.426C198.952 17.3398 198.186 17.3945 197.129 17.5039C196.965 17.5221 196.491 17.5859 195.707 17.6953C195.543 17.7135 195.288 17.7591 194.941 17.832L194.613 17.9141C194.54 17.9505 194.467 17.9688 194.395 17.9688C194.303 17.9688 194.212 17.9505 194.121 17.9141C194.03 17.8594 193.939 17.7956 193.848 17.7227C193.629 17.5404 193.52 17.3854 193.52 17.2578C193.538 17.2214 193.556 17.1667 193.574 17.0938C193.611 17.0208 193.629 16.957 193.629 16.9023L193.766 16C193.784 15.9089 193.802 15.8086 193.82 15.6992C193.839 15.5898 193.848 15.4805 193.848 15.3711C193.848 15.0247 193.839 14.7513 193.82 14.5508C193.82 14.332 193.793 14.1042 193.738 13.8672V13.7852C193.738 13.6576 193.793 13.5938 193.902 13.5938C194.012 13.5938 194.203 13.6758 194.477 13.8398C194.841 14.0951 195.023 14.2956 195.023 14.4414C195.023 14.4961 195.014 14.5417 194.996 14.5781C194.978 14.6146 194.96 14.651 194.941 14.6875C194.887 15.0156 194.859 15.1979 194.859 15.2344L194.723 16.6836C194.723 16.7201 194.741 16.7656 194.777 16.8203C194.832 16.8568 194.887 16.875 194.941 16.875C195.379 16.875 196.363 16.7656 197.895 16.5469C198.496 16.4922 198.924 16.4284 199.18 16.3555C199.344 16.3372 199.48 16.3099 199.59 16.2734C199.717 16.2188 199.799 16.1914 199.836 16.1914C199.945 16.1549 200.018 16.1367 200.055 16.1367C200.219 16.1367 200.419 16.2826 200.656 16.5742ZM205.742 9.08203C205.961 9.08203 206.07 9.18229 206.07 9.38281C206.07 9.49219 205.97 9.64714 205.77 9.84766C205.223 10.5221 204.138 11.8073 202.516 13.7031C202.388 13.8672 202.27 13.9492 202.16 13.9492C202.069 13.9492 201.868 13.8125 201.559 13.5391C201.303 13.3203 201.176 13.138 201.176 12.9922C201.176 12.8281 201.312 12.6732 201.586 12.5273C202.005 12.2904 202.634 11.8164 203.473 11.1055C204.311 10.3581 204.931 9.76562 205.332 9.32812C205.496 9.16406 205.633 9.08203 205.742 9.08203ZM176.949 16.793C176.493 16.2643 176.147 15.8815 175.91 15.6445C175.691 15.4076 175.327 15.043 174.816 14.5508C174.306 14.0586 173.896 13.6849 173.586 13.4297L172.738 12.8008C172.465 12.6367 172.237 12.5091 172.055 12.418C171.872 12.3451 171.681 12.2995 171.48 12.2812L171.098 12.1172C171.079 11.9531 171.143 11.8346 171.289 11.7617C171.417 11.6888 171.608 11.6432 171.863 11.625C172.082 11.625 172.246 11.6341 172.355 11.6523L172.766 11.7891C172.911 11.8438 173.139 11.9622 173.449 12.1445C173.759 12.3268 174.042 12.5091 174.297 12.6914C174.552 12.8737 174.871 13.1289 175.254 13.457L176.676 14.6602L177.852 15.6992L178.645 14.5781C178.9 14.2135 179.173 13.6758 179.465 12.9648C179.757 12.2721 179.993 11.5794 180.176 10.8867C180.267 10.4492 180.312 10.0755 180.312 9.76562C180.312 9.61979 180.303 9.49219 180.285 9.38281L180.176 8.61719C179.118 8.70833 178.371 8.78125 177.934 8.83594C177.514 8.89062 176.539 9.04557 175.008 9.30078C173.458 9.55599 172.392 9.75651 171.809 9.90234C171.207 10.0846 170.76 10.1758 170.469 10.1758C170.141 10.1758 169.876 10.1393 169.676 10.0664C169.421 9.99349 169.174 9.88411 168.938 9.73828C168.701 9.61068 168.564 9.41927 168.527 9.16406C168.6 9.07292 168.719 9.01823 168.883 9L169.484 8.91797L169.867 8.89062C170.396 8.85417 171.298 8.73568 172.574 8.53516L176.457 7.96094L177.551 7.82422C177.368 7.71484 177.223 7.61458 177.113 7.52344C177.004 7.43229 176.84 7.26823 176.621 7.03125C176.402 6.77604 176.12 6.34766 175.773 5.74609L174.98 4.32422L174.789 3.77734L175.062 3.61328L175.609 3.72266C175.773 3.75911 176.129 3.89583 176.676 4.13281C177.223 4.38802 177.605 4.59766 177.824 4.76172C178.043 4.92578 178.225 5.14453 178.371 5.41797C178.517 5.70964 178.599 6.01953 178.617 6.34766C178.617 6.65755 178.572 6.92188 178.48 7.14062L178.316 7.66016L182.145 7.11328C182.819 7.00391 183.348 6.89453 183.73 6.78516C184.132 6.67578 184.405 6.62109 184.551 6.62109C184.678 6.62109 184.988 6.69401 185.48 6.83984C185.991 6.94922 186.355 7.11328 186.574 7.33203C186.793 7.55078 186.884 7.78776 186.848 8.04297C186.72 8.17057 186.565 8.23438 186.383 8.23438C186.219 8.2526 185.991 8.26172 185.699 8.26172C185.426 8.29818 184.952 8.31641 184.277 8.31641C183.585 8.31641 183.129 8.32552 182.91 8.34375L181.215 8.50781C181.47 8.67188 181.762 8.84505 182.09 9.02734C182.4 9.22786 182.591 9.42839 182.664 9.62891L182.691 10.2305L182.418 10.6406C182.309 10.8047 182.181 11.0508 182.035 11.3789L181.488 12.6914C180.905 14.0039 180.486 14.8424 180.23 15.207L179.219 16.7656C179.766 17.2214 180.322 17.6589 180.887 18.0781C181.452 18.4974 182.099 18.9167 182.828 19.3359C183.557 19.7552 184.451 20.1927 185.508 20.6484C186.547 21.1042 187.495 21.4596 188.352 21.7148L190.512 22.4258L190.949 22.5625L191.168 22.8359C191.132 22.9635 191.004 23.0456 190.785 23.082C190.275 23.1549 189.309 23.2643 187.887 23.4102C186.684 23.556 185.781 23.6289 185.18 23.6289C184.56 23.6107 184.068 23.5286 183.703 23.3828C183.339 23.2188 182.974 22.9909 182.609 22.6992C182.227 22.4076 181.78 22.0065 181.27 21.4961C180.759 20.9857 180.03 20.1927 179.082 19.1172L178.098 18.0508C177.368 18.6888 176.694 19.2539 176.074 19.7461C175.454 20.2201 174.707 20.6667 173.832 21.0859C172.957 21.5052 172.027 21.8424 171.043 22.0977C170.059 22.3164 169.266 22.4258 168.664 22.4258C168.062 22.4258 167.689 22.4076 167.543 22.3711L166.996 22.2891L166.832 22.207C166.832 22.0612 166.887 21.9701 166.996 21.9336L167.734 21.7969C168.208 21.7057 168.874 21.5326 169.73 21.2773C170.587 21.0221 171.59 20.5846 172.738 19.9648C173.887 19.3451 174.807 18.7161 175.5 18.0781L176.949 16.793Z" fill="#333333"/>
<path d="M239.02 8.64453C238.783 8.64453 238.609 8.5625 238.5 8.39844C238.336 8.16146 238.172 7.97005 238.008 7.82422C237.862 7.67839 237.598 7.47786 237.215 7.22266L237.297 7.08594C238.135 7.3776 238.728 7.52344 239.074 7.52344C239.366 7.52344 239.685 7.35938 240.031 7.03125C240.396 6.6849 240.706 6.19271 240.961 5.55469C241.089 5.26302 241.18 5.02604 241.234 4.84375C241.307 4.64323 241.362 4.42448 241.398 4.1875V4.13281C241.398 3.96875 241.316 3.88672 241.152 3.88672C240.97 3.88672 240.642 3.94141 240.168 4.05078C239.913 4.1237 239.576 4.23307 239.156 4.37891L238.938 4.32422C238.919 4.30599 238.874 4.27865 238.801 4.24219C238.746 4.1875 238.701 4.13281 238.664 4.07812C238.573 3.98698 238.527 3.92318 238.527 3.88672L238.5 3.77734C238.5 3.64974 238.564 3.53125 238.691 3.42188C238.837 3.3125 238.919 3.23047 238.938 3.17578C239.083 3.01172 239.375 2.61068 239.812 1.97266C239.849 1.9362 239.913 1.85417 240.004 1.72656C240.095 1.58073 240.141 1.45312 240.141 1.34375C240.141 1.21615 239.603 1.30729 238.527 1.61719C237.434 1.94531 236.859 2.10938 236.805 2.10938C236.622 2.10938 236.431 1.95443 236.23 1.64453C236.085 1.4987 236.012 1.38021 236.012 1.28906C236.012 1.16146 236.194 1.08854 236.559 1.07031C236.978 1.05208 237.625 0.979167 238.5 0.851562C239.393 0.723958 239.922 0.641927 240.086 0.605469L240.469 0.496094C240.523 0.477865 240.587 0.46875 240.66 0.46875C240.715 0.46875 240.797 0.505208 240.906 0.578125C241.034 0.651042 241.143 0.705729 241.234 0.742188C241.471 0.851562 241.608 0.979167 241.645 1.125V1.20703C241.645 1.37109 241.553 1.54427 241.371 1.72656C241.298 1.79948 241.152 1.95443 240.934 2.19141C240.715 2.41016 240.578 2.55599 240.523 2.62891C240.451 2.70182 240.341 2.82031 240.195 2.98438C240.049 3.14844 239.967 3.2487 239.949 3.28516C239.949 3.33984 239.967 3.3763 240.004 3.39453C240.04 3.41276 240.086 3.42188 240.141 3.42188C240.688 3.34896 241.134 3.26693 241.48 3.17578L241.918 3.03906C242.118 3.03906 242.264 3.11198 242.355 3.25781C242.52 3.4401 242.629 3.59505 242.684 3.72266C242.738 3.83203 242.738 3.94141 242.684 4.05078C242.665 4.10547 242.638 4.16016 242.602 4.21484C242.565 4.26953 242.529 4.33333 242.492 4.40625C242.474 4.44271 242.438 4.51562 242.383 4.625C242.328 4.73438 242.292 4.84375 242.273 4.95312C241.945 5.90104 241.553 6.71224 241.098 7.38672C240.842 7.69661 240.56 7.96094 240.25 8.17969C239.831 8.48958 239.421 8.64453 239.02 8.64453ZM236.285 13.2383C236.085 13.2383 235.839 13.0833 235.547 12.7734C235.328 12.5547 235.219 12.3906 235.219 12.2812C235.219 12.2266 235.255 12.1992 235.328 12.1992C235.401 12.181 235.492 12.1719 235.602 12.1719L236.203 12.1445C236.549 12.1445 236.777 12.1354 236.887 12.1172C237.233 12.1172 237.525 12.1081 237.762 12.0898C239.329 11.944 240.387 11.8255 240.934 11.7344C241.207 11.6979 241.453 11.6615 241.672 11.625C241.891 11.5703 242.064 11.543 242.191 11.543C242.447 11.543 242.702 11.6706 242.957 11.9258C243.158 12.1263 243.258 12.2904 243.258 12.418C243.258 12.5273 243.194 12.6003 243.066 12.6367C242.975 12.6549 242.438 12.6914 241.453 12.7461C240.906 12.7643 240.232 12.8099 239.43 12.8828C238.628 12.9557 237.926 13.0286 237.324 13.1016C237.215 13.1198 237.06 13.1471 236.859 13.1836C236.659 13.2201 236.467 13.2383 236.285 13.2383ZM240.359 19.3359C240.177 19.5729 239.986 19.6914 239.785 19.6914C239.73 19.6914 239.703 19.6458 239.703 19.5547C239.703 19.4271 239.74 19.2812 239.812 19.1172C239.812 19.1172 239.995 18.7526 240.359 18.0234C240.378 17.9505 240.405 17.8776 240.441 17.8047C240.478 17.7318 240.505 17.668 240.523 17.6133V17.5859C240.523 17.5495 240.496 17.513 240.441 17.4766C240.387 17.4401 240.323 17.431 240.25 17.4492C239.958 17.4674 239.521 17.513 238.938 17.5859C238.372 17.6589 237.953 17.7318 237.68 17.8047C237.57 17.8411 237.434 17.8867 237.27 17.9414C237.124 17.9961 237.005 18.0234 236.914 18.0234C236.586 18.0234 236.312 17.9232 236.094 17.7227C235.911 17.5951 235.775 17.4674 235.684 17.3398L235.629 17.2031C235.629 17.112 235.784 17.0846 236.094 17.1211C236.513 17.1576 237.379 17.1029 238.691 16.957L239.238 16.875C239.384 16.8568 239.612 16.8294 239.922 16.793C240.25 16.7383 240.505 16.6836 240.688 16.6289C240.742 16.6107 240.797 16.5924 240.852 16.5742C240.924 16.5378 240.988 16.5195 241.043 16.5195C241.134 16.5195 241.243 16.5651 241.371 16.6562C241.517 16.7474 241.635 16.8294 241.727 16.9023C241.854 16.9935 241.936 17.0755 241.973 17.1484C242.027 17.2031 242.046 17.276 242.027 17.3672C242.027 17.4583 241.982 17.5404 241.891 17.6133C241.799 17.6862 241.736 17.7409 241.699 17.7773C241.663 17.832 241.535 17.9688 241.316 18.1875C241.225 18.3333 241.061 18.5339 240.824 18.7891C240.605 19.0443 240.451 19.2266 240.359 19.3359ZM238.992 24.7227C238.992 24.668 239.083 24.5221 239.266 24.2852C239.466 24.0664 239.621 23.8932 239.73 23.7656C240.004 23.401 240.332 22.8724 240.715 22.1797C241.116 21.487 241.344 21.0312 241.398 20.8125C241.435 20.7031 241.38 20.6484 241.234 20.6484C240.943 20.6484 240.141 20.7305 238.828 20.8945C237.971 21.0039 237.333 21.1133 236.914 21.2227C236.823 21.2773 236.732 21.3047 236.641 21.3047C236.495 21.3047 236.34 21.2044 236.176 21.0039C236.103 20.8763 236.066 20.7578 236.066 20.6484C236.066 20.5755 236.112 20.5026 236.203 20.4297L236.285 20.3203C236.34 20.2109 236.404 20.0651 236.477 19.8828C236.549 19.7005 236.613 19.5273 236.668 19.3633C236.759 19.0716 236.823 18.7526 236.859 18.4062C236.878 18.2057 236.987 18.151 237.188 18.2422C237.443 18.3698 237.634 18.4974 237.762 18.625C237.908 18.7344 237.953 18.8164 237.898 18.8711C237.716 19.0898 237.57 19.3359 237.461 19.6094C237.37 19.901 237.315 20.0924 237.297 20.1836C237.297 20.2565 237.342 20.293 237.434 20.293C237.707 20.293 238.117 20.2474 238.664 20.1562C238.974 20.1198 239.357 20.0742 239.812 20.0195C240.268 19.9648 240.633 19.9102 240.906 19.8555L241.59 19.7188C241.645 19.7005 241.717 19.6914 241.809 19.6914C241.9 19.6914 241.991 19.7279 242.082 19.8008C242.173 19.8555 242.273 19.9284 242.383 20.0195C242.565 20.1836 242.684 20.3203 242.738 20.4297C242.793 20.5208 242.82 20.6302 242.82 20.7578C242.82 20.8307 242.766 20.9219 242.656 21.0312C242.565 21.1406 242.456 21.3138 242.328 21.5508C241.799 22.6263 241.116 23.5286 240.277 24.2578C240.04 24.4401 239.776 24.5951 239.484 24.7227C239.357 24.7591 239.238 24.7773 239.129 24.7773C239.038 24.7956 238.992 24.7773 238.992 24.7227ZM244.242 14.2773C244.333 14.2773 244.47 14.3411 244.652 14.4688C244.634 14.5052 244.671 14.5781 244.762 14.6875C244.853 14.7786 244.917 14.8424 244.953 14.8789C245.044 14.9701 245.135 15.0794 245.227 15.207C245.336 15.3346 245.454 15.4714 245.582 15.6172C245.91 15.9635 246.667 16.8659 247.852 18.3242C248.052 18.6159 248.152 18.7891 248.152 18.8438C248.152 19.026 248.043 19.1172 247.824 19.1172C247.697 19.1172 247.56 19.026 247.414 18.8438C247.068 18.4792 246.448 17.9049 245.555 17.1211C244.862 16.4831 244.233 15.9909 243.668 15.6445C243.395 15.5169 243.258 15.3711 243.258 15.207C243.258 15.0794 243.395 14.8971 243.668 14.6602C243.923 14.4049 244.115 14.2773 244.242 14.2773ZM210.746 12.8008L210.691 13.2383L210.609 13.5117C210.555 13.6576 210.436 13.7487 210.254 13.7852L209.98 13.457C209.853 13.3112 209.753 13.0924 209.68 12.8008L209.543 11.9531L209.27 9.05469C209.233 8.92708 209.197 8.72656 209.16 8.45312L208.969 7.71484C208.896 7.49609 208.786 7.3138 208.641 7.16797L208.367 6.73047L208.504 6.56641L208.75 6.51172L209.406 6.62109L210.117 6.78516L211.566 6.45703C211.967 6.38411 212.314 6.29297 212.605 6.18359C212.897 6.07422 213.152 5.95573 213.371 5.82812L213.863 5.63672C214.046 5.61849 214.228 5.63672 214.41 5.69141C214.629 5.76432 214.875 5.86458 215.148 5.99219C215.422 6.13802 215.622 6.28385 215.75 6.42969C215.878 6.57552 215.914 6.78516 215.859 7.05859L215.449 7.6875C215.303 7.88802 215.185 8.14323 215.094 8.45312L214.82 9.41016L214.191 11.7891L214.383 12.0352L214.328 12.3906L213.426 12.4727L212.168 12.6094L210.746 12.8008ZM210.691 11.8711L212.934 11.4883L213.371 8.64453C213.408 8.35286 213.462 8.0612 213.535 7.76953L213.562 7.55078L213.535 7.27734C213.444 7.16797 213.253 7.11328 212.961 7.11328L211.84 7.33203L210.391 7.60547L210.691 11.8711ZM221.848 4.37891L220.891 6.12891L219.879 7.85156C219.587 8.34375 219.049 9.10026 218.266 10.1211C217.482 11.1419 216.816 11.944 216.27 12.5273C215.723 13.1107 215.167 13.6029 214.602 14.0039C214.055 14.4414 213.535 14.7878 213.043 15.043L212.223 15.4805L211.785 15.2891L212.77 14.4141C213.061 14.1771 213.462 13.7943 213.973 13.2656C214.483 12.737 214.993 12.1628 215.504 11.543C216.014 10.9049 216.543 10.194 217.09 9.41016C217.637 8.60807 218.184 7.7513 218.73 6.83984C219.277 5.92839 219.678 5.17188 219.934 4.57031C220.189 3.96875 220.362 3.46745 220.453 3.06641C220.544 2.66536 220.599 2.34635 220.617 2.10938C220.635 1.8724 220.645 1.66276 220.645 1.48047L220.672 1.17969C220.763 1.08854 220.872 1.03385 221 1.01562C221.146 1.01562 221.337 1.07943 221.574 1.20703C221.829 1.38932 222.048 1.5625 222.23 1.72656C222.413 1.89062 222.549 2.04557 222.641 2.19141C222.732 2.33724 222.786 2.53776 222.805 2.79297L222.449 3.33984L222.23 3.66797C222.522 3.85026 222.759 4.00521 222.941 4.13281C223.087 4.26042 223.324 4.48828 223.652 4.81641L224.691 5.80078L226.332 7.44141C226.952 8.04297 227.471 8.50781 227.891 8.83594C228.31 9.16406 228.811 9.5013 229.395 9.84766C229.978 10.2122 230.47 10.4857 230.871 10.668L232.184 11.2422L233.305 11.707L233.633 11.8711L233.66 12.2266L233.277 12.3633L232.156 12.6094L231.145 12.8008C230.652 12.8737 230.233 12.9102 229.887 12.9102C229.486 12.9102 229.176 12.8555 228.957 12.7461C228.738 12.6185 228.492 12.3997 228.219 12.0898C227.945 11.7982 227.626 11.4062 227.262 10.9141L226.141 9.46484L225.02 7.98828L223.953 6.62109C223.279 5.74609 222.85 5.23568 222.668 5.08984L221.848 4.37891ZM214.848 18.2422L215.176 17.3672L215.34 17.1484C215.486 17.1302 215.622 17.2031 215.75 17.3672C215.841 17.4948 215.905 17.7227 215.941 18.0508C215.996 18.3789 216.033 18.7253 216.051 19.0898C216.069 19.2721 216.069 19.4271 216.051 19.5547C216.014 19.974 215.905 20.3841 215.723 20.7852C215.577 21.2227 215.431 21.5508 215.285 21.7695C215.139 22.0247 214.948 22.2617 214.711 22.4805C214.492 22.7174 214.301 22.8359 214.137 22.8359C213.991 22.8359 213.836 22.7721 213.672 22.6445C213.508 22.4987 213.38 22.2982 213.289 22.043C213.216 21.8424 213.18 21.5872 213.18 21.2773C213.216 20.9857 213.262 20.7852 213.316 20.6758L213.918 19.7461L214.465 18.8438C214.665 18.5339 214.793 18.3333 214.848 18.2422ZM225.84 20.3203L225.375 18.5977C225.484 18.5612 225.603 18.6159 225.73 18.7617L226.551 19.6641C226.697 19.8281 226.934 20.0469 227.262 20.3203C227.59 20.5938 227.882 20.8034 228.137 20.9492L228.984 21.5508C229.221 21.7695 229.358 21.9518 229.395 22.0977C229.395 22.2435 229.34 22.4076 229.23 22.5898C229.085 22.7904 228.866 22.9818 228.574 23.1641C228.283 23.3464 227.9 23.5104 227.426 23.6562C226.952 23.8021 226.368 23.9115 225.676 23.9844C225.366 24.0208 225.047 24.0391 224.719 24.0391C224.318 24.0391 223.908 24.0117 223.488 23.957C222.613 23.8659 221.875 23.6836 221.273 23.4102C220.672 23.1185 220.125 22.7539 219.633 22.3164C219.141 21.8789 218.767 21.4049 218.512 20.8945C218.257 20.3659 218.038 19.7461 217.855 19.0352C217.673 18.3424 217.518 17.8047 217.391 17.4219L217.773 17.2031C218.01 17.3307 218.184 17.4492 218.293 17.5586C218.402 17.668 218.484 17.8138 218.539 17.9961L218.73 18.8438C218.803 19.2266 218.995 19.6641 219.305 20.1562C219.596 20.6484 219.915 21.0312 220.262 21.3047C220.626 21.5781 221.082 21.806 221.629 21.9883C222.176 22.1523 222.75 22.2435 223.352 22.2617C223.534 22.2799 223.707 22.2891 223.871 22.2891C224.126 22.2891 224.363 22.2708 224.582 22.2344C224.983 22.1797 225.32 22.0885 225.594 21.9609C225.867 21.8333 226.031 21.6693 226.086 21.4688C226.104 21.2865 226.077 21.0768 226.004 20.8398L225.84 20.3203ZM222.176 12.6914L220.699 12.9648C220.59 13.0013 220.353 13.0742 219.988 13.1836C219.678 13.2747 219.423 13.3203 219.223 13.3203C219.059 13.3021 218.876 13.2565 218.676 13.1836C218.457 13.0924 218.247 12.9922 218.047 12.8828C217.846 12.7734 217.719 12.5911 217.664 12.3359C217.701 12.1901 217.865 12.1172 218.156 12.1172C218.448 12.099 218.803 12.0716 219.223 12.0352C219.624 11.9987 220.025 11.9531 220.426 11.8984C220.827 11.8438 221.264 11.7617 221.738 11.6523L223.105 11.3516C223.543 11.2604 223.871 11.151 224.09 11.0234L224.5 10.832C224.664 10.832 224.865 10.8685 225.102 10.9414C225.339 11.0326 225.566 11.151 225.785 11.2969C226.004 11.4245 226.168 11.5612 226.277 11.707L226.469 12.1172C226.414 12.2266 226.314 12.3451 226.168 12.4727C226.022 12.582 225.858 12.7461 225.676 12.9648L225.02 13.7852C224.801 14.0768 224.527 14.3776 224.199 14.6875C223.889 14.9974 223.634 15.2435 223.434 15.4258C223.215 15.5898 222.969 15.7539 222.695 15.918L221.629 16.1367L222.176 15.4805C222.413 15.2253 222.632 14.9792 222.832 14.7422C223.014 14.5052 223.197 14.2318 223.379 13.9219C223.579 13.612 223.762 13.293 223.926 12.9648L223.953 12.3359C223.789 12.3177 223.616 12.3268 223.434 12.3633L222.176 12.6914ZM219.77 9.05469L220.371 8.91797L221 8.75391C221.237 8.69922 221.529 8.60807 221.875 8.48047L222.449 8.28906L222.75 8.20703C222.914 8.20703 223.087 8.22526 223.27 8.26172C223.452 8.29818 223.625 8.35286 223.789 8.42578L224.09 8.5625L224.254 8.86328C224.217 8.97266 224.108 9.04557 223.926 9.08203C223.762 9.11849 223.543 9.17318 223.27 9.24609L222.395 9.46484L221.438 9.71094C221.146 9.78385 220.854 9.82031 220.562 9.82031C220.253 9.82031 219.979 9.75651 219.742 9.62891L219.441 9.32812C219.46 9.20052 219.569 9.10938 219.77 9.05469ZM221.957 19.0352L220.562 17.0938L220.754 16.7383L221.574 16.793C221.793 16.8477 222.057 16.9388 222.367 17.0664C222.695 17.2122 222.96 17.3398 223.16 17.4492C223.342 17.5586 223.507 17.7135 223.652 17.9141C223.78 18.1146 223.844 18.4062 223.844 18.7891C223.844 19.0807 223.798 19.2995 223.707 19.4453C223.634 19.5729 223.534 19.6732 223.406 19.7461L223.078 19.8281C222.932 19.8281 222.777 19.7826 222.613 19.6914C222.431 19.6003 222.212 19.3815 221.957 19.0352ZM226.934 16.5195L226.195 15.8633L226.004 15.5352L226.25 15.3438L227.262 15.5352C227.535 15.6081 227.882 15.7174 228.301 15.8633C228.702 16.0091 229.085 16.1641 229.449 16.3281C229.796 16.4922 230.06 16.6745 230.242 16.875C230.406 17.0755 230.507 17.3763 230.543 17.7773C230.543 18.0872 230.497 18.3242 230.406 18.4883C230.279 18.6706 230.105 18.7982 229.887 18.8711C229.686 18.8711 229.395 18.707 229.012 18.3789L227.918 17.3672L226.934 16.5195Z" fill="#333333"/>
<path d="M281.676 12.1992C281.384 12.1992 281.211 12.0534 281.156 11.7617C281.047 11.4518 280.755 11.069 280.281 10.6133L280.363 10.5039C280.436 10.5404 280.646 10.6315 280.992 10.7773C281.339 10.9049 281.576 10.9688 281.703 10.9688C281.812 10.9688 281.895 10.9688 281.949 10.9688C282.004 10.9505 282.068 10.9049 282.141 10.832C282.359 10.668 282.633 10.2943 282.961 9.71094C283.198 9.23698 283.408 8.68099 283.59 8.04297C283.79 7.40495 283.891 6.92188 283.891 6.59375C283.891 6.5026 283.818 6.45703 283.672 6.45703L282.633 6.51172L281.922 6.56641L281.457 6.59375L281.266 6.62109C281.393 6.71224 281.475 6.79427 281.512 6.86719C281.566 6.92188 281.594 6.99479 281.594 7.08594C281.594 7.17708 281.484 7.43229 281.266 7.85156C281.083 8.2526 280.792 8.70833 280.391 9.21875C280.062 9.65625 279.616 10.1302 279.051 10.6406C278.504 11.1328 278.094 11.388 277.82 11.4062C277.766 11.4062 277.711 11.3971 277.656 11.3789C277.62 11.3424 277.602 11.2969 277.602 11.2422C277.602 11.224 277.747 11.0508 278.039 10.7227L278.805 9.82031C279.352 9.09115 279.908 8.16146 280.473 7.03125C280.527 6.88542 280.5 6.80339 280.391 6.78516C280.281 6.80339 280.053 6.83073 279.707 6.86719C279.361 6.88542 279.051 6.9401 278.777 7.03125C278.759 7.03125 278.695 7.05859 278.586 7.11328C278.477 7.14974 278.385 7.16797 278.312 7.16797C278.203 7.16797 278.112 7.13151 278.039 7.05859L277.82 6.86719C277.656 6.73958 277.574 6.62109 277.574 6.51172C277.574 6.47526 277.592 6.42057 277.629 6.34766L277.766 6.12891C277.839 6.03776 277.957 5.89193 278.121 5.69141C278.285 5.49089 278.467 5.21745 278.668 4.87109C278.704 4.79818 278.777 4.63411 278.887 4.37891C279.014 4.1237 279.078 3.96875 279.078 3.91406V3.80469C279.078 3.69531 279.096 3.6224 279.133 3.58594C279.169 3.54948 279.251 3.54948 279.379 3.58594C279.507 3.6224 279.661 3.72266 279.844 3.88672L280.145 4.1875C280.199 4.24219 280.227 4.30599 280.227 4.37891C280.227 4.5612 279.971 4.88932 279.461 5.36328C279.37 5.45443 279.26 5.59115 279.133 5.77344C279.005 5.95573 278.941 6.07422 278.941 6.12891C278.941 6.23828 279.023 6.27474 279.188 6.23828L279.816 6.15625C281.257 5.9375 282.341 5.8099 283.07 5.77344L283.809 5.66406L284.055 5.60938L284.191 5.58203C284.337 5.58203 284.438 5.60026 284.492 5.63672C284.547 5.67318 284.602 5.73698 284.656 5.82812C284.711 5.90104 284.766 5.96484 284.82 6.01953C284.948 6.16536 285.039 6.29297 285.094 6.40234L285.148 6.64844L285.094 6.75781L285.039 6.92188C285.003 7.01302 284.975 7.10417 284.957 7.19531C284.939 7.26823 284.911 7.35026 284.875 7.44141C284.492 8.91797 284.046 10.0664 283.535 10.8867C283.371 11.1784 283.089 11.4701 282.688 11.7617C282.305 12.0534 281.967 12.1992 281.676 12.1992ZM284.164 20.8945C283.891 20.8945 283.626 20.694 283.371 20.293C283.043 19.7826 282.724 19.3633 282.414 19.0352L281.703 18.2969C281.32 18.7344 280.983 19.0807 280.691 19.3359C280.418 19.5911 280.072 19.8372 279.652 20.0742C278.868 20.5299 278.212 20.7578 277.684 20.7578C277.556 20.7578 277.492 20.7122 277.492 20.6211C277.492 20.5664 277.665 20.4479 278.012 20.2656C278.358 20.0833 278.686 19.8646 278.996 19.6094C279.78 18.9531 280.427 18.2786 280.938 17.5859C280.828 17.4766 280.281 17.0026 279.297 16.1641C279.169 16.0729 278.978 15.918 278.723 15.6992C278.668 15.6628 278.559 15.5807 278.395 15.4531C278.23 15.3255 278.148 15.2344 278.148 15.1797C278.148 15.0885 278.194 15.043 278.285 15.043C278.559 15.043 278.996 15.2344 279.598 15.6172C280.199 15.9818 280.828 16.4193 281.484 16.9297C281.74 16.6198 281.94 16.3281 282.086 16.0547C282.232 15.7812 282.396 15.444 282.578 15.043C282.669 14.8424 282.724 14.6693 282.742 14.5234C282.76 14.3594 282.77 14.2591 282.77 14.2227C282.77 14.0221 282.824 13.9219 282.934 13.9219C283.061 13.9219 283.234 14.0221 283.453 14.2227C283.836 14.5872 284.027 14.8333 284.027 14.9609C284.027 15.0339 283.982 15.1159 283.891 15.207C283.672 15.4258 283.471 15.7174 283.289 16.082C283.18 16.3008 282.979 16.6107 282.688 17.0117C282.596 17.1211 282.523 17.2214 282.469 17.3125C282.414 17.4036 282.359 17.4857 282.305 17.5586C282.724 17.8685 283.344 18.3971 284.164 19.1445C284.365 19.3268 284.492 19.5 284.547 19.6641C284.62 19.8099 284.656 20.0104 284.656 20.2656C284.656 20.4479 284.611 20.6029 284.52 20.7305C284.428 20.8398 284.31 20.8945 284.164 20.8945ZM289.742 9.08203C289.961 9.08203 290.07 9.18229 290.07 9.38281C290.07 9.49219 289.97 9.64714 289.77 9.84766C289.223 10.5221 288.138 11.8073 286.516 13.7031C286.388 13.8672 286.27 13.9492 286.16 13.9492C286.069 13.9492 285.868 13.8125 285.559 13.5391C285.303 13.3203 285.176 13.138 285.176 12.9922C285.176 12.8281 285.312 12.6732 285.586 12.5273C286.005 12.2904 286.634 11.8164 287.473 11.1055C288.311 10.3581 288.931 9.76562 289.332 9.32812C289.496 9.16406 289.633 9.08203 289.742 9.08203ZM266.527 6.07422L266.555 4.59766L265.352 4.70703C265.206 4.74349 264.951 4.76172 264.586 4.76172H263.766C263.547 4.74349 263.328 4.70703 263.109 4.65234C262.909 4.57943 262.754 4.4974 262.645 4.40625L262.508 4.16016C262.581 4.05078 262.69 3.97786 262.836 3.94141L263.629 3.88672C264.194 3.85026 264.832 3.77734 265.543 3.66797L266.555 3.50391L266.527 3.03906C266.509 2.7474 266.482 2.49219 266.445 2.27344C266.409 2.07292 266.363 1.89062 266.309 1.72656C266.254 1.5625 266.172 1.40755 266.062 1.26172L265.926 0.933594L265.953 0.714844C266.026 0.605469 266.145 0.550781 266.309 0.550781C266.454 0.550781 266.6 0.56901 266.746 0.605469C266.928 0.641927 267.147 0.714844 267.402 0.824219C267.639 0.915365 267.849 1.02474 268.031 1.15234C268.214 1.26172 268.323 1.39844 268.359 1.5625C268.378 1.6901 268.341 1.84505 268.25 2.02734L268.031 2.60156L267.977 3.3125C268.305 3.27604 268.56 3.23958 268.742 3.20312L269.535 3.03906C270.1 2.94792 270.465 2.875 270.629 2.82031L270.93 2.73828C271.112 2.73828 271.34 2.77474 271.613 2.84766C271.868 2.9388 272.078 3.03906 272.242 3.14844L272.352 3.61328C272.133 3.79557 271.878 3.90495 271.586 3.94141C271.312 3.99609 270.921 4.05078 270.41 4.10547L268.414 4.32422L267.922 4.37891L267.867 5.82812L268.086 5.80078L268.469 5.69141L269.125 5.58203C269.417 5.54557 269.681 5.52734 269.918 5.52734L270.355 5.60938C270.592 5.66406 270.766 5.70052 270.875 5.71875C270.984 5.75521 271.121 5.81901 271.285 5.91016L271.531 6.10156C271.513 6.22917 271.44 6.3112 271.312 6.34766C271.185 6.38411 270.957 6.42057 270.629 6.45703L270.164 6.56641L265.844 7.08594C265.479 7.14062 265.206 7.16797 265.023 7.16797C264.823 7.16797 264.65 7.14974 264.504 7.11328C264.376 7.07682 264.24 7.03125 264.094 6.97656C263.948 6.92188 263.811 6.84896 263.684 6.75781L263.52 6.53906C263.538 6.41146 263.629 6.32943 263.793 6.29297H264.23C264.704 6.25651 265.014 6.22917 265.16 6.21094L266.008 6.10156L266.527 6.07422ZM265.734 20.1836C265.99 20.3659 266.208 20.5391 266.391 20.7031C266.555 20.849 266.582 21.0586 266.473 21.332L265.898 21.6328C265.789 21.7057 265.57 21.9154 265.242 22.2617C264.914 22.5898 264.458 22.9635 263.875 23.3828C263.292 23.8021 262.9 24.0664 262.699 24.1758C262.48 24.2852 262.289 24.3763 262.125 24.4492L261.195 24.6133L261.605 24.2031L262.125 23.7383L263.273 22.6445C263.456 22.4622 263.738 22.1341 264.121 21.6602C264.504 21.1862 264.704 20.8763 264.723 20.7305L264.805 20.2656L264.039 20.457L263.574 20.4844C263.447 20.3203 263.346 20.1016 263.273 19.8281L263.164 19.3359V18.8711L263.273 18.4883C263.346 18.2331 263.392 17.9414 263.41 17.6133L263.547 15.6719C263.547 15.4896 263.529 15.2161 263.492 14.8516C263.474 14.5052 263.447 14.2682 263.41 14.1406C263.374 14.013 263.31 13.8763 263.219 13.7305L263.109 13.4297C263.128 13.3203 263.31 13.2565 263.656 13.2383L264.176 13.3477L264.613 13.5117L267.047 13.2109C267.32 13.1927 267.594 13.1471 267.867 13.0742L268.578 12.9375C269.052 12.8464 269.408 12.7643 269.645 12.6914L270.055 12.582C270.237 12.5638 270.401 12.582 270.547 12.6367C270.711 12.6732 270.957 12.7734 271.285 12.9375C271.632 13.1016 271.878 13.2474 272.023 13.375L272.133 13.8945C272.023 14.1315 271.941 14.3229 271.887 14.4688L271.805 14.7969C271.786 14.9609 271.777 15.2799 271.777 15.7539L271.75 18.2148V19.1719C271.714 19.4453 271.65 19.6732 271.559 19.8555C271.467 20.0742 271.349 20.2565 271.203 20.4023L270.793 20.6211C270.629 20.5482 270.501 20.4297 270.41 20.2656L270.219 19.8555L265.734 20.1836ZM264.586 15.5898L267.73 15.1797C268.441 15.0885 268.924 15.0156 269.18 14.9609C269.453 14.9062 269.763 14.9062 270.109 14.9609L270.191 14.1133C270.155 13.931 270.018 13.776 269.781 13.6484C269.562 13.6302 269.353 13.6302 269.152 13.6484C268.952 13.6667 268.742 13.694 268.523 13.7305L267.484 13.8945L266.062 14.0859L265.324 14.1953L264.695 14.168L264.586 15.5898ZM264.422 17.5586L268.305 17.0664L269.672 16.9023L270.191 17.0117L270.273 15.6445L266.199 16.1641C265.47 16.2552 264.969 16.3008 264.695 16.3008L264.422 17.5586ZM264.312 19.4453C265.88 19.3177 266.819 19.2357 267.129 19.1992L270.246 18.8984L270.328 17.6953L264.395 18.2148L264.312 19.4453ZM258.188 6.73047C258.023 6.62109 257.896 6.51172 257.805 6.40234C257.695 6.3112 257.595 6.19271 257.504 6.04688L257.148 5.41797L256.766 4.54297C256.62 4.2513 256.474 3.92318 256.328 3.55859L256.137 3.09375L256.301 2.79297H256.547L256.984 2.95703C257.13 3.01172 257.331 3.11198 257.586 3.25781C257.841 3.40365 258.033 3.52214 258.16 3.61328C258.306 3.72266 258.461 3.85026 258.625 3.99609C258.771 4.14193 258.898 4.29688 259.008 4.46094C259.117 4.60677 259.181 4.78906 259.199 5.00781L259.227 5.25391L259.199 5.55469C259.181 5.71875 259.145 5.86458 259.09 5.99219C259.035 6.11979 258.944 6.28385 258.816 6.48438L259.883 6.40234C260.193 6.32943 260.43 6.29297 260.594 6.29297C260.74 6.29297 260.949 6.32943 261.223 6.40234C261.478 6.47526 261.697 6.56641 261.879 6.67578C262.043 6.78516 262.043 6.99479 261.879 7.30469C261.587 7.35938 261.378 7.39583 261.25 7.41406C261.104 7.43229 260.785 7.47786 260.293 7.55078C259.801 7.60547 259.391 7.66016 259.062 7.71484L257.148 8.09766C256.82 8.17057 256.456 8.26172 256.055 8.37109C255.654 8.46224 255.298 8.55339 254.988 8.64453C254.678 8.71745 254.414 8.80859 254.195 8.91797L253.703 9.05469C253.576 9.05469 253.439 9.03646 253.293 9L252.801 8.86328L252.363 8.67188C252.199 8.58073 252.035 8.48047 251.871 8.37109L251.625 8.125L251.652 7.85156L252.035 7.74219L252.746 7.66016L255.152 7.27734L258.188 6.73047ZM255.234 10.832L255.645 10.75C255.954 10.6953 256.237 10.6406 256.492 10.5859C256.747 10.5312 257.03 10.4583 257.34 10.3672C257.65 10.276 257.914 10.1849 258.133 10.0938L258.543 9.95703H258.953C259.135 9.95703 259.336 9.99349 259.555 10.0664C259.792 10.1029 259.974 10.1576 260.102 10.2305L260.211 10.5586C260.138 10.668 260.029 10.7409 259.883 10.7773C259.737 10.832 259.454 10.9049 259.035 10.9961L256.848 11.5156L256.492 11.5977L256.219 11.6523H255.781L255.289 11.5156C255.034 11.4245 254.879 11.2331 254.824 10.9414L255.234 10.832ZM255.18 13.5117L255.645 13.457L256.355 13.293C256.775 13.2018 257.066 13.1289 257.23 13.0742L258.051 12.8555L258.434 12.7461C258.616 12.7461 258.826 12.7643 259.062 12.8008C259.281 12.819 259.454 12.8555 259.582 12.9102C259.71 12.9466 259.846 13.0013 259.992 13.0742L260.184 13.457C260.092 13.5299 259.974 13.5846 259.828 13.6211L258.516 13.8945L257.148 14.168L256.273 14.3594H255.836L255.59 14.332C255.462 14.2956 255.307 14.2409 255.125 14.168C254.961 14.1133 254.833 13.9219 254.742 13.5938C254.961 13.5573 255.107 13.5299 255.18 13.5117ZM255.152 16.6289L256.656 16.3555C256.766 16.319 257.003 16.2552 257.367 16.1641C257.732 16.0547 257.978 15.9727 258.105 15.918C258.251 15.8815 258.424 15.8086 258.625 15.6992L259.035 15.5352C259.181 15.5352 259.336 15.5625 259.5 15.6172C259.682 15.6719 259.883 15.7539 260.102 15.8633C260.32 15.9727 260.521 16.1003 260.703 16.2461L260.977 16.5195C260.958 16.6289 260.885 16.7565 260.758 16.9023C260.648 17.0117 260.557 17.1302 260.484 17.2578C260.411 17.3854 260.32 17.5586 260.211 17.7773C260.138 17.9961 260.074 18.1784 260.02 18.3242L259.473 19.9102L259.773 20.1289L259.691 20.6211C259.509 20.6211 259.309 20.6302 259.09 20.6484L258.57 20.7031C258.461 20.7214 258.197 20.7578 257.777 20.8125L256.109 21.168C256.018 21.4049 255.909 21.5417 255.781 21.5781C255.654 21.5781 255.526 21.5052 255.398 21.3594C255.326 21.2682 255.262 21.1406 255.207 20.9766C255.152 20.8125 255.107 20.6484 255.07 20.4844L254.742 18.625L254.551 17.9141C254.496 17.7135 254.423 17.5495 254.332 17.4219C254.259 17.2943 254.168 17.1758 254.059 17.0664L253.785 16.7383C253.822 16.5924 253.931 16.5195 254.113 16.5195L254.633 16.5742L255.152 16.6289ZM256.164 20.1289L258.379 19.6914L258.762 17.3945L258.816 17.0938L258.652 16.8203C258.47 16.8021 258.251 16.8203 257.996 16.875L255.809 17.2852L256.164 20.1289ZM271.23 11.4609L263.465 12.2539L263.219 12.3359C263.109 12.3177 262.991 12.2083 262.863 12.0078L262.098 9.32812C261.988 9.09115 261.87 8.90885 261.742 8.78125L261.578 8.53516L261.742 8.26172C261.906 8.24349 262.07 8.26172 262.234 8.31641L262.617 8.39844L263.055 8.50781L267.594 7.98828L269.18 7.82422C269.763 7.78776 270.118 7.7513 270.246 7.71484L270.766 7.66016C271.203 7.58724 271.549 7.53255 271.805 7.49609L272.188 7.41406C272.406 7.39583 272.634 7.44141 272.871 7.55078C273.108 7.6237 273.354 7.7513 273.609 7.93359C273.883 8.07943 274.083 8.22526 274.211 8.37109L274.375 8.64453C274.375 8.80859 274.302 8.95443 274.156 9.08203L273.746 9.49219L273.5 9.82031L273.227 10.1758L272.68 11.1602C272.497 11.4701 272.352 11.6797 272.242 11.7891C272.115 11.8984 271.932 11.9714 271.695 12.0078L271.422 11.9805L271.203 11.7344L271.23 11.4609ZM268.688 10.7773C269.234 10.6862 269.672 10.6042 270 10.5312C270.328 10.4766 270.565 10.4492 270.711 10.4492C270.875 10.4492 271.021 10.4674 271.148 10.5039L271.531 10.6406L271.859 9.76562L271.914 9.32812L272.023 8.86328L271.969 8.58984C271.878 8.48047 271.723 8.42578 271.504 8.42578L270.93 8.45312L270.383 8.48047L269.289 8.58984L269.59 9.21875L269.316 9.57422C269.225 9.68359 269.143 9.82943 269.07 10.0117L268.688 10.7773ZM266.062 8.86328L266.363 9.02734L266.473 9.49219C266.454 9.76562 266.445 9.99349 266.445 10.1758L266.418 11.0508L268.031 10.832L268.223 10.0664L268.305 9.65625L268.387 9L268.305 8.64453L266.062 8.86328ZM265.762 11.1602L265.543 10.2031L265.461 9.76562L265.379 9.38281L265.105 8.97266L263.438 9.19141L263.656 11.3789L265.762 11.1602ZM268.387 20.7305L268.469 20.5664C268.615 20.5664 268.833 20.6211 269.125 20.7305C269.417 20.8398 269.772 20.9948 270.191 21.1953C270.611 21.3776 270.966 21.569 271.258 21.7695C271.568 21.9518 271.841 22.1706 272.078 22.4258C272.333 22.681 272.516 22.9362 272.625 23.1914C272.716 23.4466 272.762 23.7201 272.762 24.0117C272.743 24.194 272.689 24.3763 272.598 24.5586C272.507 24.7409 272.361 24.832 272.16 24.832C271.996 24.832 271.841 24.7773 271.695 24.668C271.549 24.5586 271.422 24.4492 271.312 24.3398L270.82 23.7383L269.809 22.4258L269.07 21.4961L268.387 20.7305Z" fill="#333333"/>
</svg>
