<svg width="249" height="27" viewBox="0 0 249 27" fill="none" xmlns="http://www.w3.org/2000/svg">
<path d="M29.2109 9.39844C29.1016 9.39844 28.9557 9.27995 28.7734 9.04297C28.5911 8.78776 28.5091 8.56901 28.5273 8.38672C28.5638 8.24089 28.5911 7.83073 28.6094 7.15625C28.6276 6.70052 28.6367 5.89844 28.6367 4.75C28.6367 3.94792 28.6276 3.41016 28.6094 3.13672L27.707 3.21875C27.069 3.3099 26.5221 3.35547 26.0664 3.35547C25.9388 3.35547 25.7565 3.25521 25.5195 3.05469C25.2826 2.85417 25.1641 2.70833 25.1641 2.61719C25.1641 2.47135 25.319 2.41667 25.6289 2.45312C25.8294 2.47135 26.4219 2.46224 27.4062 2.42578C28.7552 2.33464 29.7305 2.27995 30.332 2.26172C30.6419 2.24349 30.9245 2.21615 31.1797 2.17969C31.4531 2.125 31.6445 2.08854 31.7539 2.07031C31.918 2.05208 32.0638 2.07031 32.1914 2.125C32.319 2.17969 32.4375 2.2526 32.5469 2.34375C32.6745 2.41667 32.7747 2.47135 32.8477 2.50781C33.0117 2.61719 33.0938 2.71745 33.0938 2.80859C33.0938 2.88151 33.0482 2.95443 32.957 3.02734C32.8841 3.08203 32.8021 3.10938 32.7109 3.10938C32.6198 3.10938 32.4922 3.10026 32.3281 3.08203C32.1823 3.0638 32.0182 3.05469 31.8359 3.05469C31.1615 3.05469 30.4688 3.07292 29.7578 3.10938C29.7396 3.25521 29.7305 3.61979 29.7305 4.20312C29.694 5.1875 29.6758 6.15365 29.6758 7.10156V8.16797V8.41406C29.6758 8.72396 29.6484 8.92448 29.5938 9.01562C29.4297 9.27083 29.3021 9.39844 29.2109 9.39844ZM26.2852 14.2383C26.0846 14.2383 25.8385 14.0833 25.5469 13.7734C25.3281 13.5547 25.2188 13.3906 25.2188 13.2812C25.2188 13.2266 25.2552 13.1992 25.3281 13.1992C25.401 13.181 25.4922 13.1719 25.6016 13.1719L26.2031 13.1445C26.5495 13.1445 26.7773 13.1354 26.8867 13.1172C27.2331 13.1172 27.5247 13.1081 27.7617 13.0898C29.3294 12.944 30.3867 12.8255 30.9336 12.7344C31.207 12.6979 31.4531 12.6615 31.6719 12.625C31.8906 12.5703 32.0638 12.543 32.1914 12.543C32.4466 12.543 32.7018 12.6706 32.957 12.9258C33.1576 13.1263 33.2578 13.2904 33.2578 13.418C33.2578 13.5273 33.194 13.6003 33.0664 13.6367C32.9753 13.6549 32.4375 13.6914 31.4531 13.7461C30.9062 13.7643 30.2318 13.8099 29.4297 13.8828C28.6276 13.9557 27.9258 14.0286 27.3242 14.1016C27.2148 14.1198 27.0599 14.1471 26.8594 14.1836C26.6589 14.2201 26.4674 14.2383 26.2852 14.2383ZM32.1641 23.6719C32.2005 23.7448 32.2643 23.8542 32.3555 24C32.4466 24.1458 32.4922 24.319 32.4922 24.5195C32.4922 24.7018 32.4193 24.8477 32.2734 24.957C32.1276 25.0846 31.9635 25.1484 31.7812 25.1484C31.6172 25.1484 31.4805 24.9844 31.3711 24.6562C31.3164 24.5286 31.2708 24.4193 31.2344 24.3281C31.2161 24.2552 31.1979 24.1914 31.1797 24.1367C30.9427 24.2096 30.6328 24.2734 30.25 24.3281C29.8672 24.3828 29.5938 24.4284 29.4297 24.4648C28.5547 24.6289 27.9531 24.7474 27.625 24.8203C27.4974 24.8568 27.3607 24.8932 27.2148 24.9297C27.069 24.9844 26.987 25.0208 26.9688 25.0391C26.8594 25.0755 26.7773 25.0938 26.7227 25.0938C26.5768 25.0938 26.4401 25.0299 26.3125 24.9023C26.0938 24.7383 25.9297 24.5195 25.8203 24.2461C25.8021 24.2279 25.793 24.2005 25.793 24.1641C25.793 24.1276 25.8385 24.082 25.9297 24.0273C26.0391 23.9727 26.1211 23.9362 26.1758 23.918C26.4128 23.7904 26.832 23.4076 27.4336 22.7695L28.1719 22.0586L26.5586 21.1836C26.3763 21.1289 26.2578 21.0651 26.2031 20.9922C26.1484 20.9193 26.1211 20.8099 26.1211 20.6641C26.1211 20.5547 26.1393 20.4818 26.1758 20.4453C26.2305 20.3906 26.3398 20.3086 26.5039 20.1992C26.668 20.0898 26.832 19.944 26.9961 19.7617C27.0872 19.6523 27.2057 19.5339 27.3516 19.4062C27.4974 19.2786 27.6341 19.1419 27.7617 18.9961C28.3086 18.3581 28.6549 17.8568 28.8008 17.4922C28.8919 17.3099 28.9648 17.2188 29.0195 17.2188C29.056 17.2188 29.1289 17.2552 29.2383 17.3281C29.5846 17.5833 29.7943 17.8203 29.8672 18.0391V18.1211C29.8672 18.2122 29.8216 18.2852 29.7305 18.3398C29.6393 18.3945 29.5755 18.4401 29.5391 18.4766C29.4844 18.513 29.2109 18.7773 28.7188 19.2695L28.2266 19.7617C28.1354 19.8529 27.9805 20.0078 27.7617 20.2266C27.543 20.4271 27.4336 20.5456 27.4336 20.582C27.4336 20.6367 27.4609 20.6823 27.5156 20.7188C27.5885 20.7552 27.6432 20.7917 27.6797 20.8281L28.8281 21.375C29.5391 20.6641 29.9492 20.2448 30.0586 20.1172C30.5326 19.5703 30.7969 19.224 30.8516 19.0781C30.8698 19.0599 30.8971 19.0143 30.9336 18.9414C30.9701 18.8685 31.0065 18.832 31.043 18.832C31.0977 18.832 31.1523 18.8594 31.207 18.9141C31.4987 19.1875 31.7083 19.4427 31.8359 19.6797C31.8724 19.7526 31.8906 19.7982 31.8906 19.8164C31.8906 19.8529 31.8451 19.9076 31.7539 19.9805C31.681 20.0352 31.6081 20.0898 31.5352 20.1445C30.8971 20.6732 30.1497 21.3659 29.293 22.2227L27.625 23.7812C27.5885 23.8177 27.5703 23.8542 27.5703 23.8906C27.5703 23.9271 27.5885 23.9544 27.625 23.9727C27.6615 23.9909 27.7161 23.9909 27.7891 23.9727L30.9883 23.4258C30.8971 23.0612 30.7878 22.6966 30.6602 22.332V22.2773C30.6602 22.2227 30.6875 22.1953 30.7422 22.1953C30.8151 22.1953 30.9245 22.25 31.0703 22.3594C31.362 22.6146 31.7266 23.0521 32.1641 23.6719ZM37.8516 14.8945C37.9062 14.8945 37.9609 14.9219 38.0156 14.9766C38.0703 15.013 38.1068 15.0677 38.125 15.1406V15.1953C38.125 15.3229 38.0247 15.569 37.8242 15.9336L35.8555 19.3516C35.7096 19.6615 35.5182 19.8164 35.2812 19.8164C35.0443 19.8164 34.8438 19.6706 34.6797 19.3789C34.5156 19.1419 34.3151 18.7865 34.0781 18.3125C33.9688 18.1484 33.8776 17.9844 33.8047 17.8203C33.7318 17.6562 33.6771 17.5378 33.6406 17.4648C33.4401 17.1185 33.3398 16.8724 33.3398 16.7266C33.3398 16.6536 33.3672 16.599 33.4219 16.5625C33.4766 16.5078 33.5312 16.4805 33.5859 16.4805C33.7865 16.4805 33.9688 16.5898 34.1328 16.8086C34.2604 16.9362 34.3607 17.0729 34.4336 17.2188L34.7344 17.6289L35.2812 18.2578L35.5273 17.875C35.7826 17.4375 36.3841 16.5716 37.332 15.2773C37.5326 15.0221 37.7057 14.8945 37.8516 14.8945ZM0.472656 18.2852L1.45703 16.8359C1.82161 16.3073 2.14062 15.7878 2.41406 15.2773C2.6875 14.7669 2.91536 14.2474 3.09766 13.7188C3.27995 13.1901 3.40755 12.8073 3.48047 12.5703C3.51693 12.388 3.53516 12.1784 3.53516 11.9414L3.67188 11.3398C3.79948 11.3216 3.91797 11.3216 4.02734 11.3398C4.17318 11.3945 4.39193 11.5221 4.68359 11.7227C5.01172 11.9049 5.29427 12.1328 5.53125 12.4062C5.69531 12.5885 5.76823 12.7982 5.75 13.0352C5.69531 13.1445 5.59505 13.263 5.44922 13.3906L5.17578 13.6367C5.08464 13.7461 4.7474 14.2383 4.16406 15.1133C3.58073 16.0065 3.02474 16.7174 2.49609 17.2461C1.94922 17.793 1.36589 18.276 0.746094 18.6953L0.363281 18.9414L0.0625 18.8047L0.472656 18.2852ZM10.2617 18.832L10.3984 9.42578L10.2617 6.5C10.2253 6.17188 10.1797 5.79818 10.125 5.37891C10.0703 4.97786 9.97917 4.63151 9.85156 4.33984C9.72396 4.04818 9.66016 3.82943 9.66016 3.68359L9.87891 3.35547C10.0247 3.33724 10.1523 3.33724 10.2617 3.35547C10.4987 3.39193 10.7539 3.45573 11.0273 3.54688C11.319 3.63802 11.6471 3.77474 12.0117 3.95703C12.3581 4.10286 12.6315 4.26693 12.832 4.44922C13.0143 4.63151 13.0964 4.86849 13.0781 5.16016L12.7227 5.81641C12.6497 5.94401 12.5586 6.23568 12.4492 6.69141C12.3216 7.16536 12.2122 7.62109 12.1211 8.05859C12.0482 8.49609 12.0026 9.11589 11.9844 9.91797L11.793 15.3867L11.957 20.8555L12.0117 22.332C12.0117 22.806 11.957 23.1979 11.8477 23.5078C11.7565 23.7995 11.5924 24.1367 11.3555 24.5195C11.1367 24.8841 10.9362 25.1211 10.7539 25.2305L10.4531 25.3398C10.3073 25.3398 10.1797 25.2852 10.0703 25.1758C9.96094 25.0482 9.76953 24.7839 9.49609 24.3828C9.20443 24 8.8763 23.6081 8.51172 23.207C8.12891 22.8242 7.80078 22.5143 7.52734 22.2773L7.03516 21.8672L6.98047 21.5391L7.19922 21.5117L8.07422 21.7852C8.58464 21.931 8.96745 22.013 9.22266 22.0312L9.57812 22.0039C9.74219 21.9128 9.86068 21.8034 9.93359 21.6758C9.98828 21.5299 10.043 21.1107 10.0977 20.418L10.2617 18.832ZM16.4414 12.1055L16.168 11.3398L16.8242 11.5039C17.0977 11.5951 17.4622 11.7591 17.918 11.9961C18.3919 12.2148 18.9206 12.5247 19.5039 12.9258C20.0872 13.3086 20.5977 13.7734 21.0352 14.3203C21.4727 14.8672 21.7734 15.3958 21.9375 15.9062C22.1016 16.3984 22.1836 16.8451 22.1836 17.2461C22.1654 17.5924 22.0833 17.8659 21.9375 18.0664C21.8099 18.2487 21.6276 18.3581 21.3906 18.3945C21.1901 18.3945 20.9987 18.3307 20.8164 18.2031C20.6706 18.112 20.4883 17.9023 20.2695 17.5742L19.0938 15.8242C18.5469 14.9857 18.1185 14.3477 17.8086 13.9102L16.9883 12.7617L16.4414 12.1055Z" fill="#333333"/>
<path d="M74.0273 12.2695C73.7539 12.2695 73.5534 12.1237 73.4258 11.832L73.1797 11.2852C72.4688 11.4674 71.8945 11.6042 71.457 11.6953L69.6797 12.1328C69.3151 12.224 69.0872 12.2695 68.9961 12.2695C68.8867 12.2695 68.7956 12.2513 68.7227 12.2148C68.668 12.1602 68.6224 12.1146 68.5859 12.0781C68.5495 12.0234 68.5221 11.9779 68.5039 11.9414C68.3581 11.6862 68.2943 11.513 68.3125 11.4219L68.5039 11.1211C68.9779 10.4648 69.4154 9.52604 69.8164 8.30469L69.2695 8.38672L68.5586 8.46875C68.5039 8.48698 68.3854 8.52344 68.2031 8.57812C68.0391 8.61458 67.9115 8.60547 67.8203 8.55078C67.6198 8.42318 67.3555 8.19531 67.0273 7.86719C66.9544 7.79427 66.918 7.73958 66.918 7.70312C66.918 7.59375 67.1185 7.53906 67.5195 7.53906H68.4492C69.069 7.5026 69.6341 7.45703 70.1445 7.40234C70.2539 7.12891 70.3724 6.78255 70.5 6.36328C70.6276 5.94401 70.7188 5.60677 70.7734 5.35156C70.7734 5.29688 70.7734 5.1875 70.7734 5.02344C70.7917 4.85938 70.8281 4.75911 70.8828 4.72266H70.9102C70.9831 4.72266 71.0833 4.75911 71.2109 4.83203C71.3385 4.90495 71.457 4.99609 71.5664 5.10547C71.9128 5.45182 72.013 5.72526 71.8672 5.92578C71.7943 5.94401 71.6393 6.24479 71.4023 6.82812C71.3841 6.86458 71.3203 7.02865 71.2109 7.32031C71.3568 7.30208 71.8854 7.23828 72.7969 7.12891C73.2161 7.09245 73.5352 7.04688 73.7539 6.99219C74.0638 6.90104 74.3099 6.85547 74.4922 6.85547C74.638 6.85547 74.7565 6.91016 74.8477 7.01953C74.9388 7.11068 75.0026 7.17448 75.0391 7.21094C75.0938 7.26562 75.1576 7.375 75.2305 7.53906C75.3034 7.66667 75.3307 7.75781 75.3125 7.8125C75.2396 7.92188 75.112 7.97656 74.9297 7.97656C74.3281 7.9401 73.6081 7.95833 72.7695 8.03125C72.4049 8.06771 72.1315 8.10417 71.9492 8.14062L70.8828 8.25L70.6367 8.98828L70.3359 9.64453C70.2448 9.86328 70.1445 10.082 70.0352 10.3008C69.9258 10.5195 69.8438 10.7018 69.7891 10.8477C69.7708 10.8841 69.7617 10.9388 69.7617 11.0117C69.7617 11.1029 69.8164 11.1484 69.9258 11.1484C70.0716 11.1484 70.5729 11.0664 71.4297 10.9023L72.4414 10.7383L72.9062 10.6289C72.7422 10.1732 72.6146 9.88151 72.5234 9.75391C72.4323 9.6263 72.3776 9.54427 72.3594 9.50781L72.5234 9.34375C73.2344 9.79948 73.8086 10.2643 74.2461 10.7383C74.3737 10.9023 74.4557 11.0573 74.4922 11.2031C74.5469 11.349 74.5651 11.513 74.5469 11.6953C74.5104 11.8594 74.4466 11.987 74.3555 12.0781C74.319 12.1693 74.2096 12.2331 74.0273 12.2695ZM71.7852 22.168C71.7852 22.1497 71.8307 22.0859 71.9219 21.9766C72.0312 21.849 72.1497 21.694 72.2773 21.5117C72.4961 21.2018 72.7148 20.7461 72.9336 20.1445C73.1523 19.543 73.2708 18.987 73.2891 18.4766C73.2891 18.4401 73.2708 18.4036 73.2344 18.3672C73.2161 18.3125 73.1706 18.2852 73.0977 18.2852L72.4688 18.3398L71.5391 18.4219C71.3385 19.0781 70.9922 19.7891 70.5 20.5547C70.2812 20.901 69.9805 21.2109 69.5977 21.4844C69.2331 21.7396 68.8776 21.9219 68.5312 22.0312C68.4219 22.0677 68.2852 22.0859 68.1211 22.0859C67.9935 22.0677 67.9297 22.0312 67.9297 21.9766C67.9297 21.9036 67.9935 21.8398 68.1211 21.7852C68.3398 21.6393 68.5859 21.4115 68.8594 21.1016C69.151 20.7917 69.4062 20.4727 69.625 20.1445C69.7526 19.9622 69.8893 19.7253 70.0352 19.4336C70.181 19.1237 70.2995 18.8411 70.3906 18.5859C69.8073 18.6589 69.2057 18.7956 68.5859 18.9961C68.5495 19.0326 68.4857 19.0508 68.3945 19.0508C68.3398 19.0508 68.2578 19.0143 68.1484 18.9414C68.0026 18.7956 67.9023 18.6862 67.8477 18.6133C67.8112 18.5221 67.8294 18.4401 67.9023 18.3672L68.0117 18.1484C68.0846 18.0391 68.1576 17.8203 68.2305 17.4922C68.3034 17.1641 68.3398 16.8997 68.3398 16.6992C68.3398 16.6445 68.3307 16.5807 68.3125 16.5078C68.3125 16.4167 68.3216 16.3711 68.3398 16.3711C68.3763 16.3529 68.4219 16.3529 68.4766 16.3711C68.6771 16.4076 68.8594 16.4714 69.0234 16.5625C69.1693 16.6536 69.2695 16.7539 69.3242 16.8633C69.3971 16.9544 69.3971 17.0365 69.3242 17.1094C69.306 17.1276 69.2786 17.1641 69.2422 17.2188C69.2057 17.2552 69.1784 17.3099 69.1602 17.3828C69.1419 17.401 69.1055 17.6016 69.0508 17.9844C69.0508 18.0026 69.0599 18.0208 69.0781 18.0391C69.1146 18.0573 69.151 18.0573 69.1875 18.0391C69.2422 18.0391 69.3242 18.0299 69.4336 18.0117C69.543 17.9935 69.625 17.9753 69.6797 17.957C69.8073 17.9388 69.9531 17.9115 70.1172 17.875C70.2995 17.8385 70.4635 17.8112 70.6094 17.793C70.6641 17.5924 70.7005 17.3737 70.7188 17.1367C70.7552 16.8815 70.7826 16.7083 70.8008 16.6172L70.8281 16.043V15.8516C70.2448 15.8698 69.6341 15.9245 68.9961 16.0156L68.5039 16.0977H68.3945C68.3034 16.0977 68.2122 16.0703 68.1211 16.0156C68.0482 15.9609 67.9661 15.8971 67.875 15.8242C67.638 15.6055 67.5195 15.4414 67.5195 15.332C67.5195 15.2227 67.6016 15.1862 67.7656 15.2227C67.9844 15.2591 68.2122 15.2773 68.4492 15.2773L69.2422 15.25L73.043 14.9766C73.1888 14.9583 73.3255 14.9401 73.4531 14.9219C73.5807 14.8854 73.7083 14.8581 73.8359 14.8398H73.918C74.1549 14.8398 74.319 14.8854 74.4102 14.9766C74.5195 15.0495 74.5833 15.0951 74.6016 15.1133C74.8932 15.3503 75.0391 15.5326 75.0391 15.6602C75.0391 15.7695 74.8841 15.8151 74.5742 15.7969L74.0273 15.7422C73.5534 15.724 72.8424 15.7422 71.8945 15.7969L71.7852 16.8633C71.7669 17.0456 71.7487 17.1914 71.7305 17.3008C71.7122 17.4102 71.694 17.5013 71.6758 17.5742L71.6484 17.6562C72.0859 17.6198 72.5964 17.5651 73.1797 17.4922C73.2161 17.474 73.2799 17.4557 73.3711 17.4375C73.4622 17.401 73.5534 17.3737 73.6445 17.3555H73.6992C73.8086 17.3555 73.918 17.401 74.0273 17.4922C74.1367 17.5833 74.2005 17.638 74.2188 17.6562C74.3646 17.7839 74.4648 17.8932 74.5195 17.9844C74.5924 18.0573 74.6016 18.1211 74.5469 18.1758C74.5104 18.2487 74.4648 18.3216 74.4102 18.3945C74.3737 18.4492 74.3464 18.513 74.3281 18.5859C74.237 19.3516 74.0911 19.9714 73.8906 20.4453C73.7266 20.8646 73.5443 21.1836 73.3438 21.4023C73.1615 21.6029 72.9336 21.7943 72.6602 21.9766C72.5508 22.0495 72.3776 22.1133 72.1406 22.168C71.9036 22.2044 71.7852 22.2044 71.7852 22.168ZM76.2422 12.2695C76.3333 12.2695 76.4701 12.3333 76.6523 12.4609C76.6341 12.4974 76.6706 12.5703 76.7617 12.6797C76.8529 12.7708 76.9167 12.8346 76.9531 12.8711C77.0443 12.9622 77.1354 13.0716 77.2266 13.1992C77.3359 13.3268 77.4544 13.4635 77.582 13.6094C77.9102 13.9557 78.6667 14.8581 79.8516 16.3164C80.0521 16.6081 80.1523 16.7812 80.1523 16.8359C80.1523 17.0182 80.043 17.1094 79.8242 17.1094C79.6966 17.1094 79.5599 17.0182 79.4141 16.8359C79.0677 16.4714 78.4479 15.8971 77.5547 15.1133C76.862 14.4753 76.2331 13.9831 75.668 13.6367C75.3945 13.5091 75.2578 13.3633 75.2578 13.1992C75.2578 13.0716 75.3945 12.8893 75.668 12.6523C75.9232 12.3971 76.1146 12.2695 76.2422 12.2695ZM48.3242 12.3789L46.1641 12.7617C45.0885 12.944 44.4505 13.0352 44.25 13.0352C44.0495 13.0352 43.8672 13.0078 43.7031 12.9531L43.2109 12.7617C43.0104 12.6888 42.819 12.5612 42.6367 12.3789L42.3906 12.1055C42.4089 11.9961 42.582 11.9141 42.9102 11.8594L44.1133 11.7227L45.2617 11.6133C45.5534 11.5768 46.1458 11.4948 47.0391 11.3672L48.9531 11.0938L49.2539 10.6016C49.2904 10.4922 49.3633 10.2917 49.4727 10L49.7461 9.26172L48.3242 9.48047C47.9414 9.51693 47.6589 9.54427 47.4766 9.5625C47.3307 9.5625 47.2031 9.55339 47.0938 9.53516C46.9297 9.4987 46.7383 9.40755 46.5195 9.26172L46.2461 8.96094C46.2826 8.83333 46.4648 8.7513 46.793 8.71484L48.0508 8.52344C48.306 8.50521 48.6706 8.45052 49.1445 8.35938L50.0742 8.22266L50.293 7.51172L50.5391 6.19922L47.9961 6.47266C47.5404 6.50911 47.1029 6.53646 46.6836 6.55469C46.3555 6.55469 46.1185 6.52734 45.9727 6.47266C45.7904 6.41797 45.5898 6.32682 45.3711 6.19922L45.0156 5.95312L45.043 5.67969L45.4531 5.59766L46.082 5.51562C46.3737 5.4974 46.6654 5.46094 46.957 5.40625L48.2695 5.21484L50.7852 4.83203C50.8216 4.54036 50.8398 4.30339 50.8398 4.12109C50.8763 3.9388 50.8945 3.73828 50.8945 3.51953C50.8763 3.11849 50.8398 2.78125 50.7852 2.50781L50.6758 1.82422L50.8125 1.60547L51.1406 1.55078C51.4505 1.60547 51.6784 1.66016 51.8242 1.71484C51.9883 1.76953 52.2161 1.86068 52.5078 1.98828C52.7812 2.13411 52.9544 2.26172 53.0273 2.37109L53.082 2.64453C53.0638 2.79036 52.9362 3.03646 52.6992 3.38281L52.5078 4.01172L52.2617 4.61328L54.7773 4.09375L56.0352 3.84766L56.2539 3.82031C56.4727 3.82031 56.6641 3.83854 56.8281 3.875C57.1016 3.92969 57.3294 4.01172 57.5117 4.12109L57.8125 4.33984L57.8398 4.80469C57.7669 5.00521 57.4388 5.14193 56.8555 5.21484L54.7773 5.54297L52.043 5.98047L51.8789 6.44531L51.4688 8.00391L53.4375 7.59375L54.9688 7.26562C55.2057 7.26562 55.4336 7.29297 55.6523 7.34766C55.9258 7.38411 56.1628 7.47526 56.3633 7.62109L56.5547 8.08594L56.2539 8.25L55.4062 8.35938L53.5195 8.66016L52.3164 8.87891L51.168 9.09766C51.0768 9.38932 50.9857 9.66276 50.8945 9.91797L50.7305 10.3828L50.5117 10.957L53.6016 10.5195L56.1445 10.1094C56.9102 10.0182 57.4844 9.9362 57.8672 9.86328C58.25 9.79036 58.5234 9.75391 58.6875 9.75391C59.1068 9.77214 59.4622 9.86328 59.7539 10.0273C60.0456 10.2096 60.3099 10.3919 60.5469 10.5742L60.8477 10.9844L60.7383 11.2031C60.6289 11.2943 60.5013 11.3398 60.3555 11.3398L57.6484 11.4492C57.0469 11.4674 56.4362 11.5039 55.8164 11.5586L54.6406 11.668C55.6068 12.5612 56.4362 13.2904 57.1289 13.8555C57.8398 14.4023 58.569 14.8763 59.3164 15.2773C60.082 15.6602 60.9206 16.0247 61.832 16.3711C62.7617 16.7357 63.6003 17.0365 64.3477 17.2734L65.4141 17.6289L65.7695 17.793L65.7422 18.0391C65.5964 18.1849 65.3594 18.2578 65.0312 18.2578L63.582 18.3945C63.2904 18.431 62.8438 18.4492 62.2422 18.4492H61.5586C60.8659 18.431 60.401 18.3763 60.1641 18.2852C59.9271 18.1758 59.6628 18.0299 59.3711 17.8477C59.0794 17.6471 58.5508 17.1732 57.7852 16.4258C57.0378 15.6784 56.5911 15.2227 56.4453 15.0586C56.2812 14.8945 55.862 14.4023 55.1875 13.582L53.6836 11.7227L50.0195 12.1602C49.7643 12.6341 49.5091 13.0716 49.2539 13.4727C49.0169 13.8737 48.7253 14.293 48.3789 14.7305C48.0508 15.168 47.6771 15.6146 47.2578 16.0703C46.8385 16.5078 46.3372 16.9362 45.7539 17.3555C45.1706 17.793 44.6602 18.1302 44.2227 18.3672C43.7852 18.6042 43.3568 18.8138 42.9375 18.9961C42.5182 19.1784 41.9987 19.3789 41.3789 19.5977L40.5312 19.8438L40.3398 19.7344C40.3398 19.6068 40.4219 19.4883 40.5859 19.3789L41.2148 19.0234C41.9805 18.6042 42.6185 18.2305 43.1289 17.9023C43.6393 17.5742 44.2044 17.1367 44.8242 16.5898C45.4622 16.043 46.0638 15.4505 46.6289 14.8125C47.2122 14.1745 47.6406 13.6003 47.9141 13.0898L48.3242 12.3789ZM49.6367 18.5586C49.6367 18.7044 49.6094 18.8594 49.5547 19.0234L49.3906 19.3242L49.1445 19.4336C48.8893 19.4336 48.6797 19.388 48.5156 19.2969C48.3516 19.2057 48.1237 18.9779 47.832 18.6133L47.0117 17.6016L46.7383 17.082C46.8112 16.9727 46.9297 16.8997 47.0938 16.8633C47.2943 16.8633 47.5586 16.8997 47.8867 16.9727C48.2878 17.082 48.5612 17.1549 48.707 17.1914C48.8529 17.2279 48.9987 17.3008 49.1445 17.4102C49.2721 17.5195 49.3815 17.6927 49.4727 17.9297C49.582 18.1667 49.6367 18.3763 49.6367 18.5586ZM50.457 20.1172L48.4336 21.9219C48.0143 22.3047 47.7227 22.5781 47.5586 22.7422C47.3763 22.9062 47.2031 23.1068 47.0391 23.3438L46.8203 23.6445L46.3281 23.9727C46.0547 23.9727 45.8086 23.918 45.5898 23.8086C45.3711 23.681 45.1706 23.5352 44.9883 23.3711C44.7695 23.207 44.5964 23.0065 44.4688 22.7695L44.3594 22.5234L44.5508 22.2227L45.207 22.0586C45.3529 22.0221 45.763 21.8672 46.4375 21.5938C47.112 21.3203 47.5221 21.1471 47.668 21.0742L50.0742 19.7617L50.375 19.6523L50.6211 19.7891C50.6393 19.9167 50.5846 20.026 50.457 20.1172ZM49.418 23.8633L49.0078 23.1797L49.582 23.2617L50.4297 23.4805C50.612 23.5352 50.8034 23.5534 51.0039 23.5352C51.1497 23.4258 51.2591 23.2891 51.332 23.125C51.4049 22.9609 51.4414 22.5143 51.4414 21.7852L51.5234 18.3945C51.5234 18.0117 51.5143 17.6927 51.4961 17.4375C51.4779 17.2005 51.4505 16.9362 51.4141 16.6445C51.3594 16.3711 51.3138 16.125 51.2773 15.9062C51.2227 15.6693 51.1406 15.4232 51.0312 15.168L50.9219 14.8398L51.1953 14.5117C51.4323 14.4753 51.7148 14.5299 52.043 14.6758C52.444 14.8581 52.6992 14.9766 52.8086 15.0312C52.918 15.0859 53.0091 15.168 53.082 15.2773L53.1914 15.6328L53.0273 16.1523C52.9909 16.2982 52.9453 16.599 52.8906 17.0547C52.8542 17.4922 52.8359 17.8021 52.8359 17.9844V21.0469L52.9727 23.5352C52.9727 24.2279 52.8724 24.7201 52.6719 25.0117C52.4714 25.3398 52.2526 25.5768 52.0156 25.7227C51.7969 25.8867 51.6146 25.9688 51.4688 25.9688C51.3411 25.9688 51.2044 25.9049 51.0586 25.7773L50.5664 25.1758C50.3841 24.9023 50.1927 24.6654 49.9922 24.4648L49.418 23.8633ZM54.5312 18.4492L53.5195 18.668L53.957 18.0664C54.0664 17.957 54.194 17.7565 54.3398 17.4648C54.5221 17.1732 54.6589 16.918 54.75 16.6992C54.8411 16.4805 54.9141 16.2708 54.9688 16.0703L55.2148 15.6875C55.3789 15.651 55.5612 15.6875 55.7617 15.7969C55.944 15.9062 56.1081 16.0156 56.2539 16.125C56.3997 16.2526 56.5638 16.4076 56.7461 16.5898C56.9284 16.7721 57.0195 16.9727 57.0195 17.1914C56.9466 17.3372 56.819 17.4466 56.6367 17.5195C56.4544 17.556 56.0443 17.7292 55.4062 18.0391L54.5312 18.4492ZM54.5312 20.5L54.1484 20.1992L53.957 19.9258L54.2305 19.7891L55.0234 20.0078L56.1992 20.3633C56.8555 20.5456 57.3841 20.7188 57.7852 20.8828C58.1497 21.0469 58.5052 21.2839 58.8516 21.5938C59.1979 21.8854 59.4258 22.1497 59.5352 22.3867C59.6445 22.6419 59.7083 22.8971 59.7266 23.1523C59.7266 23.4076 59.681 23.599 59.5898 23.7266C59.5352 23.8359 59.362 23.9453 59.0703 24.0547C58.7969 24.0547 58.5234 23.9727 58.25 23.8086C57.9766 23.6263 57.6667 23.3711 57.3203 23.043L56.418 22.1133L55.2969 21.1289L54.5312 20.5Z" fill="#333333"/>
<path d="M110.285 9.58984C110.085 9.58984 109.839 9.4349 109.547 9.125C109.328 8.90625 109.219 8.74219 109.219 8.63281C109.219 8.57812 109.255 8.55078 109.328 8.55078C109.401 8.53255 109.492 8.52344 109.602 8.52344L110.203 8.49609C110.549 8.49609 110.777 8.48698 110.887 8.46875C111.233 8.46875 111.525 8.45964 111.762 8.44141C113.329 8.29557 114.387 8.17708 114.934 8.08594C115.207 8.04948 115.453 8.01302 115.672 7.97656C115.891 7.92188 116.064 7.89453 116.191 7.89453C116.447 7.89453 116.702 8.02214 116.957 8.27734C117.158 8.47786 117.258 8.64193 117.258 8.76953C117.258 8.87891 117.194 8.95182 117.066 8.98828C116.975 9.00651 116.438 9.04297 115.453 9.09766C114.906 9.11589 114.232 9.16146 113.43 9.23438C112.628 9.30729 111.926 9.38021 111.324 9.45312C111.215 9.47135 111.06 9.4987 110.859 9.53516C110.659 9.57161 110.467 9.58984 110.285 9.58984ZM116.492 21.5664C116.747 21.7305 116.875 21.8854 116.875 22.0312C116.875 22.2318 116.72 22.3594 116.41 22.4141C116.1 22.4688 115.663 22.5052 115.098 22.5234C114.277 22.5417 113.749 22.5143 113.512 22.4414C113.111 22.2591 112.91 21.9583 112.91 21.5391L112.938 20.5273C112.974 20.1992 112.992 19.9076 112.992 19.6523C113.01 19.4883 113.02 19.1693 113.02 18.6953C112.746 19.3151 112.391 19.9167 111.953 20.5C111.643 20.8828 111.37 21.2018 111.133 21.457C110.896 21.694 110.613 21.9219 110.285 22.1406C109.957 22.3594 109.656 22.4688 109.383 22.4688C109.219 22.4688 109.137 22.4141 109.137 22.3047C109.137 22.2865 109.31 22.1497 109.656 21.8945C110.021 21.6211 110.385 21.2474 110.75 20.7734C111.297 20.0443 111.771 19.1875 112.172 18.2031C111.461 18.2943 110.987 18.3763 110.75 18.4492C110.659 18.4674 110.577 18.4948 110.504 18.5312C110.431 18.5495 110.34 18.5495 110.23 18.5312C110.139 18.4948 110.012 18.4219 109.848 18.3125C109.684 18.1849 109.556 18.0664 109.465 17.957C109.392 17.8477 109.355 17.7747 109.355 17.7383C109.355 17.6471 109.492 17.6016 109.766 17.6016C110.44 17.6016 111.306 17.5286 112.363 17.3828C112.473 16.9635 112.527 16.2891 112.527 15.3594V14.8398C112.527 14.6211 112.573 14.5026 112.664 14.4844C112.682 14.4661 112.719 14.457 112.773 14.457C112.919 14.457 113.12 14.5664 113.375 14.7852C113.576 14.9492 113.703 15.0768 113.758 15.168C113.831 15.2409 113.84 15.3411 113.785 15.4688C113.767 15.5052 113.73 15.5781 113.676 15.6875C113.621 15.7969 113.585 15.9062 113.566 16.0156C113.548 16.1068 113.512 16.2891 113.457 16.5625C113.402 16.8177 113.366 17.0456 113.348 17.2461C113.603 17.2279 113.922 17.1914 114.305 17.1367C114.688 17.082 114.97 17.0273 115.152 16.9727L115.699 16.8359C115.882 16.7995 116.182 16.9544 116.602 17.3008C116.674 17.3555 116.711 17.4193 116.711 17.4922C116.711 17.5651 116.674 17.6289 116.602 17.6836C116.547 17.7201 116.474 17.7383 116.383 17.7383C116.055 17.7383 115.453 17.793 114.578 17.9023L113.676 17.9844C113.876 18.1302 114.004 18.2578 114.059 18.3672C114.113 18.4766 114.122 18.5859 114.086 18.6953L114.004 19.1328C113.967 19.4974 113.931 19.8984 113.895 20.3359C113.876 20.7734 113.876 21.1107 113.895 21.3477C113.895 21.4388 113.949 21.5208 114.059 21.5938C114.186 21.6667 114.314 21.7031 114.441 21.7031C114.897 21.7031 115.408 21.6576 115.973 21.5664L116.219 21.5117C116.328 21.5117 116.419 21.5299 116.492 21.5664ZM121.742 10.082C121.961 10.082 122.07 10.1823 122.07 10.3828C122.07 10.4922 121.97 10.6471 121.77 10.8477C121.223 11.5221 120.138 12.8073 118.516 14.7031C118.388 14.8672 118.27 14.9492 118.16 14.9492C118.069 14.9492 117.868 14.8125 117.559 14.5391C117.303 14.3203 117.176 14.138 117.176 13.9922C117.176 13.8281 117.312 13.6732 117.586 13.5273C118.005 13.2904 118.634 12.8164 119.473 12.1055C120.311 11.3581 120.931 10.7656 121.332 10.3281C121.496 10.1641 121.633 10.082 121.742 10.082ZM93.6875 12.7617C93.3958 12.8346 93.1497 12.8893 92.9492 12.9258C92.7487 12.9805 92.5664 13.0078 92.4023 13.0078C92.2383 13.0078 92.0924 12.9896 91.9648 12.9531L91.3906 12.7617L90.8438 12.4883C90.6979 12.3971 90.6068 12.2057 90.5703 11.9141L90.9805 11.832C91.1081 11.8138 91.3815 11.7956 91.8008 11.7773C92.2201 11.7409 92.9948 11.668 94.125 11.5586L96.9961 11.2305C97.7617 11.1576 98.5729 11.0846 99.4297 11.0117C100.268 10.9388 100.815 10.8841 101.07 10.8477C101.326 10.8112 101.781 10.7383 102.438 10.6289C103.076 10.5378 103.549 10.4557 103.859 10.3828C104.188 10.3281 104.415 10.2917 104.543 10.2734C104.707 10.2734 104.88 10.3008 105.062 10.3555C105.263 10.3919 105.491 10.474 105.746 10.6016C106.02 10.7292 106.247 10.8568 106.43 10.9844L106.73 11.2852C106.712 11.431 106.621 11.5404 106.457 11.6133C106.275 11.6862 106.047 11.7227 105.773 11.7227L104.543 11.832C104.051 11.8685 103.54 11.8867 103.012 11.8867L100.961 11.9961C100.451 12.0143 99.7214 12.0599 98.7734 12.1328C97.8255 12.2057 97.1602 12.2604 96.7773 12.2969C96.3945 12.3516 96.0482 12.3971 95.7383 12.4336L94.8906 12.543C95.0547 12.6888 95.1823 12.7982 95.2734 12.8711L95.5469 13.1445L95.6836 13.418L95.4375 13.7188L95.1914 13.8828L94.7812 14.2383L94.125 14.8672L97.3516 14.5117L98.418 14.375L99.7031 14.2109L100.906 14.0195C101.362 13.9466 101.708 13.8737 101.945 13.8008L102.383 13.6367C102.529 13.6549 102.747 13.7279 103.039 13.8555C103.312 14.0013 103.559 14.1471 103.777 14.293C103.978 14.457 104.151 14.6211 104.297 14.7852L104.434 15.332C104.288 15.5508 104.169 15.7786 104.078 16.0156C103.969 16.2526 103.896 16.444 103.859 16.5898C103.823 16.7539 103.768 17.0456 103.695 17.4648C103.622 17.8841 103.477 18.6315 103.258 19.707L102.848 21.5117C102.665 22.2044 102.438 22.8333 102.164 23.3984C101.891 23.9635 101.617 24.4102 101.344 24.7383C101.052 25.0482 100.742 25.3034 100.414 25.5039C100.177 25.6315 99.9492 25.6953 99.7305 25.6953C99.6029 25.6406 99.4479 25.4674 99.2656 25.1758L98.9922 24.7109L98.5273 24.1367L98.1445 23.6445L97.3242 22.6055L97.4609 22.4414L98.6641 22.8789L99.4844 23.125L99.9766 23.2344C100.104 23.2161 100.232 23.1159 100.359 22.9336C100.505 22.7695 100.624 22.5872 100.715 22.3867C100.824 22.2044 100.97 21.8307 101.152 21.2656C101.335 20.7005 101.471 20.2357 101.562 19.8711C101.654 19.5065 101.763 18.9596 101.891 18.2305C102 17.4831 102.073 16.918 102.109 16.5352C102.128 16.2799 102.137 16.0247 102.137 15.7695L102.027 15.25C101.9 15.1406 101.708 15.0859 101.453 15.0859L100.852 15.1133L99.3203 15.25L99.5938 15.4414L99.9766 15.7148C100.104 15.806 100.232 15.9245 100.359 16.0703L100.414 16.5625L100.004 16.9453C99.8763 17.0365 99.7396 17.1914 99.5938 17.4102L98.418 18.9961C97.9622 19.5612 97.4518 20.1263 96.8867 20.6914C96.3216 21.2747 95.7839 21.7578 95.2734 22.1406C94.763 22.5417 94.2344 22.9062 93.6875 23.2344C93.1406 23.5807 92.6393 23.8451 92.1836 24.0273L91.6094 24.2461H91.1992C91.181 24.1185 91.2539 23.9909 91.418 23.8633L92.1289 23.3711C92.3294 23.2253 92.6849 22.9427 93.1953 22.5234C93.7057 22.1042 94.1615 21.7031 94.5625 21.3203C94.9818 20.9375 95.4466 20.4544 95.957 19.8711C96.4492 19.2878 96.8503 18.7773 97.1602 18.3398C97.4701 17.9023 97.7526 17.4466 98.0078 16.9727C98.2995 16.4987 98.4635 16.1341 98.5 15.8789L98.6641 15.3047L96.1758 15.6602C96.3763 15.806 96.5404 15.9518 96.668 16.0977L96.8594 16.3711L96.6133 16.7539C96.4128 16.8268 96.2214 16.9635 96.0391 17.1641L95.6016 17.6289L94.6445 18.6133C94.3346 18.9049 93.9245 19.2331 93.4141 19.5977C92.9036 19.9805 92.4935 20.2539 92.1836 20.418C91.8737 20.6003 91.5273 20.7734 91.1445 20.9375L90.1602 21.0742L90.4062 20.8008L90.9531 20.418C91.2083 20.2174 91.4635 19.9987 91.7188 19.7617C92.0104 19.543 92.3385 19.2513 92.7031 18.8867C93.0677 18.5221 93.4049 18.1667 93.7148 17.8203C94.0065 17.474 94.2526 17.1549 94.4531 16.8633C94.6536 16.5716 94.8086 16.2891 94.918 16.0156C94.6628 15.9974 94.4349 15.9883 94.2344 15.9883C94.0521 15.9883 93.888 15.9427 93.7422 15.8516L93.3594 15.6328C92.9766 15.9427 92.6484 16.1888 92.375 16.3711C92.0833 16.5898 91.7096 16.8268 91.2539 17.082C90.7982 17.3372 90.4427 17.5195 90.1875 17.6289H89.2852L89.8594 17.1641C90.4062 16.7812 90.8802 16.3984 91.2812 16.0156C91.7005 15.6328 92.1107 15.2135 92.5117 14.7578C92.8945 14.3021 93.1589 13.9375 93.3047 13.6641C93.4505 13.3906 93.5508 13.181 93.6055 13.0352L93.6875 12.7617ZM85.5664 5.24219L85.9766 5.10547C86.0859 5.06901 86.4688 4.93229 87.125 4.69531C87.7812 4.45833 88.2279 4.26693 88.4648 4.12109C88.7018 3.95703 88.8841 3.86589 89.0117 3.84766C89.1393 3.84766 89.3034 3.88411 89.5039 3.95703C89.7409 4.04818 90.0143 4.17578 90.3242 4.33984C90.6341 4.50391 90.8255 4.64974 90.8984 4.77734L91.0352 5.05078C91.0169 5.16016 90.9714 5.26042 90.8984 5.35156C90.8255 5.44271 90.6341 5.59766 90.3242 5.81641C90.0143 6.05339 89.6953 6.36328 89.3672 6.74609C89.0391 7.11068 88.8203 7.41146 88.7109 7.64844C88.6016 7.83073 88.5469 8.01302 88.5469 8.19531C88.5469 8.3776 88.6927 8.6875 88.9844 9.125C89.276 9.54427 89.4948 9.88151 89.6406 10.1367C89.7865 10.3919 89.9414 10.7109 90.1055 11.0938C90.2331 11.4219 90.2969 11.7773 90.2969 12.1602C90.2786 12.5065 90.1966 12.862 90.0508 13.2266C89.9049 13.5729 89.7135 13.8464 89.4766 14.0469C89.3125 14.1927 89.0664 14.2292 88.7383 14.1562L87.8633 13.418L87.2344 12.9258L86.2773 12.2695L86.0859 12.0234L86.332 11.8867L87.6172 12.1055L88.1094 12.1602C88.2552 12.1602 88.3919 12.0872 88.5195 11.9414L88.5742 11.5859L88.6016 11.2578C88.5833 11.0208 88.5195 10.7292 88.4102 10.3828C88.3008 10.0365 88.1823 9.73568 88.0547 9.48047C87.9453 9.22526 87.8177 8.98828 87.6719 8.76953C87.5625 8.51432 87.4987 8.30469 87.4805 8.14062L87.6719 7.62109L88.3008 6.03516L88.2461 5.51562C88.082 5.4974 87.8997 5.50651 87.6992 5.54297L85.7852 6.00781L85.4023 17.793C85.3841 18.3581 85.3385 19.1055 85.2656 20.0352L85.1016 22.168C85.0833 22.6237 85.0469 22.9518 84.9922 23.1523C84.9193 23.3346 84.8464 23.4896 84.7734 23.6172C84.7005 23.7448 84.5365 23.7904 84.2812 23.7539C84.026 23.5352 83.8255 23.2982 83.6797 23.043C83.5339 22.7695 83.4427 22.4961 83.4062 22.2227C83.3698 22.0221 83.3516 21.8125 83.3516 21.5938C83.3516 21.3932 83.388 21.1471 83.4609 20.8555C83.5156 20.5638 83.6068 20.0352 83.7344 19.2695C83.8802 18.5039 83.9805 17.9297 84.0352 17.5469C84.0898 17.1823 84.1445 16.5807 84.1992 15.7422C84.2539 14.9036 84.2904 14.138 84.3086 13.4453L84.3906 8.66016C84.3906 8.33203 84.3633 7.90365 84.3086 7.375C84.2721 6.84635 84.2266 6.47266 84.1719 6.25391C84.1172 6.01693 84.026 5.79818 83.8984 5.59766C83.7708 5.39714 83.7161 5.1875 83.7344 4.96875L84.0898 4.83203C84.4362 4.86849 84.7005 4.91406 84.8828 4.96875L85.1836 5.07812L85.5664 5.24219ZM99.1562 9.34375L95.6016 9.78125L95.3281 10.1914C95.2005 10.1914 95.0273 10.0638 94.8086 9.80859C94.7174 9.57161 94.6628 9.38932 94.6445 9.26172L94.2891 5.1875C94.2526 4.80469 94.1979 4.49479 94.125 4.25781C94.0521 4.02083 93.9883 3.84766 93.9336 3.73828L93.6875 3.41016L93.5781 3.10938C93.6146 2.94531 93.7969 2.8724 94.125 2.89062L94.5898 2.97266L95.0273 3.13672L98.3359 2.53516L99.1836 2.31641C99.4753 2.24349 99.6758 2.19792 99.7852 2.17969L100.004 2.125C100.168 2.10677 100.341 2.15234 100.523 2.26172C100.706 2.37109 100.934 2.4987 101.207 2.64453C101.48 2.79036 101.672 2.9362 101.781 3.08203L101.863 3.60156C101.717 3.80208 101.608 3.99349 101.535 4.17578C101.48 4.3763 101.435 4.56771 101.398 4.75L100.523 8.98828C100.451 9.33464 100.286 9.59896 100.031 9.78125C99.8854 9.90885 99.7031 9.96354 99.4844 9.94531L99.2109 9.75391L99.1562 9.34375ZM95.4922 6.00781L98.0625 5.40625C98.3542 5.35156 98.5911 5.3151 98.7734 5.29688L98.9922 5.32422L99.5938 5.54297L99.7578 3.84766C99.7578 3.62891 99.7031 3.45573 99.5938 3.32812C99.5026 3.23698 99.3112 3.19141 99.0195 3.19141L95.3555 3.73828L95.4922 6.00781ZM99.5938 6.25391L96.8047 6.74609L96.2031 6.82812H95.9297L95.5469 6.71875L95.6562 8.76953L97.9805 8.41406C98.2539 8.3776 98.4635 8.35938 98.6094 8.35938L98.8828 8.38672L99.2656 8.55078L99.5938 6.25391Z" fill="#333333"/>
<path d="M154.199 12.8711C154.035 12.8711 153.908 12.8346 153.816 12.7617C153.816 12.7617 153.771 12.7161 153.68 12.625C153.607 12.4792 153.388 12.0781 153.023 11.4219C152.677 10.7656 152.422 10.319 152.258 10.082C151.911 9.57161 151.738 9.24349 151.738 9.09766C151.738 8.89714 151.857 8.60547 152.094 8.22266C152.458 7.71224 152.704 7.30208 152.832 6.99219C153.069 6.55469 153.242 6.21745 153.352 5.98047C153.461 5.72526 153.507 5.52474 153.488 5.37891C153.47 5.28776 153.461 5.1875 153.461 5.07812C153.461 5.00521 153.479 4.96875 153.516 4.96875C153.552 4.95052 153.625 4.95964 153.734 4.99609C153.917 5.05078 154.126 5.17839 154.363 5.37891C154.418 5.43359 154.482 5.50651 154.555 5.59766C154.628 5.6888 154.673 5.77083 154.691 5.84375C154.728 5.89844 154.737 5.96224 154.719 6.03516C154.719 6.08984 154.691 6.14453 154.637 6.19922L154.5 6.30859C154.372 6.47266 154.227 6.67318 154.062 6.91016C153.898 7.14714 153.743 7.36589 153.598 7.56641L152.914 8.55078C152.732 8.80599 152.641 8.98828 152.641 9.09766C152.641 9.15234 152.723 9.29818 152.887 9.53516L153.461 10.1641C154.008 10.7656 154.263 11.0482 154.227 11.0117C154.573 11.3581 154.746 11.6953 154.746 12.0234C154.746 12.5885 154.564 12.8711 154.199 12.8711ZM157.809 12.7891C157.645 12.7891 157.508 12.7617 157.398 12.707C157.198 12.5065 157.052 12.2695 156.961 11.9961L156.387 10.9844L155.84 10.0273C155.493 9.55339 155.32 9.23438 155.32 9.07031C155.32 8.85156 155.439 8.56901 155.676 8.22266L156.113 7.59375C156.296 7.28385 156.396 7.10156 156.414 7.04688C156.596 6.68229 156.751 6.36328 156.879 6.08984C157.025 5.79818 157.089 5.57943 157.07 5.43359C157.052 5.36068 157.043 5.26953 157.043 5.16016C157.043 5.01432 157.125 4.97786 157.289 5.05078C157.526 5.14193 157.781 5.28776 158.055 5.48828C158.182 5.61589 158.264 5.72526 158.301 5.81641C158.355 5.88932 158.383 5.98958 158.383 6.11719C158.383 6.15365 158.319 6.22656 158.191 6.33594C158.064 6.42708 157.954 6.52734 157.863 6.63672C157.754 6.74609 157.508 7.09245 157.125 7.67578C157.052 7.78516 156.961 7.91276 156.852 8.05859C156.76 8.1862 156.642 8.35938 156.496 8.57812C156.314 8.8151 156.223 8.98828 156.223 9.09766C156.223 9.20703 156.332 9.37109 156.551 9.58984C156.624 9.66276 156.697 9.75391 156.77 9.86328C156.861 9.95443 156.97 10.0638 157.098 10.1914L157.809 10.9844C158.155 11.2943 158.328 11.5951 158.328 11.8867C158.328 12.4883 158.155 12.7891 157.809 12.7891ZM158.164 21.8945C157.891 21.8945 157.626 21.694 157.371 21.293C157.043 20.7826 156.724 20.3633 156.414 20.0352L155.703 19.2969C155.32 19.7344 154.983 20.0807 154.691 20.3359C154.418 20.5911 154.072 20.8372 153.652 21.0742C152.868 21.5299 152.212 21.7578 151.684 21.7578C151.556 21.7578 151.492 21.7122 151.492 21.6211C151.492 21.5664 151.665 21.4479 152.012 21.2656C152.358 21.0833 152.686 20.8646 152.996 20.6094C153.78 19.9531 154.427 19.2786 154.938 18.5859C154.828 18.4766 154.281 18.0026 153.297 17.1641C153.169 17.0729 152.978 16.918 152.723 16.6992C152.668 16.6628 152.559 16.5807 152.395 16.4531C152.23 16.3255 152.148 16.2344 152.148 16.1797C152.148 16.0885 152.194 16.043 152.285 16.043C152.559 16.043 152.996 16.2344 153.598 16.6172C154.199 16.9818 154.828 17.4193 155.484 17.9297C155.74 17.6198 155.94 17.3281 156.086 17.0547C156.232 16.7812 156.396 16.444 156.578 16.043C156.669 15.8424 156.724 15.6693 156.742 15.5234C156.76 15.3594 156.77 15.2591 156.77 15.2227C156.77 15.0221 156.824 14.9219 156.934 14.9219C157.061 14.9219 157.234 15.0221 157.453 15.2227C157.836 15.5872 158.027 15.8333 158.027 15.9609C158.027 16.0339 157.982 16.1159 157.891 16.207C157.672 16.4258 157.471 16.7174 157.289 17.082C157.18 17.3008 156.979 17.6107 156.688 18.0117C156.596 18.1211 156.523 18.2214 156.469 18.3125C156.414 18.4036 156.359 18.4857 156.305 18.5586C156.724 18.8685 157.344 19.3971 158.164 20.1445C158.365 20.3268 158.492 20.5 158.547 20.6641C158.62 20.8099 158.656 21.0104 158.656 21.2656C158.656 21.4479 158.611 21.6029 158.52 21.7305C158.428 21.8398 158.31 21.8945 158.164 21.8945ZM160.242 12.2695C160.333 12.2695 160.47 12.3333 160.652 12.4609C160.634 12.4974 160.671 12.5703 160.762 12.6797C160.853 12.7708 160.917 12.8346 160.953 12.8711C161.044 12.9622 161.135 13.0716 161.227 13.1992C161.336 13.3268 161.454 13.4635 161.582 13.6094C161.91 13.9557 162.667 14.8581 163.852 16.3164C164.052 16.6081 164.152 16.7812 164.152 16.8359C164.152 17.0182 164.043 17.1094 163.824 17.1094C163.697 17.1094 163.56 17.0182 163.414 16.8359C163.068 16.4714 162.448 15.8971 161.555 15.1133C160.862 14.4753 160.233 13.9831 159.668 13.6367C159.395 13.5091 159.258 13.3633 159.258 13.1992C159.258 13.0716 159.395 12.8893 159.668 12.6523C159.923 12.3971 160.115 12.2695 160.242 12.2695ZM140.582 18.668L141.812 19.6523C142.25 19.9805 142.724 20.2904 143.234 20.582C143.727 20.8737 144.246 21.1198 144.793 21.3203C145.34 21.5391 145.914 21.7396 146.516 21.9219C147.117 22.0859 147.582 22.2044 147.91 22.2773L148.621 22.4688C148.767 22.5234 148.84 22.6602 148.84 22.8789L148.02 23.1523C147.327 23.3711 146.643 23.5352 145.969 23.6445C145.294 23.7539 144.839 23.8086 144.602 23.8086C144.182 23.8086 143.809 23.7357 143.48 23.5898C143.152 23.444 142.715 23.0521 142.168 22.4141L141.266 21.4297L140.473 20.3906L139.926 19.8164C139.598 20.2539 139.27 20.6458 138.941 20.9922C138.595 21.3385 138.076 21.694 137.383 22.0586C136.672 22.4232 135.997 22.6966 135.359 22.8789C134.703 23.043 134.165 23.125 133.746 23.125H133.227L133.035 23.043L133.145 22.8516L133.746 22.6055C134.111 22.4961 134.53 22.332 135.004 22.1133C135.514 21.8945 136.034 21.6029 136.562 21.2383C137.109 20.8737 137.538 20.5 137.848 20.1172C138.176 19.7526 138.413 19.4518 138.559 19.2148L138.941 18.668C138.759 18.4128 138.622 18.2122 138.531 18.0664L138.34 17.7383L137.547 16.7539C137.201 16.3529 136.945 16.0885 136.781 15.9609C136.617 15.8516 136.48 15.7786 136.371 15.7422L135.879 15.6328L135.824 15.2773L136.617 15.0586H136.918C137.173 15.1133 137.383 15.2044 137.547 15.332C137.711 15.4779 137.921 15.6875 138.176 15.9609L139.488 17.6289L139.789 16.8633C139.88 16.6445 139.98 16.2891 140.09 15.7969C140.199 15.3047 140.281 14.8216 140.336 14.3477C140.391 13.8555 140.427 13.4544 140.445 13.1445C140.464 12.9805 140.473 12.8346 140.473 12.707L140.445 12.4609C140.427 12.2604 140.382 12.069 140.309 11.8867L140.227 11.4492L139.188 11.6133C138.951 11.6862 138.732 11.7227 138.531 11.7227L137.465 11.5586C136.991 12.1784 136.608 12.6523 136.316 12.9805C136.025 13.3086 135.733 13.6003 135.441 13.8555L134.84 14.0742C134.84 13.9466 134.904 13.7917 135.031 13.6094C135.268 13.2266 135.56 12.7253 135.906 12.1055C136.253 11.4674 136.59 10.8021 136.918 10.1094C137.21 9.4349 137.51 8.64193 137.82 7.73047C138.13 6.81901 138.349 6.10807 138.477 5.59766C138.604 5.08724 138.686 4.57682 138.723 4.06641C138.741 3.8112 138.723 3.60156 138.668 3.4375L138.613 3.19141L138.641 2.94531C138.714 2.81771 138.859 2.73568 139.078 2.69922L139.652 3.02734C139.98 3.22786 140.208 3.39193 140.336 3.51953C140.482 3.62891 140.618 3.77474 140.746 3.95703L140.965 4.3125L140.801 4.83203C140.655 5.01432 140.518 5.22396 140.391 5.46094L139.98 6.36328L139.434 7.78516C139.033 8.76953 138.741 9.40755 138.559 9.69922L137.902 10.8477C138.54 10.7018 139.06 10.5742 139.461 10.4648C139.88 10.3555 140.418 10.1914 141.074 9.97266C141.767 9.75391 142.35 9.55339 142.824 9.37109C143.316 9.1888 143.663 9.08854 143.863 9.07031C144.155 9.07031 144.483 9.15234 144.848 9.31641C145.23 9.46224 145.513 9.6263 145.695 9.80859L145.941 10.1367C145.923 10.2643 145.814 10.3646 145.613 10.4375C145.431 10.5104 145.085 10.5469 144.574 10.5469C143.918 10.5469 142.97 10.6745 141.73 10.9297L140.965 11.0938L141.348 11.2031L141.84 11.3945C141.986 11.4857 142.132 11.6042 142.277 11.75L142.387 12.2695C142.241 12.5247 142.141 12.7799 142.086 13.0352L141.895 13.8555L141.676 15.25C141.621 15.5052 141.512 15.9245 141.348 16.5078C141.202 17.1094 141.074 17.5195 140.965 17.7383L140.582 18.668ZM131.777 10.3008L132.98 9.97266L133.801 9.75391C134.02 9.73568 134.229 9.77214 134.43 9.86328C134.721 9.95443 134.931 10.0547 135.059 10.1641L135.277 10.4375C135.277 10.5651 135.214 10.6745 135.086 10.7656C134.977 10.8568 134.776 10.9206 134.484 10.957L133.336 11.2305L131.586 11.5586L130.984 16.0703C131.477 15.9792 131.85 15.9154 132.105 15.8789C132.361 15.8242 132.57 15.7695 132.734 15.7148C132.898 15.6784 133.126 15.5964 133.418 15.4688C133.6 15.4323 133.773 15.4596 133.938 15.5508L134.32 15.7422C134.448 15.7969 134.612 15.8971 134.812 16.043C135.013 16.1706 135.168 16.2891 135.277 16.3984L135.441 16.6172C135.423 16.7266 135.378 16.8268 135.305 16.918C135.232 17.0273 135.132 17.2096 135.004 17.4648C134.895 17.7018 134.822 17.8932 134.785 18.0391L134.047 20.4727C134.375 20.7461 134.53 20.9648 134.512 21.1289C134.457 21.2383 134.238 21.3203 133.855 21.375C133.473 21.375 133.108 21.3932 132.762 21.4297L131.777 21.5664L130.355 21.7305L128.223 21.9492C128.223 22.0951 128.204 22.2409 128.168 22.3867C128.132 22.5326 128.013 22.6146 127.812 22.6328C127.667 22.6328 127.539 22.5781 127.43 22.4688C127.302 22.3411 127.22 22.1224 127.184 21.8125L126.91 19.2969C126.801 18.4401 126.682 17.8568 126.555 17.5469C126.427 17.2552 126.281 17.0182 126.117 16.8359L126.09 16.4531L126.582 16.3711L127.484 16.5625L129.699 16.2891L130.082 11.8047L127.949 12.0508C127.585 12.0872 127.211 12.1055 126.828 12.1055C126.445 12.1055 126.072 12.0508 125.707 11.9414C125.379 11.8503 125.215 11.7318 125.215 11.5859C125.215 11.4583 125.288 11.3581 125.434 11.2852L126.035 11.2305L126.801 11.1484C127.73 11.0573 128.296 10.9844 128.496 10.9297L130.137 10.6289L130.41 7.12891C130.428 6.60026 130.438 6.17188 130.438 5.84375V5.43359C130.401 5.06901 130.355 4.82292 130.301 4.69531L130 4.06641L130.027 3.84766C130.137 3.73828 130.283 3.68359 130.465 3.68359L131.121 3.84766C131.413 3.95703 131.668 4.06641 131.887 4.17578C132.087 4.28516 132.288 4.42188 132.488 4.58594L132.816 4.94141V5.29688C132.78 5.40625 132.716 5.54297 132.625 5.70703C132.534 5.88932 132.452 6.08073 132.379 6.28125C132.306 6.48177 132.251 6.80078 132.215 7.23828L131.777 10.3008ZM128.223 20.9648L130.219 20.6641L131.121 20.4727C131.686 20.3451 132.178 20.2539 132.598 20.1992L133.145 17.6562C133.199 17.3828 133.217 17.1549 133.199 16.9727C133.181 16.8633 133.053 16.7357 132.816 16.5898H132.543C132.251 16.5898 131.85 16.6263 131.34 16.6992L127.977 17.2461L128.223 20.9648Z" fill="#333333"/>
<path d="M193.52 18.5312C193.392 18.5312 193.31 18.5221 193.273 18.5039C193.255 18.4674 193.283 18.4036 193.355 18.3125C193.611 18.0755 193.811 17.8477 193.957 17.6289C194.121 17.3919 194.294 17.0182 194.477 16.5078C194.768 15.6693 194.914 15.0221 194.914 14.5664C194.914 14.1471 194.887 13.7643 194.832 13.418V13.3359C194.832 13.1354 194.96 13.0716 195.215 13.1445C195.434 13.1992 195.68 13.2721 195.953 13.3633C196.008 13.3451 196.09 13.3359 196.199 13.3359C196.309 13.3177 196.482 13.2904 196.719 13.2539C197.339 13.1628 198.141 13.0716 199.125 12.9805C199.125 12.9076 199.198 12.6523 199.344 12.2148L199.508 11.6133C199.581 11.3581 199.553 11.2305 199.426 11.2305C199.061 11.2305 198.214 11.3216 196.883 11.5039L195.434 11.75C195.306 11.7682 195.142 11.7135 194.941 11.5859C194.759 11.4583 194.613 11.3125 194.504 11.1484C194.413 10.9844 194.431 10.875 194.559 10.8203C194.704 10.7292 194.85 10.6836 194.996 10.6836C195.142 10.6836 195.233 10.6836 195.27 10.6836H195.625L197.43 10.6289L199.18 10.4102C199.271 10.3919 199.38 10.3646 199.508 10.3281C199.654 10.2734 199.79 10.237 199.918 10.2188C200.1 10.1823 200.41 10.3828 200.848 10.8203C200.921 10.8932 200.957 10.9753 200.957 11.0664C200.957 11.1758 200.884 11.2852 200.738 11.3945C200.538 11.5951 200.41 11.7682 200.355 11.9141C200.337 12.0052 200.301 12.1419 200.246 12.3242C200.191 12.4883 200.137 12.6979 200.082 12.9531C200.191 13.0807 200.246 13.2357 200.246 13.418C200.246 13.5638 200.201 13.6732 200.109 13.7461C200.036 13.8008 199.882 13.8281 199.645 13.8281C198.824 13.8828 198.177 13.9375 197.703 13.9922C197.229 14.0286 196.655 14.1198 195.98 14.2656C195.908 15.0859 195.743 15.8424 195.488 16.5352C195.233 17.2096 194.878 17.7201 194.422 18.0664C193.984 18.3763 193.684 18.5312 193.52 18.5312ZM202.242 8.16797C202.333 8.16797 202.47 8.23177 202.652 8.35938C202.634 8.39583 202.671 8.46875 202.762 8.57812C202.853 8.66927 202.917 8.73307 202.953 8.76953C203.044 8.86068 203.135 8.97005 203.227 9.09766C203.336 9.22526 203.454 9.36198 203.582 9.50781C203.91 9.85417 204.667 10.7565 205.852 12.2148C206.052 12.5065 206.152 12.6797 206.152 12.7344C206.152 12.9167 206.043 13.0078 205.824 13.0078C205.697 13.0078 205.56 12.9167 205.414 12.7344C205.068 12.3698 204.448 11.7956 203.555 11.0117C202.862 10.3737 202.233 9.88151 201.668 9.53516C201.395 9.40755 201.258 9.26172 201.258 9.09766C201.258 8.97005 201.395 8.78776 201.668 8.55078C201.923 8.29557 202.115 8.16797 202.242 8.16797ZM177.688 4.28516C177.688 3.9388 177.669 3.64714 177.633 3.41016C177.596 3.17318 177.542 2.91797 177.469 2.64453C177.396 2.35286 177.286 2.07031 177.141 1.79688L176.977 1.30469C177.049 1.14062 177.268 1.03125 177.633 0.976562C177.961 1.01302 178.253 1.06771 178.508 1.14062L179.219 1.44141C179.474 1.56901 179.674 1.71484 179.82 1.87891C179.984 2.02474 180.076 2.16146 180.094 2.28906C180.094 2.41667 180.057 2.58984 179.984 2.80859L179.82 3.24609L179.602 4.12109L183.566 3.71094C183.986 3.67448 184.523 3.61068 185.18 3.51953C185.818 3.42839 186.355 3.33724 186.793 3.24609C187.23 3.17318 187.549 3.13672 187.75 3.13672C188.042 3.13672 188.388 3.19141 188.789 3.30078C189.172 3.42839 189.509 3.5651 189.801 3.71094C190.111 3.83854 190.311 4.02083 190.402 4.25781V4.47656C190.348 4.60417 190.247 4.6862 190.102 4.72266C189.938 4.77734 189.737 4.80469 189.5 4.80469C189.19 4.78646 188.57 4.77734 187.641 4.77734L185.918 4.75L184.168 4.83203L182.609 4.88672L179.438 5.16016L179.273 6.99219C180.039 6.88281 180.714 6.78255 181.297 6.69141C181.88 6.58203 182.29 6.50911 182.527 6.47266L183.211 6.36328C183.43 6.30859 183.594 6.27214 183.703 6.25391C183.885 6.25391 184.122 6.31771 184.414 6.44531C184.706 6.55469 184.97 6.67318 185.207 6.80078C185.444 6.94661 185.654 7.09245 185.836 7.23828C186 7.40234 186.091 7.53906 186.109 7.64844C186.109 7.77604 186.073 7.89453 186 8.00391L185.508 8.33203C185.398 8.40495 185.216 8.58724 184.961 8.87891L184.551 9.37109L184.168 9.91797L184.66 10.3555C184.678 10.5378 184.505 10.6471 184.141 10.6836L183.348 10.7109L182.555 10.793L179.137 11.1484L179.109 12.9258L180.613 12.7891L181.461 12.6523L182.637 12.4336C182.947 12.3971 183.247 12.3151 183.539 12.1875L184.059 11.9961C184.223 11.9961 184.387 12.0143 184.551 12.0508C184.697 12.0872 184.87 12.1419 185.07 12.2148C185.289 12.306 185.508 12.4154 185.727 12.543C185.945 12.6888 186.155 12.8529 186.355 13.0352L186.574 13.6367L186.082 14.3203L185.781 14.9766C186.438 14.8854 186.984 14.8125 187.422 14.7578C187.768 14.7031 188.087 14.6758 188.379 14.6758C188.689 14.7122 188.953 14.7669 189.172 14.8398L189.992 15.168C190.32 15.3138 190.548 15.4505 190.676 15.5781C190.803 15.7057 190.867 15.8333 190.867 15.9609C190.831 16.0885 190.74 16.1888 190.594 16.2617C190.448 16.3346 190.266 16.3711 190.047 16.3711H189.199L187.586 16.3164L185.344 16.2617L184.578 18.6133L185.098 18.832C185.225 18.9049 185.298 19.0234 185.316 19.1875C185.316 19.3333 185.143 19.4154 184.797 19.4336L183.703 19.5156L181.926 19.5977L179.137 19.8164L179.273 22.5508V23.918C179.237 24.3008 179.173 24.6562 179.082 24.9844C178.973 25.3125 178.799 25.6497 178.562 25.9961C178.326 26.3242 178.043 26.4974 177.715 26.5156C177.587 26.4792 177.46 26.3971 177.332 26.2695L176.785 25.5039C176.512 25.1576 176.266 24.8659 176.047 24.6289C175.828 24.3737 175.536 24.0911 175.172 23.7812L174.789 23.4258L174.707 23.043L174.98 23.0156L175.582 23.1797C176.257 23.3802 176.685 23.4987 176.867 23.5352C177.031 23.5352 177.159 23.4987 177.25 23.4258C177.359 23.3529 177.441 23.1523 177.496 22.8242C177.551 22.4961 177.596 22.1315 177.633 21.7305L177.688 19.9258L176.047 20.0898C175.536 20.1263 175.099 20.181 174.734 20.2539C174.461 20.2904 174.224 20.3086 174.023 20.3086C173.805 20.3086 173.513 20.263 173.148 20.1719C172.802 20.0807 172.592 19.9805 172.52 19.8711L172.383 19.5156C172.456 19.4245 172.62 19.3607 172.875 19.3242L177.688 18.8594L177.797 16.6719L174.133 17.1641C173.549 17.2552 173.057 17.3281 172.656 17.3828C172.237 17.4557 171.809 17.5378 171.371 17.6289C170.952 17.7201 170.642 17.7656 170.441 17.7656C170.241 17.7656 170.049 17.7383 169.867 17.6836C169.685 17.6107 169.466 17.5104 169.211 17.3828C168.992 17.2552 168.81 17.1185 168.664 16.9727L168.473 16.6992C168.509 16.5898 168.664 16.526 168.938 16.5078L170.086 16.4531C170.451 16.4349 171.052 16.3984 171.891 16.3438C172.747 16.2708 173.531 16.1979 174.242 16.125C174.935 16.0521 175.591 15.9701 176.211 15.8789L177.797 15.6875L177.852 14.1289L174.734 14.5664C174.333 14.6211 173.978 14.6484 173.668 14.6484C173.358 14.6302 173.076 14.5846 172.82 14.5117C172.565 14.4023 172.374 14.2747 172.246 14.1289L172.191 13.8008C172.428 13.7279 172.911 13.6549 173.641 13.582L177.797 13.1172L177.824 11.2852L175.719 11.4766L175.062 11.5312L174.625 11.5859L174.461 12.0508L174.188 12.2148C174.078 12.1966 173.969 12.1237 173.859 11.9961C173.732 11.8503 173.641 11.6497 173.586 11.3945L173.121 9.28906C173.066 9.05208 173.003 8.86068 172.93 8.71484C172.857 8.56901 172.738 8.42318 172.574 8.27734C172.428 8.13151 172.31 7.94922 172.219 7.73047L172.355 7.53906L172.766 7.51172C173.039 7.54818 173.24 7.58464 173.367 7.62109L174.023 7.78516L177.852 7.18359L177.742 5.24219L174.789 5.54297C174.497 5.57943 174.023 5.65234 173.367 5.76172L172.055 6.03516C171.362 6.18099 170.797 6.30859 170.359 6.41797C169.922 6.52734 169.603 6.58203 169.402 6.58203C169.111 6.58203 168.755 6.49089 168.336 6.30859C167.826 6.1263 167.516 5.95312 167.406 5.78906L167.242 5.51562C167.279 5.35156 167.406 5.26953 167.625 5.26953L168.719 5.24219C169.247 5.22396 169.94 5.16016 170.797 5.05078L172.602 4.83203L175.336 4.53125L177.688 4.28516ZM177.852 10.3281L177.824 8.05859C176.895 8.20443 176.202 8.32292 175.746 8.41406C175.29 8.50521 174.953 8.58724 174.734 8.66016L174.27 8.76953L174.516 10.6289L177.852 10.3281ZM179.164 18.6953C179.766 18.6406 180.221 18.5951 180.531 18.5586L181.953 18.3672L183.047 18.2852L183.594 16.3438L179.109 16.5898L179.164 18.6953ZM179.109 15.5781L183.867 15.2227C183.94 14.931 183.995 14.6576 184.031 14.4023C184.031 14.1471 183.977 13.9466 183.867 13.8008C183.721 13.6914 183.512 13.6185 183.238 13.582C183.038 13.5638 182.846 13.5729 182.664 13.6094C182.336 13.6641 181.98 13.7096 181.598 13.7461C181.215 13.7826 180.85 13.819 180.504 13.8555L179.164 14.0469L179.109 15.5781ZM179.164 10.1914C179.766 10.1185 180.294 10.0456 180.75 9.97266C181.206 9.91797 181.552 9.86328 181.789 9.80859L182.828 9.64453L183.102 8.46875L183.156 8.11328L183.129 7.86719C183.074 7.73958 182.974 7.65755 182.828 7.62109C182.719 7.58464 182.5 7.56641 182.172 7.56641L181.516 7.62109L179.219 7.83984L179.164 10.1914Z" fill="#333333"/>
<path d="M241.316 13.0352C241.189 13.0352 241.052 12.9531 240.906 12.7891C240.797 12.6615 240.724 12.5612 240.688 12.4883C240.651 12.3971 240.651 12.2786 240.688 12.1328L240.715 11.4766C240.733 11.349 240.742 11.0391 240.742 10.5469V9.64453L239.922 10.0273L238.965 10.4375C238.728 10.5286 238.482 10.638 238.227 10.7656C238.008 10.875 237.816 10.9297 237.652 10.9297C237.525 10.9115 237.379 10.8659 237.215 10.793C237.051 10.7201 236.923 10.6562 236.832 10.6016C236.632 10.474 236.54 10.3372 236.559 10.1914L236.641 9.91797C236.641 9.77214 236.65 9.64453 236.668 9.53516L236.695 7.94922V6.47266C236.695 6.18099 236.677 5.9349 236.641 5.73438C236.604 5.51562 236.577 5.36068 236.559 5.26953C236.559 5.17839 236.586 5.11458 236.641 5.07812C236.659 5.0599 236.704 5.05078 236.777 5.05078C236.905 5.05078 237.151 5.13281 237.516 5.29688C237.826 5.44271 237.953 5.625 237.898 5.84375C237.862 5.97135 237.826 6.16276 237.789 6.41797L237.707 9.5625C237.707 9.65365 237.716 9.72656 237.734 9.78125C237.771 9.81771 237.807 9.83594 237.844 9.83594C238.062 9.83594 238.327 9.77214 238.637 9.64453C239.22 9.46224 239.721 9.27995 240.141 9.09766L240.742 8.85156V7.04688C240.742 6.31771 240.697 5.61589 240.605 4.94141C240.587 4.88672 240.578 4.82292 240.578 4.75C240.578 4.56771 240.651 4.47656 240.797 4.47656C240.815 4.47656 240.915 4.51302 241.098 4.58594C241.371 4.73177 241.572 4.85938 241.699 4.96875C241.827 5.07812 241.9 5.14193 241.918 5.16016C241.991 5.21484 242.027 5.26953 242.027 5.32422C242.027 5.36068 242.009 5.40625 241.973 5.46094C241.954 5.51562 241.936 5.5612 241.918 5.59766L241.836 6.41797L241.809 8.93359L241.836 11.3672C241.836 11.7865 241.809 12.151 241.754 12.4609C241.663 12.8438 241.517 13.0352 241.316 13.0352ZM236.285 19.1602C236.085 19.1602 235.839 19.0052 235.547 18.6953C235.328 18.4766 235.219 18.3125 235.219 18.2031C235.219 18.1484 235.255 18.1211 235.328 18.1211C235.401 18.1029 235.492 18.0938 235.602 18.0938L236.203 18.0664C236.549 18.0664 236.777 18.0573 236.887 18.0391C237.233 18.0391 237.525 18.0299 237.762 18.0117C239.329 17.8659 240.387 17.7474 240.934 17.6562C241.207 17.6198 241.453 17.5833 241.672 17.5469C241.891 17.4922 242.064 17.4648 242.191 17.4648C242.447 17.4648 242.702 17.5924 242.957 17.8477C243.158 18.0482 243.258 18.2122 243.258 18.3398C243.258 18.4492 243.194 18.5221 243.066 18.5586C242.975 18.5768 242.438 18.6133 241.453 18.668C240.906 18.6862 240.232 18.7318 239.43 18.8047C238.628 18.8776 237.926 18.9505 237.324 19.0234C237.215 19.0417 237.06 19.069 236.859 19.1055C236.659 19.1419 236.467 19.1602 236.285 19.1602ZM247.742 10.082C247.961 10.082 248.07 10.1823 248.07 10.3828C248.07 10.4922 247.97 10.6471 247.77 10.8477C247.223 11.5221 246.138 12.8073 244.516 14.7031C244.388 14.8672 244.27 14.9492 244.16 14.9492C244.069 14.9492 243.868 14.8125 243.559 14.5391C243.303 14.3203 243.176 14.138 243.176 13.9922C243.176 13.8281 243.312 13.6732 243.586 13.5273C244.005 13.2904 244.634 12.8164 245.473 12.1055C246.311 11.3581 246.931 10.7656 247.332 10.3281C247.496 10.1641 247.633 10.082 247.742 10.082ZM222.477 17.7109L222.23 23.207C222.212 23.5898 222.185 23.9362 222.148 24.2461C222.13 24.5742 222.085 24.8659 222.012 25.1211C221.957 25.3945 221.857 25.6224 221.711 25.8047L221.301 26.0508L221 25.7773C220.872 25.5951 220.772 25.4128 220.699 25.2305C220.626 25.0482 220.553 24.8112 220.48 24.5195C220.426 24.2461 220.398 24.0182 220.398 23.8359L220.508 23.3711C220.599 23.0977 220.681 22.7604 220.754 22.3594C220.809 21.9583 220.854 21.5664 220.891 21.1836L220.945 20.4453L221.082 17.8203L220.727 17.875C220.581 17.8932 219.979 17.9753 218.922 18.1211L216.926 18.3945C216.652 18.431 216.096 18.5404 215.258 18.7227L214.164 18.9414C213.836 19.0143 213.599 19.0508 213.453 19.0508C213.289 19.0326 213.089 18.9779 212.852 18.8867C212.633 18.7773 212.396 18.6497 212.141 18.5039C211.867 18.3581 211.676 18.2214 211.566 18.0938L211.402 17.793C211.421 17.6471 211.576 17.5651 211.867 17.5469L212.332 17.5195L213.836 17.4648C214.164 17.4466 214.839 17.3919 215.859 17.3008L218.867 17.0273C219.469 16.9909 219.997 16.9544 220.453 16.918L221.027 16.8633C221.009 16.6445 221 16.444 221 16.2617C220.964 16.0794 220.909 15.9062 220.836 15.7422L220.535 14.9766C220.59 14.849 220.699 14.7669 220.863 14.7305C221.009 14.7305 221.173 14.7487 221.355 14.7852C221.611 14.8581 221.839 14.931 222.039 15.0039C222.258 15.0768 222.458 15.1953 222.641 15.3594L222.832 15.9062L222.613 16.3438L222.531 16.7266C222.932 16.6901 223.534 16.6445 224.336 16.5898C225.138 16.5169 225.612 16.4714 225.758 16.4531L227.781 16.207C228.474 16.1341 228.984 16.0521 229.312 15.9609L229.859 15.8242C230.096 15.8242 230.361 15.8789 230.652 15.9883C230.926 16.0977 231.208 16.2253 231.5 16.3711C231.755 16.5169 231.965 16.6719 232.129 16.8359L232.32 17.1641C232.32 17.2917 232.238 17.3828 232.074 17.4375C231.91 17.5104 231.591 17.556 231.117 17.5742L229.586 17.6289C229.385 17.6289 228.939 17.6198 228.246 17.6016H227.535C227.079 17.6016 226.633 17.6107 226.195 17.6289L223.625 17.7109H222.477ZM224.828 19.8438L224.281 19.1875L224.5 19.0508L225.211 19.2695C225.594 19.3789 226.013 19.5521 226.469 19.7891C226.906 20.0078 227.389 20.2812 227.918 20.6094C228.447 20.9375 228.866 21.2565 229.176 21.5664C229.467 21.8581 229.714 22.1953 229.914 22.5781C230.096 22.9245 230.188 23.3073 230.188 23.7266C230.188 24.1823 230.042 24.4922 229.75 24.6562C229.495 24.6562 229.167 24.4831 228.766 24.1367C228.474 23.918 228.118 23.5716 227.699 23.0977L226.578 21.7578L225.621 20.6914C225.348 20.3633 225.083 20.0807 224.828 19.8438ZM216.734 14.7031C216.698 14.9583 216.661 15.1406 216.625 15.25C216.589 15.3594 216.516 15.487 216.406 15.6328L215.914 15.7695C215.677 15.5508 215.495 15.2773 215.367 14.9492C215.258 14.6576 215.167 14.3932 215.094 14.1562L215.012 13.6914C215.03 13.5638 215.094 13.3633 215.203 13.0898C215.312 12.7982 215.385 12.543 215.422 12.3242C215.458 12.1055 215.495 11.7227 215.531 11.1758C215.604 10.6289 215.641 10.2734 215.641 10.1094L215.723 7.15625L214.875 8.22266C214.583 8.55078 214.191 8.92448 213.699 9.34375C213.207 9.76302 212.724 10.1458 212.25 10.4922C211.758 10.8385 211.393 11.0664 211.156 11.1758L209.926 11.5586C209.926 11.431 209.99 11.3034 210.117 11.1758L210.637 10.7656C210.746 10.6745 211.092 10.3555 211.676 9.80859C212.259 9.26172 212.706 8.82422 213.016 8.49609C213.344 8.16797 213.745 7.6849 214.219 7.04688C214.693 6.42708 215.076 5.85286 215.367 5.32422C215.695 4.77734 215.978 4.22135 216.215 3.65625C216.452 3.09115 216.579 2.67188 216.598 2.39844L216.816 1.74219C216.926 1.72396 217.062 1.76953 217.227 1.87891C217.482 2.02474 217.682 2.15234 217.828 2.26172C217.956 2.37109 218.111 2.52604 218.293 2.72656C218.475 2.92708 218.603 3.10938 218.676 3.27344L218.73 3.65625L218.43 3.90234L217.992 4.28516C217.865 4.43099 217.719 4.61328 217.555 4.83203L217.145 5.37891C217.491 5.36068 217.737 5.34245 217.883 5.32422C218.029 5.32422 218.284 5.29688 218.648 5.24219L221.328 4.94141C221.966 4.85026 222.577 4.75911 223.16 4.66797C223.725 4.55859 224.327 4.43099 224.965 4.28516C225.603 4.13932 226.159 3.98438 226.633 3.82031C227.107 3.67448 227.435 3.60156 227.617 3.60156C227.763 3.61979 227.973 3.66536 228.246 3.73828C228.52 3.8112 228.747 3.91146 228.93 4.03906L229.148 4.42188L228.875 4.66797C228.693 4.77734 228.401 4.88672 228 4.99609C227.581 5.10547 226.988 5.21484 226.223 5.32422C225.439 5.45182 224.81 5.54297 224.336 5.59766L222.777 5.81641C222.996 5.88932 223.169 5.98047 223.297 6.08984C223.443 6.18099 223.525 6.29036 223.543 6.41797L223.406 6.9375L223.297 7.48438C223.589 7.42969 223.953 7.36589 224.391 7.29297C224.828 7.22005 225.211 7.16536 225.539 7.12891C225.849 7.05599 226.095 7.01042 226.277 6.99219C226.46 6.97396 226.633 6.95573 226.797 6.9375C226.961 6.9375 227.125 6.95573 227.289 6.99219C227.471 7.02865 227.654 7.07422 227.836 7.12891C228.036 7.20182 228.191 7.28385 228.301 7.375L228.492 7.59375C228.492 7.75781 228.41 7.84896 228.246 7.86719L227.398 7.97656C227.18 8.01302 226.688 8.08594 225.922 8.19531C225.138 8.32292 224.555 8.40495 224.172 8.44141L223.215 8.55078L223.16 10.1914C223.689 10.1185 224.199 10.0365 224.691 9.94531C225.184 9.8724 225.585 9.81771 225.895 9.78125C226.204 9.72656 226.478 9.69922 226.715 9.69922C226.897 9.71745 227.07 9.74479 227.234 9.78125C227.398 9.79948 227.581 9.84505 227.781 9.91797C227.964 9.99089 228.109 10.0638 228.219 10.1367C228.328 10.2461 228.346 10.401 228.273 10.6016L227.125 10.793L225.758 11.0117L224.418 11.1484L223.105 11.2852L223.051 12.8984C223.434 12.8438 223.689 12.8164 223.816 12.8164C223.944 12.7982 224.391 12.7435 225.156 12.6523C225.922 12.543 226.441 12.4518 226.715 12.3789L227.207 12.2695C227.371 12.2695 227.608 12.306 227.918 12.3789C228.21 12.4701 228.456 12.5612 228.656 12.6523C228.875 12.7253 229.094 12.8346 229.312 12.9805L229.641 13.2539C229.641 13.418 229.549 13.5456 229.367 13.6367C229.185 13.7461 228.93 13.8008 228.602 13.8008L227.289 13.9102H226.195C225.503 13.9102 224.719 13.9466 223.844 14.0195C222.987 14.0742 222.294 14.1289 221.766 14.1836L219.359 14.457L216.734 14.7031ZM216.789 13.6641L221.82 13.0625V11.4492C221.346 11.5221 220.891 11.5768 220.453 11.6133C220.016 11.6862 219.487 11.7318 218.867 11.75C218.612 11.7682 218.393 11.7773 218.211 11.7773C217.938 11.7773 217.737 11.7591 217.609 11.7227L216.844 11.6133L216.789 13.6641ZM216.898 10.875C217.263 10.8568 217.746 10.8203 218.348 10.7656C218.949 10.7109 219.533 10.6471 220.098 10.5742L221.848 10.3281L221.875 8.76953L220.891 8.90625C220.49 8.96094 219.979 9.04297 219.359 9.15234C218.758 9.26172 218.366 9.31641 218.184 9.31641C218.02 9.31641 217.846 9.29818 217.664 9.26172L216.953 9.15234L216.898 10.875ZM216.98 8.22266C217.4 8.22266 217.846 8.20443 218.32 8.16797C218.794 8.13151 219.141 8.10417 219.359 8.08594C219.578 8.06771 220.216 7.97656 221.273 7.8125L221.82 7.73047C221.802 7.42057 221.775 7.16536 221.738 6.96484L221.684 6.58203L221.41 5.98047C220.863 6.05339 220.371 6.1263 219.934 6.19922C219.478 6.25391 219.049 6.30859 218.648 6.36328C218.448 6.38151 218.257 6.39062 218.074 6.39062C217.91 6.39062 217.746 6.38151 217.582 6.36328L216.898 6.25391C217.008 6.54557 217.081 6.76432 217.117 6.91016C217.154 7.05599 217.172 7.19271 217.172 7.32031L217.062 7.78516L216.98 8.22266ZM221.164 2.125L220.945 1.46875L221.164 1.33203L221.711 1.49609C222.057 1.60547 222.349 1.73307 222.586 1.87891C222.823 2.02474 223.023 2.17057 223.188 2.31641C223.352 2.46224 223.47 2.6263 223.543 2.80859C223.579 2.9362 223.598 3.13672 223.598 3.41016C223.543 3.77474 223.452 4.04818 223.324 4.23047C223.178 4.3763 223.014 4.45833 222.832 4.47656C222.65 4.47656 222.458 4.35807 222.258 4.12109C222.148 3.97526 222.021 3.77474 221.875 3.51953L221.52 2.89062C221.428 2.72656 221.31 2.47135 221.164 2.125ZM212.906 24.1641L213.535 23.7539C213.645 23.681 213.964 23.444 214.492 23.043C215.039 22.6419 215.44 22.332 215.695 22.1133C215.951 21.8945 216.242 21.6029 216.57 21.2383C216.898 20.8737 217.126 20.5729 217.254 20.3359C217.382 20.099 217.473 19.8893 217.527 19.707L217.609 19.3516L217.828 19.1328C217.956 19.1146 218.083 19.151 218.211 19.2422C218.32 19.3333 218.521 19.5339 218.812 19.8438C219.104 20.1719 219.305 20.4453 219.414 20.6641L219.496 20.9102L219.441 21.1562C219.35 21.2474 219.232 21.3203 219.086 21.375C218.904 21.4297 218.703 21.5299 218.484 21.6758C218.266 21.7852 217.919 22.013 217.445 22.3594C216.935 22.7057 216.57 22.9427 216.352 23.0703C216.133 23.1979 215.741 23.4076 215.176 23.6992C214.611 23.9909 214.219 24.1732 214 24.2461L212.934 24.6016L212.688 24.5195C212.688 24.3919 212.76 24.2734 212.906 24.1641Z" fill="#333333"/>
</svg>
