<svg width="292" height="25" viewBox="0 0 292 25" fill="none" xmlns="http://www.w3.org/2000/svg">
<path d="M27.2852 8.58984C27.0846 8.58984 26.8385 8.4349 26.5469 8.125C26.3281 7.90625 26.2188 7.74219 26.2188 7.63281C26.2188 7.57812 26.2552 7.55078 26.3281 7.55078C26.401 7.53255 26.4922 7.52344 26.6016 7.52344L27.2031 7.49609C27.5495 7.49609 27.7773 7.48698 27.8867 7.46875C28.2331 7.46875 28.5247 7.45964 28.7617 7.44141C30.3294 7.29557 31.3867 7.17708 31.9336 7.08594C32.207 7.04948 32.4531 7.01302 32.6719 6.97656C32.8906 6.92188 33.0638 6.89453 33.1914 6.89453C33.4466 6.89453 33.7018 7.02214 33.957 7.27734C34.1576 7.47786 34.2578 7.64193 34.2578 7.76953C34.2578 7.87891 34.194 7.95182 34.0664 7.98828C33.9753 8.00651 33.4375 8.04297 32.4531 8.09766C31.9062 8.11589 31.2318 8.16146 30.4297 8.23438C29.6276 8.30729 28.9258 8.38021 28.3242 8.45312C28.2148 8.47135 28.0599 8.4987 27.8594 8.53516C27.6589 8.57161 27.4674 8.58984 27.2852 8.58984ZM33.7109 21.0039C33.6927 21.0221 33.6471 21.0312 33.5742 21.0312C33.4284 21.0312 33.2188 20.931 32.9453 20.7305C32.3255 20.1107 31.5143 19.3451 30.5117 18.4336C30.0378 18.9076 29.5911 19.3177 29.1719 19.6641C29.026 19.7734 28.7708 19.9375 28.4062 20.1562C27.8776 20.4661 27.3672 20.6576 26.875 20.7305H26.7109C26.5469 20.7305 26.4466 20.7122 26.4102 20.6758C26.3919 20.6576 26.4284 20.6211 26.5195 20.5664C26.6289 20.5117 26.7109 20.4661 26.7656 20.4297C26.875 20.375 27.1849 20.1745 27.6953 19.8281C27.9505 19.6458 28.3151 19.3359 28.7891 18.8984C29.263 18.4609 29.6094 18.1055 29.8281 17.832L28.707 16.957C28.5065 16.8112 28.2878 16.6562 28.0508 16.4922C27.832 16.3099 27.6771 16.1914 27.5859 16.1367L27.5586 16.0547C27.5586 15.9453 27.6497 15.8906 27.832 15.8906C28.0508 15.8906 28.4062 16.0273 28.8984 16.3008L30.293 17.2031C30.6029 16.8021 30.9128 16.3646 31.2227 15.8906C31.5508 15.3984 31.724 15.1068 31.7422 15.0156C31.7604 14.9609 31.7513 14.9154 31.7148 14.8789C31.6966 14.8242 31.6602 14.7969 31.6055 14.7969H31.0586L30.0742 14.8789C29.582 14.9154 29.0898 14.9792 28.5977 15.0703C28.543 15.0885 28.4518 15.1159 28.3242 15.1523C28.1966 15.1888 28.0872 15.207 27.9961 15.207C27.9596 15.207 27.8047 15.1068 27.5312 14.9062C27.276 14.6875 27.1393 14.5508 27.1211 14.4961C27.1029 14.4779 27.0938 14.4505 27.0938 14.4141C27.0938 14.3229 27.194 14.2865 27.3945 14.3047C27.5951 14.3047 27.7227 14.3047 27.7773 14.3047C28.2878 14.3047 29.026 14.2591 29.9922 14.168L30.9219 14.0859L31.7695 13.9766C32.043 13.9036 32.1979 13.8672 32.2344 13.8672H32.2891C32.3802 13.8672 32.4622 13.8945 32.5352 13.9492C32.6081 14.0039 32.6628 14.0586 32.6992 14.1133C32.7357 14.168 32.763 14.2044 32.7812 14.2227C32.7995 14.2409 32.8542 14.2956 32.9453 14.3867C33.0365 14.4596 33.0911 14.5326 33.1094 14.6055C33.1458 14.6602 33.1641 14.724 33.1641 14.7969C33.1641 14.9609 33.1003 15.0794 32.9727 15.1523C32.8815 15.1888 32.7174 15.3802 32.4805 15.7266C32.0794 16.3646 31.5964 17.0482 31.0312 17.7773C31.3411 17.9779 31.7422 18.2695 32.2344 18.6523C32.4531 18.7982 32.8086 19.0443 33.3008 19.3906C33.5195 19.5547 33.6836 19.7734 33.793 20.0469C33.8659 20.3385 33.9023 20.5573 33.9023 20.7031C33.8841 20.849 33.8203 20.9492 33.7109 21.0039ZM35.2422 11.2695C35.3333 11.2695 35.4701 11.3333 35.6523 11.4609C35.6341 11.4974 35.6706 11.5703 35.7617 11.6797C35.8529 11.7708 35.9167 11.8346 35.9531 11.8711C36.0443 11.9622 36.1354 12.0716 36.2266 12.1992C36.3359 12.3268 36.4544 12.4635 36.582 12.6094C36.9102 12.9557 37.6667 13.8581 38.8516 15.3164C39.0521 15.6081 39.1523 15.7812 39.1523 15.8359C39.1523 16.0182 39.043 16.1094 38.8242 16.1094C38.6966 16.1094 38.5599 16.0182 38.4141 15.8359C38.0677 15.4714 37.4479 14.8971 36.5547 14.1133C35.862 13.4753 35.2331 12.9831 34.668 12.6367C34.3945 12.5091 34.2578 12.3633 34.2578 12.1992C34.2578 12.0716 34.3945 11.8893 34.668 11.6523C34.9232 11.3971 35.1146 11.2695 35.2422 11.2695ZM9.18359 18.1602L4.97266 19.8828L3.6875 20.4297C3.45052 20.5573 3.21354 20.7031 2.97656 20.8672C2.72135 21.0312 2.45703 21.1589 2.18359 21.25C2.01953 21.2318 1.84635 21.1315 1.66406 20.9492C1.48177 20.7487 1.35417 20.5755 1.28125 20.4297L1.0625 20.0742L0.816406 19.5547L0.84375 19.3086C0.934896 19.1628 1.10807 19.0169 1.36328 18.8711C1.63672 18.707 1.92839 18.4883 2.23828 18.2148C2.54818 17.9596 2.83984 17.6771 3.11328 17.3672C3.38672 17.0573 3.83333 16.4648 4.45312 15.5898L6.53125 12.6914L3.55078 13.3477L2.8125 13.5391C2.32031 13.6667 1.99219 13.7852 1.82812 13.8945L1.28125 14.0586C1.13542 13.9492 1.02604 13.8034 0.953125 13.6211C0.880208 13.4388 0.825521 13.2656 0.789062 13.1016C0.752604 12.9375 0.716146 12.7096 0.679688 12.418L0.652344 12.1445V11.8711C0.707031 11.7617 0.880208 11.6159 1.17188 11.4336C1.46354 11.2695 1.71875 11.1055 1.9375 10.9414C2.19271 10.7591 2.46615 10.4674 2.75781 10.0664C3.04948 9.66536 3.35938 9.19141 3.6875 8.64453L4.39844 7.35938C4.54427 7.04948 4.73568 6.62109 4.97266 6.07422C5.20964 5.52734 5.35547 5.15365 5.41016 4.95312C5.46484 4.7526 5.51953 4.52474 5.57422 4.26953C5.62891 4.01432 5.66536 3.83203 5.68359 3.72266L5.73828 3.50391C5.79297 3.39453 5.89323 3.33984 6.03906 3.33984C6.1849 3.35807 6.33073 3.44922 6.47656 3.61328C6.64062 3.75911 6.80469 3.92318 6.96875 4.10547C7.11458 4.30599 7.24219 4.4974 7.35156 4.67969C7.46094 4.86198 7.48828 5.07161 7.43359 5.30859C7.36068 5.45443 7.24219 5.6276 7.07812 5.82812C6.93229 6.02865 6.75 6.29297 6.53125 6.62109L5.84766 7.71484L3.60547 11.1602L3.63281 11.9258L7.02344 11.8711L7.32422 11.3789C7.45182 11.1966 7.57943 10.9596 7.70703 10.668C7.85286 10.4128 8.02604 10.0664 8.22656 9.62891C8.40885 9.19141 8.52734 8.8724 8.58203 8.67188C8.63672 8.47135 8.69141 8.2526 8.74609 8.01562L8.88281 7.63281L9.12891 7.49609C9.29297 7.53255 9.46615 7.64193 9.64844 7.82422L10.0859 8.26172L10.4141 8.69922C10.6328 8.99089 10.7604 9.23698 10.7969 9.4375L10.7695 9.65625C10.7148 9.76562 10.6146 9.875 10.4688 9.98438C10.3229 10.0938 10.1406 10.2487 9.92188 10.4492L9.26562 11.2695L3.90625 18.4336L3.85156 18.9531C4.01562 18.9714 4.16146 18.9622 4.28906 18.9258L8.91016 17.668L7.67969 15.4531L7.95312 15.3164L8.55469 15.5898C8.91927 15.7721 9.2474 15.9453 9.53906 16.1094C9.83073 16.2734 10.0768 16.4648 10.2773 16.6836C10.4779 16.8841 10.6237 17.0755 10.7148 17.2578C10.7878 17.4583 10.8424 17.7318 10.8789 18.0781C10.8971 18.2786 10.888 18.4427 10.8516 18.5703C10.8151 18.8073 10.6237 19.0169 10.2773 19.1992C10.0768 19.1992 9.90365 19.1445 9.75781 19.0352C9.64844 18.9622 9.55729 18.8529 9.48438 18.707L9.18359 18.1602ZM10.6055 19.6914L11.3164 18.707L11.918 17.75C12.1185 17.4401 12.401 16.9023 12.7656 16.1367C13.1667 15.3893 13.4766 14.724 13.6953 14.1406C13.9141 13.5573 14.0599 13.1107 14.1328 12.8008L14.4883 11.2148C14.1055 11.3424 13.8229 11.4336 13.6406 11.4883L12.8477 11.7891L12.5195 11.8711C12.319 11.8711 12.1094 11.8164 11.8906 11.707C11.6719 11.5977 11.4531 11.4609 11.2344 11.2969L10.9336 10.832C10.9883 10.7227 11.1432 10.6497 11.3984 10.6133L12.082 10.5586L12.957 10.4492L13.9688 10.2852L14.5703 10.1758C14.7526 9.55599 14.8984 9.00911 15.0078 8.53516C15.1172 8.0612 15.2357 7.47786 15.3633 6.78516C15.4909 6.05599 15.5729 5.54557 15.6094 5.25391C15.6458 4.96224 15.6823 4.625 15.7188 4.24219C15.7552 3.85938 15.7826 3.48568 15.8008 3.12109C15.8008 2.9388 15.7826 2.72917 15.7461 2.49219L15.7188 2.13672L15.7734 1.83594C15.8828 1.78125 16.0104 1.75391 16.1562 1.75391C16.2839 1.77214 16.5026 1.83594 16.8125 1.94531C17.1224 2.05469 17.3776 2.16406 17.5781 2.27344C17.7969 2.40104 17.9792 2.54688 18.125 2.71094C18.2891 2.875 18.3438 3.13932 18.2891 3.50391C18.1979 3.74089 18.1159 3.95052 18.043 4.13281C17.9518 4.29688 17.8789 4.48828 17.8242 4.70703C17.7695 4.90755 17.6875 5.23568 17.5781 5.69141L17.1953 7.27734C17.0495 7.86068 16.9219 8.34375 16.8125 8.72656L16.4844 9.90234L18.8359 9.35547C19.3464 9.24609 19.7018 9.16406 19.9023 9.10938L20.6133 8.86328C20.8503 8.79036 21.0234 8.74479 21.1328 8.72656C21.2786 8.72656 21.4245 8.75391 21.5703 8.80859C21.7344 8.84505 21.9349 8.9362 22.1719 9.08203C22.4089 9.22786 22.6458 9.40104 22.8828 9.60156C23.138 9.80208 23.3021 10.1302 23.375 10.5859L23.0742 11.1328C22.9102 11.4062 22.8008 11.6068 22.7461 11.7344C22.6914 11.8802 22.6276 12.181 22.5547 12.6367L22.2812 14.6328C21.9896 16.638 21.7799 18.0326 21.6523 18.8164C21.5065 19.582 21.2969 20.3112 21.0234 21.0039C20.7318 21.6966 20.4219 22.2617 20.0938 22.6992C19.7839 23.1367 19.4557 23.4466 19.1094 23.6289C18.763 23.8294 18.4987 23.9297 18.3164 23.9297L18.0703 23.9023C17.9245 23.793 17.7969 23.6289 17.6875 23.4102L17.4141 22.8633C17.3229 22.7174 17.1862 22.5352 17.0039 22.3164L16.4844 21.6602C16.3021 21.4779 16.1562 21.3138 16.0469 21.168L15.6914 20.457L16.375 20.6484L17.25 21.0039L17.7422 21.1406C17.9427 21.2135 18.1432 21.25 18.3438 21.25C18.5443 21.1953 18.7083 21.0951 18.8359 20.9492C18.9453 20.7852 19.0638 20.5573 19.1914 20.2656C19.319 19.974 19.4648 19.582 19.6289 19.0898C19.7747 18.5794 19.9297 17.8958 20.0938 17.0391C20.276 16.1823 20.4036 15.5078 20.4766 15.0156C20.5495 14.5234 20.6224 13.8398 20.6953 12.9648C20.7865 12.2357 20.832 11.6615 20.832 11.2422C20.832 10.8229 20.75 10.5404 20.5859 10.3945C20.4036 10.2487 20.1667 10.1758 19.875 10.1758L18.7812 10.3672L16.2109 10.832L15.6094 12.9375C15.4271 13.5755 15.181 14.2773 14.8711 15.043C14.5612 15.7721 14.1966 16.5104 13.7773 17.2578C13.3581 18.0052 12.9023 18.6979 12.4102 19.3359C11.918 19.974 11.4167 20.5208 10.9062 20.9766C10.3958 21.4323 9.93099 21.7878 9.51172 22.043L8.74609 22.4805L8.41797 22.3164C8.39974 22.1706 8.46354 22.0247 8.60938 21.8789L9.26562 21.25C9.66667 20.8672 9.95833 20.5573 10.1406 20.3203L10.6055 19.6914Z" fill="#333333"/>
<path d="M74.0156 16.6562C73.7786 16.6562 73.5326 16.6198 73.2773 16.5469C73.0221 16.4557 72.8398 16.3555 72.7305 16.2461C72.6576 16.1732 72.5846 16.0456 72.5117 15.8633C72.457 15.6628 72.4297 15.4805 72.4297 15.3164L72.5391 10.5859C72.5391 10.2578 72.4935 9.97526 72.4023 9.73828C72.3841 9.70182 72.375 9.64714 72.375 9.57422C72.375 9.44661 72.4388 9.38281 72.5664 9.38281C72.6758 9.38281 72.7943 9.41927 72.9219 9.49219C73.5781 9.78385 73.8607 10.0573 73.7695 10.3125C73.6602 10.5859 73.5781 11.1693 73.5234 12.0625C73.487 12.9557 73.4688 13.931 73.4688 14.9883C73.4688 15.207 73.5052 15.3802 73.5781 15.5078C73.6693 15.6172 73.8242 15.6628 74.043 15.6445C74.5169 15.6081 74.8086 15.5534 74.918 15.4805C75.0456 15.3893 75.1276 15.3346 75.1641 15.3164C75.4193 15.3164 75.6107 15.362 75.7383 15.4531C75.8841 15.5443 75.957 15.6628 75.957 15.8086C75.957 16.0638 75.8112 16.2552 75.5195 16.3828C75.3555 16.4557 75.1185 16.5195 74.8086 16.5742C74.5169 16.6289 74.2526 16.6562 74.0156 16.6562ZM68.6562 16.7656C68.5833 16.7656 68.5286 16.7565 68.4922 16.7383C68.4557 16.7201 68.4375 16.6927 68.4375 16.6562C68.4375 16.6198 68.5742 16.4831 68.8477 16.2461C69.1393 15.9909 69.4128 15.5898 69.668 15.043C69.8503 14.6602 69.9779 14.2956 70.0508 13.9492C70.1237 13.6029 70.1784 13.2656 70.2148 12.9375C70.2513 12.5911 70.2786 12.3542 70.2969 12.2266C70.3151 11.9349 70.3242 11.5703 70.3242 11.1328C70.3242 10.6953 70.2786 10.4036 70.1875 10.2578C70.151 10.1849 70.1328 10.1302 70.1328 10.0938C70.1328 10.0208 70.1602 9.95703 70.2148 9.90234C70.2695 9.84766 70.3333 9.82031 70.4062 9.82031C70.5521 9.82031 70.7344 9.85677 70.9531 9.92969C71.1901 9.98438 71.3542 10.0664 71.4453 10.1758C71.5 10.2487 71.5273 10.3672 71.5273 10.5312L71.4727 11.1055C71.4727 11.1966 71.4544 11.388 71.418 11.6797C71.3997 11.8438 71.3542 12.2357 71.2812 12.8555C71.2266 13.4753 71.1354 13.9948 71.0078 14.4141C70.8802 14.8151 70.707 15.1432 70.4883 15.3984C70.2148 15.7266 69.8685 16.0365 69.4492 16.3281C69.0482 16.6198 68.7839 16.7656 68.6562 16.7656ZM80.7422 4.98047C80.9609 4.98047 81.0703 5.08073 81.0703 5.28125C81.0703 5.39062 80.9701 5.54557 80.7695 5.74609C80.2227 6.42057 79.138 7.70573 77.5156 9.60156C77.388 9.76562 77.2695 9.84766 77.1602 9.84766C77.069 9.84766 76.8685 9.71094 76.5586 9.4375C76.3034 9.21875 76.1758 9.03646 76.1758 8.89062C76.1758 8.72656 76.3125 8.57161 76.5859 8.42578C77.0052 8.1888 77.6341 7.71484 78.4727 7.00391C79.3112 6.25651 79.931 5.66406 80.332 5.22656C80.4961 5.0625 80.6328 4.98047 80.7422 4.98047ZM50.4453 14.7148C50.1172 14.7695 49.8346 14.7969 49.5977 14.7969L49.0508 14.7422C49.0143 15.1068 48.9505 15.3529 48.8594 15.4805L48.5039 15.6719C48.3216 15.5807 48.1667 15.3802 48.0391 15.0703C47.9115 14.7604 47.8294 14.487 47.793 14.25L47.3555 10.6133C47.319 10.194 47.237 9.65625 47.1094 9C46.9818 8.32552 46.8633 7.90625 46.7539 7.74219C46.6628 7.57812 46.5534 7.40495 46.4258 7.22266L46.0703 6.8125L45.9336 6.42969L46.0977 6.23828L46.3164 6.15625C46.444 6.15625 46.5625 6.17448 46.6719 6.21094L47.5469 6.40234C47.9661 6.03776 48.3216 5.70964 48.6133 5.41797C48.9049 5.16276 49.2331 4.83464 49.5977 4.43359C49.9622 4.03255 50.2448 3.6862 50.4453 3.39453C50.6458 3.10286 50.8008 2.83854 50.9102 2.60156C51.0195 2.36458 51.0924 2.15495 51.1289 1.97266L51.4297 1.48047C51.5755 1.46224 51.7396 1.4987 51.9219 1.58984C52.3047 1.73568 52.5872 1.85417 52.7695 1.94531C52.9701 2.05469 53.1888 2.19141 53.4258 2.35547C53.6445 2.5013 53.7995 2.65625 53.8906 2.82031L53.9727 3.12109C53.9544 3.23047 53.8451 3.3125 53.6445 3.36719C53.444 3.42188 53.2708 3.48568 53.125 3.55859C52.9974 3.63151 52.6875 3.84115 52.1953 4.1875C51.7031 4.53385 51.1562 4.89844 50.5547 5.28125C49.9531 5.66406 49.3971 5.99219 48.8867 6.26562L48.0391 6.73047L48.3125 6.94922C48.4036 7.05859 48.4492 7.28646 48.4492 7.63281C48.4857 7.96094 48.5039 8.20703 48.5039 8.37109C48.5039 8.51693 48.5221 8.81771 48.5586 9.27344L48.6133 9.84766L49.7617 9.41016C50.3815 9.17318 50.8099 9.04557 51.0469 9.02734C51.2109 9.00911 51.3568 9.02734 51.4844 9.08203C51.6484 9.15495 51.8034 9.24609 51.9492 9.35547L52.0039 9.98438C51.8581 10.0755 51.6393 10.1393 51.3477 10.1758C51.056 10.2122 50.737 10.2852 50.3906 10.3945C50.0443 10.4674 49.8073 10.5039 49.6797 10.5039L48.7773 10.6133L49.1055 13.7305C49.9258 13.694 50.5091 13.6576 50.8555 13.6211C51.1836 13.5846 51.8854 13.5117 52.9609 13.4023C54.0365 13.293 54.8021 13.2018 55.2578 13.1289L56.1055 12.9922C56.2331 12.9922 56.388 13.0013 56.5703 13.0195L56.9258 13.1016L57.3633 13.375L58.375 9.68359L56.707 10.0117C56.2331 10.1029 55.8776 10.1484 55.6406 10.1484C55.4401 10.1484 55.2214 10.1211 54.9844 10.0664C54.7474 10.0117 54.5742 9.92969 54.4648 9.82031L54.2734 9.60156C54.2917 9.49219 54.3919 9.41016 54.5742 9.35547L55.5312 9.24609L56.6523 8.91797L57.3906 8.75391C57.5547 8.73568 57.6914 8.73568 57.8008 8.75391L58.5664 8.91797L58.8945 6.56641C58.8945 6.42057 58.8672 6.26562 58.8125 6.10156L58.4023 5.74609C58.2383 5.72786 58.0378 5.74609 57.8008 5.80078L56.2695 6.15625C55.9414 6.22917 55.6862 6.26562 55.5039 6.26562C55.3216 6.2474 55.1393 6.22005 54.957 6.18359C54.7747 6.12891 54.6654 5.94661 54.6289 5.63672L55.1211 5.52734L55.7227 5.5C55.8503 5.5 56.1602 5.4362 56.6523 5.30859L57.0898 5.19922C57.418 5.1263 57.7734 5.00781 58.1562 4.84375C58.5391 4.67969 58.8307 4.58854 59.0312 4.57031C59.2135 4.57031 59.3594 4.57943 59.4688 4.59766L60.2891 4.87109C60.6901 4.98047 61 5.10807 61.2188 5.25391C61.4375 5.38151 61.556 5.54557 61.5742 5.74609C61.5742 5.94661 61.474 6.20182 61.2734 6.51172C61.0365 6.89453 60.8633 7.26823 60.7539 7.63281L59.4414 11.7891L58.7305 14.1953C58.6576 14.3594 58.5755 14.4961 58.4844 14.6055C58.3932 14.7148 58.2747 14.7878 58.1289 14.8242L57.8555 14.9062C57.6914 14.888 57.5638 14.8242 57.4727 14.7148L57.0898 14.2227H56.4336L55.1758 14.332C55.431 14.4779 55.6589 14.6237 55.8594 14.7695C56.0599 14.9154 56.1328 15.1341 56.0781 15.4258L55.832 16.0273C55.7227 16.319 55.6133 16.6927 55.5039 17.1484C55.3945 17.6042 55.3125 18.0508 55.2578 18.4883C55.2031 18.944 55.1758 19.3633 55.1758 19.7461C55.1758 20.2201 55.2396 20.6393 55.3672 21.0039C55.4948 21.4049 55.7044 21.7513 55.9961 22.043C56.2878 22.3346 56.6888 22.5625 57.1992 22.7266C57.7096 22.8906 58.4388 22.9727 59.3867 22.9727C60.3346 22.9544 61.1185 22.8542 61.7383 22.6719C62.3581 22.4896 62.7956 22.2526 63.0508 21.9609C63.306 21.6875 63.5065 21.3594 63.6523 20.9766C63.7799 20.612 63.8711 20.2747 63.9258 19.9648C63.9987 19.6732 64.0534 19.3633 64.0898 19.0352L64.2812 18.1328C64.4271 18.0964 64.5182 18.1328 64.5547 18.2422L64.8008 19.2539C64.9102 19.6549 65.0378 20.0742 65.1836 20.5117C65.3294 20.9492 65.5026 21.332 65.7031 21.6602C65.9036 21.9701 65.9948 22.2617 65.9766 22.5352C65.9036 22.7539 65.7305 22.9909 65.457 23.2461C65.2018 23.5195 64.5911 23.8477 63.625 24.2305C62.6771 24.5951 61.3008 24.7865 59.4961 24.8047C58.2201 24.8047 57.2721 24.668 56.6523 24.3945C55.9961 24.1211 55.4857 23.793 55.1211 23.4102C54.7383 23.0273 54.4648 22.6263 54.3008 22.207C54.1549 21.7878 54.0365 21.2956 53.9453 20.7305C53.8542 20.1836 53.8086 19.819 53.8086 19.6367L53.918 16.8477V16C53.918 15.5807 53.8724 15.2891 53.7812 15.125L53.4805 14.4961L51.457 14.6328L52.0039 15.0977C52.2227 15.2799 52.3776 15.5534 52.4688 15.918L52.4414 16.2461C52.3867 16.3555 52.25 16.5104 52.0312 16.7109C51.8125 16.9115 51.6029 17.1393 51.4023 17.3945C51.2201 17.668 50.901 18.0872 50.4453 18.6523L49.3242 19.9648C49.0326 20.293 48.5951 20.694 48.0117 21.168C47.4284 21.6419 46.8086 22.0794 46.1523 22.4805C45.4961 22.8815 44.9036 23.1641 44.375 23.3281C43.8646 23.5104 43.3268 23.6654 42.7617 23.793L42.1055 23.6836L42.543 23.4648C42.7617 23.3555 43.0898 23.1732 43.5273 22.918C43.9648 22.681 44.5755 22.2617 45.3594 21.6602C46.1432 21.0768 46.8268 20.4753 47.4102 19.8555C48.0299 19.2357 48.5495 18.6341 48.9688 18.0508C49.388 17.4674 49.707 16.957 49.9258 16.5195C50.1263 16.082 50.2539 15.6901 50.3086 15.3438L50.4453 14.7148Z" fill="#333333"/>
<path d="M111.887 10.4492C111.285 10.2305 111.003 9.99349 111.039 9.73828C111.148 8.97266 111.203 8.09766 111.203 7.11328C111.203 6.67578 111.194 6.35677 111.176 6.15625C111.158 5.91927 111.139 5.71875 111.121 5.55469C111.103 5.3724 111.103 5.27214 111.121 5.25391C111.194 5.18099 111.285 5.14453 111.395 5.14453C111.559 5.14453 111.759 5.21745 111.996 5.36328C112.251 5.50911 112.379 5.65495 112.379 5.80078C112.379 5.89193 112.37 5.98307 112.352 6.07422C112.333 6.14714 112.324 6.22917 112.324 6.32031L112.16 9.02734C112.16 9.17318 112.215 9.26432 112.324 9.30078H112.461C112.607 9.30078 112.707 9.29167 112.762 9.27344L116.289 8.78125V8.07031C116.289 7.17708 116.271 6.48438 116.234 5.99219C116.216 5.57292 116.171 5.23568 116.098 4.98047C116.043 4.6888 116.116 4.54297 116.316 4.54297C116.462 4.54297 116.654 4.59766 116.891 4.70703C117.182 4.85286 117.355 4.98047 117.41 5.08984C117.465 5.18099 117.483 5.32682 117.465 5.52734C117.428 5.85547 117.41 6.34766 117.41 7.00391L117.438 9.08203C117.438 9.51953 117.355 9.86589 117.191 10.1211C117.1 10.2305 117.009 10.2852 116.918 10.2852C116.827 10.2852 116.699 10.2031 116.535 10.0391C116.499 10.0026 116.453 9.94792 116.398 9.875C116.344 9.80208 116.289 9.75651 116.234 9.73828C116.18 9.72005 116.107 9.71094 116.016 9.71094C115.596 9.7474 114.585 9.88411 112.98 10.1211C112.707 10.1576 112.488 10.2305 112.324 10.3398C112.142 10.431 112.023 10.4766 111.969 10.4766L111.887 10.4492ZM115.359 16.3281C115.177 16.5651 114.986 16.6836 114.785 16.6836C114.73 16.6836 114.703 16.638 114.703 16.5469C114.703 16.4193 114.74 16.2734 114.812 16.1094C114.812 16.1094 114.995 15.7448 115.359 15.0156C115.378 14.9427 115.405 14.8698 115.441 14.7969C115.478 14.724 115.505 14.6602 115.523 14.6055V14.5781C115.523 14.5417 115.496 14.5052 115.441 14.4688C115.387 14.4323 115.323 14.4232 115.25 14.4414C114.958 14.4596 114.521 14.5052 113.938 14.5781C113.372 14.651 112.953 14.724 112.68 14.7969C112.57 14.8333 112.434 14.8789 112.27 14.9336C112.124 14.9883 112.005 15.0156 111.914 15.0156C111.586 15.0156 111.312 14.9154 111.094 14.7148C110.911 14.5872 110.775 14.4596 110.684 14.332L110.629 14.1953C110.629 14.1042 110.784 14.0768 111.094 14.1133C111.513 14.1497 112.379 14.0951 113.691 13.9492L114.238 13.8672C114.384 13.849 114.612 13.8216 114.922 13.7852C115.25 13.7305 115.505 13.6758 115.688 13.6211C115.742 13.6029 115.797 13.5846 115.852 13.5664C115.924 13.5299 115.988 13.5117 116.043 13.5117C116.134 13.5117 116.243 13.5573 116.371 13.6484C116.517 13.7396 116.635 13.8216 116.727 13.8945C116.854 13.9857 116.936 14.0677 116.973 14.1406C117.027 14.1953 117.046 14.2682 117.027 14.3594C117.027 14.4505 116.982 14.5326 116.891 14.6055C116.799 14.6784 116.736 14.7331 116.699 14.7695C116.663 14.8242 116.535 14.9609 116.316 15.1797C116.225 15.3255 116.061 15.526 115.824 15.7812C115.605 16.0365 115.451 16.2188 115.359 16.3281ZM113.992 21.7148C113.992 21.6602 114.083 21.5234 114.266 21.3047C114.466 21.0677 114.621 20.8854 114.73 20.7578C115.004 20.3932 115.332 19.8646 115.715 19.1719C116.116 18.4792 116.344 18.0234 116.398 17.8047C116.435 17.6953 116.38 17.6406 116.234 17.6406C115.943 17.6406 115.141 17.7227 113.828 17.8867C112.971 17.9961 112.333 18.1055 111.914 18.2148C111.823 18.2695 111.732 18.2969 111.641 18.2969C111.495 18.2969 111.34 18.1966 111.176 17.9961C111.103 17.8685 111.066 17.75 111.066 17.6406C111.066 17.5677 111.112 17.4948 111.203 17.4219L111.285 17.3125C111.34 17.2031 111.404 17.0573 111.477 16.875C111.549 16.6927 111.613 16.5195 111.668 16.3555C111.759 16.0638 111.823 15.7448 111.859 15.3984C111.878 15.1979 111.987 15.1432 112.188 15.2344C112.443 15.362 112.634 15.4896 112.762 15.6172C112.908 15.7266 112.953 15.8086 112.898 15.8633C112.716 16.082 112.57 16.3281 112.461 16.6016C112.37 16.8932 112.315 17.0846 112.297 17.1758C112.297 17.2487 112.342 17.2852 112.434 17.2852C112.707 17.2852 113.117 17.2396 113.664 17.1484C113.974 17.112 114.357 17.0664 114.812 17.0117C115.268 16.957 115.633 16.9023 115.906 16.8477L116.59 16.7109C116.645 16.6927 116.717 16.6836 116.809 16.6836C116.9 16.6836 116.991 16.7201 117.082 16.793C117.173 16.8477 117.273 16.9206 117.383 17.0117C117.565 17.1758 117.684 17.3125 117.738 17.4219C117.793 17.513 117.82 17.6224 117.82 17.75C117.82 17.8229 117.766 17.9141 117.656 18.0234C117.565 18.1328 117.456 18.306 117.328 18.543C116.799 19.6185 116.116 20.5208 115.277 21.25C115.04 21.4323 114.776 21.5872 114.484 21.7148C114.357 21.7513 114.238 21.7786 114.129 21.7969C114.038 21.7969 113.992 21.7695 113.992 21.7148ZM122.742 9.08203C122.961 9.08203 123.07 9.18229 123.07 9.38281C123.07 9.49219 122.97 9.64714 122.77 9.84766C122.223 10.5221 121.138 11.8073 119.516 13.7031C119.388 13.8672 119.27 13.9492 119.16 13.9492C119.069 13.9492 118.868 13.8125 118.559 13.5391C118.303 13.3203 118.176 13.138 118.176 12.9922C118.176 12.8281 118.312 12.6732 118.586 12.5273C119.005 12.2904 119.634 11.8164 120.473 11.1055C121.311 10.3581 121.931 9.76562 122.332 9.32812C122.496 9.16406 122.633 9.08203 122.742 9.08203ZM96.0547 5.88281C96.3464 5.82812 96.5651 5.78255 96.7109 5.74609L97.2031 5.60938L97.8867 5.41797L98.1055 5.33594C98.2695 5.31771 98.4792 5.34505 98.7344 5.41797C98.9896 5.49089 99.181 5.58203 99.3086 5.69141L99.3633 6.10156C99.1445 6.22917 98.9167 6.3112 98.6797 6.34766C98.4427 6.38411 98.1784 6.4388 97.8867 6.51172C97.6133 6.58464 97.4128 6.62109 97.2852 6.62109L96 6.8125L95.918 8.50781L97.6953 8.26172L98.5156 8.125C98.9896 8.03385 99.3542 7.97005 99.6094 7.93359C99.8646 7.86068 100.056 7.82422 100.184 7.82422C100.329 7.84245 100.503 7.88802 100.703 7.96094C100.885 8.01562 101.086 8.10677 101.305 8.23438C101.487 8.34375 101.633 8.45312 101.742 8.5625L101.906 8.80859C101.87 8.91797 101.697 8.99089 101.387 9.02734C101.059 9.0638 100.594 9.09115 99.9922 9.10938C99.3906 9.1276 98.8984 9.15495 98.5156 9.19141C98.1146 9.22786 97.4583 9.30078 96.5469 9.41016L94.5508 9.62891C93.8945 9.70182 93.3568 9.77474 92.9375 9.84766L91.7891 10.0664C91.4427 10.1393 91.1328 10.1758 90.8594 10.1758C90.6771 10.1393 90.4766 10.0755 90.2578 9.98438C90.0026 9.89323 89.8477 9.69271 89.793 9.38281C90.0299 9.32812 90.3216 9.28255 90.668 9.24609L91.625 9.13672L92.418 9L94.6875 8.69922V7.00391L94.1953 7.05859L93.7031 7.11328L93.1289 7.16797C92.9284 7.16797 92.7005 7.13151 92.4453 7.05859C92.1719 6.98568 92.0169 6.79427 91.9805 6.48438L92.6641 6.375L94.6875 6.15625C94.651 5.97396 94.6328 5.80078 94.6328 5.63672C94.6328 5.49089 94.6146 5.34505 94.5781 5.19922C94.5417 5.05339 94.4961 4.91667 94.4414 4.78906C94.3867 4.66146 94.3138 4.50651 94.2227 4.32422L94.1133 3.99609C94.168 3.88672 94.2956 3.83203 94.4961 3.83203C94.6602 3.85026 94.9062 3.89583 95.2344 3.96875C95.5625 4.0599 95.8268 4.15104 96.0273 4.24219L96.2734 4.70703C96.2005 4.88932 96.1549 5.05339 96.1367 5.19922L96.1094 5.47266L96.0547 5.88281ZM94.4141 14.0586L93.6758 14.1133C93.6576 14.2409 93.6211 14.3594 93.5664 14.4688L93.1836 14.5781C93.0195 14.4141 92.9193 14.2227 92.8828 14.0039L92.7188 13.2656L92.3633 12.0625C92.2357 11.8255 92.1172 11.6523 92.0078 11.543L91.7891 11.2695C91.7891 11.1419 91.8802 11.069 92.0625 11.0508C92.2812 11.0508 92.4635 11.0599 92.6094 11.0781L92.9922 11.1602C93.4297 11.0872 93.776 11.0326 94.0312 10.9961L95.1797 10.75C95.9089 10.6042 96.3464 10.513 96.4922 10.4766L97.0391 10.3398L97.5859 10.2305C97.7682 10.2122 97.9688 10.2487 98.1875 10.3398C98.4062 10.4128 98.6068 10.4948 98.7891 10.5859C98.9714 10.6771 99.1354 10.7956 99.2812 10.9414L99.3906 11.4336C99.2448 11.5794 99.1081 11.707 98.9805 11.8164L98.6523 12.2266L98.3242 12.6367L98.0508 13.1836C98.1602 13.2565 98.224 13.4479 98.2422 13.7578C97.9141 13.776 97.5951 13.8034 97.2852 13.8398L96.3828 13.8945L95.5352 13.9492C95.6628 14.0586 95.763 14.1771 95.8359 14.3047L95.8086 14.6875C95.6081 14.7969 95.4531 14.8971 95.3438 14.9883C95.2344 15.0977 94.9974 15.3164 94.6328 15.6445L94.1406 16.082L93.7031 16.4375C93.7943 16.5286 93.8854 16.6289 93.9766 16.7383L94.1133 16.957C94.1315 17.0664 94.1133 17.3581 94.0586 17.832C94.0404 18.1237 94.0221 18.4336 94.0039 18.7617L94.3047 19.1172C94.5599 19.0443 94.7604 18.9805 94.9062 18.9258L95.4531 18.6797L95.9727 18.4883L96.1094 18.707L95.6719 19.0898L95.0703 19.5273L94.3047 20.1836C94.0859 20.3659 93.9219 20.5208 93.8125 20.6484L93.5664 20.8398C93.4388 20.8398 93.3203 20.7852 93.2109 20.6758C93.0833 20.5846 92.974 20.4388 92.8828 20.2383L92.8008 19.8281L92.8828 19.4727C92.9375 19.2904 92.9648 19.1081 92.9648 18.9258C92.9831 18.7435 92.9922 18.5247 92.9922 18.2695C92.974 17.8685 92.9557 17.6133 92.9375 17.5039L92.8828 16.957C92.6641 17.1029 92.4818 17.2305 92.3359 17.3398C92.1901 17.431 91.9076 17.5586 91.4883 17.7227L90.5586 18.0508H89.6836L90.3125 17.6133C90.75 17.3581 91.1055 17.1393 91.3789 16.957C91.6523 16.7565 92.0169 16.4648 92.4727 16.082C92.9284 15.681 93.2292 15.4076 93.375 15.2617L94.4141 14.0586ZM93.4297 11.6523L93.5117 12.0352L93.6484 13.2109C93.9036 13.1927 94.1315 13.1836 94.332 13.1836C94.5326 13.1471 94.8333 13.1198 95.2344 13.1016C95.6354 13.0651 95.9089 13.0378 96.0547 13.0195L96.9297 12.9102C97.0573 12.5456 97.1393 12.2721 97.1758 12.0898L97.2578 11.3789L97.0664 11.0781C96.8294 11.0599 96.6016 11.0781 96.3828 11.1328C96.1641 11.1875 95.8086 11.2513 95.3164 11.3242C94.8242 11.3971 94.4414 11.4701 94.168 11.543L93.7031 11.6523H93.4297ZM97.3672 16.5195L97.8594 15.9453C97.9688 15.8177 98.0964 15.6445 98.2422 15.4258C98.388 15.2435 98.4974 15.0794 98.5703 14.9336C98.6432 14.7878 98.6979 14.6237 98.7344 14.4414L98.9258 14.1133C99.0352 14.0951 99.1536 14.1224 99.2812 14.1953C99.4271 14.2865 99.6003 14.4232 99.8008 14.6055C100.02 14.7878 100.156 15.0885 100.211 15.5078L99.7188 15.6992L99.0625 16.0273L98.4609 16.3008L97.7227 16.7109L98.5703 17.2852L99.1992 17.7227C99.3815 17.8867 99.5365 18.069 99.6641 18.2695C99.8099 18.4518 99.901 18.6341 99.9375 18.8164C99.974 18.9805 100.001 19.2083 100.02 19.5L99.9922 19.8828C99.9193 20.0286 99.8099 20.1289 99.6641 20.1836C99.5365 20.1836 99.3724 20.0924 99.1719 19.9102C98.9714 19.7461 98.7161 19.5 98.4062 19.1719L97.6953 18.3789L96.9297 17.5039L96.4922 17.0117L96.1094 16.6562L95.6172 16.1914L95.5078 15.8633H95.7266L96.3281 16.0547L96.875 16.3008L97.3672 16.5195ZM88.5625 3.09375C89.1094 3.07552 89.5833 3.05729 89.9844 3.03906C90.3672 3.02083 91.0417 2.96615 92.0078 2.875L94.5508 2.65625C95.8451 2.54688 96.7474 2.46484 97.2578 2.41016C97.7682 2.3737 98.4336 2.31901 99.2539 2.24609C100.056 2.17318 100.648 2.10026 101.031 2.02734C101.396 1.95443 101.76 1.86328 102.125 1.75391C102.49 1.66276 102.745 1.61719 102.891 1.61719C103.036 1.63542 103.264 1.6901 103.574 1.78125C103.884 1.8724 104.148 1.97266 104.367 2.08203C104.568 2.19141 104.786 2.31901 105.023 2.46484C105.242 2.62891 105.415 2.77474 105.543 2.90234L105.68 3.44922L105.516 3.88672C105.424 4.14193 105.352 4.41536 105.297 4.70703C105.224 4.9987 105.16 5.4362 105.105 6.01953C105.051 6.60286 105.014 7.17708 104.996 7.74219V8.34375C104.996 8.74479 105.005 9.19141 105.023 9.68359V12.1719L105.051 14.6602C105.051 15.1341 105.069 15.8451 105.105 16.793C105.16 17.7227 105.188 18.543 105.188 19.2539C105.224 19.9466 105.242 20.5573 105.242 21.0859C105.206 21.651 105.151 22.0977 105.078 22.4258C104.969 22.7539 104.814 23.0638 104.613 23.3555C104.413 23.6471 104.203 23.8659 103.984 24.0117L103.574 24.2031C103.41 24.1849 103.255 24.0391 103.109 23.7656C102.964 23.474 102.854 23.2279 102.781 23.0273L102.508 22.2617L102.234 21.6602C101.797 21.6966 101.478 21.7148 101.277 21.7148L99.1719 21.7695C98.7344 21.806 97.9505 21.8607 96.8203 21.9336C95.7083 22.0065 94.9792 22.043 94.6328 22.043L92.0078 22.2617C90.7318 22.3346 89.9479 22.3893 89.6562 22.4258C89.474 22.444 89.2917 22.4531 89.1094 22.4531C88.9089 22.4531 88.6901 22.4349 88.4531 22.3984L87.9609 22.3164L87.8516 22.7812C87.7786 23.0547 87.7057 23.237 87.6328 23.3281C87.5417 23.4193 87.4049 23.474 87.2227 23.4922L86.9219 23.1914C86.8125 23.082 86.7122 22.9271 86.6211 22.7266C86.5299 22.5443 86.4479 22.3346 86.375 22.0977C86.3021 21.8424 86.2656 21.5872 86.2656 21.332C86.2656 21.0768 86.3021 20.7396 86.375 20.3203L86.6484 19.0352C86.7578 18.3789 86.8581 17.6042 86.9492 16.7109C87.0404 15.8177 87.1133 14.8698 87.168 13.8672L87.3047 11.2148C87.3411 9.84766 87.3776 8.88151 87.4141 8.31641V6.29297C87.3776 5.67318 87.3411 5.1901 87.3047 4.84375C87.2318 4.4974 87.1589 4.1875 87.0859 3.91406C87.013 3.64062 86.9492 3.42188 86.8945 3.25781L86.8672 2.875C86.9401 2.78385 87.0586 2.73828 87.2227 2.73828C87.3867 2.75651 87.5326 2.78385 87.6602 2.82031L88.5625 3.09375ZM88.7812 4.13281C88.7812 4.91667 88.7721 5.58203 88.7539 6.12891C88.7539 6.63932 88.7266 7.50521 88.6719 8.72656C88.6172 9.92969 88.5716 10.987 88.5352 11.8984L88.3984 15.2344C88.362 16.5286 88.3255 17.5312 88.2891 18.2422L88.125 20.457L88.043 21.332C88.6628 21.332 89.3099 21.3229 89.9844 21.3047C90.6771 21.2865 91.1875 21.2682 91.5156 21.25C91.862 21.2318 92.737 21.1589 94.1406 21.0312L95.9453 20.8945L97.9141 20.7305C99.4818 20.5846 100.43 20.4935 100.758 20.457C101.086 20.4206 101.323 20.4023 101.469 20.4023C101.615 20.4023 101.797 20.4388 102.016 20.5117C102.198 20.5846 102.408 20.6849 102.645 20.8125L103 20.9492C103.128 20.931 103.21 20.8034 103.246 20.5664C103.283 20.3112 103.31 20.0013 103.328 19.6367C103.365 19.2721 103.392 18.7253 103.41 17.9961C103.428 17.2669 103.447 16.4831 103.465 15.6445C103.483 14.8242 103.492 13.7578 103.492 12.4453C103.474 11.5156 103.456 10.7227 103.438 10.0664C103.438 9.44661 103.419 8.66276 103.383 7.71484C103.383 6.76693 103.365 5.98307 103.328 5.36328C103.292 4.74349 103.246 4.27865 103.191 3.96875C103.137 3.65885 103.064 3.44922 102.973 3.33984C102.882 3.23047 102.635 3.15755 102.234 3.12109H101.77C101.387 3.12109 100.858 3.13021 100.184 3.14844C99.181 3.20312 98.5156 3.23047 98.1875 3.23047C97.8958 3.26693 97.2396 3.32161 96.2188 3.39453C95.2161 3.46745 94.3867 3.54036 93.7305 3.61328L92.0078 3.80469C91.5339 3.8776 91.0417 3.95964 90.5312 4.05078C90.0208 4.1237 89.5833 4.1875 89.2188 4.24219L88.7812 4.13281Z" fill="#333333"/>
<path d="M156.676 12.1992C156.384 12.1992 156.211 12.0534 156.156 11.7617C156.047 11.4518 155.755 11.069 155.281 10.6133L155.363 10.5039C155.436 10.5404 155.646 10.6315 155.992 10.7773C156.339 10.9049 156.576 10.9688 156.703 10.9688C156.812 10.9688 156.895 10.9688 156.949 10.9688C157.004 10.9505 157.068 10.9049 157.141 10.832C157.359 10.668 157.633 10.2943 157.961 9.71094C158.198 9.23698 158.408 8.68099 158.59 8.04297C158.79 7.40495 158.891 6.92188 158.891 6.59375C158.891 6.5026 158.818 6.45703 158.672 6.45703L157.633 6.51172L156.922 6.56641L156.457 6.59375L156.266 6.62109C156.393 6.71224 156.475 6.79427 156.512 6.86719C156.566 6.92188 156.594 6.99479 156.594 7.08594C156.594 7.17708 156.484 7.43229 156.266 7.85156C156.083 8.2526 155.792 8.70833 155.391 9.21875C155.062 9.65625 154.616 10.1302 154.051 10.6406C153.504 11.1328 153.094 11.388 152.82 11.4062C152.766 11.4062 152.711 11.3971 152.656 11.3789C152.62 11.3424 152.602 11.2969 152.602 11.2422C152.602 11.224 152.747 11.0508 153.039 10.7227L153.805 9.82031C154.352 9.09115 154.908 8.16146 155.473 7.03125C155.527 6.88542 155.5 6.80339 155.391 6.78516C155.281 6.80339 155.053 6.83073 154.707 6.86719C154.361 6.88542 154.051 6.9401 153.777 7.03125C153.759 7.03125 153.695 7.05859 153.586 7.11328C153.477 7.14974 153.385 7.16797 153.312 7.16797C153.203 7.16797 153.112 7.13151 153.039 7.05859L152.82 6.86719C152.656 6.73958 152.574 6.62109 152.574 6.51172C152.574 6.47526 152.592 6.42057 152.629 6.34766L152.766 6.12891C152.839 6.03776 152.957 5.89193 153.121 5.69141C153.285 5.49089 153.467 5.21745 153.668 4.87109C153.704 4.79818 153.777 4.63411 153.887 4.37891C154.014 4.1237 154.078 3.96875 154.078 3.91406V3.80469C154.078 3.69531 154.096 3.6224 154.133 3.58594C154.169 3.54948 154.251 3.54948 154.379 3.58594C154.507 3.6224 154.661 3.72266 154.844 3.88672L155.145 4.1875C155.199 4.24219 155.227 4.30599 155.227 4.37891C155.227 4.5612 154.971 4.88932 154.461 5.36328C154.37 5.45443 154.26 5.59115 154.133 5.77344C154.005 5.95573 153.941 6.07422 153.941 6.12891C153.941 6.23828 154.023 6.27474 154.188 6.23828L154.816 6.15625C156.257 5.9375 157.341 5.8099 158.07 5.77344L158.809 5.66406L159.055 5.60938L159.191 5.58203C159.337 5.58203 159.438 5.60026 159.492 5.63672C159.547 5.67318 159.602 5.73698 159.656 5.82812C159.711 5.90104 159.766 5.96484 159.82 6.01953C159.948 6.16536 160.039 6.29297 160.094 6.40234L160.148 6.64844L160.094 6.75781L160.039 6.92188C160.003 7.01302 159.975 7.10417 159.957 7.19531C159.939 7.26823 159.911 7.35026 159.875 7.44141C159.492 8.91797 159.046 10.0664 158.535 10.8867C158.371 11.1784 158.089 11.4701 157.688 11.7617C157.305 12.0534 156.967 12.1992 156.676 12.1992ZM159.164 20.8945C158.891 20.8945 158.626 20.694 158.371 20.293C158.043 19.7826 157.724 19.3633 157.414 19.0352L156.703 18.2969C156.32 18.7344 155.983 19.0807 155.691 19.3359C155.418 19.5911 155.072 19.8372 154.652 20.0742C153.868 20.5299 153.212 20.7578 152.684 20.7578C152.556 20.7578 152.492 20.7122 152.492 20.6211C152.492 20.5664 152.665 20.4479 153.012 20.2656C153.358 20.0833 153.686 19.8646 153.996 19.6094C154.78 18.9531 155.427 18.2786 155.938 17.5859C155.828 17.4766 155.281 17.0026 154.297 16.1641C154.169 16.0729 153.978 15.918 153.723 15.6992C153.668 15.6628 153.559 15.5807 153.395 15.4531C153.23 15.3255 153.148 15.2344 153.148 15.1797C153.148 15.0885 153.194 15.043 153.285 15.043C153.559 15.043 153.996 15.2344 154.598 15.6172C155.199 15.9818 155.828 16.4193 156.484 16.9297C156.74 16.6198 156.94 16.3281 157.086 16.0547C157.232 15.7812 157.396 15.444 157.578 15.043C157.669 14.8424 157.724 14.6693 157.742 14.5234C157.76 14.3594 157.77 14.2591 157.77 14.2227C157.77 14.0221 157.824 13.9219 157.934 13.9219C158.061 13.9219 158.234 14.0221 158.453 14.2227C158.836 14.5872 159.027 14.8333 159.027 14.9609C159.027 15.0339 158.982 15.1159 158.891 15.207C158.672 15.4258 158.471 15.7174 158.289 16.082C158.18 16.3008 157.979 16.6107 157.688 17.0117C157.596 17.1211 157.523 17.2214 157.469 17.3125C157.414 17.4036 157.359 17.4857 157.305 17.5586C157.724 17.8685 158.344 18.3971 159.164 19.1445C159.365 19.3268 159.492 19.5 159.547 19.6641C159.62 19.8099 159.656 20.0104 159.656 20.2656C159.656 20.4479 159.611 20.6029 159.52 20.7305C159.428 20.8398 159.31 20.8945 159.164 20.8945ZM164.742 9.08203C164.961 9.08203 165.07 9.18229 165.07 9.38281C165.07 9.49219 164.97 9.64714 164.77 9.84766C164.223 10.5221 163.138 11.8073 161.516 13.7031C161.388 13.8672 161.27 13.9492 161.16 13.9492C161.069 13.9492 160.868 13.8125 160.559 13.5391C160.303 13.3203 160.176 13.138 160.176 12.9922C160.176 12.8281 160.312 12.6732 160.586 12.5273C161.005 12.2904 161.634 11.8164 162.473 11.1055C163.311 10.3581 163.931 9.76562 164.332 9.32812C164.496 9.16406 164.633 9.08203 164.742 9.08203ZM141.527 6.07422L141.555 4.59766L140.352 4.70703C140.206 4.74349 139.951 4.76172 139.586 4.76172H138.766C138.547 4.74349 138.328 4.70703 138.109 4.65234C137.909 4.57943 137.754 4.4974 137.645 4.40625L137.508 4.16016C137.581 4.05078 137.69 3.97786 137.836 3.94141L138.629 3.88672C139.194 3.85026 139.832 3.77734 140.543 3.66797L141.555 3.50391L141.527 3.03906C141.509 2.7474 141.482 2.49219 141.445 2.27344C141.409 2.07292 141.363 1.89062 141.309 1.72656C141.254 1.5625 141.172 1.40755 141.062 1.26172L140.926 0.933594L140.953 0.714844C141.026 0.605469 141.145 0.550781 141.309 0.550781C141.454 0.550781 141.6 0.56901 141.746 0.605469C141.928 0.641927 142.147 0.714844 142.402 0.824219C142.639 0.915365 142.849 1.02474 143.031 1.15234C143.214 1.26172 143.323 1.39844 143.359 1.5625C143.378 1.6901 143.341 1.84505 143.25 2.02734L143.031 2.60156L142.977 3.3125C143.305 3.27604 143.56 3.23958 143.742 3.20312L144.535 3.03906C145.1 2.94792 145.465 2.875 145.629 2.82031L145.93 2.73828C146.112 2.73828 146.34 2.77474 146.613 2.84766C146.868 2.9388 147.078 3.03906 147.242 3.14844L147.352 3.61328C147.133 3.79557 146.878 3.90495 146.586 3.94141C146.312 3.99609 145.921 4.05078 145.41 4.10547L143.414 4.32422L142.922 4.37891L142.867 5.82812L143.086 5.80078L143.469 5.69141L144.125 5.58203C144.417 5.54557 144.681 5.52734 144.918 5.52734L145.355 5.60938C145.592 5.66406 145.766 5.70052 145.875 5.71875C145.984 5.75521 146.121 5.81901 146.285 5.91016L146.531 6.10156C146.513 6.22917 146.44 6.3112 146.312 6.34766C146.185 6.38411 145.957 6.42057 145.629 6.45703L145.164 6.56641L140.844 7.08594C140.479 7.14062 140.206 7.16797 140.023 7.16797C139.823 7.16797 139.65 7.14974 139.504 7.11328C139.376 7.07682 139.24 7.03125 139.094 6.97656C138.948 6.92188 138.811 6.84896 138.684 6.75781L138.52 6.53906C138.538 6.41146 138.629 6.32943 138.793 6.29297H139.23C139.704 6.25651 140.014 6.22917 140.16 6.21094L141.008 6.10156L141.527 6.07422ZM140.734 20.1836C140.99 20.3659 141.208 20.5391 141.391 20.7031C141.555 20.849 141.582 21.0586 141.473 21.332L140.898 21.6328C140.789 21.7057 140.57 21.9154 140.242 22.2617C139.914 22.5898 139.458 22.9635 138.875 23.3828C138.292 23.8021 137.9 24.0664 137.699 24.1758C137.48 24.2852 137.289 24.3763 137.125 24.4492L136.195 24.6133L136.605 24.2031L137.125 23.7383L138.273 22.6445C138.456 22.4622 138.738 22.1341 139.121 21.6602C139.504 21.1862 139.704 20.8763 139.723 20.7305L139.805 20.2656L139.039 20.457L138.574 20.4844C138.447 20.3203 138.346 20.1016 138.273 19.8281L138.164 19.3359V18.8711L138.273 18.4883C138.346 18.2331 138.392 17.9414 138.41 17.6133L138.547 15.6719C138.547 15.4896 138.529 15.2161 138.492 14.8516C138.474 14.5052 138.447 14.2682 138.41 14.1406C138.374 14.013 138.31 13.8763 138.219 13.7305L138.109 13.4297C138.128 13.3203 138.31 13.2565 138.656 13.2383L139.176 13.3477L139.613 13.5117L142.047 13.2109C142.32 13.1927 142.594 13.1471 142.867 13.0742L143.578 12.9375C144.052 12.8464 144.408 12.7643 144.645 12.6914L145.055 12.582C145.237 12.5638 145.401 12.582 145.547 12.6367C145.711 12.6732 145.957 12.7734 146.285 12.9375C146.632 13.1016 146.878 13.2474 147.023 13.375L147.133 13.8945C147.023 14.1315 146.941 14.3229 146.887 14.4688L146.805 14.7969C146.786 14.9609 146.777 15.2799 146.777 15.7539L146.75 18.2148V19.1719C146.714 19.4453 146.65 19.6732 146.559 19.8555C146.467 20.0742 146.349 20.2565 146.203 20.4023L145.793 20.6211C145.629 20.5482 145.501 20.4297 145.41 20.2656L145.219 19.8555L140.734 20.1836ZM139.586 15.5898L142.73 15.1797C143.441 15.0885 143.924 15.0156 144.18 14.9609C144.453 14.9062 144.763 14.9062 145.109 14.9609L145.191 14.1133C145.155 13.931 145.018 13.776 144.781 13.6484C144.562 13.6302 144.353 13.6302 144.152 13.6484C143.952 13.6667 143.742 13.694 143.523 13.7305L142.484 13.8945L141.062 14.0859L140.324 14.1953L139.695 14.168L139.586 15.5898ZM139.422 17.5586L143.305 17.0664L144.672 16.9023L145.191 17.0117L145.273 15.6445L141.199 16.1641C140.47 16.2552 139.969 16.3008 139.695 16.3008L139.422 17.5586ZM139.312 19.4453C140.88 19.3177 141.819 19.2357 142.129 19.1992L145.246 18.8984L145.328 17.6953L139.395 18.2148L139.312 19.4453ZM133.188 6.73047C133.023 6.62109 132.896 6.51172 132.805 6.40234C132.695 6.3112 132.595 6.19271 132.504 6.04688L132.148 5.41797L131.766 4.54297C131.62 4.2513 131.474 3.92318 131.328 3.55859L131.137 3.09375L131.301 2.79297H131.547L131.984 2.95703C132.13 3.01172 132.331 3.11198 132.586 3.25781C132.841 3.40365 133.033 3.52214 133.16 3.61328C133.306 3.72266 133.461 3.85026 133.625 3.99609C133.771 4.14193 133.898 4.29688 134.008 4.46094C134.117 4.60677 134.181 4.78906 134.199 5.00781L134.227 5.25391L134.199 5.55469C134.181 5.71875 134.145 5.86458 134.09 5.99219C134.035 6.11979 133.944 6.28385 133.816 6.48438L134.883 6.40234C135.193 6.32943 135.43 6.29297 135.594 6.29297C135.74 6.29297 135.949 6.32943 136.223 6.40234C136.478 6.47526 136.697 6.56641 136.879 6.67578C137.043 6.78516 137.043 6.99479 136.879 7.30469C136.587 7.35938 136.378 7.39583 136.25 7.41406C136.104 7.43229 135.785 7.47786 135.293 7.55078C134.801 7.60547 134.391 7.66016 134.062 7.71484L132.148 8.09766C131.82 8.17057 131.456 8.26172 131.055 8.37109C130.654 8.46224 130.298 8.55339 129.988 8.64453C129.678 8.71745 129.414 8.80859 129.195 8.91797L128.703 9.05469C128.576 9.05469 128.439 9.03646 128.293 9L127.801 8.86328L127.363 8.67188C127.199 8.58073 127.035 8.48047 126.871 8.37109L126.625 8.125L126.652 7.85156L127.035 7.74219L127.746 7.66016L130.152 7.27734L133.188 6.73047ZM130.234 10.832L130.645 10.75C130.954 10.6953 131.237 10.6406 131.492 10.5859C131.747 10.5312 132.03 10.4583 132.34 10.3672C132.65 10.276 132.914 10.1849 133.133 10.0938L133.543 9.95703H133.953C134.135 9.95703 134.336 9.99349 134.555 10.0664C134.792 10.1029 134.974 10.1576 135.102 10.2305L135.211 10.5586C135.138 10.668 135.029 10.7409 134.883 10.7773C134.737 10.832 134.454 10.9049 134.035 10.9961L131.848 11.5156L131.492 11.5977L131.219 11.6523H130.781L130.289 11.5156C130.034 11.4245 129.879 11.2331 129.824 10.9414L130.234 10.832ZM130.18 13.5117L130.645 13.457L131.355 13.293C131.775 13.2018 132.066 13.1289 132.23 13.0742L133.051 12.8555L133.434 12.7461C133.616 12.7461 133.826 12.7643 134.062 12.8008C134.281 12.819 134.454 12.8555 134.582 12.9102C134.71 12.9466 134.846 13.0013 134.992 13.0742L135.184 13.457C135.092 13.5299 134.974 13.5846 134.828 13.6211L133.516 13.8945L132.148 14.168L131.273 14.3594H130.836L130.59 14.332C130.462 14.2956 130.307 14.2409 130.125 14.168C129.961 14.1133 129.833 13.9219 129.742 13.5938C129.961 13.5573 130.107 13.5299 130.18 13.5117ZM130.152 16.6289L131.656 16.3555C131.766 16.319 132.003 16.2552 132.367 16.1641C132.732 16.0547 132.978 15.9727 133.105 15.918C133.251 15.8815 133.424 15.8086 133.625 15.6992L134.035 15.5352C134.181 15.5352 134.336 15.5625 134.5 15.6172C134.682 15.6719 134.883 15.7539 135.102 15.8633C135.32 15.9727 135.521 16.1003 135.703 16.2461L135.977 16.5195C135.958 16.6289 135.885 16.7565 135.758 16.9023C135.648 17.0117 135.557 17.1302 135.484 17.2578C135.411 17.3854 135.32 17.5586 135.211 17.7773C135.138 17.9961 135.074 18.1784 135.02 18.3242L134.473 19.9102L134.773 20.1289L134.691 20.6211C134.509 20.6211 134.309 20.6302 134.09 20.6484L133.57 20.7031C133.461 20.7214 133.197 20.7578 132.777 20.8125L131.109 21.168C131.018 21.4049 130.909 21.5417 130.781 21.5781C130.654 21.5781 130.526 21.5052 130.398 21.3594C130.326 21.2682 130.262 21.1406 130.207 20.9766C130.152 20.8125 130.107 20.6484 130.07 20.4844L129.742 18.625L129.551 17.9141C129.496 17.7135 129.423 17.5495 129.332 17.4219C129.259 17.2943 129.168 17.1758 129.059 17.0664L128.785 16.7383C128.822 16.5924 128.931 16.5195 129.113 16.5195L129.633 16.5742L130.152 16.6289ZM131.164 20.1289L133.379 19.6914L133.762 17.3945L133.816 17.0938L133.652 16.8203C133.47 16.8021 133.251 16.8203 132.996 16.875L130.809 17.2852L131.164 20.1289ZM146.23 11.4609L138.465 12.2539L138.219 12.3359C138.109 12.3177 137.991 12.2083 137.863 12.0078L137.098 9.32812C136.988 9.09115 136.87 8.90885 136.742 8.78125L136.578 8.53516L136.742 8.26172C136.906 8.24349 137.07 8.26172 137.234 8.31641L137.617 8.39844L138.055 8.50781L142.594 7.98828L144.18 7.82422C144.763 7.78776 145.118 7.7513 145.246 7.71484L145.766 7.66016C146.203 7.58724 146.549 7.53255 146.805 7.49609L147.188 7.41406C147.406 7.39583 147.634 7.44141 147.871 7.55078C148.108 7.6237 148.354 7.7513 148.609 7.93359C148.883 8.07943 149.083 8.22526 149.211 8.37109L149.375 8.64453C149.375 8.80859 149.302 8.95443 149.156 9.08203L148.746 9.49219L148.5 9.82031L148.227 10.1758L147.68 11.1602C147.497 11.4701 147.352 11.6797 147.242 11.7891C147.115 11.8984 146.932 11.9714 146.695 12.0078L146.422 11.9805L146.203 11.7344L146.23 11.4609ZM143.688 10.7773C144.234 10.6862 144.672 10.6042 145 10.5312C145.328 10.4766 145.565 10.4492 145.711 10.4492C145.875 10.4492 146.021 10.4674 146.148 10.5039L146.531 10.6406L146.859 9.76562L146.914 9.32812L147.023 8.86328L146.969 8.58984C146.878 8.48047 146.723 8.42578 146.504 8.42578L145.93 8.45312L145.383 8.48047L144.289 8.58984L144.59 9.21875L144.316 9.57422C144.225 9.68359 144.143 9.82943 144.07 10.0117L143.688 10.7773ZM141.062 8.86328L141.363 9.02734L141.473 9.49219C141.454 9.76562 141.445 9.99349 141.445 10.1758L141.418 11.0508L143.031 10.832L143.223 10.0664L143.305 9.65625L143.387 9L143.305 8.64453L141.062 8.86328ZM140.762 11.1602L140.543 10.2031L140.461 9.76562L140.379 9.38281L140.105 8.97266L138.438 9.19141L138.656 11.3789L140.762 11.1602ZM143.387 20.7305L143.469 20.5664C143.615 20.5664 143.833 20.6211 144.125 20.7305C144.417 20.8398 144.772 20.9948 145.191 21.1953C145.611 21.3776 145.966 21.569 146.258 21.7695C146.568 21.9518 146.841 22.1706 147.078 22.4258C147.333 22.681 147.516 22.9362 147.625 23.1914C147.716 23.4466 147.762 23.7201 147.762 24.0117C147.743 24.194 147.689 24.3763 147.598 24.5586C147.507 24.7409 147.361 24.832 147.16 24.832C146.996 24.832 146.841 24.7773 146.695 24.668C146.549 24.5586 146.422 24.4492 146.312 24.3398L145.82 23.7383L144.809 22.4258L144.07 21.4961L143.387 20.7305Z" fill="#333333"/>
<path d="M198.266 11.9258C198.12 11.9258 197.974 11.8984 197.828 11.8438C197.682 11.7708 197.573 11.6615 197.5 11.5156C197.445 11.3516 197.327 11.1602 197.145 10.9414C196.98 10.7227 196.816 10.5586 196.652 10.4492L196.762 10.3125C196.853 10.3672 197.072 10.4766 197.418 10.6406C197.764 10.8047 198.02 10.8867 198.184 10.8867C198.439 10.8867 198.667 10.7956 198.867 10.6133C199.068 10.431 199.323 10.0846 199.633 9.57422C199.852 9.22786 200.052 8.81771 200.234 8.34375C200.417 7.86979 200.553 7.43229 200.645 7.03125L200.672 6.97656C200.672 6.92188 200.654 6.8763 200.617 6.83984C200.581 6.78516 200.544 6.75781 200.508 6.75781L199.25 6.86719C198.411 7.01302 197.536 7.13151 196.625 7.22266C196.461 7.24089 196.27 7.28646 196.051 7.35938C195.832 7.43229 195.677 7.46875 195.586 7.46875C195.44 7.46875 195.249 7.35026 195.012 7.11328C194.921 7.04036 194.829 6.94922 194.738 6.83984C194.665 6.73047 194.647 6.63932 194.684 6.56641C194.829 6.42057 194.902 6.34766 194.902 6.34766L195.039 6.23828C195.294 5.98307 195.549 5.64583 195.805 5.22656C195.987 4.97135 196.178 4.54297 196.379 3.94141C196.379 3.74089 196.424 3.64062 196.516 3.64062C196.57 3.64062 196.661 3.67708 196.789 3.75L197.227 4.02344C197.336 4.11458 197.409 4.1875 197.445 4.24219C197.482 4.29688 197.5 4.36979 197.5 4.46094C197.5 4.57031 197.427 4.70703 197.281 4.87109C197.135 5.01693 197.008 5.16276 196.898 5.30859L196.27 6.21094L196.215 6.32031C196.215 6.375 196.288 6.40234 196.434 6.40234L198.539 6.12891L199.961 6.01953L200.508 5.96484L200.809 5.91016H200.891C201.073 5.91016 201.273 6.0651 201.492 6.375C201.747 6.61198 201.875 6.8125 201.875 6.97656L201.738 7.33203C201.72 7.36849 201.574 7.79688 201.301 8.61719C200.973 9.40104 200.69 9.99349 200.453 10.3945C200.216 10.7956 199.961 11.1055 199.688 11.3242C199.195 11.7253 198.721 11.9258 198.266 11.9258ZM201.656 16.5742C201.857 16.793 201.957 16.9753 201.957 17.1211C201.957 17.2487 201.884 17.3672 201.738 17.4766C201.647 17.5495 201.419 17.9505 201.055 18.6797C200.654 19.3359 200.207 19.9102 199.715 20.4023C199.241 20.8763 198.767 21.2227 198.293 21.4414C198.184 21.4779 198.092 21.4961 198.02 21.4961C197.947 21.4961 197.91 21.4779 197.91 21.4414V21.3867C197.91 21.2773 198.001 21.1497 198.184 21.0039C198.512 20.7487 198.758 20.4935 198.922 20.2383C199.104 19.9648 199.241 19.7643 199.332 19.6367C199.715 19.0898 199.988 18.6432 200.152 18.2969C200.335 17.987 200.462 17.668 200.535 17.3398H200.426C199.952 17.3398 199.186 17.3945 198.129 17.5039C197.965 17.5221 197.491 17.5859 196.707 17.6953C196.543 17.7135 196.288 17.7591 195.941 17.832L195.613 17.9141C195.54 17.9505 195.467 17.9688 195.395 17.9688C195.303 17.9688 195.212 17.9505 195.121 17.9141C195.03 17.8594 194.939 17.7956 194.848 17.7227C194.629 17.5404 194.52 17.3854 194.52 17.2578C194.538 17.2214 194.556 17.1667 194.574 17.0938C194.611 17.0208 194.629 16.957 194.629 16.9023L194.766 16C194.784 15.9089 194.802 15.8086 194.82 15.6992C194.839 15.5898 194.848 15.4805 194.848 15.3711C194.848 15.0247 194.839 14.7513 194.82 14.5508C194.82 14.332 194.793 14.1042 194.738 13.8672V13.7852C194.738 13.6576 194.793 13.5938 194.902 13.5938C195.012 13.5938 195.203 13.6758 195.477 13.8398C195.841 14.0951 196.023 14.2956 196.023 14.4414C196.023 14.4961 196.014 14.5417 195.996 14.5781C195.978 14.6146 195.96 14.651 195.941 14.6875C195.887 15.0156 195.859 15.1979 195.859 15.2344L195.723 16.6836C195.723 16.7201 195.741 16.7656 195.777 16.8203C195.832 16.8568 195.887 16.875 195.941 16.875C196.379 16.875 197.363 16.7656 198.895 16.5469C199.496 16.4922 199.924 16.4284 200.18 16.3555C200.344 16.3372 200.48 16.3099 200.59 16.2734C200.717 16.2188 200.799 16.1914 200.836 16.1914C200.945 16.1549 201.018 16.1367 201.055 16.1367C201.219 16.1367 201.419 16.2826 201.656 16.5742ZM206.852 10.8867C206.906 10.8867 206.961 10.9141 207.016 10.9688C207.07 11.0052 207.107 11.0599 207.125 11.1328V11.1875C207.125 11.3151 207.025 11.5612 206.824 11.9258L204.855 15.3438C204.71 15.6536 204.518 15.8086 204.281 15.8086C204.044 15.8086 203.844 15.6628 203.68 15.3711C203.516 15.1341 203.315 14.7786 203.078 14.3047C202.969 14.1406 202.878 13.9766 202.805 13.8125C202.732 13.6484 202.677 13.5299 202.641 13.457C202.44 13.1107 202.34 12.8646 202.34 12.7188C202.34 12.6458 202.367 12.5911 202.422 12.5547C202.477 12.5 202.531 12.4727 202.586 12.4727C202.786 12.4727 202.969 12.582 203.133 12.8008C203.26 12.9284 203.361 13.0651 203.434 13.2109L203.734 13.6211L204.281 14.25L204.527 13.8672C204.783 13.4297 205.384 12.5638 206.332 11.2695C206.533 11.0143 206.706 10.8867 206.852 10.8867ZM179.645 19.0625C179.663 19.2995 179.681 19.5547 179.699 19.8281C179.699 20.1016 179.717 20.5846 179.754 21.2773C179.79 21.7878 179.809 22.1706 179.809 22.4258C179.772 22.6445 179.717 22.8906 179.645 23.1641C179.553 23.4375 179.462 23.6654 179.371 23.8477C179.262 24.0664 179.125 24.2852 178.961 24.5039L178.633 24.832C178.487 24.832 178.296 24.6953 178.059 24.4219C177.84 24.1484 177.685 23.8659 177.594 23.5742C177.503 23.2826 177.43 22.9909 177.375 22.6992C177.32 22.4076 177.293 22.1615 177.293 21.9609L177.484 21.332C177.594 20.9674 177.703 20.4753 177.812 19.8555L177.895 19.2812C177.621 19.2995 177.421 19.3086 177.293 19.3086L176.145 19.4453C175.908 19.4635 175.643 19.4727 175.352 19.4727C174.896 19.4727 174.513 19.418 174.203 19.3086C173.893 19.2174 173.711 19.1172 173.656 19.0078V18.625C173.82 18.4974 173.957 18.4245 174.066 18.4062C174.176 18.388 174.522 18.3424 175.105 18.2695L177.977 17.8867L178.059 16.5195L178.168 11.707L177.402 12.7734C177.22 13.0469 176.892 13.457 176.418 14.0039C175.962 14.569 175.488 15.1159 174.996 15.6445C174.486 16.1732 173.966 16.6471 173.438 17.0664C172.909 17.4857 172.38 17.8503 171.852 18.1602C171.341 18.4883 170.822 18.7799 170.293 19.0352C169.783 19.3268 169.309 19.5456 168.871 19.6914L168.023 20.0195L167.477 19.9922C167.458 19.8646 167.577 19.7188 167.832 19.5547L168.652 19.0078C169.181 18.6432 169.837 18.1602 170.621 17.5586C171.387 16.9388 172.089 16.3372 172.727 15.7539C173.365 15.1706 173.975 14.5508 174.559 13.8945C175.142 13.2383 175.725 12.5091 176.309 11.707C176.892 10.8867 177.275 10.2852 177.457 9.90234L177.785 9.19141L175.434 9.51953C175.142 9.55599 174.723 9.63802 174.176 9.76562C173.592 9.875 173.155 9.92969 172.863 9.92969H172.508C172.344 9.875 172.116 9.78385 171.824 9.65625C171.533 9.52865 171.332 9.39193 171.223 9.24609L171.086 8.97266C171.104 8.86328 171.423 8.77214 172.043 8.69922L178.168 7.96094V4.35156C178.168 4.16927 178.141 3.85026 178.086 3.39453C178.031 2.95703 177.986 2.65625 177.949 2.49219C177.913 2.32812 177.84 2.15495 177.73 1.97266C177.621 1.77214 177.539 1.53516 177.484 1.26172C177.576 1.11589 177.749 1.03385 178.004 1.01562C178.296 1.01562 178.578 1.0612 178.852 1.15234C179.125 1.22526 179.398 1.32552 179.672 1.45312C179.945 1.58073 180.137 1.71745 180.246 1.86328C180.355 2.00911 180.401 2.17318 180.383 2.35547L180.191 2.82031C180.064 3.09375 179.973 3.41276 179.918 3.77734C179.845 4.17839 179.79 4.80729 179.754 5.66406L179.672 7.76953L182.652 7.27734L183.773 7.11328C184.193 7.04036 184.475 6.99479 184.621 6.97656C184.876 6.97656 185.132 7.02214 185.387 7.11328C185.642 7.20443 185.888 7.3138 186.125 7.44141C186.362 7.58724 186.526 7.72396 186.617 7.85156L186.727 8.125L186.672 8.37109C186.599 8.48047 186.417 8.53516 186.125 8.53516C185.852 8.53516 185.505 8.55339 185.086 8.58984L182.898 8.72656L181.531 8.80859L180.41 8.86328L179.699 9.02734L180.52 10.0664L181.75 11.3242C182.315 11.8893 182.835 12.3815 183.309 12.8008C183.764 13.2383 184.32 13.7122 184.977 14.2227C185.633 14.7331 186.189 15.1341 186.645 15.4258C187.118 15.7174 187.72 16.0456 188.449 16.4102C189.16 16.7747 189.835 17.0755 190.473 17.3125L191.512 17.6953L192.168 17.9414C192.423 18.0508 192.551 18.1784 192.551 18.3242C192.551 18.4518 192.368 18.543 192.004 18.5977L191.266 18.707C190.992 18.7617 190.4 18.8438 189.488 18.9531C188.741 19.0443 188.094 19.0898 187.547 19.0898C186.927 19.0534 186.462 18.9531 186.152 18.7891C185.824 18.625 185.296 18.0781 184.566 17.1484L183.062 15.207L181.887 13.5664L180.766 12.0352L179.645 10.5039L179.59 17.5586L180.492 17.3945C181.021 17.2852 181.349 17.2305 181.477 17.2305C181.604 17.2305 181.878 17.276 182.297 17.3672C182.716 17.4583 183.035 17.5495 183.254 17.6406L183.609 17.9414L183.555 18.1875C183.427 18.3151 183.199 18.4245 182.871 18.5156C182.525 18.6068 182.279 18.6615 182.133 18.6797L179.645 19.0625Z" fill="#333333"/>
<path d="M240.02 8.64453C239.783 8.64453 239.609 8.5625 239.5 8.39844C239.336 8.16146 239.172 7.97005 239.008 7.82422C238.862 7.67839 238.598 7.47786 238.215 7.22266L238.297 7.08594C239.135 7.3776 239.728 7.52344 240.074 7.52344C240.366 7.52344 240.685 7.35938 241.031 7.03125C241.396 6.6849 241.706 6.19271 241.961 5.55469C242.089 5.26302 242.18 5.02604 242.234 4.84375C242.307 4.64323 242.362 4.42448 242.398 4.1875V4.13281C242.398 3.96875 242.316 3.88672 242.152 3.88672C241.97 3.88672 241.642 3.94141 241.168 4.05078C240.913 4.1237 240.576 4.23307 240.156 4.37891L239.938 4.32422C239.919 4.30599 239.874 4.27865 239.801 4.24219C239.746 4.1875 239.701 4.13281 239.664 4.07812C239.573 3.98698 239.527 3.92318 239.527 3.88672L239.5 3.77734C239.5 3.64974 239.564 3.53125 239.691 3.42188C239.837 3.3125 239.919 3.23047 239.938 3.17578C240.083 3.01172 240.375 2.61068 240.812 1.97266C240.849 1.9362 240.913 1.85417 241.004 1.72656C241.095 1.58073 241.141 1.45312 241.141 1.34375C241.141 1.21615 240.603 1.30729 239.527 1.61719C238.434 1.94531 237.859 2.10938 237.805 2.10938C237.622 2.10938 237.431 1.95443 237.23 1.64453C237.085 1.4987 237.012 1.38021 237.012 1.28906C237.012 1.16146 237.194 1.08854 237.559 1.07031C237.978 1.05208 238.625 0.979167 239.5 0.851562C240.393 0.723958 240.922 0.641927 241.086 0.605469L241.469 0.496094C241.523 0.477865 241.587 0.46875 241.66 0.46875C241.715 0.46875 241.797 0.505208 241.906 0.578125C242.034 0.651042 242.143 0.705729 242.234 0.742188C242.471 0.851562 242.608 0.979167 242.645 1.125V1.20703C242.645 1.37109 242.553 1.54427 242.371 1.72656C242.298 1.79948 242.152 1.95443 241.934 2.19141C241.715 2.41016 241.578 2.55599 241.523 2.62891C241.451 2.70182 241.341 2.82031 241.195 2.98438C241.049 3.14844 240.967 3.2487 240.949 3.28516C240.949 3.33984 240.967 3.3763 241.004 3.39453C241.04 3.41276 241.086 3.42188 241.141 3.42188C241.688 3.34896 242.134 3.26693 242.48 3.17578L242.918 3.03906C243.118 3.03906 243.264 3.11198 243.355 3.25781C243.52 3.4401 243.629 3.59505 243.684 3.72266C243.738 3.83203 243.738 3.94141 243.684 4.05078C243.665 4.10547 243.638 4.16016 243.602 4.21484C243.565 4.26953 243.529 4.33333 243.492 4.40625C243.474 4.44271 243.438 4.51562 243.383 4.625C243.328 4.73438 243.292 4.84375 243.273 4.95312C242.945 5.90104 242.553 6.71224 242.098 7.38672C241.842 7.69661 241.56 7.96094 241.25 8.17969C240.831 8.48958 240.421 8.64453 240.02 8.64453ZM237.285 13.2383C237.085 13.2383 236.839 13.0833 236.547 12.7734C236.328 12.5547 236.219 12.3906 236.219 12.2812C236.219 12.2266 236.255 12.1992 236.328 12.1992C236.401 12.181 236.492 12.1719 236.602 12.1719L237.203 12.1445C237.549 12.1445 237.777 12.1354 237.887 12.1172C238.233 12.1172 238.525 12.1081 238.762 12.0898C240.329 11.944 241.387 11.8255 241.934 11.7344C242.207 11.6979 242.453 11.6615 242.672 11.625C242.891 11.5703 243.064 11.543 243.191 11.543C243.447 11.543 243.702 11.6706 243.957 11.9258C244.158 12.1263 244.258 12.2904 244.258 12.418C244.258 12.5273 244.194 12.6003 244.066 12.6367C243.975 12.6549 243.438 12.6914 242.453 12.7461C241.906 12.7643 241.232 12.8099 240.43 12.8828C239.628 12.9557 238.926 13.0286 238.324 13.1016C238.215 13.1198 238.06 13.1471 237.859 13.1836C237.659 13.2201 237.467 13.2383 237.285 13.2383ZM241.359 19.3359C241.177 19.5729 240.986 19.6914 240.785 19.6914C240.73 19.6914 240.703 19.6458 240.703 19.5547C240.703 19.4271 240.74 19.2812 240.812 19.1172C240.812 19.1172 240.995 18.7526 241.359 18.0234C241.378 17.9505 241.405 17.8776 241.441 17.8047C241.478 17.7318 241.505 17.668 241.523 17.6133V17.5859C241.523 17.5495 241.496 17.513 241.441 17.4766C241.387 17.4401 241.323 17.431 241.25 17.4492C240.958 17.4674 240.521 17.513 239.938 17.5859C239.372 17.6589 238.953 17.7318 238.68 17.8047C238.57 17.8411 238.434 17.8867 238.27 17.9414C238.124 17.9961 238.005 18.0234 237.914 18.0234C237.586 18.0234 237.312 17.9232 237.094 17.7227C236.911 17.5951 236.775 17.4674 236.684 17.3398L236.629 17.2031C236.629 17.112 236.784 17.0846 237.094 17.1211C237.513 17.1576 238.379 17.1029 239.691 16.957L240.238 16.875C240.384 16.8568 240.612 16.8294 240.922 16.793C241.25 16.7383 241.505 16.6836 241.688 16.6289C241.742 16.6107 241.797 16.5924 241.852 16.5742C241.924 16.5378 241.988 16.5195 242.043 16.5195C242.134 16.5195 242.243 16.5651 242.371 16.6562C242.517 16.7474 242.635 16.8294 242.727 16.9023C242.854 16.9935 242.936 17.0755 242.973 17.1484C243.027 17.2031 243.046 17.276 243.027 17.3672C243.027 17.4583 242.982 17.5404 242.891 17.6133C242.799 17.6862 242.736 17.7409 242.699 17.7773C242.663 17.832 242.535 17.9688 242.316 18.1875C242.225 18.3333 242.061 18.5339 241.824 18.7891C241.605 19.0443 241.451 19.2266 241.359 19.3359ZM239.992 24.7227C239.992 24.668 240.083 24.5221 240.266 24.2852C240.466 24.0664 240.621 23.8932 240.73 23.7656C241.004 23.401 241.332 22.8724 241.715 22.1797C242.116 21.487 242.344 21.0312 242.398 20.8125C242.435 20.7031 242.38 20.6484 242.234 20.6484C241.943 20.6484 241.141 20.7305 239.828 20.8945C238.971 21.0039 238.333 21.1133 237.914 21.2227C237.823 21.2773 237.732 21.3047 237.641 21.3047C237.495 21.3047 237.34 21.2044 237.176 21.0039C237.103 20.8763 237.066 20.7578 237.066 20.6484C237.066 20.5755 237.112 20.5026 237.203 20.4297L237.285 20.3203C237.34 20.2109 237.404 20.0651 237.477 19.8828C237.549 19.7005 237.613 19.5273 237.668 19.3633C237.759 19.0716 237.823 18.7526 237.859 18.4062C237.878 18.2057 237.987 18.151 238.188 18.2422C238.443 18.3698 238.634 18.4974 238.762 18.625C238.908 18.7344 238.953 18.8164 238.898 18.8711C238.716 19.0898 238.57 19.3359 238.461 19.6094C238.37 19.901 238.315 20.0924 238.297 20.1836C238.297 20.2565 238.342 20.293 238.434 20.293C238.707 20.293 239.117 20.2474 239.664 20.1562C239.974 20.1198 240.357 20.0742 240.812 20.0195C241.268 19.9648 241.633 19.9102 241.906 19.8555L242.59 19.7188C242.645 19.7005 242.717 19.6914 242.809 19.6914C242.9 19.6914 242.991 19.7279 243.082 19.8008C243.173 19.8555 243.273 19.9284 243.383 20.0195C243.565 20.1836 243.684 20.3203 243.738 20.4297C243.793 20.5208 243.82 20.6302 243.82 20.7578C243.82 20.8307 243.766 20.9219 243.656 21.0312C243.565 21.1406 243.456 21.3138 243.328 21.5508C242.799 22.6263 242.116 23.5286 241.277 24.2578C241.04 24.4401 240.776 24.5951 240.484 24.7227C240.357 24.7591 240.238 24.7773 240.129 24.7773C240.038 24.7956 239.992 24.7773 239.992 24.7227ZM245.242 14.2773C245.333 14.2773 245.47 14.3411 245.652 14.4688C245.634 14.5052 245.671 14.5781 245.762 14.6875C245.853 14.7786 245.917 14.8424 245.953 14.8789C246.044 14.9701 246.135 15.0794 246.227 15.207C246.336 15.3346 246.454 15.4714 246.582 15.6172C246.91 15.9635 247.667 16.8659 248.852 18.3242C249.052 18.6159 249.152 18.7891 249.152 18.8438C249.152 19.026 249.043 19.1172 248.824 19.1172C248.697 19.1172 248.56 19.026 248.414 18.8438C248.068 18.4792 247.448 17.9049 246.555 17.1211C245.862 16.4831 245.233 15.9909 244.668 15.6445C244.395 15.5169 244.258 15.3711 244.258 15.207C244.258 15.0794 244.395 14.8971 244.668 14.6602C244.923 14.4049 245.115 14.2773 245.242 14.2773ZM211.746 12.8008L211.691 13.2383L211.609 13.5117C211.555 13.6576 211.436 13.7487 211.254 13.7852L210.98 13.457C210.853 13.3112 210.753 13.0924 210.68 12.8008L210.543 11.9531L210.27 9.05469C210.233 8.92708 210.197 8.72656 210.16 8.45312L209.969 7.71484C209.896 7.49609 209.786 7.3138 209.641 7.16797L209.367 6.73047L209.504 6.56641L209.75 6.51172L210.406 6.62109L211.117 6.78516L212.566 6.45703C212.967 6.38411 213.314 6.29297 213.605 6.18359C213.897 6.07422 214.152 5.95573 214.371 5.82812L214.863 5.63672C215.046 5.61849 215.228 5.63672 215.41 5.69141C215.629 5.76432 215.875 5.86458 216.148 5.99219C216.422 6.13802 216.622 6.28385 216.75 6.42969C216.878 6.57552 216.914 6.78516 216.859 7.05859L216.449 7.6875C216.303 7.88802 216.185 8.14323 216.094 8.45312L215.82 9.41016L215.191 11.7891L215.383 12.0352L215.328 12.3906L214.426 12.4727L213.168 12.6094L211.746 12.8008ZM211.691 11.8711L213.934 11.4883L214.371 8.64453C214.408 8.35286 214.462 8.0612 214.535 7.76953L214.562 7.55078L214.535 7.27734C214.444 7.16797 214.253 7.11328 213.961 7.11328L212.84 7.33203L211.391 7.60547L211.691 11.8711ZM222.848 4.37891L221.891 6.12891L220.879 7.85156C220.587 8.34375 220.049 9.10026 219.266 10.1211C218.482 11.1419 217.816 11.944 217.27 12.5273C216.723 13.1107 216.167 13.6029 215.602 14.0039C215.055 14.4414 214.535 14.7878 214.043 15.043L213.223 15.4805L212.785 15.2891L213.77 14.4141C214.061 14.1771 214.462 13.7943 214.973 13.2656C215.483 12.737 215.993 12.1628 216.504 11.543C217.014 10.9049 217.543 10.194 218.09 9.41016C218.637 8.60807 219.184 7.7513 219.73 6.83984C220.277 5.92839 220.678 5.17188 220.934 4.57031C221.189 3.96875 221.362 3.46745 221.453 3.06641C221.544 2.66536 221.599 2.34635 221.617 2.10938C221.635 1.8724 221.645 1.66276 221.645 1.48047L221.672 1.17969C221.763 1.08854 221.872 1.03385 222 1.01562C222.146 1.01562 222.337 1.07943 222.574 1.20703C222.829 1.38932 223.048 1.5625 223.23 1.72656C223.413 1.89062 223.549 2.04557 223.641 2.19141C223.732 2.33724 223.786 2.53776 223.805 2.79297L223.449 3.33984L223.23 3.66797C223.522 3.85026 223.759 4.00521 223.941 4.13281C224.087 4.26042 224.324 4.48828 224.652 4.81641L225.691 5.80078L227.332 7.44141C227.952 8.04297 228.471 8.50781 228.891 8.83594C229.31 9.16406 229.811 9.5013 230.395 9.84766C230.978 10.2122 231.47 10.4857 231.871 10.668L233.184 11.2422L234.305 11.707L234.633 11.8711L234.66 12.2266L234.277 12.3633L233.156 12.6094L232.145 12.8008C231.652 12.8737 231.233 12.9102 230.887 12.9102C230.486 12.9102 230.176 12.8555 229.957 12.7461C229.738 12.6185 229.492 12.3997 229.219 12.0898C228.945 11.7982 228.626 11.4062 228.262 10.9141L227.141 9.46484L226.02 7.98828L224.953 6.62109C224.279 5.74609 223.85 5.23568 223.668 5.08984L222.848 4.37891ZM215.848 18.2422L216.176 17.3672L216.34 17.1484C216.486 17.1302 216.622 17.2031 216.75 17.3672C216.841 17.4948 216.905 17.7227 216.941 18.0508C216.996 18.3789 217.033 18.7253 217.051 19.0898C217.069 19.2721 217.069 19.4271 217.051 19.5547C217.014 19.974 216.905 20.3841 216.723 20.7852C216.577 21.2227 216.431 21.5508 216.285 21.7695C216.139 22.0247 215.948 22.2617 215.711 22.4805C215.492 22.7174 215.301 22.8359 215.137 22.8359C214.991 22.8359 214.836 22.7721 214.672 22.6445C214.508 22.4987 214.38 22.2982 214.289 22.043C214.216 21.8424 214.18 21.5872 214.18 21.2773C214.216 20.9857 214.262 20.7852 214.316 20.6758L214.918 19.7461L215.465 18.8438C215.665 18.5339 215.793 18.3333 215.848 18.2422ZM226.84 20.3203L226.375 18.5977C226.484 18.5612 226.603 18.6159 226.73 18.7617L227.551 19.6641C227.697 19.8281 227.934 20.0469 228.262 20.3203C228.59 20.5938 228.882 20.8034 229.137 20.9492L229.984 21.5508C230.221 21.7695 230.358 21.9518 230.395 22.0977C230.395 22.2435 230.34 22.4076 230.23 22.5898C230.085 22.7904 229.866 22.9818 229.574 23.1641C229.283 23.3464 228.9 23.5104 228.426 23.6562C227.952 23.8021 227.368 23.9115 226.676 23.9844C226.366 24.0208 226.047 24.0391 225.719 24.0391C225.318 24.0391 224.908 24.0117 224.488 23.957C223.613 23.8659 222.875 23.6836 222.273 23.4102C221.672 23.1185 221.125 22.7539 220.633 22.3164C220.141 21.8789 219.767 21.4049 219.512 20.8945C219.257 20.3659 219.038 19.7461 218.855 19.0352C218.673 18.3424 218.518 17.8047 218.391 17.4219L218.773 17.2031C219.01 17.3307 219.184 17.4492 219.293 17.5586C219.402 17.668 219.484 17.8138 219.539 17.9961L219.73 18.8438C219.803 19.2266 219.995 19.6641 220.305 20.1562C220.596 20.6484 220.915 21.0312 221.262 21.3047C221.626 21.5781 222.082 21.806 222.629 21.9883C223.176 22.1523 223.75 22.2435 224.352 22.2617C224.534 22.2799 224.707 22.2891 224.871 22.2891C225.126 22.2891 225.363 22.2708 225.582 22.2344C225.983 22.1797 226.32 22.0885 226.594 21.9609C226.867 21.8333 227.031 21.6693 227.086 21.4688C227.104 21.2865 227.077 21.0768 227.004 20.8398L226.84 20.3203ZM223.176 12.6914L221.699 12.9648C221.59 13.0013 221.353 13.0742 220.988 13.1836C220.678 13.2747 220.423 13.3203 220.223 13.3203C220.059 13.3021 219.876 13.2565 219.676 13.1836C219.457 13.0924 219.247 12.9922 219.047 12.8828C218.846 12.7734 218.719 12.5911 218.664 12.3359C218.701 12.1901 218.865 12.1172 219.156 12.1172C219.448 12.099 219.803 12.0716 220.223 12.0352C220.624 11.9987 221.025 11.9531 221.426 11.8984C221.827 11.8438 222.264 11.7617 222.738 11.6523L224.105 11.3516C224.543 11.2604 224.871 11.151 225.09 11.0234L225.5 10.832C225.664 10.832 225.865 10.8685 226.102 10.9414C226.339 11.0326 226.566 11.151 226.785 11.2969C227.004 11.4245 227.168 11.5612 227.277 11.707L227.469 12.1172C227.414 12.2266 227.314 12.3451 227.168 12.4727C227.022 12.582 226.858 12.7461 226.676 12.9648L226.02 13.7852C225.801 14.0768 225.527 14.3776 225.199 14.6875C224.889 14.9974 224.634 15.2435 224.434 15.4258C224.215 15.5898 223.969 15.7539 223.695 15.918L222.629 16.1367L223.176 15.4805C223.413 15.2253 223.632 14.9792 223.832 14.7422C224.014 14.5052 224.197 14.2318 224.379 13.9219C224.579 13.612 224.762 13.293 224.926 12.9648L224.953 12.3359C224.789 12.3177 224.616 12.3268 224.434 12.3633L223.176 12.6914ZM220.77 9.05469L221.371 8.91797L222 8.75391C222.237 8.69922 222.529 8.60807 222.875 8.48047L223.449 8.28906L223.75 8.20703C223.914 8.20703 224.087 8.22526 224.27 8.26172C224.452 8.29818 224.625 8.35286 224.789 8.42578L225.09 8.5625L225.254 8.86328C225.217 8.97266 225.108 9.04557 224.926 9.08203C224.762 9.11849 224.543 9.17318 224.27 9.24609L223.395 9.46484L222.438 9.71094C222.146 9.78385 221.854 9.82031 221.562 9.82031C221.253 9.82031 220.979 9.75651 220.742 9.62891L220.441 9.32812C220.46 9.20052 220.569 9.10938 220.77 9.05469ZM222.957 19.0352L221.562 17.0938L221.754 16.7383L222.574 16.793C222.793 16.8477 223.057 16.9388 223.367 17.0664C223.695 17.2122 223.96 17.3398 224.16 17.4492C224.342 17.5586 224.507 17.7135 224.652 17.9141C224.78 18.1146 224.844 18.4062 224.844 18.7891C224.844 19.0807 224.798 19.2995 224.707 19.4453C224.634 19.5729 224.534 19.6732 224.406 19.7461L224.078 19.8281C223.932 19.8281 223.777 19.7826 223.613 19.6914C223.431 19.6003 223.212 19.3815 222.957 19.0352ZM227.934 16.5195L227.195 15.8633L227.004 15.5352L227.25 15.3438L228.262 15.5352C228.535 15.6081 228.882 15.7174 229.301 15.8633C229.702 16.0091 230.085 16.1641 230.449 16.3281C230.796 16.4922 231.06 16.6745 231.242 16.875C231.406 17.0755 231.507 17.3763 231.543 17.7773C231.543 18.0872 231.497 18.3242 231.406 18.4883C231.279 18.6706 231.105 18.7982 230.887 18.8711C230.686 18.8711 230.395 18.707 230.012 18.3789L228.918 17.3672L227.934 16.5195Z" fill="#333333"/>
<path d="M282.676 12.1992C282.384 12.1992 282.211 12.0534 282.156 11.7617C282.047 11.4518 281.755 11.069 281.281 10.6133L281.363 10.5039C281.436 10.5404 281.646 10.6315 281.992 10.7773C282.339 10.9049 282.576 10.9688 282.703 10.9688C282.812 10.9688 282.895 10.9688 282.949 10.9688C283.004 10.9505 283.068 10.9049 283.141 10.832C283.359 10.668 283.633 10.2943 283.961 9.71094C284.198 9.23698 284.408 8.68099 284.59 8.04297C284.79 7.40495 284.891 6.92188 284.891 6.59375C284.891 6.5026 284.818 6.45703 284.672 6.45703L283.633 6.51172L282.922 6.56641L282.457 6.59375L282.266 6.62109C282.393 6.71224 282.475 6.79427 282.512 6.86719C282.566 6.92188 282.594 6.99479 282.594 7.08594C282.594 7.17708 282.484 7.43229 282.266 7.85156C282.083 8.2526 281.792 8.70833 281.391 9.21875C281.062 9.65625 280.616 10.1302 280.051 10.6406C279.504 11.1328 279.094 11.388 278.82 11.4062C278.766 11.4062 278.711 11.3971 278.656 11.3789C278.62 11.3424 278.602 11.2969 278.602 11.2422C278.602 11.224 278.747 11.0508 279.039 10.7227L279.805 9.82031C280.352 9.09115 280.908 8.16146 281.473 7.03125C281.527 6.88542 281.5 6.80339 281.391 6.78516C281.281 6.80339 281.053 6.83073 280.707 6.86719C280.361 6.88542 280.051 6.9401 279.777 7.03125C279.759 7.03125 279.695 7.05859 279.586 7.11328C279.477 7.14974 279.385 7.16797 279.312 7.16797C279.203 7.16797 279.112 7.13151 279.039 7.05859L278.82 6.86719C278.656 6.73958 278.574 6.62109 278.574 6.51172C278.574 6.47526 278.592 6.42057 278.629 6.34766L278.766 6.12891C278.839 6.03776 278.957 5.89193 279.121 5.69141C279.285 5.49089 279.467 5.21745 279.668 4.87109C279.704 4.79818 279.777 4.63411 279.887 4.37891C280.014 4.1237 280.078 3.96875 280.078 3.91406V3.80469C280.078 3.69531 280.096 3.6224 280.133 3.58594C280.169 3.54948 280.251 3.54948 280.379 3.58594C280.507 3.6224 280.661 3.72266 280.844 3.88672L281.145 4.1875C281.199 4.24219 281.227 4.30599 281.227 4.37891C281.227 4.5612 280.971 4.88932 280.461 5.36328C280.37 5.45443 280.26 5.59115 280.133 5.77344C280.005 5.95573 279.941 6.07422 279.941 6.12891C279.941 6.23828 280.023 6.27474 280.188 6.23828L280.816 6.15625C282.257 5.9375 283.341 5.8099 284.07 5.77344L284.809 5.66406L285.055 5.60938L285.191 5.58203C285.337 5.58203 285.438 5.60026 285.492 5.63672C285.547 5.67318 285.602 5.73698 285.656 5.82812C285.711 5.90104 285.766 5.96484 285.82 6.01953C285.948 6.16536 286.039 6.29297 286.094 6.40234L286.148 6.64844L286.094 6.75781L286.039 6.92188C286.003 7.01302 285.975 7.10417 285.957 7.19531C285.939 7.26823 285.911 7.35026 285.875 7.44141C285.492 8.91797 285.046 10.0664 284.535 10.8867C284.371 11.1784 284.089 11.4701 283.688 11.7617C283.305 12.0534 282.967 12.1992 282.676 12.1992ZM285.164 20.8945C284.891 20.8945 284.626 20.694 284.371 20.293C284.043 19.7826 283.724 19.3633 283.414 19.0352L282.703 18.2969C282.32 18.7344 281.983 19.0807 281.691 19.3359C281.418 19.5911 281.072 19.8372 280.652 20.0742C279.868 20.5299 279.212 20.7578 278.684 20.7578C278.556 20.7578 278.492 20.7122 278.492 20.6211C278.492 20.5664 278.665 20.4479 279.012 20.2656C279.358 20.0833 279.686 19.8646 279.996 19.6094C280.78 18.9531 281.427 18.2786 281.938 17.5859C281.828 17.4766 281.281 17.0026 280.297 16.1641C280.169 16.0729 279.978 15.918 279.723 15.6992C279.668 15.6628 279.559 15.5807 279.395 15.4531C279.23 15.3255 279.148 15.2344 279.148 15.1797C279.148 15.0885 279.194 15.043 279.285 15.043C279.559 15.043 279.996 15.2344 280.598 15.6172C281.199 15.9818 281.828 16.4193 282.484 16.9297C282.74 16.6198 282.94 16.3281 283.086 16.0547C283.232 15.7812 283.396 15.444 283.578 15.043C283.669 14.8424 283.724 14.6693 283.742 14.5234C283.76 14.3594 283.77 14.2591 283.77 14.2227C283.77 14.0221 283.824 13.9219 283.934 13.9219C284.061 13.9219 284.234 14.0221 284.453 14.2227C284.836 14.5872 285.027 14.8333 285.027 14.9609C285.027 15.0339 284.982 15.1159 284.891 15.207C284.672 15.4258 284.471 15.7174 284.289 16.082C284.18 16.3008 283.979 16.6107 283.688 17.0117C283.596 17.1211 283.523 17.2214 283.469 17.3125C283.414 17.4036 283.359 17.4857 283.305 17.5586C283.724 17.8685 284.344 18.3971 285.164 19.1445C285.365 19.3268 285.492 19.5 285.547 19.6641C285.62 19.8099 285.656 20.0104 285.656 20.2656C285.656 20.4479 285.611 20.6029 285.52 20.7305C285.428 20.8398 285.31 20.8945 285.164 20.8945ZM290.742 9.08203C290.961 9.08203 291.07 9.18229 291.07 9.38281C291.07 9.49219 290.97 9.64714 290.77 9.84766C290.223 10.5221 289.138 11.8073 287.516 13.7031C287.388 13.8672 287.27 13.9492 287.16 13.9492C287.069 13.9492 286.868 13.8125 286.559 13.5391C286.303 13.3203 286.176 13.138 286.176 12.9922C286.176 12.8281 286.312 12.6732 286.586 12.5273C287.005 12.2904 287.634 11.8164 288.473 11.1055C289.311 10.3581 289.931 9.76562 290.332 9.32812C290.496 9.16406 290.633 9.08203 290.742 9.08203ZM267.527 6.07422L267.555 4.59766L266.352 4.70703C266.206 4.74349 265.951 4.76172 265.586 4.76172H264.766C264.547 4.74349 264.328 4.70703 264.109 4.65234C263.909 4.57943 263.754 4.4974 263.645 4.40625L263.508 4.16016C263.581 4.05078 263.69 3.97786 263.836 3.94141L264.629 3.88672C265.194 3.85026 265.832 3.77734 266.543 3.66797L267.555 3.50391L267.527 3.03906C267.509 2.7474 267.482 2.49219 267.445 2.27344C267.409 2.07292 267.363 1.89062 267.309 1.72656C267.254 1.5625 267.172 1.40755 267.062 1.26172L266.926 0.933594L266.953 0.714844C267.026 0.605469 267.145 0.550781 267.309 0.550781C267.454 0.550781 267.6 0.56901 267.746 0.605469C267.928 0.641927 268.147 0.714844 268.402 0.824219C268.639 0.915365 268.849 1.02474 269.031 1.15234C269.214 1.26172 269.323 1.39844 269.359 1.5625C269.378 1.6901 269.341 1.84505 269.25 2.02734L269.031 2.60156L268.977 3.3125C269.305 3.27604 269.56 3.23958 269.742 3.20312L270.535 3.03906C271.1 2.94792 271.465 2.875 271.629 2.82031L271.93 2.73828C272.112 2.73828 272.34 2.77474 272.613 2.84766C272.868 2.9388 273.078 3.03906 273.242 3.14844L273.352 3.61328C273.133 3.79557 272.878 3.90495 272.586 3.94141C272.312 3.99609 271.921 4.05078 271.41 4.10547L269.414 4.32422L268.922 4.37891L268.867 5.82812L269.086 5.80078L269.469 5.69141L270.125 5.58203C270.417 5.54557 270.681 5.52734 270.918 5.52734L271.355 5.60938C271.592 5.66406 271.766 5.70052 271.875 5.71875C271.984 5.75521 272.121 5.81901 272.285 5.91016L272.531 6.10156C272.513 6.22917 272.44 6.3112 272.312 6.34766C272.185 6.38411 271.957 6.42057 271.629 6.45703L271.164 6.56641L266.844 7.08594C266.479 7.14062 266.206 7.16797 266.023 7.16797C265.823 7.16797 265.65 7.14974 265.504 7.11328C265.376 7.07682 265.24 7.03125 265.094 6.97656C264.948 6.92188 264.811 6.84896 264.684 6.75781L264.52 6.53906C264.538 6.41146 264.629 6.32943 264.793 6.29297H265.23C265.704 6.25651 266.014 6.22917 266.16 6.21094L267.008 6.10156L267.527 6.07422ZM266.734 20.1836C266.99 20.3659 267.208 20.5391 267.391 20.7031C267.555 20.849 267.582 21.0586 267.473 21.332L266.898 21.6328C266.789 21.7057 266.57 21.9154 266.242 22.2617C265.914 22.5898 265.458 22.9635 264.875 23.3828C264.292 23.8021 263.9 24.0664 263.699 24.1758C263.48 24.2852 263.289 24.3763 263.125 24.4492L262.195 24.6133L262.605 24.2031L263.125 23.7383L264.273 22.6445C264.456 22.4622 264.738 22.1341 265.121 21.6602C265.504 21.1862 265.704 20.8763 265.723 20.7305L265.805 20.2656L265.039 20.457L264.574 20.4844C264.447 20.3203 264.346 20.1016 264.273 19.8281L264.164 19.3359V18.8711L264.273 18.4883C264.346 18.2331 264.392 17.9414 264.41 17.6133L264.547 15.6719C264.547 15.4896 264.529 15.2161 264.492 14.8516C264.474 14.5052 264.447 14.2682 264.41 14.1406C264.374 14.013 264.31 13.8763 264.219 13.7305L264.109 13.4297C264.128 13.3203 264.31 13.2565 264.656 13.2383L265.176 13.3477L265.613 13.5117L268.047 13.2109C268.32 13.1927 268.594 13.1471 268.867 13.0742L269.578 12.9375C270.052 12.8464 270.408 12.7643 270.645 12.6914L271.055 12.582C271.237 12.5638 271.401 12.582 271.547 12.6367C271.711 12.6732 271.957 12.7734 272.285 12.9375C272.632 13.1016 272.878 13.2474 273.023 13.375L273.133 13.8945C273.023 14.1315 272.941 14.3229 272.887 14.4688L272.805 14.7969C272.786 14.9609 272.777 15.2799 272.777 15.7539L272.75 18.2148V19.1719C272.714 19.4453 272.65 19.6732 272.559 19.8555C272.467 20.0742 272.349 20.2565 272.203 20.4023L271.793 20.6211C271.629 20.5482 271.501 20.4297 271.41 20.2656L271.219 19.8555L266.734 20.1836ZM265.586 15.5898L268.73 15.1797C269.441 15.0885 269.924 15.0156 270.18 14.9609C270.453 14.9062 270.763 14.9062 271.109 14.9609L271.191 14.1133C271.155 13.931 271.018 13.776 270.781 13.6484C270.562 13.6302 270.353 13.6302 270.152 13.6484C269.952 13.6667 269.742 13.694 269.523 13.7305L268.484 13.8945L267.062 14.0859L266.324 14.1953L265.695 14.168L265.586 15.5898ZM265.422 17.5586L269.305 17.0664L270.672 16.9023L271.191 17.0117L271.273 15.6445L267.199 16.1641C266.47 16.2552 265.969 16.3008 265.695 16.3008L265.422 17.5586ZM265.312 19.4453C266.88 19.3177 267.819 19.2357 268.129 19.1992L271.246 18.8984L271.328 17.6953L265.395 18.2148L265.312 19.4453ZM259.188 6.73047C259.023 6.62109 258.896 6.51172 258.805 6.40234C258.695 6.3112 258.595 6.19271 258.504 6.04688L258.148 5.41797L257.766 4.54297C257.62 4.2513 257.474 3.92318 257.328 3.55859L257.137 3.09375L257.301 2.79297H257.547L257.984 2.95703C258.13 3.01172 258.331 3.11198 258.586 3.25781C258.841 3.40365 259.033 3.52214 259.16 3.61328C259.306 3.72266 259.461 3.85026 259.625 3.99609C259.771 4.14193 259.898 4.29688 260.008 4.46094C260.117 4.60677 260.181 4.78906 260.199 5.00781L260.227 5.25391L260.199 5.55469C260.181 5.71875 260.145 5.86458 260.09 5.99219C260.035 6.11979 259.944 6.28385 259.816 6.48438L260.883 6.40234C261.193 6.32943 261.43 6.29297 261.594 6.29297C261.74 6.29297 261.949 6.32943 262.223 6.40234C262.478 6.47526 262.697 6.56641 262.879 6.67578C263.043 6.78516 263.043 6.99479 262.879 7.30469C262.587 7.35938 262.378 7.39583 262.25 7.41406C262.104 7.43229 261.785 7.47786 261.293 7.55078C260.801 7.60547 260.391 7.66016 260.062 7.71484L258.148 8.09766C257.82 8.17057 257.456 8.26172 257.055 8.37109C256.654 8.46224 256.298 8.55339 255.988 8.64453C255.678 8.71745 255.414 8.80859 255.195 8.91797L254.703 9.05469C254.576 9.05469 254.439 9.03646 254.293 9L253.801 8.86328L253.363 8.67188C253.199 8.58073 253.035 8.48047 252.871 8.37109L252.625 8.125L252.652 7.85156L253.035 7.74219L253.746 7.66016L256.152 7.27734L259.188 6.73047ZM256.234 10.832L256.645 10.75C256.954 10.6953 257.237 10.6406 257.492 10.5859C257.747 10.5312 258.03 10.4583 258.34 10.3672C258.65 10.276 258.914 10.1849 259.133 10.0938L259.543 9.95703H259.953C260.135 9.95703 260.336 9.99349 260.555 10.0664C260.792 10.1029 260.974 10.1576 261.102 10.2305L261.211 10.5586C261.138 10.668 261.029 10.7409 260.883 10.7773C260.737 10.832 260.454 10.9049 260.035 10.9961L257.848 11.5156L257.492 11.5977L257.219 11.6523H256.781L256.289 11.5156C256.034 11.4245 255.879 11.2331 255.824 10.9414L256.234 10.832ZM256.18 13.5117L256.645 13.457L257.355 13.293C257.775 13.2018 258.066 13.1289 258.23 13.0742L259.051 12.8555L259.434 12.7461C259.616 12.7461 259.826 12.7643 260.062 12.8008C260.281 12.819 260.454 12.8555 260.582 12.9102C260.71 12.9466 260.846 13.0013 260.992 13.0742L261.184 13.457C261.092 13.5299 260.974 13.5846 260.828 13.6211L259.516 13.8945L258.148 14.168L257.273 14.3594H256.836L256.59 14.332C256.462 14.2956 256.307 14.2409 256.125 14.168C255.961 14.1133 255.833 13.9219 255.742 13.5938C255.961 13.5573 256.107 13.5299 256.18 13.5117ZM256.152 16.6289L257.656 16.3555C257.766 16.319 258.003 16.2552 258.367 16.1641C258.732 16.0547 258.978 15.9727 259.105 15.918C259.251 15.8815 259.424 15.8086 259.625 15.6992L260.035 15.5352C260.181 15.5352 260.336 15.5625 260.5 15.6172C260.682 15.6719 260.883 15.7539 261.102 15.8633C261.32 15.9727 261.521 16.1003 261.703 16.2461L261.977 16.5195C261.958 16.6289 261.885 16.7565 261.758 16.9023C261.648 17.0117 261.557 17.1302 261.484 17.2578C261.411 17.3854 261.32 17.5586 261.211 17.7773C261.138 17.9961 261.074 18.1784 261.02 18.3242L260.473 19.9102L260.773 20.1289L260.691 20.6211C260.509 20.6211 260.309 20.6302 260.09 20.6484L259.57 20.7031C259.461 20.7214 259.197 20.7578 258.777 20.8125L257.109 21.168C257.018 21.4049 256.909 21.5417 256.781 21.5781C256.654 21.5781 256.526 21.5052 256.398 21.3594C256.326 21.2682 256.262 21.1406 256.207 20.9766C256.152 20.8125 256.107 20.6484 256.07 20.4844L255.742 18.625L255.551 17.9141C255.496 17.7135 255.423 17.5495 255.332 17.4219C255.259 17.2943 255.168 17.1758 255.059 17.0664L254.785 16.7383C254.822 16.5924 254.931 16.5195 255.113 16.5195L255.633 16.5742L256.152 16.6289ZM257.164 20.1289L259.379 19.6914L259.762 17.3945L259.816 17.0938L259.652 16.8203C259.47 16.8021 259.251 16.8203 258.996 16.875L256.809 17.2852L257.164 20.1289ZM272.23 11.4609L264.465 12.2539L264.219 12.3359C264.109 12.3177 263.991 12.2083 263.863 12.0078L263.098 9.32812C262.988 9.09115 262.87 8.90885 262.742 8.78125L262.578 8.53516L262.742 8.26172C262.906 8.24349 263.07 8.26172 263.234 8.31641L263.617 8.39844L264.055 8.50781L268.594 7.98828L270.18 7.82422C270.763 7.78776 271.118 7.7513 271.246 7.71484L271.766 7.66016C272.203 7.58724 272.549 7.53255 272.805 7.49609L273.188 7.41406C273.406 7.39583 273.634 7.44141 273.871 7.55078C274.108 7.6237 274.354 7.7513 274.609 7.93359C274.883 8.07943 275.083 8.22526 275.211 8.37109L275.375 8.64453C275.375 8.80859 275.302 8.95443 275.156 9.08203L274.746 9.49219L274.5 9.82031L274.227 10.1758L273.68 11.1602C273.497 11.4701 273.352 11.6797 273.242 11.7891C273.115 11.8984 272.932 11.9714 272.695 12.0078L272.422 11.9805L272.203 11.7344L272.23 11.4609ZM269.688 10.7773C270.234 10.6862 270.672 10.6042 271 10.5312C271.328 10.4766 271.565 10.4492 271.711 10.4492C271.875 10.4492 272.021 10.4674 272.148 10.5039L272.531 10.6406L272.859 9.76562L272.914 9.32812L273.023 8.86328L272.969 8.58984C272.878 8.48047 272.723 8.42578 272.504 8.42578L271.93 8.45312L271.383 8.48047L270.289 8.58984L270.59 9.21875L270.316 9.57422C270.225 9.68359 270.143 9.82943 270.07 10.0117L269.688 10.7773ZM267.062 8.86328L267.363 9.02734L267.473 9.49219C267.454 9.76562 267.445 9.99349 267.445 10.1758L267.418 11.0508L269.031 10.832L269.223 10.0664L269.305 9.65625L269.387 9L269.305 8.64453L267.062 8.86328ZM266.762 11.1602L266.543 10.2031L266.461 9.76562L266.379 9.38281L266.105 8.97266L264.438 9.19141L264.656 11.3789L266.762 11.1602ZM269.387 20.7305L269.469 20.5664C269.615 20.5664 269.833 20.6211 270.125 20.7305C270.417 20.8398 270.772 20.9948 271.191 21.1953C271.611 21.3776 271.966 21.569 272.258 21.7695C272.568 21.9518 272.841 22.1706 273.078 22.4258C273.333 22.681 273.516 22.9362 273.625 23.1914C273.716 23.4466 273.762 23.7201 273.762 24.0117C273.743 24.194 273.689 24.3763 273.598 24.5586C273.507 24.7409 273.361 24.832 273.16 24.832C272.996 24.832 272.841 24.7773 272.695 24.668C272.549 24.5586 272.422 24.4492 272.312 24.3398L271.82 23.7383L270.809 22.4258L270.07 21.4961L269.387 20.7305Z" fill="#333333"/>
</svg>
