<svg width="163" height="27" viewBox="0 0 163 27" fill="none" xmlns="http://www.w3.org/2000/svg">
<path d="M24.2305 9.80859C23.957 9.80859 23.7109 9.69922 23.4922 9.48047C23.2188 9.27995 23.082 9.125 23.082 9.01562C23.082 8.88802 23.2917 8.82422 23.7109 8.82422L25.0508 8.74219L26.418 8.60547C26.4544 8.3138 26.4727 7.75781 26.4727 6.9375C26.5273 6.9375 26.2448 6.97396 25.625 7.04688L25.1055 7.12891C24.9414 7.20182 24.7956 7.23828 24.668 7.23828C24.5586 7.23828 24.4674 7.20182 24.3945 7.12891C24.1029 6.8737 23.957 6.65495 23.957 6.47266V5.1875C23.957 5.0599 23.9115 4.56771 23.8203 3.71094L23.793 3.41016C23.793 3.26432 23.8203 3.17318 23.875 3.13672C23.9297 3.10026 24.0299 3.10026 24.1758 3.13672C24.7227 3.28255 24.987 3.44661 24.9688 3.62891L24.9414 3.82031C24.9049 4.07552 24.8867 4.40365 24.8867 4.80469C24.8867 5.27865 24.8958 5.57943 24.9141 5.70703C24.9505 6.07161 24.9688 6.24479 24.9688 6.22656C24.987 6.29948 25.0508 6.33594 25.1602 6.33594C25.2695 6.33594 25.4883 6.30859 25.8164 6.25391C26.1628 6.18099 26.3906 6.13542 26.5 6.11719V3.71094C26.5 3.03646 26.4727 2.58073 26.418 2.34375C26.3815 2.16146 26.3633 2.0612 26.3633 2.04297C26.3633 1.91536 26.4089 1.85156 26.5 1.85156C26.5365 1.85156 26.6641 1.88802 26.8828 1.96094C27.2292 2.125 27.457 2.27083 27.5664 2.39844C27.694 2.52604 27.7396 2.66276 27.7031 2.80859C27.6484 2.99089 27.612 3.35547 27.5938 3.90234C27.5573 4.33984 27.5208 5.05078 27.4844 6.03516L28.4141 6.00781C28.5964 6.00781 28.7331 5.9987 28.8242 5.98047C28.9154 5.96224 28.9609 5.92578 28.9609 5.87109C29.0885 5.17839 29.1706 4.57682 29.207 4.06641L29.2344 3.73828C29.2526 3.70182 29.2526 3.63802 29.2344 3.54688C29.2344 3.45573 29.2344 3.39193 29.2344 3.35547L29.207 3.16406C29.207 3 29.2708 2.91797 29.3984 2.91797C29.4714 2.91797 29.6263 2.99089 29.8633 3.13672C29.918 3.17318 29.9909 3.22786 30.082 3.30078C30.1914 3.35547 30.2643 3.41927 30.3008 3.49219C30.3372 3.54688 30.3555 3.61979 30.3555 3.71094C30.3555 3.82031 30.3464 3.91146 30.3281 3.98438L30.0273 5.51562L29.9453 6.14453C29.8724 6.5638 29.6536 6.79167 29.2891 6.82812C29.1797 6.8099 29.0885 6.78255 29.0156 6.74609C28.9609 6.70964 28.9154 6.69141 28.8789 6.69141C28.6602 6.69141 28.2044 6.73698 27.5117 6.82812L27.4844 8.52344L27.9492 8.49609L28.3867 8.46875C29.0612 8.46875 29.5625 8.43229 29.8906 8.35938C30.0365 8.35938 30.1641 8.34115 30.2734 8.30469L30.3555 8.27734C30.5378 8.27734 30.7292 8.40495 30.9297 8.66016C31.1667 8.89714 31.2852 9.07031 31.2852 9.17969C31.2852 9.34375 31.0299 9.39844 30.5195 9.34375L29.4805 9.28906H28.1133C27.8398 9.28906 27.3385 9.32552 26.6094 9.39844C26.2266 9.39844 25.8802 9.41667 25.5703 9.45312C25.2604 9.48958 24.9688 9.55339 24.6953 9.64453L24.2305 9.80859ZM30.1641 16.9727C29.8906 16.9727 29.6263 16.7721 29.3711 16.3711C29.043 15.8607 28.724 15.4414 28.4141 15.1133L27.7031 14.375C27.3203 14.8125 26.9831 15.1589 26.6914 15.4141C26.418 15.6693 26.0716 15.9154 25.6523 16.1523C24.8685 16.6081 24.2122 16.8359 23.6836 16.8359C23.556 16.8359 23.4922 16.7904 23.4922 16.6992C23.4922 16.6445 23.6654 16.526 24.0117 16.3438C24.3581 16.1615 24.6862 15.9427 24.9961 15.6875C25.7799 15.0312 26.4271 14.3568 26.9375 13.6641C26.8281 13.5547 26.2812 13.0807 25.2969 12.2422C25.1693 12.151 24.9779 11.9961 24.7227 11.7773C24.668 11.7409 24.5586 11.6589 24.3945 11.5312C24.2305 11.4036 24.1484 11.3125 24.1484 11.2578C24.1484 11.1667 24.194 11.1211 24.2852 11.1211C24.5586 11.1211 24.9961 11.3125 25.5977 11.6953C26.1992 12.0599 26.8281 12.4974 27.4844 13.0078C27.7396 12.6979 27.9401 12.4062 28.0859 12.1328C28.2318 11.8594 28.3958 11.5221 28.5781 11.1211C28.6693 10.9206 28.724 10.7474 28.7422 10.6016C28.7604 10.4375 28.7695 10.3372 28.7695 10.3008C28.7695 10.1003 28.8242 10 28.9336 10C29.0612 10 29.2344 10.1003 29.4531 10.3008C29.8359 10.6654 30.0273 10.9115 30.0273 11.0391C30.0273 11.112 29.9818 11.194 29.8906 11.2852C29.6719 11.5039 29.4714 11.7956 29.2891 12.1602C29.1797 12.3789 28.9792 12.6888 28.6875 13.0898C28.5964 13.1992 28.5234 13.2995 28.4688 13.3906C28.4141 13.4818 28.3594 13.5638 28.3047 13.6367C28.724 13.9466 29.3438 14.4753 30.1641 15.2227C30.3646 15.4049 30.4922 15.5781 30.5469 15.7422C30.6198 15.888 30.6562 16.0885 30.6562 16.3438C30.6562 16.526 30.6107 16.681 30.5195 16.8086C30.4284 16.918 30.3099 16.9727 30.1641 16.9727ZM24.1211 25.1484C23.8477 25.1484 23.638 25.0755 23.4922 24.9297C23.3281 24.7656 23.2461 24.6198 23.2461 24.4922C23.2461 24.3646 23.319 24.2279 23.4648 24.082C23.4831 24.0638 23.5833 23.918 23.7656 23.6445C24.1667 23.0065 24.6224 22.1953 25.1328 21.2109C25.6615 20.2083 25.9896 19.5247 26.1172 19.1602C26.2266 18.8138 26.3268 18.513 26.418 18.2578C26.5273 18.0026 26.6185 17.875 26.6914 17.875C26.819 17.875 26.9284 17.9206 27.0195 18.0117C27.1107 18.0846 27.2018 18.194 27.293 18.3398C27.4023 18.4674 27.4844 18.5586 27.5391 18.6133C27.6667 18.7591 27.7305 18.8958 27.7305 19.0234C27.7305 19.1146 27.694 19.2057 27.6211 19.2969C27.5482 19.388 27.5026 19.4518 27.4844 19.4883L26.2812 21.5117C25.9714 22.0768 25.5612 22.7786 25.0508 23.6172C24.9779 23.7083 24.9414 23.7995 24.9414 23.8906C24.9414 23.9635 25.0234 24 25.1875 24C25.5339 24 26.181 23.9635 27.1289 23.8906C28.0768 23.7995 28.7148 23.7266 29.043 23.6719C29.5169 23.6172 29.8451 23.5625 30.0273 23.5078C30.2279 23.4531 30.5195 23.5898 30.9023 23.918C31.3581 24.3008 31.4583 24.5469 31.2031 24.6562C31.0573 24.7292 30.7747 24.7656 30.3555 24.7656H29.2617C29.0247 24.7656 28.651 24.7839 28.1406 24.8203C27.8307 24.8203 27.4844 24.8294 27.1016 24.8477C26.7188 24.8659 26.3997 24.8841 26.1445 24.9023C25.8529 24.9206 25.2878 24.9753 24.4492 25.0664L24.1211 25.1484ZM8.86328 15.1133L8.75391 19.4336C8.75391 19.9076 8.72656 20.5091 8.67188 21.2383C8.61719 22.0039 8.58073 22.4961 8.5625 22.7148C8.54427 22.9336 8.48958 23.2799 8.39844 23.7539C8.32552 24.1914 8.26172 24.5286 8.20703 24.7656C8.17057 25.0026 8.08854 25.2487 7.96094 25.5039L7.66016 25.832C7.53255 25.832 7.44141 25.7227 7.38672 25.5039C7.33203 25.2669 7.29557 25.0117 7.27734 24.7383L7.22266 23.7266L7.19531 22.4961L7.16797 20.8008L7.25 15.2227L3.25781 15.5508C3.13021 15.8424 3.02083 16.0339 2.92969 16.125L2.46484 16.207C2.22786 15.9883 2.07292 15.7695 2 15.5508C1.90885 15.332 1.83594 14.9674 1.78125 14.457L1.31641 10.7656C1.27995 10.5286 1.20703 10.2643 1.09766 9.97266C0.988281 9.69922 0.897135 9.4987 0.824219 9.37109L0.359375 8.87891L0.222656 8.52344C0.240885 8.35938 0.36849 8.24089 0.605469 8.16797C0.733073 8.16797 0.970052 8.20443 1.31641 8.27734L1.86328 8.44141L2.51953 8.6875L7.35938 8.08594L7.44141 5.54297L7.38672 4.53125C7.35026 3.85677 7.3138 3.44661 7.27734 3.30078C7.24089 3.13672 7.17708 2.9362 7.08594 2.69922C6.99479 2.48047 6.93099 2.30729 6.89453 2.17969L6.92188 1.93359C7.01302 1.82422 7.16797 1.76953 7.38672 1.76953C7.51432 1.76953 7.6875 1.79688 7.90625 1.85156C8.125 1.90625 8.31641 1.97005 8.48047 2.04297L9.05469 2.31641C9.27344 2.44401 9.42839 2.5625 9.51953 2.67188L9.62891 2.94531C9.62891 3.07292 9.58333 3.22786 9.49219 3.41016C9.40104 3.59245 9.33724 3.79297 9.30078 4.01172C9.22786 4.23047 9.18229 4.4401 9.16406 4.64062C9.14583 4.84115 9.1276 5.08724 9.10938 5.37891C9.09115 5.67057 9.07292 6.1901 9.05469 6.9375L9.02734 7.94922L11.0508 7.73047C12.0534 7.62109 12.6458 7.54818 12.8281 7.51172C13.0286 7.49349 13.2565 7.45703 13.5117 7.40234C13.8034 7.36589 14.1042 7.30208 14.4141 7.21094L15.0156 7.07422C15.2708 7.07422 15.5169 7.11068 15.7539 7.18359C16.0456 7.25651 16.2917 7.36589 16.4922 7.51172C16.6927 7.65755 16.9023 7.83073 17.1211 8.03125C17.3581 8.21354 17.5586 8.38672 17.7227 8.55078C17.8503 8.67839 17.9141 8.8151 17.9141 8.96094C17.8958 9.07031 17.832 9.17969 17.7227 9.28906L17.2305 9.69922C17.0846 9.82682 16.9115 10.0547 16.7109 10.3828C16.4922 10.7292 16.3372 11.0117 16.2461 11.2305L15.125 13.9648L15.5352 14.4023C15.5352 14.5299 15.4622 14.6211 15.3164 14.6758L14.5508 14.7305L8.86328 15.1133ZM3.25781 14.3203L7.25 14.0195L7.33203 8.96094C6.73047 9.05208 6.05599 9.16146 5.30859 9.28906C4.5612 9.41667 3.94141 9.53516 3.44922 9.64453L2.73828 9.86328L3.25781 14.3203ZM8.94531 13.8555C9.69271 13.7826 10.2487 13.7188 10.6133 13.6641L12.6367 13.4453L13.457 13.3633L14.4961 9.86328C14.5872 9.57161 14.6237 9.30729 14.6055 9.07031C14.6055 8.83333 14.5599 8.66927 14.4688 8.57812C14.3776 8.48698 14.168 8.44141 13.8398 8.44141C13.2747 8.45964 12.6914 8.48698 12.0898 8.52344C11.4701 8.54167 11.0599 8.56901 10.8594 8.60547L9.02734 8.76953L8.94531 13.8555Z" fill="#333333"/>
<path d="M65.2734 9.23438C65.2552 9.23438 65.1914 9.2526 65.082 9.28906C64.9909 9.30729 64.9453 9.27995 64.9453 9.20703C64.9453 9.1888 64.9818 9.15234 65.0547 9.09766C65.1276 9.02474 65.1914 8.96094 65.2461 8.90625C65.3008 8.85156 65.3828 8.77865 65.4922 8.6875C65.6016 8.57812 65.6836 8.46875 65.7383 8.35938C66.0117 7.90365 66.2031 7.44792 66.3125 6.99219L66.4766 6.03516C66.6042 5.32422 66.6589 4.49479 66.6406 3.54688C66.6406 3.32812 66.6133 3.10026 66.5586 2.86328C66.5404 2.75391 66.4492 2.59896 66.2852 2.39844V2.37109C66.2852 2.33464 66.3307 2.31641 66.4219 2.31641C66.5495 2.31641 66.6589 2.32552 66.75 2.34375C66.987 2.39844 67.2513 2.42578 67.543 2.42578C67.8529 2.40755 68.0443 2.39844 68.1172 2.39844L69.9492 2.26172C70.3138 2.22526 70.5508 2.20703 70.6602 2.20703C71.444 2.09766 71.7995 2.05208 71.7266 2.07031C72.1458 1.9974 72.401 1.96094 72.4922 1.96094C72.7839 1.97917 73.0755 2.20703 73.3672 2.64453L73.4219 2.78125C73.4219 2.89062 73.3398 2.95443 73.1758 2.97266C73.0117 2.99089 72.9115 3 72.875 3C72.3099 3 71.8906 3.00911 71.6172 3.02734C70.9245 3.02734 70.4141 3.03646 70.0859 3.05469L69.3203 3.10938L67.7617 3.27344C67.6523 4.80469 67.5521 5.80729 67.4609 6.28125C67.3151 7.13802 67.0326 7.83073 66.6133 8.35938C66.3034 8.76042 65.8568 9.05208 65.2734 9.23438ZM72.1641 16.9727C71.8906 16.9727 71.6263 16.7721 71.3711 16.3711C71.043 15.8607 70.724 15.4414 70.4141 15.1133L69.7031 14.375C69.3203 14.8125 68.9831 15.1589 68.6914 15.4141C68.418 15.6693 68.0716 15.9154 67.6523 16.1523C66.8685 16.6081 66.2122 16.8359 65.6836 16.8359C65.556 16.8359 65.4922 16.7904 65.4922 16.6992C65.4922 16.6445 65.6654 16.526 66.0117 16.3438C66.3581 16.1615 66.6862 15.9427 66.9961 15.6875C67.7799 15.0312 68.4271 14.3568 68.9375 13.6641C68.8281 13.5547 68.2812 13.0807 67.2969 12.2422C67.1693 12.151 66.9779 11.9961 66.7227 11.7773C66.668 11.7409 66.5586 11.6589 66.3945 11.5312C66.2305 11.4036 66.1484 11.3125 66.1484 11.2578C66.1484 11.1667 66.194 11.1211 66.2852 11.1211C66.5586 11.1211 66.9961 11.3125 67.5977 11.6953C68.1992 12.0599 68.8281 12.4974 69.4844 13.0078C69.7396 12.6979 69.9401 12.4062 70.0859 12.1328C70.2318 11.8594 70.3958 11.5221 70.5781 11.1211C70.6693 10.9206 70.724 10.7474 70.7422 10.6016C70.7604 10.4375 70.7695 10.3372 70.7695 10.3008C70.7695 10.1003 70.8242 10 70.9336 10C71.0612 10 71.2344 10.1003 71.4531 10.3008C71.8359 10.6654 72.0273 10.9115 72.0273 11.0391C72.0273 11.112 71.9818 11.194 71.8906 11.2852C71.6719 11.5039 71.4714 11.7956 71.2891 12.1602C71.1797 12.3789 70.9792 12.6888 70.6875 13.0898C70.5964 13.1992 70.5234 13.2995 70.4688 13.3906C70.4141 13.4818 70.3594 13.5638 70.3047 13.6367C70.724 13.9466 71.3438 14.4753 72.1641 15.2227C72.3646 15.4049 72.4922 15.5781 72.5469 15.7422C72.6198 15.888 72.6562 16.0885 72.6562 16.3438C72.6562 16.526 72.6107 16.681 72.5195 16.8086C72.4284 16.918 72.3099 16.9727 72.1641 16.9727ZM69.4023 25.668C69.2747 25.668 69.1836 25.6315 69.1289 25.5586C69.0742 25.4857 69.0378 25.4401 69.0195 25.4219C68.8372 25.1667 68.7552 24.9206 68.7734 24.6836C68.7917 24.5378 68.819 24.1458 68.8555 23.5078L68.8828 22.1953C68.8646 21.9948 68.8464 21.8763 68.8281 21.8398C68.8099 21.7852 68.7279 21.6758 68.582 21.5117C68.2904 21.1471 67.9531 20.7734 67.5703 20.3906C67.1328 19.9531 66.8503 19.6615 66.7227 19.5156C66.7227 19.5156 66.4492 19.2422 65.9023 18.6953C65.8477 18.6406 65.8203 18.5859 65.8203 18.5312C65.8203 18.4401 65.875 18.3672 65.9844 18.3125C66.112 18.2396 66.2396 18.2122 66.3672 18.2305C66.7318 18.2669 66.9688 18.3125 67.0781 18.3672C67.2057 18.4036 67.3242 18.513 67.4336 18.6953C67.543 18.8776 67.6979 19.0964 67.8984 19.3516C68.1172 19.5885 68.2812 19.7708 68.3906 19.8984C68.8464 20.4453 69.1654 20.8099 69.3477 20.9922C69.6758 20.6094 70.0859 20.0625 70.5781 19.3516C70.9792 18.8411 71.2161 18.4219 71.2891 18.0938C71.362 17.8568 71.4714 17.7383 71.6172 17.7383C71.6901 17.7383 71.7995 17.7839 71.9453 17.875C72.4193 18.1667 72.6562 18.4036 72.6562 18.5859C72.6562 18.6953 72.5378 18.832 72.3008 18.9961C71.9727 19.2331 71.6992 19.4974 71.4805 19.7891L70.9336 20.4727C70.569 20.9102 70.2956 21.2565 70.1133 21.5117C70.0221 21.6758 69.9766 21.9128 69.9766 22.2227V23.8906V24.9844C69.9948 25.112 69.9219 25.2578 69.7578 25.4219C69.612 25.5859 69.4935 25.668 69.4023 25.668ZM77.7422 13.0898C77.9609 13.0898 78.0703 13.1901 78.0703 13.3906C78.0703 13.5 77.9701 13.6549 77.7695 13.8555C77.2227 14.5299 76.138 15.8151 74.5156 17.7109C74.388 17.875 74.2695 17.957 74.1602 17.957C74.069 17.957 73.8685 17.8203 73.5586 17.5469C73.3034 17.3281 73.1758 17.1458 73.1758 17C73.1758 16.8359 73.3125 16.681 73.5859 16.5352C74.0052 16.2982 74.6341 15.8242 75.4727 15.1133C76.3112 14.3659 76.931 13.7734 77.332 13.3359C77.4961 13.1719 77.6328 13.0898 77.7422 13.0898ZM53.4609 4.42188C53.5703 4.0026 53.6432 3.70182 53.6797 3.51953C53.6979 3.33724 53.7253 3.11849 53.7617 2.86328C53.7982 2.58984 53.8255 2.34375 53.8438 2.125C53.8438 1.86979 53.8255 1.66927 53.7891 1.52344L53.7344 1.16797C53.7526 1.02214 53.8529 0.921875 54.0352 0.867187C54.1992 0.848958 54.3542 0.867188 54.5 0.921875C54.7552 1.01302 54.974 1.11328 55.1562 1.22266C55.3385 1.33203 55.5117 1.45964 55.6758 1.60547L55.9492 1.96094C55.9492 2.08854 55.8854 2.26172 55.7578 2.48047C55.6667 2.6263 55.5846 2.75391 55.5117 2.86328L55.2656 3.41016L54.8828 4.23047C55.3021 4.17578 55.6393 4.12109 55.8945 4.06641C56.168 4.02995 56.487 3.95703 56.8516 3.84766C57.2161 3.75651 57.4622 3.70182 57.5898 3.68359C57.7357 3.68359 57.8815 3.71094 58.0273 3.76562C58.2096 3.80208 58.4102 3.88411 58.6289 4.01172C58.8477 4.12109 59.0117 4.22135 59.1211 4.3125L59.2852 4.50391L59.1758 4.77734C59.0299 4.85026 58.8841 4.90495 58.7383 4.94141L58.4102 4.96875L57.6172 5.02344C57.0885 5.07812 56.5326 5.11458 55.9492 5.13281C55.3841 5.16927 55.0286 5.19661 54.8828 5.21484L54.4727 5.26953L54.2812 5.67969L53.8984 6.36328L53.4609 7.12891L53.1602 7.51172L52.6406 7.62109L52.8047 7.01953L53.2148 5.48828L52.668 5.57031L51.793 5.67969L51.4375 5.57031C51.3099 5.4974 51.1823 5.43359 51.0547 5.37891C50.9271 5.30599 50.7904 5.16016 50.6445 4.94141C50.681 4.83203 50.7904 4.76823 50.9727 4.75L51.4102 4.72266C51.8477 4.6862 52.2305 4.64974 52.5586 4.61328L53.4609 4.42188ZM46.3242 5.10547C46.2148 4.70443 46.1419 4.44922 46.1055 4.33984C46.069 4.23047 45.9779 3.99349 45.832 3.62891C45.6862 3.26432 45.5586 3.00911 45.4492 2.86328C45.3398 2.71745 45.2669 2.51693 45.2305 2.26172C45.3034 2.11589 45.4583 2.03385 45.6953 2.01562C45.8958 2.01562 46.0781 2.02474 46.2422 2.04297C46.4609 2.09766 46.6523 2.15234 46.8164 2.20703L47.1445 2.31641L47.3633 2.45312L47.5547 2.64453C47.5729 2.75391 47.5638 2.9362 47.5273 3.19141L47.5 3.46484C47.5 3.64714 47.5091 3.79297 47.5273 3.90234L47.6367 4.94141L49.1133 4.66797L49.5508 4.69531C49.7695 4.71354 49.8971 4.80469 49.9336 4.96875C49.9336 5.09635 49.8607 5.17839 49.7148 5.21484L47.7188 5.76172L47.8281 7.48438L47.8008 7.86719C47.7643 8.03125 47.6094 8.11328 47.3359 8.11328C47.1536 7.93099 47.0352 7.71224 46.9805 7.45703L46.6523 6.08984L45.4492 6.41797C45.2305 6.47266 45.0026 6.54557 44.7656 6.63672C44.5286 6.74609 44.3555 6.82812 44.2461 6.88281L43.7812 6.96484C43.5443 6.85547 43.3711 6.74609 43.2617 6.63672C43.1523 6.52734 43.0156 6.3724 42.8516 6.17188C42.6875 5.97135 42.5599 5.74349 42.4688 5.48828L42.6602 5.29688C42.7695 5.27865 42.8971 5.28776 43.043 5.32422C43.1888 5.34245 43.3255 5.36068 43.4531 5.37891C43.5807 5.39714 43.7448 5.40625 43.9453 5.40625C44.1458 5.38802 44.4284 5.36068 44.793 5.32422L46.3242 5.10547ZM49.6602 9.80859C48.8945 9.84505 48.1745 9.89062 47.5 9.94531C46.8255 10 46.3971 10.0273 46.2148 10.0273C45.668 10.0273 45.2852 9.99089 45.0664 9.91797C44.8294 9.84505 44.6107 9.74479 44.4102 9.61719L44.1641 9.31641C44.2188 9.17057 44.3919 9.08854 44.6836 9.07031L45.8867 8.98828C46.3242 8.98828 47.0716 8.93359 48.1289 8.82422C49.2044 8.71484 49.9974 8.6237 50.5078 8.55078C51.0365 8.49609 51.7474 8.40495 52.6406 8.27734C53.5339 8.13151 54.2539 8.00391 54.8008 7.89453C55.3477 7.78516 55.7487 7.73047 56.0039 7.73047C56.2591 7.73047 56.5143 7.76693 56.7695 7.83984C57.0065 7.93099 57.2161 8.04036 57.3984 8.16797L57.6719 8.44141L57.5898 8.66016C57.4805 8.76953 57.2344 8.86068 56.8516 8.93359L56.168 9.04297L54.418 9.28906C53.6341 9.38021 53.0964 9.44401 52.8047 9.48047L51.3828 9.58984C51.5469 9.69922 51.6745 9.81771 51.7656 9.94531C51.8568 10.0547 51.8932 10.2005 51.875 10.3828L51.7109 10.7656C51.6198 10.9844 51.556 11.2669 51.5195 11.6133C51.4831 11.9596 51.4557 12.3789 51.4375 12.8711L51.3555 16.3984C52.3763 16.3438 53.1419 16.2891 53.6523 16.2344L56.1133 15.9609C57.0612 15.8698 57.7904 15.7695 58.3008 15.6602C58.8112 15.5508 59.1667 15.4961 59.3672 15.4961C59.5677 15.5143 59.7773 15.5599 59.9961 15.6328C60.1966 15.7057 60.4701 15.8333 60.8164 16.0156C61.181 16.1797 61.4362 16.3346 61.582 16.4805L61.8008 16.7266C61.8008 16.8906 61.7188 17.0091 61.5547 17.082C61.3906 17.1549 61.1628 17.1914 60.8711 17.1914L58.5469 17.2461H55.9766L53.1328 17.3281L51.3555 17.3828L51.3008 19.8711L53.2148 19.6523C53.8346 19.5977 54.3633 19.5247 54.8008 19.4336C55.2565 19.3607 55.5664 19.3242 55.7305 19.3242C55.9492 19.3242 56.1406 19.3607 56.3047 19.4336C56.4688 19.4883 56.7057 19.5977 57.0156 19.7617C57.3255 19.9076 57.5352 20.0625 57.6445 20.2266L57.7539 20.582C57.7174 20.6914 57.5534 20.7643 57.2617 20.8008L56.168 20.8555H54.418L52.668 20.9648L51.2734 21.0742L51.1367 23.0156L51.0547 24.1914C51.0365 24.4102 50.9909 24.7018 50.918 25.0664C50.8451 25.431 50.7539 25.7227 50.6445 25.9414L50.3711 26.2695C50.1888 26.2695 50.0703 26.1419 50.0156 25.8867C49.9609 25.6315 49.9336 25.2305 49.9336 24.6836L49.8516 21.2109L48.7305 21.3477C48.4023 21.3841 47.9831 21.457 47.4727 21.5664C47.0169 21.6576 46.6706 21.7031 46.4336 21.7031C46.1784 21.7031 45.8594 21.6576 45.4766 21.5664C45.0938 21.457 44.793 21.3477 44.5742 21.2383C44.3919 21.0924 44.3008 20.9557 44.3008 20.8281C44.3372 20.7005 44.4375 20.6276 44.6016 20.6094L45.5039 20.5273L46.9258 20.418C47.1445 20.3815 47.6732 20.3177 48.5117 20.2266L49.8789 20.0625L49.8516 17.4922C49.0677 17.5651 48.457 17.6289 48.0195 17.6836C47.582 17.7383 47.0716 17.8112 46.4883 17.9023C45.9232 18.0117 45.4128 18.1029 44.957 18.1758C44.5195 18.2487 44.0729 18.349 43.6172 18.4766C43.1615 18.6042 42.8333 18.668 42.6328 18.668C42.4688 18.6497 42.2044 18.5859 41.8398 18.4766C41.4753 18.3672 41.1289 18.2122 40.8008 18.0117C40.5273 17.8477 40.3906 17.6836 40.3906 17.5195C40.4635 17.3737 40.6367 17.2826 40.9102 17.2461L41.8125 17.2188C42.9974 17.1641 43.7266 17.1276 44 17.1094C44.2734 17.0911 44.8477 17.0365 45.7227 16.9453L47.7461 16.7266L49.8516 16.5352C49.8698 15.9154 49.8789 15.4414 49.8789 15.1133V11.1211C49.8789 10.8294 49.8607 10.6016 49.8242 10.4375L49.6602 9.80859ZM45.1211 13.1445C45.0482 12.8164 44.9844 12.5885 44.9297 12.4609C44.8932 12.3151 44.8477 12.151 44.793 11.9688C44.7201 11.7865 44.6107 11.5951 44.4648 11.3945L44.3008 11.0117C44.3372 10.8659 44.4466 10.7656 44.6289 10.7109C44.8112 10.6927 44.9935 10.7018 45.1758 10.7383L46.0234 10.9844C46.3333 11.0938 46.5065 11.2396 46.543 11.4219C46.5612 11.5312 46.5521 11.6497 46.5156 11.7773L46.4336 12.1328V12.8711C46.7799 12.8529 47.099 12.8255 47.3906 12.7891C47.6823 12.7526 47.901 12.7344 48.0469 12.7344C48.3021 12.7526 48.5391 12.8346 48.7578 12.9805L48.8672 13.418L48.0469 13.5547L46.543 13.7461L46.707 15.332C46.707 15.569 46.6979 15.7695 46.6797 15.9336C46.6615 16.1888 46.4974 16.3073 46.1875 16.2891C46.0234 16.0885 45.9049 15.8424 45.832 15.5508L45.3945 14.0195C45.0664 14.0924 44.8294 14.138 44.6836 14.1562L43.918 14.375C43.5352 14.4661 43.2435 14.5117 43.043 14.5117C42.8424 14.5117 42.6237 14.4753 42.3867 14.4023C42.1315 14.3294 41.931 14.2109 41.7852 14.0469L41.5938 13.7461C41.6302 13.6367 41.7487 13.5638 41.9492 13.5273L42.4961 13.4453L44 13.3086L45.1211 13.1445ZM56.4961 11.9961C56.8424 11.9596 57.1979 11.8867 57.5625 11.7773L58.1914 11.6406C58.4284 11.6224 58.6927 11.668 58.9844 11.7773C59.2578 11.8867 59.513 12.0143 59.75 12.1602L59.9414 12.6797C59.7227 12.8073 59.4674 12.8711 59.1758 12.8711L58.5469 12.9258L57.8086 12.9531L56.9883 12.9805L56.0312 13.0898C55.9219 13.3997 55.8125 13.6732 55.7031 13.9102C55.612 14.1654 55.4753 14.4297 55.293 14.7031C55.1471 14.9766 55.0104 15.1771 54.8828 15.3047L54.5273 15.7148L54.1719 15.6055L54.3906 14.7305L54.582 13.9102L54.7461 13.2539C54.3815 13.2904 54.0625 13.3451 53.7891 13.418L53.2422 13.5273L52.7227 13.3906C52.4492 13.2995 52.2396 13.1901 52.0938 13.0625V12.707L52.9414 12.543C53.4336 12.4701 53.7799 12.4154 53.9805 12.3789L54.8828 12.2695C54.9193 11.9232 54.9466 11.6133 54.9648 11.3398C55.0013 11.0846 55.0195 10.8477 55.0195 10.6289C55.0013 10.4466 54.9648 10.2643 54.9102 10.082L54.8828 9.78125C54.9193 9.65365 55.0195 9.57161 55.1836 9.53516C55.3477 9.51693 55.5482 9.58073 55.7852 9.72656L56.7695 10.2461L57.1523 10.6016C57.1341 10.7109 57.0612 10.8568 56.9336 11.0391L56.7148 11.3945C56.6419 11.5039 56.5872 11.6224 56.5508 11.75L56.4961 11.9961Z" fill="#333333"/>
<path d="M113.316 9.75391C113.189 9.75391 113.052 9.67188 112.906 9.50781C112.797 9.38021 112.724 9.27995 112.688 9.20703C112.651 9.11589 112.651 8.9974 112.688 8.85156L112.715 8.19531C112.733 8.06771 112.742 7.75781 112.742 7.26562V6.36328L111.922 6.74609L110.965 7.15625C110.728 7.2474 110.482 7.35677 110.227 7.48438C110.008 7.59375 109.816 7.64844 109.652 7.64844C109.525 7.63021 109.379 7.58464 109.215 7.51172C109.051 7.4388 108.923 7.375 108.832 7.32031C108.632 7.19271 108.54 7.05599 108.559 6.91016L108.641 6.63672C108.641 6.49089 108.65 6.36328 108.668 6.25391L108.695 4.66797V3.19141C108.695 2.89974 108.677 2.65365 108.641 2.45312C108.604 2.23438 108.577 2.07943 108.559 1.98828C108.559 1.89714 108.586 1.83333 108.641 1.79688C108.659 1.77865 108.704 1.76953 108.777 1.76953C108.905 1.76953 109.151 1.85156 109.516 2.01562C109.826 2.16146 109.953 2.34375 109.898 2.5625C109.862 2.6901 109.826 2.88151 109.789 3.13672L109.707 6.28125C109.707 6.3724 109.716 6.44531 109.734 6.5C109.771 6.53646 109.807 6.55469 109.844 6.55469C110.062 6.55469 110.327 6.49089 110.637 6.36328C111.22 6.18099 111.721 5.9987 112.141 5.81641L112.742 5.57031V3.76562C112.742 3.03646 112.697 2.33464 112.605 1.66016C112.587 1.60547 112.578 1.54167 112.578 1.46875C112.578 1.28646 112.651 1.19531 112.797 1.19531C112.815 1.19531 112.915 1.23177 113.098 1.30469C113.371 1.45052 113.572 1.57812 113.699 1.6875C113.827 1.79688 113.9 1.86068 113.918 1.87891C113.991 1.93359 114.027 1.98828 114.027 2.04297C114.027 2.07943 114.009 2.125 113.973 2.17969C113.954 2.23438 113.936 2.27995 113.918 2.31641L113.836 3.13672L113.809 5.65234L113.836 8.08594C113.836 8.50521 113.809 8.86979 113.754 9.17969C113.663 9.5625 113.517 9.75391 113.316 9.75391ZM108.285 14.2383C108.085 14.2383 107.839 14.0833 107.547 13.7734C107.328 13.5547 107.219 13.3906 107.219 13.2812C107.219 13.2266 107.255 13.1992 107.328 13.1992C107.401 13.181 107.492 13.1719 107.602 13.1719L108.203 13.1445C108.549 13.1445 108.777 13.1354 108.887 13.1172C109.233 13.1172 109.525 13.1081 109.762 13.0898C111.329 12.944 112.387 12.8255 112.934 12.7344C113.207 12.6979 113.453 12.6615 113.672 12.625C113.891 12.5703 114.064 12.543 114.191 12.543C114.447 12.543 114.702 12.6706 114.957 12.9258C115.158 13.1263 115.258 13.2904 115.258 13.418C115.258 13.5273 115.194 13.6003 115.066 13.6367C114.975 13.6549 114.438 13.6914 113.453 13.7461C112.906 13.7643 112.232 13.8099 111.43 13.8828C110.628 13.9557 109.926 14.0286 109.324 14.1016C109.215 14.1198 109.06 14.1471 108.859 14.1836C108.659 14.2201 108.467 14.2383 108.285 14.2383ZM111.949 25.5312C111.384 25.5312 110.947 25.513 110.637 25.4766C110.345 25.4401 110.099 25.3307 109.898 25.1484C109.552 24.8932 109.315 24.3372 109.188 23.4805L109.105 22.6055C109.105 22.3867 109.087 22.1133 109.051 21.7852C108.759 21.8216 108.549 21.8581 108.422 21.8945C108.385 21.9128 108.322 21.9401 108.23 21.9766C108.158 21.9948 108.103 22.0039 108.066 22.0039C107.939 22.0039 107.82 21.9674 107.711 21.8945C107.602 21.8216 107.465 21.6849 107.301 21.4844C107.173 21.3203 107.109 21.2109 107.109 21.1562C107.109 21.1016 107.173 21.0651 107.301 21.0469C107.428 21.0286 107.602 21.0195 107.82 21.0195C108.13 21.0195 108.531 20.9831 109.023 20.9102L108.996 20.5273C108.996 19.7982 108.951 19.1784 108.859 18.668L108.832 18.4766C108.832 18.2214 108.932 18.1211 109.133 18.1758C109.352 18.2487 109.552 18.3398 109.734 18.4492C109.88 18.5221 109.98 18.5951 110.035 18.668C110.09 18.7227 110.108 18.8047 110.09 18.9141L110.008 20.0898V20.8008L112.414 20.5547C112.414 20.4271 112.423 20.1263 112.441 19.6523C112.46 19.1602 112.46 18.8411 112.441 18.6953C112.441 18.5495 112.423 18.4128 112.387 18.2852C112.368 18.1393 112.35 18.0208 112.332 17.9297C112.332 17.7839 112.405 17.7109 112.551 17.7109C112.697 17.7109 112.879 17.793 113.098 17.957C113.353 18.1211 113.517 18.2669 113.59 18.3945C113.681 18.5221 113.699 18.6771 113.645 18.8594C113.553 19.151 113.49 19.4792 113.453 19.8438C113.417 20.2083 113.398 20.4271 113.398 20.5C113.617 20.4818 113.818 20.4544 114 20.418C114.182 20.3815 114.301 20.3633 114.355 20.3633C114.501 20.3268 114.674 20.3086 114.875 20.3086C114.984 20.3268 115.139 20.4362 115.34 20.6367C115.504 20.8555 115.586 21.0286 115.586 21.1562C115.586 21.3385 115.413 21.4115 115.066 21.375C114.757 21.3203 114.447 21.293 114.137 21.293C113.827 21.293 113.562 21.3021 113.344 21.3203C113.289 21.9766 113.18 22.6237 113.016 23.2617C112.979 23.4076 112.915 23.5352 112.824 23.6445C112.733 23.7357 112.651 23.7812 112.578 23.7812C112.451 23.7812 112.368 23.7357 112.332 23.6445C112.314 23.5352 112.305 23.3711 112.305 23.1523C112.341 22.6784 112.359 22.0859 112.359 21.375C111.867 21.4115 111.484 21.4479 111.211 21.4844C110.792 21.5755 110.4 21.6302 110.035 21.6484C110.017 22.3958 110.053 23.0612 110.145 23.6445C110.199 24.0273 110.309 24.2917 110.473 24.4375C110.582 24.5286 110.71 24.5833 110.855 24.6016C111.02 24.6198 111.184 24.6289 111.348 24.6289C111.512 24.6289 111.621 24.6289 111.676 24.6289C112.241 24.6289 112.77 24.6016 113.262 24.5469C113.408 24.5286 113.535 24.4922 113.645 24.4375C113.772 24.3828 113.863 24.3555 113.918 24.3555C114.082 24.3555 114.246 24.4102 114.41 24.5195C114.574 24.6289 114.656 24.7565 114.656 24.9023C114.656 25.0482 114.574 25.1576 114.41 25.2305C114.264 25.3034 114.027 25.3672 113.699 25.4219C113.116 25.4948 112.533 25.5312 111.949 25.5312ZM119.742 13.0898C119.961 13.0898 120.07 13.1901 120.07 13.3906C120.07 13.5 119.97 13.6549 119.77 13.8555C119.223 14.5299 118.138 15.8151 116.516 17.7109C116.388 17.875 116.27 17.957 116.16 17.957C116.069 17.957 115.868 17.8203 115.559 17.5469C115.303 17.3281 115.176 17.1458 115.176 17C115.176 16.8359 115.312 16.681 115.586 16.5352C116.005 16.2982 116.634 15.8242 117.473 15.1133C118.311 14.3659 118.931 13.7734 119.332 13.3359C119.496 13.1719 119.633 13.0898 119.742 13.0898ZM89.8828 19.5977C89.7917 19.4518 89.7188 19.3242 89.6641 19.2148C89.5911 19.1055 89.5182 18.9596 89.4453 18.7773V18.1211L90.1836 18.2852L90.9219 18.6133C91.25 18.7591 91.5417 18.9049 91.7969 19.0508C92.0521 19.2148 92.2617 19.4609 92.4258 19.7891C92.5534 20.0625 92.6172 20.3815 92.6172 20.7461C92.599 21.1107 92.5078 21.3932 92.3438 21.5938C92.1979 21.7943 92.0065 21.8945 91.7695 21.8945C91.5326 21.8945 91.2865 21.7487 91.0312 21.457C90.8854 21.3112 90.7487 21.1016 90.6211 20.8281L90.2109 20.1445L87.2578 22.2773L86.2734 23.0977L85.6172 23.7539L85.2891 23.9727C85.1068 23.9727 84.9245 23.8542 84.7422 23.6172C84.5781 23.4167 84.4323 23.1706 84.3047 22.8789C84.1953 22.6419 84.1406 22.4141 84.1406 22.1953L84.3047 21.6758C84.4141 21.3841 84.4961 21.0833 84.5508 20.7734C84.6055 20.4453 84.651 20.0716 84.6875 19.6523C84.724 19.2513 84.7604 18.668 84.7969 17.9023L84.9336 13.1445C84.9336 12.8893 84.9245 12.625 84.9062 12.3516C84.8698 12.0781 84.8242 11.8503 84.7695 11.668C84.7148 11.4857 84.6328 11.3216 84.5234 11.1758L84.3047 10.957L84.25 10.6836C84.3229 10.5742 84.4505 10.5195 84.6328 10.5195C85.0703 10.5195 85.4167 10.5924 85.6719 10.7383L86.082 10.957C86.5378 10.9023 86.9115 10.8477 87.2031 10.793C87.513 10.7565 87.8958 10.6836 88.3516 10.5742C88.7891 10.4648 89.1263 10.3737 89.3633 10.3008C89.6003 10.2279 89.8464 10.1367 90.1016 10.0273C90.3568 9.91797 90.5573 9.86328 90.7031 9.86328C90.849 9.88151 91.0221 9.9362 91.2227 10.0273L91.7969 10.3281L92.1523 10.5742C92.4805 10.7747 92.6901 10.9388 92.7812 11.0664L92.8086 11.5586L92.5352 11.9688C92.4805 12.0781 92.3984 12.2604 92.2891 12.5156L92.1523 12.9258L91.4688 15.4688L91.1953 16.5352C91.0495 16.8997 90.9036 17.1276 90.7578 17.2188L90.457 17.3281H90.2656L89.9102 16.9727C89.418 17.0273 89.0443 17.0638 88.7891 17.082L86.9023 17.3555L86.2188 17.4102L86.0547 20.418L86.1641 21.0195C86.3099 21.0195 86.474 20.9831 86.6562 20.9102L89.8828 19.5977ZM86.2188 16.5078C86.5469 16.4896 86.8021 16.4714 86.9844 16.4531C87.1667 16.4349 87.4401 16.3802 87.8047 16.2891C88.2057 16.1979 88.5521 16.125 88.8438 16.0703C89.0625 16.0339 89.263 16.0156 89.4453 16.0156L89.9648 16.0703L90.4297 13.9648C89.974 14.0013 89.6367 14.0378 89.418 14.0742L88.1055 14.293C87.7227 14.3659 87.4128 14.4023 87.1758 14.4023L86.7383 14.3477L86.3281 14.2109L86.2188 16.5078ZM86.3555 13.6367C86.7018 13.6185 86.9753 13.5911 87.1758 13.5547C87.3763 13.5182 87.7135 13.4362 88.1875 13.3086C88.625 13.181 88.9531 13.1081 89.1719 13.0898C89.4818 13.0898 89.7826 13.1445 90.0742 13.2539L90.5117 13.418L90.6484 12.5703C90.6849 12.3333 90.7031 12.069 90.7031 11.7773C90.7031 11.4857 90.6576 11.2943 90.5664 11.2031C90.4753 11.112 90.3477 11.0664 90.1836 11.0664C90.0013 11.0846 89.7734 11.1302 89.5 11.2031C89.2448 11.2578 88.8255 11.3398 88.2422 11.4492C87.6406 11.5586 87.2578 11.6133 87.0938 11.6133L86.5195 11.6406L86.3555 13.6367ZM96.2266 12.4883C96.1536 12.7799 96.1081 12.9987 96.0898 13.1445C96.0716 13.2904 96.0443 13.5273 96.0078 13.8555C95.9714 14.1836 95.9531 14.457 95.9531 14.6758L95.8711 20.1992C95.8529 20.9648 95.7891 21.8581 95.6797 22.8789L95.5703 24.0547C95.4974 24.7656 95.3698 25.3763 95.1875 25.8867C95.0052 26.3789 94.8411 26.625 94.6953 26.625C94.5677 26.6068 94.4583 26.3424 94.3672 25.832C94.276 25.3398 94.2214 24.7656 94.2031 24.1094C94.1849 23.6719 94.1758 23.2344 94.1758 22.7969V22.1133L94.2852 14.9492C94.3034 14.4753 94.3125 14.0924 94.3125 13.8008C94.3125 13.5091 94.3034 13.3086 94.2852 13.1992C94.2669 12.9622 94.2396 12.6888 94.2031 12.3789C94.1667 12.069 94.1029 11.8138 94.0117 11.6133L93.9023 11.0664L94.0391 10.9023C94.2031 10.9023 94.4036 10.9388 94.6406 11.0117C95.1146 11.1576 95.4245 11.276 95.5703 11.3672L96.0078 11.6406L97.3477 11.3398C97.8034 11.2305 98.2682 11.1029 98.7422 10.957L99.3438 10.793C99.6354 10.7018 99.8906 10.6016 100.109 10.4922L100.492 10.3555C100.62 10.3555 100.775 10.4102 100.957 10.5195C101.139 10.6289 101.331 10.7565 101.531 10.9023C101.75 11.0482 101.96 11.2122 102.16 11.3945C102.324 11.5404 102.379 11.7591 102.324 12.0508C102.178 12.2513 102.078 12.4336 102.023 12.5977C101.987 12.7617 101.951 12.9805 101.914 13.2539C101.878 13.5456 101.859 13.8464 101.859 14.1562L101.695 17.082C101.659 17.8112 101.604 18.3763 101.531 18.7773C101.477 19.1784 101.358 19.5339 101.176 19.8438C100.975 20.1536 100.747 20.3997 100.492 20.582L100 20.8008C99.8542 20.7643 99.7083 20.6549 99.5625 20.4727C99.3984 20.2721 99.1706 20.0169 98.8789 19.707C98.6055 19.3789 98.3411 19.0872 98.0859 18.832L97.5938 18.3945L97.4297 18.0117C97.5391 17.9935 97.6667 18.0117 97.8125 18.0664L98.4414 18.2578C98.806 18.3854 99.0885 18.4583 99.2891 18.4766C99.4531 18.4766 99.5898 18.4492 99.6992 18.3945C99.8633 18.2852 99.9635 18.0482 100 17.6836C100.055 17.2826 100.091 16.8997 100.109 16.5352L100.219 12.9805C100.219 12.5612 100.201 12.2878 100.164 12.1602L100.055 11.9414C99.9453 11.832 99.7812 11.7773 99.5625 11.7773C99.3802 11.7773 99.0703 11.8138 98.6328 11.8867L97.4023 12.1328L96.2266 12.4883ZM96.7734 4.09375L100.219 3.41016C100.401 3.3737 100.602 3.31901 100.82 3.24609L101.312 3.13672C101.549 3.11849 101.75 3.1276 101.914 3.16406C102.133 3.21875 102.361 3.31901 102.598 3.46484L102.98 3.73828C102.999 3.84766 102.935 3.97526 102.789 4.12109C102.643 4.23047 102.434 4.3125 102.16 4.36719L101.148 4.55859C100.857 4.59505 100.447 4.64974 99.918 4.72266C99.3893 4.77734 98.9154 4.83203 98.4961 4.88672C98.0768 4.95964 97.7943 4.99609 97.6484 4.99609C97.3568 4.99609 97.0742 4.95964 96.8008 4.88672L96.3359 4.80469L95.543 5.89844C95.2331 6.29948 94.8594 6.70964 94.4219 7.12891C93.9479 7.56641 93.638 7.83073 93.4922 7.92188L93 8.22266L92.6719 8.33203L92.4805 8.19531L92.6719 7.89453L93.2734 7.12891C93.5286 6.81901 93.7383 6.54557 93.9023 6.30859C94.0664 6.05339 94.2578 5.73438 94.4766 5.35156C94.7135 4.96875 94.9049 4.63151 95.0508 4.33984C95.1784 4.06641 95.2969 3.79297 95.4062 3.51953C95.5156 3.22786 95.5977 2.99089 95.6523 2.80859C95.707 2.60807 95.7708 2.40755 95.8438 2.20703C95.8802 1.98828 95.8984 1.78776 95.8984 1.60547L96.0625 1.16797L96.2539 1.08594C96.3815 1.08594 96.5273 1.1224 96.6914 1.19531C96.9102 1.28646 97.138 1.40495 97.375 1.55078C97.612 1.69661 97.7943 1.85156 97.9219 2.01562L98.0859 2.34375L98.0312 2.58984C97.9401 2.68099 97.8125 2.80859 97.6484 2.97266C97.4661 3.15495 97.3021 3.33724 97.1562 3.51953L96.7734 4.09375ZM87.75 4.77734L88.5156 4.64062C88.8438 4.58594 89.3633 4.44922 90.0742 4.23047L90.4844 4.09375L91.168 3.90234L91.5781 3.98438C91.7969 4.03906 91.9609 4.08464 92.0703 4.12109C92.1797 4.17578 92.2891 4.2487 92.3984 4.33984L92.5898 4.53125C92.6081 4.65885 92.5625 4.76823 92.4531 4.85938C92.3073 4.95052 92.0703 5.03255 91.7422 5.10547L91.0859 5.26953C90.9401 5.30599 90.5755 5.36068 89.9922 5.43359L89.0625 5.57031C88.8255 5.58854 88.6341 5.59766 88.4883 5.59766L88.1328 5.57031L87.4219 5.32422L86.6016 6.28125C86.3464 6.59115 86.0547 6.90104 85.7266 7.21094C85.3984 7.53906 85.0977 7.80339 84.8242 8.00391C84.5508 8.1862 84.2591 8.36849 83.9492 8.55078L83.0195 8.85156C83.0013 8.72396 83.0469 8.60547 83.1562 8.49609L83.6211 8.05859C83.8945 7.80339 84.1406 7.54818 84.3594 7.29297C84.5781 7.07422 84.8424 6.74609 85.1523 6.30859C85.4622 5.87109 85.7448 5.43359 86 4.99609C86.2552 4.59505 86.474 4.23047 86.6562 3.90234C86.8203 3.57422 86.957 3.26432 87.0664 2.97266C87.1758 2.68099 87.2305 2.38932 87.2305 2.09766L87.4492 1.6875C87.6862 1.6875 87.9414 1.76953 88.2148 1.93359C88.4883 2.07943 88.6706 2.19792 88.7617 2.28906C88.8711 2.38021 88.9714 2.48047 89.0625 2.58984L89.2266 3.13672C89.1901 3.24609 89.099 3.34635 88.9531 3.4375L88.6523 3.62891L88.1328 4.33984L87.75 4.77734ZM87.8594 6.9375C88.0599 6.90104 88.2422 6.89193 88.4062 6.91016L89.0078 7.04688C89.1719 7.10156 89.3542 7.15625 89.5547 7.21094C89.7552 7.26562 89.9193 7.34766 90.0469 7.45703C90.1927 7.56641 90.293 7.67578 90.3477 7.78516C90.4023 7.89453 90.4297 8.05859 90.4297 8.27734C90.4297 8.56901 90.3568 8.78776 90.2109 8.93359C90.0833 9.07943 89.9193 9.16146 89.7188 9.17969C89.5547 9.17969 89.3542 9.07943 89.1172 8.87891C88.9531 8.7513 88.7344 8.53255 88.4609 8.22266C88.1875 7.93099 87.987 7.70312 87.8594 7.53906C87.75 7.375 87.75 7.17448 87.8594 6.9375ZM97.2109 6.03516L97.8945 6.14453C98.3867 6.25391 98.806 6.39062 99.1523 6.55469C99.4805 6.71875 99.7266 6.91016 99.8906 7.12891C100.036 7.34766 100.109 7.63932 100.109 8.00391C100.091 8.44141 99.9362 8.72396 99.6445 8.85156C99.4076 8.85156 99.1797 8.77865 98.9609 8.63281C98.6693 8.46875 98.3867 8.23177 98.1133 7.92188L97.4297 7.07422L96.9102 6.0625C97.0378 6.02604 97.138 6.01693 97.2109 6.03516Z" fill="#333333"/>
<path d="M155.152 9.67188C154.879 9.67188 154.642 9.57161 154.441 9.37109C153.84 8.71484 153.229 8.1224 152.609 7.59375C151.917 7.01042 151.306 6.57292 150.777 6.28125C150.522 6.13542 150.395 5.90755 150.395 5.59766C150.395 5.54297 150.458 5.47005 150.586 5.37891C150.75 5.26953 151.014 5.03255 151.379 4.66797L152.363 3.71094C152.801 3.25521 153.165 2.84505 153.457 2.48047C153.767 2.11589 153.94 1.86068 153.977 1.71484C153.995 1.67839 154.013 1.60547 154.031 1.49609C154.068 1.36849 154.122 1.30469 154.195 1.30469C154.286 1.30469 154.405 1.35026 154.551 1.44141C154.715 1.53255 154.852 1.6237 154.961 1.71484C155.234 1.97005 155.371 2.1888 155.371 2.37109C155.353 2.42578 155.28 2.48958 155.152 2.5625C155.043 2.61719 154.943 2.67188 154.852 2.72656C154.76 2.79948 154.432 3.09115 153.867 3.60156L152.09 5.13281C151.78 5.38802 151.625 5.58854 151.625 5.73438C151.625 5.80729 151.771 5.92578 152.062 6.08984C152.409 6.30859 153.083 6.75521 154.086 7.42969C154.469 7.6849 154.833 7.96745 155.18 8.27734C155.471 8.56901 155.617 8.86979 155.617 9.17969C155.617 9.32552 155.553 9.45312 155.426 9.5625C155.353 9.63542 155.262 9.67188 155.152 9.67188ZM150.285 14.2383C150.085 14.2383 149.839 14.0833 149.547 13.7734C149.328 13.5547 149.219 13.3906 149.219 13.2812C149.219 13.2266 149.255 13.1992 149.328 13.1992C149.401 13.181 149.492 13.1719 149.602 13.1719L150.203 13.1445C150.549 13.1445 150.777 13.1354 150.887 13.1172C151.233 13.1172 151.525 13.1081 151.762 13.0898C153.329 12.944 154.387 12.8255 154.934 12.7344C155.207 12.6979 155.453 12.6615 155.672 12.625C155.891 12.5703 156.064 12.543 156.191 12.543C156.447 12.543 156.702 12.6706 156.957 12.9258C157.158 13.1263 157.258 13.2904 157.258 13.418C157.258 13.5273 157.194 13.6003 157.066 13.6367C156.975 13.6549 156.438 13.6914 155.453 13.7461C154.906 13.7643 154.232 13.8099 153.43 13.8828C152.628 13.9557 151.926 14.0286 151.324 14.1016C151.215 14.1198 151.06 14.1471 150.859 14.1836C150.659 14.2201 150.467 14.2383 150.285 14.2383ZM150.121 25.1484C149.848 25.1484 149.638 25.0755 149.492 24.9297C149.328 24.7656 149.246 24.6198 149.246 24.4922C149.246 24.3646 149.319 24.2279 149.465 24.082C149.483 24.0638 149.583 23.918 149.766 23.6445C150.167 23.0065 150.622 22.1953 151.133 21.2109C151.661 20.2083 151.99 19.5247 152.117 19.1602C152.227 18.8138 152.327 18.513 152.418 18.2578C152.527 18.0026 152.618 17.875 152.691 17.875C152.819 17.875 152.928 17.9206 153.02 18.0117C153.111 18.0846 153.202 18.194 153.293 18.3398C153.402 18.4674 153.484 18.5586 153.539 18.6133C153.667 18.7591 153.73 18.8958 153.73 19.0234C153.73 19.1146 153.694 19.2057 153.621 19.2969C153.548 19.388 153.503 19.4518 153.484 19.4883L152.281 21.5117C151.971 22.0768 151.561 22.7786 151.051 23.6172C150.978 23.7083 150.941 23.7995 150.941 23.8906C150.941 23.9635 151.023 24 151.188 24C151.534 24 152.181 23.9635 153.129 23.8906C154.077 23.7995 154.715 23.7266 155.043 23.6719C155.517 23.6172 155.845 23.5625 156.027 23.5078C156.228 23.4531 156.52 23.5898 156.902 23.918C157.358 24.3008 157.458 24.5469 157.203 24.6562C157.057 24.7292 156.775 24.7656 156.355 24.7656H155.262C155.025 24.7656 154.651 24.7839 154.141 24.8203C153.831 24.8203 153.484 24.8294 153.102 24.8477C152.719 24.8659 152.4 24.8841 152.145 24.9023C151.853 24.9206 151.288 24.9753 150.449 25.0664L150.121 25.1484ZM158.242 15.2773C158.333 15.2773 158.47 15.3411 158.652 15.4688C158.634 15.5052 158.671 15.5781 158.762 15.6875C158.853 15.7786 158.917 15.8424 158.953 15.8789C159.044 15.9701 159.135 16.0794 159.227 16.207C159.336 16.3346 159.454 16.4714 159.582 16.6172C159.91 16.9635 160.667 17.8659 161.852 19.3242C162.052 19.6159 162.152 19.7891 162.152 19.8438C162.152 20.026 162.043 20.1172 161.824 20.1172C161.697 20.1172 161.56 20.026 161.414 19.8438C161.068 19.4792 160.448 18.9049 159.555 18.1211C158.862 17.4831 158.233 16.9909 157.668 16.6445C157.395 16.5169 157.258 16.3711 157.258 16.207C157.258 16.0794 157.395 15.8971 157.668 15.6602C157.923 15.4049 158.115 15.2773 158.242 15.2773ZM136.422 4.55859C136.185 4.3763 135.984 4.21224 135.82 4.06641C135.674 3.90234 135.51 3.68359 135.328 3.41016L134.918 2.75391C134.754 2.4987 134.681 2.21615 134.699 1.90625C134.845 1.86979 135 1.86979 135.164 1.90625C135.419 1.96094 135.702 2.04297 136.012 2.15234C136.322 2.26172 136.586 2.38932 136.805 2.53516C137.023 2.68099 137.197 2.86328 137.324 3.08203L137.461 3.57422L137.242 4.44922C137.57 4.41276 137.908 4.36719 138.254 4.3125L139.293 4.14844L140.469 3.92969L141.344 3.79297L141.809 3.71094C142.009 3.72917 142.201 3.76562 142.383 3.82031L143.039 4.12109C143.258 4.23047 143.44 4.4401 143.586 4.75C143.549 4.8776 143.44 4.94141 143.258 4.94141L142.602 4.99609C142.346 5.01432 141.891 5.03255 141.234 5.05078L140.195 5.10547L138.445 5.26953C138.846 5.39714 139.102 5.52474 139.211 5.65234L139.43 5.98047C139.43 6.10807 139.402 6.26302 139.348 6.44531L139.211 6.77344L139.156 7.15625L139.84 7.07422L140.797 6.91016L141.562 6.74609L141.945 6.69141C142.128 6.69141 142.319 6.73698 142.52 6.82812C142.72 6.91927 142.939 7.04688 143.176 7.21094C143.413 7.375 143.577 7.52995 143.668 7.67578L143.777 7.94922C143.759 8.05859 143.686 8.14974 143.559 8.22266C143.431 8.33203 143.276 8.47786 143.094 8.66016C142.911 8.84245 142.784 8.97917 142.711 9.07031L142.383 9.75391L142.738 10.3008C142.684 10.4284 142.574 10.5013 142.41 10.5195L141.781 10.5742L140.66 10.6016L140.059 10.6562L139.184 10.7383L134.562 11.2305L132.539 11.4492C131.883 11.5221 131.372 11.5586 131.008 11.5586H129.805L129.668 12.2695L129.531 12.8984C129.859 12.8802 130.115 12.8529 130.297 12.8164L132.293 12.6523C133.587 12.5247 134.38 12.4427 134.672 12.4062L140.523 11.7773C140.924 11.7409 141.326 11.6862 141.727 11.6133C142.128 11.5768 142.474 11.5221 142.766 11.4492L143.586 11.3125L144.023 11.2852C144.206 11.2852 144.452 11.349 144.762 11.4766C145.053 11.5859 145.354 11.7135 145.664 11.8594C145.992 12.0052 146.257 12.1693 146.457 12.3516L146.758 12.7344L146.676 12.9531C146.585 13.0443 146.43 13.1081 146.211 13.1445C145.992 13.181 145.792 13.2357 145.609 13.3086C145.391 13.3815 145.154 13.4818 144.898 13.6094C144.625 13.737 144.424 13.8372 144.297 13.9102L143.777 14.1562L143.477 14.0469L143.75 13.4453C143.823 13.2995 143.878 13.1263 143.914 12.9258L143.941 12.5977C143.887 12.4883 143.759 12.4336 143.559 12.4336C143.431 12.4518 143.258 12.4701 143.039 12.4883C142.784 12.5065 142.328 12.543 141.672 12.5977C140.979 12.6341 140.396 12.6706 139.922 12.707L135.109 13.1719C134.544 13.2266 133.943 13.2904 133.305 13.3633L131.664 13.5547C131.008 13.6276 130.552 13.6823 130.297 13.7188L129.805 13.7734L129.422 13.6914L128.875 15.6055C128.711 16.1888 128.492 16.8451 128.219 17.5742C127.964 18.3034 127.645 19.0326 127.262 19.7617C126.879 20.4909 126.478 21.1289 126.059 21.6758C125.639 22.2227 125.229 22.6966 124.828 23.0977C124.391 23.4987 124.026 23.7995 123.734 24L122.969 24.5195L122.668 24.4375L123.297 23.6445C123.552 23.3893 123.844 23.0156 124.172 22.5234L125.266 20.8008C125.648 20.1445 125.967 19.5339 126.223 18.9688C126.496 18.4036 126.77 17.7201 127.043 16.918C127.335 16.1341 127.572 15.4049 127.754 14.7305C127.954 14.0742 128.128 13.3268 128.273 12.4883C128.419 11.6862 128.529 10.9844 128.602 10.3828C128.674 9.79948 128.729 9.2526 128.766 8.74219V7.51172C128.747 7.22005 128.729 7.01953 128.711 6.91016L128.547 6.47266L128.219 6.25391C128.109 6.18099 128.009 6.04427 127.918 5.84375C127.973 5.73438 128.109 5.67057 128.328 5.65234L128.984 5.57031L130.297 5.40625L131.309 5.32422L132.293 5.16016L136.422 4.55859ZM129.941 10.8203C130.525 10.8021 131.062 10.7747 131.555 10.7383C132.029 10.7018 132.43 10.6654 132.758 10.6289L133.797 10.5195L133.742 8.71484L132.758 8.87891L131.691 9.01562L131.035 9.15234C130.816 9.15234 130.652 9.125 130.543 9.07031L130.188 8.93359L130.078 9.75391L129.941 10.8203ZM130.297 8.30469C131.354 8.19531 132.02 8.11328 132.293 8.05859L133.66 7.89453C133.642 7.60286 133.624 7.32943 133.605 7.07422C133.587 6.83724 133.542 6.61849 133.469 6.41797L133.305 5.89844L130.516 6.41797L130.625 7.04688C130.516 7.32031 130.443 7.56641 130.406 7.78516L130.297 8.30469ZM134.18 5.70703C134.398 5.77995 134.562 5.84375 134.672 5.89844L134.918 6.00781L135.082 6.25391C135.1 6.38151 135.091 6.52734 135.055 6.69141L134.918 7.15625L134.891 7.73047C135.583 7.65755 136.003 7.60286 136.148 7.56641L137.57 7.34766C137.607 7.09245 137.625 6.89193 137.625 6.74609V6.19922C137.607 5.98047 137.579 5.81641 137.543 5.70703L137.406 5.32422C136.622 5.43359 136.167 5.48828 136.039 5.48828L134.18 5.70703ZM134.809 10.3555C135.538 10.2826 135.984 10.2279 136.148 10.1914L137.434 10.0273L137.543 8.27734L136.258 8.44141L134.891 8.57812L134.836 9.26172L134.809 10.3555ZM138.527 9.80859C138.837 9.77214 139.083 9.73568 139.266 9.69922L140.141 9.58984C140.359 9.57161 140.578 9.53516 140.797 9.48047L141.18 9.39844L141.398 8.82422C141.453 8.60547 141.48 8.3776 141.48 8.14062C141.408 8.01302 141.262 7.9401 141.043 7.92188C140.915 7.92188 140.706 7.93099 140.414 7.94922L139.539 8.05859L138.883 8.11328L138.527 9.80859ZM132.594 20.0898C132.484 20.0169 132.375 19.9622 132.266 19.9258C132.156 19.8529 131.974 19.7708 131.719 19.6797L131.281 19.5156L131.172 19.2422C131.281 19.151 131.409 19.0964 131.555 19.0781L132.074 19.1055C132.202 19.1237 132.475 19.2057 132.895 19.3516C133.168 19.1693 133.341 19.0143 133.414 18.8867C133.487 18.7773 133.578 18.5859 133.688 18.3125C133.797 18.0391 133.87 17.8112 133.906 17.6289L134.043 16.9727C134.152 16.9544 134.289 16.9909 134.453 17.082C134.581 17.1549 134.717 17.2461 134.863 17.3555C135.009 17.4648 135.146 17.5742 135.273 17.6836C135.383 17.793 135.438 18.0391 135.438 18.4219C135.255 18.5495 135.109 18.6953 135 18.8594C135.219 18.8776 135.419 18.8685 135.602 18.832C135.766 18.832 136.148 18.7956 136.75 18.7227C137.37 18.668 137.853 18.6133 138.199 18.5586C138.546 18.5221 138.846 18.4766 139.102 18.4219C139.357 18.3672 139.612 18.349 139.867 18.3672C140.086 18.4219 140.332 18.5221 140.605 18.668C140.879 18.8138 141.052 19.0326 141.125 19.3242C141.125 19.4518 141.025 19.5794 140.824 19.707C140.624 19.8529 140.441 20.0169 140.277 20.1992L139.594 21.1836C139.375 21.457 139.111 21.7669 138.801 22.1133L138.336 22.6055C138.792 22.8242 139.211 23.0065 139.594 23.1523C139.958 23.2982 140.523 23.4805 141.289 23.6992C142.018 23.918 142.638 24.082 143.148 24.1914L144.898 24.4922C145.536 24.5833 146.01 24.6562 146.32 24.7109L147.25 24.875C147.414 24.9115 147.46 25.0299 147.387 25.2305L146.32 25.4766C145.938 25.5677 145.454 25.6497 144.871 25.7227C144.27 25.8138 143.814 25.8685 143.504 25.8867C143.176 25.9232 142.72 25.9414 142.137 25.9414C141.717 25.9414 141.408 25.9232 141.207 25.8867C140.934 25.8503 140.669 25.7773 140.414 25.668C140.159 25.5404 139.758 25.2943 139.211 24.9297L138.117 24.1641L137.297 23.5898L136.203 24.3008C135.875 24.5013 135.456 24.6927 134.945 24.875C134.435 25.0391 133.906 25.1758 133.359 25.2852C132.812 25.3945 132.393 25.4583 132.102 25.4766L131.281 25.5312L130.953 25.4766C130.953 25.349 131.072 25.2487 131.309 25.1758L132.047 24.957L133.168 24.5742C133.678 24.3737 134.161 24.1549 134.617 23.918C135.055 23.681 135.438 23.444 135.766 23.207L136.312 22.7969L135.191 21.8945C134.882 21.6758 134.599 21.4661 134.344 21.2656L133.66 20.7461C133.423 21.0195 133.168 21.293 132.895 21.5664C132.621 21.8216 132.229 22.1406 131.719 22.5234C131.208 22.9062 130.716 23.207 130.242 23.4258C129.805 23.6628 129.404 23.8268 129.039 23.918L127.918 24.1094C127.9 24 127.945 23.918 128.055 23.8633L128.93 23.3438C129.185 23.1979 129.504 22.9792 129.887 22.6875C130.27 22.4141 130.671 22.0859 131.09 21.7031C131.509 21.3203 131.828 21.0013 132.047 20.7461L132.594 20.0898ZM134.508 19.5977L134.125 20.0898L134.891 20.6367L135.547 21.0742L136.641 21.7305L137.188 22.0586L137.789 21.375C137.971 21.138 138.099 20.9648 138.172 20.8555L138.773 19.9258C138.919 19.707 138.983 19.4518 138.965 19.1602C138.837 19.1419 138.701 19.151 138.555 19.1875C138.336 19.2422 137.98 19.2878 137.488 19.3242C136.996 19.3607 136.54 19.4336 136.121 19.543L135.328 19.6797H134.891L134.508 19.5977ZM133.359 15.0039L133.141 14.5117L133.305 14.2383L133.742 14.7305C133.979 15.0586 134.216 15.3229 134.453 15.5234C134.672 15.724 134.982 15.9154 135.383 16.0977C135.784 16.2799 136.176 16.3984 136.559 16.4531C136.759 16.4714 136.96 16.4805 137.16 16.4805C137.379 16.4805 137.607 16.4714 137.844 16.4531C138.281 16.4349 138.628 16.3802 138.883 16.2891L139.266 16.0703C139.284 15.9427 139.229 15.7695 139.102 15.5508L138.828 15.0039L138.938 14.6211L139.484 15.0039C139.594 15.0768 139.812 15.2044 140.141 15.3867C140.469 15.569 140.742 15.6966 140.961 15.7695C141.143 15.8424 141.307 15.9245 141.453 16.0156C141.562 16.1068 141.581 16.2799 141.508 16.5352C141.362 16.7174 141.171 16.8724 140.934 17C140.697 17.1276 140.414 17.2279 140.086 17.3008C139.758 17.3737 139.329 17.4284 138.801 17.4648C138.454 17.4831 138.117 17.4922 137.789 17.4922H137.297C136.75 17.474 136.331 17.4193 136.039 17.3281C135.729 17.237 135.401 17.1003 135.055 16.918C134.727 16.7357 134.49 16.5716 134.344 16.4258C134.198 16.2799 134.007 16.043 133.77 15.7148C133.533 15.3867 133.396 15.1497 133.359 15.0039ZM130.023 16.9453V16.7266C130.096 16.5625 130.206 16.3984 130.352 16.2344L130.844 15.6602C131.026 15.4414 131.163 15.2318 131.254 15.0312L131.637 14.6484C131.764 14.6667 131.855 14.776 131.91 14.9766C131.965 15.1771 132.001 15.4141 132.02 15.6875C132.02 15.9062 131.992 16.1068 131.938 16.2891C131.865 16.526 131.755 16.7539 131.609 16.9727C131.464 17.1914 131.29 17.3737 131.09 17.5195L130.707 17.7383C130.525 17.7383 130.379 17.6836 130.27 17.5742C130.142 17.4648 130.06 17.2552 130.023 16.9453ZM135.629 13.5547H135.848C136.267 13.6276 136.549 13.6823 136.695 13.7188L137.188 13.9102L137.461 14.1289L137.625 14.4297C137.625 14.5938 137.607 14.7487 137.57 14.8945L137.461 15.2227C137.352 15.332 137.224 15.4049 137.078 15.4414C136.932 15.4414 136.768 15.3594 136.586 15.1953C136.495 15.1224 136.331 14.9401 136.094 14.6484C135.875 14.3568 135.729 14.1471 135.656 14.0195C135.583 13.8919 135.574 13.737 135.629 13.5547ZM140.168 13.1719L140.852 13.3086L141.672 13.4727C141.854 13.5091 142.055 13.582 142.273 13.6914L142.629 13.8828C142.702 13.9922 142.738 14.1927 142.738 14.4844L142.711 14.8125L142.574 15.0859L142.246 15.168C141.936 15.1315 141.635 14.9766 141.344 14.7031L140.633 14.0469C140.305 13.7917 140.086 13.6003 139.977 13.4727L139.949 13.1992L140.168 13.1719Z" fill="#333333"/>
</svg>
