<svg width="166" height="27" viewBox="0 0 166 27" fill="none" xmlns="http://www.w3.org/2000/svg">
<path d="M26.5195 13.0625C26.3919 13.0625 26.3099 13.0534 26.2734 13.0352C26.2552 12.9987 26.2826 12.9349 26.3555 12.8438C26.6107 12.6068 26.8112 12.3789 26.957 12.1602C27.1211 11.9232 27.2943 11.5495 27.4766 11.0391C27.7682 10.2005 27.9141 9.55339 27.9141 9.09766C27.9141 8.67839 27.8867 8.29557 27.832 7.94922V7.86719C27.832 7.66667 27.9596 7.60286 28.2148 7.67578C28.4336 7.73047 28.6797 7.80339 28.9531 7.89453C29.0078 7.8763 29.0898 7.86719 29.1992 7.86719C29.3086 7.84896 29.4818 7.82161 29.7188 7.78516C30.3385 7.69401 31.1406 7.60286 32.125 7.51172C32.125 7.4388 32.1979 7.18359 32.3438 6.74609L32.5078 6.14453C32.5807 5.88932 32.5534 5.76172 32.4258 5.76172C32.0612 5.76172 31.2135 5.85286 29.8828 6.03516L28.4336 6.28125C28.306 6.29948 28.1419 6.24479 27.9414 6.11719C27.7591 5.98958 27.6133 5.84375 27.5039 5.67969C27.4128 5.51562 27.431 5.40625 27.5586 5.35156C27.7044 5.26042 27.8503 5.21484 27.9961 5.21484C28.1419 5.21484 28.2331 5.21484 28.2695 5.21484H28.625L30.4297 5.16016L32.1797 4.94141C32.2708 4.92318 32.3802 4.89583 32.5078 4.85938C32.6536 4.80469 32.7904 4.76823 32.918 4.75C33.1003 4.71354 33.4102 4.91406 33.8477 5.35156C33.9206 5.42448 33.957 5.50651 33.957 5.59766C33.957 5.70703 33.8841 5.81641 33.7383 5.92578C33.5378 6.1263 33.4102 6.29948 33.3555 6.44531C33.3372 6.53646 33.3008 6.67318 33.2461 6.85547C33.1914 7.01953 33.1367 7.22917 33.082 7.48438C33.1914 7.61198 33.2461 7.76693 33.2461 7.94922C33.2461 8.09505 33.2005 8.20443 33.1094 8.27734C33.0365 8.33203 32.8815 8.35938 32.6445 8.35938C31.8242 8.41406 31.1771 8.46875 30.7031 8.52344C30.2292 8.5599 29.6549 8.65104 28.9805 8.79688C28.9076 9.61719 28.7435 10.3737 28.4883 11.0664C28.2331 11.7409 27.8776 12.2513 27.4219 12.5977C26.9844 12.9076 26.6836 13.0625 26.5195 13.0625ZM27.1211 22.1406C26.8477 22.1406 26.638 22.0677 26.4922 21.9219C26.3281 21.7578 26.2461 21.612 26.2461 21.4844C26.2461 21.3568 26.319 21.2201 26.4648 21.0742C26.4831 21.056 26.5833 20.9102 26.7656 20.6367C27.1667 19.9987 27.6224 19.1875 28.1328 18.2031C28.6615 17.2005 28.9896 16.5169 29.1172 16.1523C29.2266 15.806 29.3268 15.5052 29.418 15.25C29.5273 14.9948 29.6185 14.8672 29.6914 14.8672C29.819 14.8672 29.9284 14.9128 30.0195 15.0039C30.1107 15.0768 30.2018 15.1862 30.293 15.332C30.4023 15.4596 30.4844 15.5508 30.5391 15.6055C30.6667 15.7513 30.7305 15.888 30.7305 16.0156C30.7305 16.1068 30.694 16.1979 30.6211 16.2891C30.5482 16.3802 30.5026 16.444 30.4844 16.4805L29.2812 18.5039C28.9714 19.069 28.5612 19.7708 28.0508 20.6094C27.9779 20.7005 27.9414 20.7917 27.9414 20.8828C27.9414 20.9557 28.0234 20.9922 28.1875 20.9922C28.5339 20.9922 29.181 20.9557 30.1289 20.8828C31.0768 20.7917 31.7148 20.7188 32.043 20.6641C32.5169 20.6094 32.8451 20.5547 33.0273 20.5C33.2279 20.4453 33.5195 20.582 33.9023 20.9102C34.3581 21.293 34.4583 21.5391 34.2031 21.6484C34.0573 21.7214 33.7747 21.7578 33.3555 21.7578H32.2617C32.0247 21.7578 31.651 21.776 31.1406 21.8125C30.8307 21.8125 30.4844 21.8216 30.1016 21.8398C29.7188 21.8581 29.3997 21.8763 29.1445 21.8945C28.8529 21.9128 28.2878 21.9674 27.4492 22.0586L27.1211 22.1406ZM11.207 18.0391L8.60938 18.2305H7.73438C7.51562 18.194 7.29688 18.1302 7.07812 18.0391C6.85938 17.9479 6.71354 17.8294 6.64062 17.6836L6.53125 17.4102C6.58594 17.2643 6.8138 17.1732 7.21484 17.1367L8.17188 17L9.86719 16.8086L11.207 16.6445V12.2695C10.6055 12.3424 10.0951 12.3971 9.67578 12.4336C9.25651 12.4701 8.88281 12.5065 8.55469 12.543C8.33594 12.5612 8.0625 12.5703 7.73438 12.5703C7.3151 12.5703 7.02344 12.5339 6.85938 12.4609L6.14844 12.2148C5.96615 12.543 5.76562 12.8802 5.54688 13.2266C5.36458 13.5729 5.01823 14.056 4.50781 14.6758C3.9974 15.3138 3.54167 15.806 3.14062 16.1523L2.48438 16.2617L2.75781 15.8242C2.95833 15.5326 3.19531 15.1497 3.46875 14.6758C3.76042 14.2018 4.0612 13.6185 4.37109 12.9258C4.68099 12.2331 4.92708 11.6406 5.10938 11.1484C5.29167 10.6562 5.44661 10.1641 5.57422 9.67188C5.72005 9.17969 5.83854 8.74219 5.92969 8.35938C6.0026 7.97656 6.03906 7.62109 6.03906 7.29297C6.03906 7.0013 6.09375 6.8099 6.20312 6.71875C6.36719 6.70052 6.57682 6.73698 6.83203 6.82812C7.14193 6.95573 7.38802 7.11068 7.57031 7.29297C7.77083 7.45703 7.9349 7.63932 8.0625 7.83984C8.17188 7.98568 8.22656 8.15885 8.22656 8.35938L7.95312 8.71484C7.78906 8.91536 7.61589 9.20703 7.43359 9.58984L6.53125 11.5859C7.66146 11.4583 8.31771 11.3763 8.5 11.3398L11.2617 10.957V7.45703C11.2617 6.80078 11.2253 6.14453 11.1523 5.48828C11.0612 4.83203 10.9427 4.33984 10.7969 4.01172C10.6875 3.75651 10.6328 3.53776 10.6328 3.35547C10.6328 3.17318 10.6875 3.04557 10.7969 2.97266C10.888 2.89974 11.0521 2.86328 11.2891 2.86328C11.5443 2.88151 11.8177 2.92708 12.1094 3C12.401 3.07292 12.7109 3.19141 13.0391 3.35547C13.3672 3.5013 13.5859 3.66536 13.6953 3.84766L13.8867 4.25781C13.8867 4.40365 13.8229 4.59505 13.6953 4.83203C13.513 5.16016 13.3854 5.55208 13.3125 6.00781C13.2396 6.46354 13.1849 6.91016 13.1484 7.34766L12.957 10.6836L15.4727 10.1367L16.8672 9.83594C17.1224 9.83594 17.4049 9.86328 17.7148 9.91797C18.0977 9.99089 18.3802 10.1185 18.5625 10.3008C18.7448 10.4648 18.8451 10.638 18.8633 10.8203L18.3438 11.1211C18.1979 11.194 17.9427 11.2578 17.5781 11.3125L16.9219 11.4492L12.9297 12.0781L12.7656 16.5352L14.8984 16.1523L15.2539 16.0977C15.4544 16.0977 15.7917 16.125 16.2656 16.1797C16.776 16.2344 17.1771 16.3346 17.4688 16.4805C17.724 16.6263 17.8151 16.8359 17.7422 17.1094C17.5599 17.2734 17.3411 17.3737 17.0859 17.4102L15.8281 17.5742L14.0508 17.7383L12.7656 17.875L12.6562 22.5234C13.3854 22.4688 14.0964 22.4232 14.7891 22.3867C15.4818 22.3503 16.1654 22.2865 16.8398 22.1953C17.5143 22.1224 18.1068 22.0495 18.6172 21.9766C19.1276 21.9036 19.5469 21.8398 19.875 21.7852C20.2031 21.7122 20.4401 21.6758 20.5859 21.6758C20.7682 21.6758 20.9961 21.7122 21.2695 21.7852C21.543 21.8581 21.862 21.9857 22.2266 22.168C22.5911 22.3685 22.8372 22.5781 22.9648 22.7969L23.1016 23.2344C23.0469 23.3984 22.9193 23.4896 22.7188 23.5078L21.8438 23.5898H18.9453L15.0898 23.6992L11.2617 23.7812C10.0039 23.8359 8.8737 23.9271 7.87109 24.0547C6.86849 24.1823 6.26693 24.2643 6.06641 24.3008L4.80859 24.5195L3.52344 24.7383L3.03125 24.793C2.77604 24.793 2.52995 24.7565 2.29297 24.6836C2.0013 24.5924 1.73698 24.4648 1.5 24.3008C1.28125 24.1549 1.10807 23.9271 0.980469 23.6172L1.11719 23.4258L1.5 23.3984L2.48438 23.3164L4.78125 23.1523L7.1875 22.9883L11.1523 22.5508L11.207 18.0391Z" fill="#333333"/>
<path d="M68.2734 9.23438C68.2552 9.23438 68.1914 9.2526 68.082 9.28906C67.9909 9.30729 67.9453 9.27995 67.9453 9.20703C67.9453 9.1888 67.9818 9.15234 68.0547 9.09766C68.1276 9.02474 68.1914 8.96094 68.2461 8.90625C68.3008 8.85156 68.3828 8.77865 68.4922 8.6875C68.6016 8.57812 68.6836 8.46875 68.7383 8.35938C69.0117 7.90365 69.2031 7.44792 69.3125 6.99219L69.4766 6.03516C69.6042 5.32422 69.6589 4.49479 69.6406 3.54688C69.6406 3.32812 69.6133 3.10026 69.5586 2.86328C69.5404 2.75391 69.4492 2.59896 69.2852 2.39844V2.37109C69.2852 2.33464 69.3307 2.31641 69.4219 2.31641C69.5495 2.31641 69.6589 2.32552 69.75 2.34375C69.987 2.39844 70.2513 2.42578 70.543 2.42578C70.8529 2.40755 71.0443 2.39844 71.1172 2.39844L72.9492 2.26172C73.3138 2.22526 73.5508 2.20703 73.6602 2.20703C74.444 2.09766 74.7995 2.05208 74.7266 2.07031C75.1458 1.9974 75.401 1.96094 75.4922 1.96094C75.7839 1.97917 76.0755 2.20703 76.3672 2.64453L76.4219 2.78125C76.4219 2.89062 76.3398 2.95443 76.1758 2.97266C76.0117 2.99089 75.9115 3 75.875 3C75.3099 3 74.8906 3.00911 74.6172 3.02734C73.9245 3.02734 73.4141 3.03646 73.0859 3.05469L72.3203 3.10938L70.7617 3.27344C70.6523 4.80469 70.5521 5.80729 70.4609 6.28125C70.3151 7.13802 70.0326 7.83073 69.6133 8.35938C69.3034 8.76042 68.8568 9.05208 68.2734 9.23438ZM75.1641 16.9727C74.8906 16.9727 74.6263 16.7721 74.3711 16.3711C74.043 15.8607 73.724 15.4414 73.4141 15.1133L72.7031 14.375C72.3203 14.8125 71.9831 15.1589 71.6914 15.4141C71.418 15.6693 71.0716 15.9154 70.6523 16.1523C69.8685 16.6081 69.2122 16.8359 68.6836 16.8359C68.556 16.8359 68.4922 16.7904 68.4922 16.6992C68.4922 16.6445 68.6654 16.526 69.0117 16.3438C69.3581 16.1615 69.6862 15.9427 69.9961 15.6875C70.7799 15.0312 71.4271 14.3568 71.9375 13.6641C71.8281 13.5547 71.2812 13.0807 70.2969 12.2422C70.1693 12.151 69.9779 11.9961 69.7227 11.7773C69.668 11.7409 69.5586 11.6589 69.3945 11.5312C69.2305 11.4036 69.1484 11.3125 69.1484 11.2578C69.1484 11.1667 69.194 11.1211 69.2852 11.1211C69.5586 11.1211 69.9961 11.3125 70.5977 11.6953C71.1992 12.0599 71.8281 12.4974 72.4844 13.0078C72.7396 12.6979 72.9401 12.4062 73.0859 12.1328C73.2318 11.8594 73.3958 11.5221 73.5781 11.1211C73.6693 10.9206 73.724 10.7474 73.7422 10.6016C73.7604 10.4375 73.7695 10.3372 73.7695 10.3008C73.7695 10.1003 73.8242 10 73.9336 10C74.0612 10 74.2344 10.1003 74.4531 10.3008C74.8359 10.6654 75.0273 10.9115 75.0273 11.0391C75.0273 11.112 74.9818 11.194 74.8906 11.2852C74.6719 11.5039 74.4714 11.7956 74.2891 12.1602C74.1797 12.3789 73.9792 12.6888 73.6875 13.0898C73.5964 13.1992 73.5234 13.2995 73.4688 13.3906C73.4141 13.4818 73.3594 13.5638 73.3047 13.6367C73.724 13.9466 74.3438 14.4753 75.1641 15.2227C75.3646 15.4049 75.4922 15.5781 75.5469 15.7422C75.6198 15.888 75.6562 16.0885 75.6562 16.3438C75.6562 16.526 75.6107 16.681 75.5195 16.8086C75.4284 16.918 75.3099 16.9727 75.1641 16.9727ZM72.4844 25.3945C71.5911 25.3945 70.8711 25.1667 70.3242 24.7109C69.7409 24.2005 69.4492 23.6081 69.4492 22.9336C69.4492 22.3503 69.6589 21.8763 70.0781 21.5117C70.2604 21.3477 70.5065 21.2109 70.8164 21.1016C71.1263 20.974 71.418 20.9102 71.6914 20.9102C71.8737 20.9102 71.974 20.901 71.9922 20.8828C72.0286 20.8464 72.056 20.7552 72.0742 20.6094C72.0924 20.4818 72.1016 20.2174 72.1016 19.8164C72.0833 19.7435 72.0742 19.6159 72.0742 19.4336C70.944 19.543 70.1055 19.6523 69.5586 19.7617C69.431 19.7799 69.276 19.7526 69.0938 19.6797C68.9297 19.5885 68.793 19.4792 68.6836 19.3516C68.5742 19.224 68.5378 19.1328 68.5742 19.0781C68.6471 19.0052 68.7201 18.9596 68.793 18.9414C68.8659 18.9049 68.9844 18.8867 69.1484 18.8867C69.7135 18.8867 70.1237 18.8685 70.3789 18.832L74.207 18.4492C74.2617 18.4492 74.3893 18.4401 74.5898 18.4219C74.8086 18.4036 75.0091 18.3672 75.1914 18.3125H75.2734C75.3464 18.3125 75.4102 18.3398 75.4648 18.3945C75.5378 18.431 75.5833 18.4492 75.6016 18.4492C75.875 18.668 76.0117 18.8594 76.0117 19.0234C76.0117 19.151 75.9023 19.2148 75.6836 19.2148L75.3555 19.1875C75.2643 19.1693 74.8086 19.1875 73.9883 19.2422L73.168 19.2969C73.1862 19.5156 73.1862 19.7891 73.168 20.1172C73.1497 20.4271 73.1315 20.6914 73.1133 20.9102L73.1406 21.2109C73.1406 21.3203 73.1042 21.4206 73.0312 21.5117C72.9219 21.694 72.7396 21.7852 72.4844 21.7852C72.3385 21.7852 72.2109 21.776 72.1016 21.7578L71.8281 21.7031C71.5365 21.6849 71.2266 21.8034 70.8984 22.0586C70.625 22.332 70.4883 22.6237 70.4883 22.9336C70.4883 23.3529 70.6615 23.7083 71.0078 24C71.2083 24.1641 71.418 24.2734 71.6367 24.3281C71.8737 24.401 72.1562 24.4375 72.4844 24.4375C72.9219 24.4375 73.332 24.3646 73.7148 24.2188C74.0977 24.0729 74.3802 23.8542 74.5625 23.5625C74.6354 23.4349 74.6992 23.362 74.7539 23.3438C74.8086 23.3073 74.9089 23.2891 75.0547 23.2891C75.2005 23.2891 75.319 23.3346 75.4102 23.4258C75.5195 23.5352 75.5742 23.6445 75.5742 23.7539C75.5742 24.082 75.2734 24.4375 74.6719 24.8203C74.0703 25.2031 73.3411 25.3945 72.4844 25.3945ZM80.7422 13.0898C80.9609 13.0898 81.0703 13.1901 81.0703 13.3906C81.0703 13.5 80.9701 13.6549 80.7695 13.8555C80.2227 14.5299 79.138 15.8151 77.5156 17.7109C77.388 17.875 77.2695 17.957 77.1602 17.957C77.069 17.957 76.8685 17.8203 76.5586 17.5469C76.3034 17.3281 76.1758 17.1458 76.1758 17C76.1758 16.8359 76.3125 16.681 76.5859 16.5352C77.0052 16.2982 77.6341 15.8242 78.4727 15.1133C79.3112 14.3659 79.931 13.7734 80.332 13.3359C80.4961 13.1719 80.6328 13.0898 80.7422 13.0898ZM43.1992 10.3828L42.6797 9.80859L42.5977 9.53516L42.8438 9.34375L43.7461 9.50781C44.293 9.63542 44.7578 9.77214 45.1406 9.91797C45.5417 10.082 45.8151 10.2279 45.9609 10.3555C46.1068 10.4831 46.2161 10.6289 46.2891 10.793C46.3438 10.9388 46.3802 11.2122 46.3984 11.6133C46.3984 11.9232 46.3073 12.1693 46.125 12.3516L45.7148 12.4883C45.4961 12.4883 45.2591 12.4336 45.0039 12.3242C44.7122 12.1966 44.3659 11.8867 43.9648 11.3945L43.1992 10.3828ZM46.8906 15.9609L47.8477 14.2383L48.1484 14.0742L48.3125 14.457L47.793 15.8242L47.2188 17.3008L46.8086 18.2852L46.3438 19.3789L45.7695 20.6367C45.6602 20.8919 45.5508 21.1745 45.4414 21.4844L45.0859 22.5508C44.9948 22.7878 44.9128 22.9792 44.8398 23.125L44.3477 23.4531C44.2018 23.4167 44.0924 23.3346 44.0195 23.207C43.9102 23.0794 43.819 22.8789 43.7461 22.6055L43.3359 21.457C43.263 21.2747 43.2083 21.0833 43.1719 20.8828L43.1992 20.6094C43.2904 20.4453 43.4727 20.2539 43.7461 20.0352C44.0013 19.8164 44.2474 19.5794 44.4844 19.3242C44.7031 19.0872 44.9766 18.7591 45.3047 18.3398C45.6146 17.9206 45.8971 17.5195 46.1523 17.1367C46.4076 16.7721 46.6536 16.3802 46.8906 15.9609ZM46.1523 3.98438L46.5078 4.03906C46.7812 4.09375 47.1914 4.19401 47.7383 4.33984C48.2852 4.48568 48.668 4.64974 48.8867 4.83203C49.1237 5.05078 49.2969 5.26042 49.4062 5.46094C49.5156 5.67969 49.5703 5.89844 49.5703 6.11719C49.5521 6.29948 49.5065 6.45443 49.4336 6.58203C49.3607 6.72786 49.2604 6.83724 49.1328 6.91016C49.0052 6.98307 48.8685 7.01953 48.7227 7.01953C48.5768 7.01953 48.4036 6.98307 48.2031 6.91016C48.0026 6.83724 47.7656 6.64583 47.4922 6.33594C47.2188 6.04427 47.0273 5.83464 46.918 5.70703C46.8268 5.59766 46.6081 5.30599 46.2617 4.83203L45.9062 4.01172L46.1523 3.98438ZM56.8711 6.55469C57.181 6.75521 57.4362 6.94661 57.6367 7.12891C57.819 7.29297 57.8828 7.52995 57.8281 7.83984C57.7188 8.05859 57.6276 8.25 57.5547 8.41406C57.5 8.59635 57.4544 8.78776 57.418 8.98828L57.0625 10.7656L59.7969 10.5742C59.9792 10.5742 60.4714 10.5195 61.2734 10.4102C62.0755 10.319 62.6315 10.2461 62.9414 10.1914C63.2695 10.1185 63.5065 10.082 63.6523 10.082C63.7799 10.1003 63.9167 10.1276 64.0625 10.1641C64.2266 10.2188 64.3906 10.2917 64.5547 10.3828C64.7188 10.474 64.9102 10.6016 65.1289 10.7656C65.3477 10.9115 65.4935 11.1393 65.5664 11.4492L65.3203 11.6953L63.8438 11.668C62.7682 11.6315 62.1667 11.6133 62.0391 11.6133C61.9115 11.6133 61.4831 11.6315 60.7539 11.668L59.3867 11.6953L56.8438 11.8867L56.0234 16.3984C56.5339 16.3073 56.9622 16.2253 57.3086 16.1523C57.6367 16.0977 57.9102 16.043 58.1289 15.9883L59.2773 15.6875C59.4232 15.6693 59.6237 15.6237 59.8789 15.5508L60.3438 15.4688C60.5625 15.487 60.7904 15.5417 61.0273 15.6328C61.2461 15.724 61.4648 15.8333 61.6836 15.9609C61.9023 16.0885 62.0938 16.2253 62.2578 16.3711C62.4219 16.5169 62.5404 16.6445 62.6133 16.7539L62.6953 17.1094L62.4492 17.3828C62.2852 17.5104 62.1576 17.6471 62.0664 17.793C61.957 17.9388 61.8477 18.1029 61.7383 18.2852C61.6289 18.4857 61.5378 18.6953 61.4648 18.9141L60.6445 21.5391C60.8997 21.7031 61.0729 21.8398 61.1641 21.9492L61.2734 22.25C61.1823 22.3776 61.0365 22.4414 60.8359 22.4414H60.2344C59.9245 22.4414 59.5234 22.4505 59.0312 22.4688C58.5391 22.487 58.0013 22.5326 57.418 22.6055C56.8346 22.6419 56.4792 22.6602 56.3516 22.6602L53.4531 22.7422L53.3164 23.2617L52.9336 23.4258L52.6602 23.1797C52.4596 22.9609 52.332 22.7422 52.2773 22.5234C52.2409 22.3229 52.1771 21.9128 52.0859 21.293L51.7852 19.2148C51.7305 18.7956 51.6758 18.4766 51.6211 18.2578C51.5846 18.0391 51.5117 17.8659 51.4023 17.7383C51.3294 17.6107 51.2383 17.4831 51.1289 17.3555C51.0195 17.2279 50.9102 17.1185 50.8008 17.0273L50.6641 16.6992C50.7552 16.5898 50.8828 16.5352 51.0469 16.5352C51.4661 16.5352 51.7487 16.5534 51.8945 16.5898L52.4961 16.7539H53.4258L54.6836 16.5898L55.1758 12.0234C54.4831 12.1146 53.9362 12.1966 53.5352 12.2695L52.168 12.543C51.6393 12.6523 51.2565 12.7435 51.0195 12.8164L50.5273 12.9258C50.2174 12.9258 49.9531 12.8711 49.7344 12.7617L48.9688 12.2969L48.5586 11.9688L48.5859 11.75C48.6589 11.6589 48.7865 11.6133 48.9688 11.6133H49.4609C49.625 11.6133 49.862 11.5951 50.1719 11.5586C50.4818 11.5404 50.819 11.513 51.1836 11.4766C51.5482 11.4401 52.1042 11.3763 52.8516 11.2852L55.3398 10.957L55.5586 8.6875C55.5768 8.48698 55.5859 8.32292 55.5859 8.19531L55.5586 7.92188C55.5586 7.6849 55.5221 7.48438 55.4492 7.32031L55.2578 6.9375L54.2461 7.10156C53.8997 7.15625 53.6263 7.18359 53.4258 7.18359L52.6602 7.26562L51.7852 7.375L50.9102 7.42969L50.6367 7.32031C50.6367 7.17448 50.7461 7.07422 50.9648 7.01953L51.6211 6.88281C52.0221 6.79167 52.3594 6.71875 52.6328 6.66406C52.888 6.60938 53.2708 6.50911 53.7812 6.36328L55.5586 5.81641C56.2513 5.59766 56.7799 5.40625 57.1445 5.24219L58.3477 4.66797C58.7305 4.48568 59.0677 4.26693 59.3594 4.01172L59.9336 3.62891C60.1159 3.61068 60.2982 3.64714 60.4805 3.73828C60.7174 3.84766 60.9635 4.0026 61.2188 4.20312C61.4557 4.40365 61.6654 4.59505 61.8477 4.77734L62.0938 5.10547L62.0391 5.32422C61.9479 5.41536 61.8021 5.47005 61.6016 5.48828C61.3828 5.48828 61.1276 5.52474 60.8359 5.59766L59.7422 5.87109C59.5781 5.90755 59.2135 5.9987 58.6484 6.14453L57.582 6.41797L56.8711 6.55469ZM53.4805 21.7852L55.4492 21.6758C55.668 21.6758 56.1602 21.6302 56.9258 21.5391L58.293 21.4023L59.0039 21.293L59.7148 18.5039C59.7878 18.2669 59.8516 18.0117 59.9062 17.7383L59.9336 17.5195L59.8789 17.1641C59.806 17.0365 59.6875 16.9271 59.5234 16.8359L59.1133 16.7539C58.8581 16.7539 58.5117 16.7904 58.0742 16.8633C57.6732 16.9362 57.0716 17.0273 56.2695 17.1367L54.4648 17.3828L53.1523 17.6016L53.4805 21.7852Z" fill="#333333"/>
<path d="M110.273 9.23438C110.255 9.23438 110.191 9.2526 110.082 9.28906C109.991 9.30729 109.945 9.27995 109.945 9.20703C109.945 9.1888 109.982 9.15234 110.055 9.09766C110.128 9.02474 110.191 8.96094 110.246 8.90625C110.301 8.85156 110.383 8.77865 110.492 8.6875C110.602 8.57812 110.684 8.46875 110.738 8.35938C111.012 7.90365 111.203 7.44792 111.312 6.99219L111.477 6.03516C111.604 5.32422 111.659 4.49479 111.641 3.54688C111.641 3.32812 111.613 3.10026 111.559 2.86328C111.54 2.75391 111.449 2.59896 111.285 2.39844V2.37109C111.285 2.33464 111.331 2.31641 111.422 2.31641C111.549 2.31641 111.659 2.32552 111.75 2.34375C111.987 2.39844 112.251 2.42578 112.543 2.42578C112.853 2.40755 113.044 2.39844 113.117 2.39844L114.949 2.26172C115.314 2.22526 115.551 2.20703 115.66 2.20703C116.444 2.09766 116.799 2.05208 116.727 2.07031C117.146 1.9974 117.401 1.96094 117.492 1.96094C117.784 1.97917 118.076 2.20703 118.367 2.64453L118.422 2.78125C118.422 2.89062 118.34 2.95443 118.176 2.97266C118.012 2.99089 117.911 3 117.875 3C117.31 3 116.891 3.00911 116.617 3.02734C115.924 3.02734 115.414 3.03646 115.086 3.05469L114.32 3.10938L112.762 3.27344C112.652 4.80469 112.552 5.80729 112.461 6.28125C112.315 7.13802 112.033 7.83073 111.613 8.35938C111.303 8.76042 110.857 9.05208 110.273 9.23438ZM117.164 16.9727C116.891 16.9727 116.626 16.7721 116.371 16.3711C116.043 15.8607 115.724 15.4414 115.414 15.1133L114.703 14.375C114.32 14.8125 113.983 15.1589 113.691 15.4141C113.418 15.6693 113.072 15.9154 112.652 16.1523C111.868 16.6081 111.212 16.8359 110.684 16.8359C110.556 16.8359 110.492 16.7904 110.492 16.6992C110.492 16.6445 110.665 16.526 111.012 16.3438C111.358 16.1615 111.686 15.9427 111.996 15.6875C112.78 15.0312 113.427 14.3568 113.938 13.6641C113.828 13.5547 113.281 13.0807 112.297 12.2422C112.169 12.151 111.978 11.9961 111.723 11.7773C111.668 11.7409 111.559 11.6589 111.395 11.5312C111.23 11.4036 111.148 11.3125 111.148 11.2578C111.148 11.1667 111.194 11.1211 111.285 11.1211C111.559 11.1211 111.996 11.3125 112.598 11.6953C113.199 12.0599 113.828 12.4974 114.484 13.0078C114.74 12.6979 114.94 12.4062 115.086 12.1328C115.232 11.8594 115.396 11.5221 115.578 11.1211C115.669 10.9206 115.724 10.7474 115.742 10.6016C115.76 10.4375 115.77 10.3372 115.77 10.3008C115.77 10.1003 115.824 10 115.934 10C116.061 10 116.234 10.1003 116.453 10.3008C116.836 10.6654 117.027 10.9115 117.027 11.0391C117.027 11.112 116.982 11.194 116.891 11.2852C116.672 11.5039 116.471 11.7956 116.289 12.1602C116.18 12.3789 115.979 12.6888 115.688 13.0898C115.596 13.1992 115.523 13.2995 115.469 13.3906C115.414 13.4818 115.359 13.5638 115.305 13.6367C115.724 13.9466 116.344 14.4753 117.164 15.2227C117.365 15.4049 117.492 15.5781 117.547 15.7422C117.62 15.888 117.656 16.0885 117.656 16.3438C117.656 16.526 117.611 16.681 117.52 16.8086C117.428 16.918 117.31 16.9727 117.164 16.9727ZM114.402 25.668C114.275 25.668 114.184 25.6315 114.129 25.5586C114.074 25.4857 114.038 25.4401 114.02 25.4219C113.837 25.1667 113.755 24.9206 113.773 24.6836C113.792 24.5378 113.819 24.1458 113.855 23.5078L113.883 22.1953C113.865 21.9948 113.846 21.8763 113.828 21.8398C113.81 21.7852 113.728 21.6758 113.582 21.5117C113.29 21.1471 112.953 20.7734 112.57 20.3906C112.133 19.9531 111.85 19.6615 111.723 19.5156C111.723 19.5156 111.449 19.2422 110.902 18.6953C110.848 18.6406 110.82 18.5859 110.82 18.5312C110.82 18.4401 110.875 18.3672 110.984 18.3125C111.112 18.2396 111.24 18.2122 111.367 18.2305C111.732 18.2669 111.969 18.3125 112.078 18.3672C112.206 18.4036 112.324 18.513 112.434 18.6953C112.543 18.8776 112.698 19.0964 112.898 19.3516C113.117 19.5885 113.281 19.7708 113.391 19.8984C113.846 20.4453 114.165 20.8099 114.348 20.9922C114.676 20.6094 115.086 20.0625 115.578 19.3516C115.979 18.8411 116.216 18.4219 116.289 18.0938C116.362 17.8568 116.471 17.7383 116.617 17.7383C116.69 17.7383 116.799 17.7839 116.945 17.875C117.419 18.1667 117.656 18.4036 117.656 18.5859C117.656 18.6953 117.538 18.832 117.301 18.9961C116.973 19.2331 116.699 19.4974 116.48 19.7891L115.934 20.4727C115.569 20.9102 115.296 21.2565 115.113 21.5117C115.022 21.6758 114.977 21.9128 114.977 22.2227V23.8906V24.9844C114.995 25.112 114.922 25.2578 114.758 25.4219C114.612 25.5859 114.493 25.668 114.402 25.668ZM122.742 13.0898C122.961 13.0898 123.07 13.1901 123.07 13.3906C123.07 13.5 122.97 13.6549 122.77 13.8555C122.223 14.5299 121.138 15.8151 119.516 17.7109C119.388 17.875 119.27 17.957 119.16 17.957C119.069 17.957 118.868 17.8203 118.559 17.5469C118.303 17.3281 118.176 17.1458 118.176 17C118.176 16.8359 118.312 16.681 118.586 16.5352C119.005 16.2982 119.634 15.8242 120.473 15.1133C121.311 14.3659 121.931 13.7734 122.332 13.3359C122.496 13.1719 122.633 13.0898 122.742 13.0898ZM98.4609 4.42188C98.5703 4.0026 98.6432 3.70182 98.6797 3.51953C98.6979 3.33724 98.7253 3.11849 98.7617 2.86328C98.7982 2.58984 98.8255 2.34375 98.8438 2.125C98.8438 1.86979 98.8255 1.66927 98.7891 1.52344L98.7344 1.16797C98.7526 1.02214 98.8529 0.921875 99.0352 0.867187C99.1992 0.848958 99.3542 0.867188 99.5 0.921875C99.7552 1.01302 99.974 1.11328 100.156 1.22266C100.339 1.33203 100.512 1.45964 100.676 1.60547L100.949 1.96094C100.949 2.08854 100.885 2.26172 100.758 2.48047C100.667 2.6263 100.585 2.75391 100.512 2.86328L100.266 3.41016L99.8828 4.23047C100.302 4.17578 100.639 4.12109 100.895 4.06641C101.168 4.02995 101.487 3.95703 101.852 3.84766C102.216 3.75651 102.462 3.70182 102.59 3.68359C102.736 3.68359 102.882 3.71094 103.027 3.76562C103.21 3.80208 103.41 3.88411 103.629 4.01172C103.848 4.12109 104.012 4.22135 104.121 4.3125L104.285 4.50391L104.176 4.77734C104.03 4.85026 103.884 4.90495 103.738 4.94141L103.41 4.96875L102.617 5.02344C102.089 5.07812 101.533 5.11458 100.949 5.13281C100.384 5.16927 100.029 5.19661 99.8828 5.21484L99.4727 5.26953L99.2812 5.67969L98.8984 6.36328L98.4609 7.12891L98.1602 7.51172L97.6406 7.62109L97.8047 7.01953L98.2148 5.48828L97.668 5.57031L96.793 5.67969L96.4375 5.57031C96.3099 5.4974 96.1823 5.43359 96.0547 5.37891C95.9271 5.30599 95.7904 5.16016 95.6445 4.94141C95.681 4.83203 95.7904 4.76823 95.9727 4.75L96.4102 4.72266C96.8477 4.6862 97.2305 4.64974 97.5586 4.61328L98.4609 4.42188ZM91.3242 5.10547C91.2148 4.70443 91.1419 4.44922 91.1055 4.33984C91.069 4.23047 90.9779 3.99349 90.832 3.62891C90.6862 3.26432 90.5586 3.00911 90.4492 2.86328C90.3398 2.71745 90.2669 2.51693 90.2305 2.26172C90.3034 2.11589 90.4583 2.03385 90.6953 2.01562C90.8958 2.01562 91.0781 2.02474 91.2422 2.04297C91.4609 2.09766 91.6523 2.15234 91.8164 2.20703L92.1445 2.31641L92.3633 2.45312L92.5547 2.64453C92.5729 2.75391 92.5638 2.9362 92.5273 3.19141L92.5 3.46484C92.5 3.64714 92.5091 3.79297 92.5273 3.90234L92.6367 4.94141L94.1133 4.66797L94.5508 4.69531C94.7695 4.71354 94.8971 4.80469 94.9336 4.96875C94.9336 5.09635 94.8607 5.17839 94.7148 5.21484L92.7188 5.76172L92.8281 7.48438L92.8008 7.86719C92.7643 8.03125 92.6094 8.11328 92.3359 8.11328C92.1536 7.93099 92.0352 7.71224 91.9805 7.45703L91.6523 6.08984L90.4492 6.41797C90.2305 6.47266 90.0026 6.54557 89.7656 6.63672C89.5286 6.74609 89.3555 6.82812 89.2461 6.88281L88.7812 6.96484C88.5443 6.85547 88.3711 6.74609 88.2617 6.63672C88.1523 6.52734 88.0156 6.3724 87.8516 6.17188C87.6875 5.97135 87.5599 5.74349 87.4688 5.48828L87.6602 5.29688C87.7695 5.27865 87.8971 5.28776 88.043 5.32422C88.1888 5.34245 88.3255 5.36068 88.4531 5.37891C88.5807 5.39714 88.7448 5.40625 88.9453 5.40625C89.1458 5.38802 89.4284 5.36068 89.793 5.32422L91.3242 5.10547ZM94.6602 9.80859C93.8945 9.84505 93.1745 9.89062 92.5 9.94531C91.8255 10 91.3971 10.0273 91.2148 10.0273C90.668 10.0273 90.2852 9.99089 90.0664 9.91797C89.8294 9.84505 89.6107 9.74479 89.4102 9.61719L89.1641 9.31641C89.2188 9.17057 89.3919 9.08854 89.6836 9.07031L90.8867 8.98828C91.3242 8.98828 92.0716 8.93359 93.1289 8.82422C94.2044 8.71484 94.9974 8.6237 95.5078 8.55078C96.0365 8.49609 96.7474 8.40495 97.6406 8.27734C98.5339 8.13151 99.2539 8.00391 99.8008 7.89453C100.348 7.78516 100.749 7.73047 101.004 7.73047C101.259 7.73047 101.514 7.76693 101.77 7.83984C102.007 7.93099 102.216 8.04036 102.398 8.16797L102.672 8.44141L102.59 8.66016C102.48 8.76953 102.234 8.86068 101.852 8.93359L101.168 9.04297L99.418 9.28906C98.6341 9.38021 98.0964 9.44401 97.8047 9.48047L96.3828 9.58984C96.5469 9.69922 96.6745 9.81771 96.7656 9.94531C96.8568 10.0547 96.8932 10.2005 96.875 10.3828L96.7109 10.7656C96.6198 10.9844 96.556 11.2669 96.5195 11.6133C96.4831 11.9596 96.4557 12.3789 96.4375 12.8711L96.3555 16.3984C97.3763 16.3438 98.1419 16.2891 98.6523 16.2344L101.113 15.9609C102.061 15.8698 102.79 15.7695 103.301 15.6602C103.811 15.5508 104.167 15.4961 104.367 15.4961C104.568 15.5143 104.777 15.5599 104.996 15.6328C105.197 15.7057 105.47 15.8333 105.816 16.0156C106.181 16.1797 106.436 16.3346 106.582 16.4805L106.801 16.7266C106.801 16.8906 106.719 17.0091 106.555 17.082C106.391 17.1549 106.163 17.1914 105.871 17.1914L103.547 17.2461H100.977L98.1328 17.3281L96.3555 17.3828L96.3008 19.8711L98.2148 19.6523C98.8346 19.5977 99.3633 19.5247 99.8008 19.4336C100.257 19.3607 100.566 19.3242 100.73 19.3242C100.949 19.3242 101.141 19.3607 101.305 19.4336C101.469 19.4883 101.706 19.5977 102.016 19.7617C102.326 19.9076 102.535 20.0625 102.645 20.2266L102.754 20.582C102.717 20.6914 102.553 20.7643 102.262 20.8008L101.168 20.8555H99.418L97.668 20.9648L96.2734 21.0742L96.1367 23.0156L96.0547 24.1914C96.0365 24.4102 95.9909 24.7018 95.918 25.0664C95.8451 25.431 95.7539 25.7227 95.6445 25.9414L95.3711 26.2695C95.1888 26.2695 95.0703 26.1419 95.0156 25.8867C94.9609 25.6315 94.9336 25.2305 94.9336 24.6836L94.8516 21.2109L93.7305 21.3477C93.4023 21.3841 92.9831 21.457 92.4727 21.5664C92.0169 21.6576 91.6706 21.7031 91.4336 21.7031C91.1784 21.7031 90.8594 21.6576 90.4766 21.5664C90.0938 21.457 89.793 21.3477 89.5742 21.2383C89.3919 21.0924 89.3008 20.9557 89.3008 20.8281C89.3372 20.7005 89.4375 20.6276 89.6016 20.6094L90.5039 20.5273L91.9258 20.418C92.1445 20.3815 92.6732 20.3177 93.5117 20.2266L94.8789 20.0625L94.8516 17.4922C94.0677 17.5651 93.457 17.6289 93.0195 17.6836C92.582 17.7383 92.0716 17.8112 91.4883 17.9023C90.9232 18.0117 90.4128 18.1029 89.957 18.1758C89.5195 18.2487 89.0729 18.349 88.6172 18.4766C88.1615 18.6042 87.8333 18.668 87.6328 18.668C87.4688 18.6497 87.2044 18.5859 86.8398 18.4766C86.4753 18.3672 86.1289 18.2122 85.8008 18.0117C85.5273 17.8477 85.3906 17.6836 85.3906 17.5195C85.4635 17.3737 85.6367 17.2826 85.9102 17.2461L86.8125 17.2188C87.9974 17.1641 88.7266 17.1276 89 17.1094C89.2734 17.0911 89.8477 17.0365 90.7227 16.9453L92.7461 16.7266L94.8516 16.5352C94.8698 15.9154 94.8789 15.4414 94.8789 15.1133V11.1211C94.8789 10.8294 94.8607 10.6016 94.8242 10.4375L94.6602 9.80859ZM90.1211 13.1445C90.0482 12.8164 89.9844 12.5885 89.9297 12.4609C89.8932 12.3151 89.8477 12.151 89.793 11.9688C89.7201 11.7865 89.6107 11.5951 89.4648 11.3945L89.3008 11.0117C89.3372 10.8659 89.4466 10.7656 89.6289 10.7109C89.8112 10.6927 89.9935 10.7018 90.1758 10.7383L91.0234 10.9844C91.3333 11.0938 91.5065 11.2396 91.543 11.4219C91.5612 11.5312 91.5521 11.6497 91.5156 11.7773L91.4336 12.1328V12.8711C91.7799 12.8529 92.099 12.8255 92.3906 12.7891C92.6823 12.7526 92.901 12.7344 93.0469 12.7344C93.3021 12.7526 93.5391 12.8346 93.7578 12.9805L93.8672 13.418L93.0469 13.5547L91.543 13.7461L91.707 15.332C91.707 15.569 91.6979 15.7695 91.6797 15.9336C91.6615 16.1888 91.4974 16.3073 91.1875 16.2891C91.0234 16.0885 90.9049 15.8424 90.832 15.5508L90.3945 14.0195C90.0664 14.0924 89.8294 14.138 89.6836 14.1562L88.918 14.375C88.5352 14.4661 88.2435 14.5117 88.043 14.5117C87.8424 14.5117 87.6237 14.4753 87.3867 14.4023C87.1315 14.3294 86.931 14.2109 86.7852 14.0469L86.5938 13.7461C86.6302 13.6367 86.7487 13.5638 86.9492 13.5273L87.4961 13.4453L89 13.3086L90.1211 13.1445ZM101.496 11.9961C101.842 11.9596 102.198 11.8867 102.562 11.7773L103.191 11.6406C103.428 11.6224 103.693 11.668 103.984 11.7773C104.258 11.8867 104.513 12.0143 104.75 12.1602L104.941 12.6797C104.723 12.8073 104.467 12.8711 104.176 12.8711L103.547 12.9258L102.809 12.9531L101.988 12.9805L101.031 13.0898C100.922 13.3997 100.812 13.6732 100.703 13.9102C100.612 14.1654 100.475 14.4297 100.293 14.7031C100.147 14.9766 100.01 15.1771 99.8828 15.3047L99.5273 15.7148L99.1719 15.6055L99.3906 14.7305L99.582 13.9102L99.7461 13.2539C99.3815 13.2904 99.0625 13.3451 98.7891 13.418L98.2422 13.5273L97.7227 13.3906C97.4492 13.2995 97.2396 13.1901 97.0938 13.0625V12.707L97.9414 12.543C98.4336 12.4701 98.7799 12.4154 98.9805 12.3789L99.8828 12.2695C99.9193 11.9232 99.9466 11.6133 99.9648 11.3398C100.001 11.0846 100.02 10.8477 100.02 10.6289C100.001 10.4466 99.9648 10.2643 99.9102 10.082L99.8828 9.78125C99.9193 9.65365 100.02 9.57161 100.184 9.53516C100.348 9.51693 100.548 9.58073 100.785 9.72656L101.77 10.2461L102.152 10.6016C102.134 10.7109 102.061 10.8568 101.934 11.0391L101.715 11.3945C101.642 11.5039 101.587 11.6224 101.551 11.75L101.496 11.9961Z" fill="#333333"/>
<path d="M153.887 16.918C153.285 16.6992 153.003 16.4622 153.039 16.207C153.148 15.4414 153.203 14.5664 153.203 13.582C153.203 13.1445 153.194 12.8255 153.176 12.625C153.158 12.388 153.139 12.1875 153.121 12.0234C153.103 11.8411 153.103 11.7409 153.121 11.7227C153.194 11.6497 153.285 11.6133 153.395 11.6133C153.559 11.6133 153.759 11.6862 153.996 11.832C154.251 11.9779 154.379 12.1237 154.379 12.2695C154.379 12.3607 154.37 12.4518 154.352 12.543C154.333 12.6159 154.324 12.6979 154.324 12.7891L154.16 15.4961C154.16 15.6419 154.215 15.7331 154.324 15.7695H154.461C154.607 15.7695 154.707 15.7604 154.762 15.7422L158.289 15.25V14.5391C158.289 13.6458 158.271 12.9531 158.234 12.4609C158.216 12.0417 158.171 11.7044 158.098 11.4492C158.043 11.1576 158.116 11.0117 158.316 11.0117C158.462 11.0117 158.654 11.0664 158.891 11.1758C159.182 11.3216 159.355 11.4492 159.41 11.5586C159.465 11.6497 159.483 11.7956 159.465 11.9961C159.428 12.3242 159.41 12.8164 159.41 13.4727L159.438 15.5508C159.438 15.9883 159.355 16.3346 159.191 16.5898C159.1 16.6992 159.009 16.7539 158.918 16.7539C158.827 16.7539 158.699 16.6719 158.535 16.5078C158.499 16.4714 158.453 16.4167 158.398 16.3438C158.344 16.2708 158.289 16.2253 158.234 16.207C158.18 16.1888 158.107 16.1797 158.016 16.1797C157.596 16.2161 156.585 16.3529 154.98 16.5898C154.707 16.6263 154.488 16.6992 154.324 16.8086C154.142 16.8997 154.023 16.9453 153.969 16.9453L153.887 16.918ZM164.852 7.78516C164.906 7.78516 164.961 7.8125 165.016 7.86719C165.07 7.90365 165.107 7.95833 165.125 8.03125V8.08594C165.125 8.21354 165.025 8.45964 164.824 8.82422L162.855 12.2422C162.71 12.5521 162.518 12.707 162.281 12.707C162.044 12.707 161.844 12.5612 161.68 12.2695C161.516 12.0326 161.315 11.6771 161.078 11.2031C160.969 11.0391 160.878 10.875 160.805 10.7109C160.732 10.5469 160.677 10.4284 160.641 10.3555C160.44 10.0091 160.34 9.76302 160.34 9.61719C160.34 9.54427 160.367 9.48958 160.422 9.45312C160.477 9.39844 160.531 9.37109 160.586 9.37109C160.786 9.37109 160.969 9.48047 161.133 9.69922C161.26 9.82682 161.361 9.96354 161.434 10.1094L161.734 10.5195L162.281 11.1484L162.527 10.7656C162.783 10.3281 163.384 9.46224 164.332 8.16797C164.533 7.91276 164.706 7.78516 164.852 7.78516ZM139.832 10.5195C139.285 10.5924 138.848 10.6471 138.52 10.6836L137.809 10.7656C137.553 10.7656 137.289 10.7018 137.016 10.5742L136.605 10.1914C136.66 10.082 136.77 10.0273 136.934 10.0273C137.116 10.0091 137.289 9.99089 137.453 9.97266L140.023 9.58984C140.151 8.82422 140.251 8.1862 140.324 7.67578C140.379 7.29297 140.406 6.99219 140.406 6.77344L140.379 6.08984C139.85 6.16276 139.413 6.25391 139.066 6.36328C138.72 6.45443 138.456 6.5 138.273 6.5C138.128 6.5 137.982 6.49089 137.836 6.47266C137.599 6.4362 137.353 6.34505 137.098 6.19922C136.824 6.08984 136.633 5.88021 136.523 5.57031L137.262 5.37891L138.738 5.16016C139.704 5.01432 140.826 4.8138 142.102 4.55859C143.396 4.32161 144.234 4.13932 144.617 4.01172C144.982 3.90234 145.246 3.84766 145.41 3.84766C145.611 3.84766 145.82 3.88411 146.039 3.95703C146.258 4.04818 146.458 4.13932 146.641 4.23047C146.805 4.32161 146.987 4.45833 147.188 4.64062L147.434 5.13281C147.361 5.24219 147.224 5.30599 147.023 5.32422L145.547 5.37891C144.872 5.43359 144.253 5.4974 143.688 5.57031L141.719 5.84375C141.938 6.00781 142.129 6.16276 142.293 6.30859L142.539 6.60938L142.512 6.88281L142.32 7.21094C142.247 7.30208 142.174 7.46615 142.102 7.70312L141.828 8.49609L141.609 9.28906L142.703 9.07031C143.104 8.9974 143.441 8.92448 143.715 8.85156C143.988 8.77865 144.207 8.69661 144.371 8.60547L144.727 8.46875C144.872 8.45052 145.055 8.47786 145.273 8.55078C145.51 8.66016 145.793 8.8151 146.121 9.01562C146.431 9.21615 146.65 9.37109 146.777 9.48047L146.969 9.72656C146.969 9.8724 146.878 10.0456 146.695 10.2461C146.549 10.4284 146.44 10.5833 146.367 10.7109C146.294 10.8385 146.203 11.0391 146.094 11.3125C145.966 11.5859 145.884 11.7773 145.848 11.8867L145.438 13.0898L147.188 12.8711L148.391 12.6523C148.628 12.6706 148.865 12.7253 149.102 12.8164C149.32 12.9258 149.53 13.0443 149.73 13.1719C149.931 13.3177 150.104 13.4635 150.25 13.6094L150.305 14.0469C150.141 14.138 149.849 14.1927 149.43 14.2109L147.734 14.2383C146.24 14.293 144.745 14.3841 143.25 14.5117C141.773 14.6576 140.671 14.776 139.941 14.8672L137.781 15.168L136.742 15.332C136.542 15.332 136.323 15.3047 136.086 15.25C135.794 15.1953 135.557 15.1133 135.375 15.0039C135.193 14.8945 135.056 14.8034 134.965 14.7305L134.801 14.4297C134.928 14.3385 135.211 14.2656 135.648 14.2109L139.094 13.8281L139.832 10.5195ZM140.461 13.6914L143.906 13.3086L144.453 10.957C144.526 10.6471 144.562 10.4193 144.562 10.2734L144.453 10C144.344 9.90885 144.198 9.86328 144.016 9.86328C143.542 9.86328 143.013 9.91797 142.43 10.0273L141.363 10.2461L140.461 13.6914ZM138.875 17.5195L143.059 17C143.587 16.9453 143.952 16.8997 144.152 16.8633C144.353 16.8268 144.562 16.7721 144.781 16.6992L145.164 16.6172C145.346 16.6354 145.565 16.6992 145.82 16.8086C146.076 16.9544 146.404 17.1732 146.805 17.4648L147.406 18.0938L147.379 18.3672C147.324 18.4948 147.206 18.6589 147.023 18.8594C146.823 19.0599 146.659 19.2695 146.531 19.4883C146.385 19.707 146.285 19.8893 146.23 20.0352L145.465 21.8945L145.793 22.2227L145.82 22.6875L145.41 22.7148L143.332 22.8516L140.105 23.0977H139.258C139.185 23.2435 139.121 23.3802 139.066 23.5078L138.766 23.6719C138.656 23.6354 138.529 23.5352 138.383 23.3711C138.237 23.1888 138.146 22.8971 138.109 22.4961L137.754 19.5703C137.663 18.8594 137.59 18.4401 137.535 18.3125L137.426 18.0938L136.961 17.2734C137.07 17.1458 137.216 17.082 137.398 17.082C137.599 17.1003 137.818 17.1549 138.055 17.2461L138.875 17.5195ZM139.285 22.0586L141.062 21.8945L144.18 21.457L144.645 19.0234C144.681 18.7318 144.699 18.5039 144.699 18.3398C144.681 18.1758 144.617 18.0299 144.508 17.9023L143.988 17.8203L143.523 17.875L142.156 18.0117L140.926 18.2305L139.039 18.4492L139.148 19.7344L139.285 22.0586ZM132.148 7.56641C131.966 7.4388 131.829 7.32943 131.738 7.23828C131.647 7.12891 131.547 7.0013 131.438 6.85547C131.346 6.70964 131.237 6.5 131.109 6.22656C130.964 5.95312 130.836 5.6888 130.727 5.43359L130.289 4.36719L130.098 3.73828L130.453 3.60156L130.945 3.79297C131.073 3.82943 131.264 3.92057 131.52 4.06641C131.775 4.21224 131.975 4.33984 132.121 4.44922C132.249 4.54036 132.395 4.66797 132.559 4.83203C132.723 4.97786 132.859 5.1237 132.969 5.26953C133.06 5.41536 133.115 5.59766 133.133 5.81641L133.16 6.0625L133.133 6.36328C133.115 6.54557 133.078 6.70052 133.023 6.82812C132.987 6.95573 132.905 7.11979 132.777 7.32031L133.816 7.21094C134.09 7.15625 134.318 7.12891 134.5 7.12891C134.701 7.12891 134.919 7.16536 135.156 7.23828C135.411 7.3112 135.63 7.40234 135.812 7.51172L136.086 7.75781L135.84 8.11328L135.184 8.22266C135.056 8.25911 134.746 8.30469 134.254 8.35938C133.762 8.41406 133.352 8.47786 133.023 8.55078L131.082 8.93359C130.663 9.02474 130.28 9.11589 129.934 9.20703L128.977 9.45312C128.612 9.54427 128.32 9.64453 128.102 9.75391L127.664 9.89062C127.536 9.89062 127.391 9.86328 127.227 9.80859C127.008 9.77214 126.844 9.72656 126.734 9.67188C126.625 9.63542 126.488 9.57161 126.324 9.48047C126.16 9.40755 125.996 9.30729 125.832 9.17969L125.559 8.96094L125.586 8.66016L125.969 8.55078L126.68 8.49609C127.19 8.42318 127.992 8.29557 129.086 8.11328L132.148 7.56641ZM129.031 17.5742L130.535 17.2461L131.109 17.1094L131.848 16.8633C132.121 16.7721 132.349 16.6719 132.531 16.5625L132.914 16.4258C133.06 16.4076 133.215 16.4349 133.379 16.5078L134.008 16.7812C134.19 16.8724 134.382 16.9909 134.582 17.1367L134.746 17.6562C134.564 17.8568 134.427 18.0299 134.336 18.1758C134.263 18.3034 134.181 18.4674 134.09 18.668C133.999 18.8867 133.935 19.069 133.898 19.2148L133.352 20.8555L133.652 21.0742L133.762 21.5391C133.634 21.5573 133.507 21.5755 133.379 21.5938C133.233 21.5938 133.096 21.6029 132.969 21.6211C132.823 21.6211 132.622 21.6393 132.367 21.6758C132.112 21.7122 131.875 21.7487 131.656 21.7852L129.988 22.1406C129.897 22.3776 129.788 22.5143 129.66 22.5508C129.533 22.5508 129.405 22.4779 129.277 22.332C129.186 22.2591 129.122 22.1497 129.086 22.0039C129.031 21.8581 128.986 21.6758 128.949 21.457L128.594 19.543C128.539 19.2513 128.484 19.0143 128.43 18.832C128.357 18.6497 128.284 18.4857 128.211 18.3398C128.138 18.194 128.038 18.0664 127.91 17.957L127.664 17.6562C127.701 17.5104 127.81 17.4193 127.992 17.3828C128.138 17.3828 128.302 17.401 128.484 17.4375L129.031 17.5742ZM130.043 21.1289L132.258 20.6641L132.641 18.2852L132.668 18.0664L132.504 17.7109C132.322 17.6927 132.112 17.7109 131.875 17.7656L129.688 18.1758L130.043 21.1289ZM129.195 11.7227L129.633 11.668L130.617 11.4492L131.301 11.2852L132.094 11.0117C132.312 10.9206 132.522 10.8659 132.723 10.8477H133.023L133.516 10.957C133.771 11.0117 133.962 11.0755 134.09 11.1484L134.172 11.4766L133.98 11.6406C133.853 11.6953 133.534 11.7773 133.023 11.8867L130.836 12.4062L130.453 12.5156L130.125 12.5703H129.852C129.669 12.5339 129.523 12.4974 129.414 12.4609C129.305 12.4427 129.195 12.4062 129.086 12.3516C128.977 12.2969 128.876 12.1237 128.785 11.832L129.195 11.7227ZM129.141 14.4023L129.605 14.3477L130.18 14.2109L131.219 13.9922L132.039 13.7461C132.221 13.7096 132.376 13.6732 132.504 13.6367C132.632 13.6367 132.805 13.6549 133.023 13.6914C133.242 13.7279 133.424 13.7643 133.57 13.8008C133.698 13.8372 133.826 13.8919 133.953 13.9648V14.4844L132.504 14.7852L131.137 15.0586L130.234 15.2773H129.824L129.578 15.25L129.113 15.0859C128.931 15.0312 128.785 14.9401 128.676 14.8125L128.73 14.4844C128.967 14.4479 129.104 14.4206 129.141 14.4023Z" fill="#333333"/>
</svg>
