<svg width="166" height="25" viewBox="0 0 166 25" fill="none" xmlns="http://www.w3.org/2000/svg">
<path d="M27.2305 12.09C26.957 12.09 26.7109 11.9806 26.4922 11.7618C26.2188 11.5613 26.082 11.4064 26.082 11.297C26.082 11.1694 26.2917 11.1056 26.7109 11.1056L28.0508 11.0235L29.418 10.8868C29.4544 10.5952 29.4727 10.0392 29.4727 9.21886C29.5273 9.21886 29.2448 9.25532 28.625 9.32823L28.1055 9.41026C27.9414 9.48318 27.7956 9.51964 27.668 9.51964C27.5586 9.51964 27.4674 9.48318 27.3945 9.41026C27.1029 9.15506 26.957 8.93631 26.957 8.75401V7.46886C26.957 7.34125 26.9115 6.84907 26.8203 5.9923L26.793 5.69151C26.793 5.54568 26.8203 5.45454 26.875 5.41808C26.9297 5.38162 27.0299 5.38162 27.1758 5.41808C27.7227 5.56391 27.987 5.72797 27.9688 5.91026L27.9414 6.10167C27.9049 6.35688 27.8867 6.685 27.8867 7.08605C27.8867 7.56 27.8958 7.86079 27.9141 7.98839C27.9505 8.35297 27.9688 8.52615 27.9688 8.50792C27.987 8.58084 28.0508 8.6173 28.1602 8.6173C28.2695 8.6173 28.4883 8.58995 28.8164 8.53526C29.1628 8.46235 29.3906 8.41678 29.5 8.39855V5.9923C29.5 5.31782 29.4727 4.86209 29.418 4.62511C29.3815 4.44282 29.3633 4.34256 29.3633 4.32433C29.3633 4.19672 29.4089 4.13292 29.5 4.13292C29.5365 4.13292 29.6641 4.16938 29.8828 4.2423C30.2292 4.40636 30.457 4.55219 30.5664 4.6798C30.694 4.8074 30.7396 4.94412 30.7031 5.08995C30.6484 5.27224 30.612 5.63683 30.5938 6.1837C30.5573 6.6212 30.5208 7.33214 30.4844 8.31651L31.4141 8.28917C31.5964 8.28917 31.7331 8.28006 31.8242 8.26183C31.9154 8.2436 31.9609 8.20714 31.9609 8.15245C32.0885 7.45974 32.1706 6.85818 32.207 6.34776L32.2344 6.01964C32.2526 5.98318 32.2526 5.91938 32.2344 5.82823C32.2344 5.73709 32.2344 5.67329 32.2344 5.63683L32.207 5.44542C32.207 5.28136 32.2708 5.19933 32.3984 5.19933C32.4714 5.19933 32.6263 5.27224 32.8633 5.41808C32.918 5.45454 32.9909 5.50922 33.082 5.58214C33.1914 5.63683 33.2643 5.70063 33.3008 5.77355C33.3372 5.82823 33.3555 5.90115 33.3555 5.9923C33.3555 6.10167 33.3464 6.19282 33.3281 6.26573L33.0273 7.79698L32.9453 8.42589C32.8724 8.84516 32.6536 9.07303 32.2891 9.10948C32.1797 9.09125 32.0885 9.06391 32.0156 9.02745C31.9609 8.99099 31.9154 8.97276 31.8789 8.97276C31.6602 8.97276 31.2044 9.01834 30.5117 9.10948L30.4844 10.8048L30.9492 10.7775L31.3867 10.7501C32.0612 10.7501 32.5625 10.7137 32.8906 10.6407C33.0365 10.6407 33.1641 10.6225 33.2734 10.586L33.3555 10.5587C33.5378 10.5587 33.7292 10.6863 33.9297 10.9415C34.1667 11.1785 34.2852 11.3517 34.2852 11.461C34.2852 11.6251 34.0299 11.6798 33.5195 11.6251L32.4805 11.5704H31.1133C30.8398 11.5704 30.3385 11.6069 29.6094 11.6798C29.2266 11.6798 28.8802 11.698 28.5703 11.7345C28.2604 11.7709 27.9688 11.8347 27.6953 11.9259L27.2305 12.09ZM33.1641 20.8946C32.8906 20.8946 32.6263 20.6941 32.3711 20.2931C32.043 19.7827 31.724 19.3634 31.4141 19.0353L30.7031 18.297C30.3203 18.7345 29.9831 19.0808 29.6914 19.336C29.418 19.5913 29.0716 19.8373 28.6523 20.0743C27.8685 20.5301 27.2122 20.7579 26.6836 20.7579C26.556 20.7579 26.4922 20.7123 26.4922 20.6212C26.4922 20.5665 26.6654 20.448 27.0117 20.2657C27.3581 20.0834 27.6862 19.8647 27.9961 19.6095C28.7799 18.9532 29.4271 18.2788 29.9375 17.586C29.8281 17.4767 29.2812 17.0027 28.2969 16.1642C28.1693 16.073 27.9779 15.9181 27.7227 15.6993C27.668 15.6629 27.5586 15.5808 27.3945 15.4532C27.2305 15.3256 27.1484 15.2345 27.1484 15.1798C27.1484 15.0887 27.194 15.0431 27.2852 15.0431C27.5586 15.0431 27.9961 15.2345 28.5977 15.6173C29.1992 15.9819 29.8281 16.4194 30.4844 16.9298C30.7396 16.6199 30.9401 16.3282 31.0859 16.0548C31.2318 15.7814 31.3958 15.4441 31.5781 15.0431C31.6693 14.8426 31.724 14.6694 31.7422 14.5235C31.7604 14.3595 31.7695 14.2592 31.7695 14.2228C31.7695 14.0222 31.8242 13.922 31.9336 13.922C32.0612 13.922 32.2344 14.0222 32.4531 14.2228C32.8359 14.5873 33.0273 14.8334 33.0273 14.961C33.0273 15.034 32.9818 15.116 32.8906 15.2071C32.6719 15.4259 32.4714 15.7176 32.2891 16.0821C32.1797 16.3009 31.9792 16.6108 31.6875 17.0118C31.5964 17.1212 31.5234 17.2215 31.4688 17.3126C31.4141 17.4038 31.3594 17.4858 31.3047 17.5587C31.724 17.8686 32.3438 18.3972 33.1641 19.1446C33.3646 19.3269 33.4922 19.5001 33.5469 19.6642C33.6198 19.81 33.6562 20.0105 33.6562 20.2657C33.6562 20.448 33.6107 20.603 33.5195 20.7306C33.4284 20.84 33.3099 20.8946 33.1641 20.8946ZM35.2422 11.2696C35.3333 11.2696 35.4701 11.3334 35.6523 11.461C35.6341 11.4975 35.6706 11.5704 35.7617 11.6798C35.8529 11.7709 35.9167 11.8347 35.9531 11.8712C36.0443 11.9623 36.1354 12.0717 36.2266 12.1993C36.3359 12.3269 36.4544 12.4637 36.582 12.6095C36.9102 12.9558 37.6667 13.8582 38.8516 15.3165C39.0521 15.6082 39.1523 15.7814 39.1523 15.836C39.1523 16.0183 39.043 16.1095 38.8242 16.1095C38.6966 16.1095 38.5599 16.0183 38.4141 15.836C38.0677 15.4715 37.4479 14.8972 36.5547 14.1134C35.862 13.4754 35.2331 12.9832 34.668 12.6368C34.3945 12.5092 34.2578 12.3634 34.2578 12.1993C34.2578 12.0717 34.3945 11.8894 34.668 11.6525C34.9232 11.3972 35.1146 11.2696 35.2422 11.2696ZM0.707031 9.95714L0.351562 8.86339L1.52734 9.02745C1.63672 9.04568 1.8737 9.10948 2.23828 9.21886C2.63932 9.32823 2.93099 9.44672 3.11328 9.57433C3.29557 9.70193 3.45052 9.85688 3.57812 10.0392C3.70573 10.2215 3.78776 10.4676 3.82422 10.7775L3.85156 11.0509C3.85156 11.2514 3.82422 11.4064 3.76953 11.5157C3.66016 11.6798 3.46875 11.8347 3.19531 11.9806C2.97656 11.9806 2.7487 11.9168 2.51172 11.7892C2.29297 11.698 1.99219 11.4428 1.60938 11.0235C1.22656 10.6043 0.925781 10.2488 0.707031 9.95714ZM4.75391 14.9884L5.68359 13.5665C5.79297 13.4207 5.9388 13.3569 6.12109 13.3751L6.33984 13.5392C6.33984 13.685 6.30339 13.8217 6.23047 13.9493L5.51953 15.4532C5.35547 15.8178 5.15495 16.228 4.91797 16.6837L4.09766 18.379L3.27734 20.0196C3.09505 20.4389 2.92188 20.8673 2.75781 21.3048C2.59375 21.7423 2.45703 22.0704 2.34766 22.2892C2.23828 22.4897 2.01042 22.6173 1.66406 22.672C1.42708 22.6173 1.25391 22.4806 1.14453 22.2618C1.03516 22.0431 0.925781 21.7696 0.816406 21.4415C0.707031 21.0952 0.615885 20.7853 0.542969 20.5118C0.451823 20.2748 0.40625 20.0743 0.40625 19.9103L0.433594 19.5821C0.50651 19.4363 0.615885 19.3087 0.761719 19.1993L1.47266 18.7892C1.69141 18.6616 1.92839 18.4702 2.18359 18.215C2.4388 17.9597 2.72135 17.6407 3.03125 17.2579L3.90625 16.1368L4.75391 14.9884ZM3.60547 4.37901L3.14062 3.69542L3.03125 3.39464L3.35938 3.25792L3.98828 3.39464C4.27995 3.46756 4.68099 3.58605 5.19141 3.75011C5.72005 3.91417 6.11198 4.08735 6.36719 4.26964C6.60417 4.4337 6.77734 4.60688 6.88672 4.78917C6.95964 4.95323 6.99609 5.16287 6.99609 5.41808C6.99609 5.70974 6.94141 5.93761 6.83203 6.10167C6.72266 6.28396 6.61328 6.40245 6.50391 6.45714C6.39453 6.53006 6.23047 6.56651 6.01172 6.56651C5.79297 6.56651 5.5013 6.42068 5.13672 6.12901C4.99089 6.01964 4.72656 5.73709 4.34375 5.28136C3.96094 4.82563 3.71484 4.52485 3.60547 4.37901ZM12.8477 14.797L11.6992 14.961C11.2982 15.0157 10.9518 15.0431 10.6602 15.0431C10.3685 15.0248 10.0768 14.9884 9.78516 14.9337C9.49349 14.8608 9.27474 14.7514 9.12891 14.6056L8.96484 14.3321C9.0013 14.2228 9.12891 14.1498 9.34766 14.1134L10.2227 14.0587L11.0156 13.922L11.8086 13.8126L12.9297 13.6212L12.8477 10.7228C12.8294 10.34 12.8021 10.0483 12.7656 9.84776C12.7474 9.62901 12.7018 9.44672 12.6289 9.30089L12.5195 8.94542C12.1914 9.00011 11.8633 9.04568 11.5352 9.08214C11.207 9.1186 10.806 9.13683 10.332 9.13683C9.71224 9.13683 9.22917 9.08214 8.88281 8.97276C8.46354 8.86339 8.22656 8.73579 8.17188 8.58995L8.11719 8.31651C8.13542 8.20714 8.38151 8.12511 8.85547 8.07042L9.89453 7.96105C10.2591 7.92459 10.5781 7.88813 10.8516 7.85167C11.125 7.79698 11.4987 7.71495 11.9727 7.60558L13.7227 7.22276C13.431 6.96756 13.2305 6.76704 13.1211 6.6212C13.0117 6.47537 12.8294 6.14724 12.5742 5.63683L12.0273 4.51573L11.6445 3.58605L11.5898 3.3673L11.7539 3.09386H12L12.957 3.39464C13.3216 3.52224 13.6771 3.74099 14.0234 4.05089C14.388 4.34256 14.6341 4.60688 14.7617 4.84386C14.9076 5.08084 14.9987 5.38162 15.0352 5.7462L15.0625 6.04698L15.0352 6.37511L14.625 7.03136L16.1289 6.70323C16.2747 6.685 16.6393 6.56651 17.2227 6.34776L17.6602 6.21105L18.125 6.10167C18.3438 6.08344 18.5352 6.09256 18.6992 6.12901L19.4102 6.37511C19.6654 6.46625 19.8294 6.56651 19.9023 6.67589L20.0117 6.89464C20.0117 7.04047 19.9479 7.16808 19.8203 7.27745C19.6927 7.42329 19.4648 7.55089 19.1367 7.66026C18.7904 7.76964 18.4258 7.87901 18.043 7.98839C17.6419 8.07954 17.1771 8.17068 16.6484 8.26183L14.543 8.64464C14.7982 8.79047 14.9622 9.02745 15.0352 9.35558L14.8984 9.90245C14.8438 10.0118 14.8164 10.2488 14.8164 10.6134L14.707 13.2384L16.0742 12.9376L17.0039 12.7189C17.1497 12.6824 17.2865 12.6551 17.4141 12.6368C17.6875 12.6368 18.0156 12.6915 18.3984 12.8009C18.7812 12.9103 19.0273 13.0105 19.1367 13.1017L19.3008 13.2931L19.2461 13.5939L18.7539 13.7306L17.8789 13.922L16.4297 14.2228L14.6523 14.4962L14.5156 19.6915L17.3867 19.4181L18.4258 19.2814C19.1185 19.2084 19.5651 19.1446 19.7656 19.09L20.8867 18.8712C21.0143 18.853 21.1419 18.8439 21.2695 18.8439C21.4154 18.8439 21.5521 18.853 21.6797 18.8712C21.9531 18.9077 22.2174 18.9715 22.4727 19.0626C22.7279 19.1538 22.974 19.2722 23.2109 19.4181C23.4479 19.5639 23.6393 19.7006 23.7852 19.8282L24.0039 20.129C23.9674 20.2748 23.8854 20.4116 23.7578 20.5392L23.2656 20.5665L21.5977 20.5392C20.832 20.5209 19.9388 20.5118 18.918 20.5118C18.4258 20.4936 17.9883 20.4845 17.6055 20.4845C17.2409 20.4845 16.9401 20.4936 16.7031 20.5118C16.2109 20.5483 15.3906 20.6212 14.2422 20.7306C13.0938 20.8217 12.3737 20.8855 12.082 20.922C11.7904 20.9767 11.2617 21.0678 10.4961 21.1954C9.73047 21.3413 9.23828 21.4324 9.01953 21.4689L8.33594 21.6603L7.81641 21.797C7.63411 21.797 7.35156 21.715 6.96875 21.5509C6.54948 21.4051 6.25781 21.2866 6.09375 21.1954C5.92969 21.1225 5.80208 21.0222 5.71094 20.8946L5.60156 20.6759C5.65625 20.5665 5.86589 20.4936 6.23047 20.4571L7.16016 20.3478C7.37891 20.3113 7.89844 20.2748 8.71875 20.2384C9.53906 20.2019 10.1133 20.1472 10.4414 20.0743L13.0117 19.7462L12.8477 14.797Z" fill="#333333"/>
<path d="M69.2852 8.58995C69.0846 8.58995 68.8385 8.435 68.5469 8.12511C68.3281 7.90636 68.2188 7.7423 68.2188 7.63292C68.2188 7.57823 68.2552 7.55089 68.3281 7.55089C68.401 7.53266 68.4922 7.52355 68.6016 7.52355L69.2031 7.4962C69.5495 7.4962 69.7773 7.48709 69.8867 7.46886C70.2331 7.46886 70.5247 7.45974 70.7617 7.44151C72.3294 7.29568 73.3867 7.17719 73.9336 7.08605C74.207 7.04959 74.4531 7.01313 74.6719 6.97667C74.8906 6.92198 75.0638 6.89464 75.1914 6.89464C75.4466 6.89464 75.7018 7.02224 75.957 7.27745C76.1576 7.47797 76.2578 7.64204 76.2578 7.76964C76.2578 7.87901 76.194 7.95193 76.0664 7.98839C75.9753 8.00662 75.4375 8.04308 74.4531 8.09776C73.9062 8.11599 73.2318 8.16157 72.4297 8.23448C71.6276 8.3074 70.9258 8.38032 70.3242 8.45323C70.2148 8.47146 70.0599 8.49881 69.8594 8.53526C69.6589 8.57172 69.4674 8.58995 69.2852 8.58995ZM75.6562 16.5743C75.8568 16.7931 75.957 16.9754 75.957 17.1212C75.957 17.2488 75.8841 17.3673 75.7383 17.4767C75.6471 17.5496 75.4193 17.9506 75.0547 18.6798C74.6536 19.336 74.207 19.9103 73.7148 20.4025C73.2409 20.8764 72.7669 21.2228 72.293 21.4415C72.1836 21.478 72.0924 21.4962 72.0195 21.4962C71.9466 21.4962 71.9102 21.478 71.9102 21.4415V21.3868C71.9102 21.2775 72.0013 21.1498 72.1836 21.004C72.5117 20.7488 72.7578 20.4936 72.9219 20.2384C73.1042 19.965 73.2409 19.7644 73.332 19.6368C73.7148 19.09 73.9883 18.6433 74.1523 18.297C74.3346 17.9871 74.4622 17.6681 74.5352 17.34H74.4258C73.9518 17.34 73.1862 17.3946 72.1289 17.504C71.9648 17.5222 71.4909 17.586 70.707 17.6954C70.543 17.7137 70.2878 17.7592 69.9414 17.8321L69.6133 17.9142C69.5404 17.9506 69.4674 17.9689 69.3945 17.9689C69.3034 17.9689 69.2122 17.9506 69.1211 17.9142C69.0299 17.8595 68.9388 17.7957 68.8477 17.7228C68.6289 17.5405 68.5195 17.3855 68.5195 17.2579C68.5378 17.2215 68.556 17.1668 68.5742 17.0939C68.6107 17.0209 68.6289 16.9571 68.6289 16.9025L68.7656 16.0001C68.7839 15.909 68.8021 15.8087 68.8203 15.6993C68.8385 15.59 68.8477 15.4806 68.8477 15.3712C68.8477 15.0248 68.8385 14.7514 68.8203 14.5509C68.8203 14.3321 68.793 14.1043 68.7383 13.8673V13.7853C68.7383 13.6577 68.793 13.5939 68.9023 13.5939C69.0117 13.5939 69.2031 13.6759 69.4766 13.84C69.8411 14.0952 70.0234 14.2957 70.0234 14.4415C70.0234 14.4962 70.0143 14.5418 69.9961 14.5782C69.9779 14.6147 69.9596 14.6512 69.9414 14.6876C69.8867 15.0157 69.8594 15.198 69.8594 15.2345L69.7227 16.6837C69.7227 16.7202 69.7409 16.7657 69.7773 16.8204C69.832 16.8569 69.8867 16.8751 69.9414 16.8751C70.3789 16.8751 71.3633 16.7657 72.8945 16.547C73.4961 16.4923 73.9245 16.4285 74.1797 16.3556C74.3438 16.3373 74.4805 16.31 74.5898 16.2735C74.7174 16.2189 74.7995 16.1915 74.8359 16.1915C74.9453 16.1551 75.0182 16.1368 75.0547 16.1368C75.2188 16.1368 75.4193 16.2827 75.6562 16.5743ZM51.1289 11.0509C51.0195 10.8321 50.9284 10.6407 50.8555 10.4767C50.7826 10.3126 50.6823 10.0301 50.5547 9.62901L50.1992 8.42589L49.8438 7.03136L49.543 5.93761C49.2331 5.91938 48.9961 5.90115 48.832 5.88292C48.6862 5.84646 48.4948 5.79178 48.2578 5.71886C48.0391 5.62771 47.8841 5.52745 47.793 5.41808L47.6836 5.19933C47.7201 5.05349 47.8294 4.97146 48.0117 4.95323L48.5586 4.89855C48.668 4.88032 48.9232 4.8712 49.3242 4.8712C49.6888 4.83474 50.2174 4.78917 50.9102 4.73448C51.6029 4.6798 52.0586 4.63422 52.2773 4.59776C52.4961 4.57954 52.8424 4.54308 53.3164 4.48839L54.1367 4.37901C53.9544 4.26964 53.8086 4.16026 53.6992 4.05089C53.5898 3.95974 53.4714 3.77745 53.3438 3.50401L52.8242 2.46495C52.569 1.97276 52.4141 1.66287 52.3594 1.53526L52.1133 0.879015L52.3867 0.742296L53.0703 0.933702C53.3438 1.04308 53.6445 1.17068 53.9727 1.31651C54.3008 1.46235 54.556 1.62641 54.7383 1.8087C54.9388 1.99099 55.0846 2.25532 55.1758 2.60167C55.194 2.82042 55.1758 3.03006 55.1211 3.23058C55.0117 3.5587 54.8841 3.79568 54.7383 3.94151L54.3828 4.32433C54.9115 4.26964 55.3763 4.21495 55.7773 4.16026C56.1966 4.12381 56.543 4.06912 56.8164 3.9962L57.5273 3.83214L58.2656 3.66808C58.4115 3.66808 58.5482 3.67719 58.6758 3.69542C58.8216 3.75011 58.9766 3.8048 59.1406 3.85948C59.3047 3.91417 59.4779 3.9962 59.6602 4.10558L59.8242 4.59776C59.6419 4.78006 59.332 4.90766 58.8945 4.98058L58.2109 5.22667C58.3385 5.31782 58.457 5.40896 58.5664 5.50011C58.6576 5.57303 58.7396 5.66417 58.8125 5.77355L58.8945 6.10167L58.6484 6.45714C58.4844 6.63943 58.3294 6.89464 58.1836 7.22276L57.4727 8.64464C57.1445 9.2462 56.9531 9.60167 56.8984 9.71105L56.3242 10.6134C56.6159 10.6134 56.8984 10.6043 57.1719 10.586C57.4271 10.5678 58.138 10.504 59.3047 10.3946C60.4714 10.3035 61.2188 10.2306 61.5469 10.1759L62.3398 10.0665C62.9961 9.95714 63.4154 9.90245 63.5977 9.90245L64.3086 10.1485C64.7096 10.2944 65.0651 10.504 65.375 10.7775L65.7852 11.297C65.7487 11.4428 65.6484 11.5613 65.4844 11.6525C65.3021 11.7436 64.819 11.7892 64.0352 11.7892H63.0508L61.5469 11.7618C61.3281 11.7436 61.0547 11.7345 60.7266 11.7345C60.4167 11.7345 60.0612 11.7436 59.6602 11.7618C58.2747 11.7801 57.0898 11.8074 56.1055 11.8439L53.043 12.0079C51.7122 12.0808 50.7917 12.1446 50.2812 12.1993L48.1211 12.5001L46.5078 12.7462L44.8945 13.129L44.5938 13.1564H44.2383C44.0013 13.1199 43.7461 13.0196 43.4727 12.8556L42.9805 12.5548C42.6888 12.3907 42.4883 12.1446 42.3789 11.8165C42.4518 11.6889 42.6068 11.616 42.8438 11.5978L43.3086 11.5704L44.8398 11.5157C45.3138 11.4975 46.1341 11.4428 47.3008 11.3517C48.4674 11.2605 49.3242 11.1967 49.8711 11.1603C50.418 11.1238 50.7461 11.0965 50.8555 11.0782L51.1289 11.0509ZM50.3633 5.88292C50.5091 6.04698 50.6367 6.16547 50.7461 6.23839C50.819 6.34776 50.9375 6.48448 51.1016 6.64855C51.2656 6.81261 51.457 7.0587 51.6758 7.38683C51.9128 7.71495 52.0677 8.00662 52.1406 8.26183C52.1953 8.48058 52.2409 8.78136 52.2773 9.16417C52.2773 9.69282 52.2591 10.0301 52.2227 10.1759L52.0859 10.9689C53.0339 10.8777 53.6081 10.8321 53.8086 10.8321L55.5312 10.6954C55.5859 10.5314 55.6315 10.3855 55.668 10.2579C55.7227 10.1303 55.7682 10.0027 55.8047 9.87511C55.8594 9.7475 55.9779 9.31912 56.1602 8.58995L56.4062 7.60558C56.4974 7.27745 56.5612 6.96756 56.5977 6.67589C56.6523 6.38422 56.6797 6.10167 56.6797 5.82823V5.63683L56.625 5.28136C56.3516 5.29959 56.1419 5.32693 55.9961 5.36339C55.8138 5.36339 55.3307 5.40896 54.5469 5.50011C53.763 5.59125 53.1706 5.65506 52.7695 5.69151L51.1289 5.80089L50.3633 5.88292ZM50.582 22.6993L50.4453 23.3282C50.3724 23.6381 50.263 23.8022 50.1172 23.8204C49.9896 23.8204 49.862 23.7475 49.7344 23.6017C49.5156 23.3829 49.3424 23.0639 49.2148 22.6446C49.1055 22.2983 49.0508 22.0066 49.0508 21.7696L49.1602 21.3048C49.2331 21.0314 49.2878 20.6212 49.3242 20.0743L49.4062 18.9806C49.4245 18.6342 49.4336 18.1329 49.4336 17.4767C49.4154 17.0027 49.3971 16.6108 49.3789 16.3009C49.3424 16.0092 49.2878 15.7722 49.2148 15.59L48.9688 15.1525L48.8594 14.797C48.9323 14.6876 49.0872 14.642 49.3242 14.6603L49.8164 14.7696L50.3633 14.9337L53.3164 14.4142C53.4987 14.3959 53.9544 14.2957 54.6836 14.1134C55.4128 13.9493 55.9414 13.7762 56.2695 13.5939L56.8984 13.3478C57.0807 13.3478 57.3086 13.4207 57.582 13.5665L58.293 13.9767C58.5299 14.1043 58.7396 14.2592 58.9219 14.4415L59.1953 14.797C59.1771 14.9064 59.1315 15.0431 59.0586 15.2071C58.9857 15.353 58.9128 15.517 58.8398 15.6993C58.7669 15.8816 58.7305 16.1551 58.7305 16.5196L58.7031 18.6251C58.7031 19.0626 58.7305 19.5821 58.7852 20.1837C58.8216 20.9493 58.8398 21.4233 58.8398 21.6056C58.8398 22.116 58.776 22.5717 58.6484 22.9728C58.5208 23.3373 58.2747 23.7019 57.9102 24.0665C57.6367 24.34 57.3177 24.4402 56.9531 24.3673C56.862 24.2032 56.7526 23.9754 56.625 23.6837C56.4974 23.392 56.3516 23.0821 56.1875 22.754L55.9414 22.3165C55.3398 22.3894 54.8932 22.435 54.6016 22.4532L52.6055 22.6446C51.9857 22.7176 51.5208 22.754 51.2109 22.754L50.582 22.6993ZM50.582 21.6876C50.8737 21.6694 51.2018 21.642 51.5664 21.6056C51.9492 21.5691 52.3685 21.5144 52.8242 21.4415L54.7109 21.1134C54.9844 21.0952 55.2669 21.086 55.5586 21.086C55.8867 21.1225 56.1784 21.2228 56.4336 21.3868L56.8711 21.5782C57.0534 21.5418 57.1628 21.2957 57.1992 20.84V18.4884C56.944 18.5248 56.7344 18.5613 56.5703 18.5978L55.5586 18.7618L54.5195 18.8985C53.6081 19.0262 52.9974 19.1173 52.6875 19.172C52.3594 19.2267 52.0677 19.254 51.8125 19.254C51.5755 19.254 51.3477 19.2176 51.1289 19.1446L50.6914 19.0353L50.582 21.6876ZM50.7461 18.4064L52.5781 18.1056C53.1979 17.9962 53.7448 17.8868 54.2188 17.7775C54.6927 17.6863 55.0573 17.6225 55.3125 17.586C55.4948 17.5678 55.7044 17.5587 55.9414 17.5587C56.0872 17.5587 56.2969 17.586 56.5703 17.6407L57.1445 17.7501V16.0001L57.0898 15.5353C57.0534 15.2436 56.9896 15.0522 56.8984 14.961C56.8255 14.8699 56.6341 14.8243 56.3242 14.8243C56.1602 14.8426 55.8867 14.879 55.5039 14.9337L54.082 15.1525L50.8008 15.8907V16.629L50.7461 18.4064Z" fill="#333333"/>
<path d="M113.582 11.2423C112.707 11.2423 112.124 11.1876 111.832 11.0782C111.486 10.9142 111.258 10.5405 111.148 9.95714C111.094 9.64724 111.066 9.25532 111.066 8.78136L110.957 7.00401V6.32042C110.939 6.30219 110.93 6.25662 110.93 6.1837L110.902 5.88292C110.884 5.73709 110.802 5.56391 110.656 5.36339C110.602 5.25401 110.574 5.17198 110.574 5.1173C110.574 4.98969 110.729 4.95323 111.039 5.00792C111.367 5.06261 111.741 5.08995 112.16 5.08995C112.452 5.08995 112.999 5.07172 113.801 5.03526C114.074 5.01704 114.712 4.935 115.715 4.78917L116.59 4.59776L116.809 4.54308C116.973 4.54308 117.173 4.64334 117.41 4.84386C117.611 5.00792 117.711 5.16287 117.711 5.3087C117.711 5.49099 117.574 5.60037 117.301 5.63683C116.59 5.69151 116.043 5.71886 115.66 5.71886L114.676 5.77355C114.384 5.81 114.184 5.82823 114.074 5.82823C112.871 5.88292 112.188 5.91026 112.023 5.91026C112.023 7.18631 112.033 7.97928 112.051 8.28917C112.087 8.79959 112.115 9.20063 112.133 9.4923C112.169 9.78396 112.215 9.97537 112.27 10.0665C112.306 10.1394 112.37 10.1941 112.461 10.2306C112.57 10.2488 112.671 10.267 112.762 10.2853C112.871 10.2853 112.953 10.2853 113.008 10.2853C113.026 10.2853 113.072 10.2944 113.145 10.3126C113.236 10.3126 113.409 10.3126 113.664 10.3126C113.846 10.3126 114.156 10.2944 114.594 10.2579C115.159 10.2215 115.706 10.1485 116.234 10.0392C116.362 10.0209 116.654 10.0118 117.109 10.0118C117.328 10.0118 117.538 10.1121 117.738 10.3126C117.829 10.4038 117.875 10.5314 117.875 10.6954C117.875 10.823 117.839 10.9142 117.766 10.9689C117.656 11.0235 117.483 11.0691 117.246 11.1056C117.027 11.1238 116.745 11.142 116.398 11.1603C115.396 11.215 114.457 11.2423 113.582 11.2423ZM117.164 20.8946C116.891 20.8946 116.626 20.6941 116.371 20.2931C116.043 19.7827 115.724 19.3634 115.414 19.0353L114.703 18.297C114.32 18.7345 113.983 19.0808 113.691 19.336C113.418 19.5913 113.072 19.8373 112.652 20.0743C111.868 20.5301 111.212 20.7579 110.684 20.7579C110.556 20.7579 110.492 20.7123 110.492 20.6212C110.492 20.5665 110.665 20.448 111.012 20.2657C111.358 20.0834 111.686 19.8647 111.996 19.6095C112.78 18.9532 113.427 18.2788 113.938 17.586C113.828 17.4767 113.281 17.0027 112.297 16.1642C112.169 16.073 111.978 15.9181 111.723 15.6993C111.668 15.6629 111.559 15.5808 111.395 15.4532C111.23 15.3256 111.148 15.2345 111.148 15.1798C111.148 15.0887 111.194 15.0431 111.285 15.0431C111.559 15.0431 111.996 15.2345 112.598 15.6173C113.199 15.9819 113.828 16.4194 114.484 16.9298C114.74 16.6199 114.94 16.3282 115.086 16.0548C115.232 15.7814 115.396 15.4441 115.578 15.0431C115.669 14.8426 115.724 14.6694 115.742 14.5235C115.76 14.3595 115.77 14.2592 115.77 14.2228C115.77 14.0222 115.824 13.922 115.934 13.922C116.061 13.922 116.234 14.0222 116.453 14.2228C116.836 14.5873 117.027 14.8334 117.027 14.961C117.027 15.034 116.982 15.116 116.891 15.2071C116.672 15.4259 116.471 15.7176 116.289 16.0821C116.18 16.3009 115.979 16.6108 115.688 17.0118C115.596 17.1212 115.523 17.2215 115.469 17.3126C115.414 17.4038 115.359 17.4858 115.305 17.5587C115.724 17.8686 116.344 18.3972 117.164 19.1446C117.365 19.3269 117.492 19.5001 117.547 19.6642C117.62 19.81 117.656 20.0105 117.656 20.2657C117.656 20.448 117.611 20.603 117.52 20.7306C117.428 20.84 117.31 20.8946 117.164 20.8946ZM122.742 9.08214C122.961 9.08214 123.07 9.1824 123.07 9.38292C123.07 9.4923 122.97 9.64724 122.77 9.84776C122.223 10.5222 121.138 11.8074 119.516 13.7032C119.388 13.8673 119.27 13.9493 119.16 13.9493C119.069 13.9493 118.868 13.8126 118.559 13.5392C118.303 13.3204 118.176 13.1381 118.176 12.9923C118.176 12.8282 118.312 12.6733 118.586 12.5275C119.005 12.2905 119.634 11.8165 120.473 11.1056C121.311 10.3582 121.931 9.76573 122.332 9.32823C122.496 9.16417 122.633 9.08214 122.742 9.08214ZM89.5742 19.1173C89.6107 18.2241 89.638 17.5314 89.6562 17.0392V16.6017C89.6562 16.3282 89.6471 16.1277 89.6289 16.0001L89.5195 15.6173C88.7174 16.3465 88.1159 16.8478 87.7148 17.1212C87.3138 17.4129 86.8763 17.6863 86.4023 17.9415C85.9284 18.215 85.4818 18.4337 85.0625 18.5978L84.3516 18.6798L85.1719 17.9962C85.5547 17.6681 86.1471 17.103 86.9492 16.3009C87.7878 15.4988 88.4076 14.8152 88.8086 14.2501C89.2279 13.685 89.556 13.2019 89.793 12.8009C90.0117 12.4181 90.2031 12.0991 90.3672 11.8439C90.513 11.5704 90.6133 11.3517 90.668 11.1876C90.7227 11.0053 90.7591 10.8321 90.7773 10.6681C90.8138 10.4858 90.832 10.3035 90.832 10.1212L91.0234 9.79308C91.1875 9.79308 91.3516 9.81131 91.5156 9.84776C91.6797 9.88422 91.9531 10.0209 92.3359 10.2579C92.7188 10.4767 92.974 10.6863 93.1016 10.8868L93.293 11.215C93.2565 11.3426 93.2018 11.4519 93.1289 11.5431L92.6914 11.9806L92.0352 12.8009L90.3398 14.879L90.9414 15.3165L91.2148 15.59L91.2969 15.8907C91.2786 16.0001 91.2331 16.1459 91.1602 16.3282C91.0872 16.5105 91.0508 16.7019 91.0508 16.9025L90.9414 20.1564L90.9961 22.2618C90.9596 22.4259 90.8958 22.6902 90.8047 23.0548C90.6953 23.4194 90.5951 23.6655 90.5039 23.7931L90.2031 24.0392C90.0755 24.0392 89.9297 23.9207 89.7656 23.6837C89.6016 23.5014 89.4557 23.2644 89.3281 22.9728C89.2005 22.6446 89.1094 22.3712 89.0547 22.1525L89 21.879V21.6056L89.1914 21.0587C89.319 20.7488 89.401 20.4571 89.4375 20.1837L89.5742 19.1173ZM91.2148 4.70714L95.1523 3.69542C95.3346 3.67719 95.5716 3.73188 95.8633 3.85948C96.1914 3.98709 96.4284 4.21495 96.5742 4.54308L96.4375 4.73448C96.3464 4.8074 96.1641 4.8712 95.8906 4.92589L94.8242 5.17198L93.2109 5.41808L92.1992 5.60948C91.9622 5.64594 91.6979 5.66417 91.4062 5.66417L90.668 5.5548L90.0117 6.51183C89.7747 6.83995 89.4648 7.20454 89.082 7.60558C88.681 8.00662 88.3255 8.33474 88.0156 8.58995C87.7057 8.86339 87.3685 9.13683 87.0039 9.41026L86.3203 9.90245L86.0469 9.71105L86.7578 8.8087C87.0859 8.42589 87.4688 7.92459 87.9062 7.3048C88.3255 6.70323 88.6628 6.16547 88.918 5.69151C89.1732 5.21756 89.3828 4.78006 89.5469 4.37901L89.9844 3.20323C90.112 2.85688 90.2031 2.5561 90.2578 2.30089C90.3125 2.04568 90.3398 1.82693 90.3398 1.64464L90.5586 1.20714C90.7591 1.17068 90.987 1.23448 91.2422 1.39855C91.5156 1.56261 91.7617 1.71756 91.9805 1.86339C92.1992 2.00922 92.3451 2.15506 92.418 2.30089L92.5 2.57433L92.4453 2.79308L91.9258 3.50401L91.2148 4.70714ZM91.4336 6.51183H91.6523C91.8346 6.53006 92.181 6.61209 92.6914 6.75792C93.2018 6.92198 93.5573 7.07693 93.7578 7.22276C93.9401 7.40506 94.0495 7.66938 94.0859 8.01573C94.1042 8.23448 94.0677 8.435 93.9766 8.6173C93.8854 8.85428 93.6576 9.02745 93.293 9.13683C93.0378 9.08214 92.7826 8.90896 92.5273 8.6173C92.2721 8.3074 92.0078 7.95193 91.7344 7.55089L91.3516 6.89464L91.4336 6.51183ZM100.621 12.6095L100.539 11.6251C100.484 11.0965 100.439 10.741 100.402 10.5587C100.366 10.3764 100.293 10.1577 100.184 9.90245L100.047 9.35558L100.238 9.0548C100.402 9.03657 100.658 9.0548 101.004 9.10948C101.332 9.16417 101.66 9.27355 101.988 9.43761L102.508 9.73839L102.535 10.0939L102.48 10.504L102.371 11.1056L102.234 12.254L104.75 11.7892C105.06 11.7345 105.288 11.7071 105.434 11.7071C105.579 11.7071 105.743 11.7163 105.926 11.7345C106.108 11.7709 106.345 11.8439 106.637 11.9532L107.266 12.254C107.539 12.3816 107.73 12.6004 107.84 12.9103C107.822 13.0561 107.749 13.1564 107.621 13.211C107.512 13.284 107.092 13.3387 106.363 13.3751L102.234 13.5939L102.316 19.965C102.316 21.241 102.262 22.1616 102.152 22.7267C102.043 23.2918 101.833 23.7748 101.523 24.1759C101.232 24.5769 100.867 24.8048 100.43 24.8595C100.266 24.8413 100.138 24.7775 100.047 24.6681L99.1992 23.5743C98.8164 23.1186 98.306 22.6446 97.668 22.1525L97.0664 21.3321L97.2852 21.3048L98.4336 21.6603L99.418 21.879C99.6367 21.9337 99.8464 21.961 100.047 21.961C100.211 21.8699 100.329 21.6967 100.402 21.4415C100.475 21.1681 100.548 20.6577 100.621 19.9103C100.658 19.1811 100.676 18.4428 100.676 17.6954V13.7853L97.1211 14.4415C96.4466 14.5509 95.8633 14.6785 95.3711 14.8243L94.2227 15.0978C94.0404 15.0978 93.8216 15.0431 93.5664 14.9337C93.3294 14.8426 93.0833 14.7423 92.8281 14.6329C92.5911 14.5053 92.4544 14.3048 92.418 14.0314L92.8555 13.8673L95.5898 13.4845C96.6654 13.3387 97.8867 13.129 99.2539 12.8556L100.621 12.6095ZM94.168 15.6993H94.5781C94.7604 15.7358 94.9518 15.7722 95.1523 15.8087C95.3529 15.8634 95.5898 15.9363 95.8633 16.0275C96.1185 16.1368 96.3555 16.2644 96.5742 16.4103C96.793 16.5561 96.9753 16.7293 97.1211 16.9298C97.2487 17.1303 97.3216 17.422 97.3398 17.8048C97.3398 18.1694 97.2578 18.461 97.0938 18.6798C96.9297 18.8985 96.7565 19.017 96.5742 19.0353C96.4284 19.0353 96.2188 18.9623 95.9453 18.8165C95.6719 18.6707 95.3346 18.2332 94.9336 17.504C94.5326 16.7748 94.2865 16.3556 94.1953 16.2462L94.0039 16.0001L94.168 15.6993ZM99.8828 4.18761C100.667 3.98709 101.314 3.81391 101.824 3.66808C102.335 3.52224 102.772 3.38553 103.137 3.25792L104.039 2.98448C104.276 2.96625 104.504 2.9936 104.723 3.06651C104.941 3.13943 105.16 3.24881 105.379 3.39464L105.707 3.69542C105.689 3.85948 105.561 4.01443 105.324 4.16026C105.105 4.3061 104.741 4.42459 104.23 4.51573L102.043 4.98058C101.423 5.08995 100.986 5.15375 100.73 5.17198L99.9648 5.25401L99.3633 5.17198L98.4883 6.34776C98.2695 6.63943 97.9323 7.02224 97.4766 7.4962C97.0391 7.9337 96.6107 8.3074 96.1914 8.6173L95.6445 9.02745L95.3164 8.89073L95.8086 8.26183C96.0638 7.89724 96.3828 7.40506 96.7656 6.78526C97.1484 6.14724 97.4674 5.56391 97.7227 5.03526C97.9779 4.52485 98.1966 4.01443 98.3789 3.50401C98.543 2.9936 98.6706 2.53787 98.7617 2.13683C98.8711 1.69933 98.9349 1.41678 98.9531 1.28917C98.9714 1.14334 98.9805 0.997504 98.9805 0.851671L99.1719 0.523546C99.4453 0.505317 99.7005 0.569119 99.9375 0.714952L100.594 1.1798C100.776 1.32563 100.913 1.47146 101.004 1.6173L101.113 2.08214C101.077 2.22797 101.004 2.37381 100.895 2.51964L100.566 2.98448L99.8828 4.18761ZM100.566 5.96495L101.086 6.04698C101.286 6.10167 101.651 6.21105 102.18 6.37511C102.708 6.5574 103.055 6.73058 103.219 6.89464C103.383 7.04047 103.52 7.22276 103.629 7.44151C103.702 7.62381 103.747 7.83344 103.766 8.07042C103.766 8.3074 103.729 8.50792 103.656 8.67198C103.602 8.79959 103.438 8.94542 103.164 9.10948C103 9.12771 102.818 9.09125 102.617 9.00011C102.344 8.8725 102.061 8.66287 101.77 8.3712C101.496 8.06131 101.241 7.73318 101.004 7.38683C100.767 7.0587 100.621 6.58474 100.566 5.96495Z" fill="#333333"/>
<path d="M152.273 11.5157C152.255 11.5157 152.191 11.534 152.082 11.5704C151.991 11.5887 151.945 11.5613 151.945 11.4884C151.945 11.4702 151.982 11.4337 152.055 11.379C152.128 11.3061 152.191 11.2423 152.246 11.1876C152.301 11.1329 152.383 11.06 152.492 10.9689C152.602 10.8595 152.684 10.7501 152.738 10.6407C153.012 10.185 153.203 9.72928 153.312 9.27355L153.477 8.31651C153.604 7.60558 153.659 6.77615 153.641 5.82823C153.641 5.60948 153.613 5.38162 153.559 5.14464C153.54 5.03526 153.449 4.88032 153.285 4.6798V4.65245C153.285 4.61599 153.331 4.59776 153.422 4.59776C153.549 4.59776 153.659 4.60688 153.75 4.62511C153.987 4.6798 154.251 4.70714 154.543 4.70714C154.853 4.68891 155.044 4.6798 155.117 4.6798L156.949 4.54308C157.314 4.50662 157.551 4.48839 157.66 4.48839C158.444 4.37901 158.799 4.33344 158.727 4.35167C159.146 4.27875 159.401 4.2423 159.492 4.2423C159.784 4.26053 160.076 4.48839 160.367 4.92589L160.422 5.06261C160.422 5.17198 160.34 5.23579 160.176 5.25401C160.012 5.27224 159.911 5.28136 159.875 5.28136C159.31 5.28136 158.891 5.29047 158.617 5.3087C157.924 5.3087 157.414 5.31782 157.086 5.33605L156.32 5.39073L154.762 5.5548C154.652 7.08605 154.552 8.08865 154.461 8.56261C154.315 9.41938 154.033 10.1121 153.613 10.6407C153.303 11.0418 152.857 11.3334 152.273 11.5157ZM159.164 19.6642C159.201 19.7371 159.264 19.8465 159.355 19.9923C159.447 20.1381 159.492 20.3113 159.492 20.5118C159.492 20.6941 159.419 20.84 159.273 20.9493C159.128 21.0769 158.964 21.1407 158.781 21.1407C158.617 21.1407 158.48 20.9767 158.371 20.6485C158.316 20.5209 158.271 20.4207 158.234 20.3478C158.216 20.2566 158.198 20.1837 158.18 20.129C157.943 20.2019 157.633 20.2657 157.25 20.3204C156.867 20.3751 156.594 20.4207 156.43 20.4571C155.555 20.6212 154.953 20.7397 154.625 20.8126C154.497 20.8491 154.361 20.8946 154.215 20.9493C154.069 20.9858 153.987 21.0131 153.969 21.0314C153.859 21.0678 153.777 21.086 153.723 21.086C153.577 21.086 153.44 21.0222 153.312 20.8946C153.094 20.7306 152.93 20.5118 152.82 20.2384C152.802 20.2202 152.793 20.1928 152.793 20.1564C152.793 20.1199 152.839 20.0743 152.93 20.0196C153.039 19.965 153.121 19.9285 153.176 19.9103C153.413 19.7827 153.832 19.3998 154.434 18.7618L155.172 18.0509L153.559 17.1759C153.376 17.1212 153.258 17.0574 153.203 16.9845C153.148 16.9116 153.121 16.8022 153.121 16.6564C153.121 16.547 153.139 16.4741 153.176 16.4376C153.23 16.3829 153.34 16.3009 153.504 16.1915C153.668 16.0821 153.832 15.9363 153.996 15.754C154.087 15.6446 154.206 15.5262 154.352 15.3985C154.497 15.2709 154.634 15.1342 154.762 14.9884C155.309 14.3504 155.655 13.8491 155.801 13.4845C155.892 13.3022 155.965 13.211 156.02 13.211C156.056 13.211 156.129 13.2475 156.238 13.3204C156.585 13.5756 156.794 13.8126 156.867 14.0314V14.1134C156.867 14.2045 156.822 14.2775 156.73 14.3321C156.639 14.3868 156.576 14.4324 156.539 14.4689C156.484 14.5053 156.211 14.7696 155.719 15.2618L155.227 15.754C155.135 15.8452 154.98 16.0001 154.762 16.2189C154.543 16.4194 154.434 16.5379 154.434 16.5743C154.434 16.629 154.461 16.6746 154.516 16.711C154.589 16.7475 154.643 16.784 154.68 16.8204L155.828 17.3673C156.539 16.6564 156.949 16.2371 157.059 16.1095C157.533 15.5626 157.797 15.2163 157.852 15.0704C157.87 15.0522 157.897 15.0066 157.934 14.9337C157.97 14.8608 158.007 14.8243 158.043 14.8243C158.098 14.8243 158.152 14.8517 158.207 14.9064C158.499 15.1798 158.708 15.435 158.836 15.672C158.872 15.7449 158.891 15.7905 158.891 15.8087C158.891 15.8452 158.845 15.8998 158.754 15.9728C158.681 16.0275 158.608 16.0821 158.535 16.1368C157.897 16.6655 157.15 17.3582 156.293 18.215L154.625 19.7735C154.589 19.81 154.57 19.8465 154.57 19.8829C154.57 19.9194 154.589 19.9467 154.625 19.965C154.661 19.9832 154.716 19.9832 154.789 19.965L157.988 19.4181C157.897 19.0535 157.788 18.6889 157.66 18.3243V18.2696C157.66 18.215 157.688 18.1876 157.742 18.1876C157.815 18.1876 157.924 18.2423 158.07 18.3517C158.362 18.6069 158.727 19.0444 159.164 19.6642ZM161.242 11.2696C161.333 11.2696 161.47 11.3334 161.652 11.461C161.634 11.4975 161.671 11.5704 161.762 11.6798C161.853 11.7709 161.917 11.8347 161.953 11.8712C162.044 11.9623 162.135 12.0717 162.227 12.1993C162.336 12.3269 162.454 12.4637 162.582 12.6095C162.91 12.9558 163.667 13.8582 164.852 15.3165C165.052 15.6082 165.152 15.7814 165.152 15.836C165.152 16.0183 165.043 16.1095 164.824 16.1095C164.697 16.1095 164.56 16.0183 164.414 15.836C164.068 15.4715 163.448 14.8972 162.555 14.1134C161.862 13.4754 161.233 12.9832 160.668 12.6368C160.395 12.5092 160.258 12.3634 160.258 12.1993C160.258 12.0717 160.395 11.8894 160.668 11.6525C160.923 11.3972 161.115 11.2696 161.242 11.2696ZM139.121 8.26183L136.742 8.64464C136.888 8.69933 137.016 8.77224 137.125 8.86339C137.216 8.93631 137.234 9.10948 137.18 9.38292C137.052 9.6199 136.97 9.79308 136.934 9.90245C136.897 10.0118 136.87 10.2032 136.852 10.4767L136.77 11.297L136.66 13.0196C136.624 13.4207 136.514 14.1407 136.332 15.1798C136.15 16.2189 136.004 16.9663 135.895 17.422C135.785 17.8777 135.594 18.4428 135.32 19.1173C135.047 19.7918 134.764 20.366 134.473 20.84C134.181 21.3139 133.871 21.7332 133.543 22.0978C133.215 22.4623 132.941 22.7267 132.723 22.8907L131.957 23.4103L131.656 23.2189L132.285 22.5079C132.577 22.2345 132.868 21.797 133.16 21.1954C133.488 20.5939 133.743 20.047 133.926 19.5548C134.145 19.0626 134.345 18.4246 134.527 17.6407C134.71 16.8569 134.855 15.9728 134.965 14.9884C135.074 13.9858 135.129 13.1837 135.129 12.5821C135.147 12.1993 135.156 11.8256 135.156 11.461V10.9415L135.102 9.98448C135.083 9.67459 135.038 9.44672 134.965 9.30089L134.801 8.86339L134.336 8.58995L134.145 8.23448L134.309 8.01573L134.965 7.9337L136.469 7.76964L137.617 7.57823L139.094 7.38683L139.668 7.3048L139.395 3.23058C139.376 2.86599 139.34 2.61079 139.285 2.46495C139.249 2.31912 139.203 2.19151 139.148 2.08214L138.875 1.6173L138.957 1.28917L139.203 1.15245C139.349 1.15245 139.586 1.1798 139.914 1.23448C140.242 1.28917 140.479 1.33474 140.625 1.3712C140.771 1.40766 140.908 1.47146 141.035 1.56261L141.227 2.02745C141.135 2.31912 141.09 2.61079 141.09 2.90245L141.035 4.46105L143.387 3.72276L144.262 3.3673C144.371 3.33084 144.49 3.31261 144.617 3.31261C144.745 3.31261 144.872 3.33995 145 3.39464L145.41 3.50401L145.793 4.07823C145.592 4.2423 145.419 4.34256 145.273 4.37901L143.824 4.76183L143.031 4.92589L142.047 5.14464H141.637L141.035 5.08995L140.98 7.11339L143.797 6.67589L144.645 6.48448C145.082 6.39334 145.383 6.31131 145.547 6.23839L145.793 6.1837C145.939 6.16547 146.212 6.23839 146.613 6.40245L147.27 6.6212L147.762 6.8673C148.199 7.10428 148.482 7.32303 148.609 7.52355L148.719 7.9337C148.664 8.07954 148.509 8.20714 148.254 8.31651C147.999 8.38943 147.643 8.54438 147.188 8.78136C146.732 9.01834 146.449 9.15506 146.34 9.19151L145.164 9.60167L145.793 8.26183L145.984 7.76964C145.966 7.62381 145.848 7.50532 145.629 7.41417C145.41 7.39594 145.201 7.39594 145 7.41417L143.059 7.68761L141.199 7.98839L140.57 8.07042C140.88 8.16157 141.035 8.40766 141.035 8.8087C140.962 8.95454 140.898 9.09125 140.844 9.21886C140.789 9.34646 140.753 9.52875 140.734 9.76573L140.652 10.34L141.855 10.0118L142.375 9.84776L142.895 9.6837C143.022 9.66547 143.195 9.66547 143.414 9.6837L144.016 9.76573C144.362 9.82042 144.581 9.88422 144.672 9.95714L144.727 10.2853C144.617 10.3764 144.371 10.4676 143.988 10.5587L143.496 10.6681L142.293 10.9689L140.57 11.3243C140.57 11.5431 140.561 11.7618 140.543 11.9806V12.3907C140.579 12.6824 140.68 12.9103 140.844 13.0743C140.99 13.2202 141.327 13.2931 141.855 13.2931C142.311 13.2931 142.721 13.2566 143.086 13.1837C143.451 13.1108 143.806 12.9832 144.152 12.8009C144.499 12.6551 144.736 12.5639 144.863 12.5275C145.046 12.5275 145.228 12.5548 145.41 12.6095C145.592 12.6824 145.775 12.7735 145.957 12.8829C146.139 13.0105 146.285 13.1837 146.395 13.4025V13.5939C146.358 13.7579 146.221 13.8855 145.984 13.9767C145.747 14.086 145.419 14.1954 145 14.3048C144.581 14.3959 144.171 14.4597 143.77 14.4962C143.605 14.5144 143.414 14.5235 143.195 14.5235C142.977 14.5235 142.73 14.5144 142.457 14.4962C141.91 14.4597 141.491 14.4142 141.199 14.3595C140.908 14.3048 140.652 14.2137 140.434 14.086C140.197 13.9584 139.996 13.7944 139.832 13.5939C139.686 13.3933 139.577 13.1472 139.504 12.8556L139.395 12.3907V11.5978L138.766 11.7071C138.638 11.7071 138.483 11.7163 138.301 11.7345H137.891C137.763 11.7163 137.626 11.6889 137.48 11.6525L137.152 11.5157L136.961 11.297C136.961 11.1329 137.034 11.0327 137.18 10.9962L137.645 10.9415L138.492 10.7775L139.395 10.5587V9.71105C139.395 9.43761 139.331 9.04568 139.203 8.53526L139.121 8.26183ZM129.824 11.379C130.043 11.5613 130.216 11.7163 130.344 11.8439L130.48 12.3087C130.408 12.4363 130.298 12.5821 130.152 12.7462C130.007 12.9285 129.861 13.129 129.715 13.3478C129.569 13.5847 129.414 13.8126 129.25 14.0314V14.4689C129.451 14.4871 129.77 14.4689 130.207 14.4142C130.645 14.3413 130.982 14.2775 131.219 14.2228L131.656 14.1407C131.82 14.159 132.012 14.2228 132.23 14.3321C132.449 14.4415 132.632 14.56 132.777 14.6876L133.242 15.0431L133.488 15.3985L133.461 15.6446L133.242 15.9728C133.096 16.1551 132.96 16.5014 132.832 17.0118L132.395 19.0353C132.176 19.892 131.975 20.5665 131.793 21.0587C131.611 21.5509 131.355 21.9975 131.027 22.3985C130.681 22.7996 130.335 23.0821 129.988 23.2462C129.624 23.4285 129.323 23.5288 129.086 23.547C128.922 23.5288 128.794 23.4741 128.703 23.3829C128.612 23.2918 128.503 23.1004 128.375 22.8087C128.247 22.517 128.111 22.2436 127.965 21.9884L127.582 21.3321L127.363 20.9493L127.445 20.7032L127.91 20.9493L128.512 21.3595L128.785 21.5782C128.931 21.5965 129.077 21.6056 129.223 21.6056C129.387 21.5691 129.56 21.4871 129.742 21.3595C129.924 21.2137 130.116 20.9584 130.316 20.5939C130.535 20.211 130.708 19.8738 130.836 19.5821C130.964 19.2905 131.118 18.7801 131.301 18.0509C131.483 17.3217 131.583 16.6928 131.602 16.1642L131.574 15.59C131.52 15.4441 131.438 15.3347 131.328 15.2618C131.237 15.1889 131.046 15.1525 130.754 15.1525C130.389 15.1707 130.089 15.198 129.852 15.2345C129.615 15.2892 129.423 15.3439 129.277 15.3985C129.095 15.4532 128.895 15.5717 128.676 15.754L127.965 16.0275L127.746 15.8907C127.673 15.7996 127.6 15.6811 127.527 15.5353L127.418 15.2345C127.418 15.0887 127.491 14.9246 127.637 14.7423L128.156 14.1681C128.32 13.9493 128.466 13.6941 128.594 13.4025C128.703 13.129 128.776 12.9012 128.812 12.7189C128.867 12.5548 128.895 12.3452 128.895 12.09L128.785 11.7071L127.473 11.6525L126.926 11.6798C126.707 11.6798 126.516 11.6707 126.352 11.6525C126.133 11.5978 125.941 11.534 125.777 11.461L125.477 11.0235L125.832 10.8868L126.324 10.8048L127.992 10.5587C128.521 10.4858 129.04 10.4038 129.551 10.3126L131.164 9.95714C131.547 9.88422 131.866 9.81131 132.121 9.73839L132.531 9.60167C132.714 9.58344 132.923 9.61079 133.16 9.6837C133.397 9.75662 133.579 9.82042 133.707 9.87511L133.98 10.0118L134.172 10.4493C134.135 10.5587 134.035 10.6316 133.871 10.6681L132.996 10.8321C132.449 10.9597 131.848 11.0691 131.191 11.1603L129.824 11.379ZM129.031 3.8048C129.596 3.73188 130.025 3.65896 130.316 3.58605C130.608 3.53136 130.9 3.44933 131.191 3.33995C131.483 3.23058 131.766 3.11209 132.039 2.98448C132.312 2.85688 132.531 2.79308 132.695 2.79308L133.27 3.01183C133.616 3.1212 133.862 3.22146 134.008 3.31261C134.135 3.40375 134.254 3.51313 134.363 3.64073L134.5 3.94151C134.482 4.05089 134.427 4.16026 134.336 4.26964C134.227 4.37901 134.099 4.54308 133.953 4.76183L133.734 5.1173L133.078 7.16808L133.324 7.87901L132.504 7.96105C132.285 7.97928 131.902 8.03396 131.355 8.12511C130.809 8.21625 130.444 8.26183 130.262 8.26183L129.523 8.28917L129.414 8.67198L129.305 8.94542L128.977 9.02745C128.812 8.89985 128.694 8.76313 128.621 8.6173C128.548 8.48969 128.493 8.28917 128.457 8.01573L128.074 5.41808C128.038 5.12641 127.983 4.88943 127.91 4.70714L127.719 4.32433C127.628 4.16026 127.527 4.03266 127.418 3.94151L127.227 3.58605L127.5 3.42198L129.031 3.8048ZM129.551 7.55089L131.93 7.11339L132.23 5.03526L132.312 4.4337L132.258 4.18761C132.185 4.09646 132.076 4.05089 131.93 4.05089C131.802 4.05089 131.638 4.06912 131.438 4.10558L130.562 4.26964L129.25 4.54308L129.551 7.55089ZM143.332 17.9962L143.223 20.2657V21.0587C143.223 21.4597 143.259 21.7241 143.332 21.8517C143.441 22.0887 143.66 22.2709 143.988 22.3985C144.28 22.5262 144.672 22.6173 145.164 22.672C145.456 22.7084 145.702 22.7267 145.902 22.7267C146.03 22.7267 146.148 22.7176 146.258 22.6993C146.786 22.6629 147.206 22.5353 147.516 22.3165C147.826 22.0613 148.017 21.8426 148.09 21.6603C148.163 21.4415 148.236 21.1681 148.309 20.84L148.5 19.6915L148.609 19.09L148.801 18.4337L149.074 18.9532L149.402 19.965L149.648 20.6759L150.059 21.2775L150.359 21.797C150.523 22.034 150.615 22.2345 150.633 22.3985C150.633 22.5444 150.514 22.7358 150.277 22.9728C150.059 23.228 149.73 23.4741 149.293 23.711C148.855 23.9663 148.382 24.1485 147.871 24.2579C147.361 24.3673 146.905 24.4311 146.504 24.4493C146.23 24.4858 145.966 24.504 145.711 24.504C145.383 24.504 145.064 24.4767 144.754 24.422C144.207 24.3491 143.715 24.1941 143.277 23.9571C142.84 23.7384 142.53 23.4832 142.348 23.1915C142.165 22.8998 142.038 22.5717 141.965 22.2071C141.91 21.9519 141.883 21.6694 141.883 21.3595C141.883 21.1954 141.892 21.0314 141.91 20.8673L141.965 17.9962V17.6134C141.965 17.0118 141.928 16.6017 141.855 16.3829L141.746 15.9181L141.828 15.672C141.938 15.6173 142.074 15.5991 142.238 15.6173L142.84 15.8087C143.241 15.9545 143.487 16.0639 143.578 16.1368L143.66 16.547C143.587 16.7475 143.514 16.9754 143.441 17.2306C143.368 17.4676 143.332 17.7228 143.332 17.9962ZM135.129 23.8751L134.363 23.9025C134.345 23.7931 134.4 23.7019 134.527 23.629L134.855 23.465C135.001 23.4103 135.211 23.2644 135.484 23.0275C135.758 22.7905 135.967 22.5991 136.113 22.4532C136.259 22.3256 136.46 22.0887 136.715 21.7423C136.97 21.3959 137.143 21.1225 137.234 20.922C137.344 20.7215 137.471 20.4207 137.617 20.0196C137.781 19.6186 137.891 19.2996 137.945 19.0626C138 18.8256 138.055 18.4884 138.109 18.0509C138.164 17.6134 138.191 17.3035 138.191 17.1212L138.137 16.5743C138.1 16.3738 138.055 16.2006 138 16.0548V15.6446L138.164 15.5353C138.292 15.5353 138.447 15.5717 138.629 15.6446L139.258 15.8634C139.531 15.9545 139.723 16.0639 139.832 16.1915L140.051 16.465C140.033 16.5926 139.978 16.7384 139.887 16.9025C139.777 17.0847 139.695 17.2579 139.641 17.422C139.586 17.586 139.54 17.7592 139.504 17.9415L139.312 18.8439C139.221 19.1538 139.103 19.5366 138.957 19.9923C138.811 20.448 138.602 20.8946 138.328 21.3321C138.055 21.7696 137.763 22.1616 137.453 22.5079C137.143 22.836 136.842 23.0913 136.551 23.2735C136.259 23.4376 136.004 23.5652 135.785 23.6564C135.566 23.7475 135.348 23.8204 135.129 23.8751Z" fill="#333333"/>
</svg>
