<svg width="320" height="60" viewBox="0 0 320 60" fill="none" xmlns="http://www.w3.org/2000/svg">
<path d="M108.293 30.0898C108.038 30.0898 107.846 30.0078 107.719 29.8438C107.555 29.5339 107.217 29.1966 106.707 28.832L106.762 28.6953C107.327 28.9323 107.801 29.0508 108.184 29.0508C108.421 29.0508 108.621 28.9141 108.785 28.6406C108.967 28.349 109.159 27.9297 109.359 27.3828C109.596 26.7083 109.724 26.1432 109.742 25.6875C109.742 25.6328 109.715 25.5872 109.66 25.5508C109.605 25.4961 109.56 25.4688 109.523 25.4688C109.359 25.4505 109.049 25.4779 108.594 25.5508L108.02 25.6328C107.855 25.651 107.664 25.6875 107.445 25.7422C107.245 25.7969 107.081 25.8333 106.953 25.8516C106.88 25.8698 106.762 25.9062 106.598 25.9609C106.434 26.0156 106.315 26.043 106.242 26.043C106.151 26.043 106.042 25.9974 105.914 25.9062C105.805 25.7969 105.704 25.6784 105.613 25.5508C105.595 25.5326 105.586 25.4961 105.586 25.4414C105.586 25.3685 105.641 25.2773 105.75 25.168C105.878 25.0404 105.978 24.9401 106.051 24.8672C106.142 24.7578 106.233 24.6302 106.324 24.4844C106.415 24.3203 106.488 24.2018 106.543 24.1289C106.634 23.9831 106.707 23.8099 106.762 23.6094L106.816 23.3633C106.816 23.3451 106.807 23.2995 106.789 23.2266C106.771 23.1354 106.734 23.0898 106.68 23.0898C105.951 23.181 105.413 23.2904 105.066 23.418C104.993 23.4544 104.884 23.4909 104.738 23.5273C104.611 23.5273 104.501 23.4727 104.41 23.3633C104.355 23.3451 104.246 23.1992 104.082 22.9258C104.009 22.8529 103.973 22.7891 103.973 22.7344C103.973 22.6068 104.164 22.5339 104.547 22.5156L105.066 22.4609C105.158 22.4609 105.349 22.4427 105.641 22.4062C106.224 22.3516 107.035 22.2878 108.074 22.2148C108.439 22.1966 109.068 22.151 109.961 22.0781C110.216 22.0599 110.526 22.0234 110.891 21.9688C111.091 21.9141 111.219 21.8867 111.273 21.8867C111.365 21.8867 111.456 21.9232 111.547 21.9961C111.638 22.0326 111.757 22.1055 111.902 22.2148C112.048 22.306 112.158 22.4062 112.23 22.5156C112.303 22.6068 112.34 22.6979 112.34 22.7891C112.34 22.8802 112.294 22.944 112.203 22.9805C112.112 23.0169 111.993 23.0169 111.848 22.9805C111.629 22.9258 111.374 22.8893 111.082 22.8711C110.809 22.8529 110.645 22.8438 110.59 22.8438C109.97 22.8255 109.195 22.8529 108.266 22.9258C108.01 22.9622 107.819 22.9805 107.691 22.9805C107.801 23.0716 107.901 23.2174 107.992 23.418V23.4727C107.992 23.5273 107.965 23.6003 107.91 23.6914C107.855 23.7826 107.792 23.8464 107.719 23.8828C107.628 23.9375 107.518 24.0651 107.391 24.2656C107.263 24.4661 107.181 24.5938 107.145 24.6484C107.035 24.7943 106.98 24.9128 106.98 25.0039C106.98 25.0768 107.053 25.1042 107.199 25.0859C107.327 25.0677 107.591 25.0312 107.992 24.9766C108.411 24.9036 108.721 24.8398 108.922 24.7852C108.977 24.7669 109.059 24.7487 109.168 24.7305C109.296 24.7122 109.441 24.6758 109.605 24.6211C109.733 24.6029 109.861 24.6302 109.988 24.7031C110.134 24.776 110.353 24.931 110.645 25.168C110.863 25.332 110.973 25.4779 110.973 25.6055C110.973 25.6966 110.936 25.7878 110.863 25.8789C110.79 26.0065 110.736 26.1797 110.699 26.3984C110.535 27.1641 110.344 27.7839 110.125 28.2578C109.961 28.5859 109.806 28.8594 109.66 29.0781C109.514 29.2786 109.332 29.4792 109.113 29.6797C108.876 29.9531 108.603 30.0898 108.293 30.0898ZM108.484 39.6328C107.609 39.6328 106.88 39.4141 106.297 38.9766C105.695 38.4844 105.395 37.9102 105.395 37.2539C105.395 36.7435 105.586 36.2969 105.969 35.9141C106.461 35.4948 107.081 35.2852 107.828 35.2852C107.865 35.2852 107.892 35.2487 107.91 35.1758C107.947 35.0846 107.965 34.9661 107.965 34.8203L107.992 34.1094C107.865 34.1276 107.618 34.1549 107.254 34.1914C106.908 34.2279 106.652 34.2643 106.488 34.3008C106.579 34.2826 106.297 34.3464 105.641 34.4922C105.586 34.5104 105.486 34.5195 105.34 34.5195C104.993 34.5195 104.702 34.3646 104.465 34.0547C104.355 33.9453 104.301 33.8542 104.301 33.7812C104.301 33.6719 104.465 33.6172 104.793 33.6172L105.641 33.5625L107.965 33.2617V32.9336V32.25C107.947 32.1771 107.938 32.0951 107.938 32.0039C107.938 31.9128 107.928 31.8398 107.91 31.7852C107.874 31.6393 107.855 31.5482 107.855 31.5117C107.855 31.3841 107.919 31.3203 108.047 31.3203C108.211 31.3203 108.493 31.4388 108.895 31.6758C109.022 31.7487 109.086 31.849 109.086 31.9766C109.086 32.0677 109.068 32.1497 109.031 32.2227C109.013 32.2773 109.004 32.3411 109.004 32.4141V33.1797L109.824 33.0977L110.836 32.9883C110.927 32.9701 111.027 32.9427 111.137 32.9062C111.264 32.8698 111.365 32.8516 111.438 32.8516C111.547 32.8516 111.684 32.9062 111.848 33.0156C112.158 33.2161 112.312 33.3893 112.312 33.5352C112.312 33.681 112.158 33.7539 111.848 33.7539C111.757 33.7539 111.629 33.7721 111.465 33.8086C111.301 33.8268 111.091 33.8451 110.836 33.8633L109.004 34L108.977 35.668C108.94 35.9414 108.74 36.1146 108.375 36.1875H108.32C108.211 36.1875 108.102 36.1784 107.992 36.1602C107.901 36.1237 107.828 36.1055 107.773 36.1055C107.628 36.1055 107.482 36.1146 107.336 36.1328C107.19 36.151 107.062 36.2057 106.953 36.2969C106.643 36.5703 106.488 36.8893 106.488 37.2539C106.488 37.6185 106.661 37.9466 107.008 38.2383C107.318 38.5299 107.81 38.6758 108.484 38.6758C109.378 38.6393 110.107 38.3932 110.672 37.9375C110.909 37.7734 111.091 37.6914 111.219 37.6914C111.292 37.6914 111.383 37.7096 111.492 37.7461C111.51 37.7643 111.547 37.8008 111.602 37.8555C111.656 37.9102 111.684 37.9648 111.684 38.0195C111.684 38.5299 111.255 38.9492 110.398 39.2773C109.76 39.5143 109.122 39.6328 108.484 39.6328ZM113.242 29.2695C113.333 29.2695 113.47 29.3333 113.652 29.4609C113.634 29.4974 113.671 29.5703 113.762 29.6797C113.853 29.7708 113.917 29.8346 113.953 29.8711C114.044 29.9622 114.135 30.0716 114.227 30.1992C114.336 30.3268 114.454 30.4635 114.582 30.6094C114.91 30.9557 115.667 31.8581 116.852 33.3164C117.052 33.6081 117.152 33.7812 117.152 33.8359C117.152 34.0182 117.043 34.1094 116.824 34.1094C116.697 34.1094 116.56 34.0182 116.414 33.8359C116.068 33.4714 115.448 32.8971 114.555 32.1133C113.862 31.4753 113.233 30.9831 112.668 30.6367C112.395 30.5091 112.258 30.3633 112.258 30.1992C112.258 30.0716 112.395 29.8893 112.668 29.6523C112.923 29.3971 113.115 29.2695 113.242 29.2695ZM93.8008 33.125L93.6641 40.0977L93.6367 41L93.5547 41.6289C93.5365 41.7565 93.4909 41.9206 93.418 42.1211L93.1719 42.6133C93.0807 42.7409 92.9987 42.8503 92.9258 42.9414L92.707 43.0781C92.5794 43.0781 92.4518 42.9779 92.3242 42.7773C92.2513 42.668 92.1602 42.4492 92.0508 42.1211C91.9232 41.793 91.832 41.5195 91.7773 41.3008C91.7591 41.1732 91.75 41.0091 91.75 40.8086C91.75 40.5534 91.7956 40.2161 91.8867 39.7969C91.9961 39.3776 92.069 39.0768 92.1055 38.8945C92.1419 38.694 92.1966 38.2747 92.2695 37.6367L92.4336 36.2148L92.4609 35.1758L92.5156 34.4102C91.7682 35.3398 91.1667 36.0417 90.7109 36.5156C90.2552 36.9896 89.681 37.4909 88.9883 38.0195C88.2956 38.5299 87.7214 38.8763 87.2656 39.0586L86.582 39.2773L85.707 39.4961C85.6888 39.3867 85.7435 39.2865 85.8711 39.1953L86.3086 38.8945C86.418 38.8216 86.6185 38.6758 86.9102 38.457L88.4961 37.0352C88.9336 36.6159 89.5078 35.9505 90.2188 35.0391C90.9297 34.1458 91.431 33.4076 91.7227 32.8242L92.2148 31.9766L90.0273 32.4414C89.8268 32.4779 89.5716 32.5417 89.2617 32.6328C88.9518 32.724 88.724 32.7695 88.5781 32.7695C88.3411 32.7695 88.0404 32.6784 87.6758 32.4961L87.3203 32.3594C87.0286 32.2318 86.819 32.1042 86.6914 31.9766L86.5547 31.7305C86.5911 31.5846 86.7096 31.5117 86.9102 31.5117L87.8398 31.457L88.9883 31.3477C89.4076 31.3112 89.8997 31.2565 90.4648 31.1836L92.6797 30.8828L92.7617 28.7773L90.3008 29.0234L90.082 29.2148L89.6719 29.2969C89.526 29.1693 89.4076 28.9779 89.3164 28.7227C89.2435 28.4674 89.1888 28.1393 89.1523 27.7383L88.7148 24.1289C88.6784 23.8737 88.6419 23.6549 88.6055 23.4727C88.5508 23.2904 88.4779 23.0716 88.3867 22.8164L88.1953 22.3516L87.8125 21.668C87.8854 21.5586 88.0404 21.513 88.2773 21.5312L88.9336 21.6406L89.6445 21.832L92.8711 21.3945C93.418 21.3398 94.056 21.2487 94.7852 21.1211L96.3711 20.8477C96.6992 20.7747 96.9909 20.6927 97.2461 20.6016L97.6562 20.4648C97.8203 20.4648 98.0755 20.5195 98.4219 20.6289C98.7682 20.7383 99.0143 20.8385 99.1602 20.9297C99.306 21.0026 99.5065 21.1393 99.7617 21.3398L100.145 21.8047V22.1055L99.8711 22.4883C99.6888 22.7253 99.5521 22.9622 99.4609 23.1992C99.3698 23.4544 99.2878 23.7096 99.2148 23.9648L98.1484 27.6289C98.0026 28.1211 97.8841 28.4492 97.793 28.6133C97.6836 28.7956 97.556 28.9232 97.4102 28.9961L96.9453 29.0508L96.6992 28.9141L96.5625 28.3672L93.9648 28.6406L93.8555 30.8281L95.3867 30.6914L96.5352 30.582L97.8203 30.418C98.1667 30.3815 98.513 30.3268 98.8594 30.2539C99.2057 30.1628 99.4518 30.1172 99.5977 30.1172C99.7799 30.1354 99.9987 30.1992 100.254 30.3086C100.509 30.418 100.746 30.5365 100.965 30.6641C101.184 30.7917 101.384 30.9466 101.566 31.1289L101.812 31.4844C101.794 31.6484 101.712 31.7487 101.566 31.7852C101.421 31.8216 101.238 31.8398 101.02 31.8398L100.309 31.7852C100.163 31.7852 99.6615 31.7669 98.8047 31.7305C97.9479 31.694 97.3372 31.6758 96.9727 31.6758C96.6081 31.6758 96.125 31.7031 95.5234 31.7578L94.5664 31.8398L93.8281 31.9492C94.0469 32.2409 94.2109 32.4414 94.3203 32.5508L95.332 33.7266L96.6992 35.2031C97.1914 35.6953 97.6654 36.1146 98.1211 36.4609C98.5951 36.8073 99.1055 37.1081 99.6523 37.3633C100.199 37.6549 100.637 37.8646 100.965 37.9922C101.311 38.1198 101.603 38.2201 101.84 38.293L102.305 38.457L102.605 38.6484C102.605 38.7943 102.533 38.8945 102.387 38.9492L101.703 39.1406C101.466 39.1953 101.056 39.2682 100.473 39.3594C99.9805 39.4505 99.5521 39.4961 99.1875 39.4961C98.8411 39.4961 98.5859 39.4596 98.4219 39.3867C98.2578 39.3138 98.0755 39.1953 97.875 39.0312C97.6927 38.849 97.474 38.5846 97.2188 38.2383C96.9453 37.8919 96.6081 37.4089 96.207 36.7891L94.8672 34.793L94.0469 33.5078L93.8008 33.125ZM90.1367 25.168L92.707 24.8398L92.6523 24.0195L92.5977 23.582L92.5156 22.9805L92.2695 22.1602L89.8086 22.5156L90.1367 25.168ZM92.7617 25.7148C92.1602 25.7878 91.6862 25.8424 91.3398 25.8789C91.1029 25.8971 90.8932 25.9062 90.7109 25.9062L90.1914 25.8789L90.3555 28.0664L92.7617 27.9023V25.7148ZM94.3203 24.6484L95.2773 24.457C95.7513 24.3659 96.043 24.3112 96.1523 24.293L96.8633 24.4023L97.3828 24.457L97.5742 23.1445C97.6289 22.8529 97.6562 22.5977 97.6562 22.3789L97.6016 21.9961C97.5469 21.8685 97.4466 21.7773 97.3008 21.7227C97.1914 21.6862 97.0182 21.668 96.7812 21.668L93.6367 22.0234C93.9831 22.224 94.2383 22.3971 94.4023 22.543L94.6758 22.9531C94.694 23.0625 94.6576 23.2083 94.5664 23.3906C94.4935 23.6276 94.4388 23.8828 94.4023 24.1562L94.3203 24.6484ZM94.0742 27.6289C94.5299 27.5924 95.0039 27.5378 95.4961 27.4648C95.8971 27.3919 96.1706 27.3555 96.3164 27.3555L96.8086 27.3828L96.9727 26.6992L97.2461 25.25L94.1836 25.6055L94.0742 27.6289ZM83.957 24.5664C83.793 24.457 83.6654 24.3477 83.5742 24.2383C83.4648 24.1289 83.3646 24.0104 83.2734 23.8828C83.1823 23.737 83.0638 23.5273 82.918 23.2539L82.5352 22.4336C82.4258 22.1602 82.2799 21.8138 82.0977 21.3945L81.9062 20.9297L81.9336 20.7109L82.2891 20.6289L82.7539 20.793C82.9727 20.9023 83.1732 21.0117 83.3555 21.1211C83.5378 21.2122 83.7201 21.3216 83.9023 21.4492C84.0846 21.5586 84.2487 21.6953 84.3945 21.8594C84.5404 22.0052 84.668 22.1602 84.7773 22.3242C84.8867 22.4701 84.9505 22.6523 84.9688 22.8711L84.9961 23.1172L84.9688 23.3906C84.9505 23.5547 84.9049 23.7096 84.832 23.8555C84.7956 24.0013 84.7135 24.1654 84.5859 24.3477L85.6523 24.2383C86.0169 24.1654 86.2721 24.1289 86.418 24.1289C86.5638 24.1289 86.7461 24.1654 86.9648 24.2383C87.2201 24.3112 87.4388 24.4023 87.6211 24.5117C87.8034 24.6211 87.8854 24.7852 87.8672 25.0039C87.8125 25.1133 87.7122 25.168 87.5664 25.168C87.457 25.2044 87.2747 25.2318 87.0195 25.25C86.7643 25.2865 86.418 25.332 85.9805 25.3867C85.5794 25.4596 85.1966 25.5234 84.832 25.5781L82.918 25.9609C82.5898 26.0156 82.2253 26.0977 81.8242 26.207C81.4232 26.3164 81.0677 26.4076 80.7578 26.4805C80.4479 26.5534 80.1836 26.6445 79.9648 26.7539L79.5547 26.918C79.3906 26.918 79.2357 26.8997 79.0898 26.8633C78.944 26.8268 78.7799 26.7721 78.5977 26.6992L78.1328 26.5078C78.0052 26.4531 77.8503 26.362 77.668 26.2344L77.3945 25.9883L77.4219 25.6875L77.8047 25.5781L78.5156 25.4961C78.9167 25.4596 79.7188 25.332 80.9219 25.1133L83.957 24.5664ZM80.9492 28.7227L81.3867 28.6406C81.569 28.6224 81.8151 28.5677 82.125 28.4766C82.4531 28.3854 82.7721 28.3034 83.082 28.2305C83.4102 28.1393 83.6836 28.0482 83.9023 27.957L84.2852 27.8477L84.6953 27.8203C84.8229 27.8385 85.0143 27.875 85.2695 27.9297C85.5247 27.9844 85.7161 28.0482 85.8438 28.1211L86.0352 28.2852L85.9531 28.5039L85.707 28.668L84.7773 28.8867L82.5898 29.3789L82.2344 29.4883L81.9883 29.543C81.8607 29.543 81.7148 29.5339 81.5508 29.5156L81.0312 29.4062C80.7943 29.2969 80.6302 29.0964 80.5391 28.8047L80.9492 28.7227ZM81.0039 31.4297L81.4141 31.3477L82.0156 31.2383L83.0547 31.0195L83.875 30.7461C84.0573 30.7096 84.2396 30.6823 84.4219 30.6641C84.5677 30.6641 84.7044 30.6732 84.832 30.6914C85.0508 30.7096 85.2331 30.7461 85.3789 30.8008C85.5247 30.8555 85.6706 30.9193 85.8164 30.9922L86.0078 31.1562L85.9805 31.375C85.9076 31.4661 85.7982 31.5117 85.6523 31.5117L84.3398 31.7852L82.9727 32.0586L82.0977 32.2773L81.4688 32.25C81.3047 32.2135 81.1315 32.168 80.9492 32.1133C80.7669 32.0404 80.6393 31.8398 80.5664 31.5117C80.7852 31.4753 80.931 31.4479 81.0039 31.4297ZM80.8945 34.6289L82.4258 34.3008C82.6081 34.2643 82.7812 34.2188 82.9453 34.1641L83.6836 33.918C84.0117 33.8086 84.2578 33.6992 84.4219 33.5898L84.75 33.4258C84.8776 33.4258 85.0326 33.4622 85.2148 33.5352C85.3971 33.6081 85.6068 33.6992 85.8438 33.8086C86.0807 33.918 86.2904 34.0365 86.4727 34.1641C86.6367 34.2734 86.6823 34.4557 86.6094 34.7109C86.4453 34.9115 86.3177 35.0938 86.2266 35.2578C86.1354 35.4219 86.0534 35.5859 85.9805 35.75C85.9076 35.9141 85.8346 36.1055 85.7617 36.3242L85.2148 37.9102L85.543 38.1289L85.6523 38.5938C85.5247 38.612 85.3971 38.6302 85.2695 38.6484C85.1237 38.6484 84.9688 38.6576 84.8047 38.6758L84.4766 38.7031C84.349 38.7214 84.0299 38.7669 83.5195 38.8398L81.8789 39.2227C81.7695 39.4596 81.5781 39.5599 81.3047 39.5234C81.1224 39.3594 81.0039 39.2044 80.9492 39.0586C80.8763 38.8945 80.8398 38.7396 80.8398 38.5938L80.4844 36.6523C80.4297 36.3971 80.3659 36.1602 80.293 35.9414C80.2383 35.7227 80.1745 35.5404 80.1016 35.3945C80.0104 35.2669 79.9102 35.1576 79.8008 35.0664L79.5273 34.6836C79.5638 34.556 79.6823 34.474 79.8828 34.4375L80.3477 34.5195L80.8945 34.6289ZM81.9336 38.1562L84.1211 37.6914L84.5039 35.3672L84.5312 35.0664L84.3945 34.793C84.2305 34.7747 84.0117 34.793 83.7383 34.8477L81.5508 35.2852L81.9336 38.1562ZM153.027 29.2695C152.754 29.2695 152.553 29.1237 152.426 28.832L152.18 28.2852C151.469 28.4674 150.895 28.6042 150.457 28.6953L148.68 29.1328C148.315 29.224 148.087 29.2695 147.996 29.2695C147.887 29.2695 147.796 29.2513 147.723 29.2148C147.668 29.1602 147.622 29.1146 147.586 29.0781C147.549 29.0234 147.522 28.9779 147.504 28.9414C147.358 28.6862 147.294 28.513 147.312 28.4219L147.504 28.1211C147.978 27.4648 148.415 26.526 148.816 25.3047L148.27 25.3867L147.559 25.4688C147.504 25.487 147.385 25.5234 147.203 25.5781C147.039 25.6146 146.911 25.6055 146.82 25.5508C146.62 25.4232 146.355 25.1953 146.027 24.8672C145.954 24.7943 145.918 24.7396 145.918 24.7031C145.918 24.5938 146.118 24.5391 146.52 24.5391H147.449C148.069 24.5026 148.634 24.457 149.145 24.4023C149.254 24.1289 149.372 23.7826 149.5 23.3633C149.628 22.944 149.719 22.6068 149.773 22.3516C149.773 22.2969 149.773 22.1875 149.773 22.0234C149.792 21.8594 149.828 21.7591 149.883 21.7227H149.91C149.983 21.7227 150.083 21.7591 150.211 21.832C150.339 21.9049 150.457 21.9961 150.566 22.1055C150.913 22.4518 151.013 22.7253 150.867 22.9258C150.794 22.944 150.639 23.2448 150.402 23.8281C150.384 23.8646 150.32 24.0286 150.211 24.3203C150.357 24.3021 150.885 24.2383 151.797 24.1289C152.216 24.0924 152.535 24.0469 152.754 23.9922C153.064 23.901 153.31 23.8555 153.492 23.8555C153.638 23.8555 153.757 23.9102 153.848 24.0195C153.939 24.1107 154.003 24.1745 154.039 24.2109C154.094 24.2656 154.158 24.375 154.23 24.5391C154.303 24.6667 154.331 24.7578 154.312 24.8125C154.24 24.9219 154.112 24.9766 153.93 24.9766C153.328 24.9401 152.608 24.9583 151.77 25.0312C151.405 25.0677 151.132 25.1042 150.949 25.1406L149.883 25.25L149.637 25.9883L149.336 26.6445C149.245 26.8633 149.145 27.082 149.035 27.3008C148.926 27.5195 148.844 27.7018 148.789 27.8477C148.771 27.8841 148.762 27.9388 148.762 28.0117C148.762 28.1029 148.816 28.1484 148.926 28.1484C149.072 28.1484 149.573 28.0664 150.43 27.9023L151.441 27.7383L151.906 27.6289C151.742 27.1732 151.615 26.8815 151.523 26.7539C151.432 26.6263 151.378 26.5443 151.359 26.5078L151.523 26.3438C152.234 26.7995 152.809 27.2643 153.246 27.7383C153.374 27.9023 153.456 28.0573 153.492 28.2031C153.547 28.349 153.565 28.513 153.547 28.6953C153.51 28.8594 153.447 28.987 153.355 29.0781C153.319 29.1693 153.21 29.2331 153.027 29.2695ZM153.492 38.5664C153.747 38.7305 153.875 38.8854 153.875 39.0312C153.875 39.2318 153.72 39.3594 153.41 39.4141C153.1 39.4688 152.663 39.5052 152.098 39.5234C151.277 39.5417 150.749 39.5143 150.512 39.4414C150.111 39.2591 149.91 38.9583 149.91 38.5391L149.938 37.5273C149.974 37.1992 149.992 36.9076 149.992 36.6523C150.01 36.4883 150.02 36.1693 150.02 35.6953C149.746 36.3151 149.391 36.9167 148.953 37.5C148.643 37.8828 148.37 38.2018 148.133 38.457C147.896 38.694 147.613 38.9219 147.285 39.1406C146.957 39.3594 146.656 39.4688 146.383 39.4688C146.219 39.4688 146.137 39.4141 146.137 39.3047C146.137 39.2865 146.31 39.1497 146.656 38.8945C147.021 38.6211 147.385 38.2474 147.75 37.7734C148.297 37.0443 148.771 36.1875 149.172 35.2031C148.461 35.2943 147.987 35.3763 147.75 35.4492C147.659 35.4674 147.577 35.4948 147.504 35.5312C147.431 35.5495 147.34 35.5495 147.23 35.5312C147.139 35.4948 147.012 35.4219 146.848 35.3125C146.684 35.1849 146.556 35.0664 146.465 34.957C146.392 34.8477 146.355 34.7747 146.355 34.7383C146.355 34.6471 146.492 34.6016 146.766 34.6016C147.44 34.6016 148.306 34.5286 149.363 34.3828C149.473 33.9635 149.527 33.2891 149.527 32.3594V31.8398C149.527 31.6211 149.573 31.5026 149.664 31.4844C149.682 31.4661 149.719 31.457 149.773 31.457C149.919 31.457 150.12 31.5664 150.375 31.7852C150.576 31.9492 150.703 32.0768 150.758 32.168C150.831 32.2409 150.84 32.3411 150.785 32.4688C150.767 32.5052 150.73 32.5781 150.676 32.6875C150.621 32.7969 150.585 32.9062 150.566 33.0156C150.548 33.1068 150.512 33.2891 150.457 33.5625C150.402 33.8177 150.366 34.0456 150.348 34.2461C150.603 34.2279 150.922 34.1914 151.305 34.1367C151.688 34.082 151.97 34.0273 152.152 33.9727L152.699 33.8359C152.882 33.7995 153.182 33.9544 153.602 34.3008C153.674 34.3555 153.711 34.4193 153.711 34.4922C153.711 34.5651 153.674 34.6289 153.602 34.6836C153.547 34.7201 153.474 34.7383 153.383 34.7383C153.055 34.7383 152.453 34.793 151.578 34.9023L150.676 34.9844C150.876 35.1302 151.004 35.2578 151.059 35.3672C151.113 35.4766 151.122 35.5859 151.086 35.6953L151.004 36.1328C150.967 36.4974 150.931 36.8984 150.895 37.3359C150.876 37.7734 150.876 38.1107 150.895 38.3477C150.895 38.4388 150.949 38.5208 151.059 38.5938C151.186 38.6667 151.314 38.7031 151.441 38.7031C151.897 38.7031 152.408 38.6576 152.973 38.5664L153.219 38.5117C153.328 38.5117 153.419 38.5299 153.492 38.5664ZM158.742 27.082C158.961 27.082 159.07 27.1823 159.07 27.3828C159.07 27.4922 158.97 27.6471 158.77 27.8477C158.223 28.5221 157.138 29.8073 155.516 31.7031C155.388 31.8672 155.27 31.9492 155.16 31.9492C155.069 31.9492 154.868 31.8125 154.559 31.5391C154.303 31.3203 154.176 31.138 154.176 30.9922C154.176 30.8281 154.312 30.6732 154.586 30.5273C155.005 30.2904 155.634 29.8164 156.473 29.1055C157.311 28.3581 157.931 27.7656 158.332 27.3281C158.496 27.1641 158.633 27.082 158.742 27.082ZM132 25.7422C132.438 25.6875 132.775 25.651 133.012 25.6328L134.844 25.4414C136.138 25.2956 136.849 25.2135 136.977 25.1953L138.398 25.0039C139.036 24.9492 139.492 24.8854 139.766 24.8125L140.23 24.7305C140.467 24.7305 140.677 24.7852 140.859 24.8945C141.06 25.0039 141.352 25.2227 141.734 25.5508L142.5 26.2344C142.646 26.362 142.773 26.5534 142.883 26.8086L142.965 27.2734C142.892 27.4193 142.682 27.5195 142.336 27.5742C142.008 27.6289 141.625 27.7109 141.188 27.8203C140.75 27.9115 140.367 28.0117 140.039 28.1211C139.729 28.2122 139.474 28.2943 139.273 28.3672L138.371 28.4219L138.781 27.875C138.909 27.7292 139.009 27.6107 139.082 27.5195C139.137 27.4102 139.246 27.2279 139.41 26.9727C139.574 26.6992 139.674 26.4714 139.711 26.2891V26.043C139.656 25.9154 139.438 25.8607 139.055 25.8789C138.727 25.9154 138.262 25.9427 137.66 25.9609C137.059 25.9792 136.493 26.0156 135.965 26.0703C135.418 26.125 134.643 26.207 133.641 26.3164L130.742 26.6445C129.794 26.7539 129.174 26.8268 128.883 26.8633L126.805 27.1094C126.148 27.2005 125.665 27.2643 125.355 27.3008L124.781 27.3828H124.234L123.797 27.3281C123.724 27.6745 123.66 27.9479 123.605 28.1484C123.551 28.349 123.432 28.6862 123.25 29.1602C123.068 29.6159 122.904 29.9805 122.758 30.2539C122.612 30.5273 122.43 30.7552 122.211 30.9375C121.992 31.1016 121.792 31.1836 121.609 31.1836C121.445 31.1471 121.299 30.9831 121.172 30.6914C121.062 30.3997 121.008 30.0898 121.008 29.7617L121.035 29.3516C121.09 29.1875 121.227 28.9414 121.445 28.6133C121.664 28.2852 121.855 27.9115 122.02 27.4922C122.184 27.0729 122.32 26.6901 122.43 26.3438C122.539 25.9974 122.63 25.7331 122.703 25.5508L122.949 25.2773C123.059 25.2591 123.168 25.2956 123.277 25.3867C123.368 25.4961 123.451 25.6419 123.523 25.8242L123.66 26.2344C123.97 26.2161 124.198 26.207 124.344 26.207L125.766 26.1523L127.023 26.0703L128.281 25.9883L130.414 25.8516L130.359 23.3633V22.2695C130.359 21.8685 130.341 21.5221 130.305 21.2305C130.286 20.9388 130.25 20.6654 130.195 20.4102C130.141 20.1549 130.086 19.9727 130.031 19.8633L129.73 19.1797C129.785 19.0339 129.949 18.9518 130.223 18.9336C130.441 18.9154 130.697 18.9518 130.988 19.043C131.389 19.1159 131.681 19.1797 131.863 19.2344C132.027 19.2891 132.182 19.3711 132.328 19.4805L132.52 19.9453C132.428 20.2188 132.355 20.5013 132.301 20.793C132.246 21.1211 132.201 21.349 132.164 21.4766C132.164 21.6042 132.155 21.8503 132.137 22.2148L132.055 23.418L132 25.7422ZM130.414 40.0977L130.359 37.582C129.922 37.6185 129.484 37.6458 129.047 37.6641L128.172 37.7188C127.753 37.7188 127.415 37.6914 127.16 37.6367C126.814 37.5638 126.559 37.4818 126.395 37.3906L126.121 37.1719L126.066 36.8984L126.422 36.7891L127.242 36.7617L128.391 36.6523L129.539 36.543L130.359 36.4336V35.75C130.359 35.5495 130.323 35.2305 130.25 34.793C130.177 34.3555 130.104 34.0456 130.031 33.8633L129.84 33.5352L129.074 33.5898H128.336C128.299 33.7539 128.245 33.8997 128.172 34.0273C128.099 34.1367 127.962 34.2005 127.762 34.2188L127.461 33.7539C127.37 33.5716 127.306 33.3438 127.27 33.0703L127.16 32.2773L126.969 31.2383C126.896 30.8737 126.832 30.6003 126.777 30.418C126.723 30.2357 126.641 30.0807 126.531 29.9531C126.404 29.8255 126.267 29.6979 126.121 29.5703L125.957 29.2148L126.285 29.1055L127.023 29.1875L127.406 29.2695C127.734 29.2331 128.026 29.1966 128.281 29.1602C128.555 29.1237 129.138 29.0417 130.031 28.9141C130.924 28.8047 131.663 28.7044 132.246 28.6133C132.829 28.5404 133.312 28.4674 133.695 28.3945L134.434 28.2852L134.68 28.2578C134.862 28.276 135.053 28.3216 135.254 28.3945C135.454 28.4674 135.646 28.5768 135.828 28.7227C136.029 28.8503 136.238 29.0052 136.457 29.1875L136.785 29.543L136.676 29.8711L136.402 30.1445C136.257 30.2721 136.12 30.4089 135.992 30.5547C135.865 30.7188 135.719 30.9284 135.555 31.1836C135.372 31.4388 135.236 31.6758 135.145 31.8945L134.844 32.4961C134.99 32.6055 135.099 32.8151 135.172 33.125C135.044 33.1797 134.826 33.207 134.516 33.207C134.224 33.207 133.841 33.2253 133.367 33.2617L131.945 33.3438L130.961 33.3711C131.234 33.4805 131.49 33.5716 131.727 33.6445C131.945 33.7357 132.109 33.8542 132.219 34L132.328 34.4648C132.201 34.7383 132.128 34.9753 132.109 35.1758V35.5586L132.055 36.1875C132.365 36.151 132.602 36.1146 132.766 36.0781L133.668 35.8867L134.434 35.7227C134.689 35.6862 134.908 35.668 135.09 35.668L135.609 35.8047C135.901 35.8958 136.138 36.0143 136.32 36.1602L136.539 36.4336C136.539 36.5612 136.466 36.6615 136.32 36.7344C136.193 36.8073 135.974 36.8529 135.664 36.8711L134.27 37.1172L132.82 37.3086L132 37.418L131.945 38.4844L131.891 40.043C132.365 40.0065 132.884 39.9701 133.449 39.9336C134.014 39.8971 134.379 39.8698 134.543 39.8516C134.689 39.8333 135.154 39.7786 135.938 39.6875C136.721 39.5964 137.195 39.5508 137.359 39.5508C137.505 39.5143 137.724 39.4779 138.016 39.4414C138.307 39.4049 138.517 39.3867 138.645 39.3867C138.772 39.3867 138.945 39.4232 139.164 39.4961C139.419 39.5508 139.665 39.6419 139.902 39.7695C140.158 39.8789 140.367 39.9974 140.531 40.125C140.714 40.2526 140.85 40.3711 140.941 40.4805C141.033 40.6081 141.078 40.7357 141.078 40.8633C141.042 41.0091 140.932 41.082 140.75 41.082H139.41C139.246 41.1003 138.818 41.1094 138.125 41.1094H137.359C136.794 41.1094 136.12 41.1185 135.336 41.1367C134.169 41.1549 133.185 41.1823 132.383 41.2188C131.544 41.237 130.724 41.2826 129.922 41.3555L127.844 41.5469C127.224 41.6016 126.641 41.6745 126.094 41.7656C125.547 41.8568 125.128 41.9297 124.836 41.9844L124.316 42.0664C124.079 42.0664 123.87 42.0391 123.688 41.9844C123.505 41.9297 123.296 41.8477 123.059 41.7383C122.822 41.6289 122.63 41.5286 122.484 41.4375C122.32 41.3464 122.193 41.237 122.102 41.1094L121.992 40.8633C122.065 40.7174 122.211 40.6445 122.43 40.6445L123.551 40.5898L125 40.5625C125.365 40.5443 125.875 40.5078 126.531 40.4531L128.281 40.3164C129.029 40.2435 129.484 40.1979 129.648 40.1797L130.414 40.0977ZM127.898 30.0352C127.971 30.4362 128.026 30.7279 128.062 30.9102L128.172 31.8672L128.281 32.6875C128.664 32.6693 128.956 32.6419 129.156 32.6055L130.523 32.4961C131.107 32.4596 131.581 32.4141 131.945 32.3594L132.984 32.1953L133.531 32.1133C133.586 31.9128 133.632 31.7396 133.668 31.5938C133.723 31.4479 133.786 31.1836 133.859 30.8008C133.932 30.3997 133.987 30.0625 134.023 29.7891L133.996 29.4883C133.905 29.3789 133.714 29.3242 133.422 29.3242C133.057 29.3242 132.693 29.3424 132.328 29.3789C131.945 29.4154 131.581 29.4609 131.234 29.5156C130.906 29.5703 130.587 29.6159 130.277 29.6523L129.211 29.8438C128.883 29.8984 128.646 29.9531 128.5 30.0078L128.227 30.0898L127.898 30.0352ZM125.355 21.6953L125.574 21.668C126.03 21.7409 126.385 21.8138 126.641 21.8867C126.896 21.9596 127.169 22.0781 127.461 22.2422C127.753 22.4062 127.953 22.5794 128.062 22.7617C128.172 22.9258 128.236 23.1901 128.254 23.5547C128.254 23.8464 128.208 24.0833 128.117 24.2656C128.008 24.4844 127.826 24.6302 127.57 24.7031C127.424 24.7031 127.279 24.6667 127.133 24.5938C126.987 24.5208 126.805 24.3203 126.586 23.9922L125.984 23.2266L125.684 22.707C125.483 22.4154 125.355 22.2057 125.301 22.0781C125.246 21.9505 125.264 21.8229 125.355 21.6953ZM133.859 23.9648L134.406 23.1992L134.98 22.4336C135.163 22.1784 135.299 21.9779 135.391 21.832C135.5 21.6862 135.6 21.4948 135.691 21.2578C135.783 21.0391 135.828 20.8294 135.828 20.6289L136.102 20.1914C136.284 20.1732 136.493 20.2096 136.73 20.3008C137.004 20.3919 137.214 20.4648 137.359 20.5195C137.505 20.5924 137.678 20.7018 137.879 20.8477C138.079 20.9935 138.225 21.1484 138.316 21.3125L138.207 21.75C137.934 21.8229 137.724 21.9232 137.578 22.0508C137.396 22.1966 137.086 22.4154 136.648 22.707L135.801 23.2812C135.491 23.5 135.227 23.6549 135.008 23.7461L134.133 24.1836H133.723L133.859 23.9648ZM193.359 30.2266C193.177 30.4635 192.986 30.582 192.785 30.582C192.73 30.582 192.703 30.5365 192.703 30.4453C192.703 30.3177 192.74 30.1719 192.812 30.0078C192.812 30.0078 192.995 29.6432 193.359 28.9141C193.378 28.8411 193.405 28.7682 193.441 28.6953C193.478 28.6224 193.505 28.5586 193.523 28.5039V28.4766C193.523 28.4401 193.496 28.4036 193.441 28.3672C193.387 28.3307 193.323 28.3216 193.25 28.3398C192.958 28.3581 192.521 28.4036 191.938 28.4766C191.372 28.5495 190.953 28.6224 190.68 28.6953C190.57 28.7318 190.434 28.7773 190.27 28.832C190.124 28.8867 190.005 28.9141 189.914 28.9141C189.586 28.9141 189.312 28.8138 189.094 28.6133C188.911 28.4857 188.775 28.3581 188.684 28.2305L188.629 28.0938C188.629 28.0026 188.784 27.9753 189.094 28.0117C189.513 28.0482 190.379 27.9935 191.691 27.8477L192.238 27.7656C192.384 27.7474 192.612 27.7201 192.922 27.6836C193.25 27.6289 193.505 27.5742 193.688 27.5195C193.742 27.5013 193.797 27.4831 193.852 27.4648C193.924 27.4284 193.988 27.4102 194.043 27.4102C194.134 27.4102 194.243 27.4557 194.371 27.5469C194.517 27.638 194.635 27.7201 194.727 27.793C194.854 27.8841 194.936 27.9661 194.973 28.0391C195.027 28.0938 195.046 28.1667 195.027 28.2578C195.027 28.349 194.982 28.431 194.891 28.5039C194.799 28.5768 194.736 28.6315 194.699 28.668C194.663 28.7227 194.535 28.8594 194.316 29.0781C194.225 29.224 194.061 29.4245 193.824 29.6797C193.605 29.9349 193.451 30.1172 193.359 30.2266ZM191.992 35.6133C191.992 35.5586 192.083 35.4219 192.266 35.2031C192.466 34.9661 192.621 34.7839 192.73 34.6562C193.004 34.2917 193.332 33.763 193.715 33.0703C194.116 32.3776 194.344 31.9219 194.398 31.7031C194.435 31.5938 194.38 31.5391 194.234 31.5391C193.943 31.5391 193.141 31.6211 191.828 31.7852C190.971 31.8945 190.333 32.0039 189.914 32.1133C189.823 32.168 189.732 32.1953 189.641 32.1953C189.495 32.1953 189.34 32.0951 189.176 31.8945C189.103 31.7669 189.066 31.6484 189.066 31.5391C189.066 31.4661 189.112 31.3932 189.203 31.3203L189.285 31.2109C189.34 31.1016 189.404 30.9557 189.477 30.7734C189.549 30.5911 189.613 30.418 189.668 30.2539C189.759 29.9622 189.823 29.6432 189.859 29.2969C189.878 29.0964 189.987 29.0417 190.188 29.1328C190.443 29.2604 190.634 29.388 190.762 29.5156C190.908 29.625 190.953 29.707 190.898 29.7617C190.716 29.9805 190.57 30.2266 190.461 30.5C190.37 30.7917 190.315 30.9831 190.297 31.0742C190.297 31.1471 190.342 31.1836 190.434 31.1836C190.707 31.1836 191.117 31.138 191.664 31.0469C191.974 31.0104 192.357 30.9648 192.812 30.9102C193.268 30.8555 193.633 30.8008 193.906 30.7461L194.59 30.6094C194.645 30.5911 194.717 30.582 194.809 30.582C194.9 30.582 194.991 30.6185 195.082 30.6914C195.173 30.7461 195.273 30.819 195.383 30.9102C195.565 31.0742 195.684 31.2109 195.738 31.3203C195.793 31.4115 195.82 31.5208 195.82 31.6484C195.82 31.7214 195.766 31.8125 195.656 31.9219C195.565 32.0312 195.456 32.2044 195.328 32.4414C194.799 33.5169 194.116 34.4193 193.277 35.1484C193.04 35.3307 192.776 35.4857 192.484 35.6133C192.357 35.6497 192.238 35.6771 192.129 35.6953C192.038 35.6953 191.992 35.668 191.992 35.6133ZM172.223 31.2109L176.516 30.9648C176.57 30.6003 176.598 30.3268 176.598 30.1445L176.543 29.2148L176.816 29.0781C177.035 29.0964 177.217 29.1328 177.363 29.1875C177.509 29.2422 177.719 29.3516 177.992 29.5156C178.266 29.6797 178.466 29.8346 178.594 29.9805L178.785 30.2539L178.676 30.8008L180.48 30.582L181.793 30.4453C182.34 30.3906 182.796 30.3268 183.16 30.2539C183.525 30.181 183.798 30.1445 183.98 30.1445C184.163 30.1445 184.354 30.1901 184.555 30.2812C184.755 30.3542 185.029 30.4818 185.375 30.6641C185.721 30.8281 185.986 30.9831 186.168 31.1289C186.314 31.2383 186.359 31.4297 186.305 31.7031C186.177 31.8125 186.004 31.8672 185.785 31.8672L184.664 31.8945L180.48 31.8672L178.293 31.8945C178.111 32.3138 177.938 32.7331 177.773 33.1523C177.609 33.5898 177.372 34.1367 177.062 34.793C176.753 35.431 176.452 35.9596 176.16 36.3789L175.832 36.8711L177.418 37.6367C178.001 37.9284 178.484 38.1927 178.867 38.4297C179.25 38.6667 179.633 38.9857 180.016 39.3867C180.398 39.7878 180.654 40.1706 180.781 40.5352C180.909 40.8997 180.973 41.2096 180.973 41.4648C180.973 41.6836 180.936 41.8477 180.863 41.957L180.699 42.1758L180.316 42.3125C180.189 42.3125 180.061 42.2852 179.934 42.2305C179.788 42.1576 179.605 42.0391 179.387 41.875C179.168 41.7109 178.703 41.2917 177.992 40.6172C177.281 39.9609 176.634 39.4049 176.051 38.9492L174.766 38.0742C174.237 38.5664 173.754 38.9766 173.316 39.3047C172.897 39.651 172.368 39.9883 171.73 40.3164C171.092 40.6445 170.391 40.9089 169.625 41.1094C168.878 41.3099 168.249 41.4284 167.738 41.4648H166.098L165.715 41.4375L165.605 41.2734C165.624 41.1641 165.733 41.082 165.934 41.0273L166.371 40.918C166.699 40.8451 166.973 40.7721 167.191 40.6992C167.428 40.6445 167.866 40.4987 168.504 40.2617C169.16 40.0247 169.816 39.724 170.473 39.3594C171.165 39.013 171.749 38.6029 172.223 38.1289L173.289 37.1445L171.293 36.1602C170.855 35.9414 170.436 35.7682 170.035 35.6406C169.634 35.513 169.352 35.3945 169.188 35.2852C169.023 35.1576 168.941 35.0208 168.941 34.875C168.941 34.7292 169.005 34.556 169.133 34.3555L169.543 33.8086C169.816 33.444 170.017 33.1341 170.145 32.8789L170.363 32.3867C169.816 32.4596 169.306 32.5234 168.832 32.5781C168.34 32.6328 167.72 32.7331 166.973 32.8789L165.633 33.125L164.566 33.3711C164.311 33.4076 164.102 33.4258 163.938 33.4258C163.701 33.4258 163.473 33.3802 163.254 33.2891L162.57 32.9609C162.206 32.7969 161.969 32.5417 161.859 32.1953C161.914 32.0677 162.051 31.9948 162.27 31.9766L163.363 31.9219L165.523 31.8398L168.723 31.5664L170.801 31.4023C170.91 31.0378 171.029 30.6823 171.156 30.3359C171.284 29.9714 171.375 29.5885 171.43 29.1875C171.503 28.8047 171.548 28.3945 171.566 27.957C171.585 27.7383 171.594 27.5469 171.594 27.3828L171.566 27.1094L171.375 26.3438L171.348 25.9883C171.421 25.8789 171.548 25.8242 171.73 25.8242C171.949 25.8424 172.186 25.8971 172.441 25.9883C172.697 26.0612 172.97 26.1979 173.262 26.3984C173.59 26.599 173.818 26.7812 173.945 26.9453L174.137 27.4102L173.973 27.7383C173.882 27.9023 173.745 28.1211 173.562 28.3945C173.38 28.6862 173.262 28.9049 173.207 29.0508L172.414 30.8555L172.223 31.2109ZM176.379 31.9766L171.785 32.2773L170.773 34.0273L170.527 34.793L171.539 35.2305L174.246 36.2148L174.848 35.3398C175.012 35.0664 175.212 34.7018 175.449 34.2461C175.704 33.7904 175.887 33.4076 175.996 33.0977L176.379 31.9766ZM168.012 23.5273C169.762 23.4727 170.801 23.4271 171.129 23.3906L174.465 23.1172C174.191 22.8802 174.009 22.6888 173.918 22.543L173.043 21.0117C172.77 20.6107 172.624 20.3281 172.605 20.1641L172.742 19.8086C172.888 19.7904 173.061 19.8086 173.262 19.8633L174.547 20.3281C174.875 20.4557 175.158 20.6562 175.395 20.9297C175.632 21.2031 175.777 21.4948 175.832 21.8047L175.859 22.0781L175.832 22.4336L175.613 22.9531L179.496 22.4883C180.079 22.4154 180.517 22.3242 180.809 22.2148L181.328 22.0781C181.529 22.0964 181.747 22.1693 181.984 22.2969C182.221 22.4427 182.586 22.7253 183.078 23.1445C183.57 23.5638 183.889 23.9193 184.035 24.2109C184.145 24.4115 184.19 24.612 184.172 24.8125C184.117 24.9401 183.935 25.0404 183.625 25.1133L182.887 25.2773C182.595 25.3503 182.221 25.4688 181.766 25.6328C181.31 25.7969 180.9 25.9701 180.535 26.1523L179.797 26.4805L179.441 26.2891L179.797 25.6602C179.852 25.5508 179.988 25.332 180.207 25.0039C180.426 24.6758 180.599 24.3932 180.727 24.1562L180.836 23.8555L180.809 23.6367C180.699 23.4909 180.517 23.3997 180.262 23.3633C180.098 23.3451 179.943 23.3451 179.797 23.3633L178.184 23.4453C177.892 23.4635 177.154 23.5456 175.969 23.6914C174.766 23.8372 174.082 23.9193 173.918 23.9375L171.539 24.293L170.199 24.5117L169.023 24.7305L168.121 24.6484C168.085 24.8854 168.048 25.1042 168.012 25.3047C167.975 25.5052 167.857 25.8333 167.656 26.2891C167.474 26.7266 167.283 27.1185 167.082 27.4648C166.863 27.793 166.626 27.9753 166.371 28.0117C166.152 28.0117 165.952 27.9297 165.77 27.7656C165.551 27.5651 165.432 27.3099 165.414 27C165.414 26.6719 165.451 26.4167 165.523 26.2344L166.043 25.332L166.754 23.5L166.973 22.7891C167.064 22.5521 167.173 22.4245 167.301 22.4062C167.428 22.4062 167.538 22.4701 167.629 22.5977C167.738 22.7435 167.829 22.9167 167.902 23.1172L168.012 23.5273ZM237.492 28.4219C237.747 28.6406 237.875 28.9961 237.875 29.4883C237.839 29.7617 237.72 29.8893 237.52 29.8711C237.283 29.8893 236.991 29.7435 236.645 29.4336C236.499 29.2695 236.198 29.0143 235.742 28.668C235.305 28.3034 234.913 28.0117 234.566 27.793C234.038 28.2669 233.4 28.7227 232.652 29.1602C231.923 29.5977 231.34 29.8164 230.902 29.8164C230.72 29.8164 230.629 29.7617 230.629 29.6523C230.629 29.6159 230.839 29.4701 231.258 29.2148C231.75 28.9414 232.233 28.6224 232.707 28.2578C233.163 27.9115 233.536 27.5924 233.828 27.3008L233.199 26.9453C232.78 26.6719 232.507 26.5078 232.379 26.4531C231.832 26.1068 231.559 25.888 231.559 25.7969C231.559 25.7422 231.65 25.7148 231.832 25.7148C231.978 25.6966 232.315 25.806 232.844 26.043L234.375 26.7539L234.785 26.3164C234.84 26.2435 234.904 26.1706 234.977 26.0977C235.049 26.0247 235.122 25.9427 235.195 25.8516C235.469 25.5052 235.688 25.2135 235.852 24.9766C236.034 24.7214 236.134 24.5299 236.152 24.4023C236.152 24.3294 236.089 24.293 235.961 24.293C235.779 24.293 235.387 24.3385 234.785 24.4297L234.129 24.5117C233.618 24.5846 233.19 24.6667 232.844 24.7578C232.643 24.7943 232.47 24.849 232.324 24.9219C232.27 24.9401 232.188 24.9492 232.078 24.9492C231.969 24.9492 231.887 24.9492 231.832 24.9492C231.777 24.931 231.732 24.8945 231.695 24.8398C231.659 24.8034 231.604 24.7396 231.531 24.6484C231.44 24.5026 231.395 24.3841 231.395 24.293C231.395 24.2565 231.467 24.1654 231.613 24.0195L232.133 23.418C232.26 23.2539 232.415 22.9987 232.598 22.6523C232.78 22.2878 232.88 22.0052 232.898 21.8047C232.898 21.75 232.935 21.7227 233.008 21.7227C233.172 21.7227 233.363 21.8138 233.582 21.9961C233.673 22.069 233.746 22.151 233.801 22.2422C233.874 22.3333 233.91 22.4062 233.91 22.4609C233.91 22.5339 233.865 22.6159 233.773 22.707C233.682 22.7982 233.473 23.0716 233.145 23.5273L232.762 24.0195L234.348 23.7461C235.022 23.6914 235.523 23.6185 235.852 23.5273L236.262 23.4727C236.353 23.4544 236.462 23.4453 236.59 23.4453C236.717 23.4453 236.927 23.582 237.219 23.8555C237.328 23.9466 237.401 24.0286 237.438 24.1016C237.492 24.1562 237.52 24.2201 237.52 24.293C237.52 24.3659 237.501 24.4388 237.465 24.5117C237.428 24.5664 237.392 24.6211 237.355 24.6758C237.173 24.8581 236.909 25.1953 236.562 25.6875C236.271 26.1068 235.842 26.6172 235.277 27.2188L235.961 27.5469C236.836 27.9844 237.346 28.276 237.492 28.4219ZM234.785 39.168C234.785 39.1497 234.831 39.0859 234.922 38.9766C235.031 38.849 235.15 38.694 235.277 38.5117C235.496 38.2018 235.715 37.7461 235.934 37.1445C236.152 36.543 236.271 35.987 236.289 35.4766C236.289 35.4401 236.271 35.4036 236.234 35.3672C236.216 35.3125 236.171 35.2852 236.098 35.2852L235.469 35.3398L234.539 35.4219C234.339 36.0781 233.992 36.7891 233.5 37.5547C233.281 37.901 232.98 38.2109 232.598 38.4844C232.233 38.7396 231.878 38.9219 231.531 39.0312C231.422 39.0677 231.285 39.0859 231.121 39.0859C230.993 39.0677 230.93 39.0312 230.93 38.9766C230.93 38.9036 230.993 38.8398 231.121 38.7852C231.34 38.6393 231.586 38.4115 231.859 38.1016C232.151 37.7917 232.406 37.4727 232.625 37.1445C232.753 36.9622 232.889 36.7253 233.035 36.4336C233.181 36.1237 233.299 35.8411 233.391 35.5859C232.807 35.6589 232.206 35.7956 231.586 35.9961C231.549 36.0326 231.486 36.0508 231.395 36.0508C231.34 36.0508 231.258 36.0143 231.148 35.9414C231.003 35.7956 230.902 35.6862 230.848 35.6133C230.811 35.5221 230.829 35.4401 230.902 35.3672L231.012 35.1484C231.085 35.0391 231.158 34.8203 231.23 34.4922C231.303 34.1641 231.34 33.8997 231.34 33.6992C231.34 33.6445 231.331 33.5807 231.312 33.5078C231.312 33.4167 231.322 33.3711 231.34 33.3711C231.376 33.3529 231.422 33.3529 231.477 33.3711C231.677 33.4076 231.859 33.4714 232.023 33.5625C232.169 33.6536 232.27 33.7539 232.324 33.8633C232.397 33.9544 232.397 34.0365 232.324 34.1094C232.306 34.1276 232.279 34.1641 232.242 34.2188C232.206 34.2552 232.178 34.3099 232.16 34.3828C232.142 34.401 232.105 34.6016 232.051 34.9844C232.051 35.0026 232.06 35.0208 232.078 35.0391C232.115 35.0573 232.151 35.0573 232.188 35.0391C232.242 35.0391 232.324 35.0299 232.434 35.0117C232.543 34.9935 232.625 34.9753 232.68 34.957C232.807 34.9388 232.953 34.9115 233.117 34.875C233.299 34.8385 233.464 34.8112 233.609 34.793C233.664 34.5924 233.701 34.3737 233.719 34.1367C233.755 33.8815 233.783 33.7083 233.801 33.6172L233.828 33.043V32.8516C233.245 32.8698 232.634 32.9245 231.996 33.0156L231.504 33.0977H231.395C231.303 33.0977 231.212 33.0703 231.121 33.0156C231.048 32.9609 230.966 32.8971 230.875 32.8242C230.638 32.6055 230.52 32.4414 230.52 32.332C230.52 32.2227 230.602 32.1862 230.766 32.2227C230.984 32.2591 231.212 32.2773 231.449 32.2773L232.242 32.25L236.043 31.9766C236.189 31.9583 236.326 31.9401 236.453 31.9219C236.581 31.8854 236.708 31.8581 236.836 31.8398H236.918C237.155 31.8398 237.319 31.8854 237.41 31.9766C237.52 32.0495 237.583 32.0951 237.602 32.1133C237.893 32.3503 238.039 32.5326 238.039 32.6602C238.039 32.7695 237.884 32.8151 237.574 32.7969L237.027 32.7422C236.553 32.724 235.842 32.7422 234.895 32.7969L234.785 33.8633C234.767 34.0456 234.749 34.1914 234.73 34.3008C234.712 34.4102 234.694 34.5013 234.676 34.5742L234.648 34.6562C235.086 34.6198 235.596 34.5651 236.18 34.4922C236.216 34.474 236.28 34.4557 236.371 34.4375C236.462 34.401 236.553 34.3737 236.645 34.3555H236.699C236.809 34.3555 236.918 34.401 237.027 34.4922C237.137 34.5833 237.201 34.638 237.219 34.6562C237.365 34.7839 237.465 34.8932 237.52 34.9844C237.592 35.0573 237.602 35.1211 237.547 35.1758C237.51 35.2487 237.465 35.3216 237.41 35.3945C237.374 35.4492 237.346 35.513 237.328 35.5859C237.237 36.3516 237.091 36.9714 236.891 37.4453C236.727 37.8646 236.544 38.1836 236.344 38.4023C236.161 38.6029 235.934 38.7943 235.66 38.9766C235.551 39.0495 235.378 39.1133 235.141 39.168C234.904 39.2044 234.785 39.2044 234.785 39.168ZM242.742 27.082C242.961 27.082 243.07 27.1823 243.07 27.3828C243.07 27.4922 242.97 27.6471 242.77 27.8477C242.223 28.5221 241.138 29.8073 239.516 31.7031C239.388 31.8672 239.27 31.9492 239.16 31.9492C239.069 31.9492 238.868 31.8125 238.559 31.5391C238.303 31.3203 238.176 31.138 238.176 30.9922C238.176 30.8281 238.312 30.6732 238.586 30.5273C239.005 30.2904 239.634 29.8164 240.473 29.1055C241.311 28.3581 241.931 27.7656 242.332 27.3281C242.496 27.1641 242.633 27.082 242.742 27.082ZM217.203 31.6211L215.043 31.8945L214.359 31.9766C214.141 31.9766 213.931 31.9036 213.73 31.7578L213.43 31.4844C213.448 31.3203 213.539 31.2201 213.703 31.1836L215.562 30.8555C215.964 30.7826 216.246 30.7279 216.41 30.6914L216.684 30.6367L217.258 30.6914L217.34 28.2852L215.508 28.5586C214.961 28.6315 214.624 28.668 214.496 28.668C214.368 28.6497 214.223 28.6133 214.059 28.5586C213.895 28.4857 213.749 28.349 213.621 28.1484C213.639 28.0208 213.703 27.9388 213.812 27.9023L215.836 27.4648L216.547 27.3008L216.848 27.2461L217.312 27.1914V25.6328C217.294 25.2865 217.267 24.9128 217.23 24.5117C217.176 24.1289 217.112 23.8372 217.039 23.6367C216.966 23.418 216.884 23.2448 216.793 23.1172C216.702 22.9896 216.638 22.7891 216.602 22.5156C216.674 22.3516 216.93 22.2786 217.367 22.2969C217.659 22.3333 217.923 22.3789 218.16 22.4336C218.397 22.5065 218.643 22.5977 218.898 22.707C219.135 22.8164 219.299 22.9258 219.391 23.0352L219.555 23.3633C219.555 23.5273 219.518 23.7188 219.445 23.9375C219.372 24.1198 219.318 24.3112 219.281 24.5117C219.227 24.7305 219.19 24.931 219.172 25.1133C219.135 25.2956 219.117 25.5326 219.117 25.8242L219.062 28.1211C219.044 28.832 219.008 29.6523 218.953 30.582C218.88 31.5299 218.807 32.3503 218.734 33.043C218.661 33.7721 218.543 34.4648 218.379 35.1211C218.215 35.7773 217.923 36.543 217.504 37.418C217.085 38.293 216.583 39.0404 216 39.6602C215.417 40.3164 214.888 40.7904 214.414 41.082L213.539 41.2461L214.25 40.3711C214.542 40.0065 214.806 39.651 215.043 39.3047C215.28 38.9583 215.544 38.4479 215.836 37.7734C216.128 37.1172 216.319 36.5885 216.41 36.1875L216.711 35.0117L215.398 35.6133C215.18 35.6862 214.961 35.7956 214.742 35.9414L214.25 36.2695L213.922 36.4883C213.703 36.6341 213.521 36.707 213.375 36.707C213.211 36.707 213.01 36.6159 212.773 36.4336L212.309 36.0234C212.145 35.8411 212.008 35.6589 211.898 35.4766L211.816 35.1484C211.871 35.0208 212.026 34.9661 212.281 34.9844C212.5 35.0208 212.755 35.0391 213.047 35.0391L213.621 35.0117C213.785 34.9935 214.031 34.9388 214.359 34.8477L216.875 34.0547C216.911 33.8177 216.948 33.6172 216.984 33.4531C217.021 33.2891 217.057 33.0065 217.094 32.6055L217.203 31.6211ZM223.438 26.4531L225.461 25.9336C225.99 25.8242 226.345 25.7604 226.527 25.7422C226.728 25.7422 226.938 25.7786 227.156 25.8516C227.411 25.9245 227.639 26.0156 227.84 26.125L228.059 26.5625C227.949 26.6901 227.667 26.7904 227.211 26.8633L225.27 27.2461C224.96 27.3008 224.686 27.3281 224.449 27.3281L223.984 27.3008L223.438 27.2461L223.383 30.8281C223.674 30.737 223.893 30.6732 224.039 30.6367L224.859 30.418L225.625 30.1992C225.88 30.1263 226.117 30.099 226.336 30.1172L226.883 30.2539C227.174 30.3268 227.411 30.4271 227.594 30.5547C227.74 30.6641 227.812 30.7917 227.812 30.9375C227.776 31.0651 227.648 31.1471 227.43 31.1836L224.941 31.5664L224.258 31.6758L223.355 31.5664L223.273 35.1758L224.887 34.9023C225.197 34.8659 225.552 34.8021 225.953 34.7109C226.354 34.6198 226.673 34.5742 226.91 34.5742C227.165 34.5742 227.366 34.5924 227.512 34.6289C227.712 34.6836 227.922 34.7565 228.141 34.8477C228.378 34.957 228.551 35.1849 228.66 35.5312C228.605 35.6589 228.523 35.7318 228.414 35.75L225.57 35.9961L224.148 36.1602L223.273 36.1055L223.219 37.6094C223.219 37.8828 223.201 38.3841 223.164 39.1133C223.128 39.8424 223.073 40.4258 223 40.8633C222.945 41.319 222.863 41.7383 222.754 42.1211L222.535 42.7773L222.18 42.9961C222.07 42.8867 221.988 42.6953 221.934 42.4219C221.897 42.1302 221.861 41.7747 221.824 41.3555C221.788 40.9362 221.76 40.1888 221.742 39.1133C221.724 38.4023 221.715 37.7461 221.715 37.1445V36.2422L221.852 22.7617C221.852 22.4701 221.824 22.1055 221.77 21.668C221.715 21.2122 221.642 20.875 221.551 20.6562C221.46 20.4375 221.423 20.2188 221.441 20C221.551 19.8724 221.697 19.8086 221.879 19.8086C222.007 19.8451 222.161 19.8815 222.344 19.918C222.526 19.9544 222.763 20.0273 223.055 20.1367C223.346 20.2643 223.565 20.401 223.711 20.5469L223.93 20.9297C223.948 21.0573 223.93 21.2031 223.875 21.3672C223.802 21.4948 223.747 21.668 223.711 21.8867C223.674 22.1055 223.638 22.388 223.602 22.7344C223.565 23.0807 223.547 23.4635 223.547 23.8828L223.438 26.4531ZM211.023 26.5078C211.279 26.4167 211.497 26.3346 211.68 26.2617C211.862 26.207 212.026 26.1706 212.172 26.1523C212.318 26.1523 212.518 26.1888 212.773 26.2617C213.029 26.2982 213.257 26.3893 213.457 26.5352L213.758 26.8359L213.703 27.082C213.576 27.1914 213.411 27.2643 213.211 27.3008L212.719 27.4102L211.598 27.6289L210.969 27.7383L210.859 31.4023L212.773 30.2812L213.211 30.3086C213.247 30.418 213.174 30.5456 212.992 30.6914L210.859 32.3867V35.2852C210.859 35.8685 210.878 36.5612 210.914 37.3633C210.951 38.1654 210.969 38.694 210.969 38.9492C210.969 39.2409 210.951 39.5234 210.914 39.7969C210.878 40.0885 210.777 40.4258 210.613 40.8086C210.449 41.1732 210.258 41.4648 210.039 41.6836C209.857 41.8659 209.684 41.957 209.52 41.957C209.392 41.957 209.292 41.9115 209.219 41.8203C209.146 41.7292 209.046 41.5924 208.918 41.4102C208.79 41.2461 208.626 41.0547 208.426 40.8359C208.225 40.6172 208.043 40.4076 207.879 40.207C207.697 40.0247 207.56 39.8971 207.469 39.8242C207.396 39.7331 207.286 39.6237 207.141 39.4961L206.566 38.9219L206.758 38.7852L207.523 38.9492L207.906 39.0586C208.125 39.1315 208.326 39.1771 208.508 39.1953C208.69 39.1953 208.854 39.1406 209 39.0312C209.146 38.9036 209.237 38.6029 209.273 38.1289C209.328 37.6185 209.374 37.1263 209.41 36.6523L209.602 33.3438L207.852 34.7656L206.648 35.7227L206.047 36.2969L205.746 36.5703L205.336 36.8438C205.19 36.8438 205.026 36.8073 204.844 36.7344C204.661 36.6432 204.47 36.5247 204.27 36.3789L203.695 35.9414C203.549 35.7773 203.495 35.5312 203.531 35.2031C203.714 35.1484 203.878 35.0938 204.023 35.0391C204.188 34.9844 204.361 34.9206 204.543 34.8477C204.725 34.7747 204.971 34.6562 205.281 34.4922C205.573 34.3464 205.91 34.1641 206.293 33.9453L209.656 32.1133L209.711 28.0117L208.207 28.2305C207.861 28.3034 207.505 28.3398 207.141 28.3398C206.885 28.3398 206.676 28.3216 206.512 28.2852C206.293 28.2487 206.083 28.194 205.883 28.1211C205.664 28.0482 205.536 27.8841 205.5 27.6289C205.573 27.5378 205.664 27.4831 205.773 27.4648L206.375 27.3828L207.387 27.2461C207.952 27.1914 208.398 27.1276 208.727 27.0547L209.711 26.8633V24.1289C209.711 23.8372 209.684 23.4089 209.629 22.8438C209.574 22.2786 209.52 21.8867 209.465 21.668C209.41 21.4492 209.337 21.194 209.246 20.9023C209.155 20.6654 209.109 20.4648 209.109 20.3008L209.219 20C209.328 19.9089 209.456 19.8633 209.602 19.8633C209.839 19.8997 210.066 19.9453 210.285 20C210.486 20.0729 210.768 20.2096 211.133 20.4102C211.479 20.6289 211.716 20.8203 211.844 20.9844C211.953 21.1484 212.008 21.3034 212.008 21.4492C212.008 21.5768 211.944 21.7409 211.816 21.9414C211.689 22.1237 211.589 22.3242 211.516 22.543C211.443 22.7617 211.388 22.9805 211.352 23.1992C211.315 23.3997 211.26 23.7279 211.188 24.1836C211.151 24.6393 211.133 24.931 211.133 25.0586L211.023 26.5078Z" fill="#333333"/>
<path d="M277.902 24.5035C277.64 23.518 276.869 22.742 275.89 22.4786C274.116 22 267 22 267 22C267 22 259.884 22 258.109 22.4786C257.13 22.742 256.359 23.518 256.098 24.5035C255.622 26.2896 255.622 30.0162 255.622 30.0162C255.622 30.0162 255.622 33.7427 256.098 35.5289C256.359 36.5143 257.13 37.258 258.109 37.5214C259.884 38 267 38 267 38C267 38 274.116 38 275.89 37.5214C276.869 37.258 277.64 36.5143 277.902 35.5289C278.378 33.7427 278.378 30.0162 278.378 30.0162C278.378 30.0162 278.378 26.2896 277.902 24.5035V24.5035ZM264.673 33.3996V26.6327L270.62 30.0163L264.673 33.3996V33.3996Z" fill="#FF4747"/>
</svg>
