<svg width="160" height="50" viewBox="0 0 160 50" fill="none" xmlns="http://www.w3.org/2000/svg">
<path d="M58.3398 25.2852C58.1315 25.2852 58.0078 25.181 57.9688 24.9727C57.8906 24.7513 57.6823 24.4779 57.3438 24.1523L57.4023 24.0742C57.4544 24.1003 57.6042 24.1654 57.8516 24.2695C58.099 24.3607 58.2682 24.4062 58.3594 24.4062C58.4375 24.4062 58.4961 24.4062 58.5352 24.4062C58.5742 24.3932 58.6198 24.3607 58.6719 24.3086C58.8281 24.1914 59.0234 23.9245 59.2578 23.5078C59.4271 23.1693 59.5768 22.7721 59.707 22.3164C59.8503 21.8607 59.9219 21.5156 59.9219 21.2812C59.9219 21.2161 59.8698 21.1836 59.7656 21.1836L59.0234 21.2227L58.5156 21.2617L58.1836 21.2812L58.0469 21.3008C58.138 21.3659 58.1966 21.4245 58.2227 21.4766C58.2617 21.5156 58.2812 21.5677 58.2812 21.6328C58.2812 21.6979 58.2031 21.8802 58.0469 22.1797C57.9167 22.4661 57.7083 22.7917 57.4219 23.1562C57.1875 23.4688 56.8685 23.8073 56.4648 24.1719C56.0742 24.5234 55.7812 24.7057 55.5859 24.7188C55.5469 24.7188 55.5078 24.7122 55.4688 24.6992C55.4427 24.6732 55.4297 24.6406 55.4297 24.6016C55.4297 24.5885 55.5339 24.4648 55.7422 24.2305L56.2891 23.5859C56.6797 23.0651 57.0768 22.401 57.4805 21.5938C57.5195 21.4896 57.5 21.431 57.4219 21.418C57.3438 21.431 57.181 21.4505 56.9336 21.4766C56.6862 21.4896 56.4648 21.5286 56.2695 21.5938C56.2565 21.5938 56.2109 21.6133 56.1328 21.6523C56.0547 21.6784 55.9896 21.6914 55.9375 21.6914C55.8594 21.6914 55.7943 21.6654 55.7422 21.6133L55.5859 21.4766C55.4688 21.3854 55.4102 21.3008 55.4102 21.2227C55.4102 21.1966 55.4232 21.1576 55.4492 21.1055L55.5469 20.9492C55.599 20.8841 55.6836 20.7799 55.8008 20.6367C55.918 20.4935 56.0482 20.2982 56.1914 20.0508C56.2174 19.9987 56.2695 19.8815 56.3477 19.6992C56.4388 19.5169 56.4844 19.4062 56.4844 19.3672V19.2891C56.4844 19.2109 56.4974 19.1589 56.5234 19.1328C56.5495 19.1068 56.6081 19.1068 56.6992 19.1328C56.7904 19.1589 56.901 19.2305 57.0312 19.3477L57.2461 19.5625C57.2852 19.6016 57.3047 19.6471 57.3047 19.6992C57.3047 19.8294 57.1224 20.0638 56.7578 20.4023C56.6927 20.4674 56.6146 20.5651 56.5234 20.6953C56.4323 20.8255 56.3867 20.9102 56.3867 20.9492C56.3867 21.0273 56.4453 21.0534 56.5625 21.0273L57.0117 20.9688C58.0404 20.8125 58.8151 20.7214 59.3359 20.6953L59.8633 20.6172L60.0391 20.5781L60.1367 20.5586C60.2409 20.5586 60.3125 20.5716 60.3516 20.5977C60.3906 20.6237 60.4297 20.6693 60.4688 20.7344C60.5078 20.7865 60.5469 20.832 60.5859 20.8711C60.6771 20.9753 60.7422 21.0664 60.7812 21.1445L60.8203 21.3203L60.7812 21.3984L60.7422 21.5156C60.7161 21.5807 60.6966 21.6458 60.6836 21.7109C60.6706 21.763 60.651 21.8216 60.625 21.8867C60.3516 22.9414 60.0326 23.7617 59.668 24.3477C59.5508 24.556 59.349 24.7643 59.0625 24.9727C58.7891 25.181 58.5482 25.2852 58.3398 25.2852ZM55.918 29.543C55.7747 29.543 55.599 29.4323 55.3906 29.2109C55.2344 29.0547 55.1562 28.9375 55.1562 28.8594C55.1562 28.8203 55.1823 28.8008 55.2344 28.8008C55.2865 28.7878 55.3516 28.7812 55.4297 28.7812L55.8594 28.7617C56.1068 28.7617 56.2695 28.7552 56.3477 28.7422C56.5951 28.7422 56.8034 28.7357 56.9727 28.7227C58.0924 28.6185 58.8477 28.5339 59.2383 28.4688C59.4336 28.4427 59.6094 28.4167 59.7656 28.3906C59.9219 28.3516 60.0456 28.332 60.1367 28.332C60.319 28.332 60.5013 28.4232 60.6836 28.6055C60.8268 28.7487 60.8984 28.8659 60.8984 28.957C60.8984 29.0352 60.8529 29.0872 60.7617 29.1133C60.6966 29.1263 60.3125 29.1523 59.6094 29.1914C59.2188 29.2044 58.737 29.237 58.1641 29.2891C57.5911 29.3411 57.0898 29.3932 56.6602 29.4453C56.582 29.4583 56.4714 29.4779 56.3281 29.5039C56.1849 29.5299 56.0482 29.543 55.918 29.543ZM61.6016 24.6211C61.6667 24.6211 61.7643 24.6667 61.8945 24.7578C61.8815 24.7839 61.9076 24.8359 61.9727 24.9141C62.0378 24.9792 62.0833 25.0247 62.1094 25.0508C62.1745 25.1159 62.2396 25.194 62.3047 25.2852C62.3828 25.3763 62.4674 25.474 62.5586 25.5781C62.793 25.8255 63.3333 26.4701 64.1797 27.5117C64.3229 27.7201 64.3945 27.8438 64.3945 27.8828C64.3945 28.013 64.3164 28.0781 64.1602 28.0781C64.069 28.0781 63.9714 28.013 63.8672 27.8828C63.6198 27.6224 63.1771 27.2122 62.5391 26.6523C62.0443 26.1966 61.5951 25.8451 61.1914 25.5977C60.9961 25.5065 60.8984 25.4023 60.8984 25.2852C60.8984 25.194 60.9961 25.0638 61.1914 24.8945C61.3737 24.7122 61.5104 24.6211 61.6016 24.6211ZM44.7656 34.4844C44.2969 34.4844 44.0625 34.25 44.0625 33.7812V29.8945C43.2292 30.7409 42.2135 31.5286 41.0156 32.2578C39.8698 32.9609 38.6914 33.5339 37.4805 33.9766C37.1029 34.1068 36.7969 34.0221 36.5625 33.7227C36.1979 33.2409 36.3151 32.9154 36.9141 32.7461C39.2578 31.9258 41.2174 30.8255 42.793 29.4453H38.9844C38.9844 29.4714 38.9779 29.4844 38.9648 29.4844C38.8477 29.888 38.5807 30.0638 38.1641 30.0117C37.6432 29.9336 37.4544 29.6797 37.5977 29.25C37.8711 28.3125 38.138 27.2708 38.3984 26.125C38.4635 25.8385 38.6003 25.6107 38.8086 25.4414C39.0299 25.2591 39.2904 25.168 39.5898 25.168H44.0625V23.1953H38.2617C37.8581 23.1953 37.6562 22.987 37.6562 22.5703C37.6562 22.1667 37.8581 21.9648 38.2617 21.9648H44.668H50.5469C50.8854 21.9648 51.1589 22.069 51.3672 22.2773C51.5755 22.4857 51.6797 22.7591 51.6797 23.0977V25.2656C51.6797 25.6042 51.5755 25.8776 51.3672 26.0859C51.1589 26.2943 50.8854 26.3984 50.5469 26.3984H45.4688V28.1953H51.6406C52.4219 28.1953 52.7409 28.8464 52.5977 30.1484C52.3893 31.7891 52.1029 32.7917 51.7383 33.1562C51.4648 33.4557 51.0612 33.612 50.5273 33.625C50.0065 33.651 49.4792 33.6576 48.9453 33.6445C48.3724 33.6315 48.0469 33.3841 47.9688 32.9023V32.8828L47.9492 32.8633C47.7799 32.4857 47.9622 32.3164 48.4961 32.3555C48.9128 32.3685 49.3815 32.375 49.9023 32.375C50.2539 32.375 50.4818 32.3294 50.5859 32.2383C50.8333 31.9909 51.0352 31.2878 51.1914 30.1289C51.2174 29.8685 51.2044 29.6927 51.1523 29.6016C51.1003 29.4974 51.0026 29.4453 50.8594 29.4453H45.4688V33.7812C45.4688 34.25 45.2344 34.4844 44.7656 34.4844ZM39.3164 28.1953H41.6797H44.0625V26.3984H39.7461C39.694 26.6328 39.6094 26.9779 39.4922 27.4336C39.4141 27.7721 39.3555 28.026 39.3164 28.1953ZM45.4688 25.168H49.8633C50.1367 25.168 50.2734 25.0312 50.2734 24.7578V23.6055C50.2734 23.332 50.1367 23.1953 49.8633 23.1953H47.8711H45.4688V25.168ZM37.3828 21.4766C37.0964 21.776 36.7904 21.8151 36.4648 21.5938C36.2305 21.4375 36.1003 21.2812 36.0742 21.125C36.0612 20.9688 36.1589 20.7865 36.3672 20.5781C37.2135 19.6146 37.9102 18.4818 38.457 17.1797C38.6133 16.776 38.9062 16.6328 39.3359 16.75C39.8047 16.8672 39.9544 17.1471 39.7852 17.5898C39.694 17.8372 39.5768 18.0911 39.4336 18.3516H41.9531H43.9062C44.2969 18.3516 44.4922 18.5469 44.4922 18.9375C44.4922 19.3281 44.2969 19.5234 43.9062 19.5234H40.957C41.1914 19.9792 41.3737 20.4023 41.5039 20.793C41.6081 21.1315 41.4714 21.3789 41.0938 21.5352C40.8594 21.6263 40.6771 21.6523 40.5469 21.6133C40.4036 21.5612 40.2995 21.4245 40.2344 21.2031C40.0521 20.6432 39.8242 20.0833 39.5508 19.5234H38.7891C38.3073 20.2917 37.8385 20.9427 37.3828 21.4766ZM49.6484 21.5938C49.2318 21.776 48.9453 21.6849 48.7891 21.3203C48.4635 20.6823 48.0859 20.0833 47.6562 19.5234H46.2695C45.8008 20.2266 45.2865 20.8581 44.7266 21.418C44.4271 21.7044 44.1146 21.7305 43.7891 21.4961C43.3464 21.1706 43.3398 20.819 43.7695 20.4414C44.7331 19.5039 45.4753 18.4232 45.9961 17.1992C46.1784 16.7695 46.4779 16.6133 46.8945 16.7305C47.3893 16.8477 47.5391 17.1471 47.3438 17.6289C47.3307 17.668 47.3047 17.7266 47.2656 17.8047C47.1354 18.0521 47.0378 18.2344 46.9727 18.3516H50.2148H52.8906C53.2812 18.3516 53.4766 18.5469 53.4766 18.9375C53.4766 19.3281 53.2812 19.5234 52.8906 19.5234H49.1797C49.5052 19.9661 49.7852 20.3958 50.0195 20.8125C50.1107 21.0078 50.1237 21.1641 50.0586 21.2812C50.0065 21.3984 49.8698 21.5026 49.6484 21.5938ZM85.918 26.6133C85.7747 26.6133 85.599 26.5026 85.3906 26.2812C85.2344 26.125 85.1562 26.0078 85.1562 25.9297C85.1562 25.8906 85.1823 25.8711 85.2344 25.8711C85.2865 25.8581 85.3516 25.8516 85.4297 25.8516L85.8594 25.832C86.1068 25.832 86.2695 25.8255 86.3477 25.8125C86.5951 25.8125 86.8034 25.806 86.9727 25.793C88.0924 25.6888 88.8477 25.6042 89.2383 25.5391C89.4336 25.513 89.6094 25.487 89.7656 25.4609C89.9219 25.4219 90.0456 25.4023 90.1367 25.4023C90.319 25.4023 90.5013 25.4935 90.6836 25.6758C90.8268 25.819 90.8984 25.9362 90.8984 26.0273C90.8984 26.1055 90.8529 26.1576 90.7617 26.1836C90.6966 26.1966 90.3125 26.2227 89.6094 26.2617C89.2188 26.2747 88.737 26.3073 88.1641 26.3594C87.5911 26.4115 87.0898 26.4635 86.6602 26.5156C86.582 26.5286 86.4714 26.5482 86.3281 26.5742C86.1849 26.6003 86.0482 26.6133 85.918 26.6133ZM66.8164 26.1836C66.2956 26.1836 66.0352 25.9167 66.0352 25.3828C66.0352 24.862 66.2956 24.6016 66.8164 24.6016H82.793C83.3138 24.6016 83.5742 24.862 83.5742 25.3828C83.5742 25.9167 83.3138 26.1836 82.793 26.1836H74.8047H66.8164ZM118.066 25.207C117.884 25.207 117.747 25.1484 117.656 25.0312C117.539 24.8099 117.298 24.569 116.934 24.3086L116.973 24.2109C117.376 24.3802 117.715 24.4648 117.988 24.4648C118.158 24.4648 118.301 24.3672 118.418 24.1719C118.548 23.9635 118.685 23.6641 118.828 23.2734C118.997 22.7917 119.089 22.388 119.102 22.0625C119.102 22.0234 119.082 21.9909 119.043 21.9648C119.004 21.9258 118.971 21.9062 118.945 21.9062C118.828 21.8932 118.607 21.9128 118.281 21.9648L117.871 22.0234C117.754 22.0365 117.617 22.0625 117.461 22.1016C117.318 22.1406 117.201 22.1667 117.109 22.1797C117.057 22.1927 116.973 22.2188 116.855 22.2578C116.738 22.2969 116.654 22.3164 116.602 22.3164C116.536 22.3164 116.458 22.2839 116.367 22.2188C116.289 22.1406 116.217 22.056 116.152 21.9648C116.139 21.9518 116.133 21.9258 116.133 21.8867C116.133 21.8346 116.172 21.7695 116.25 21.6914C116.341 21.6003 116.413 21.5286 116.465 21.4766C116.53 21.3984 116.595 21.3073 116.66 21.2031C116.725 21.0859 116.777 21.0013 116.816 20.9492C116.882 20.8451 116.934 20.7214 116.973 20.5781L117.012 20.4023C117.012 20.3893 117.005 20.3568 116.992 20.3047C116.979 20.2396 116.953 20.207 116.914 20.207C116.393 20.2721 116.009 20.3503 115.762 20.4414C115.71 20.4674 115.632 20.4935 115.527 20.5195C115.436 20.5195 115.358 20.4805 115.293 20.4023C115.254 20.3893 115.176 20.2852 115.059 20.0898C115.007 20.0378 114.98 19.9922 114.98 19.9531C114.98 19.862 115.117 19.8099 115.391 19.7969L115.762 19.7578C115.827 19.7578 115.964 19.7448 116.172 19.7188C116.589 19.6797 117.168 19.6341 117.91 19.582C118.171 19.569 118.62 19.5365 119.258 19.4844C119.44 19.4714 119.661 19.4453 119.922 19.4062C120.065 19.3672 120.156 19.3477 120.195 19.3477C120.26 19.3477 120.326 19.3737 120.391 19.4258C120.456 19.4518 120.54 19.5039 120.645 19.582C120.749 19.6471 120.827 19.7188 120.879 19.7969C120.931 19.862 120.957 19.9271 120.957 19.9922C120.957 20.0573 120.924 20.1029 120.859 20.1289C120.794 20.1549 120.71 20.1549 120.605 20.1289C120.449 20.0898 120.267 20.0638 120.059 20.0508C119.863 20.0378 119.746 20.0312 119.707 20.0312C119.264 20.0182 118.711 20.0378 118.047 20.0898C117.865 20.1159 117.728 20.1289 117.637 20.1289C117.715 20.194 117.786 20.2982 117.852 20.4414V20.4805C117.852 20.5195 117.832 20.5716 117.793 20.6367C117.754 20.7018 117.708 20.7474 117.656 20.7734C117.591 20.8125 117.513 20.9036 117.422 21.0469C117.331 21.1901 117.272 21.2812 117.246 21.3203C117.168 21.4245 117.129 21.5091 117.129 21.5742C117.129 21.6263 117.181 21.6458 117.285 21.6328C117.376 21.6198 117.565 21.5938 117.852 21.5547C118.151 21.5026 118.372 21.457 118.516 21.418C118.555 21.4049 118.613 21.3919 118.691 21.3789C118.783 21.3659 118.887 21.3398 119.004 21.3008C119.095 21.2878 119.186 21.3073 119.277 21.3594C119.382 21.4115 119.538 21.5221 119.746 21.6914C119.902 21.8086 119.98 21.9128 119.98 22.0039C119.98 22.069 119.954 22.1341 119.902 22.1992C119.85 22.2904 119.811 22.4141 119.785 22.5703C119.668 23.1172 119.531 23.5599 119.375 23.8984C119.258 24.1328 119.147 24.3281 119.043 24.4844C118.939 24.6276 118.809 24.7708 118.652 24.9141C118.483 25.1094 118.288 25.207 118.066 25.207ZM118.203 32.0234C117.578 32.0234 117.057 31.8672 116.641 31.5547C116.211 31.2031 115.996 30.793 115.996 30.3242C115.996 29.9596 116.133 29.6406 116.406 29.3672C116.758 29.0677 117.201 28.918 117.734 28.918C117.76 28.918 117.78 28.8919 117.793 28.8398C117.819 28.7747 117.832 28.6901 117.832 28.5859L117.852 28.0781C117.76 28.0911 117.585 28.1107 117.324 28.1367C117.077 28.1628 116.895 28.1888 116.777 28.2148C116.842 28.2018 116.641 28.2474 116.172 28.3516C116.133 28.3646 116.061 28.3711 115.957 28.3711C115.71 28.3711 115.501 28.2604 115.332 28.0391C115.254 27.9609 115.215 27.8958 115.215 27.8438C115.215 27.7656 115.332 27.7266 115.566 27.7266L116.172 27.6875L117.832 27.4727V27.2383V26.75C117.819 26.6979 117.812 26.6393 117.812 26.5742C117.812 26.5091 117.806 26.457 117.793 26.418C117.767 26.3138 117.754 26.2487 117.754 26.2227C117.754 26.1315 117.799 26.0859 117.891 26.0859C118.008 26.0859 118.21 26.1706 118.496 26.3398C118.587 26.3919 118.633 26.4635 118.633 26.5547C118.633 26.6198 118.62 26.6784 118.594 26.7305C118.581 26.7695 118.574 26.8151 118.574 26.8672V27.4141L119.16 27.3555L119.883 27.2773C119.948 27.2643 120.02 27.2448 120.098 27.2188C120.189 27.1927 120.26 27.1797 120.312 27.1797C120.391 27.1797 120.488 27.2188 120.605 27.2969C120.827 27.4401 120.938 27.5638 120.938 27.668C120.938 27.7721 120.827 27.8242 120.605 27.8242C120.54 27.8242 120.449 27.8372 120.332 27.8633C120.215 27.8763 120.065 27.8893 119.883 27.9023L118.574 28L118.555 29.1914C118.529 29.3867 118.385 29.5104 118.125 29.5625H118.086C118.008 29.5625 117.93 29.556 117.852 29.543C117.786 29.5169 117.734 29.5039 117.695 29.5039C117.591 29.5039 117.487 29.5104 117.383 29.5234C117.279 29.5365 117.188 29.5755 117.109 29.6406C116.888 29.8359 116.777 30.0638 116.777 30.3242C116.777 30.5846 116.901 30.819 117.148 31.0273C117.37 31.2357 117.721 31.3398 118.203 31.3398C118.841 31.3138 119.362 31.138 119.766 30.8125C119.935 30.6953 120.065 30.6367 120.156 30.6367C120.208 30.6367 120.273 30.6497 120.352 30.6758C120.365 30.6888 120.391 30.7148 120.43 30.7539C120.469 30.793 120.488 30.832 120.488 30.8711C120.488 31.2357 120.182 31.5352 119.57 31.7695C119.115 31.9388 118.659 32.0234 118.203 32.0234ZM121.602 24.6211C121.667 24.6211 121.764 24.6667 121.895 24.7578C121.882 24.7839 121.908 24.8359 121.973 24.9141C122.038 24.9792 122.083 25.0247 122.109 25.0508C122.174 25.1159 122.24 25.194 122.305 25.2852C122.383 25.3763 122.467 25.474 122.559 25.5781C122.793 25.8255 123.333 26.4701 124.18 27.5117C124.323 27.7201 124.395 27.8438 124.395 27.8828C124.395 28.013 124.316 28.0781 124.16 28.0781C124.069 28.0781 123.971 28.013 123.867 27.8828C123.62 27.6224 123.177 27.2122 122.539 26.6523C122.044 26.1966 121.595 25.8451 121.191 25.5977C120.996 25.5065 120.898 25.4023 120.898 25.2852C120.898 25.194 120.996 25.0638 121.191 24.8945C121.374 24.7122 121.51 24.6211 121.602 24.6211ZM108.184 34.4648C107.715 34.4648 107.48 34.237 107.48 33.7812V29.0742C106.413 30.8451 105.195 32.2383 103.828 33.2539C103.633 33.3841 103.464 33.4362 103.32 33.4102C103.177 33.3971 103.027 33.2995 102.871 33.1172C102.676 32.8958 102.591 32.707 102.617 32.5508C102.643 32.3945 102.786 32.2383 103.047 32.082C103.763 31.5872 104.453 30.9753 105.117 30.2461C105.781 29.5169 106.341 28.7552 106.797 27.9609H103.613C103.184 27.9609 102.969 27.7396 102.969 27.2969C102.969 26.8672 103.184 26.6523 103.613 26.6523H107.48V25.0312H104.824C104.486 25.0312 104.212 24.9271 104.004 24.7188C103.796 24.5104 103.691 24.237 103.691 23.8984V18.6055C103.691 18.2669 103.796 17.9935 104.004 17.7852C104.212 17.5768 104.486 17.4727 104.824 17.4727H108.223H111.621C111.96 17.4727 112.233 17.5768 112.441 17.7852C112.65 17.9935 112.754 18.2669 112.754 18.6055V23.8984C112.754 24.237 112.65 24.5104 112.441 24.7188C112.233 24.9271 111.96 25.0312 111.621 25.0312H108.867V26.6523H112.695C113.125 26.6523 113.34 26.8672 113.34 27.2969C113.34 27.7396 113.125 27.9609 112.695 27.9609H109.59C110.033 28.6901 110.573 29.4128 111.211 30.1289C111.849 30.832 112.493 31.431 113.145 31.9258C113.392 32.0951 113.522 32.2578 113.535 32.4141C113.548 32.5573 113.457 32.7396 113.262 32.9609C113.092 33.1432 112.936 33.2409 112.793 33.2539C112.663 33.2799 112.5 33.2148 112.305 33.0586C110.99 31.9648 109.844 30.5977 108.867 28.957V33.7812C108.867 34.237 108.639 34.4648 108.184 34.4648ZM97.8711 33.3711C97.5326 33.3711 97.2591 33.2669 97.0508 33.0586C96.8424 32.8503 96.7383 32.5768 96.7383 32.2383V28.8594C96.7383 28.5208 96.8424 28.2474 97.0508 28.0391C97.2591 27.8307 97.5326 27.7266 97.8711 27.7266H99.4727H101.094C101.432 27.7266 101.706 27.8307 101.914 28.0391C102.122 28.2474 102.227 28.5208 102.227 28.8594V32.2383C102.227 32.5768 102.122 32.8503 101.914 33.0586C101.706 33.2669 101.432 33.3711 101.094 33.3711H97.8711ZM98.3789 32.1992H99.4727H100.586C100.859 32.1992 100.996 32.0625 100.996 31.7891V29.3281C100.996 29.0547 100.859 28.918 100.586 28.918H98.3789C98.1055 28.918 97.9688 29.0547 97.9688 29.3281V31.7891C97.9688 32.0625 98.1055 32.1992 98.3789 32.1992ZM97.3438 26.2812C96.9531 26.2812 96.7578 26.0859 96.7578 25.6953C96.7578 25.3047 96.9531 25.1094 97.3438 25.1094H101.621C102.012 25.1094 102.207 25.3047 102.207 25.6953C102.207 26.0859 102.012 26.2812 101.621 26.2812H99.4727H97.3438ZM105.391 23.8398H107.539V21.8281H106.25H104.98V23.4297C104.98 23.7031 105.117 23.8398 105.391 23.8398ZM108.789 23.8398H110.098H111.016C111.289 23.8398 111.426 23.7031 111.426 23.4297V21.8281H108.789V23.8398ZM97.3242 23.6836C96.9466 23.6836 96.7578 23.4883 96.7578 23.0977C96.7578 22.7201 96.9466 22.5312 97.3242 22.5312H99.4727H101.641C102.018 22.5312 102.207 22.7201 102.207 23.0977C102.207 23.4883 102.018 23.6836 101.641 23.6836H97.3242ZM96.5039 21.0859C96.1133 21.0859 95.918 20.8841 95.918 20.4805C95.918 20.0898 96.1133 19.8945 96.5039 19.8945H99.3164H102.129C102.52 19.8945 102.715 20.0898 102.715 20.4805C102.715 20.8841 102.52 21.0859 102.129 21.0859H96.5039ZM104.98 20.6562H107.539V18.6641H106.25H105.391C105.117 18.6641 104.98 18.8008 104.98 19.0742V20.6562ZM108.789 20.6562H110.098H111.426V19.0742C111.426 18.8008 111.289 18.6641 111.016 18.6641H108.789V20.6562ZM97.4414 18.5078C97.0508 18.5078 96.8555 18.3125 96.8555 17.9219C96.8555 17.5312 97.0508 17.3359 97.4414 17.3359H99.4922H101.562C101.953 17.3359 102.148 17.5312 102.148 17.9219C102.148 18.3125 101.953 18.5078 101.562 18.5078H97.4414Z" fill="#333333"/>
</svg>
