<?xml version="1.0" encoding="utf-8"?>
<!-- Generator: Adobe Illustrator 24.2.0, SVG Export Plug-In . SVG Version: 6.00 Build 0)  -->
<svg version="1.1" xmlns="http://www.w3.org/2000/svg" xmlns:xlink="http://www.w3.org/1999/xlink" x="0px" y="0px"
	 viewBox="0 0 720 720" style="enable-background:new 0 0 720 720;" xml:space="preserve">
<style type="text/css">
	.st0{fill:#603813;stroke:#603813;stroke-miterlimit:10;}
	.st1{fill:#603813;}
	.st2{fill:none;stroke:#603813;stroke-width:10;stroke-miterlimit:10;}
	.st3{fill:none;stroke:#603813;stroke-width:8;stroke-miterlimit:10;}
	.st4{fill:none;stroke:#603813;stroke-width:16;stroke-miterlimit:10;}
	.st5{fill:#7AEDF2;}
	.st6{fill:#FC987A;}
	.st7{fill:#A4FF94;}
	.st8{fill:#FFA1E7;}
	.st9{fill:#FFFB78;}
	.st10{fill:#FAB8FF;}
	.st11{fill:#FA770C;}
	.st12{fill:#F7CB0F;}
	.st13{fill:#F8DE76;}
	.st14{fill:#3D1C07;}
	.st15{fill:#BE090E;}
	.st16{fill:#FBBDE8;}
	.st17{fill:#F568CC;}
	.st18{fill-rule:evenodd;clip-rule:evenodd;fill:#BE090E;}
	.st19{fill-rule:evenodd;clip-rule:evenodd;fill:#570751;}
	.st20{fill:#FABFE9;}
	.st21{fill:#570751;}
</style>
<g id="base">
	<path class="st0" d="M703.9,670H16.1c-2.8,0-5.1,2.6-5.1,5.9v8.2c0,3.3,2.3,5.9,5.1,5.9h687.8c2.8,0,5.1-2.6,5.1-5.9v-8.2
		C709,672.6,706.7,670,703.9,670z"/>
	<path class="st1" d="M120,669.8L360,346L150.6,669.8H120z"/>
	<path class="st1" d="M600,669.8L360,346l209.4,323.8H600z"/>
</g>
<g id="structure">
	<path class="st2" d="M360,71v275"/>
	<path class="st2" d="M521.6,124L360,346.5"/>
	<path class="st2" d="M621.5,261L360,346"/>
	<path class="st2" d="M621.5,431L360,346"/>
	<path class="st2" d="M521.6,568.5L360,346"/>
	<path class="st2" d="M360,621V346"/>
	<path class="st2" d="M198,568.5L359.6,346"/>
	<path class="st2" d="M98,431l261.5-85"/>
	<path class="st2" d="M98,261l261.5,85"/>
	<path class="st2" d="M198,124l161.6,222.5"/>
	<path class="st3" d="M606,346c0,135.9-110.1,246-246,246S114,481.9,114,346s110.1-246,246-246S606,210.1,606,346z"/>
	<path class="st4" d="M627,346c0,147.5-119.5,267-267,267S93,493.5,93,346S212.5,79,360,79S627,198.5,627,346z"/>
</g>
<g id="circle">
	<path class="st5" d="M360,112c22.6,0,41-18.4,41-41s-18.4-41-41-41s-41,18.4-41,41S337.4,112,360,112z"/>
	<path class="st6" d="M479,139c22.6,0,41-18.4,41-41c0-22.6-18.4-41-41-41s-41,18.4-41,41C438,120.6,456.4,139,479,139z"/>
	<path class="st5" d="M575,216c22.6,0,41-18.4,41-41s-18.4-41-41-41s-41,18.4-41,41S552.4,216,575,216z"/>
	<path class="st7" d="M628,326c22.6,0,41-18.4,41-41s-18.4-41-41-41s-41,18.4-41,41S605.4,326,628,326z"/>
	<path class="st8" d="M628,448c22.6,0,41-18.4,41-41s-18.4-41-41-41s-41,18.4-41,41S605.4,448,628,448z"/>
	<path class="st9" d="M575,558c22.6,0,41-18.4,41-41c0-22.6-18.4-41-41-41s-41,18.4-41,41C534,539.6,552.4,558,575,558z"/>
	<path class="st5" d="M479,635c22.6,0,41-18.4,41-41s-18.4-41-41-41s-41,18.4-41,41S456.4,635,479,635z"/>
	<path class="st7" d="M360,662c22.6,0,41-18.4,41-41s-18.4-41-41-41s-41,18.4-41,41S337.4,662,360,662z"/>
	<path class="st10" d="M241,635c22.6,0,41-18.4,41-41s-18.4-41-41-41s-41,18.4-41,41S218.4,635,241,635z"/>
	<path class="st9" d="M145,558c22.6,0,41-18.4,41-41c0-22.6-18.4-41-41-41s-41,18.4-41,41C104,539.6,122.4,558,145,558z"/>
	<path class="st6" d="M88,448c22.6,0,41-18.4,41-41s-18.4-41-41-41c-22.6,0-41,18.4-41,41S65.4,448,88,448z"/>
	<path class="st7" d="M92,325c22.6,0,41-18.4,41-41s-18.4-41-41-41c-22.6,0-41,18.4-41,41S69.4,325,92,325z"/>
	<path class="st10" d="M145,216c22.6,0,41-18.4,41-41s-18.4-41-41-41s-41,18.4-41,41S122.4,216,145,216z"/>
	<path class="st9" d="M241,139c22.6,0,41-18.4,41-41c0-22.6-18.4-41-41-41s-41,18.4-41,41C200,120.6,218.4,139,241,139z"/>
</g>
<g id="sunny">
	<path class="st11" d="M345.1,277.6c-1.5-1.4-12.6-59.4-10.4-62.3s40.1-3.6,43.8,1c3.7,4.6-1.2,58.3-2.9,59.2
		C374,276.5,347.6,279.9,345.1,277.6z"/>
	<path class="st12" d="M389.7,274.3c-1.3-3.1,6.8-46.2,10.7-48c3.7-1.7,25.4,10,25.5,14.2c0.1,4.2-16.3,38.2-18.7,39.1
		C404.9,280.6,390,275.2,389.7,274.3z"/>
	<path class="st11" d="M423.2,281c-2.7-2.4,20.1-56.7,23.8-58.1c2.9-1.1,26,20.1,27.3,23.7c1.2,3.1-28.6,44-33.2,44
		S424.7,282.4,423.2,281z"/>
	<path class="st12" d="M452.5,303.2c1.8-2,37.3-27.6,41.2-27.7c3.9-0.1,14.7,14.4,13.9,17.3c-0.9,2.9-45.1,29.7-46.7,28.7
		C459.2,320.5,451.6,304.3,452.5,303.2z"/>
	<path class="st11" d="M464.7,332.6c2.9-0.7,42.6,3.6,44.1,6.4s-7.9,35.6-10.4,36.9c-2.5,1.3-36.1-17.5-36.8-18.9
		S463.4,332.9,464.7,332.6z"/>
	<path class="st11" d="M420.7,422.2c0.5,2.6,24.8,46.2,28.9,45.6c4.4-0.6,41.2-39.3,40.6-44.4s-39.8-28.3-43-27.3
		C444.1,397.1,420.5,420.8,420.7,422.2z"/>
	<path class="st12" d="M377.5,427.9c-2.1,1.1-10.7,43.7-8.3,46.8c2.4,3.1,34.3-1.1,35.6-4.7c1.4-3.6-6.9-40.9-8.9-42
		C394,426.8,379.7,426.8,377.5,427.9z"/>
	<path class="st11" d="M325,418.9c-1.7,0.6-21.5,36.6-20.8,39.8c0.7,3.2,38.5,22.2,41.7,19.7c3.2-2.5,9.3-48.9,7.7-51
		C352.1,425.2,327.5,418,325,418.9z"/>
	<path class="st12" d="M291.9,396.7c-2.3,0-30.2,29.6-30,34s20,17.2,22.9,17.3c2.9,0.1,17.9-36.9,17.5-38.7S293.4,396.7,291.9,396.7
		z"/>
	<path class="st11" d="M284.6,363.4c-1.6-3.2-70.1,8.2-73.7,11.8c-3.6,3.6,3.6,40.9,8.9,42.7c5.3,1.8,68.7-24.6,70.5-27.3
		C292.1,387.9,285.5,365,284.6,363.4z"/>
	<path class="st12" d="M283.6,337.3c-0.1-2.4-33.9-21.3-36.9-20.4c-2.9,0.8-12.3,23.3-11.5,26.4c0.8,3.1,45.1,10.6,47.4,8.6
		C285.1,349.9,283.6,337.3,283.6,337.3z"/>
	<path class="st11" d="M301.6,300.9c0.7-2.7-35.9-42.2-39.1-42.2c-3.2,0-21.8,20.2-21.4,23.6c0.4,3.3,48.6,34.5,51.6,33.5
		C295.7,314.7,301.2,302.6,301.6,300.9z"/>
	<path class="st12" d="M330.7,284.1c1-1.8-8.6-42.6-10.8-44.1c-2.2-1.5-26.6,7.5-27.2,9.2c-0.6,1.7,17,40.4,20.1,41.4
		C315.9,291.5,329.2,286.8,330.7,284.1z"/>
	<path class="st13" d="M363.2,267.9c82.5-4.5,113.9,37.5,104.8,92.5c-12.2,74.4-75.4,79.1-96.8,77.6s-98.3-2.1-98.3-81.3
		C272.8,287.4,337.7,269.3,363.2,267.9z"/>
	<path class="st14" d="M330.5,303.7c0,2.3-1.6,4.2-3.7,4.2c-1.6,0-3.1-1.5-3.1-3.1c0-2,2.3-4.5,4.2-4.5
		C329.5,300.4,330.5,301.6,330.5,303.7z"/>
	<path class="st14" d="M377.5,292.2c0,2.1-1.7,4-3.5,3.9c-1.5-0.1-3.4-1.8-3.4-3.1c0-2,2-4.1,3.8-4.1
		C376.1,289,377.6,290.5,377.5,292.2z"/>
	<path class="st15" d="M304.4,333.8c-3.9,0-6.8-3.5-5.2-6c1-1.6,2.6-2.9,4.1-3.9c2.9-1.9,7.1,0.3,8.6,2.4c1.5,2.2,0.5,5.4-2.1,6.3
		C308,333.2,306,333.8,304.4,333.8z"/>
	<path class="st15" d="M401,303.1c-2.4,0-4.4-1.5-4.8-3.6c-0.5-2.3,0.7-4.7,3-5.5c2.5-0.9,5-0.8,7.2,0.9c2,1.5,2.2,3.7,0.6,5.6
		C405.3,302.4,403.1,303.1,401,303.1z"/>
	<path class="st16" d="M309.2,327.6c0.5,0,1,0.5,1,0.9c-0.1,1-1.4,2.7-2.4,2.5c-0.5-0.1-1.2-0.6-1.2-1
		C306.5,329,307.7,327.6,309.2,327.6z"/>
	<path class="st16" d="M405.9,298.2c0,0.5-1.5,1.6-2,1.6c-0.4,0-0.9-0.8-1-1.1c-0.1-0.6,1.3-1.5,1.6-1.6c0.2,0,0.3,0,0.5,0
		s0.3,0.1,0.4,0.2c0.1,0.1,0.2,0.2,0.3,0.4C405.8,297.9,405.9,298,405.9,298.2L405.9,298.2z"/>
	<path class="st15" d="M355.8,332.4c-2.5,0-7-1.6-10.3-4.1c-2.3-1.7-1.8-4.1,0.7-5.4c5.5-2.9,11.6-4.2,17.4-5.6
		c3.9-0.7,5.2,0.2,4.5,4.4C367,328,362.3,332.4,355.8,332.4z"/>
</g>
<g id="elephant">
	<path class="st17" d="M657.7,645.2c-2,1.2-5.2,22.5-4.2,23.8s5.1,1.8,6.4,0.5c0.5-1.8,1.8-23.7,0.8-23.7
		C659.1,645.8,659.1,644.4,657.7,645.2z"/>
	<path class="st17" d="M665.4,647.2c-1,0.5-1.9,20.5-1.7,21.9c0.7,1.2,4.5,1.7,6.1,0.7c0.8-2.4,0-20.8-1.5-22.2
		C667.7,647,666.9,646.4,665.4,647.2z"/>
	<path class="st17" d="M681.6,648.6c-1,1.1-1.1,19.3-0.8,21c0.4,1.3,5.6,0.8,6-0.4c0.3-1.8-0.5-20.1-2.4-21.8
		C683.1,646.5,682.7,647.3,681.6,648.6z"/>
	<path class="st17" d="M689.4,646.1c-1,4.2,0.7,19.4,1.3,23c0.5,1.5,3.7,1,4.9,0.2c0.6-1.7-1.6-22.6-2.5-23.5
		C691.4,644.2,691,645.1,689.4,646.1z"/>
	<path id="_x3C_路徑_x3E_" class="st18" d="M643.8,594.8c0.4-0.5,0.3-1.3-0.2-1.7c-0.5-0.5-1.4-0.4-1.9,0.1
		c-0.2,0.2-0.3,0.4-0.3,0.6c-0.1,0.2-0.1,0.3-0.2,0.5c-0.1,0.4-0.3,0.9-0.4,1.4c-0.3,1.1-0.6,2.7-1,4.5c-0.7,3.6-1.6,8.2-2.4,12.9
		c-0.8,4.7-1.5,9.4-1.9,13c-0.2,1.8-0.3,3.4-0.4,4.6c0,0.6,0,1.1,0,1.6c0,0.2,0,0.4,0.1,0.7c0,0.2,0.1,0.5,0.3,0.7
		c0.4,0.6,1.2,0.7,1.8,0.3c0.5-0.4,0.7-1.1,0.4-1.7c0,0,0-0.1,0-0.2c0-0.3,0-0.7,0-1.3c0-1.1,0.2-2.6,0.4-4.4
		c0.4-3.6,1.1-8.3,1.9-12.9c0.8-4.7,1.6-9.3,2.4-12.8c0.4-1.8,0.7-3.3,1-4.3c0.1-0.5,0.3-1,0.4-1.3
		C643.7,595,643.8,594.9,643.8,594.8z M637.8,632.5C637.8,632.5,637.8,632.5,637.8,632.5C637.8,632.5,637.8,632.5,637.8,632.5z
		 M643.8,594.8C643.8,594.8,643.8,594.8,643.8,594.8C643.8,594.8,643.8,594.8,643.8,594.8z"/>
	<path class="st15" d="M646.1,578.3c1.2-0.1,3.9-2.4,8.1,0.2c2.1,1.5,4.3,4.4,2.3,9c-1,2.3-2.7,4.2-4.9,5.5
		c-4.7,2.8-9.6,4.3-10.7,4.4c-1.4-4-7.1-9.9-7.6-13.6c-0.5-3.1,0.2-8.2,5.6-8.8C644.3,574.6,646.1,578.3,646.1,578.3z"/>
	<path class="st13" d="M653.7,586.9c1,0.6-0.3,2.3-2.2,3.7c-1.6,1.2-3.5,2.1-4.1,1.3c-0.7-0.9,1.2-0.9,3.4-2.7
		C652.6,587.8,653.1,586.5,653.7,586.9z"/>
	<path class="st13" d="M646.5,592.5c0.3,0.5,0,0.9-0.2,1c-0.2,0.2-0.9,0.1-1.1-0.2c-0.2-0.2-0.3-0.9,0.1-1.1
		C645.8,592,646.2,592,646.5,592.5z"/>
	<path class="st17" d="M653.8,614.4c-1.8,0.3-13.1,6.2-17.1,4.2c-3.5-1.7-4.9-5.5-3-7.7c1.9-2.1,5,1.7,7.3,1.6
		c2.4-0.1,4.8-1.5,5-5.8c0.2-4.2-2.8-6.5-6.7-7c-3.9-0.5-10.6,1.7-12.9,5.8c-2.4,4.2-1.5,12.1,1.7,16.1c4.7,5.9,17,7.7,25.7,3.2
		C654.4,618.5,654.6,614.9,653.8,614.4z"/>
	<path class="st19" d="M629.6,612.6c0-0.4,0.3-0.7,0.7-0.7h2.5c0.4,0,0.7,0.3,0.7,0.7c0,0.4-0.3,0.7-0.7,0.7h-2.5
		C629.9,613.3,629.6,613,629.6,612.6z"/>
	<path class="st19" d="M634.7,616c0.2,0.3,0,0.7-0.3,0.9l-2.6,1.3c-0.3,0.2-0.7,0-0.9-0.3c-0.2-0.3,0-0.7,0.3-0.9l2.6-1.3
		C634.2,615.6,634.6,615.7,634.7,616z"/>
	<path class="st19" d="M638.2,618.7c0.4,0,0.7,0.3,0.7,0.7v2.4c0,0.4-0.3,0.7-0.7,0.7s-0.7-0.3-0.7-0.7v-2.4
		C637.5,619,637.8,618.7,638.2,618.7z"/>
	<path class="st19" d="M642.5,618.5c0.3-0.1,0.7,0,0.9,0.3l1.2,2.7c0.1,0.3,0,0.7-0.3,0.9c-0.3,0.1-0.7,0-0.9-0.3l-1.2-2.7
		C642,619,642.1,618.6,642.5,618.5z"/>
	<path class="st20" d="M702.7,596.9c0,0-2.7,4.4-7.9,5.2L702.7,596.9z"/>
	<path class="st19" d="M703.2,596.2c0.4,0.2,0.5,0.8,0.3,1.2l-0.8-0.5c0.8,0.5,0.7,0.5,0.7,0.5v0l0,0l0,0l0,0c0,0,0,0,0,0
		c0,0-0.1,0.1-0.1,0.2c-0.1,0.1-0.2,0.3-0.4,0.6c-0.4,0.5-0.9,1.1-1.6,1.7c-1.4,1.3-3.5,2.7-6.3,3.1c-0.5,0.1-0.9-0.3-1-0.7
		c-0.1-0.5,0.3-0.9,0.7-1c2.4-0.4,4.2-1.6,5.4-2.7c0.6-0.6,1.1-1.1,1.4-1.5c0.2-0.2,0.3-0.4,0.3-0.5c0-0.1,0.1-0.1,0.1-0.1
		c0,0,0,0,0,0l0,0C702.2,596.1,702.8,595.9,703.2,596.2z"/>
	<path class="st16" d="M654.9,598.1c5-11.9,32.6-13.1,38.1-2.7c2.6,6.1,6.5,41.3,1.4,51.7c-5.4,7-37.7,5.5-40.8,0.3
		C648.9,639.5,651.3,605.9,654.9,598.1z"/>
	<path class="st17" d="M703.6,581.9c2.2-0.3,5.4,3.6,5.4,6.7c0,3-3.5,8.1-5.8,8.5c-2.4,0.3-4.5-5.5-4.1-7.6
		C699.5,587.3,701.5,582.2,703.6,581.9z"/>
	<path class="st21" d="M659,603.2c0.7,0,2.3,0.5,2.3,2.4c0,1.2-1.3,2.1-2.5,2.1c-1.2-0.1-2.2-1-2.2-2.2
		C656.7,604.1,657.5,603.2,659,603.2z"/>
	<path class="st17" d="M667.3,603.8c1.5-1,12.4-0.6,12.4,9.6c0,9.5-11.5,8.8-12.8,7.9C665.6,620.3,665.9,604.7,667.3,603.8z"/>
</g>
</svg>
